<?xml version="1.0" encoding="utf-8"?>
<!-- Generator: Adobe Illustrator 22.0.0, SVG Export Plug-In . SVG Version: 6.00 Build 0)  -->
<svg version="1.1" id="Calque_1" xmlns="http://www.w3.org/2000/svg" xmlns:xlink="http://www.w3.org/1999/xlink" x="0px" y="0px"
	 viewBox="0 0 200 200" style="enable-background:new 0 0 200 200;" xml:space="preserve">
<style type="text/css">
	.st0{fill:#FFFFFF;}
</style>
<path class="st0" d="M179.9,124.9L136.7,100l43.1-24.9c5.7-3.3,9.2-9.3,9.2-15.9s-3.5-12.6-9.2-15.9L109.2,2.5
	c-5.7-3.3-12.7-3.3-18.4,0L20.1,43.3c-5.7,3.3-9.2,9.3-9.2,15.9v81.6c0,6.6,3.5,12.6,9.2,15.9l70.7,40.8c2.8,1.6,6,2.5,9.2,2.5
	s6.3-0.8,9.2-2.5l70.7-40.8c5.7-3.3,9.2-9.3,9.2-15.9C189.1,134.2,185.6,128.2,179.9,124.9z M158.9,56c0.8-3.2,2.9-5.8,5.7-7.4
	c1.9-1.1,4-1.6,6.1-1.6c4.4,0,8.4,2.3,10.6,6.1c1.6,2.8,2.1,6.1,1.2,9.3c-0.8,3.2-2.9,5.8-5.7,7.4c-1.9,1.1-4,1.6-6.1,1.6
	c-4.4,0-8.4-2.3-10.6-6.1C158.4,62.5,158,59.2,158.9,56z M100,6.1c6.8,0,12.2,5.5,12.2,12.2c0,6.8-5.5,12.2-12.2,12.2
	c-6.8,0-12.2-5.5-12.2-12.2S93.2,6.1,100,6.1z M41.1,144c-0.8,3.2-2.9,5.8-5.7,7.4c-1.9,1.1-4,1.6-6.1,1.6c-4.4,0-8.4-2.3-10.6-6.1
	c-1.6-2.8-2.1-6.1-1.2-9.3c0.8-3.2,2.9-5.8,5.7-7.4c1.9-1.1,4-1.6,6.1-1.6c4.4,0,8.4,2.3,10.6,6.1C41.6,137.5,42,140.8,41.1,144z
	 M39.9,65.3c-2.2,3.8-6.3,6.1-10.6,6.1c-2.1,0-4.2-0.6-6.1-1.6c-2.8-1.6-4.9-4.3-5.7-7.4c-0.8-3.2-0.4-6.5,1.2-9.3
	C20.9,49.3,25,47,29.3,47c2.1,0,4.2,0.6,6.1,1.6c2.8,1.6,4.9,4.3,5.7,7.4C42,59.2,41.6,62.5,39.9,65.3z M100,193.9
	c-6.8,0-12.2-5.5-12.2-12.2c0-6.8,5.5-12.2,12.2-12.2c6.8,0,12.2,5.5,12.2,12.2S106.8,193.9,100,193.9z M90.8,84.1
	c-5.7,3.3-9.2,9.3-9.2,15.9s3.5,12.6,9.2,15.9l43.1,24.9L100,160.4l-52.3-30.2V69.8L100,39.6l33.9,19.6L90.8,84.1z M112.2,100
	c0,6.8-5.5,12.2-12.2,12.2c-6.8,0-12.2-5.5-12.2-12.2c0-6.8,5.5-12.2,12.2-12.2C106.8,87.8,112.2,93.2,112.2,100z M181.3,146.9
	c-2.2,3.8-6.3,6.1-10.6,6.1c-2.1,0-4.2-0.6-6.1-1.6c-2.8-1.6-4.9-4.3-5.7-7.4c-0.8-3.2-0.4-6.5,1.2-9.3c2.2-3.8,6.3-6.1,10.6-6.1
	c2.1,0,4.2,0.6,6.1,1.6c2.8,1.6,4.9,4.3,5.7,7.4C183.4,140.8,182.9,144.1,181.3,146.9z"/>
</svg>
