<?xml version="1.0" encoding="utf-8"?>
<!-- Generator: Adobe Illustrator 22.1.0, SVG Export Plug-In . SVG Version: 6.00 Build 0)  -->
<svg version="1.1" id="Van" xmlns="http://www.w3.org/2000/svg" xmlns:xlink="http://www.w3.org/1999/xlink" x="0px" y="0px"
	 viewBox="0 0 1920 1200" style="enable-background:new 0 0 1920 1200;" xml:space="preserve">
<style type="text/css">
	.st0{fill:#714636;}
	.st1{fill:#FFBB8E;}
	.st2{fill:#373332;}
</style>
<g>
	<path class="st0" d="M926.8,487h57.8c6.6,0,12-5.4,12-12v-20c0-6.6-5.4-12-12-12h-57.8c-6.6,0-12,5.4-12,12v20
		C914.8,481.6,920.2,487,926.8,487z"/>
	<path class="st1" d="M980.8,470.6L980.8,470.6c2.4,0,4.4-2,4.4-4.4v-2.5c0-2.4-2-4.4-4.4-4.4l0,0c-2.4,0-4.4,2-4.4,4.4v2.5
		C976.5,468.6,978.4,470.6,980.8,470.6z"/>
	<path class="st1" d="M930.6,470.6L930.6,470.6c2.4,0,4.4-2,4.4-4.4v-2.5c0-2.4-2-4.4-4.4-4.4h0c-2.4,0-4.4,2-4.4,4.4v2.5
		C926.3,468.6,928.2,470.6,930.6,470.6z"/>
	<path class="st2" d="M989.5,464h2.9v2h-2.9V464z M963.2,466h3v-2h-3V466z M969.1,466h3v-2h-3V466z M957.2,466h3v-2h-3V466z
		 M945.4,466h3v-2h-3V466z M939.4,466h3v-2h-3V466z M951.3,466h3v-2h-3V466z M919.1,466h2.9v-2h-2.9V466z M997.6,455v20
		c0,7.2-5.8,13-13,13h-1.5h-4.5h-45.6h-4.5h-1.5c-7.2,0-13-5.8-13-13v-20c0-7.2,5.8-13,13-13h1.5h4.5h45.6h4.5h1.5
		C991.8,442,997.6,447.8,997.6,455z M979.6,458.6c0.4-0.1,0.8-0.2,1.3-0.2s0.9,0.1,1.3,0.2V444h-2.5V458.6z M929.4,458.6
		c0.4-0.1,0.8-0.2,1.3-0.2s0.9,0.1,1.3,0.2V444h-2.5V458.6z M927.4,470.5c-1.3-1-2.1-2.5-2.1-4.2V466h-0.4v-2h0.4v-0.2
		c0-1.7,0.8-3.3,2.1-4.2V444h-0.5c-6.1,0-11,4.9-11,11v9h0.4v2h-0.4v9c0,6.1,4.9,11,11,11h0.5V470.5z M931.9,471.4
		c-0.4,0.1-0.8,0.2-1.3,0.2s-0.9-0.1-1.3-0.2V486h2.5V471.4z M934,466.2v-2.5c0-1.9-1.5-3.4-3.4-3.4s-3.4,1.5-3.4,3.4v2.5
		c0,1.9,1.5,3.4,3.4,3.4S934,468.1,934,466.2z M977.6,470.5c-1.3-1-2.1-2.5-2.1-4.2V466H975v-2h0.4v-0.2c0-1.7,0.8-3.3,2.1-4.2V444
		h-43.6v15.5c1.3,1,2.1,2.5,2.1,4.2v0.2h0.4v2H936v0.2c0,1.7-0.8,3.3-2.1,4.2V486h43.6V470.5z M982.1,471.4
		c-0.4,0.1-0.8,0.2-1.3,0.2s-0.9-0.1-1.3-0.2V486h2.5V471.4z M984.2,466.2v-2.5c0-1.9-1.5-3.4-3.4-3.4s-3.4,1.5-3.4,3.4v2.5
		c0,1.9,1.5,3.4,3.4,3.4S984.2,468.1,984.2,466.2z M995.6,475v-9h-0.4v-2h0.4v-9c0-6.1-4.9-11-11-11h-0.5v15.5
		c1.3,1,2.1,2.5,2.1,4.2v0.2h0.4v2h-0.4v0.2c0,1.7-0.8,3.3-2.1,4.2V486h0.5C990.7,486,995.6,481.1,995.6,475z"/>
</g>
</svg>
