<?xml version="1.0" encoding="utf-8"?>
<!-- Generator: Adobe Illustrator 22.1.0, SVG Export Plug-In . SVG Version: 6.00 Build 0)  -->
<svg version="1.1" id="Van" xmlns="http://www.w3.org/2000/svg" xmlns:xlink="http://www.w3.org/1999/xlink" x="0px" y="0px"
	 viewBox="0 0 1920 1200" style="enable-background:new 0 0 1920 1200;" xml:space="preserve">
<style type="text/css">
	.st0{fill:#AB5E46;}
	.st1{fill:#FFBB8E;}
	.st2{fill:#373332;}
</style>
<g>
	<path class="st0" d="M902.2,544.5h97.4c6.6,0,12-5.4,12-12V499c0-6.6-5.4-12-12-12h-97.4c-6.6,0-12,5.4-12,12v33.5
		C890.2,539.1,895.6,544.5,902.2,544.5z"/>
	<path class="st1" d="M991.4,525.6L991.4,525.6c1.9,0,3.5-1.6,3.5-3.5v-12.7c0-1.9-1.6-3.5-3.5-3.5l0,0c-1.9,0-3.5,1.6-3.5,3.5v12.7
		C987.9,524,989.5,525.6,991.4,525.6z"/>
	<path class="st1" d="M910.4,525.6L910.4,525.6c1.9,0,3.5-1.6,3.5-3.5v-12.7c0-1.9-1.6-3.5-3.5-3.5l0,0c-1.9,0-3.5,1.6-3.5,3.5v12.7
		C906.9,524,908.5,525.6,910.4,525.6z"/>
	<path class="st2" d="M999.7,486h-6.1h-4.2h-76.8h-4.2h-6.1c-7.2,0-13,5.8-13,13v33.5c0,7.2,5.8,13,13,13h6.1h4.2h76.8h4.2h6.1
		c7.2,0,13-5.8,13-13V499C1012.7,491.8,1006.8,486,999.7,486z M988.9,522.1v-12.7c0-1.4,1.1-2.5,2.5-2.5s2.5,1.1,2.5,2.5v12.7
		c0,1.4-1.1,2.5-2.5,2.5S988.9,523.5,988.9,522.1z M992.6,488v17.1c-0.4-0.1-0.7-0.2-1.1-0.2s-0.8,0.1-1.1,0.2V488H992.6z
		 M907.9,522.1v-12.7c0-1.4,1.1-2.5,2.5-2.5s2.5,1.1,2.5,2.5v12.7c0,1.4-1.1,2.5-2.5,2.5S907.9,523.5,907.9,522.1z M911.6,488v17.1
		c-0.4-0.1-0.7-0.2-1.1-0.2s-0.8,0.1-1.1,0.2V488H911.6z M902.2,543.5c-6.1,0-11-4.9-11-11v-15.8h0.4v-2h-0.4V499
		c0-6.1,4.9-11,11-11h5.1v18.2c-0.9,0.8-1.4,2-1.4,3.2v5.4h-0.4v2h0.4v5.4c0,1.3,0.5,2.4,1.4,3.2v18.2H902.2z M909.3,543.5v-17.1
		c0.4,0.1,0.7,0.2,1.1,0.2s0.8-0.1,1.1-0.2v17.1H909.3z M913.6,543.5v-18.2c0.9-0.8,1.4-2,1.4-3.2v-5.4h0.4v-2h-0.4v-5.4
		c0-1.3-0.5-2.4-1.4-3.2V488h74.8v18.2c-0.9,0.8-1.4,2-1.4,3.2v5.4h-0.4v2h0.4v5.4c0,1.3,0.5,2.4,1.4,3.2v18.2H913.6z M990.3,543.5
		v-17.1c0.4,0.1,0.7,0.2,1.1,0.2s0.8-0.1,1.1-0.2v17.1H990.3z M1010.7,514.8h-0.4v2h0.4v15.8c0,6.1-4.9,11-11,11h-5.1v-18.2
		c0.9-0.8,1.4-2,1.4-3.2v-5.4h0.4v-2h-0.4v-5.4c0-1.3-0.5-2.4-1.4-3.2V488h5.1c6.1,0,11,4.9,11,11V514.8z M999.1,514.8h2.8v2h-2.8
		V514.8z M1004.7,514.8h2.8v2h-2.8V514.8z M963.8,514.8h2.8v2h-2.8V514.8z M958.1,514.8h2.8v2h-2.8V514.8z M980.8,514.8h2.8v2h-2.8
		V514.8z M975.1,514.8h2.8v2h-2.8V514.8z M969.4,514.8h2.8v2h-2.8V514.8z M952.4,514.8h2.8v2h-2.8V514.8z M918.2,514.8h2.8v2h-2.8
		V514.8z M929.6,514.8h2.8v2h-2.8V514.8z M923.9,514.8h2.8v2h-2.8V514.8z M935.3,514.8h2.8v2h-2.8V514.8z M946.7,514.8h2.8v2h-2.8
		V514.8z M941,514.8h2.8v2H941V514.8z M894.4,514.8h2.8v2h-2.8V514.8z M900,514.8h2.8v2H900V514.8z"/>
</g>
</svg>
