<?xml version="1.0" encoding="utf-8"?>
<!-- Generator: Adobe Illustrator 22.1.0, SVG Export Plug-In . SVG Version: 6.00 Build 0)  -->
<svg version="1.1" id="Camper" xmlns="http://www.w3.org/2000/svg" xmlns:xlink="http://www.w3.org/1999/xlink" x="0px" y="0px"
	 viewBox="0 0 1920 1200" style="enable-background:new 0 0 1920 1200;" xml:space="preserve">
<style type="text/css">
	.st0{fill:#E6E7E8;}
	.st1{fill:#BF1F2C;}
	.st2{fill:#FDFEFF;}
	.st3{fill:#EE2737;}
	.st4{fill:#B0D4E0;}
	.st5{fill:#D7EFF6;}
	.st6{fill:#EDC959;}
	.st7{fill:#373332;}
	.st8{fill:#404041;}
	.st9{fill:#58595B;}
	.st10{fill:#BBBDBF;}
</style>
<g id="XMLID_1_">
	<g>
		<g>
			<path class="st0" d="M664,768.5c0.4,0.4,0.7,1,0.7,1.7c0,1.3-1.1,2.4-2.4,2.4h-3.9h-3.6h-12.6h-32.2v-4.8h44.7h3.6h3.9
				C663,767.8,663.6,768,664,768.5z"/>
		</g>
		<g>
			<polygon class="st0" points="660.8,749.4 660.8,754 658.5,754 654.9,754 652.7,754 652.7,751.6 652.7,749.4 			"/>
		</g>
		<g>
			<rect x="654.9" y="772.5" class="st0" width="3.6" height="4.8"/>
		</g>
		<g>
			<rect x="654.9" y="754" class="st0" width="3.6" height="13.8"/>
		</g>
		<g>
			<path class="st0" d="M610.2,772.5h32.2c0,2.6-2.1,4.8-4.8,4.8h-27.4V772.5z"/>
		</g>
		<g>
			<rect x="610.2" y="757.8" class="st1" width="21.3" height="9.4"/>
		</g>
		<g>
			<rect x="610.2" y="713.1" class="st1" width="21.3" height="44.6"/>
		</g>
		<g>
			<path class="st1" d="M631.5,712.8v0.3h-21.3v-10.4h11.2C626.9,702.7,631.5,707.2,631.5,712.8z"/>
		</g>
		<g>
			<path class="st2" d="M611.6,604.1c1.6,0,3,1.3,3,3c0,0.8-0.3,1.6-0.9,2.1c-0.5,0.5-1.3,0.9-2.1,0.9h-1.7h-31.1v-5.9h30.1H611.6z"
				/>
		</g>
		<g>
			<path class="st2" d="M611.6,680c1.6,0,3,1.3,3,3c0,0.8-0.3,1.6-0.9,2.1c-0.5,0.5-1.3,0.9-2.1,0.9h-1.4h-31.4V680h31.4H611.6z"/>
		</g>
		<g>
			<path class="st3" d="M610.2,777.3v6.1c0,1.5-1,2.8-2.5,3.2l-29,8.1V685.9h31.4v16.8v10.4v44.6v9.4v0.6v4.8V777.3z"/>
		</g>
		<g>
			<path class="st0" d="M610.2,674.8v5.1h-31.4v-69.9h31.1c0.2,1.8,0.3,3.5,0.3,5.3h-15.3c-5.6,0-10.1,4.5-10.1,10.1v39.2
				c0,5.6,4.5,10.1,10.1,10.1H610.2z"/>
		</g>
		<g>
			<path class="st4" d="M610.2,615.4v59.4h-15.3c-5.6,0-10.1-4.5-10.1-10.1v-39.2c0-5.6,4.5-10.1,10.1-10.1H610.2z"/>
		</g>
		<g>
			<path class="st5" d="M610.2,618.8v6.1h-14.3c-0.8,0-1.5,0.7-1.5,1.5v1.6c0,1.7-1.4,3.1-3.1,3.1l0,0c-1.7,0-3.1-1.4-3.1-3.1v-2.2
				c0-3.9,3.1-7,7-7H610.2z"/>
		</g>
		<g>
			<path class="st0" d="M204.5,604.1h-8.3c0,0,19.9-12.5,54.9-26c13.1-5.1,28.4-10.3,45.5-15.1c36.6-10.2,81.8-18.3,132.9-18.3
				c51.4,0,106.7,11.7,142.4,21.1c18.8,4.9,33,19.9,37.1,38.3h-30.1v-24c0-0.6-0.3-1.2-0.7-1.6c-0.4-0.4-1-0.7-1.6-0.7
				c-1.3,0-2.3,1-2.3,2.3v24h-43.1v-5.6c0-9.8-4-18.6-10.3-25c-6.6-6.5-15.6-10.5-25.7-10.3c-19.4,0.4-34.7,16.7-34.7,36v4.9H204.5z
				 M599.5,595.3v-2.4c0-0.9-0.7-1.7-1.7-1.7h-3.7c-2.8,0-5.5,0.2-8.2,0.7l-1,0.2c-1,0.2-1.7,1-1.7,2s0.7,1.8,1.7,2l1,0.2
				c2.7,0.5,5.5,0.7,8.2,0.7h3.7C598.7,597,599.5,596.2,599.5,595.3z M362.4,577.3v-4.2c0-1.9-1.5-3.4-3.4-3.4h-11.1
				c-1.9,0-3.4,1.5-3.4,3.4v4.2c0,1.9,1.5,3.4,3.4,3.4H359C360.9,580.7,362.4,579.2,362.4,577.3z"/>
		</g>
		<g>
			<path class="st2" d="M599.5,592.9v2.4c0,0.9-0.7,1.7-1.7,1.7h-3.7c-2.8,0-5.5-0.2-8.2-0.7l-1-0.2c-1-0.2-1.7-1-1.7-2
				s0.7-1.8,1.7-2l1-0.2c2.7-0.5,5.5-0.7,8.2-0.7h3.7C598.7,591.2,599.5,592,599.5,592.9z"/>
		</g>
		<g>
			<path class="st2" d="M578.8,685.9v108.7h-4.6V685.9V680v-69.9v-5.9v-24c0-1.3,1-2.3,2.3-2.3c0.6,0,1.2,0.3,1.6,0.7
				c0.4,0.4,0.7,1,0.7,1.6v24v5.9V680V685.9z"/>
		</g>
		<g>
			<path class="st3" d="M184.5,685.9h275.9v71.9h-4.5v6.3h4.5V781c0,1.9,1.5,3.4,3.4,3.4h64c1.9,0,3.4-1.5,3.4-3.4v-95.1h43.1v108.7
				h-51h-5.7H474h-5.7h-34c-1.8,0-3.2-1.4-3.4-3.1c-0.3-3.9-1.2-7.6-2.5-11h0c-5.7-14.8-20-25.2-36.8-25.2
				c-16.8,0-31.1,10.5-36.8,25.2h0c-1.3,3.5-2.2,7.2-2.5,11c-0.1,1.8-1.6,3.1-3.4,3.1H209.5c0,0-41.4-26.7-41.4-52.4
				c0-2,0.2-4.6,0.7-7.6c1-7.4,3.2-17.5,6.1-28.9c1.6-6.3,3.3-13,5.2-19.8H184.5z M552.5,771.9v-4.8h-12.2v4.8H552.5z M328.5,770
				v-5.7c0-1.9-1.5-3.4-3.4-3.4h-5.7c-1.9,0-3.4,1.5-3.4,3.4v5.7c0,1.9,1.5,3.4,3.4,3.4h5.7C327,773.4,328.5,771.9,328.5,770z
				 M267.1,771.9v-4.8h-12.2v4.8H267.1z"/>
		</g>
		<g>
			<rect x="531.1" y="680" class="st2" width="43.1" height="5.9"/>
		</g>
		<g>
			<rect x="531.1" y="610.1" class="st0" width="43.1" height="69.9"/>
		</g>
		<g>
			<rect x="531.1" y="604.1" class="st2" width="43.1" height="5.9"/>
		</g>
		<g>
			<rect x="540.3" y="767.2" class="st6" width="12.2" height="4.8"/>
		</g>
		<g>
			<path class="st3" d="M531.1,685.9V781c0,1.9-1.5,3.4-3.4,3.4h-64c-1.9,0-3.4-1.5-3.4-3.4v-16.9h4.5v-6.3h-4.5v-71.9H531.1z"/>
		</g>
		<g>
			<rect x="460.4" y="680" class="st2" width="70.7" height="5.9"/>
		</g>
		<g>
			<path class="st0" d="M531.1,610.1V680h-70.7v-49.9h4.5v-6.3h-4.5v-13.7H531.1z"/>
		</g>
		<g>
			<rect x="460.4" y="604.1" class="st2" width="70.7" height="5.9"/>
		</g>
		<g>
			<path class="st0" d="M531.1,598.5v5.6h-70.7v-4.9c0-19.4,15.3-35.7,34.7-36c10-0.2,19.1,3.8,25.7,10.3
				C527.1,579.9,531.1,588.7,531.1,598.5z"/>
		</g>
		<g>
			<path class="st0" d="M528.3,800.3c1.5,0,2.8,1.2,2.8,2.8c0,1.5-1.2,2.8-2.8,2.8h-65.1c-1.5,0-2.8-1.2-2.8-2.8
				c0-1.5,1.2-2.8,2.8-2.8h5.1h5.7h43.5h5.7H528.3z"/>
		</g>
		<g>
			<rect x="517.5" y="794.6" class="st0" width="5.7" height="5.7"/>
		</g>
		<path class="st2" d="M519.4,692.3v-1.2h6.4v6.4h-6.4v-1.2c0,0-18.5,0-18.5-2C500.9,692.3,519.4,692.3,519.4,692.3z"/>
		<g>
			<rect x="468.3" y="794.6" class="st0" width="5.7" height="5.7"/>
		</g>
		<g>
			<polygon class="st1" points="464.9,757.8 464.9,764.1 460.4,764.1 455.8,764.1 455.8,757.8 460.4,757.8 			"/>
		</g>
		<g>
			<polygon class="st2" points="464.9,623.7 464.9,630.1 460.4,630.1 455.8,630.1 455.8,623.7 460.4,623.7 			"/>
		</g>
		<g>
			<path class="st2" d="M460.4,680v5.9H184.5h-4.4h-0.9c-1.6,0-3-1.3-3-3c0-0.8,0.3-1.6,0.9-2.1c0.5-0.5,1.3-0.9,2.1-0.9h5h4.8
				H460.4z"/>
		</g>
		<g>
			<path class="st0" d="M460.4,630.1V680H188.9l18.5-69.9h253v13.7h-4.5v6.3H460.4z M328.5,664.7v-39.2c0-5.6-4.5-10.1-10.1-10.1
				h-43.9c-26.8,0-51.7,14.2-65.3,37.3c-1.4,2.4-2.1,4.9-2.1,7.4c0,7.7,6.1,14.7,14.7,14.7h96.6C324,674.8,328.5,670.3,328.5,664.7z
				"/>
		</g>
		<g>
			<path class="st2" d="M460.4,604.1v5.9h-253h-4.8h-8.4c-1.6,0-3-1.3-3-3c0-0.8,0.3-1.6,0.9-2.1c0.5-0.5,1.3-0.9,2.1-0.9h2h8.3
				H460.4z"/>
		</g>
		<g>
			<path class="st1" d="M428.4,780.4h-8.5h0c-5.2-10.4-15.9-17.5-28.3-17.5c-12.4,0-23.1,7.1-28.3,17.5h0h-8.5
				c5.7-14.8,20-25.2,36.8-25.2C408.4,755.2,422.7,765.7,428.4,780.4z"/>
		</g>
		<g>
			<path class="st2" d="M362.4,573.1v4.2c0,1.9-1.5,3.4-3.4,3.4h-11.1c-1.9,0-3.4-1.5-3.4-3.4v-4.2c0-1.9,1.5-3.4,3.4-3.4H359
				C360.9,569.7,362.4,571.2,362.4,573.1z M356.1,575.2c0-1.4-1.2-2.6-2.6-2.6s-2.6,1.2-2.6,2.6s1.2,2.6,2.6,2.6
				S356.1,576.6,356.1,575.2z"/>
		</g>
		<g>
			<circle class="st0" cx="353.5" cy="575.2" r="2.6"/>
		</g>
		<g>
			<path class="st1" d="M328.5,764.3v5.7c0,1.9-1.5,3.4-3.4,3.4h-5.7c-1.9,0-3.4-1.5-3.4-3.4v-5.7c0-1.9,1.5-3.4,3.4-3.4h5.7
				C327,760.9,328.5,762.4,328.5,764.3z"/>
		</g>
		<g>
			<path class="st4" d="M328.5,625.5v39.2c0,5.6-4.5,10.1-10.1,10.1h-96.6c-8.6,0-14.7-7-14.7-14.7c0-2.5,0.6-5,2.1-7.4
				c13.6-23.1,38.5-37.3,65.3-37.3h43.9C324,615.4,328.5,619.9,328.5,625.5z"/>
		</g>
		<g>
			<path class="st2" d="M295.2,558.6l1.4,4.5c-17.1,4.8-32.4,10-45.5,15.1l-1.8-4.7C262.6,568.4,278,563.2,295.2,558.6z"/>
		</g>
		<g>
			<rect x="254.9" y="767.2" class="st6" width="12.2" height="4.8"/>
		</g>
		<g>
			<polygon class="st2" points="207.4,610.1 188.9,680 184.1,680 202.6,610.1 			"/>
		</g>
		<g>
			<path class="st0" d="M171.3,705.7h3.6c-2.9,11.4-5,21.5-6.1,28.9h-3.6c0.2-1.3,0.4-2.7,0.7-4.1c0.4-2.2,0.8-4.5,1.3-6.9
				c0.5-2.1,0.9-4.4,1.5-6.7c0.5-2.2,1.1-4.5,1.6-6.9C170.6,708.5,170.9,707.1,171.3,705.7z"/>
		</g>
		<g>
			<path class="st3" d="M165.1,709.9h5.2c-0.6,2.4-1.1,4.7-1.6,6.9h-3.5V709.9z"/>
		</g>
		<g>
			<path class="st6" d="M161.7,723.5h5.4c-0.5,2.5-0.9,4.8-1.3,6.9h-4.1V723.5z"/>
		</g>
	</g>
	<g>
		<g>
			<path class="st7" d="M184.1,681c0.4,0,0.8-0.3,1-0.7l18.5-69.9c0.1-0.5-0.2-1.1-0.7-1.2c-0.5-0.1-1.1,0.2-1.2,0.7l-18.5,69.9
				c-0.1,0.5,0.2,1.1,0.7,1.2C183.9,680.9,184,681,184.1,681z"/>
		</g>
		<g>
			<path class="st7" d="M188.9,681c0.4,0,0.8-0.3,1-0.7l18.5-69.9c0.1-0.5-0.2-1.1-0.7-1.2c-0.5-0.1-1.1,0.2-1.2,0.7l-18.5,69.9
				c-0.1,0.5,0.2,1.1,0.7,1.2C188.7,680.9,188.8,681,188.9,681z"/>
		</g>
		<g>
			<path class="st7" d="M610.2,616.4c0.6,0,1-0.4,1-1c0-1.9-0.1-3.7-0.3-5.5c-0.1-0.5-0.6-0.9-1.1-0.9c-0.5,0.1-0.9,0.6-0.9,1.1
				c0.2,1.7,0.3,3.4,0.3,5.2C609.2,616,609.6,616.4,610.2,616.4z"/>
		</g>
		<g>
			<path class="st7" d="M610.2,681c0.6,0,1-0.4,1-1v-5.1c0-0.6-0.4-1-1-1s-1,0.4-1,1v5.1C609.2,680.5,609.6,681,610.2,681z"/>
		</g>
		<g>
			<path class="st7" d="M608.9,605.1c0.1,0,0.1,0,0.2,0c0.5-0.1,0.9-0.7,0.8-1.2c-4.3-19.1-18.8-34-37.8-39
				c-36.9-9.6-91.6-21.1-142.6-21.1c-44.7,0-89.5,6.2-133.1,18.3c-15.5,4.3-30.8,9.4-45.6,15.1c-34.6,13.4-54.8,25.9-55,26.1
				c-0.5,0.3-0.6,0.9-0.3,1.4c0.3,0.5,0.9,0.6,1.4,0.3c0.2-0.1,20.3-12.6,54.7-25.9c14.7-5.7,30-10.7,45.4-15
				c43.5-12.1,88.1-18.2,132.6-18.2c50.8,0,105.3,11.4,142.1,21c18.3,4.8,32.2,19.1,36.4,37.5C608,604.8,608.4,605.1,608.9,605.1z"
				/>
		</g>
		<g>
			<path class="st7" d="M251,579.1c0.1,0,0.2,0,0.3-0.1c0.5-0.2,0.8-0.8,0.6-1.3l-1.4-3.8c14.3-5.4,29-10.1,43.9-14.2l1.1,3.6
				c0.2,0.5,0.7,0.8,1.2,0.7c0.5-0.2,0.8-0.7,0.7-1.2l-1.4-4.5c-0.2-0.5-0.7-0.8-1.2-0.7c-15.6,4.2-31.1,9.2-46,14.9
				c-0.5,0.2-0.8,0.8-0.6,1.3l1.8,4.7C250.3,578.9,250.6,579.1,251,579.1z"/>
		</g>
		<g>
			<path class="st7" d="M204.5,605.1c0.2,0,0.3,0,0.5-0.1c23.5-12.8,109.3-54.4,224.4-54.4c50.8,0,105.3,11.4,142.1,21
				c0.5,0.1,1.1-0.2,1.2-0.7c0.1-0.5-0.2-1.1-0.7-1.2c-36.9-9.6-91.6-21.1-142.6-21.1c-115.6,0-201.8,41.8-225.4,54.7
				c-0.5,0.3-0.7,0.9-0.4,1.4C203.8,604.9,204.1,605.1,204.5,605.1z"/>
		</g>
		<g>
			<path class="st7" d="M194.2,611.1h379.9c0.6,0,1-0.4,1-1s-0.4-1-1-1H194.2c-1.1,0-2-0.9-2-2c0-0.5,0.2-1,0.6-1.4
				c0.4-0.4,0.9-0.6,1.4-0.6h379.9c0.6,0,1-0.4,1-1s-0.4-1-1-1H194.2c-1,0-2,0.4-2.8,1.2c-0.8,0.8-1.2,1.8-1.2,2.8
				C190.2,609.3,192,611.1,194.2,611.1z"/>
		</g>
		<g>
			<path class="st7" d="M578.8,611.1h32.8c1,0,2.1-0.4,2.8-1.2c0.7-0.8,1.2-1.7,1.2-2.8c0-2.2-1.8-4-4-4h-32.8c-0.6,0-1,0.4-1,1
				s0.4,1,1,1h32.8c1.1,0,2,0.9,2,2c0,0.5-0.2,1-0.6,1.4c-0.4,0.4-0.9,0.6-1.4,0.6h-32.8c-0.6,0-1,0.4-1,1S578.2,611.1,578.8,611.1z
				"/>
		</g>
		<g>
			<path class="st7" d="M179.1,686.9h0.9c0.6,0,1-0.4,1-1s-0.4-1-1-1h-0.9c-1.1,0-2-0.9-2-2c0-0.5,0.2-1,0.6-1.4
				c0.4-0.4,0.9-0.6,1.4-0.6h395c0.6,0,1-0.4,1-1s-0.4-1-1-1h-395c-1.1,0-2.1,0.4-2.8,1.2c-0.8,0.8-1.2,1.8-1.2,2.8
				C175.2,685.1,177,686.9,179.1,686.9z"/>
		</g>
		<g>
			<path class="st7" d="M610.2,686.9h1.4c1,0,2.1-0.4,2.8-1.2c0.8-0.8,1.2-1.8,1.2-2.8c0-2.2-1.8-4-4-4h-32.8c-0.6,0-1,0.4-1,1
				s0.4,1,1,1h32.8c1.1,0,2,0.9,2,2c0,0.5-0.2,1-0.6,1.4c-0.4,0.4-0.9,0.6-1.4,0.6h-1.4c-0.6,0-1,0.4-1,1S609.6,686.9,610.2,686.9z"
				/>
		</g>
		<g>
			<path class="st7" d="M610.2,703.7c0.6,0,1-0.4,1-1v-16.8c0-0.6-0.4-1-1-1h-31.4c-0.6,0-1,0.4-1,1s0.4,1,1,1h30.4v15.8
				C609.2,703.3,609.6,703.7,610.2,703.7z"/>
		</g>
		<g>
			<path class="st7" d="M578.8,795.6c0.1,0,0.2,0,0.3,0l29-8.1c1.9-0.5,3.2-2.3,3.2-4.2v-6.1c0-0.6-0.4-1-1-1s-1,0.4-1,1v6.1
				c0,1.1-0.7,2-1.7,2.3l-29,8.1c-0.5,0.1-0.8,0.7-0.7,1.2C577.9,795.3,578.3,795.6,578.8,795.6z"/>
		</g>
		<g>
			<path class="st7" d="M610.2,768.8c0.6,0,1-0.4,1-1v-0.6c0-0.6-0.4-1-1-1s-1,0.4-1,1v0.6C609.2,768.3,609.6,768.8,610.2,768.8z"/>
		</g>
		<g>
			<path class="st7" d="M174.8,706.7c0.4,0,0.9-0.3,1-0.8c1.4-5.7,3.1-12.1,5-19.1h393.3c0.6,0,1-0.4,1-1s-0.4-1-1-1H180.1
				c-0.5,0-0.8,0.3-1,0.7c-2,7.2-3.7,13.9-5.2,19.8c-0.1,0.5,0.2,1.1,0.7,1.2C174.7,706.7,174.8,706.7,174.8,706.7z"/>
		</g>
		<g>
			<path class="st7" d="M209.5,795.6h139.4c2.3,0,4.2-1.8,4.3-4.1c0.3-3.7,1.1-7.3,2.4-10.8c0.2-0.5-0.1-1.1-0.6-1.3
				c-0.5-0.2-1.1,0.1-1.3,0.6c-1.4,3.6-2.3,7.4-2.6,11.3c-0.1,1.3-1.1,2.2-2.4,2.2H209.8c-3.4-2.2-40.7-27.5-40.7-51.4
				c0-1.9,0.2-4.3,0.6-7.5c0.1-0.5-0.3-1.1-0.9-1.1c-0.6-0.1-1.1,0.3-1.1,0.9c-0.4,3.2-0.7,5.8-0.7,7.7c0,11,7.1,23.3,21,36.6
				c10.3,9.8,20.7,16.6,20.8,16.7C209.1,795.6,209.3,795.6,209.5,795.6z"/>
		</g>
		<g>
			<path class="st7" d="M354.8,781.4c0.4,0,0.8-0.2,0.9-0.6c5.7-14.7,20.1-24.6,35.9-24.6s30.2,9.9,35.9,24.6
				c0.2,0.5,0.8,0.8,1.3,0.6c0.5-0.2,0.8-0.8,0.6-1.3c-6-15.5-21.1-25.9-37.7-25.9c-16.6,0-31.8,10.4-37.7,25.9
				c-0.2,0.5,0.1,1.1,0.6,1.3C354.6,781.4,354.7,781.4,354.8,781.4z"/>
		</g>
		<g>
			<path class="st7" d="M434.2,795.6h34c0.6,0,1-0.4,1-1s-0.4-1-1-1h-34c-1.2,0-2.3-1-2.4-2.2c-0.3-3.9-1.2-7.7-2.6-11.3
				c-0.2-0.5-0.8-0.8-1.3-0.6c-0.5,0.2-0.8,0.8-0.6,1.3c1.3,3.4,2.1,7,2.4,10.8C430.1,793.9,432,795.6,434.2,795.6z"/>
		</g>
		<g>
			<path class="st7" d="M474,795.6h43.5c0.6,0,1-0.4,1-1s-0.4-1-1-1H474c-0.6,0-1,0.4-1,1S473.5,795.6,474,795.6z"/>
		</g>
		<g>
			<path class="st7" d="M523.2,795.6h51c0.6,0,1-0.4,1-1s-0.4-1-1-1h-51c-0.6,0-1,0.4-1,1S522.6,795.6,523.2,795.6z"/>
		</g>
		<g>
			<path class="st7" d="M165.2,735.6h3.6c0.5,0,0.9-0.4,1-0.9c1-6.9,3-16.5,6.1-28.8c0.1-0.3,0-0.6-0.2-0.9
				c-0.2-0.2-0.5-0.4-0.8-0.4h-3.6c-0.5,0-0.9,0.3-1,0.8l-0.4,1.6c-0.2,0.9-0.4,1.7-0.6,2.6c-0.1,0.5,0.2,1.1,0.7,1.2
				c0.5,0.1,1.1-0.2,1.2-0.7c0.2-0.9,0.4-1.7,0.6-2.6l0.2-0.8h1.5c-2.8,11.2-4.7,20.3-5.7,26.9h-1.5c0.1-1,0.3-1.9,0.5-3
				c0.1-0.5-0.3-1.1-0.8-1.2c-0.5-0.1-1.1,0.3-1.2,0.8c-0.3,1.5-0.5,2.9-0.7,4.2c0,0.3,0,0.6,0.2,0.8
				C164.6,735.5,164.9,735.6,165.2,735.6z"/>
		</g>
		<g>
			<path class="st7" d="M167.2,724.5c0.5,0,0.9-0.3,1-0.8c0.5-2.1,0.9-4.4,1.5-6.7c0.1-0.5-0.2-1.1-0.8-1.2
				c-0.5-0.1-1.1,0.2-1.2,0.8c-0.5,2.3-1,4.6-1.5,6.8c-0.1,0.5,0.2,1.1,0.8,1.2C167,724.5,167.1,724.5,167.2,724.5z"/>
		</g>
		<g>
			<path class="st7" d="M221.3,736.4h152.1c0.6,0,1-0.4,1-1s-0.4-1-1-1H221.3c-0.6,0-1,0.4-1,1S220.8,736.4,221.3,736.4z"/>
		</g>
		<g>
			<path class="st7" d="M315.1,770v-5.7c0-2.4,2-4.4,4.4-4.4h5.7c2.4,0,4.4,2,4.4,4.4v5.7c0,2.4-2,4.4-4.4,4.4h-5.7
				C317,774.4,315.1,772.4,315.1,770z M319.4,761.9c-1.3,0-2.4,1.1-2.4,2.4v5.7c0,1.3,1.1,2.4,2.4,2.4h5.7c1.3,0,2.4-1.1,2.4-2.4
				v-5.7c0-1.3-1.1-2.4-2.4-2.4H319.4z"/>
		</g>
		<g>
			<path class="st7" d="M253.9,771.9v-4.8c0-0.6,0.4-1,1-1h12.2c0.6,0,1,0.4,1,1v4.8c0,0.6-0.4,1-1,1h-12.2
				C254.3,772.9,253.9,772.5,253.9,771.9z M266.1,768.2h-10.2v2.8h10.2V768.2z"/>
		</g>
		<g>
			<path class="st7" d="M539.3,771.9v-4.8c0-0.6,0.4-1,1-1h12.2c0.6,0,1,0.4,1,1v4.8c0,0.6-0.4,1-1,1h-12.2
				C539.7,772.9,539.3,772.5,539.3,771.9z M551.5,768.2h-10.2v2.8h10.2V768.2z"/>
		</g>
		<g>
			<path class="st7" d="M343.6,577.3v-4.2c0-2.4,2-4.4,4.4-4.4H359c2.4,0,4.4,2,4.4,4.4v4.2c0,2.4-2,4.4-4.4,4.4h-11.1
				C345.5,581.7,343.6,579.7,343.6,577.3z M347.9,570.7c-1.3,0-2.4,1.1-2.4,2.4v4.2c0,1.3,1.1,2.4,2.4,2.4H359
				c1.3,0,2.4-1.1,2.4-2.4v-4.2c0-1.3-1.1-2.4-2.4-2.4H347.9z"/>
		</g>
		<g>
			<path class="st7" d="M349.9,575.2c0-2,1.6-3.6,3.6-3.6c2,0,3.6,1.6,3.6,3.6c0,2-1.6,3.6-3.6,3.6
				C351.5,578.8,349.9,577.2,349.9,575.2z M351.9,575.2c0,0.9,0.7,1.6,1.6,1.6c0.9,0,1.6-0.7,1.6-1.6s-0.7-1.6-1.6-1.6
				C352.6,573.6,351.9,574.3,351.9,575.2z"/>
		</g>
		<g>
			<path class="st7" d="M573.1,794.6V580.1c0-1.8,1.5-3.3,3.3-3.3c0.9,0,1.7,0.3,2.3,1c0.6,0.6,1,1.5,1,2.3v214.5c0,0.6-0.4,1-1,1
				h-4.6C573.6,795.6,573.1,795.2,573.1,794.6z M577.8,580.1c0-0.4-0.1-0.7-0.4-0.9s-0.6-0.4-0.9-0.4c-0.7,0-1.3,0.6-1.3,1.3v213.5
				h2.6V580.1z"/>
		</g>
		<g>
			<path class="st7" d="M206.1,660.1c0-2.8,0.8-5.5,2.2-7.9c13.8-23.3,39.1-37.8,66.2-37.8h43.9c6.1,0,11.1,5,11.1,11.1v39.2
				c0,6.1-5,11.1-11.1,11.1h-96.6C213.2,675.8,206.1,668.8,206.1,660.1z M274.5,616.4c-26.4,0-51.1,14.1-64.5,36.8
				c-1.3,2.1-1.9,4.5-1.9,6.9c0,7.5,6.1,13.7,13.7,13.7h96.6c5,0,9.1-4.1,9.1-9.1v-39.2c0-5-4.1-9.1-9.1-9.1H274.5z"/>
		</g>
		<g>
			<path class="st7" d="M583.8,664.7v-39.2c0-6.1,5-11.1,11.1-11.1h15.3c0.6,0,1,0.4,1,1v59.4c0,0.6-0.4,1-1,1h-15.3
				C588.8,675.8,583.8,670.8,583.8,664.7z M609.2,616.4h-14.3c-5,0-9.1,4.1-9.1,9.1v39.2c0,5,4.1,9.1,9.1,9.1h14.3V616.4z"/>
		</g>
		<g>
			<path class="st7" d="M463.8,785.4h64c2.4,0,4.4-2,4.4-4.4V598.5c0-9.7-3.8-18.8-10.6-25.7c-7.1-7.1-16.5-10.8-26.4-10.6
				c-19.6,0.4-35.6,17-35.6,37v24.5c0,0.6,0.4,1,1,1s1-0.4,1-1v-24.5c0-19,15.1-34.7,33.7-35c9.5-0.2,18.3,3.4,25,10.1
				c6.5,6.5,10.1,15.1,10.1,24.3V781c0,1.3-1.1,2.4-2.4,2.4h-64c-1.3,0-2.4-1.1-2.4-2.4v-16.9c0-0.6-0.4-1-1-1s-1,0.4-1,1V781
				C459.4,783.4,461.4,785.4,463.8,785.4z"/>
		</g>
		<g>
			<path class="st7" d="M460.4,758.8c0.6,0,1-0.4,1-1V630.1c0-0.6-0.4-1-1-1s-1,0.4-1,1v127.7C459.4,758.3,459.8,758.8,460.4,758.8z
				"/>
		</g>
		<path class="st7" d="M518.4,697.4v0.2c0,0.6,0.4,1,1,1h6.4c0.6,0,1-0.4,1-1v-6.4c0-0.6-0.4-1-1-1h-6.4c-0.6,0-1,0.4-1,1v0.2
			c-18.5,0.1-18.5,2.1-18.5,3C499.9,695.2,499.9,697.3,518.4,697.4z M520.4,696.4v-4.1v-0.2h4.4v4.4h-4.4V696.4z M502.8,694.3
			c2.7-0.6,9.4-1,15.5-1v2.1C512.2,695.3,505.6,695,502.8,694.3z"/>
		<g>
			<path class="st7" d="M210.5,791.8h134.7c0.6,0,1-0.4,1-1s-0.4-1-1-1H210.8c-5-3.6-14.3-10.7-22.2-19.5
				c-9.8-10.7-14.7-20.6-14.7-29.4c0-8.2,3.9-26.6,11.6-54.8c0.1-0.5-0.2-1.1-0.7-1.2c-0.5-0.1-1.1,0.2-1.2,0.7
				c-7.7,28.4-11.7,47-11.7,55.4c0,9.3,5.1,19.6,15.3,30.7c8.2,9,17.8,16.4,22.8,19.9C210.1,791.8,210.3,791.8,210.5,791.8z"/>
		</g>
		<g>
			<path class="st7" d="M437.8,791.8h128.6c0.6,0,1-0.4,1-1s-0.4-1-1-1H437.8c-0.6,0-1,0.4-1,1S437.3,791.8,437.8,791.8z"/>
		</g>
		<g>
			<path class="st7" d="M474,801.3h43.5c0.6,0,1-0.4,1-1s-0.4-1-1-1H474c-0.6,0-1,0.4-1,1S473.5,801.3,474,801.3z"/>
		</g>
		<g>
			<path class="st7" d="M463.2,806.9h65.1c2.1,0,3.8-1.7,3.8-3.8c0-2.1-1.7-3.8-3.8-3.8h-5.1c-0.6,0-1,0.4-1,1s0.4,1,1,1h5.1
				c1,0,1.8,0.8,1.8,1.8c0,1-0.8,1.8-1.8,1.8h-65.1c-1,0-1.8-0.8-1.8-1.8c0-1,0.8-1.8,1.8-1.8h5.1c0.6,0,1-0.4,1-1s-0.4-1-1-1h-5.1
				c-2.1,0-3.8,1.7-3.8,3.8C459.4,805.2,461.1,806.9,463.2,806.9z"/>
		</g>
		<g>
			<path class="st7" d="M467.3,800.3v-5.7c0-0.6,0.4-1,1-1h5.7c0.6,0,1,0.4,1,1v5.7c0,0.6-0.4,1-1,1h-5.7
				C467.7,801.3,467.3,800.9,467.3,800.3z M473,795.6h-3.7v3.7h3.7V795.6z"/>
		</g>
		<g>
			<path class="st7" d="M516.5,800.3v-5.7c0-0.6,0.4-1,1-1h5.7c0.6,0,1,0.4,1,1v5.7c0,0.6-0.4,1-1,1h-5.7
				C516.9,801.3,516.5,800.9,516.5,800.3z M522.2,795.6h-3.7v3.7h3.7V795.6z"/>
		</g>
		<g>
			<path class="st7" d="M585.7,597.3l-1-0.2c-1.4-0.2-2.5-1.5-2.5-3s1-2.7,2.5-3l1-0.2c2.8-0.5,5.6-0.7,8.4-0.7h3.7
				c1.5,0,2.7,1.2,2.7,2.7v2.4c0,1.5-1.2,2.7-2.7,2.7h-3.7C591.4,598,588.5,597.8,585.7,597.3z M594.1,592.2c-2.7,0-5.4,0.2-8.1,0.7
				l-1,0.2c-0.5,0.1-0.8,0.5-0.8,1s0.3,0.9,0.8,1l1,0.2c2.7,0.5,5.4,0.7,8.1,0.7h3.7c0.4,0,0.7-0.3,0.7-0.7v-2.4
				c0-0.4-0.3-0.7-0.7-0.7H594.1z"/>
		</g>
		<g>
			<path class="st7" d="M454.8,630.1v-6.3c0-0.6,0.4-1,1-1h9.1c0.6,0,1,0.4,1,1v6.3c0,0.6-0.4,1-1,1h-9.1
				C455.3,631.1,454.8,630.6,454.8,630.1z M463.9,624.7h-7.1v4.3h7.1V624.7z"/>
		</g>
		<g>
			<path class="st7" d="M454.8,764.1v-6.3c0-0.6,0.4-1,1-1h9.1c0.6,0,1,0.4,1,1v6.3c0,0.6-0.4,1-1,1h-9.1
				C455.3,765.1,454.8,764.7,454.8,764.1z M463.9,758.8h-7.1v4.3h7.1V758.8z"/>
		</g>
		<g>
			<path class="st7" d="M610.2,773.5c0.6,0,1-0.4,1-1v-3.8h43.7c0.6,0,1-0.4,1-1s-0.4-1-1-1h-44.7c-0.6,0-1,0.4-1,1v4.8
				C609.2,773.1,609.6,773.5,610.2,773.5z"/>
		</g>
		<g>
			<path class="st7" d="M658.5,773.5h3.9c1.9,0,3.4-1.5,3.4-3.4c0-0.9-0.3-1.8-1-2.4c-0.6-0.6-1.5-1-2.4-1h-3.9c-0.6,0-1,0.4-1,1
				s0.4,1,1,1h3.9c0.4,0,0.7,0.1,1,0.4c0.3,0.3,0.4,0.6,0.4,1c0,0.8-0.6,1.4-1.4,1.4h-3.9c-0.6,0-1,0.4-1,1S657.9,773.5,658.5,773.5
				z"/>
		</g>
		<g>
			<path class="st7" d="M642.4,773.5h12.6c0.6,0,1-0.4,1-1s-0.4-1-1-1h-12.6c-0.6,0-1,0.4-1,1S641.8,773.5,642.4,773.5z"/>
		</g>
		<g>
			<path class="st7" d="M609.2,767.2v-64.4c0-0.6,0.4-1,1-1h11.2c6.1,0,11.1,5,11.1,11.1v54.3c0,0.6-0.4,1-1,1h-21.3
				C609.6,768.2,609.2,767.7,609.2,767.2z M630.5,712.8c0-5-4.1-9.1-9.1-9.1h-10.2v62.4h19.3V712.8z"/>
		</g>
		<g>
			<path class="st7" d="M610.2,758.8h21.3c0.6,0,1-0.4,1-1s-0.4-1-1-1h-21.3c-0.6,0-1,0.4-1,1S609.6,758.8,610.2,758.8z"/>
		</g>
		<g>
			<path class="st7" d="M610.2,714.1h21.3c0.6,0,1-0.4,1-1s-0.4-1-1-1h-21.3c-0.6,0-1,0.4-1,1S609.6,714.1,610.2,714.1z"/>
		</g>
		<g>
			<path class="st7" d="M609.2,777.3v-4.8c0-0.6,0.4-1,1-1h32.2c0.6,0,1,0.4,1,1c0,3.2-2.6,5.8-5.8,5.8h-27.4
				C609.6,778.3,609.2,777.8,609.2,777.3z M611.2,773.5v2.8h26.4c1.7,0,3.2-1.2,3.6-2.8H611.2z"/>
		</g>
		<g>
			<path class="st7" d="M654.9,768.8h3.6c0.6,0,1-0.4,1-1V754c0-0.6-0.4-1-1-1s-1,0.4-1,1v12.8h-1.6V754c0-0.6-0.4-1-1-1s-1,0.4-1,1
				v13.8C653.9,768.3,654.4,768.8,654.9,768.8z"/>
		</g>
		<g>
			<path class="st7" d="M653.9,777.3v-4.8c0-0.6,0.4-1,1-1h3.6c0.6,0,1,0.4,1,1v4.8c0,0.6-0.4,1-1,1h-3.6
				C654.4,778.3,653.9,777.8,653.9,777.3z M657.5,773.5h-1.6v2.8h1.6V773.5z"/>
		</g>
		<g>
			<path class="st7" d="M651.7,754v-4.6c0-0.6,0.4-1,1-1h8.1c0.6,0,1,0.4,1,1v4.6c0,0.6-0.4,1-1,1h-8.1
				C652.1,755,651.7,754.5,651.7,754z M659.8,750.4h-6.1v2.6h6.1V750.4z"/>
		</g>
		<g>
			<path class="st7" d="M647,752.6h5.6c0.6,0,1-0.4,1-1s-0.4-1-1-1H648v-3.2c0-0.6-0.4-1-1-1s-1,0.4-1,1v4.2
				C646,752.2,646.5,752.6,647,752.6z"/>
		</g>
		<g>
			<path class="st7" d="M354.8,781.4h8.5c0.6,0,1-0.4,1-1s-0.4-1-1-1h-8.5c-0.6,0-1,0.4-1,1S354.2,781.4,354.8,781.4z"/>
		</g>
		<g>
			<path class="st7" d="M419.9,781.4h8.5c0.6,0,1-0.4,1-1s-0.4-1-1-1h-8.5c-0.6,0-1,0.4-1,1S419.4,781.4,419.9,781.4z"/>
		</g>
		<g>
			<path class="st7" d="M164.1,716.8v-6.9c0-0.6,0.4-1,1-1h5.2c0.3,0,0.6,0.1,0.8,0.4s0.3,0.6,0.2,0.9c-0.6,2.4-1.1,4.7-1.6,6.9
				c-0.1,0.5-0.5,0.8-1,0.8h-3.5C164.5,717.8,164.1,717.3,164.1,716.8z M169,710.9h-2.9v4.9h1.7C168.2,714.2,168.6,712.5,169,710.9z
				"/>
		</g>
		<g>
			<path class="st7" d="M160.7,730.4v-6.9c0-0.6,0.4-1,1-1h5.4c0.3,0,0.6,0.1,0.8,0.4c0.2,0.2,0.3,0.5,0.2,0.8
				c-0.5,2.4-0.9,4.7-1.3,6.9c-0.1,0.5-0.5,0.8-1,0.8h-4.1C161.2,731.4,160.7,731,160.7,730.4z M165.9,724.5h-3.2v4.9h2.3
				C165.3,727.8,165.6,726.2,165.9,724.5z"/>
		</g>
	</g>
	<g id="wheel_5_">
		<g>
			<g>
				<g>
					
						<ellipse transform="matrix(0.7589 -0.6512 0.6512 0.7589 -423.0488 446.5937)" class="st8" cx="391.6" cy="794.6" rx="30.5" ry="30.5"/>
				</g>
			</g>
			<g>
				<g>
					<path class="st7" d="M359,794.6c0-18,14.6-32.6,32.6-32.6c18,0,32.6,14.6,32.6,32.6c0,18-14.6,32.6-32.6,32.6
						C373.6,827.2,359,812.6,359,794.6z M363.2,794.6c0,15.6,12.7,28.4,28.4,28.4c15.6,0,28.4-12.7,28.4-28.4
						c0-15.6-12.7-28.4-28.4-28.4C375.9,766.2,363.2,779,363.2,794.6z"/>
				</g>
			</g>
		</g>
		<g>
			<g>
				<g>
					<path class="st9" d="M417.6,796.7c1.2,0,2.1-0.9,2.1-2.1c0-15.5-12.6-28.1-28.1-28.1c-1.2,0-2.1,0.9-2.1,2.1
						c0,1.2,0.9,2.1,2.1,2.1c13.2,0,23.9,10.7,23.9,23.9C415.5,795.8,416.4,796.7,417.6,796.7z"/>
				</g>
			</g>
		</g>
		<g>
			<g>
				<g>
					<circle class="st10" cx="391.6" cy="794.6" r="15.3"/>
				</g>
			</g>
			<g>
				<g>
					<path class="st7" d="M374.2,794.6c0-9.6,7.8-17.4,17.4-17.4c9.6,0,17.4,7.8,17.4,17.4s-7.8,17.4-17.4,17.4
						C382,812,374.2,804.2,374.2,794.6z M378.4,794.6c0,7.3,5.9,13.2,13.2,13.2c7.3,0,13.2-5.9,13.2-13.2c0-7.3-5.9-13.2-13.2-13.2
						C384.3,781.4,378.4,787.4,378.4,794.6z"/>
				</g>
			</g>
		</g>
		<g>
			<g>
				<g>
					<path class="st2" d="M400.9,796.7c1.2,0,2.1-0.9,2.1-2.1c0-6.3-5.1-11.4-11.4-11.4c-1.2,0-2.1,0.9-2.1,2.1
						c0,1.2,0.9,2.1,2.1,2.1c4,0,7.2,3.2,7.2,7.2C398.8,795.8,399.7,796.7,400.9,796.7z"/>
				</g>
			</g>
		</g>
	</g>
	<path class="st3" d="M511.5,649.9L503,645l8.5-4.9c1.1-0.6,1.8-1.8,1.8-3.1c0-1.3-0.7-2.5-1.8-3.1l-14-8.1c-1.1-0.6-2.5-0.6-3.6,0
		l-14,8.1c-1.1,0.6-1.8,1.8-1.8,3.1v16.1c0,1.3,0.7,2.5,1.8,3.1l14,8.1c0.6,0.3,1.2,0.5,1.8,0.5c0.6,0,1.3-0.2,1.8-0.5l14-8.1
		c1.1-0.6,1.8-1.8,1.8-3.1C513.3,651.8,512.6,650.6,511.5,649.9z M507.4,636.3c0.2-0.6,0.6-1.1,1.1-1.5c0.4-0.2,0.8-0.3,1.2-0.3
		c0.9,0,1.7,0.5,2.1,1.2c0.3,0.6,0.4,1.2,0.2,1.8c-0.2,0.6-0.6,1.1-1.1,1.5c-0.4,0.2-0.8,0.3-1.2,0.3c-0.9,0-1.7-0.5-2.1-1.2
		C507.3,637.6,507.2,637,507.4,636.3z M495.7,626.5c1.3,0,2.4,1.1,2.4,2.4c0,1.3-1.1,2.4-2.4,2.4c-1.3,0-2.4-1.1-2.4-2.4
		C493.3,627.6,494.4,626.5,495.7,626.5z M484.1,653.7c-0.2,0.6-0.6,1.1-1.1,1.5c-0.4,0.2-0.8,0.3-1.2,0.3c-0.9,0-1.7-0.5-2.1-1.2
		c-0.3-0.6-0.4-1.2-0.2-1.8s0.6-1.1,1.1-1.5c0.4-0.2,0.8-0.3,1.2-0.3c0.9,0,1.7,0.5,2.1,1.2C484.2,652.4,484.3,653.1,484.1,653.7z
		 M483.9,638.2c-0.4,0.7-1.2,1.2-2.1,1.2c-0.4,0-0.8-0.1-1.2-0.3c-0.6-0.3-1-0.8-1.1-1.5s-0.1-1.3,0.2-1.8c0.4-0.7,1.2-1.2,2.1-1.2
		c0.4,0,0.8,0.1,1.2,0.3c0.6,0.3,1,0.8,1.1,1.5C484.3,637,484.2,637.6,483.9,638.2z M495.7,663.5c-1.3,0-2.4-1.1-2.4-2.4
		s1.1-2.4,2.4-2.4c1.3,0,2.4,1.1,2.4,2.4S497.1,663.5,495.7,663.5z M493.9,641.9c-1.1,0.6-1.8,1.8-1.8,3.1c0,1.3,0.7,2.5,1.8,3.1
		l8.5,4.9l-6.7,3.9l-10.3-6V639l10.3-6l6.7,3.9L493.9,641.9z M498.2,645c0,1.3-1.1,2.4-2.4,2.4c-1.3,0-2.4-1.1-2.4-2.4
		s1.1-2.4,2.4-2.4C497.1,642.6,498.2,643.7,498.2,645z M511.8,654.3c-0.4,0.7-1.2,1.2-2.1,1.2c-0.4,0-0.8-0.1-1.2-0.3
		c-0.6-0.3-1-0.8-1.1-1.5c-0.2-0.6-0.1-1.3,0.2-1.8c0.4-0.7,1.2-1.2,2.1-1.2c0.4,0,0.8,0.1,1.2,0.3c0.6,0.3,1,0.8,1.1,1.5
		C512.2,653.1,512.1,653.7,511.8,654.3z"/>
</g>
</svg>
