<?xml version="1.0" encoding="utf-8"?>
<!-- Generator: Adobe Illustrator 22.1.0, SVG Export Plug-In . SVG Version: 6.00 Build 0)  -->
<svg version="1.1" id="Calque_1" xmlns="http://www.w3.org/2000/svg" xmlns:xlink="http://www.w3.org/1999/xlink" x="0px" y="0px"
	 viewBox="0 0 300 131" style="enable-background:new 0 0 300 131;" xml:space="preserve">
<style type="text/css">
	.st0{fill:#FFECD0;}
</style>
<path class="st0" d="M268.4,41.2H228v0C228,18.5,209.5,0,186.9,0H72.7C50.1,0,31.6,18.5,31.6,41.2v0C14.2,41.2,0,55.4,0,72.7v0
	c0,17.4,14.2,31.6,31.6,31.6H85C85,119,97,131,111.7,131h116.7c14.7,0,26.7-12,26.7-26.7h13.3c17.4,0,31.6-14.2,31.6-31.6v0
	C300,55.4,285.8,41.2,268.4,41.2z"/>
</svg>
