<?xml version="1.0" encoding="utf-8"?>
<!-- Generator: Adobe Illustrator 22.0.0, SVG Export Plug-In . SVG Version: 6.00 Build 0)  -->
<svg version="1.1" id="Flowers_2" xmlns="http://www.w3.org/2000/svg" xmlns:xlink="http://www.w3.org/1999/xlink" x="0px" y="0px"
	 viewBox="0 0 4000 460" style="enable-background:new 0 0 4000 460;" xml:space="preserve">
<style type="text/css">
	.st0{fill:#1E2F27;}
	.st1{fill:#588E5C;}
	.st2{fill:#32563B;}
	.st3{opacity:0.43;fill:#68A974;enable-background:new    ;}
	.st4{fill:#243C2F;}
	.st5{fill:#345733;}
	.st6{opacity:0.91;}
	.st7{fill:#7AB27C;}
</style>
<g>
	<g>
		<path class="st0" d="M1488.3,130.3C1488.3,130.3,1488.4,130.3,1488.3,130.3C1488.4,130.3,1488.4,130.3,1488.3,130.3z"/>
		<path class="st0" d="M1699.6,108.9c-0.9,0-2,0.1-3.3,0.2c-0.6,0.1-1.3,0.1-2,0.2s-1.5,0.3-2.3,0.4c-6.3,1.2-14.9,3.1-24.1,5.2
			s-19.1,4.6-27.9,6.7s-16.7,3.9-21.8,4.9c-10.3,2-25.7,2.6-41.1,2.2c-5.3-0.1-10.6-0.3-15.7-0.6c18.4-6.1,34.3-11.4,45.8-15.8
			c13-5.1,27.5-10.2,38.8-13.9c11.3-3.8,18.8-7,18.7-7.8c0-0.4-3.8,0.3-9.8,1.6c-3,0.6-6.5,1.7-10.3,2.7c-3.8,1.1-8,2.4-12.3,3.9
			c-8.6,2.9-17.6,6.2-25.7,9.3c-8.1,3.1-15.2,5.9-19.8,7.6c-9.3,3.4-23.6,6.2-38.1,8.9c-4.5,0.8-8.9,1.7-13.2,2.5c-1,0-2,0-3,0
			c3.5-1.1,7-2.2,10.3-3.4c9.6-3.4,18.7-5.6,26.3-8.9c7.6-3.4,14.3-6.4,20-8.9c11.3-4.9,24-9.7,34.1-12.9c2.5-0.8,4.9-1.5,7-2.2
			c2.1-0.6,3.5-2.5,5.1-2.9c3.1-0.9,4.9-1.6,4.9-2c0-0.2-0.9-0.2-2.4,0.1c-1.5,0.3-3.7,0.6-6.4,1.2c-2.7,0.5-5.8,1.5-9.2,2.4
			c-3.4,0.9-7.1,2.2-10.9,3.5c-3.8,1.2-7.7,2.8-11.5,4.3s-7.5,3.1-11.1,4.5c-7,3-13.2,5.7-17.2,7.5c-8.1,3.4-20.6,6.6-33.3,9.4
			c-12.6,2.9-25.4,5.2-33.7,7.3c-3.9,1-7.6,2-10.9,3.1c-0.7,0.1-1.3,0.2-1.8,0.4c-2.1,0.5-3.3,1-3.3,0.9c0.3,0,0.5,0.1,0.8,0.1
			c-0.1,0-0.3,0.1-0.4,0.1c-0.2,0-0.4-0.1-0.6-0.1l0.1-0.1c-0.1,0-0.2,0-0.2,0.1c-2.3-0.5-4.5-1.1-6.7-1.6c0,0,0,0-0.1,0
			c-0.7-0.5-1.4-1.1-2.1-1.6c-2.6-2-5.2-3.9-7.8-5.8c-0.6-0.5-1.3-0.9-1.9-1.3c-1-2.5-1.9-5.1-2.9-7.5c-4.3-10.4-9-19.9-13.8-28.4
			c-9.5-17.1-19.1-30.7-25.8-40.5c-6.8-9.8-14-20.7-19.7-29.2c-5.4-8-8.8-13-9.8-14.5c-0.1,0-0.1,0.3,0,0.7c0.1,0.4,0,1.1,0.4,1.7
			c0.5,1.4,1.6,3.2,2.9,5.5c2.6,4.5,6.5,10.5,10.7,16.9c8.5,12.8,18.5,27.2,23.1,34.4c4.6,7.1,9.6,18.6,14.4,30.1
			c1.8,4.4,3.6,8.9,5.3,13.1c-4.5-6.2-9-12-13.4-17.3c-10.6-12.8-20.1-23.1-26.9-30.7c-6.8-7.5-13.7-16.4-19.8-22.6
			c-6-6.2-10.9-9.6-11.2-9.3c-0.1,0.1,0.3,0.7,1.1,1.5c0.9,0.8,2.1,2,3.6,3.6c3,3,7.1,7.3,11.3,12.3c4.2,5,8.8,10.4,12.9,15.1
			c4.2,4.7,7.9,8.9,10.2,11.6c4.7,5.5,10.6,14.4,16.5,23.3c4.2,6.4,8.5,12.8,12.2,18c-3.4-2-6.6-3.9-9.7-5.9
			c-4.7-2.9-8.8-5.8-12.8-8.9s-7.8-6.3-11.5-9.3s-7.3-5.9-10.8-8.5c-6.9-5.2-13.1-9.7-18.3-13.4c-10.4-7.5-21.6-15.9-30.3-22.4
			c-2.2-1.6-4.2-3.1-6-4.5s-3.4-2.4-4.9-3.7c-1.4-1.3-2.3-2.6-2.7-4.1c-0.4-1.4,0.2-2.5,0-2.5c-0.1,0-1,0.3-1.1,1
			c-0.1,0.8,0,2,0.5,3.2s1.3,2.3,2.3,3.4c0.5,0.5,1,1,1.5,1.4s1,0.8,1.5,1.3c4.3,3.6,10.3,8.3,16.9,13.3
			c13.2,9.9,28.5,20.9,35.7,26.5c3.6,2.8,7.7,6.6,12.1,10.9c3,3,6.1,6.2,9.3,9.4c-2.2-1.5-4.4-3.1-6.5-4.5
			c-10-6.8-19.5-12.5-28.2-17.3c-4.4-2.4-8.5-4.6-12.4-6.6s-7.5-3.8-10.8-5.4c-13.2-6.5-27.8-13.5-39.3-18.3
			c-2.9-1.2-5.5-2.3-7.9-3.3c-2.4-0.9-4.5-1.7-6.3-2.4c-1.8-0.7-1.9-1.1-2.9-1.4c-1-0.4-1.3-1-1.4-0.8s-0.9,1.4,0.6,2.3
			c1.6,0.9,3.9,2,6.7,3.5c2.9,1.3,6.3,3,10,4.6c3.8,1.7,7.9,3.7,12.1,5.6c4.3,1.9,8.7,4.1,13.1,6.1c4.4,2.1,8.7,4.2,12.7,6.2
			c8.1,4.1,15.2,7.8,19.8,10.4c8.7,4.9,19.9,14,31,23.5c-17.7-7.7-33.2-12.6-44.4-16.2c-11.3-3.6-23.6-7.9-33.1-11.2
			c-4.7-1.6-8.8-3-11.8-4c-2.9-0.9-4-1.8-3.7-2.3c0,0-0.2,0.3,0.7,2.4c0.6,1.3,3.2,1.5,5.6,2.6c4.8,2,11.4,4.5,18.7,7
			c14.4,5.1,31.1,10.3,39,13.2c13.1,4.7,34.2,17.7,49.5,26.3c0.5,0.5,1.1,0.9,1.6,1.4c-1.6-0.4-3.2-0.7-4.7-1.1
			c-0.5-0.1-1-0.2-1.5-0.3c-10.7-3.3-21-6.3-30.8-8.9c-24.7-6.5-46-10.7-61.4-13.8c-15.4-3.1-32.2-6.8-45.2-9.7
			c-6.5-1.4-11.2-3.1-15.2-3.9s-5.5-2.3-5.7-1.9c-0.1,0.2-0.9,2.1,0.9,2.8c1.8,0.8,4.4,1.6,7.7,2.5c6.6,1.9,15.9,3.4,25.6,6.3
			c19.9,5.9,42.5,10.5,53.2,11.4c7,0.6,15.4,4.5,24.6,7.9c-7.6-0.7-14.9-1.3-22-1.6c-17.1-0.8-32.9-0.9-46.9-0.7
			c-7,0.1-13.6,0.2-19.8,0.3c-6.2,0.1-11.9,0.2-17,0.3c-20.8,0.3-43.7-0.6-61.5-2c-4.4-0.4-8.6-0.7-12.3-1c-3.7-0.4-6.8-2.6-9.5-2.9
			c-5.4-0.5-8.9-2.5-9,1.4c0,0.3,1.2,0.8,3.7,1.6c2.5,0.8,6.2,1.5,10.7,2.4c2.3,0.4,4.7,0.8,7.4,1.2c2.7,0.3,5.5,0.7,8.5,1.1
			c6,0.7,12.5,1.1,19.2,1.5c6.7,0.5,13.8,0.5,20.7,0.7c6.9,0.1,13.8,0.1,20.2,0.1c12.9-0.1,24.5,2.5,31.9,2.5
			c14.8,0,36.2,0.2,57.8,3.8c3.6,0.6,7.3,1.2,10.9,1.8c-9.7,0.6-19.2,1.6-28.2,2.9c-21,2.9-39.9,7.3-56.6,11.5
			c-16.8,4.2-31.4,8.4-43.7,11.7c-24.6,6.7-52,12.6-73.5,16.3c-10.8,1.9-20,1.3-26.5,2.3c-3.3,0.5-5.4-1.2-7.6,0.4
			c-1.5,1-2.9,3.1-2.9,3.4s1.7,0.9,4.9,1.1c3.2,0.2,7.7-0.1,13.4-0.5c5.6-0.5,12.2-1.2,19.5-2.3c7.3-1.1,15.1-2.4,23.3-4
			c4.1-0.8,8.2-1.7,12.3-2.6c4.1-0.9,8.3-1.8,12.4-2.8c8.2-1.9,16.3-4,24-6c15.3-3.9,29.5-5.7,38.3-7.9c17.6-4.2,43.5-8.5,70.3-9
			c10.3-0.3,20.5-0.2,30.2,0c-3.8,0.5-7.5,1.2-11.2,1.9c-10.6,2.2-20.4,5-29.7,7.7c-18.7,5.5-35.6,11.4-50.6,17
			c-15.1,5.5-28.2,10.7-39.3,15c-22.1,8.6-60.9,19-80,25.5c-19.1,6.6-18.7,9.1-18.5,10.4c0.1,0.7,6.5-0.6,16.6-3.1
			c5-1.3,11-2.9,17.4-4.9c6.5-2,13.5-4.2,20.7-6.8c14.5-5.1,29.9-10.8,43.6-16s26.8-7.3,34.8-10.1c15.9-5.7,39.3-13,63.8-17.4
			c12.3-2.2,24.5-4.3,35.6-5.3c6.6-0.6,12.9-1.1,18.7-1.5c-20.4,4.9-39.4,10.7-56.9,16.8c-9.9,3.4-19.3,6.9-28.2,10.4
			c-8.9,3.5-17.3,6.9-25.4,10.5c-8,3.6-15.6,7.4-22.3,11.3c-6.7,3.8-12.7,7.6-18.1,11c-10.9,6.8-22.2,13.8-33.8,19.6
			c-11.6,5.8-23.1,10.7-33.1,14.9c-5,2.1-9.1-0.1-13.2,1.6c-4.2,1.8-8.5,3.8-11,5.2c-5.2,2.6-6.1,8.5-5.7,8.9c0.3,0.3,1-0.4,2.8-1.2
			c0.9-0.4,2.2-0.9,3.9-1.5c1.7-0.7,3.8-1.4,6.4-2.3c5.2-1.8,11.4-4.1,18.2-6.8c6.8-2.7,14.2-5.6,21.8-9.1
			c7.6-3.4,15.4-7.2,22.9-11.4c7.5-4.1,15.6-6.6,22.3-10.8c6.7-4.2,13.6-8.1,19.4-11.4s10.4-6,14.6-7.9c8.3-3.9,18-9,29.7-12.3
			c11.7-3.2,24.6-6.3,37.5-9.3c15.5-3.5,31-6.8,44.6-10c-19.3,5.7-37,12.5-52.9,20.3c-17.4,8.5-32.5,17.9-45.3,27.4
			c-12.8,9.4-23.1,18.9-31.4,27c-16.8,16.2-36.7,37.7-48,53.9c-5.7,8.1-8.7,11.9-11.9,16.9c-3.2,5-3.1,9.1-2.6,9.6
			c0.3,0.3,1.4-0.8,3.3-2.8c2-2,4.5-5.1,7.7-8.9s6.7-8.5,10.6-13.7s8.2-10.8,12.9-16.5c9.3-11.4,21.4-21.2,31.7-31
			c2.5-2.5,5.1-4.8,7.5-7.1c2.4-2.3,4.8-4.4,7.1-6.3c2.3-1.9,4.4-3.8,6.4-5.4s3.9-3,5.5-4.3c6.6-5,15.7-10,26-14.6
			s20.4-10.7,32.1-14.5c23.5-7.6,47.8-13.4,63.4-18.8c6.3-2.2,12.3-4.6,17.8-7c-0.9,0.6-1.7,1.3-2.6,1.9
			c-15.5,5.2-30.3,11-44.1,17.1c-10.4,4.6-20.4,9.6-29.8,15.1c-4.7,2.7-9.2,5.7-13.6,8.6c-4.3,3-8.5,6.1-12.5,9.2
			c-16.1,12.4-29.3,25.5-40.4,37.7c-11,12.3-19.9,23.7-27.3,33.3c-7.3,9.6-15,19.7-22.4,29.4c-7.4,9.7-21.2,23.8-26.9,32.1
			c-11.7,16.7-11.3,24.8-10.4,25.5c0.6,0.4,4-5,9.9-13.3c2.9-4.2,6.5-9.1,10.5-14.5s8.5-11.3,13.1-17.5
			c9.4-12.3,21.1-23.7,30.3-35.4c4.6-5.9,9-11.4,12.9-16.2c3.9-4.8,7.5-8.9,10.4-12.2c11.4-12.8,30-30.3,51.8-43
			c18.5-10.9,38.1-19.2,52.9-26.2c-5.3,4.9-10.4,9.8-15.3,14.9c-7.6,7.8-14.6,15.9-20.7,24.1c-6.2,8.2-11.5,16.4-16.3,24.2
			c-4.8,7.8-9.2,15.3-13.3,22.3c-8.2,14.1-15.7,26.4-22.1,36.7c-12.8,20.6-29.2,41.1-40.8,58.2c-5.9,8.5-12.9,14.7-16.4,19.9
			c-1.7,2.6-3.3,5.3-3.6,7c-0.5,3.1,1.2,3.9,1.3,4.2c0.1,0.1,0.5-0.1,1.2-0.5c0.6-0.5,1.7-1.1,2.7-2.2c1.1-1,2.3-2.4,3.7-4
			c0.7-0.8,1.4-1.7,2.2-2.6c0.7-0.9,1.5-2,2.3-3c3.2-4.2,7-9.3,11-14.9c4.1-5.6,8.4-11.8,12.8-18.2c8.9-12.9,20.5-25.6,28.6-38.3
			c8.1-12.7,15-24,19.5-31.3s8.5-17.2,15.7-26.4c7.2-9.2,15.4-19,24.4-28c2.6-2.6,5.3-5.2,7.9-7.7c-2.9,3.8-5.6,7.5-8.2,11.2
			c-11.2,15.9-20.2,31.4-27.8,45.6c-7.5,14.2-13.5,27-18.5,37.8c-4.9,10.8-10.2,22.1-14.9,33.1c-4.7,11.1-8.9,21.9-11.9,31.5
			s-7.1,16.4-8.2,22.4c-0.3,1.5,0,3.1-0.3,4.3c-0.2,1.2,0.2,2.8,0.1,3.6c-0.2,1.6,0.8,3.4,1.1,3.5c0.3,0.1,1.1-1.2,2.2-3.9
			c0.5-1.3,1.1-2.9,1.8-4.8c0.5-1.9,1.3-4.1,2-6.5c1.4-4.8,3.4-10.4,5.5-16.8c2.1-6.3,7.1-11.9,9.9-18.9c5.7-14,11.5-28.9,17.7-42.2
			c6.2-13.3,12.8-24.8,16.8-32.3c7.9-14.8,20.8-35.4,37.2-53.5c16.4-18.2,33.9-35.1,44.9-47.2c1.5-1.6,2.9-3.2,4.3-4.8
			c-2,3-3.9,6-5.8,9.1c-11.9,19.1-21.5,38.2-28.9,56.6c-3.8,9.2-6.4,18.2-9.2,26.7c-2.7,8.5-5.2,16.7-7.3,24.4
			c-4.2,15.4-7.6,29-10.5,40.5c-5.7,22.8-14.2,47.2-19.2,66.6c-2.5,9.7-6.2,17.9-7.6,23.9c-1.5,5.9,1.2,10.3,1.7,10.6
			c0.3,0.1,1-1.3,2-4.1c0.5-1.4,1.1-3,1.8-5c0.6-2,1.3-4.2,2.1-6.7c3.1-9.9,7.8-23.3,11.7-38c7.7-29.4,16-63.1,20.6-79.3
			c1.1-4,2.5-8.5,4.2-13.3s3.7-9.9,5.8-15.2c4.3-10.6,7.8-22.3,13.6-33.3c11.2-22.1,24.6-42.9,32.9-57.3c5.8-9.9,11-19.4,15.3-27.7
			h0.1c-6.4,12.5-12,24.9-17.1,37c-8.1,19.3-14.6,38-20,55.5s-9.6,33.8-13,48.5s-6,27.6-8.1,38.5c-4.3,21.8-10.4,45.4-13.6,64.1
			c-1.6,9.3-5,17.6-5.7,23.4c-0.7,5.7,2.6,9,3.1,9.2c0.3,0.1,0.8-1.3,1.5-3.9s1.5-6.5,2.4-11.2c0.9-4.8,2-10.4,3.2-16.6
			c1.1-6.2,4.9-12.4,6.2-19.4c1.3-6.8,1.9-13.5,3.4-21.4c1.4-7.2,2.7-14.1,4-20.8c2.7-13.4,5.2-25.3,7-33
			c3.6-15.4,9.7-38.2,18.3-59.7c7.4-18.6,15.2-37,20.8-51c-12.9,62.8-10.4,116.6-8.9,150.3c1.9,44.2-0.7,93.7,3,94.3
			c4.2,0.6,1.2-94.6,1.1-126c0-11.2,2-26.1,4.8-42c0.3,7.6,0.9,14.9,1.7,21.7c1.5,13.5,3.7,25.3,5.9,35c4.3,19.5,10.6,40.5,17.1,56
			c1.5,3.9,3.2,7.4,4.6,10.6c1.5,3.1,1.8,6.2,3,8.5c1.2,2.2,3.3,3.6,4,4.8c0.7,1.2,1.1,1.8,1.4,1.8c0.2-0.1,0-1.4-0.8-3.7
			c-0.9-2.2-2.3-5.4-3.9-9.3c-0.8-2-1.8-4.1-2.7-6.4c-1-2.3-2-4.8-3-7.4s-2.1-5.3-3.1-8.2c-1-2.8-2.1-5.8-3.1-8.8s-2-6.1-3-9.2
			s-1.9-6.3-2.8-9.4c-1.8-6.3-1.3-13.4-2.7-19.4c-0.6-3-1.2-5.9-1.8-8.7c-0.5-2.8-1-5.5-1.5-8c-0.8-5.1-1.5-9.5-1.9-13
			c-1.8-14.1-3.1-34.2-0.5-54.8c1-8.1,2.2-16.2,3.4-23.9c2.2-10.7,4-20.5,5-28.4c0.3-2.2,0.5-4.3,0.8-6.4c1.3-8.6,2.3-16.7,3-23.6
			c0.4-0.4,0.9-0.8,1.4-1c-0.6,13.6-1,26.7-1.3,39.4c-0.5,20.8-0.4,40.5,0.2,58.8s1.8,35.1,3.4,50.1c1.5,15,3.6,28.2,5.4,39.1
			c3.6,22,8.5,45.9,13.2,64.2c2.3,9.2,1.8,15.2,3.5,20.7c0.8,2.7,0,2,0.5,3.5c0.4,1.5,5.2,6.9,5.4,6.9c0.1,0,0.2-0.4,0.3-1.1
			c0-0.7,0.1-1.8-0.2-3.1c-0.5-2.7-1.3-6.5-2.4-11.2c-2.3-9.4-5.4-22.2-8.5-36.1s-3.7-28.9-6-42.5c-2.2-13.5-3.9-25.6-4.7-33.4
			c-1.7-15.7-3.4-39.1-2.3-62.3c0.2-5.2,0.5-10.4,0.8-15.5c0.3,4.1,0.7,8.1,1.1,12.1c1.8,16.4,4.8,31.4,7.8,44.6
			c3.1,13.2,6.4,24.7,9.3,34.2c5.8,19.1,13.1,39.7,19.5,55.4c3.2,7.8,3,13.4,5.3,18c2.2,4.6,6.6,8.5,7.1,8.4
			c0.3-0.1,0.1-1.4-0.6-3.7c-0.4-1.2-0.8-2.6-1.4-4.2s-1.3-3.4-2.1-5.4c-1.6-4-3.4-8.8-5.5-14c-2-5.3-2.7-10.7-4.9-16.7
			c-1.1-3-2.2-5.9-3.3-9c-1.1-3.1-2.2-6.2-3.2-9.3c-2.1-6.2-4.1-12.4-5.9-18.3s-3.4-11.4-4.8-16.4c-1.3-5-2.5-9.3-3.3-12.8
			c-3.2-13.8-6.9-35.1-7.1-55.9c-0.2-17.1-0.1-34.1-0.4-47.4c0,0.4,0.1,0.7,0.1,1.1c0.8,10,1.7,19.5,2.9,28.9
			c1.1,9.4,2.5,18.4,4.1,27c3.2,17.2,6.9,32.9,10.8,46.8s7.7,25.9,11,36c6.5,20.2,13.6,43.8,18.6,61.2c6.2,21.3,13.1,26.7,14.2,26.5
			c0.6-0.1-1.1-5.7-4.1-14.4c-1.5-4.4-3.3-9.5-5.4-15.2c-2-5.7-4.2-11.9-6.5-18.3c-2.2-6.4-4.6-13.1-6.8-19.7
			c-2.3-6.6-4.4-13.2-6.5-19.4c-2-6.2-3.9-12.1-5.4-17.4c-1.6-5.2-2.9-9.8-3.9-13.5c-4.1-14.5-7.1-36.6-9.1-58.7
			c-1-11.1-1.7-22.1-2.4-32.3c-0.8-10.2-1.4-19.5-2.5-27c-1.2-8.2-2.9-15.9-4.7-22.9c0.1-0.9,0.2-1.7,0.4-2.6c0.5,1.4,1,2.8,1.5,4.2
			c3.4,9.9,6.6,19.4,9.9,28.7c3.3,9.3,6.9,18.2,10.7,26.7c3.9,8.5,8,16.6,12.2,24.2c8.4,15.2,16.9,28.6,24.9,40.4
			c7.9,11.8,15,22.1,21,30.7c11.9,17.2,23.5,36.5,33.4,51.3c2.5,3.7,5.9,7.1,8,10s4.2,5.2,5.9,6.9c3.7,3.3,6.4,3.7,6.6,3.3
			c0.2-0.3-0.7-0.8-2.3-2c-0.8-0.6-1.7-1.5-2.8-2.6c-0.5-0.6-1-1.2-1.5-2c-0.6-0.7-1.2-1.5-1.8-2.3c-2.5-3.3-3.2-9-6.5-14
			s-6.8-10.4-10.5-16.1c-14.8-22.5-32.4-47.9-40.5-60.3c-8.2-12.4-17.7-32.3-25.8-52.6c-8.3-20.3-16.4-40.3-22.3-54
			c-1.9-4.5-4-8.9-6.1-12.9c3.7,5.8,7.5,11.4,11.3,16.8c10.5,14.9,21.5,28,31.9,40c10.4,12,20.4,22.6,29.5,32s17.2,17.5,24.1,24.3
			c13.6,13.6,28.4,28.8,40,40.5c2.9,2.9,4.5,6.5,6.9,8.9s4.8,5.3,6.6,7c3.6,3.5,6.7,3.8,7.1,3.5c0.2-0.1-0.5-1.2-2-3.1
			c-1.5-1.8-3.8-4.4-6.6-7.5c-2.8-3.2-5.4-7.4-9.2-11.4c-3.8-4-8-8.3-12.3-12.7c-17.4-17.8-37.5-37.8-47-47.8
			c-9.5-9.9-21.6-26.1-33.2-42.6c-11.7-16.5-23.5-32.9-31.8-43.7c-1.2-1.5-2.3-3-3.5-4.5c0,0,0,0,0-0.1c0.2,0.3,0.5,0.6,0.7,0.9
			c11.3,13.3,22.4,25.5,32.7,36.9c10.4,11.3,20.2,21.5,29.2,30.4c9,8.9,17.1,16.6,23.9,23c13.6,12.8,28.3,27.2,39.8,38.2
			c5.7,5.5,9.4,11,13,14.2c3.6,3.3,7,4.4,7.4,4.1c0.2-0.1-0.5-1.2-1.9-3s-2.3-5.1-5.2-8c-5.7-5.9-13.6-13.8-22.3-22.2
			c-17.3-16.8-37.4-35.7-46.8-45.1c-9.4-9.4-21.4-24.9-33.3-40.5c-6-7.8-13.2-14.8-18.8-21.9c-2.5-3.2-5-6.3-7.3-9.2
			c12.1,10.6,24.1,20,35.7,28.3c25.8,18.4,49.3,31.3,66.1,40.6c16.9,9.3,35.3,19.6,49.7,27.3c7.2,3.8,13.5,6.7,18,8.2
			c4.4,1.8,7.2,2.4,7.4,2.1c0.1-0.2-0.9-0.9-2.9-2c-1-0.5-2.2-1.2-3.6-2c-1.4-0.7-2.5-3-4.3-3.9c-3.6-1.8-7.8-4.1-12.6-6.7
			c-4.8-2.7-10-5.6-15.4-8.6c-10.8-6-22.4-12.5-32.8-18.3c-10.4-5.8-19.5-11-25.3-14.6c-11.7-7.1-27.2-20-42.2-33.5
			c-15-13.4-30.3-25.7-40.8-34.2c-1.1-0.9-2.3-1.8-3.4-2.7c3.4,2,6.8,3.9,10.2,5.7c15.5,8.6,30.1,16.3,44.1,22.9
			c13.9,6.6,26.9,12.6,38.6,17.7s22.1,9.4,30.9,13c17.4,7.4,36.5,15.4,51.4,21.7c7.4,3,13.8,5.7,18.4,7.4c2.3,0.8,4.1,1.6,5.3,2
			c1.3,0.4,2,0.6,2.1,0.4c0.2-0.2-0.9-0.9-2.9-2.2c-1.9-1.3-3.7-3.4-7.4-5.2c-3.7-1.8-8.1-3.8-13-6s-10.3-4.6-15.9-6.9
			c-22.3-9.7-48-20.5-60.3-25.9c-12.3-5.5-28.9-16.2-45.7-26.8c-16.7-10.7-35.1-20.5-47.3-26.2c-5.9-2.9-11.9-5.1-17.4-7.1
			c1.3-0.5,3-0.5,4.4,0.1c0.5-0.8,0.7-1.6,0.9-2.3c5.9,2.3,11.7,4.6,17.4,6.7c15.6,5.7,30.6,10,44.6,13.3
			c14.1,3.3,27.1,5.7,38.9,7.6c11.8,1.8,22.2,3.2,30.9,4.4c17.4,2.4,36.5,5.4,51.3,7.7c7.4,1.1,13.7,2.1,18.3,2.6
			c4.5,0.8,7.2,1,7.3,0.5c0.1-0.3-1-0.7-3.1-1.4c-1-0.3-2.3-0.7-3.8-1.2c-1.5-0.3-2.9-2.2-4.8-2.6c-3.7-0.8-7.6-1.6-12.6-2.4
			c-4.9-0.8-10.5-1.9-16.1-2.8c-22.4-3.6-48.2-6.9-60.5-8.9c-12.3-2.1-30.4-6.5-47.7-12.9c-17.3-6.4-34.5-13.2-46.3-16.8
			c-4.4-1.3-8.7-2.4-12.9-3.3c0.3-0.1,0.6-0.1,0.9-0.2c2.4,0.4,4.8,0.9,7.1,1.3c14.6,2.6,28.4,4.7,41.3,6.3
			c25.7,3.2,48,5.3,63.9,5.8c7.9,0.2,16.3,0.6,24.3,0.7s15.8,0,22.4-0.5c6.7-0.5,12.1-2.9,16-3.8c1-0.2,1.8-0.4,2.6-0.6
			c0.8-0.2,1.4-0.5,1.9-0.5c1.1-0.2,1.7-0.3,1.7-0.5c0-0.1-0.3-0.2-0.8-0.3c-0.5-0.1-0.3-1.7-1.3-1.6c-0.9,0.1-2.1-0.1-3.4,0
			c-1.3,0.2-3.3,0.5-4.9,0.7c-3.3,0.3-7.3,0.7-11.7,0.9c-4.4,0.2-9.1,0.6-14.1,0.6c-10.1,0.1-20.1-0.4-29.9-0.8s-19.5-0.8-25.2-1.2
			c-11.3-0.8-27.9-3.3-44.1-7.2c-1.1-0.3-2.1-0.5-3.2-0.8c3.6-0.2,7.1-0.5,10.5-0.8c12.1-1.1,23.5-1.5,33.3-3.5s18.3-4.1,25.5-5.9
			c14.3-3.5,29.9-7.3,42.2-10.3c3-0.7,5.8-1.4,8.4-2.1c2.5-0.6,4.4-2.8,6.2-3.2c1.8-0.5,3.3-0.7,4.3-1s1.5-0.6,1.5-0.8
			C1702.4,108.7,1701.4,108.8,1699.6,108.9z"/>
	</g>
	<path class="st1" d="M1482.5,136.1C1482.5,136.1,1482.4,136.1,1482.5,136.1L1482.5,136.1z"/>
	<path class="st1" d="M1482.5,136.1C1482.5,136.1,1482.4,136.1,1482.5,136.1L1482.5,136.1z"/>
	<path class="st2" d="M1696.4,110c0,0.2-0.5,0.5-1.5,0.8s-2.5,0.5-4.3,0.9c-1.8,0.3-4,0.9-6.5,1.5s-5.3,1.3-8.3,2
		c-12,2.8-27.4,6.5-41.5,9.8c-7,1.7-15.4,3.7-25,5.6s-20.5,3.8-32.4,4.8c-3.4,0.3-6.8,0.5-10.4,0.7c1,0.3,2.1,0.5,3.1,0.8
		c15.9,3.9,31.7,7.7,42.8,8.6c5.5,0.4,14,0.9,23.7,1.4c9.6,0.5,20.4,1,30.3,1.1c5,0,9.7-0.1,14.1-0.3c4.3-0.2,8.2-0.5,11.5-0.8
		c1.6-0.2,3.1-0.3,4.4-0.5c1.3-0.1,2.4-0.2,3.3-0.2c0.9-0.1,1.7,0.1,2.1,0.2c0.5,0.1,0.8,0.2,0.8,0.3c0,0.2-0.6,0.3-1.6,0.5
		c-0.5,0-1.2,0.3-1.9,0.5c-0.8,0.2-1.6,0.3-2.6,0.5c-3.8,0.8-9.4,1.7-15.9,2.1c-6.6,0.4-14.2,0.5-22.1,0.4
		c-7.9-0.2-16.1-0.6-23.9-0.9c-15.6-0.6-37.3-1.3-62.6-4.6c-6.3-0.8-12.8-1.8-19.6-2.8l0,0c-6.8-1.1-13.7-2.3-20.9-3.6
		c-2.3-0.4-4.6-0.9-7-1.4c-0.3,0.1-0.6,0.1-0.9,0.2c4.1,0.9,8.3,2,12.6,3.3c3.9,1.2,8.5,2.8,13.4,4.6c0,0,0,0,0.1,0
		c9.6,3.5,20.7,7.9,31.9,12.1c17,6.4,34.1,12.2,46.2,14.3c12.1,2.1,37.3,5.7,59.3,9.4c5.5,0.9,10.8,1.9,15.6,2.7
		c4.8,0.9,9.2,1.7,12.9,2.5c1.9,0.4,3.5,0.8,5,1.2c1.4,0.4,2.7,0.8,3.7,1.2c2,0.7,3.1,1.1,3,1.4c-0.2,0.5-2.8,0.2-7.2-0.6
		c-4.4-0.6-10.6-1.6-17.9-2.7c-14.5-2.3-33.3-5.4-50.4-7.9c-8.5-1.2-18.8-2.6-30.3-4.5s-24.4-4.3-38.2-7.7
		c-12.6-3-25.9-6.9-39.7-11.9h-0.1c-1.3-0.5-2.7-0.9-4-1.4c-5.5-2-11-4.3-16.6-6.5l0,0h-0.1c-0.1-0.1-0.2-0.1-0.3-0.1l0,0
		c-0.1,0.7-0.4,1.4-0.8,2.2c-1-0.4-2.1-0.5-3.2-0.4c-0.4,0.1-0.8,0.2-1.1,0.3c5.4,1.9,11.2,4.1,17.1,7.1
		c11.9,5.7,28.6,16.2,44.9,26.9c16.4,10.6,32.7,21.2,44.7,26.7s37.2,16.2,59.1,25.9c5.5,2.3,10.7,4.7,15.5,6.9
		c4.8,2.1,9.2,4.2,12.8,5.9c3.6,1.8,7.4,2.3,9.3,3.6c1.9,1.2,4.8,2.7,4.6,2.9c-0.1,0.2-3.4,0.2-4.7-0.3c-1.3-0.4-3-1.2-5.2-2
		c-4.5-1.7-10.7-4.3-18-7.4c-14.6-6.3-33.3-14.4-50.4-21.7c-8.6-3.6-18.8-7.9-30.3-13s-24.1-11.1-37.8-17.6
		c-13.7-6.6-28-14.3-43.2-22.8c-3.3-1.8-6.7-3.7-10-5.7c1.1,0.9,2.2,1.8,3.3,2.7c10.3,8.5,24.6,22.1,39.3,35.4
		c14.7,13.3,29.8,26.1,41.3,33.2c5.7,3.5,14.6,8.7,24.8,14.5c10.1,5.7,21.5,12.2,32.1,18.2c5.3,3,10.4,5.9,15,8.5s8.8,4.9,12.3,6.7
		c1.8,0.9,3.4,1.7,4.8,2.3c1.3,0.8,2.5,1.5,3.5,2c1.9,1.1,3,1.7,2.8,2s-2.9-0.3-7.2-2.1c-4.5-1.6-10.6-4.4-17.7-8.2
		c-14.1-7.7-32.2-18-48.7-27.2c-16.5-9.3-39.5-22.1-64.6-40.4c-8.2-5.9-16.5-12.4-25-19.5c-0.1-0.1-0.2-0.2-0.3-0.3
		c-3.2-2.6-6.4-5.4-9.6-8.2c2.3,2.8,4.7,5.9,7.2,9.1c1.6,2.1,3.3,4.3,5,6.6c3.9,5.2,7.9,10.6,12,15.9c11.6,15.4,23.2,30.7,32.4,40
		c9.2,9.3,28.8,28,45.7,44.6c8.5,8.3,16.2,16.1,21.8,22c2.8,2.9,5,5.3,6.4,7.1c1.4,1.7,3.4,3.3,3.2,3.4c-0.4,0.2-3.9-2-7.4-5.3
		c-3.5-3.2-8.3-7.9-13.9-13.3c-11.2-10.9-25.6-25.1-38.9-37.8c-6.6-6.4-14.6-13.9-23.3-22.7c-8.8-8.8-18.4-18.9-28.5-30.1
		s-20.9-23.3-31.9-36.5c-0.2-0.3-0.5-0.6-0.7-0.8c0,0,0,0,0,0.1c1.1,1.4,2.3,2.9,3.4,4.4c8,10.7,18.7,27.5,30.1,43.8
		c11.3,16.3,23.1,32.3,32.4,42.1c9.2,9.8,28.9,29.6,45.8,47.3c4.2,4.4,8.3,8.7,12,12.6c3.7,4,7.1,7.5,9.8,10.6
		c2.7,3.1,5,5.6,6.4,7.4c1.5,1.8,2.2,2.9,2,3c-0.4,0.3-2.6-1.6-6.1-5.1c-1.8-1.7-3.8-3.8-6.2-6.2c-2.4-2.4-5-5.1-7.8-8
		c-11.3-11.6-25.7-26.6-39-40.1c-6.7-6.7-14.6-14.7-23.5-24s-18.7-19.8-28.8-31.6c-8-9.4-16.4-19.4-24.6-30.5l0,0
		c-2.2-2.9-4.3-5.9-6.5-9c-3.7-5.3-7.4-10.9-11-16.5c2.1,4,4.1,8.3,5.9,12.7c0.2,0.4,0.4,0.9,0.6,1.4c5.5,13.5,11.2,33.5,18.9,52.9
		c7.9,20.1,17,39.6,25,51.9c7.9,12.3,25,37.3,39.4,59.6c3.6,5.6,7,10.9,10.2,15.9c3.1,4.9,5.9,9.6,8.3,12.8c0.6,0.8,1.2,1.6,1.7,2.3
		c0.5,0.7,1,1.4,1.5,2c1,1.1,2,1.9,2.7,2.5c1.6,1.2,2.4,1.7,2.3,2c-0.2,0.4-2.9,0-6.5-3.3c-1.7-1.7-3.7-3.9-5.8-6.8
		c-2.1-2.9-4.3-6.3-6.7-10c-9.6-14.6-22-33.6-33.6-50.6c-5.8-8.5-12.7-18.6-20.5-30.3c-7.8-11.6-16-24.9-24.2-39.8
		c-4-7.5-8-15.4-11.8-23.8c-3.7-8.4-7.2-17.2-10.4-26.3c-3.2-9.1-6.3-18.5-9.6-28.3c-0.5-1.4-0.9-2.8-1.4-4.2
		c-0.1,0.8-0.3,1.7-0.4,2.5c1.8,6.8,3.4,14.4,4.5,22.5c1,7.4,1.5,16.5,2.2,26.5s1.3,20.8,2.2,31.7c1.8,21.7,4.6,43.4,8.5,57.7
		c0.9,3.6,2.2,8.1,3.8,13.3c1.5,5.2,3.3,11,5.2,17.1c2,6.1,4,12.6,6.2,19.1c2.1,6.5,4.4,13.1,6.6,19.4s4.3,12.4,6.3,18
		s3.8,10.7,5.2,15c2.9,8.6,4.5,14.1,3.9,14.2c-1,0.2-5.8-11.4-11.9-28.1s-13.4-38.4-19.7-58.3c-3.1-9.9-6.8-21.8-10.5-35.5
		c-3.8-13.6-7.4-29.1-10.4-46.1c-1.5-8.5-2.8-17.3-3.8-26.5c-1.1-9.2-1.9-18.6-2.6-28.4c0-0.4-0.1-0.7-0.1-1.1
		c0.1,5,0.1,10.6,0.1,16.5c0,0,0,0,0,0.1c0,3.6,0,7.4,0,11.2c0,0.1,0,0.1,0,0.2c0,6.1-0.1,12.4,0,18.7c0.1,20.5,2,41,5.1,54.6
		c0.8,3.4,1.9,7.7,3.2,12.6c1.3,4.9,2.9,10.4,4.6,16.1c1.8,5.8,3.7,11.9,5.7,18c1,3.1,2.1,6.1,3.1,9.2s2.1,6.1,3.2,9
		c2.1,5.9,4.3,11.6,6.2,16.8c2,5.2,3.8,9.9,5.3,13.8c0.8,2,1.4,3.8,2,5.4c0.5,1.6,1,3,1.4,4.1c0.7,2.3,0.9,3.6,0.6,3.7
		c-0.5,0.1-1.7-2.6-3.9-7.1c-2.2-4.6-5-11.1-8-18.8c-6.2-15.4-13.2-35.8-18.8-54.6c-2.9-9.4-6.1-20.7-9-33.7s-5.7-27.7-7.4-43.9
		c-0.4-3.9-0.7-7.8-1-11.9c-0.3,5-0.6,10.1-0.9,15.2c-1.2,22.8-2,45.7-0.4,61.2c0.8,7.7,2.3,19.6,4.4,32.9s4.9,28.1,7.9,41.8
		c2.9,13.7,5.9,26.4,8.1,35.6c1,4.6,1.8,8.4,2.3,11c0.3,1.3,0.2,2.4,0.2,3.1s-0.1,1.1-0.3,1.1c-0.3,0-0.6-0.8-1-2.3s-1.3-3.6-2-6.3
		c-1.6-5.4-3.8-13-6-22.1c-4.5-18-9.2-41.6-12.6-63.2c-1.7-10.8-3.6-23.7-5-38.5c-1.5-14.8-2.5-31.3-3-49.3s-0.4-37.3,0.2-57.8
		c0.1-3.9,0.2-7.9,0.4-11.9c0.3-8.7,0.7-17.7,1.2-26.8c-0.2,0.1-0.3,0.2-0.5,0.2c-0.3,0.2-0.6,0.4-0.9,0.7
		c-0.8,6.8-1.8,14.8-3.2,23.2c-0.2,2.1-0.5,4.2-0.8,6.3c-1.1,7.7-3,17.4-5.1,27.9c-1.3,7.5-2.5,15.4-3.5,23.4
		c-2.6,20.2-3.5,40.8-1.8,54.7c0.4,3.5,1,7.8,1.8,12.8c0.4,2.5,0.9,5.1,1.4,7.9c0.6,2.8,1.1,5.6,1.7,8.6c1.3,5.9,2.8,12.1,4.5,18.3
		c0.8,3.1,1.7,6.2,2.6,9.3c0.9,3.1,1.8,6.1,2.9,9c0.9,3,2,5.9,3,8.6c1,2.8,2,5.5,3,8c1,2.6,2,5,2.9,7.3s1.8,4.4,2.6,6.3
		c1.6,3.9,2.9,7,3.8,9.2c0.8,2.2,1,3.6,0.8,3.6c-0.2,0.1-0.7-0.6-1.3-1.8c-0.7-1.2-1.7-2.9-2.9-5.1c-1.1-2.2-2.4-4.9-3.9-8
		c-1.4-3.1-3-6.6-4.5-10.5c-6.3-15.3-12.4-36-16.5-55.2c-2.1-9.6-4.2-21.2-5.6-34.4c-0.7-6.7-1.2-13.8-1.5-21.3
		c-2.9,15.6-5,30.2-5,41.2c0,4.7,0.1,10.9,0.3,18.1v0.1c0.4,17.4,1.3,40.3,1.9,60.6c0,0,0,0,0,0.1c0.8,26.6,1,48.8-1,48.4
		c-3.6-0.6-3.9-52.8-5.4-96.2c-1-28-2.6-69.9,4.7-119.3v-0.1c1.4-9.2,3-18.6,5.1-28.2c-1.1,2.7-2.3,5.6-3.6,8.7l0,0
		c-5.1,12.2-11.3,26.7-17.2,41.3c-8.6,21.1-16.5,42.6-20.1,57.7c-1.8,7.5-4.3,19.2-7.1,32.4c-1.3,6.6-2.7,13.6-4.1,20.7
		s-2.8,14.2-4.1,21.1c-1.3,6.9-2.6,13.6-3.8,19.7c-1.2,6.1-2.3,11.6-3.2,16.3c-0.9,4.7-1.7,8.5-2.5,11.1c-0.7,2.6-1.2,4-1.5,3.9
		c-0.5-0.2-0.2-3.5,0.5-9.1s2-13.5,3.7-22.6c3.3-18.3,8-41.8,12.3-63.2c2.2-10.7,4.8-23.4,8.2-37.8c3.5-14.4,7.7-30.4,13.1-47.5
		c3.5-11.1,7.5-22.6,12-34.5c2.5-6.5,5.2-13.1,8-19.8c5-11.9,10.7-24,17-36.2h-0.1c-2.8,5.2-5.9,11-9.3,17
		c-1.9,3.3-3.8,6.7-5.9,10.1c-8.3,14-21.5,34.4-32.7,56.1c-5.7,10.8-10.4,22-14.7,32.4c-2.1,5.2-4.1,10.2-5.8,14.9
		c-1.7,4.7-3.1,9.1-4.2,13c-4.6,15.8-12.9,48.9-20.7,77.8c-3.9,14.4-7.5,27.9-10.6,37.5c-0.8,2.4-1.5,4.6-2.1,6.5
		c-0.7,1.9-1.3,3.6-1.9,4.9c-1.1,2.6-1.7,4.1-2,4c-0.5-0.2,0.2-3.7,1.8-9.5c1.4-5.8,3.6-14,6.1-23.5c5.1-19.1,11.7-43.7,17.5-66.1
		c2.9-11.2,6.3-24.6,10.6-39.7c2.1-7.5,4.7-15.6,7.3-24c2.8-8.4,5.5-17.2,9.2-26.2c3.6-8.8,7.7-17.8,12.4-26.8
		c0.1-0.2,0.2-0.4,0.3-0.6c4.8-9.3,10.1-18.6,16-28c1.9-3,3.8-5.9,5.8-8.9c-1.1,1.2-2.2,2.4-3.3,3.6c-0.2,0.2-0.4,0.4-0.6,0.7
		c-0.1,0.1-0.3,0.3-0.4,0.4c-2.3,2.5-4.9,5.2-7.7,8.1l0,0c-10.5,10.7-23.9,24-36.7,38c-16.3,17.7-31.5,36.5-39.3,51.1
		c-3.9,7.3-9.6,18.6-15.8,31.6c-5.4,11.3-11.2,23.9-16.4,36v0.1c-0.7,1.7-1.5,3.5-2.2,5.2c-0.3,0.6-0.5,1.2-0.8,1.8
		c-2.5,6.2-4.8,12.3-6.7,17.9c-2.1,6.2-4,11.7-5.5,16.4c-0.7,2.3-1.5,4.5-2,6.3c-0.7,1.8-1.3,3.4-1.8,4.7c-1,2.6-1.9,3.9-2.1,3.8
		c-0.3-0.1-0.2-1.1,0-2.7c0.1-0.8,0.2-1.8,0.4-3c0.2-1.2,0.5-2.5,0.8-3.9c1.1-5.9,3.1-14.1,6.1-23.5s7.2-20.1,11.9-30.9
		c4.7-10.8,10-21.9,14.9-32.4s10.9-23.1,18.4-37s16.5-29.1,27.6-44.6c0.3-0.5,0.7-1,1-1.4c0,0,0.1-0.1,0.1-0.2
		c2.3-3.1,4.6-6.3,7-9.4c-0.4,0.4-0.9,0.8-1.3,1.2c-2.2,2-4.4,4.1-6.5,6.3c-0.4,0.4-0.7,0.7-1.1,1.1l0,0c-0.4,0.4-0.8,0.8-1.2,1.2
		l0,0c-8,8.2-15.3,16.9-21.9,25.1c-7.1,9-13.3,17.4-17.8,24.6s-11.3,18.3-19.4,30.7c-8,12.4-17.3,26.1-26.1,38.7
		c-4.4,6.3-8.7,12.4-12.7,17.8c-4,5.5-7.7,10.4-10.9,14.6c-0.8,1-1.6,2-2.3,2.9c-0.8,0.9-1.5,1.8-2.1,2.5c-1.3,1.6-2.6,2.9-3.6,3.9
		c-1,1.1-2,1.7-2.7,2.2c-0.7,0.4-1.1,0.6-1.2,0.5c-0.2-0.2,0.3-1,1.3-2.3c1-1.4,2.4-3.4,4.1-6c3.5-5.1,8.4-12.3,14.2-20.7
		c11.6-16.7,26.7-38.2,39.4-58.4c6.4-10,13.8-22.2,21.9-35.9c4.1-6.9,8.4-14.2,13.2-21.8c4.8-7.6,10.1-15.6,16.2-23.7
		c1.1-1.5,2.3-3,3.5-4.5c5.2-6.5,10.9-12.9,17-19.1c4.8-4.9,9.9-9.8,15.1-14.5c-1.1,0.5-2.3,1-3.4,1.6c-0.2,0.1-0.5,0.2-0.7,0.3l0,0
		l0,0l0,0c-2.5,1.1-5,2.2-7.7,3.4l0,0c-12.4,5.6-26.6,12-40.3,19.9c-21.5,12.3-41.5,27.6-52.8,40.1c-2.8,3.1-6.4,7.2-10.3,11.9
		c-3.9,4.7-8.3,10.1-12.8,15.8c-9.1,11.5-19.1,24.4-28.4,36.4c-4.6,6-9.1,11.7-13,17.1c-3.9,5.3-7.5,10.1-10.4,14.2
		c-5.8,8.2-9.2,13.4-9.8,13c-1-0.7,5.4-13.2,17-29.5c5.7-8.2,12.7-17.4,20.1-26.9s15-19.4,22.2-28.7c7.3-9.3,16.2-20.5,27.1-32.5
		c4.3-4.7,9-9.5,14-14.4c7.7-7.5,16.3-15.1,25.9-22.4c4-3,8.1-6,12.4-8.9c4.3-2.8,8.8-5.7,13.4-8.4c9.3-5.3,19.2-10.2,29.4-14.6
		c13.7-5.9,28.2-11.5,43.5-16.5c0.7-0.5,1.4-1,2-1.5l0,0c0.2-0.1,0.3-0.2,0.5-0.4c-1.3,0.6-2.7,1.1-4,1.7c-0.1,0-0.1,0-0.2,0.1
		c-4.3,1.7-8.7,3.4-13.4,5c-4.9,1.7-10.6,3.4-16.9,5.1c-1.3,0.4-2.6,0.7-3.9,1.1c-6.2,1.7-13,3.5-19.9,5.5l0,0
		c-7.1,2-14.5,4.1-21.7,6.4c-11.6,3.6-23,7.7-33.2,12.1c-9.9,4.4-18.8,9.1-25.5,14.1c-1.6,1.2-3.4,2.6-5.4,4.1
		c-2,1.6-4.1,3.3-6.3,5.2c-2.3,1.9-4.6,3.9-7,6.1s-5,4.4-7.5,6.9c-10.2,9.6-20.7,21.1-30,32.2c-4.6,5.6-8.9,11.1-12.8,16.1
		s-7.3,9.7-10.6,13.4c-3.2,3.7-5.6,6.8-7.6,8.7c-1.9,2-3,3-3.3,2.8c-0.5-0.5,1.2-3.5,4.4-8.4c3.2-4.9,7.8-11.7,13.4-19.6
		c11.2-15.8,27.6-34.8,44.2-50.5c5.3-5,11.3-10.6,18.2-16.4c4-3.3,8.2-6.6,12.8-9.9c12.6-9.2,27.5-18.4,44.7-26.6
		c15.6-7.5,33.1-14.1,52.1-19.6c-2.4,0.5-4.9,1.1-7.5,1.6c-0.3,0.1-0.6,0.1-0.9,0.2c-3.5,0.8-7.1,1.6-10.8,2.3
		c-6.7,1.4-13.7,2.9-20.6,4.4c-1.4,0.3-2.7,0.6-4.1,0.9c-12.7,2.8-25.4,5.8-36.9,8.9s-22,6.3-30.2,10.1c-4.1,1.9-9.2,4.4-14.9,7.6
		c-5.7,3.2-12,7-18.6,11c-6.7,4-13.7,8.4-21.1,12.4c-7.4,4.1-15.1,7.8-22.5,11.1c-7.5,3.3-14.8,6.2-21.5,8.8
		c-6.7,2.5-12.8,4.8-17.9,6.5c-2.6,0.9-4.7,1.6-6.3,2.3c-1.7,0.5-2.9,1.1-3.8,1.4c-1.8,0.8-2.5,1.4-2.8,1.1
		c-0.4-0.4,0.5-2.6,5.7-5.2c2.5-1.4,6.1-2.8,10.2-4.5s8.7-3.6,13.6-5.6c9.9-4.1,21.2-8.8,32.6-14.5c11.5-5.6,22.6-12.4,33.4-19
		c5.4-3.3,11.3-7,17.9-10.7s14.1-7.4,22-10.9c4.3-1.9,8.7-3.7,13.3-5.5c3.8-1.5,7.7-3.1,11.7-4.6c8.8-3.4,18.1-6.8,27.8-10
		c13.5-4.6,27.9-9,43.2-13c4.2-1.1,8.5-2.2,12.9-3.2c-2.4,0.2-4.9,0.3-7.4,0.5c-3.5,0.2-7.2,0.5-11,0.8c-1,0.1-1.9,0.2-2.9,0.3
		c0,0,0,0-0.1,0c-10.1,1-21,2.8-32,4.7c-24.1,4.1-48.1,8.7-63.8,14.1c-7.8,2.7-19.7,7.2-33.3,12.3c-13.5,5-28.7,10.5-42.9,15.4
		c-7.1,2.5-14.1,4.6-20.4,6.6c-6.4,2-12.2,3.5-17.1,4.7c-9.9,2.4-16.2,3.5-16.3,2.9c-0.1-1.2,13.4-5.1,32.3-11.4
		c18.8-6.3,43-14.9,64.8-23.2c10.9-4.1,23.9-9.2,38.7-14.5c3.3-1.2,6.8-2.4,10.3-3.7c12.1-4.2,25.3-8.6,39.6-12.7
		c9.2-2.6,18.8-5.3,29.3-7.4c0.6-0.1,1.1-0.2,1.7-0.3l0,0c3-0.6,6.1-1,9.2-1.5c-2-0.1-4-0.1-6-0.2c-3.1-0.1-6.1-0.1-9.2-0.1
		c-4.8,0-9.6,0-14.5,0.1c-26.3,0.3-52.5,2.5-69.9,6.5c-8.7,2-21.9,5.5-37,9.3c-7.5,1.9-15.5,3.9-23.6,5.7c-4.1,0.9-8.1,1.8-12.2,2.7
		c-4.1,0.9-8.1,1.7-12.1,2.5c-8,1.5-15.8,2.7-22.9,3.8c-7.1,1-13.6,1.7-19.2,2.1c-5.5,0.3-10,0.6-13.1,0.4s-4.8-0.8-4.8-1.1
		c0-0.3,1-0.5,2.8-0.7s4.3-0.6,7.6-1.1c6.5-0.9,15.6-2.2,26.1-4c21.2-3.4,48.2-9.1,72.3-15.5c12.1-3.1,26.5-7.1,43-11.2
		c0.1,0,0.2,0,0.3-0.1c16.4-4,34.9-8.1,55.5-10.8c6.7-0.9,13.7-1.7,20.9-2.2c2.2-0.2,4.5-0.3,6.8-0.5c-0.9-0.2-1.9-0.3-2.9-0.5
		c-2.2-0.4-4.5-0.8-6.8-1.2l0,0c-0.3-0.1-0.7-0.1-1-0.2c-21.2-3.6-42.4-6.7-57-6.8c-7.3,0-18.5,0.1-31.1,0.1
		c-6.3-0.1-13.1-0.1-19.8-0.3c-6.8-0.3-13.7-0.4-20.3-0.8c-6.7-0.4-13.1-0.9-18.9-1.6c-2.9-0.3-5.7-0.7-8.3-1.1
		c-2.6-0.3-5-0.8-7.3-1.2c-4.4-0.9-8.1-1.6-10.5-2.4c-2.4-0.7-3.8-1.3-3.6-1.6c0.2-0.5,3.3-0.2,8.7,0.4c2.7,0.3,5.9,0.7,9.5,1.1
		c3.6,0.3,7.7,0.7,12,1.1c17.5,1.5,40,2.5,60.4,2.4c5.1-0.1,10.7-0.1,16.8-0.2c6-0.1,12.5-0.2,19.4-0.2c3.5,0,7.2,0,10.9,0
		c10.9,0,22.7,0.3,35.2,1c6.3,0.3,12.8,0.8,19.4,1.5l0,0c0.7,0.1,1.4,0.1,2.2,0.2c-0.4-0.1-0.7-0.3-1.1-0.4c-2.6-1-5.2-1.9-7.6-2.8
		l0,0c-5.7-2-10.9-3.7-15.4-4.7c-10.7-2.5-32.9-7-52.3-11.5c-9.7-2.3-18.6-4.5-25.1-6.4c-3.2-1-5.9-1.7-7.6-2.6
		c-1.7-0.8-2.7-1.3-2.6-1.5c0.2-0.4,2.4,0.3,6.3,1.1c3.9,0.8,9.4,2.1,15.8,3.5c12.8,2.9,29.3,6.7,44.4,9.8c10,2.1,22.6,4.7,37,8.1
		c4.2,1,8.6,2.1,13.2,3.2c0.1,0,0.2,0,0.3,0.1c3.2,0.8,6.5,1.7,9.8,2.6c9.6,2.6,19.6,5.6,30.2,8.9c0.5,0.1,1,0.2,1.5,0.3
		c1.4,0.3,2.9,0.7,4.3,1c0.1,0,0.2,0.1,0.3,0.1c-0.1-0.1-0.1-0.1-0.2-0.1c-0.5-0.4-0.9-0.8-1.4-1.2c-15-8.6-35.7-21.5-48.5-26.2
		c-7.8-2.9-24.1-8.2-38.2-13.2c-7.1-2.5-13.6-5-18.3-7c-2.3-1-4.2-1.8-5.5-2.6c-1.3-0.7-1.9-1.2-1.8-1.3c0.2-0.3,1.8,0.4,4.7,1.3
		c2.9,1,6.9,2.4,11.5,4c9.4,3.3,21.4,7.5,32.5,11.2c11,3.6,26.2,8.6,43.5,16.3c-0.1-0.1-0.1-0.1-0.2-0.2
		c-5.9-5.1-11.8-10.1-17.4-14.4l0,0c-4.6-3.5-8.9-6.5-12.7-8.7c-4.4-2.6-11.4-6.3-19.4-10.3c-4-2-8.2-4.1-12.5-6.2
		c-4.3-2-8.6-4.2-12.8-6.1c-4.2-1.9-8.2-3.9-11.9-5.6c-3.7-1.7-7-3.4-9.8-4.6c-2.8-1.4-5-2.6-6.5-3.4c-1.5-0.9-2.2-1.7-2.1-1.8
		c0.1-0.2,0.6,0,1.6,0.3s2.4,0.8,4.1,1.4c1.7,0.7,3.8,1.5,6.2,2.4c2.4,1,4.9,2.1,7.8,3.3c11.2,4.9,25.6,11.8,38.5,18.3
		c3.2,1.7,6.7,3.5,10.6,5.4c3.8,2,7.8,4.2,12.1,6.6c8.5,4.8,17.9,10.5,27.6,17.2c2.1,1.5,4.3,3,6.4,4.5c-3.2-3.2-6.2-6.4-9.1-9.3
		c-4.3-4.3-8.3-8-11.8-10.8c-7-5.5-22-16.4-34.9-26.2c-6.4-4.9-12.4-9.6-16.5-13.2c-0.5-0.4-1-0.9-1.5-1.3s-1-0.9-1.5-1.4
		c-0.9-1-1.7-2.1-2.2-3.3c-0.5-1.2-0.6-2.4-0.5-3.1c0.1-0.8,0.2-1.1,0.3-1.1c0.2,0,0.1,1,0.5,2.4c0.4,1.5,1.6,3,2.9,4.2
		c1.5,1.2,3,2.2,4.8,3.6c1.8,1.3,3.8,2.8,5.9,4.4c8.5,6.5,19.5,14.8,29.7,22.3c5.1,3.7,11.1,8.1,17.9,13.3c3.4,2.6,6.9,5.4,10.5,8.4
		s7.4,6.1,11.3,9.2s8,6,12.6,8.8c1,0.7,2.1,1.3,3.2,2c1.9,1.2,3.9,2.4,5.9,3.6c0.1,0.1,0.3,0.2,0.4,0.3c-0.1-0.2-0.2-0.3-0.3-0.5
		c-3.5-5-7.6-11.2-11.5-17.3c-0.6-0.8-1.1-1.7-1.6-2.5c-5.2-7.9-10.2-15.6-14.4-20.5c-2.3-2.6-5.9-6.8-10-11.5s-8.5-10-12.6-14.9
		s-8.1-9.2-11.1-12.1c-1.5-1.5-2.7-2.7-3.5-3.5s-1.2-1.4-1.1-1.5c0.3-0.3,5.1,3,11,9.2c5.9,6.1,12.7,14.9,19.3,22.3
		c6.6,7.5,15.9,17.7,26.2,30.4c3.1,3.8,6.2,7.8,9.5,12.2l0,0c1,1.4,2,2.7,3.1,4.2c0.2,0.2,0.3,0.5,0.5,0.7
		c-1.6-4.2-3.4-8.6-5.1-12.9c-0.1-0.2-0.1-0.3-0.2-0.5c-1.7-4.3-3.5-8.5-5.2-12.5c-2.9-6.5-5.8-12.5-8.5-16.8
		c-4.5-7-14.2-21.3-22.5-33.9c-4.1-6.3-7.9-12.3-10.4-16.7c-1.2-2.2-2.3-4-2.8-5.4c-0.3-0.6-0.3-1.3-0.4-1.7c0-0.4,0-0.6,0-0.7
		c1,1.4,4.3,6.4,9.5,14.3c5.5,8.3,12.6,19.1,19.1,28.8c6.6,9.7,15.9,23,25.1,39.9c4.6,8.5,9.2,17.8,13.3,28c1,2.4,1.9,4.9,2.8,7.4
		c0.6,0.4,1.2,0.8,1.9,1.3c2.5,1.8,5.1,3.7,7.6,5.7c0.7,0.5,1.3,1,2,1.5c0,0,0,0,0.1,0c2,0.5,4,1.1,6,1.5c0.2,0.1,0.4,0.1,0.7,0.2
		c0,0,0.1,0,0.2,0c0,0,0,0-0.1,0c0.2,0.1,0.4,0.1,0.6,0.1c0.1-0.1,0.3-0.1,0.4-0.2c-0.3,0-0.5-0.1-0.7-0.1c0.3-0.1,1.4-0.5,3.1-0.9
		c0.5-0.1,1.1-0.3,1.8-0.4c2.7-0.8,5.7-1.6,8.8-2.4c0.1,0,0.2,0,0.3-0.1c0.6-0.1,1.2-0.3,1.7-0.4c8.2-2,20.7-4.2,33.2-6.9
		c12.4-2.7,24.8-5.8,32.7-9c4-1.7,10.1-4.3,17-7.2c3.5-1.4,7.2-2.9,10.9-4.4c3.8-1.4,7.6-2.9,11.3-4.1c3.7-1.2,7.3-2.5,10.7-3.4
		c3.4-0.9,6.4-1.8,9.1-2.3c2.6-0.5,4.8-0.8,6.3-1.1c1.5-0.2,2.3-0.3,2.3-0.1c0,0.3-1.8,1-4.8,1.9c-1.6,0.4-3.4,0.9-5.4,1.5
		c-2.1,0.6-4.4,1.3-6.8,2.1c-9.9,3.1-22.5,7.7-33.6,12.4c-5.6,2.4-12.2,5.3-19.7,8.6c-7.5,3.2-16,6.7-25.5,9.9
		c-3.3,1.1-6.6,2.2-10.1,3.2c1,0,2,0,3,0.1c4.3-0.8,8.6-1.6,13-2.4c14.2-2.6,28.3-5.2,37.5-8.5c4.6-1.7,11.6-4.4,19.5-7.3
		c8-3,16.9-6.3,25.3-9c4.2-1.4,8.3-2.6,12.1-3.7c3.8-1,7.2-2,10.1-2.6c5.9-1.2,9.6-1.9,9.6-1.5c0.1,0.8-8,2.9-19.1,6.5
		c-11.2,3.6-25.4,8.5-38.2,13.4c-11.3,4.3-26.4,10.4-44.5,16.3c5,0.3,10.2,0.5,15.5,0.7c15.1,0.5,30.3,0,40.4-1.9
		c5.1-1,12.8-2.7,21.5-4.7s18.4-4.4,27.5-6.4c9.1-2.1,17.5-3.8,23.7-5c0.8-0.1,1.5-0.3,2.2-0.4c0.7,0,1.4-0.1,2-0.2
		c1.3-0.1,2.4-0.2,3.3-0.2C1695.4,109.9,1696.4,109.7,1696.4,110z"/>
	<path class="st3" d="M1517.1,136.2c0,0.9,0.7,1.7,1.5,1.9c4,0.9,8,2.1,12,3.3c8,2.6,18.6,6.8,29.9,11.3c4.5,1.8,9.1,3.6,13.8,5.4
		c16.1,6.3,28.3,10.5,37.6,12.9c-11.7-2.1-23.4-4.7-34.8-7.6c-14-3.6-28.1-8.1-41.9-13.5c-5.1-1.9-10-4-15.3-6.2l-1.1-0.4
		c-0.5-0.2-1.1-0.2-1.6,0.1c-0.1,0.1-0.3,0.2-0.4,0.3c-0.3,0.3-0.5,0.7-0.6,1.1c0,0.1,0,0.2,0,0.2c-1.3-0.2-2.5-0.1-3.7,0.3
		c-0.2,0.1-0.4,0.2-0.6,0.4c-0.4,0.3-0.6,0.8-0.6,1.4c0,0.8,0.5,1.5,1.3,1.8c4.9,1.8,10.6,4.1,16.2,7c12.2,6,29.5,17.2,43.2,26.4
		c13.4,8.8,27.1,17.8,38,23.7c-10.7-4.8-22.3-10.5-36.4-17.5c-11.8-5.8-25-13-41.6-22.5c-3.2-1.8-6.4-3.7-9.6-5.6
		c-0.8-0.4-1.7-0.3-2.3,0.2c-0.1,0.1-0.2,0.2-0.3,0.3c-0.5,0.8-0.4,2,0.4,2.6c1.1,0.8,2.1,1.7,3.2,2.6c6.7,5.6,15.3,13.5,24.5,22
		c4.4,4.1,9,8.3,13.6,12.6c14.1,12.8,25.3,22.2,34.2,28.6c-10.3-6.4-21.5-13.8-33.3-22.4c-11.4-8.4-22.7-17.6-33.7-27.3
		c-0.7-0.7-1.8-0.7-2.5,0l0,0c-0.7,0.7-0.8,1.8-0.1,2.6c2.2,2.8,4.6,5.7,7,8.8c3.6,4.7,7.4,9.7,11.2,14.7c1.8,2.4,3.6,4.7,5.3,7.1
		c7,9.3,14.2,18.7,20.9,26.8c-6.3-6.5-13-13.7-20.3-21.7c-9.8-10.9-20.4-22.6-31.1-35.4l-0.7-0.8c-0.4-0.5-1-0.7-1.5-0.7
		s-0.9,0.2-1.2,0.5c-0.1,0.1-0.2,0.2-0.3,0.3c0,0-0.1,0.1-0.1,0.2c-0.4,0.7-0.3,1.5,0.2,2.2c1.1,1.4,2.2,2.8,3.3,4.3
		c4.5,6,10,14,15.8,22.6c4.4,6.5,8.9,13.2,13.6,19.9c8.2,11.7,15.3,21.3,21.3,28.8c-7.7-8.2-14.5-15.8-21-23.4
		c-9.8-11.4-20.2-23.9-30.2-38.2c-3.5-5-7-10.2-10.8-16c-0.6-0.9-1.7-1.2-2.5-0.7c-0.1,0.1-0.2,0.1-0.3,0.2
		c-0.6,0.6-0.8,1.5-0.4,2.3c2.2,4.1,4.1,8.2,5.8,12.2c2.8,6.4,5.6,14.5,8.7,23.2c3.2,9,6.7,19.2,10.8,29.2c6.8,16.7,14,32,20.4,43.2
		c-8-11.9-15.6-24.3-22.6-36.8c-4.4-7.9-8.2-15.4-11.6-22.9c-3.7-8.2-7.2-16.7-10.3-25.3c-2.4-6.5-4.6-13-7.1-19.9l-2.5-7.3l-1.4-4
		c-0.3-0.8-1.1-1.4-2-1.3c-0.4,0-0.8,0.2-1.1,0.5c-0.3,0.3-0.5,0.7-0.6,1.1l-0.3,2.4c0,0.3,0,0.5,0.1,0.7c2,7.3,3.6,14.5,4.6,21.4
		c0.9,6.2,1.6,13.9,2.3,22.1l0.3,3.3l0.5,6.8c0.6,7.7,1.3,15.6,2,23.6c1.2,12.3,3.1,28.2,5.9,42c-3.2-11.6-6-24-8.5-36.9
		c-1.6-8.5-3-17.1-4.1-25.4c-1-7.9-1.9-15.6-2.6-23.5c-0.1-1.2-0.2-2.5-0.3-3.7l-0.1-1c-0.1-1-1-1.8-2-1.8c-0.5,0-0.9,0.2-1.2,0.5
		c-0.4,0.3-0.6,0.9-0.6,1.4c0.2,6.8,0.3,14.6,0.4,22.8c0.1,7.1,0.2,14.5,0.4,21.9c0.2,12.2,1.2,24.4,2.6,35.1
		c-2.3-10.8-4-20.7-5.1-30.4c-0.4-3.7-0.8-7.5-1.1-11.3c-0.1-1-0.9-1.8-1.9-1.8c-0.5,0-0.9,0.2-1.3,0.5s-0.6,0.8-0.6,1.3l-0.6,14.6
		c-0.5,13.8-1,30.2-0.5,44.2c-1.3-12.6-2.2-25.8-2.7-39.3c-0.7-17-1-35.7-0.7-55.4c0-2.3,0.1-4.6,0.1-7c0.1-7.7,0.3-16.2,0.7-26.5
		c0-1.1,0.1-2.3,0.1-3.5c0-0.6-0.3-1.2-0.8-1.6s-1.2-0.5-1.8-0.3c-0.6,0.2-1.3,0.6-1.8,1.1l-0.2,0.2c-0.3,0.3-0.5,0.7-0.5,1.1
		c-0.7,7.5-1.6,14.9-2.6,22.1c-0.2,2-0.4,4-0.7,6c-1,8-2.8,17.9-4.5,26.5c-1.3,8.6-2.3,15.9-3,22.6c-1.3,11.7-2,23.3-2,33.5
		c-0.2-2.4-0.3-4.8-0.4-7.1c-0.1-1-0.8-1.8-1.8-1.9c-0.5,0-1.1,0.1-1.4,0.5c-0.3,0.3-0.5,0.6-0.6,1.1c-3,17.7-4.3,30.3-4.2,39.8
		c0.1,6.7,0.5,16.7,1,28v0.1c0.3,6.1,0.6,12.5,0.9,19.2c1.1,21.3,2.4,48.3,2.4,63.1c-0.5-5.7-1-13.3-1.4-21.6c0,0,0,0,0-0.1
		c-0.4-8.7-0.8-18.3-1.3-27.4c-0.4-10.4-0.9-21.2-1.5-31.5l-0.1-1.2c-1.7-32.6-4.3-81.9,7.1-140c0.2-1-0.4-1.9-1.3-2.3
		c-0.7-0.2-1.4,0-1.8,0.4c-0.2,0.2-0.4,0.4-0.5,0.7c-2.4,6.1-5.2,13-8.2,20.3c-3.6,8.8-7.3,17.9-10.9,27.3
		c-6,15.3-10.7,28.4-14.1,39.3c3.1-13,6.2-24.5,9.6-35.7c2.8-9.3,5.8-18.5,9-27.5c2.9-8.3,6-16.4,9.3-24.2c2-5,4.2-10,6.4-14.9
		c3-6.6,6.1-13.1,9.3-19.5c0.2-0.5,0.3-1,0.1-1.5c-0.2-0.5-0.6-0.9-1-1.1c-0.7-0.3-1.6-0.2-2.2,0.3c-0.1,0.1-0.3,0.3-0.3,0.5
		c-4.5,8.7-9.2,17.4-14.1,25.7c-2,3.5-4.4,7.5-7,11.7c-7.1,11.8-15.9,26.4-23.6,41.7c-5.5,10.5-10,21.9-13.6,31
		c-2,5.2-3.9,10-5.4,14.2c-0.2,0.6-0.4,1.1-0.6,1.7c1.5-5.4,3.2-11.1,5-17l0.5-1.7c0.5-1.4,0.9-2.9,1.4-4.3c2.1-6.7,4.2-13.5,7-20.5
		c2.6-6.6,5.5-13.3,8.7-19.9c0.1-0.2,0.2-0.4,0.3-0.6c5.2-10.8,11-21.5,17.5-32c0.1-0.2,0.2-0.4,0.4-0.6c1.4-2.3,3-4.9,5-7.8
		c0.5-0.8,0.3-2-0.5-2.6c-0.7-0.6-1.8-0.6-2.5,0.1l-0.1,0.1c-1.3,1.5-2.6,2.9-4,4.4c-4.4,4.8-10.1,10.6-16.2,16.7
		c-8,8.1-17,17.3-25.7,26.8c-17.2,18.8-30.4,36.1-37.1,48.8c-3.7,6.9-8.9,17.6-14.7,30.2c-5.1,11.1-11.7,25.6-17.2,39.4
		c-1.2,3.1-2.4,6.1-3.5,9v0.1c-1.3,3.4-2.4,6.7-3.4,9.8c-0.6,2-1.2,3.9-1.8,5.7c-0.3,1.1-0.7,2.1-1,3.1c0.8-3,1.7-6.2,2.6-9.4
		c0.2-0.7,0.5-1.5,0.7-2.2c2.5-8,5.9-17.1,10.1-27c3.7-8.7,7.7-17.6,11.6-26.1l2.1-4.7c4.7-10.2,10.2-22.2,17-35.1
		c7.3-13.8,14.6-26.1,22.2-37.3c0,0,0.1-0.1,0.1-0.2c1.1-1.6,2.2-3.2,3.3-4.8c0.8-1.1,1.6-2.3,2.4-3.4c1.7-2.3,3.4-4.6,5.2-7
		c0.6-0.8,0.5-1.9-0.3-2.6c-0.7-0.7-1.9-0.7-2.6,0l0,0c-2.9,2.7-5.3,5-7.4,7.1c-7.3,7.3-15,16.1-22.8,26c-7,9-12.7,16.9-16.8,23.5
		l-2.8,4.6c-3.9,6.4-9.3,15.1-15.2,24.5c-7,11.1-15.7,24.1-24.4,36.7l-0.2,0.3c-4.1,5.9-7.9,11.4-11.6,16.5c1-1.5,5.1-7.4,5.1-7.4
		c10.2-14.9,21.7-31.7,31.7-48c6.2-9.9,13-21.4,20.5-34.2l0.4-0.6c3.7-6.4,7.6-13.1,11.9-20.1c3.5-5.7,8.1-13,13.7-20.6
		c0.4-0.6,0.9-1.2,1.3-1.8c5.5-7.3,11.9-14.8,19.1-22.1c2.6-2.7,5.4-5.4,8.3-8.2c1.3-1.3,2.7-2.6,4.1-3.9c0,0,1.7-1.6,1.8-1.6
		c0.7-0.6,0.8-1.7,0.3-2.5s-1.6-1.1-2.4-0.7c-3.3,1.5-6.8,3-10.5,4.6c-12.1,5.3-25.9,11.3-39.2,18.9c-16,9-31.6,20.1-42.8,30.4
		c-2.9,2.6-5.4,5.2-7.6,7.6c-3.5,3.9-6.7,7.6-9.7,11.3c-3.7,4.4-7.7,9.5-12,15c-5.7,7.3-11.9,15.4-17.9,23.2
		c-2.9,3.8-5.8,7.6-8.7,11.3l-3,4c-3.2,4.2-6.3,8.2-9.1,12.1c5.5-8,12.2-16.9,18.6-25.3l20.8-27.2c6.9-9,15.2-19.5,25.3-30.7
		c2.1-2.3,4.1-4.4,6.1-6.5c4.3-4.5,8.5-8.6,12.7-12.5c6-5.6,12.3-10.8,18.5-15.5c3.4-2.6,7.1-5.2,11.6-8.3c3.9-2.6,8.2-5.3,12.6-7.7
		c8.3-4.7,17.4-9.1,27.8-13.5c1.8-0.8,3.7-1.6,5.6-2.3c11.5-4.7,23.4-9,35.6-12.8c0.2-0.1,0.4-0.2,0.6-0.3l2.4-1.8l0.1-0.1
		c0.6-0.6,0.8-1.6,0.3-2.3c-0.5-0.9-1.5-1.2-2.4-0.8c-5.6,2.3-11.2,4.4-16.6,6.1c-7.4,2.4-17.2,5-27.5,7.6c-9.9,2.6-21.1,5.5-32,8.7
		c-13.1,4-23.2,7.5-31.8,11.2c-10.3,4.4-18.6,8.9-24.6,13.4l-5.1,3.9c-1.4,1.1-2.8,2.3-4.3,3.5l-1.8,1.5c-1.9,1.6-4,3.3-6.7,5.8
		l-0.7,0.7c-1,0.9-2,1.8-3.1,2.8s-2.2,2-3.3,3.1c-9.1,8.6-19.2,19.4-28.3,30.6c-4.4,5.4-8.5,10.7-12.1,15.4
		c-1.1,1.4-2.2,2.8-3.2,4.2c-1.9,2.5-3.7,4.9-5.4,6.9c2.5-3.7,5.2-7.7,8.1-11.9c10.9-15.6,26.3-33.3,41.3-47.5
		c1.9-1.8,3.8-3.7,5.9-5.5c1.3-1.2,2.5-2.3,3.7-3.4c6.5-5.8,12.9-11,19.5-15.7c12.9-9.4,27-17.7,42-24.7c9.1-4.3,18.8-8.1,28.9-11.6
		c6.6-2.3,13.4-4.3,20.3-6.2c0.3-0.1,0.5-0.2,0.7-0.4c0.5-0.5,0.7-1.2,0.5-1.9c-0.3-1-1.3-1.6-2.3-1.4c-7,1.5-14.5,3-22.3,4.5
		c-6.4,1.3-13,2.6-19.6,3.9c-14.4,3-25.6,5.5-35.3,8c-4.6,1.2-9.8,2.5-14.9,4.1c3.8-1.5,7.7-3.1,11.7-4.6c8.8-3.4,18.1-6.8,27.8-10
		c17.3-5.9,36-11.4,56.1-16.2c-2.4,0.2-4.9,0.3-7.4,0.5c2.7-0.6,5.4-1.3,8.2-1.9c0.3-0.1,0.6-0.2,0.8-0.4c0.5-0.4,0.7-1,0.6-1.7
		c-0.2-1-1.1-1.7-2-1.7l-3.7,0.2c-4.5,0.2-9,0.5-13.9,0.8c-10.7,0.7-22.5,2.5-33.6,4.2c-17.8,2.8-35.8,5.9-50,9.4
		c12.1-4.2,25.3-8.6,39.6-12.7c9.2-2.6,18.8-5.3,29.3-7.4c3.6-0.7,7.3-1.3,11-1.8c-2-0.1-4-0.1-6-0.2c2.2-0.4,4.5-0.7,7.3-1
		c0.4,0,0.7-0.2,1-0.5c0.4-0.4,0.6-0.9,0.6-1.5c-0.1-1-0.9-1.8-1.9-1.8c-10.6-0.5-20-0.7-28.5-0.7c-25.8-0.1-49.3,1.6-64.9,4.7
		c16.4-4,34.9-8.1,55.5-10.8c8.9-1.2,18.1-2.1,27.7-2.7c-0.9-0.2-1.9-0.3-2.9-0.5c1.4-0.1,2.8-0.2,4.1-0.2c0.5,0,0.9-0.2,1.2-0.5
		c0.3-0.3,0.6-0.8,0.6-1.3c0-1-0.6-1.8-1.6-2c-3.4-0.7-6.8-1.3-10.3-2c-12.8-2.4-27.9-5-41.1-6.5c10.9,0,22.7,0.3,35.2,1
		c7,0.4,14.2,1,21.6,1.7c-0.4-0.1-0.7-0.3-1.1-0.4c0.5,0.1,1.1,0.1,1.6,0.2c0.6,0.1,1.1-0.1,1.5-0.5c0.3-0.2,0.5-0.6,0.5-1
		c0.2-0.9-0.3-1.9-1.2-2.2c-3.5-1.4-6.6-2.5-9.4-3.6c-0.7-0.2-1.3-0.5-1.9-0.7c4.8,1.2,9.8,2.5,15,3.9c0.1,0,0.2,0,0.3,0.1
		c3,0.8,6.1,1.7,9.3,2.6c9.6,2.8,19.3,5.8,29,9l1.6,0.4c1.2,0.3,2.4,0.6,3.5,0.9l0.9,0.2c0.5,0.1,1.1,0,1.5-0.3c0,0,0.1,0,0.1-0.1
		l0.1-0.1c0.2-0.1,0.3-0.3,0.4-0.5c0.4-0.8,0.2-1.8-0.5-2.3l-1.5-1.3c-0.1-0.1-0.2-0.1-0.3-0.2c-3.2-1.9-6.6-3.9-10.2-6.1
		c-6.3-3.8-13.1-7.8-19.5-11.4c2.8,1.2,5.6,2.4,8.6,3.8c0.7,0.3,1.5,0.2,2.1-0.3c0.1-0.1,0.2-0.2,0.3-0.4c0.5-0.8,0.3-1.8-0.4-2.5
		c-6.1-5.4-13.3-11.5-20-16.5c7.2,4.4,14,8.8,20.7,13.4c2,1.4,4.1,2.9,6.2,4.4c0.7,0.5,1.7,0.5,2.4-0.1c0.1-0.1,0.1-0.1,0.2-0.2
		c0.6-0.7,0.6-1.9-0.1-2.6c-1.7-1.7-3.3-3.4-4.9-5c-0.6-0.6-1.2-1.2-1.8-1.9l1.7,1.4c2.6,2.1,5.2,4.4,8,6.6c4,3.2,8,6.1,12.3,8.8
		c2.1,1.3,4.2,2.7,6.5,4l2.8,1.7c0.7,0.5,1.7,0.4,2.3-0.2l0.1-0.1c0.1-0.1,0.3-0.3,0.3-0.5c0-0.1,0-0.2,0.1-0.2
		c0.2-0.6,0.1-1.2-0.3-1.7c-3.3-4.7-7.1-10.2-11.6-17.2c0,0-2.3-3.5-3.2-4.9c0.7,0.9,1.4,1.7,2.2,2.7c4.3,5.3,8.6,10.9,12.7,16.5
		c0.6,0.8,1.6,1.1,2.5,0.6c0.1-0.1,0.3-0.2,0.4-0.3c0.4-0.3,0.6-0.8,0.6-1.3c0-0.3,0-0.5-0.1-0.8l-0.7-1.8
		c-1.4-3.5-2.9-7.1-4.4-10.7c-1.7-4.1-3.7-9-6-13.8c0.4,0.6,0.8,1.3,1.2,2c1.7,2.8,3.3,5.7,5,8.7c5.2,9.3,9.5,18.1,13.1,26.9
		c1,2.3,1.9,4.7,2.8,7.1c0.1,0.4,0.4,0.7,0.7,0.9l0.8,0.6c0.3,0.2,0.7,0.4,1,0.7c2.5,1.8,4.9,3.7,7.4,5.6c0.7,0.5,1.3,1,1.9,1.5
		c0.2,0.2,0.5,0.3,0.8,0.4l1.4,0.4c1.7,0.5,3.3,0.9,5,1.3l0.7,0.2c0.3,0.1,0.7,0.1,1,0l0.4-0.1c0.3-0.1,0.5-0.2,0.7-0.4
		c0.1-0.1,0.1-0.1,0.1-0.2c0.1,0,0.1,0,0.2,0c0.3-0.1,0.7-0.2,1.1-0.2c0.6-0.1,1.1-0.2,1.6-0.3c0.1,0,0.2,0,0.2-0.1
		c3.3-1,6.7-1.8,10.2-2.6c0.5-0.1,1.1-0.2,1.7-0.4c0.1,0,0.2,0,0.3-0.1c4-0.9,8.8-1.8,13.9-2.7c5.1-0.9,10.4-1.9,15.7-3
		c4.9-1,10.9-2.3,16.8-3.8c-4,1.5-8.6,3.2-13.5,4.8c-3.2,1-6.4,2-9.5,2.9c-0.3,0.1-0.5,0.2-0.7,0.4c-0.4,0.4-0.7,1-0.6,1.7
		c0.1,0.9,1,1.7,1.9,1.7s1.9,0.1,2.8,0.1c0.1,0,0.3,0,0.4,0c3.3-0.6,6.6-1.1,10-1.7l2.4-0.4c8.8-1.5,17.4-2.9,24.7-4.6
		c-4.4,1.5-9,3-13.8,4.5c-0.3,0.1-0.5,0.2-0.7,0.4c-0.4,0.4-0.7,1-0.6,1.7c0.1,0.9,0.9,1.6,1.8,1.7c6,0.4,10.6,0.7,14.9,0.9
		c9.7,0.5,18.6,0.5,26.1,0.1c-6.9,1.1-14.5,2.1-22.5,2.7c-3.2,0.2-6.5,0.4-9.8,0.5c-0.5,0-0.9,0.2-1.2,0.5c-0.3,0.3-0.5,0.7-0.6,1.2
		c-0.1,1,0.6,1.8,1.5,2.1l3,0.8c11.2,2.9,21.5,5.6,30.3,7.3c-8.4-0.7-17.5-1.8-27.1-3.2c-12.2-1.8-25.2-4-38.8-6.8l-6.7-1.4
		c-0.3-0.1-0.5-0.1-0.8,0l-0.8,0.2c-0.3,0.1-0.6,0.2-0.8,0.5C1517.3,135.2,1517.1,135.7,1517.1,136.2z"/>
	<path class="st4" d="M1468,130.4c-6.9-2.3-13.3-5.8-19.4-9.7c-10.9-6.9-20.8-15.3-32-21.8c-1.6-0.9-3.3-1.8-5-2.6
		c-5.9-5.1-11.8-10.1-17.4-14.4c4.7,2.7,9.2,5.8,13.7,8.9C1427.6,104.5,1447.7,117.7,1468,130.4z"/>
	<path class="st5" d="M1435.7,87.1c7.1,7.5,13.3,16.1,19.4,24.4c3.5,4.8,7,9.5,10.4,14.3c-7.3-7.7-15.3-14.6-22.6-22.3
		c1.9,1.2,3.9,2.4,5.9,3.6c0.1,0.1,0.3,0.2,0.4,0.3c-0.1-0.2-0.2-0.3-0.3-0.5c-3.5-5-7.6-11.2-11.5-17.3
		C1436.8,88.7,1436.2,87.9,1435.7,87.1z"/>
	<path class="st4" d="M1447.2,88.6c0.3,0.4,0.5,0.7,0.8,1.1c2.2,3.5,4.1,7.2,6,10.9c1.8,3.6,3.6,7.3,5.6,10.8
		c1.4,2.4,5.6,6.8,5.3,9.5c-6.6-6.3-11.6-15-15.9-23.8c1,1.4,2,2.7,3.1,4.2c0.2,0.2,0.3,0.5,0.5,0.7c-1.6-4.2-3.4-8.6-5.1-12.9
		C1447.4,88.9,1447.3,88.7,1447.2,88.6z"/>
	<path class="st4" d="M1464.8,133.1c-21.7-7-43.3-14.1-65-21.1c-5.1-1.6-10.2-3.3-15.4-4.7c-1.4-0.4-3-0.7-4.6-1
		c0.7,0.1,1.4,0.1,2.2,0.2c-0.4-0.1-0.7-0.3-1.1-0.4c-2.6-1-5.2-1.9-7.6-2.8c4.9-0.3,10.3,1.5,14.8,2.9
		C1414,114.2,1440,122,1464.8,133.1z"/>
	<path class="st4" d="M1455.6,136.3c-8.1-2.1-16.1-4.2-24.2-6.3c-14.4-3.6-28.8-6.9-43.4-9.4c-6.3-1.1-13-2.4-19.8-3.3
		c2.2-0.2,4.5-0.3,6.8-0.5c-0.9-0.2-1.9-0.3-2.9-0.5c-2.2-0.4-4.5-0.8-6.8-1.2c1.3,0,2.6,0.1,4,0.2c8.1,0.8,16.1,2.3,24.1,3.9
		C1414.6,123.4,1435.9,127.7,1455.6,136.3z"/>
	<path class="st5" d="M1451,140.8c-24.7-6.7-50.3-10.3-75.9-10.9c-2,0-4.5-0.2-6.1,0.9c1.9,3.2,15,1.3,18.7,1.5
		c7.1,0.3,14.2,1,21.3,1.8C1422.8,135.8,1437.6,137.2,1451,140.8z"/>
	<path class="st4" d="M1484.1,143.8c-1.3,4.6-1.5,9.5-1.5,14.3c-0.2,16.2,1.2,32.3,3.3,48.3c1.1,8,2.3,16,3.6,24c0.7,4,1.4,8,2.1,12
		c0.5,2.7,0.4,7.1,2.2,9.2c-3-28.1-7.2-56-8.7-84.3c-0.2-3.9-0.4-7.8-0.6-11.7C1484.3,152.2,1483.2,147.1,1484.1,143.8z"/>
	<path class="st4" d="M1482.5,136.1c7.8,17.1,23.7,44.3,34.6,59.6c3.2,4.5,7.8,10.1,10,15.8c-2.2-2.9-4.3-5.9-6.5-9
		c-3.7-5.3-7.4-10.9-11-16.5c2.1,4,4.1,8.3,5.9,12.7c0.2,0.4,0.4,0.9,0.6,1.4C1505,183.6,1488.9,154.2,1482.5,136.1z"/>
	<path class="st4" d="M1451.4,237.5c1.4-9.2,3-18.6,5.1-28.2c-1.1,2.7-2.3,5.6-3.6,8.7c0.7-3.8,1.5-7.6,2.4-11.3
		c2.7-10.4,23.3-60.7,27.2-70.6C1474.8,155.4,1457.2,217.7,1451.4,237.5z"/>
	<path class="st4" d="M1522.7,146.7c-0.1,0.7-0.4,1.4-0.8,2.2c-1-0.4-2.1-0.5-3.2-0.4c-1.9-0.6-3.8-1.2-5.7-1.7
		c-5.1-1.4-13.1-0.8-17.4-3.8C1504.3,142.2,1513.9,144,1522.7,146.7z"/>
	<path class="st5" d="M1543.8,154.8c-1.3-0.5-2.7-0.9-4-1.4c-5.5-2-11-4.3-16.6-6.5c3.4,1,6.7,2.2,9.8,3.3
		C1536.6,151.6,1540.2,153.2,1543.8,154.8z"/>
	<path class="st4" d="M1536.5,140.7c3.9,1.2,8.5,2.8,13.4,4.6c-7-1.9-14.2-3.5-21.4-4.8c-8.6-1.6-18-1.9-26.4-4.4
		c16.9-0.8,34.2,1.3,50.5,6.1c-6.8-1.1-13.7-2.3-20.9-3.6c-2.3-0.4-4.6-0.9-7-1.4c-0.3,0.1-0.6,0.1-0.9,0.2
		C1528,138.3,1532.2,139.4,1536.5,140.7z"/>
	<path class="st5" d="M1408.4,202.3c16.5-16.9,35-31.7,53.5-46.5c3.7-2.9,7.4-5.9,11-8.8c-26,15.8-49.5,35.7-69.3,58.7
		c-6.9,8-13.3,16.3-19.7,24.6c-5.6,7.2-9.8,14.7-14.3,22.5c0.3-3.8,5.6-9.6,7.9-12.8c3.1-4.5,6.3-8.8,9.6-13.1
		C1393.7,218.3,1400.9,210.1,1408.4,202.3z"/>
	<path class="st4" d="M1482.5,136.1c-6.7,9.4-35.6,46.1-42,55.7c-6.2,9.2-13.5,18.4-18.5,28.3c4.2-10.7,9.8-20.7,16.4-30
		C1445.1,180.7,1475.8,145.5,1482.5,136.1z"/>
	<path class="st5" d="M1464.4,148.9c-8.2,0.8-16.3,1.8-24.4,3c-14.3,2.2-28.5,5.1-42.6,8.5c-1,0.3-2.1,0.5-3.1,0.8
		c-0.3,0.1-0.6,0.1-0.9,0.2c-3.5,0.8-7.1,1.6-10.8,2.3c-6.7,1.4-13.7,2.9-20.6,4.4c9.9-6.3,22.7-9,33.6-11.2
		C1418.4,152.4,1441.4,149.7,1464.4,148.9z"/>
	<path class="st4" d="M1451.4,145.2c-9.4-0.7-18.6-3-28.1-3.3c-9.7-0.3-19.4,0.3-28.9,1.7c-4.5,0.7-9.6,1.1-13.9,2.7
		c-6.7,2.5,2,1.9,4.7,1.5c10.3-1.5,20.7-2.5,31.2-3C1428,144.2,1439.7,144.4,1451.4,145.2z"/>
	<path class="st4" d="M1406.6,172c12.5-4.5,25.6-7.1,38.7-9.2c-1.5,0.4-3.1,1.1-4.6,1.7l0,0c-0.9,0.4-1.8,0.7-2.5,1
		c-0.3,0.1-0.6,0.2-1,0.3c-0.1,0-0.1,0-0.2,0.1c-3,0.9-5.9,1.9-8.9,2.9c-6.9,2.3-13.8,4.6-20.7,7c-0.2,0.1-0.5,0.2-0.7,0.2
		c-1.3,0.4-2.6,0.7-3.9,1.1c-6.2,1.7-13,3.5-19.9,5.5C1390.7,178.7,1398.5,174.9,1406.6,172z"/>
	<path class="st5" d="M1448.2,162.3c-1,0.1-1.9,0.3-2.9,0.5C1446.4,162.4,1447.4,162.2,1448.2,162.3z"/>
	<path class="st4" d="M1429.6,174c-3.7,0.8-8.9,6-12,8.3c-4,2.9-8,6-11.8,9.2c-2.2,1.8-4.4,3.7-6.6,5.6l0,0l0,0l0,0
		c-2.5,1.1-5,2.2-7.7,3.4c3.6-4.1,7.6-7.9,11.4-11.4C1410.4,182,1419.5,176.1,1429.6,174z"/>
	<path class="st4" d="M1541.8,191.8c-3.2-2.6-6.4-5.4-9.6-8.2c2.3,2.8,4.7,5.9,7.2,9.1c1.6,2.1,3.3,4.3,5,6.6
		c-4.9-3.8-9.8-7.7-14.3-11.9c-3-2.7-5.7-5.7-8.5-8.7c-9.9-10.9-19.9-21.8-29.8-32.8c16,9.7,28.9,23.6,41.6,37.3
		C1534.4,184.4,1538.1,187.9,1541.8,191.8z"/>
	<path class="st5" d="M1479.1,143.6c-0.9,5.4-2.6,10.6-4.7,15.6c-1,2.4-4,11.5-6.6,11.5c-0.8-3.4,3.2-10.2,4.6-13.4
		C1474.4,152.6,1476.6,148.1,1479.1,143.6z"/>
	<path class="st5" d="M1491.3,133c2.9-0.4,5.8-0.6,8.7-0.9c10.5-1,20.8-2.7,31-5.2c-12.6,0.7-25.1,2.5-37.4,5.5
		c-4.3,1-8.6,2-12.8,2.8C1484.4,134.6,1487.8,133.6,1491.3,133z"/>
	<path class="st5" d="M1478.2,138.5c-2.7-0.2-5.3-0.3-8-0.5c-3.9-0.2-8.8-0.9-12.4,0.6C1459.4,142,1474.8,139.1,1478.2,138.5z"/>
	<g class="st6">
		<path class="st1" d="M1530.5,252.7c-0.3,0.1-2.3-4.5-5.1-11c-2.8-6.5-6.3-14.8-9.8-22.3c-1.7-3.7-3.8-8.2-6.2-13.2
			c-2.5-5-5.1-10.6-8.1-16.7c-2.9-6.1-6-12.7-8.6-20.1c-1.3-3.7-9.4-29.1-10.4-33.2c-0.4-2,0.3,2.1,0,0s0.3,2.1,0,0c0,0-0.1-0.3,0,0
			s-0.2-0.5,0,0c0.5,1-0.8-1.8,0,0c1.5,3.5,11.5,23,13.6,28.4c2,5.4,4.9,13.6,7.8,21.8c2.9,8.2,5.6,16.4,8.1,21.7
			c2.4,5.3,7.5,16.4,11.7,26.2c1,2.5,2,4.8,3,7c0.9,2.2,1.7,4.2,2.3,5.9c0.6,1.7,1.2,3.1,1.4,4.1
			C1530.5,252.1,1530.6,252.7,1530.5,252.7z"/>
	</g>
	<g class="st6">
		<path class="st7" d="M1556.1,240.9c-4-5.4-8.5-11.3-12.4-16.6c-4.1-5.6-8.5-11.4-12.8-17.2c-5.4-7.3-11.2-15.1-16.8-22.9
			c-5.7-7.8-10.9-15.9-15.7-23.5c-4.8-7.5-11.8-18.5-15.7-24.6c2.9,3.4,8.1,11,11.1,15.5c5.2,7.7,11.1,16.4,16.2,24.1
			c2.9,4.3,6,8.4,9,12.6s6,8.3,9,12.6c6.6,9.4,13.1,18.7,19.7,28c2.2,3.1,8.1,11.2,9.1,13C1556,240.8,1555,239.5,1556.1,240.9z"/>
	</g>
	<g class="st6">
		<path class="st7" d="M1569.3,236.4c-4.5-5.4-9.6-11.1-14.1-16.2c-4.7-5.5-9.6-11.2-14.5-16.9c-12.3-14.3-26-30.4-38.1-44.6
			c-6.1-7-15-17.2-19.9-22.8c3.6,3,10.2,9.8,14.1,13.9c6.6,6.9,14.1,15,20.3,22.3c7.1,8.2,13.8,16.1,20.7,24.5
			c7.6,9.2,14.7,18.6,22.1,27.8c2.5,3.1,9.1,11.1,10.2,12.8C1569.2,236.3,1568,235.1,1569.3,236.4z"/>
	</g>
	<g class="st6">
		<path class="st7" d="M1609.1,203.5c-3.3-1.9-6.7-3.9-10.3-5.6c-3.5-1.7-7.2-3.1-10.6-4.4c-7.4-2.8-14.2-7.7-21.1-11.8
			c-17.4-10.6-37.5-21.6-55.3-31c-8.8-4.7-22-11.2-29.2-14.8c4.9,1.5,14.2,5.6,19.8,8.2c9.5,4.3,20.1,9.5,29.3,14.4
			c10.3,5.5,20.1,11.1,30.2,17.3c5.5,3.4,10.9,7,16.1,10.6c2.6,1.8,5.3,3.5,8.2,4.8c2.8,1.4,5.8,2.6,8.7,4c1.9,0.9,5.4,2.7,8.6,4.5
			c3.1,1.8,6,3.7,6.8,4.4C1609,203.5,1607.4,202.6,1609.1,203.5z"/>
	</g>
	<g class="st6">
		<path class="st7" d="M1483.7,136.2c7.1,1.1,14.9,3,21.7,4.5c3.6,0.8,7.3,1.6,11.1,2.2c3.8,0.5,7.7,1.1,11.5,1.6
			c9.7,1.3,19.7,4.7,29.4,8c4.9,1.8,9.7,3.6,14.5,5.3c4.7,1.8,9.1,4,13.7,5.2c4.6,1.3,10.3,2.5,15.8,3.9s10.7,2.7,14.4,3.8
			c-4.8-0.7-14.3-2.7-20-3.8c-4.8-1-10.1-1.9-15.2-3.6c-5-1.9-9.9-3.9-14.6-5.5c-10.4-3.7-20.5-7.4-31.3-10.1
			c-2.9-0.8-6-1.2-8.9-1.8c-3-0.5-6-1-9-1.6c-6-1.1-11.9-2.8-17.7-4.4c-2-0.5-5.5-1.5-8.9-2.2c-3.4-0.8-6.5-1.4-7.6-1.6
			C1483.8,136.2,1485.5,136.4,1483.7,136.2z"/>
	</g>
	<g class="st6">
		<path class="st7" d="M1502,272.4c-0.9-7.2-2.2-15.1-3.3-22c-1-7.4-2.1-15.1-3.2-22.9c-1.4-9.7-2.4-20-4.5-30.2
			c-2-10.2-4.2-20.3-5.9-29.8c-0.8-4.7-1.7-10.6-2.2-16.3c-0.5-5.7-0.5-11.2-0.2-15c0.1,1.2,0.2,2.7,0.3,4.4
			c0.2,1.7,0.3,3.5,0.5,5.4c0.4,3.8,0.9,7.6,1.4,10.5c1.6,9.8,4.2,20.8,6.3,30.6c1.2,5.5,2.3,10.9,3.2,16.4c1,5.5,1.5,11,2.2,16.6
			c1.4,12.3,2.5,24.4,3.9,36.6c0.5,4.1,1.8,14.8,1.8,16.9C1501.9,272.2,1501.7,270.5,1502,272.4z"/>
	</g>
	<g class="st6">
		<path class="st7" d="M1497.3,315.6c-1.8-9.3-3.9-19.6-5.5-28.7c-1.6-9.7-3.1-19.8-4.3-30c-1.5-12.7-2.9-26.3-3.8-39.9
			s-1.5-27.1-1.7-39.8c-0.1-6.3-0.2-14.1,0-21.5c0.1-3.7,0.1-7.4,0.3-10.7c0.1-3.4,0.4-6.4,0.5-8.9c0.5,6.4,0.5,19.1,0.8,26.9
			c0.4,13,1.2,27.8,1.9,40.8c0.9,14.7,2,28.7,3.4,43.4c0.7,8.1,1.5,16.1,2.4,24c0.9,8,1.8,15.9,3,23.8c0.4,2.6,1.2,7.5,1.9,12
			c0.8,4.5,1.4,8.7,1.5,10.1C1497.2,315.4,1496.7,313.2,1497.3,315.6z"/>
	</g>
	<g class="st6">
		<path class="st7" d="M1478.8,305c-0.1-8.9-0.5-18.7-0.7-27.4c-0.2-9.2-0.4-18.8-0.5-28.4c-0.1-12-0.2-24.8-0.3-37.5
			c-0.1-12.7-0.1-25.5,0.5-37.3c0.3-5.9,0.8-13.2,1.6-20.1c0.8-7,2.2-13.5,3.4-18.1c-0.2,1.5-0.4,3.3-0.7,5.4
			c-0.2,2.1-0.5,4.3-0.8,6.6c-0.5,4.6-0.9,9.4-1,13c-0.7,12.1-0.6,26.1-0.5,38.3c0.1,13.8,0.4,27,0.3,40.9
			c-0.1,15.2-0.5,30.2-0.7,45.2c0,5,0,18.3-0.3,20.9C1478.8,304.8,1478.7,302.7,1478.8,305z"/>
	</g>
	<g class="st6">
		<path class="st7" d="M1469.4,359.1c-2.2-11.7-4.8-24.5-6.6-35.9c-1.8-12.1-3.1-24.9-3.3-37.8c-0.4-16.1,1.6-33.2,4-50
			c2.5-16.8,5.5-33.5,8.5-49c3-15.4,7.7-38,10.8-50.3c-0.8,7.9-3.7,23.6-5.3,33.2c-2.7,16-5.7,34.4-8.4,50.4
			c-1.5,9.1-2.8,17.9-3.9,26.9c-1.1,8.9-2.1,17.8-2.6,27c-0.5,10-0.5,20,0.1,30c0.5,10,1.6,19.9,2.9,29.8c0.9,6.6,4,24,4.2,27.5
			C1469.3,358.9,1468.7,356.1,1469.4,359.1z"/>
	</g>
	<g class="st6">
		<path class="st7" d="M1447.7,347.8c0.4-11.3,0.5-23.9,0.8-34.8c0.3-11.7,0.4-23.9,1.4-36.1c1.8-15.3,4.3-31.3,7.1-47.4
			c3.3-16,7.6-31.6,11.7-46.1s10.4-35.6,14.1-47.1c-1.4,7.5-5.4,22.2-7.7,31.2c-3.9,15-8.3,32.3-11.9,47.4c-2,8.6-3.8,16.9-5.1,25.4
			c-1.3,8.5-2.8,17-4.1,25.7c-0.7,4.8-1.4,9.5-2.1,14.3c-0.3,4.8-0.7,9.5-1,14.3c-0.6,9.6-1.1,19.1-1.7,28.7
			c-0.3,6.4-1,23.3-1.5,26.6C1447.7,347.6,1447.8,344.8,1447.7,347.8z"/>
	</g>
	<g class="st6">
		<path class="st7" d="M1400.8,387c2.6-13.7,5.4-28.8,8.4-42c3.2-14,6.9-28.6,11-43c2.5-9.1,5.4-18.3,8.3-27.7
			c1.5-4.7,3-9.4,4.6-14.1c1.6-4.7,3.2-9.4,4.8-14.1c6.5-18.8,13.5-37.4,20.5-54.6c6.8-17.1,17.6-41.9,24.3-55.2
			c-3.2,8.8-10.4,26-14.4,36.7c-6.9,17.7-14.5,38.2-20.9,56.1c-7.2,20.3-13.7,39.9-20.1,60.6c-3.5,11.3-7,22.6-10.2,33.9
			c-1.7,5.6-3.2,11.3-4.8,16.9c-1.5,5.7-3,11.3-4.4,17c-0.9,3.8-2.5,10.8-3.9,17.3s-2.7,12.6-3.4,14.5
			C1400.9,386.7,1401.4,383.4,1400.8,387z"/>
	</g>
	<g class="st6">
		<path class="st7" d="M1359.3,435.6c2.8-8.1,4.8-17,6.6-25.7c1.7-8.8,3.1-17.6,4.7-25.8c3.3-17.4,7.5-35.6,12.8-53.4
			c6.6-22.3,15-45.7,24.9-68.3c9.9-22.6,21.1-44.5,32.8-64.3c5.7-9.9,13.2-21.8,20.7-33c3.8-5.6,7.7-11,11.2-15.9
			c3.7-4.9,7.1-9.2,9.9-12.9c-1.5,2.5-3.5,5.5-5.7,8.8c-1.1,1.7-2.3,3.4-3.5,5.2c-1.2,1.8-2.4,3.7-3.6,5.6
			c-5,7.5-9.8,15.4-13.5,21.4c-12.2,20.1-24.8,43.9-34.9,65.1c-11.4,24-21,47.6-29.8,72.8c-4.7,13.9-9.1,27.7-12.8,41.7
			c-3.9,14-6.9,28.1-9.8,42.4c-1,4.8-2.7,13.4-4.8,21.4c-2.1,8-4.7,15.2-5.9,17.5C1359.4,435.3,1360.6,431.3,1359.3,435.6z"/>
	</g>
	<g class="st6">
		<path class="st7" d="M1304.8,405.5c4.4-17.1,10.1-35.8,16.3-51.8c3.3-8.5,7-17.1,11-25.6c2-4.3,4.1-8.5,6.3-12.8
			c1.1-2.1,2.2-4.2,3.3-6.3c1.1-2.1,2.4-4.1,3.6-6.2c6-10.3,12.1-21,18.6-31.7c6.4-10.7,13-21.5,20.4-31.9
			c3.6-5.2,7.4-10.3,11.4-15.2c4-4.9,8.3-9.5,12.4-14.1c8.2-9.4,16.9-18,25.3-26.2s18.8-18.1,28.9-27.6c5-4.8,9.9-9.5,14.3-13.9
			c2.2-2.2,4.3-4.3,6.3-6.3l0.7-0.7l0.4-0.4l0.1-0.1c0.1,0.1-0.6-0.5-0.3-0.3l0,0l0,0l0,0l-0.2,0.2c-0.5,0.5-0.9,0.9-1.4,1.4
			c-0.2,0.2-0.5,0.5-0.7,0.7l-0.3,0.3l-0.2,0.2l0,0c-0.5-0.5,0.7,0.7,0.6,0.5l0,0l0,0l0.1-0.1c0.4-0.4,0.9-0.9,1.3-1.3
			c-0.2,0.3-0.5,0.6-0.7,0.9l-0.4,0.5l-0.1,0.1v0.1l0,0l0,0c-0.4-0.4,0.9,0.8-0.9-0.8l0,0l0.2-0.2c0.5-0.6,1.1-1.3,1.7-2l0.4-0.5
			l0.2-0.3l0,0l0,0l0,0c0.5,0.5-1.2-1.1,1.2,1.1l-0.1,0.1l-0.1,0.1c-0.3,0.4-0.6,0.7-0.9,1.1c-0.6,0.7-1.3,1.5-2,2.3
			c-2.7,3.1-5.8,6.5-8.9,9.8c-6.3,6.7-13.1,13.5-18.1,18.6c-4.3,4.3-8.7,8.7-13.2,13.2s-9,9.1-13.5,13.8c-4.5,4.7-8.9,9.4-13.1,14.1
			c-4.2,4.8-8.3,9.5-12.2,14c-8.8,10.3-16.3,21.3-23.6,32.5c-7.3,11.2-14.3,22.6-21.4,34.4c-3.9,6.4-7.8,12.8-11.6,19.2
			c-3.8,6.5-7.2,13-10.6,19.6c-6.7,13.3-12.8,26.9-18,40.8c-1.8,4.7-4.7,13.2-7.2,21.3c-2.6,8.1-4.6,15.7-5.6,18.1
			C1304.9,405.1,1305.9,401,1304.8,405.5z"/>
	</g>
	<g class="st6">
		<path class="st7" d="M1294.9,350.4c7.3-13.2,15.4-27.9,23-40.4c8.1-13.3,17.1-27,26.6-40.3c6-8.3,12.3-16.7,19-25.2
			c6.7-8.4,13.7-16.6,21-24.7c14.6-16.1,30.4-31,45.8-44c7.7-6.5,17.3-14.3,26.8-21.4s18.9-13.6,25.7-18c-7.9,6.4-24,18.7-33.4,26.7
			c-15.9,13.2-33.4,29.2-47.9,44c-16.4,16.6-30.7,33.9-45.2,52.3c-15.7,20.4-30.5,41.1-44,62.7c-2.3,3.6-6.3,10.3-9.9,16.5
			c-3.7,6.2-7.1,12.1-8.4,13.9C1295,350.1,1296.7,346.9,1294.9,350.4z"/>
	</g>
	<g class="st6">
		<path class="st7" d="M1329.1,227.3c4.2-1.9,8.1-5.2,11.7-8.4c3.6-3.3,7.5-6.4,11.3-9c4-2.8,8.3-5.3,12.6-7.9
			c4.3-2.5,8.7-5.1,13.1-7.6c22-12.7,46.9-26.8,68.9-38.8c10.9-6,27-14.7,36-19.2c-5.2,3.5-16.2,9.8-22.8,13.7
			c-11.1,6.5-23.9,14-35.1,20.3c-12.7,7.2-24.9,14-37.6,21.2c-7,3.9-14,7.7-21,11.5s-13.9,7.6-20.2,12.4c-2.1,1.6-5.7,4.8-9.3,7.5
			c-1.8,1.4-3.6,2.6-5.2,3.4c-0.8,0.4-1.5,0.8-2.2,1c-0.4,0-0.6-0.2-0.8-0.4c-0.1-0.1-0.1-0.2-0.1-0.3c0.1-0.1,0.2,0,0.3,0
			c-0.1,0-0.3-0.1-0.2,0c0,0.1,0.1,0.2,0.2,0.3c0.2,0.1,0.3,0.3,0.5,0.3c0.3,0,0.7-0.3,0.9-0.4
			C1330.2,226.7,1330.1,226.8,1329.1,227.3z"/>
	</g>
	<g class="st6">
		<path class="st7" d="M1302,211.6c8.9-5.2,18.7-11.2,27.5-16c9.3-5.1,19.4-10.1,29.7-14.2c6.5-2.6,13.3-5.1,20.3-7.3
			c3.5-1.1,7-2.1,10.6-3s7.1-1.9,10.7-2.8c7.1-2,14.4-3.5,21.1-6c6.8-2.5,13.3-5.2,19.7-7.9c12.6-5.4,30.7-13.9,41-18
			c-6.1,3.2-18.6,9.3-26.2,13c-6.4,3.1-13.2,6.3-20.2,9.4s-14,6-20.9,8.1c-7.7,2.1-15.3,4.1-22.9,6.1c-7.6,1.9-15.1,4.2-22.7,6.8
			c-8.3,2.9-16.4,6.1-24.4,9.6s-15.7,7.4-23.4,11.5c-5.2,2.7-18.5,10.4-21.3,11.7C1302.2,211.5,1304.3,210.2,1302,211.6z"/>
	</g>
	<g class="st6">
		<path class="st7" d="M1329.9,169.3c-0.6-0.1-1.2-0.1-1.8-0.2l-0.9-0.1l0.9-0.1c7.9-1,16.1-3.4,23.3-5.8c8.2-2.7,16.7-5.9,25.4-8.7
			c5.4-1.8,11.1-3.4,17-4.6s11.8-2.1,17.8-2.9s12-1.2,17.8-2.1s11.5-2,17-3.1s12.2-2.6,18.7-3.6c6.5-1.1,12.9-1.7,17.4-1.7
			c-2.8,0.3-7,0.8-11.3,1.5s-8.8,1.6-12.1,2.3c-11.2,2.5-24.1,5.8-35.6,7.1c-13,1.4-25.4,2.9-38,6.2c-13.8,3.7-27.1,8.8-40.9,12.3
			c-3.5,1-11.7,2.8-16.3,3.1v-0.2c1.5,0.2,2.6,0.4,3.1,0.5C1329.7,169.2,1327.7,169.1,1329.9,169.3z"/>
	</g>
	<g class="st6">
		<path class="st7" d="M1340,146.8c7.2-2.4,15.2-5.1,22.3-6.9c3.8-1.1,7.7-1.9,11.7-2.8c4-0.7,8-1.6,12.1-2.2
			c10.1-1.6,21-2.8,31.9-3.2c10.9-0.4,21.8-0.2,31.9,0.5c5,0.3,11.2,0.9,17.1,1.7c5.9,0.7,11.6,1.8,15.5,2.5
			c-2.5-0.2-6.3-0.7-10.3-1.1c-3.9-0.4-8-0.9-11.1-1c-10.4-0.8-22.2-1.2-32.6-1.1c-11.7,0.1-23,0.9-34.7,2.3
			c-3.2,0.3-6.4,0.9-9.6,1.3c-3.2,0.5-6.3,1.1-9.5,1.6l-9.4,1.9l-9.3,2.2c-2.1,0.6-5.8,1.6-9.3,2.7s-6.7,2.1-7.8,2.3
			C1340.1,146.8,1341.8,146.2,1340,146.8z"/>
	</g>
	<g class="st6">
		<path class="st7" d="M1337.3,123.7c7.7-0.1,16.2-0.5,23.6-0.8c7.9-0.3,16.3-0.5,24.6,0.3c5.2,0.5,10.5,1.5,15.9,2.7
			c5.3,1.1,10.7,2.7,16,3.6c10.8,1.8,21.8,2.1,32,2.7c5.1,0.3,11.4,0.6,17.4,1.3c6,0.6,11.7,1.8,15.7,2.9c-5-1.1-15.3-2.3-21.6-2.5
			c-10.5-0.5-22.6-0.4-33.2-1.3c-6-0.5-11.8-1.3-17.5-2.8c-5.7-1.4-11.3-2.8-17.2-3.8c-6.4-1.2-12.9-1.8-19.3-2
			c-6.5-0.2-13-0.1-19.5-0.1c-4.3,0-15.8,0.2-18.1,0C1337.5,123.7,1339.4,123.6,1337.3,123.7z"/>
	</g>
	<g class="st6">
		<path class="st7" d="M1313.4,105.9c9,0.8,19.1,1.2,27.9,1.7c9.3,0.6,19.1,1.5,28.8,3.1c6.1,1.1,12.3,2.3,18.5,4.3
			c6.2,1.8,12.4,3.7,18.6,5.8c3.1,1,6.2,2,9.2,3c3,0.9,6.1,1.7,9.2,2.3c6.2,1.2,12.4,1.8,18.4,2.4c6,0.6,13.4,1.2,20.4,2.5
			c7,1.2,13.6,3.3,18,5.5c-2.9-1-7.2-2.5-11.8-3.5c-4.6-1-9.5-1.6-13.1-1.9c-12.3-1.2-26.7-1.2-39-4.5c-3.5-0.9-6.7-2-10.1-3.1
			c-3.3-1.1-6.6-2.1-9.9-3.2c-3.3-1-6.6-2-9.9-3c-1.7-0.5-3.3-1-5-1.5c-1.7-0.4-3.4-0.8-5.1-1.3c-15-3.5-30.2-5.1-45.5-6.5
			c-5.1-0.4-18.6-1.5-21.2-2.1C1313.6,105.9,1315.7,106,1313.4,105.9z"/>
	</g>
	<g class="st6">
		<path class="st7" d="M1372.1,102.2c6.1,0.8,12.7,1.8,18.5,3.2c6.1,1.4,12.5,3.4,18.6,5.7c3.9,1.4,7.8,3.2,11.7,4.9
			c3.9,1.7,8,3.4,12,5c8.1,3.3,16.2,6.3,23.9,8.8c3.8,1.2,8.6,2.7,13.2,3.8c4.6,1.2,9.1,2.1,12.4,2.6c-2-0.1-5.1-0.5-8.3-1.1
			c-3.1-0.6-6.4-1.3-8.8-1.9c-8.1-2-17.3-4.9-25.1-7.9c-8.9-3.3-17.2-6.9-25.9-10.8c-9.5-4.2-19.2-7.6-29.2-9.9
			c-3.3-0.9-12.3-2.3-14.1-2.6C1372.2,102.2,1373.7,102.4,1372.1,102.2z"/>
	</g>
	<g class="st6">
		<path class="st7" d="M1412.2,98.1c3.8,1.9,8,3.8,11.7,5.5c3.9,1.9,8,3.8,12.1,5.8c10.2,5,21.5,11,31.1,16.8
			c4.8,2.9,11.7,7.3,15.4,9.9c-2.5-1.4-7.3-4.4-10.3-6.1c-5-2.9-10.7-6.2-15.8-8.9c-5.7-3.1-11.3-6-17.1-9c-6.4-3.3-12.7-6.5-19-9.8
			c-2.1-1.1-7.7-3.8-8.8-4.5C1412.3,98.2,1413.2,98.6,1412.2,98.1z"/>
	</g>
	<g class="st6">
		<path class="st7" d="M1481.9,135.7c-3.1-2.7-6.7-5.5-9.8-8c-3.3-2.6-6.8-5.3-10.4-8c-8.8-6.7-19.1-13.8-28.1-20.1
			c-4.5-3.1-11.1-7.6-14.7-10.2c2.4,1.4,7.1,4.3,9.9,6.2c4.7,3,10.2,6.6,14.8,9.8c5.2,3.6,10.2,7.2,15.3,11.1
			c5.6,4.3,10.9,8.7,16.2,13.2c1.8,1.5,6.4,5.5,7.3,6.4C1481.8,135.7,1481.1,135.1,1481.9,135.7z"/>
	</g>
	<g class="st6">
		<path class="st7" d="M1438.4,86.7c1.2,3.4,3.6,6.5,5.8,9.2c2.3,2.8,4.9,5.7,7,9c1.3,2.1,2.4,4.3,3.5,6.6c1.1,2.2,2.2,4.6,3.6,6.6
			c3.1,3.9,7.6,6.6,11.6,9.1c2,1.2,4.5,2.7,6.8,4.3c2.3,1.6,4.4,3.3,5.7,4.7c-1.7-1.7-5.7-4.3-8.2-5.8c-4.2-2.5-9.2-5.1-13-8.3
			c-2.2-1.8-4.1-3.9-5.3-6.4c-1.3-2.4-2.4-4.9-3.7-7.3c-1.4-2.7-2.9-5.3-4.8-7.6c-1.8-2.4-3.7-4.7-5.5-7.2c-0.6-0.8-1.6-2.3-2.4-3.9
			c-0.8-1.5-1.3-3-1.4-3.6C1438.4,86.8,1438.7,87.6,1438.4,86.7z"/>
	</g>
	<g class="st6">
		<path class="st7" d="M1452,86.1c1.8,3.1,3.3,6.7,4.4,10c0.6,1.8,1.1,3.5,1.9,5.2c0.7,1.8,1,3.7,1.6,5.5c1.3,4.6,3.8,9,7.2,12.8
			c3.2,3.9,7.3,7,10.6,10.3c1.7,1.7,3.6,3.9,5.1,6.3l0.5,0.9l0.3,0.4v0.1l0,0c-0.1,0,0.2-0.1-0.2,0.1l0,0l0,0l0,0l-0.1-0.1l-0.1-0.2
			c-0.4-0.6-0.7-1.1-1-1.7c-0.2-0.3-0.3-0.5-0.5-0.8l-0.2-0.4c-0.1-0.1,0,0,0,0.1l0.1,0.2c0.3,0.5,0.6,0.9,0.8,1.3
			c-0.2-0.2-0.4-0.5-0.6-0.8c-0.1-0.1-0.2-0.3-0.3-0.5l-0.2-0.2l0,0l0,0l0,0c-0.2,0.1,0.3-0.2,0.3-0.2l0,0l0,0v0.1l0.1,0.1
			c0.5,0.7,1,1.4,1.5,2.2l0.4,0.6l0.1,0.1l0,0l0,0c-0.2,0.1,0.4-0.3-0.4,0.3l0,0l0,0l0,0v-0.1l-0.2-0.3c-0.3-0.4-0.5-0.8-0.8-1.1
			c-0.5-0.7-1-1.4-1.4-2c-3-3.8-7.5-7.2-11-10.6c-4-3.8-7.4-8.1-9.5-13.3c-0.6-1.4-1-2.9-1.4-4.4s-0.6-3-1.1-4.3
			c-1.1-2.8-1.8-5.7-2.8-8.6c-0.3-0.9-1-2.7-1.7-4.2c-0.7-1.6-1.5-2.9-1.7-3.4C1452.1,86.2,1452.5,86.9,1452,86.1z"/>
	</g>
	<g class="st6">
		<path class="st7" d="M1574.9,142.1c-4.8-1.2-10.1-2.3-14.8-3.4c-5-1.1-10.1-2.4-15.3-3.4c-6.5-1.3-13.5-2-20.5-2
			s-14.1-0.1-20.5,0.8c-3.2,0.4-7.2,1-11.1,1.5c-3.9,0.4-7.6,0.6-10.2,0.5c3.3-0.2,9.9-1,13.8-1.7c3.3-0.6,6.9-1.2,10.5-1.6
			s7.3-0.5,10.7-0.6c7.6-0.1,15-0.1,22.7,1.2c8.3,1.4,16.3,3.9,24.3,5.9c2.7,0.7,9.8,2.4,11.2,3
			C1574.7,142.1,1573.6,141.8,1574.9,142.1z"/>
	</g>
	<g class="st6">
		<path class="st7" d="M1575.5,133.6c-4.9-0.6-10.3-1-15.1-1.4c-5.1-0.4-10.4-0.8-15.7-1c-13.3-0.7-28.3-0.6-41.3,0.8
			c-6.5,0.6-15.9,2.5-21,4c1.6-0.5,3.9-1.4,6.4-2.1s5.1-1.3,7.1-1.7c6.7-1.4,14.4-2.2,21.2-2.6c7.7-0.4,15-0.3,22.7,0.1
			c8.4,0.4,16.7,1.3,25,2.3c2.8,0.3,10.1,1.2,11.5,1.5C1575.4,133.6,1574.3,133.5,1575.5,133.6z"/>
	</g>
	<g class="st6">
		<path class="st7" d="M1530.5,121.5c-2.8,1.2-5.9,2.4-8.7,3.3c-3,0.9-6.2,1.6-9.4,2.1c-1,0.2-2.1,0.3-3.1,0.4
			c-1.1,0.1-2.1,0.1-3.1,0.4c-2,0.6-4.1,1.3-6.1,2.1c-4,1.6-8.1,3.1-11.8,4.6c-1.9,0.7-4.2,1.6-6.5,2.2c-0.3,0.1-0.6,0.2-0.8,0.3
			c0,0,0-0.1-0.1-0.1l0.1-0.1l0,0h0.1h0.2h0.4c0.6-0.1,1.1-0.1,1.6-0.2c0.3,0,0.5-0.1,0.8-0.2c0.1,0,0.1,0,0.2-0.1
			c0.1,0,0.1-0.1,0-0.1s-0.2,0-0.4,0c-0.5,0-0.9,0-1.3,0c0.3,0,0.5-0.1,0.8-0.1c0.2,0,0.3,0,0.5,0h0.3c0,0,0.1,0,0.2,0
			c0,0,0-0.1,0.2,0.1c0,0.1-0.1,0.2-0.1,0.2c-0.7,0.3-1.5,0.4-2.3,0.6l-0.6,0.1h-0.3c-0.1,0-0.1,0.1-0.5-0.1c0,0-0.1-0.1-0.1-0.3
			c0.1-0.2,0.1-0.2,0.1-0.2l0.1-0.1l0.2-0.1l0.3-0.1l0.6-0.2c0.7-0.2,1.4-0.4,2-0.7c3.9-1.6,8.3-3.3,12.1-4.9
			c2.2-0.9,4.3-1.7,6.5-2.5c1.1-0.4,2.2-0.8,3.3-1.1c0.6-0.2,1.2-0.3,1.8-0.4l1.7-0.1c5.1-0.5,10.1-1.4,15-2.9
			c1.7-0.5,5.8-2.1,6.7-2.4C1530.4,121.5,1529.8,121.8,1530.5,121.5z"/>
	</g>
	<path class="st0" d="M1482.1,145.9c-2,18.9-1.7,38.4-2.1,57.4c-0.4,17.8-1.7,36.5,1.1,54.1c0,0.1,0.1,0,0.1,0
		c0-18.4-0.8-36.7-0.1-55.1c0.7-18.7,2.3-37.7,1.5-56.4C1482.5,145.6,1482.1,145.7,1482.1,145.9z"/>
	<path class="st0" d="M1475.6,166.9c-4.2,8.4-6.1,18.5-8.9,27.4c-3,9.4-5.5,18.9-6.8,28.7c-1.3,9.5-2,19.1-2.9,28.6
		c-1,11-2.4,22.1-2.7,33.2c0,0.2,0.3,0.2,0.3,0c3.6-20.3,4.2-41.1,7.1-61.5c1.4-9.5,3.8-18.7,6.5-27.9c2.6-9.3,6.9-18.8,8.2-28.4
		C1476.4,166.7,1475.8,166.5,1475.6,166.9z"/>
	<path class="st0" d="M1456.4,163.1c-29.9,19.7-55.2,46.3-77,74.4c-0.3,0.3,0.2,0.8,0.5,0.4c23-27.7,49.5-51.3,76.7-74.6
		C1456.8,163.2,1456.6,163,1456.4,163.1z"/>
	<path class="st0" d="M1443.5,151.7c-9.6-2.8-20.6,0.9-29.9,3c-12.8,3-25.4,6.3-38.2,9.4c-0.4,0.1-0.2,0.7,0.2,0.6
		c11.9-2.5,23.8-4.9,35.6-7.5c10.8-2.4,21.1-4.2,32.2-4.8C1443.8,152.3,1443.9,151.8,1443.5,151.7z"/>
	<path class="st0" d="M1484.8,142.3c1.8,8,5.5,15.7,8.4,23.3c2.9,7.7,5.9,15.4,8.9,23.2c2.8,7.2,5.7,14.4,8.6,21.6
		c2.9,7.1,5.6,14.5,9.6,21.1c0.1,0.2,0.5,0,0.4-0.2c-2.7-7.5-6.3-14.7-9.2-22.2c-2.9-7.5-5.6-15.2-8.4-22.7
		c-2.8-7.4-5.5-14.9-8.3-22.3s-5.1-15.4-8.9-22.3C1485.6,141.2,1484.7,141.8,1484.8,142.3z"/>
	<path class="st0" d="M1521.1,164.5c-10-9-21.4-20.6-34.6-24.6c-0.3-0.1-0.6,0.4-0.3,0.6c5.9,4.3,12.3,7.9,18.1,12.3
		c5.9,4.5,11.5,9.4,17.1,14.2c11.6,9.9,22.6,20.8,34.9,29.8c0.1,0.1,0.2-0.1,0.1-0.2C1545.6,185.1,1532.8,175.1,1521.1,164.5z"/>
	<path class="st0" d="M1480,138.9c-29.3,9.7-57,22.4-87.9,26.4c-0.4,0.1-0.4,0.7,0,0.6c30.5-2.3,60.8-13,88.1-26.5
		C1480.6,139.3,1480.3,138.8,1480,138.9z"/>
	<path class="st0" d="M1473.4,137.8c-11.3,0.7-22.7,3.7-33.8,5.8c-10.6,2-21.5,3.6-31.9,6.5c-0.3,0.1-0.2,0.6,0.1,0.5
		c11.3-1.1,22.6-3.5,33.8-5.5c10.6-1.9,21.7-3.1,32-6.2C1474.2,138.7,1474.1,137.7,1473.4,137.8z"/>
	<path class="st0" d="M1481.4,135c-7.5,11-14.5,22.3-21.4,33.6c-3.3,5.5-6.7,11.1-10,16.6c-3,5-6.1,9.8-7.6,15.4
		c-0.1,0.4,0.5,0.6,0.6,0.2c4.4-11.4,12.7-21.9,19.2-32.2c6.8-10.9,13.6-22,19.9-33.3C1482.5,134.9,1481.7,134.6,1481.4,135z"/>
	<path class="st0" d="M1460.1,118c-5.8-4.2-11.9-9.1-18.4-12.1c-0.4-0.2-0.8,0.4-0.5,0.7c5.7,5,12.7,8.7,18.9,12.9
		c6.2,4.3,12.1,9.5,18.7,13.1c0.1,0.1,0.2-0.1,0.1-0.2C1473.5,126.9,1466.4,122.5,1460.1,118z"/>
	<path class="st0" d="M1546.6,138.4c-17.6-5.8-39.9-9.6-58.2-4.5c-0.4,0.1-0.3,0.6,0.1,0.6c9.5,0.2,18.9-0.6,28.4-0.2
		c10,0.5,19.8,2.1,29.6,4.3C1546.7,138.8,1546.8,138.5,1546.6,138.4z"/>
	<path class="st0" d="M1502.7,126.4c-3-0.2-5.2,1.3-7.8,2.6c-3.5,1.8-7.3,2.8-10.9,4.5c-0.2,0.1-0.2,0.4,0.1,0.4
		c6.7,0.3,12.9-4.4,18.8-6.8C1503.2,127.1,1503.1,126.5,1502.7,126.4z"/>
</g>
</svg>
