<?xml version="1.0" encoding="utf-8"?>
<!-- Generator: Adobe Illustrator 22.0.0, SVG Export Plug-In . SVG Version: 6.00 Build 0)  -->
<svg version="1.1" id="Flowers_3" xmlns="http://www.w3.org/2000/svg" xmlns:xlink="http://www.w3.org/1999/xlink" x="0px" y="0px"
	 viewBox="0 0 4000 878.3" style="enable-background:new 0 0 4000 878.3;" xml:space="preserve">
<style type="text/css">
	.st0{fill:#406E61;}
	.st1{fill:#7BAE90;}
	.st2{opacity:0.1;}
	.st3{opacity:0.38;fill:#406E61;enable-background:new    ;}
	.st4{fill:#578261;}
	.st5{opacity:0.59;fill:#578261;enable-background:new    ;}
	.st6{opacity:0.7;}
	.st7{fill:#6EB09C;}
	.st8{fill:#69A16E;}
	.st9{opacity:0.43;fill:#4B694C;enable-background:new    ;}
</style>
<g>
	<g>
		<g>
			<path class="st0" d="M1076.8,353.7c0.7-1.5,0.6-1.3,0.3-0.3C1077,353.5,1076.9,353.6,1076.8,353.7z"/>
			<path class="st0" d="M1060.7,389.1c0.5-0.6,0.7-0.9,0.8-1c0,0.1-0.2,0.3-0.5,0.7C1061,389,1060.9,389.1,1060.7,389.1z"/>
			<path class="st0" d="M1179.8,379.6c-8.9,1.8-17.4,3.7-25.9,5.4c-6.3,1.2-12.6,2.2-19,2.9c-6.5,0.7-13.2,0.8-19.8,0.7
				c-10.3-0.2-20.8-0.7-31,0.5c-2.8,0.4-7.5,2.2-12.1,3.3c-4.6,1.3-9.1,1.7-12-1c0.3-1,0.8-1.9,1.2-2.5c4.4-2.1,8.5-5.6,12.8-9.1
				c2.2-1.8,4.3-3.8,6.5-5.6s4.3-3.4,6.5-4.9c4.6-3.1,9.6-5.6,14.6-8.1c5.1-2.3,10.3-4.4,15.6-6.2c6.6-2.3,13.5-4.2,20.5-5.9
				c0.3-0.1,0.6-0.1,0.9-0.2c-0.3,0-0.5,0-0.8,0.1c-5.9,0.4-11.8,0.3-17.8,0.3c-7.5,0-15,0.1-22.3,1.7c-1.2,0.3-2.8,1-4.5,1.7
				c-1.7,0.8-3.6,1.8-5.5,2.6c-3.8,1.6-7.6,2.8-10.9,0.7c0-1,0.3-2,0.4-2.6c3.5-2.8,6.6-6.6,9.8-10.6c3.4-4,6.9-8.3,10.6-11.4
				c8-6.7,17.5-11.5,27-15.2c2.9-1.1,5.9-2.2,8.9-3.1c-8.1-0.4-16.6-2-24.5-2.2c-3.8-0.1-12.3,4.2-16.2-2.1c0.2-0.9,0.5-1.7,0.7-2.2
				c5.9-2.2,10.6-10,15.5-14.5c5.3-4.8,11.2-8.5,17.2-11.6c15.2-7.9,33.4-12.8,51.4-12.2c4.6,0.2,10.1,0.1,15.8,1
				c0.1,0,0.3,0,0.4,0.1c5.3,0.8,10.7,2.3,15.3,5.4c-1.8,7.2-9.3,11.7-13.6,15c-7.2,5.6-15.7,11.6-24,14.4c-0.9,0.3-1.8,0.6-2.6,0.9
				c-0.6,0.2-1.1,0.4-1.7,0.6c0.5-0.1,0.9-0.1,1.4-0.2c10.4-1.3,20.8-1.9,31-1.4c12.3,0.6,30.1,0.9,41.5,8
				c-4.5,7.2-15.9,11.4-22.6,14.6c-11.3,5.4-24.4,11.2-36.4,13.8c-0.7,0.1-1.4,0.3-2,0.4c-4.9,1.1-9.7,2.3-14.6,3.4
				c2.1-0.3,4.2-0.5,6.2-0.7c9.7-1,19.2-1.4,28.5-1.4c6.7,0.1,14.8-0.2,22.9,0c8.1,0.3,16.2,0.9,23.1,3.5c-2.1,3.9-6.3,7.6-11,10.6
				c-4.7,2.9-9.8,5.5-13.6,7.3C1208.6,370.5,1193.4,376.9,1179.8,379.6z"/>
			<path class="st0" d="M1047.1,423.9c0.6-0.6,0.8-0.9,0.9-1c0,0.1-0.2,0.3-0.5,0.8C1047.3,423.8,1047.2,423.8,1047.1,423.9z"/>
			<path class="st0" d="M1041.7,452.8c0.5-0.6,0.8-0.9,0.9-1c0,0.1-0.2,0.3-0.5,0.8C1041.9,452.7,1041.8,452.8,1041.7,452.8z"/>
			<path class="st0" d="M1164.6,478c-16.2,3.3-31.8,7-48,9.5c-3,0.5-6,0.9-9,1.3c-4.2,0.5-8.5,0.9-12.7,1.1
				c-17.4,0.8-34.6-0.6-51.4,1.9c-3.5,0.5-9.4,2.8-15,4.6c-5.6,1.7-11,3.2-14.5,1c0.4-1.1,1-2.2,1.4-2.9c5.4-3.2,10.7-7.3,16.3-11.5
				c5.7-4.3,11.5-8.6,17.3-11.7c11.9-6.4,24.9-10.9,37.5-14.7c-7.1-1.1-14.2-2.1-21.1-2.2c-2.9,0-7.8,1.2-12.4,2.1
				c-4.7,0.8-9.2,1.3-12.1-1.3c0.4-1,0.9-2,1.2-2.6c4.6-2.2,9.3-5.4,14.1-8.6c5-3.3,10.1-6.6,15-8.8c9.3-4.2,19.1-6.8,28.2-9.2
				c-9.3-1.2-18.5-2.2-27.7-1.8c-1.5,0.1-3.5,0.6-5.7,1.1c-2.2,0.6-4.7,1.3-7.1,1.8c-4.9,1.1-9.6,1.8-12.6-0.8
				c0.4-1.1,0.9-2,1.3-2.7c4.7-2.4,9.4-5.8,14.2-9.3c5-3.5,10.1-7.3,15.2-9.8c10.8-5.4,22.7-8.6,34.3-11c1-0.2,1.9-0.4,2.9-0.6
				c6.3-1.2,12.7-2.2,19.1-3c5-0.7,10-1.2,15.1-1.8c2.3-0.3,4.6-0.5,6.9-0.7c14.7-1.4,29.5-2.3,43.8-2.4c7.1,0,15.8-0.4,24.5-0.3
				c8.7,0.2,17.4,0.9,24.4,3.5c-3.7,6.3-12.6,11.3-20.2,15.1c1,0.1,2.1,0.2,3.1,0.4c-3,8.7-15,16.9-22.2,22
				c-6.8,5-14.5,9.9-22.5,14.1c2.3-0.1,4.6-0.1,6.9-0.1c17.1-0.2,41.9-1,57.1,5.5c-7.1,7.6-23.4,12.7-33.2,16.4
				C1200.4,467.8,1181.6,474.6,1164.6,478z"/>
			<path class="st0" d="M1015,494.7c0.6-0.7,0.9-1.1,1-1.2c0,0.1-0.2,0.4-0.5,0.9C1015.3,494.5,1015.1,494.6,1015,494.7z"/>
			<path class="st0" d="M994.8,527.2c0.7-0.6,1-0.9,1.2-1c-0.1,0.2-0.4,0.4-0.7,0.8C995.2,527.1,995,527.2,994.8,527.2z"/>
			<path class="st0" d="M1217.2,521.9c-18.4,5-40,10-59.4,11c-10.9,0.6-21.7,1.1-32.4,1.2c-10.7,0.1-21.2-0.2-31.7-1
				c-8.9-0.7-17.7-2-26.4-3.3c-1.4-0.2-2.7-0.4-4.1-0.6c-1.2-0.2-2.4-0.4-3.6-0.5c-11.3-1.6-22.6-2.9-34-2.3
				c-3.8,0.2-10.4,1.9-16.6,3.4c-6.3,1.3-12.2,2.6-15.6,0.1c0.6-1.1,1.4-2.2,1.9-2.8c3-1.4,6-3.1,9.1-4.7c1.6-1,3.2-1.9,4.9-2.9
				c1.6-0.9,3.3-1.9,5-2.9s3.4-1.9,5-2.8c1.7-0.9,3.4-1.8,5.1-2.7c3.4-1.7,6.8-3.2,10.2-4.5c14.3-5.2,29.9-7.9,45-9.2
				c4.1-0.4,8.2-0.7,12.3-0.9c3.1-0.2,6.2-0.3,9.4-0.4c12.1-0.4,24.2-0.3,35.9-0.1c19,0.3,38.3,0.7,56.6,2.1
				c18.2,1.5,45.1,2.2,61,9.8C1246.4,515,1228.2,518.9,1217.2,521.9z"/>
			<path class="st0" d="M966.6,561.1c-0.2,0-0.4,0.1-0.6,0.2C968,559.9,967.6,560.1,966.6,561.1z"/>
			<path class="st0" d="M948.7,606.9c0.8-0.6,1.2-1,1.3-1c-0.1,0.1-0.4,0.4-0.7,0.8C949.1,606.7,948.9,606.8,948.7,606.9z"/>
			<path class="st0" d="M936.5,629.9c0.8-0.7,1.1-1,1.2-1.1c-0.1,0.1-0.3,0.4-0.7,0.9C936.9,629.7,936.7,629.8,936.5,629.9z"/>
			<path class="st0" d="M936.3,659.5c0.5-0.8,0.8-1.2,0.9-1.4c-0.1,0.1-0.3,0.5-0.5,1C936.6,659.3,936.4,659.4,936.3,659.5z"/>
			<path class="st0" d="M908.8,703.1c0.8-0.7,1.1-1,1.2-1.1c-0.1,0.1-0.3,0.4-0.7,0.8C909.1,703,908.9,703,908.8,703.1z"/>
			<path class="st0" d="M910.3,722.1c0.5-0.5,0.8-0.8,1-0.9c-0.1,0.1-0.3,0.4-0.5,0.7C910.6,721.9,910.5,722,910.3,722.1z"/>
			<path class="st0" d="M887,749.7L887,749.7c-0.1,0-0.3,0.1-0.4,0.1c0.5-0.3,0.8-0.4,0.9-0.5C887.4,749.4,887.3,749.5,887,749.7z"
				/>
			<path class="st0" d="M1029.6,767.1c-12.5-0.2-26.7-0.6-38.6-2.2c-6.9-0.9-13.6-1.6-20.3-2.2c-6.5-0.6-13-1.3-19.5-2.1
				c-11.6-1.5-23.1-4.7-34.9-6.5c-3.1-0.5-6.3-0.9-9.5-1.1c-2.1-0.1-5.6,0.2-9.2,0.4c-0.7,0-1.5,0.1-2.2,0.1
				c-4.3,0.2-8.4-0.1-10.1-2.3c0.6-0.7,1.2-1.2,1.7-1.6l0,0c2.4-0.4,4.9-1.2,7.4-2.1c2-0.7,4.1-1.5,6.2-2.2c2.4-0.9,4.8-1.9,7.1-2.8
				c2.4-0.8,4.7-1.6,7-2.3c2.4-0.7,4.9-1.3,7.4-1.7c2.5-0.5,5-1,7.5-1.3c2.1-0.3,4.3-0.5,6.5-0.7c2.9-0.3,5.9-0.6,8.8-0.7
				c10.1-0.5,20.5-0.2,30.8,1c-5.1-1.2-10.1-2.6-15.2-4.1c-4.7-1.4-9.3-2.8-13.9-4.1c-4.1-1.1-8.1-2-12.2-2.6
				c-2.9-0.4-8.1,0.2-12.8,0.6c-4.8,0.4-9.4,0.6-12.2-2.2c0.4-1,1-1.9,1.5-2.5c5-2,10.1-4.7,15.6-7.4c5.6-2.7,11.4-5.3,16.8-6.8
				c5.2-1.4,10.4-2.4,15.6-3.1c-6.7-0.6-13.3-1-19.8-1c-3.7,0-10.2,1.4-16.3,2.6c-6.1,1.1-11.8,2-15.1-0.4c0.6-1.1,1.3-2.1,1.9-2.8
				c6.1-2.7,12.3-6.3,18.8-9.6c6.7-3.5,13.4-6.9,19.8-9.2c13.5-4.8,27.9-8.2,42.4-10.5c8.4-1.4,17.1-2.4,25.9-3.1
				c0.4,0,0.8-0.1,1.2-0.1c-0.3-0.1-0.6-0.1-0.9-0.2c-6.2-1.2-12.5-2.6-18.7-4.1c-5.5-1.4-11-2.7-16.6-4.1
				c-5.5-1.3-10.8-2.5-16.1-3.1c-3.6-0.4-9.8,0.3-15.3,1.6c-2.8,0.6-5.3,1.4-7.7,1.8c-2.4,0.5-4.5,0.8-6.5,0.1
				c0.2-1.2,0.6-2.4,1-3.2c5.4-4.4,11.8-8.4,18.8-11.5c7.1-3.2,14.6-5.5,21.2-6.8c12-2.3,24.2-3.6,36.5-4.4
				c-4.3-0.5-8.5-1.1-12.7-1.7c-11.5-1.7-22.7-3.7-33.8-4c-3.7-0.1-10.3,1.1-16.3,2.2c-6.1,1-11.8,1.9-15.2-0.5
				c0.6-1.1,1.3-2.1,1.9-2.8c6.1-2.8,12.5-6.2,19.1-9.5c6.8-3.3,13.8-6.5,20.4-8.5c5-1.5,10.1-2.8,15.2-3.9
				c-4.1-0.2-8.2-0.3-12.3-0.2c-3.8,0.1-10.5,1.6-16.8,2.7c-6.3,1.1-12.4,1.8-15.5-0.9c0.7-1.1,1.5-2.1,2.1-2.7
				c6.3-2.5,12.7-5.8,19.2-9.3c6.7-3.6,13.6-7.1,20.2-9.5c14-5.1,29.2-8,43.8-10.1c6.4-0.9,12.9-1.7,19.4-2.4c-3-0.5-6-1-9-1.5
				c-2.6-0.5-5.2-1-7.8-1.6c-1.1-0.2-2.3-0.5-3.4-0.8c-11.7-2.7-23.1-5.6-34.6-6.6c-3.9-0.4-10.8,0.3-17.2,0.9
				c-6.5,0.5-12.5,0.9-15.6-1.9c0.7-1.1,1.6-2,2.3-2.6c6.6-2.2,13.5-5.1,20.6-7.8c7.3-2.8,14.8-5.4,21.8-6.9c15-3.2,30.2-4,44.6-5.2
				c0.3,0,0.5,0,0.8-0.1c6.4-0.5,13-1,19.6-1.4c12-0.8,24.3-1.6,36.6-2.2c19.5-0.9,39.2-1.5,57.9-0.8c18.6,0.7,46,0.4,62.3,7.4
				c-8.2,7.5-26.5,12.1-37.6,15.5c-10.5,3.2-22.1,6.5-33.6,9.2c5.5-0.1,11.3-0.2,17-0.1c11,0.1,21.8,0.8,30.1,3.5
				c-7.3,8.3-25.1,14.4-35.8,18.4c-10.8,4.1-22.9,8.2-34.8,11.4c17.7,2.2,41.5,5,55.4,13.1c-8.6,6.6-26.6,9.2-37.4,11.5
				c-18.2,3.9-39.1,7.9-57.5,8.9c-7.1,0.4-14.2,0.9-21.2,1.3c18.5,1.4,36.8,3.8,54,7.6c17.3,3.8,42.8,8.7,56.6,18.6
				c-9,5.8-26.8,6.9-37.5,8.3c-15.8,2-33.6,3.9-49.9,4c2.1,0.4,4.2,0.9,6.2,1.3c8.9,2,19.8,4.6,30.2,8.1c5.1,1.8,10.2,3.8,14.7,6
				c4.5,2.3,8.6,4.8,11.9,7.5c-9.5,5-27.3,4.9-38.2,5.8c-18.2,1.4-38.8,3.5-56.7,3.4c-5.8,0-11.6,0.1-17.2,0.2c-1.7,0-3.4,0.1-5,0.1
				c1.1,0.2,2.1,0.4,3.1,0.7c6.9,1.6,13.6,3.4,20.1,5.6c13.8,4.6,34,11.2,44,22.1c-7.8,5.1-22.1,5-30.8,5.7
				c-14.7,1.2-31.3,2.4-45.7,1.2c-13.1-1.1-25.7-1.5-38.6-2.8c8.6,1.9,16.9,4.3,24.6,7.1c11.3,4.1,27.6,10,35.2,18.1
				C1049.2,768.3,1037.1,767.2,1029.6,767.1z"/>
			<path class="st0" d="M1093.5,306.5l-0.2,0.1c0.4-0.5,0.5-0.7,0.5-0.7C1093.7,305.9,1093.6,306.1,1093.5,306.5z"/>
			<path class="st0" d="M1103.5,252.9c0-0.1,0-0.2,0-0.2C1103.3,252.1,1103.2,251.9,1103.5,252.9z"/>
			<path class="st0" d="M1104.3,253.8c-0.3-0.3-0.5-0.7-0.7-1c0-0.1-0.1-0.1-0.1-0.1c-0.3-5.8,3.2-12.9,7-17.3
				c0.5-0.6,1-1.1,1.6-1.7c0.5-0.5,1-1,1.5-1.5c1-1,2.1-2,3.2-2.9c2.2-1.9,4.4-3.7,6.7-5.4c5.8-4.3,12.4-8.2,19.4-11.2
				s14.3-5.3,21.6-6.2c3.6-0.5,8-1.1,12.4-1c4.4,0,8.9,0.7,12.1,1.5c-0.5,1.1-1.3,2.2-2.1,3.2c-0.9,1-1.9,1.9-3,2.9
				c-0.2,0.3-0.5,0.6-0.8,0.9l-0.8,0.6c-0.5,0.4-1.1,0.8-1.6,1.2c-1.1,0.8-2,1.5-2.9,2.2c-2.9,2.2-6,4.4-9.2,6.5
				c-3.2,2-6.4,3.8-9.6,5.2c-7.2,3.1-13.8,6.7-21.3,9.4c-4.1,1.5-8.5,2.4-12.9,3.4c-2.2,0.5-4.4,1-6.6,1.5c-2.1,0.5-4.1,1-5.9,1.8
				c-1.2,0.6-3,2.1-4.3,3.7c-0.7,0.8-1.2,1.6-1.9,2.4c-0.2,0.3-0.4,0.5-0.6,0.8C1105,253.1,1104.7,253.5,1104.3,253.8z"/>
		</g>
		<g>
			<path class="st0" d="M1076.8,353.7c0.7-1.5,0.6-1.3,0.3-0.3C1077,353.5,1076.9,353.6,1076.8,353.7z"/>
			<path class="st0" d="M1060.7,389.1c0.5-0.6,0.7-0.9,0.8-1c0,0.1-0.2,0.3-0.5,0.7C1061,389,1060.9,389.1,1060.7,389.1z"/>
			<path class="st0" d="M1179.8,379.6c-8.9,1.8-17.4,3.7-25.9,5.4c-6.3,1.2-12.6,2.2-19,2.9c-6.5,0.7-13.2,0.8-19.8,0.7
				c-10.3-0.2-20.8-0.7-31,0.5c-2.8,0.4-7.5,2.2-12.1,3.3c-4.6,1.3-9.1,1.7-12-1c0.3-1,0.8-1.9,1.2-2.5c4.4-2.1,8.5-5.6,12.8-9.1
				c2.2-1.8,4.3-3.8,6.5-5.6s4.3-3.4,6.5-4.9c4.6-3.1,9.6-5.6,14.6-8.1c5.1-2.3,10.3-4.4,15.6-6.2c6.6-2.3,13.5-4.2,20.5-5.9
				c0.3-0.1,0.6-0.1,0.9-0.2c-0.3,0-0.5,0-0.8,0.1c-5.9,0.4-11.8,0.3-17.8,0.3c-7.5,0-15,0.1-22.3,1.7c-1.2,0.3-2.8,1-4.5,1.7
				c-1.7,0.8-3.6,1.8-5.5,2.6c-3.8,1.6-7.6,2.8-10.9,0.7c0-1,0.3-2,0.4-2.6c3.5-2.8,6.6-6.6,9.8-10.6c3.4-4,6.9-8.3,10.6-11.4
				c8-6.7,17.5-11.5,27-15.2c2.9-1.1,5.9-2.2,8.9-3.1c-8.1-0.4-16.6-2-24.5-2.2c-3.8-0.1-12.3,4.2-16.2-2.1c0.2-0.9,0.5-1.7,0.7-2.2
				c5.9-2.2,10.6-10,15.5-14.5c5.3-4.8,11.2-8.5,17.2-11.6c15.2-7.9,33.4-12.8,51.4-12.2c4.6,0.2,10.1,0.1,15.8,1
				c0.1,0,0.3,0,0.4,0.1c5.3,0.8,10.7,2.3,15.3,5.4c-1.8,7.2-9.3,11.7-13.6,15c-7.2,5.6-15.7,11.6-24,14.4c-0.9,0.3-1.8,0.6-2.6,0.9
				c-0.6,0.2-1.1,0.4-1.7,0.6c0.5-0.1,0.9-0.1,1.4-0.2c10.4-1.3,20.8-1.9,31-1.4c12.3,0.6,30.1,0.9,41.5,8
				c-4.5,7.2-15.9,11.4-22.6,14.6c-11.3,5.4-24.4,11.2-36.4,13.8c-0.7,0.1-1.4,0.3-2,0.4c-4.9,1.1-9.7,2.3-14.6,3.4
				c2.1-0.3,4.2-0.5,6.2-0.7c9.7-1,19.2-1.4,28.5-1.4c6.7,0.1,14.8-0.2,22.9,0c8.1,0.3,16.2,0.9,23.1,3.5c-2.1,3.9-6.3,7.6-11,10.6
				c-4.7,2.9-9.8,5.5-13.6,7.3C1208.6,370.5,1193.4,376.9,1179.8,379.6z"/>
			<path class="st0" d="M1047.1,423.9c0.6-0.6,0.8-0.9,0.9-1c0,0.1-0.2,0.3-0.5,0.8C1047.3,423.8,1047.2,423.8,1047.1,423.9z"/>
			<path class="st0" d="M1041.7,452.8c0.5-0.6,0.8-0.9,0.9-1c0,0.1-0.2,0.3-0.5,0.8C1041.9,452.7,1041.8,452.8,1041.7,452.8z"/>
			<path class="st0" d="M1164.6,478c-16.2,3.3-31.8,7-48,9.5c-3,0.5-6,0.9-9,1.3c-4.2,0.5-8.5,0.9-12.7,1.1
				c-17.4,0.8-34.6-0.6-51.4,1.9c-3.5,0.5-9.4,2.8-15,4.6c-5.6,1.7-11,3.2-14.5,1c0.4-1.1,1-2.2,1.4-2.9c5.4-3.2,10.7-7.3,16.3-11.5
				c5.7-4.3,11.5-8.6,17.3-11.7c11.9-6.4,24.9-10.9,37.5-14.7c-7.1-1.1-14.2-2.1-21.1-2.2c-2.9,0-7.8,1.2-12.4,2.1
				c-4.7,0.8-9.2,1.3-12.1-1.3c0.4-1,0.9-2,1.2-2.6c4.6-2.2,9.3-5.4,14.1-8.6c5-3.3,10.1-6.6,15-8.8c9.3-4.2,19.1-6.8,28.2-9.2
				c-9.3-1.2-18.5-2.2-27.7-1.8c-1.5,0.1-3.5,0.6-5.7,1.1c-2.2,0.6-4.7,1.3-7.1,1.8c-4.9,1.1-9.6,1.8-12.6-0.8
				c0.4-1.1,0.9-2,1.3-2.7c4.7-2.4,9.4-5.8,14.2-9.3c5-3.5,10.1-7.3,15.2-9.8c10.8-5.4,22.7-8.6,34.3-11c1-0.2,1.9-0.4,2.9-0.6
				c6.3-1.2,12.7-2.2,19.1-3c5-0.7,10-1.2,15.1-1.8c2.3-0.3,4.6-0.5,6.9-0.7c14.7-1.4,29.5-2.3,43.8-2.4c7.1,0,15.8-0.4,24.5-0.3
				c8.7,0.2,17.4,0.9,24.4,3.5c-3.7,6.3-12.6,11.3-20.2,15.1c1,0.1,2.1,0.2,3.1,0.4c-3,8.7-15,16.9-22.2,22
				c-6.8,5-14.5,9.9-22.5,14.1c2.3-0.1,4.6-0.1,6.9-0.1c17.1-0.2,41.9-1,57.1,5.5c-7.1,7.6-23.4,12.7-33.2,16.4
				C1200.4,467.8,1181.6,474.6,1164.6,478z"/>
			<path class="st0" d="M1015,494.7c0.6-0.7,0.9-1.1,1-1.2c0,0.1-0.2,0.4-0.5,0.9C1015.3,494.5,1015.1,494.6,1015,494.7z"/>
			<path class="st0" d="M994.8,527.2c0.7-0.6,1-0.9,1.2-1c-0.1,0.2-0.4,0.4-0.7,0.8C995.2,527.1,995,527.2,994.8,527.2z"/>
			<path class="st0" d="M1217.2,521.9c-18.4,5-40,10-59.4,11c-10.9,0.6-21.7,1.1-32.4,1.2c-10.7,0.1-21.2-0.2-31.7-1
				c-8.9-0.7-17.7-2-26.4-3.3c-1.4-0.2-2.7-0.4-4.1-0.6c-1.2-0.2-2.4-0.4-3.6-0.5c-11.3-1.6-22.6-2.9-34-2.3
				c-3.8,0.2-10.4,1.9-16.6,3.4c-6.3,1.3-12.2,2.6-15.6,0.1c0.6-1.1,1.4-2.2,1.9-2.8c3-1.4,6-3.1,9.1-4.7c1.6-1,3.2-1.9,4.9-2.9
				c1.6-0.9,3.3-1.9,5-2.9s3.4-1.9,5-2.8c1.7-0.9,3.4-1.8,5.1-2.7c3.4-1.7,6.8-3.2,10.2-4.5c14.3-5.2,29.9-7.9,45-9.2
				c4.1-0.4,8.2-0.7,12.3-0.9c3.1-0.2,6.2-0.3,9.4-0.4c12.1-0.4,24.2-0.3,35.9-0.1c19,0.3,38.3,0.7,56.6,2.1
				c18.2,1.5,45.1,2.2,61,9.8C1246.4,515,1228.2,518.9,1217.2,521.9z"/>
			<path class="st0" d="M966.6,561.1c-0.2,0-0.4,0.1-0.6,0.2C968,559.9,967.6,560.1,966.6,561.1z"/>
			<path class="st0" d="M948.7,606.9c0.8-0.6,1.2-1,1.3-1c-0.1,0.1-0.4,0.4-0.7,0.8C949.1,606.7,948.9,606.8,948.7,606.9z"/>
			<path class="st0" d="M936.5,629.9c0.8-0.7,1.1-1,1.2-1.1c-0.1,0.1-0.3,0.4-0.7,0.9C936.9,629.7,936.7,629.8,936.5,629.9z"/>
			<path class="st0" d="M936.3,659.5c0.5-0.8,0.8-1.2,0.9-1.4c-0.1,0.1-0.3,0.5-0.5,1C936.6,659.3,936.4,659.4,936.3,659.5z"/>
			<path class="st0" d="M908.8,703.1c0.8-0.7,1.1-1,1.2-1.1c-0.1,0.1-0.3,0.4-0.7,0.8C909.1,703,908.9,703,908.8,703.1z"/>
			<path class="st0" d="M910.3,722.1c0.5-0.5,0.8-0.8,1-0.9c-0.1,0.1-0.3,0.4-0.5,0.7C910.6,721.9,910.5,722,910.3,722.1z"/>
			<path class="st0" d="M887,749.7L887,749.7c-0.1,0-0.3,0.1-0.4,0.1c0.5-0.3,0.8-0.4,0.9-0.5C887.4,749.4,887.3,749.5,887,749.7z"
				/>
			<path class="st0" d="M1029.6,767.1c-12.5-0.2-26.7-0.6-38.6-2.2c-6.9-0.9-13.6-1.6-20.3-2.2c-6.5-0.6-13-1.3-19.5-2.1
				c-11.6-1.5-23.1-4.7-34.9-6.5c-3.1-0.5-6.3-0.9-9.5-1.1c-2.1-0.1-5.6,0.2-9.2,0.4c-0.7,0-1.5,0.1-2.2,0.1
				c-4.3,0.2-8.4-0.1-10.1-2.3c0.6-0.7,1.2-1.2,1.7-1.6l0,0c2.4-0.4,4.9-1.2,7.4-2.1c2-0.7,4.1-1.5,6.2-2.2c2.4-0.9,4.8-1.9,7.1-2.8
				c2.4-0.8,4.7-1.6,7-2.3c2.4-0.7,4.9-1.3,7.4-1.7c2.5-0.5,5-1,7.5-1.3c2.1-0.3,4.3-0.5,6.5-0.7c2.9-0.3,5.9-0.6,8.8-0.7
				c10.1-0.5,20.5-0.2,30.8,1c-5.1-1.2-10.1-2.6-15.2-4.1c-4.7-1.4-9.3-2.8-13.9-4.1c-4.1-1.1-8.1-2-12.2-2.6
				c-2.9-0.4-8.1,0.2-12.8,0.6c-4.8,0.4-9.4,0.6-12.2-2.2c0.4-1,1-1.9,1.5-2.5c5-2,10.1-4.7,15.6-7.4c5.6-2.7,11.4-5.3,16.8-6.8
				c5.2-1.4,10.4-2.4,15.6-3.1c-6.7-0.6-13.3-1-19.8-1c-3.7,0-10.2,1.4-16.3,2.6c-6.1,1.1-11.8,2-15.1-0.4c0.6-1.1,1.3-2.1,1.9-2.8
				c6.1-2.7,12.3-6.3,18.8-9.6c6.7-3.5,13.4-6.9,19.8-9.2c13.5-4.8,27.9-8.2,42.4-10.5c8.4-1.4,17.1-2.4,25.9-3.1
				c0.4,0,0.8-0.1,1.2-0.1c-0.3-0.1-0.6-0.1-0.9-0.2c-6.2-1.2-12.5-2.6-18.7-4.1c-5.5-1.4-11-2.7-16.6-4.1
				c-5.5-1.3-10.8-2.5-16.1-3.1c-3.6-0.4-9.8,0.3-15.3,1.6c-2.8,0.6-5.3,1.4-7.7,1.8c-2.4,0.5-4.5,0.8-6.5,0.1
				c0.2-1.2,0.6-2.4,1-3.2c5.4-4.4,11.8-8.4,18.8-11.5c7.1-3.2,14.6-5.5,21.2-6.8c12-2.3,24.2-3.6,36.5-4.4
				c-4.3-0.5-8.5-1.1-12.7-1.7c-11.5-1.7-22.7-3.7-33.8-4c-3.7-0.1-10.3,1.1-16.3,2.2c-6.1,1-11.8,1.9-15.2-0.5
				c0.6-1.1,1.3-2.1,1.9-2.8c6.1-2.8,12.5-6.2,19.1-9.5c6.8-3.3,13.8-6.5,20.4-8.5c5-1.5,10.1-2.8,15.2-3.9
				c-4.1-0.2-8.2-0.3-12.3-0.2c-3.8,0.1-10.5,1.6-16.8,2.7c-6.3,1.1-12.4,1.8-15.5-0.9c0.7-1.1,1.5-2.1,2.1-2.7
				c6.3-2.5,12.7-5.8,19.2-9.3c6.7-3.6,13.6-7.1,20.2-9.5c14-5.1,29.2-8,43.8-10.1c6.4-0.9,12.9-1.7,19.4-2.4c-3-0.5-6-1-9-1.5
				c-2.6-0.5-5.2-1-7.8-1.6c-1.1-0.2-2.3-0.5-3.4-0.8c-11.7-2.7-23.1-5.6-34.6-6.6c-3.9-0.4-10.8,0.3-17.2,0.9
				c-6.5,0.5-12.5,0.9-15.6-1.9c0.7-1.1,1.6-2,2.3-2.6c6.6-2.2,13.5-5.1,20.6-7.8c7.3-2.8,14.8-5.4,21.8-6.9c15-3.2,30.2-4,44.6-5.2
				c0.3,0,0.5,0,0.8-0.1c6.4-0.5,13-1,19.6-1.4c12-0.8,24.3-1.6,36.6-2.2c19.5-0.9,39.2-1.5,57.9-0.8c18.6,0.7,46,0.4,62.3,7.4
				c-8.2,7.5-26.5,12.1-37.6,15.5c-10.5,3.2-22.1,6.5-33.6,9.2c5.5-0.1,11.3-0.2,17-0.1c11,0.1,21.8,0.8,30.1,3.5
				c-7.3,8.3-25.1,14.4-35.8,18.4c-10.8,4.1-22.9,8.2-34.8,11.4c17.7,2.2,41.5,5,55.4,13.1c-8.6,6.6-26.6,9.2-37.4,11.5
				c-18.2,3.9-39.1,7.9-57.5,8.9c-7.1,0.4-14.2,0.9-21.2,1.3c18.5,1.4,36.8,3.8,54,7.6c17.3,3.8,42.8,8.7,56.6,18.6
				c-9,5.8-26.8,6.9-37.5,8.3c-15.8,2-33.6,3.9-49.9,4c2.1,0.4,4.2,0.9,6.2,1.3c8.9,2,19.8,4.6,30.2,8.1c5.1,1.8,10.2,3.8,14.7,6
				c4.5,2.3,8.6,4.8,11.9,7.5c-9.5,5-27.3,4.9-38.2,5.8c-18.2,1.4-38.8,3.5-56.7,3.4c-5.8,0-11.6,0.1-17.2,0.2c-1.7,0-3.4,0.1-5,0.1
				c1.1,0.2,2.1,0.4,3.1,0.7c6.9,1.6,13.6,3.4,20.1,5.6c13.8,4.6,34,11.2,44,22.1c-7.8,5.1-22.1,5-30.8,5.7
				c-14.7,1.2-31.3,2.4-45.7,1.2c-13.1-1.1-25.7-1.5-38.6-2.8c8.6,1.9,16.9,4.3,24.6,7.1c11.3,4.1,27.6,10,35.2,18.1
				C1049.2,768.3,1037.1,767.2,1029.6,767.1z"/>
			<path class="st0" d="M1093.5,306.5l-0.2,0.1c0.4-0.5,0.5-0.7,0.5-0.7C1093.7,305.9,1093.6,306.1,1093.5,306.5z"/>
			<path class="st0" d="M1103.5,252.9c0-0.1,0-0.2,0-0.2C1103.3,252.1,1103.2,251.9,1103.5,252.9z"/>
			<path class="st0" d="M1104.3,253.8c-0.3-0.3-0.5-0.7-0.7-1c0-0.1-0.1-0.1-0.1-0.1c-0.3-5.8,3.2-12.9,7-17.3
				c0.5-0.6,1-1.1,1.6-1.7c0.5-0.5,1-1,1.5-1.5c1-1,2.1-2,3.2-2.9c2.2-1.9,4.4-3.7,6.7-5.4c5.8-4.3,12.4-8.2,19.4-11.2
				s14.3-5.3,21.6-6.2c3.6-0.5,8-1.1,12.4-1c4.4,0,8.9,0.7,12.1,1.5c-0.5,1.1-1.3,2.2-2.1,3.2c-0.9,1-1.9,1.9-3,2.9
				c-0.2,0.3-0.5,0.6-0.8,0.9l-0.8,0.6c-0.5,0.4-1.1,0.8-1.6,1.2c-1.1,0.8-2,1.5-2.9,2.2c-2.9,2.2-6,4.4-9.2,6.5
				c-3.2,2-6.4,3.8-9.6,5.2c-7.2,3.1-13.8,6.7-21.3,9.4c-4.1,1.5-8.5,2.4-12.9,3.4c-2.2,0.5-4.4,1-6.6,1.5c-2.1,0.5-4.1,1-5.9,1.8
				c-1.2,0.6-3,2.1-4.3,3.7c-0.7,0.8-1.2,1.6-1.9,2.4c-0.2,0.3-0.4,0.5-0.6,0.8C1105,253.1,1104.7,253.5,1104.3,253.8z"/>
		</g>
	</g>
	<g>
		<path class="st1" d="M1134.9,387.9c-6.5,0.7-13.2,0.8-19.8,0.7c-10.3-0.2-20.8-0.7-31,0.5c-2.8,0.4-7.5,2.2-12.1,3.3
			c-4.6,1.3-9.1,1.7-12-1c0.3-1,0.8-1.9,1.2-2.5c4.4-2.1,8.5-5.6,12.8-9.1c2.2-1.8,4.3-3.8,6.5-5.6s4.3-3.4,6.5-4.9
			c4.6-3.1,9.6-5.6,14.6-8.1c5.1-2.3,10.3-4.4,15.6-6.2c6.6-2.3,13.5-4.2,20.5-5.9c0.3-0.1,0.6-0.1,0.9-0.2c-0.3,0-0.5,0-0.8,0.1
			c-5.9,0.4-11.8,0.3-17.8,0.3c-7.5,0-15,0.1-22.3,1.7c-1.2,0.3-2.8,1-4.5,1.7c-1.7,0.8-3.6,1.8-5.5,2.6c-3.8,1.6-7.6,2.8-10.9,0.7
			c0-1,0.3-2,0.4-2.6c3.5-2.8,6.6-6.6,9.8-10.6c3.4-4,6.9-8.3,10.6-11.4c8-6.7,17.5-11.5,27-15.2c2.9-1.1,5.9-2.2,8.9-3.1
			c-8.1-0.4-16.6-2-24.5-2.2c-3.8-0.1-12.3,4.2-16.2-2.1c0.2-0.9,0.5-1.7,0.7-2.2c5.9-2.2,10.6-10,15.5-14.5
			c5.3-4.8,11.2-8.5,17.2-11.6c15.2-7.9,33.4-12.8,51.4-12.2c4.6,0.2,10.1,0.1,15.8,1c-1.6,7.9-12.3,18.3-16.9,24.9
			c-2.5,3.7-5.1,7.3-7.6,11c-0.1,0.1-0.2,0.3-0.3,0.4c-3.5,5.1-7.1,10.2-10.6,15.3c12,6.1,25.1,9.9,38.5,11.2
			c-5,3.8-10.6,6.9-16.4,9.2c-2.7,1.1-5.5,2-8.3,2.7c-2.6,0.7-5.2,1.2-7.8,1.6c-7.3,1.1-15.1,1-21.5,4.7
			c-6.4,3.6-10.6,12.8-5.9,18.5c5.6,7,19.4,3.9,23.2,12.1c-1.8,1.6-3.8,3-5.8,4.3C1147.6,386.2,1141.3,387.2,1134.9,387.9z"/>
		<path class="st1" d="M1094.8,489.9c-17.4,0.8-34.6-0.6-51.4,1.9c-3.5,0.5-9.4,2.8-15,4.6c-5.6,1.7-11,3.2-14.5,1
			c0.4-1.1,1-2.2,1.4-2.9c5.4-3.2,10.7-7.3,16.3-11.5c5.7-4.3,11.5-8.6,17.3-11.7c11.9-6.4,24.9-10.9,37.5-14.7
			c-7.1-1.1-14.2-2.1-21.1-2.2c-2.9,0-7.8,1.2-12.4,2.1c-4.7,0.8-9.2,1.3-12.1-1.3c0.4-1,0.9-2,1.2-2.6c4.6-2.2,9.3-5.4,14.1-8.6
			c5-3.3,10.1-6.6,15-8.8c9.3-4.2,19.1-6.8,28.2-9.2c-9.3-1.2-18.5-2.2-27.7-1.8c-1.5,0.1-3.5,0.6-5.7,1.1c-2.2,0.6-4.7,1.3-7.1,1.8
			c-4.9,1.1-9.6,1.8-12.6-0.8c0.4-1.1,0.9-2,1.3-2.7c4.7-2.4,9.4-5.8,14.2-9.3c5-3.5,10.1-7.3,15.2-9.8c10.8-5.4,22.7-8.6,34.3-11
			c1-0.2,1.9-0.4,2.9-0.6c6.3-1.2,12.7-2.2,19.1-3c5-0.7,10-1.2,15.1-1.8c-5.1,2.6-10.4,4.9-15.2,8c-8.7,5.6-16.2,15.9-12.8,25.6
			c2.4,6.9,9.3,11,14.8,15.8s10.2,12.9,6.4,19.2c-3.9,6.5-14.8,7-17.2,14.2c-0.9,2.7-0.3,5.7-1,8.4c-0.9,3.5-3.5,6-6.7,8
			c-3,0.5-6,0.9-9,1.3C1103.3,489.3,1099,489.7,1094.8,489.9z"/>
		<path class="st1" d="M1059.6,528.6c-11.3-1.6-22.6-2.9-34-2.3c-3.8,0.2-10.4,1.9-16.6,3.4c-6.3,1.3-12.2,2.6-15.6,0.1
			c0.6-1.1,1.4-2.2,1.9-2.8c3-1.4,6-3.1,9.1-4.7c1.6-1,3.2-1.9,4.9-2.9c1.6-0.9,3.3-1.9,5-2.9s3.4-1.9,5-2.8
			c1.7-0.9,3.4-1.8,5.1-2.7c3.4-1.7,6.8-3.2,10.2-4.5c14.3-5.2,29.9-7.9,45-9.2c4.1-0.4,8.2-0.7,12.3-0.9c3.1-0.2,6.2-0.3,9.4-0.4
			c-9,5.4-17.4,11.6-25.1,18.6c-4.4,4-8.8,9.7-8.9,15.2c-1.4-0.2-2.7-0.4-4.1-0.6C1062,529,1060.8,528.8,1059.6,528.6z"/>
		<path class="st1" d="M983.6,760.1c-4.3,0.9-8.6,1.7-12.9,2.6c-6.5-0.6-13-1.3-19.5-2.1c-11.6-1.5-23.1-4.7-34.9-6.5
			c-3.1-0.5-6.3-0.9-9.5-1.1c-2.1-0.1-5.6,0.2-9.2,0.4c-0.7,0-1.5,0.1-2.2,0.1c-4.3,0.2-8.4-0.1-10.1-2.3c0.6-0.7,1.2-1.2,1.7-1.6
			c-0.1,0-0.3,0.1-0.4,0.1c0.5-0.3,0.8-0.4,0.9-0.5c-0.1,0.1-0.3,0.2-0.5,0.4c2.4-0.4,4.9-1.2,7.4-2.1c2-0.7,4.1-1.5,6.2-2.2
			c2.4-0.9,4.8-1.9,7.1-2.8c2.4-0.8,4.7-1.6,7-2.3c2.4-0.7,4.9-1.3,7.4-1.7c2.5-0.5,5-1,7.5-1.3c2.1-0.3,4.3-0.5,6.5-0.7
			c2.9-0.3,5.9-0.6,8.8-0.7c10.1-0.5,20.5-0.2,30.8,1c-5.1-1.2-10.1-2.6-15.2-4.1c-4.7-1.4-9.3-2.8-13.9-4.1
			c-4.1-1.1-8.1-2-12.2-2.6c-2.9-0.4-8.1,0.2-12.8,0.6c-4.8,0.4-9.4,0.6-12.2-2.2c0.4-1,1-1.9,1.5-2.5c5-2,10.1-4.7,15.6-7.4
			c5.6-2.7,11.4-5.3,16.8-6.8c5.2-1.4,10.4-2.4,15.6-3.1c-6.7-0.6-13.3-1-19.8-1c-3.7,0-10.2,1.4-16.3,2.6c-6.1,1.1-11.8,2-15.1-0.4
			c0.6-1.1,1.3-2.1,1.9-2.8c6.1-2.7,12.3-6.3,18.8-9.6c6.7-3.5,13.4-6.9,19.8-9.2c13.5-4.8,27.9-8.2,42.4-10.5
			c8.4-1.4,17.1-2.4,25.9-3.1c0.4,0,0.8-0.1,1.2-0.1c-0.3-0.1-0.6-0.1-0.9-0.2c-6.2-1.2-12.5-2.6-18.7-4.1c-5.5-1.4-11-2.7-16.6-4.1
			c-5.5-1.3-10.8-2.5-16.1-3.1c-3.6-0.4-9.8,0.3-15.3,1.6c-2.8,0.6-5.3,1.4-7.7,1.8c-2.4,0.5-4.5,0.8-6.5,0.1c0.2-1.2,0.6-2.4,1-3.2
			c5.4-4.4,11.8-8.4,18.8-11.5c7.1-3.2,14.6-5.5,21.2-6.8c12-2.3,24.2-3.6,36.5-4.4c-4.3-0.5-8.5-1.1-12.7-1.7
			c-11.5-1.7-22.7-3.7-33.8-4c-3.7-0.1-10.3,1.1-16.3,2.2c-6.1,1-11.8,1.9-15.2-0.5c0.6-1.1,1.3-2.1,1.9-2.8
			c6.1-2.8,12.5-6.2,19.1-9.5c6.8-3.3,13.8-6.5,20.4-8.5c5-1.5,10.1-2.8,15.2-3.9c-4.1-0.2-8.2-0.3-12.3-0.2
			c-3.8,0.1-10.5,1.6-16.8,2.7c-6.3,1.1-12.4,1.8-15.5-0.9c0.7-1.1,1.5-2.1,2.1-2.7c6.3-2.5,12.7-5.8,19.2-9.3
			c6.7-3.6,13.6-7.1,20.2-9.5c14-5.1,29.2-8,43.8-10.1c6.4-0.9,12.9-1.7,19.4-2.4c-3-0.5-6-1-9-1.5c-2.6-0.5-5.2-1-7.8-1.6
			c-1.1-0.2-2.3-0.5-3.4-0.8c-11.7-2.7-23.1-5.6-34.6-6.6c-3.9-0.4-10.8,0.3-17.2,0.9c-6.5,0.5-12.5,0.9-15.6-1.9
			c0.7-1.1,1.6-2,2.3-2.6c6.6-2.2,13.5-5.1,20.6-7.8c7.3-2.8,14.8-5.4,21.8-6.9c15-3.2,30.2-4,44.6-5.2c0.3,0,0.5,0,0.8-0.1
			c6.4-0.5,13-1,19.6-1.4c1,0.6,2.1,1.1,3.1,1.6l24.7,12.1c5.8,2.8,12,6.1,14.6,12c4,9.1-2.9,19.7-11.5,24.6
			c-8.6,5-18.8,6.5-27.7,10.9c-8.9,4.4-16.9,13.8-14.6,23.4c2.3,9.6,14,16.7,11.8,26.3c-1.6,7.3-9.9,10.3-16.6,13.5
			s-13.5,10.9-9.6,17.2s16.5,6.5,16,13.9c-0.2,3-2.8,5.2-5.3,6.9c-3.1,2-6.3,3.7-9.6,5.2c-0.6,0.3-1.2,0.6-1.9,0.8
			c-16.2,7-34.6,10.2-47.6,22c-2.6,2.3-5,5.4-4.5,8.9c0.4,2.7,2.6,4.9,3.3,7.6C1000.5,754.1,991,758.6,983.6,760.1z"/>
	</g>
	<g class="st2">
		<path class="st0" d="M1097.6,351c-1.2,0.3-2.8,1-4.5,1.7c-1.7,0.8-3.6,1.8-5.5,2.6c-3.8,1.6-7.6,2.8-10.9,0.7c0-1,0.3-2,0.4-2.6
			c3.5-2.8,6.6-6.6,9.8-10.6c3.4-4,6.9-8.3,10.6-11.4c8-6.7,17.5-11.5,27-15.2c2.9-1.1,5.9-2.2,8.9-3.1c-8.1-0.4-16.6-2-24.5-2.2
			c-3.8-0.1-12.3,4.2-16.2-2.1c0.2-0.9,0.5-1.7,0.7-2.2c5.9-2.2,10.6-10,15.5-14.5c5.3-4.8,11.2-8.5,17.2-11.6
			c15.2-7.9,33.4-12.8,51.4-12.2c4.7,0.2,10.4,0.1,16.2,1c-4,2.3-8.5,8.9-11.5,12.2c-4.9,5.4-8.6,12.1-13.4,17.5
			c-9.5,10.7-23.1,17.1-32.3,27.9c-5.8,6.8-4.1,13.5,2.4,19.7c-0.4,0.9-0.9,1.8-1.3,2.6c-5.9,0.4-11.8,0.3-17.8,0.3
			C1112.5,349.4,1104.9,349.5,1097.6,351z"/>
		<path class="st0" d="M1115.2,387.8c-0.1,0.3-0.1,0.5-0.2,0.8c-10.3-0.2-20.8-0.7-31,0.5c-2.8,0.4-7.5,2.2-12.1,3.3
			c-4.6,1.3-9.1,1.7-12-1c0.3-1,0.8-1.9,1.2-2.5c4.4-2.1,8.5-5.6,12.8-9.1c2.2-1.8,4.3-3.8,6.5-5.6s4.3-3.4,6.5-4.9
			c4.6-3.1,9.6-5.6,14.6-8.1c5.1-2.3,10.3-4.4,15.6-6.2c6.6-2.3,13.5-4.2,20.5-5.9C1130.6,362.5,1119.6,372.7,1115.2,387.8z"/>
		<path class="st0" d="M1094.8,489.9c-17.4,0.8-34.6-0.6-51.4,1.9c-3.5,0.5-9.4,2.8-15,4.6c-5.6,1.7-11,3.2-14.5,1
			c0.4-1.1,1-2.2,1.4-2.9c5.4-3.2,10.7-7.3,16.3-11.5c5.7-4.3,11.5-8.6,17.3-11.7c11.9-6.4,24.9-10.9,37.5-14.7
			c-7.1-1.1-14.2-2.1-21.1-2.2c-2.9,0-7.8,1.2-12.4,2.1c-4.7,0.8-9.2,1.3-12.1-1.3c0.4-1,0.9-2,1.2-2.6c4.6-2.2,9.3-5.4,14.1-8.6
			c5-3.3,10.1-6.6,15-8.8c9.3-4.2,19.1-6.8,28.2-9.2c-9.3-1.2-18.5-2.2-27.7-1.8c-1.5,0.1-3.5,0.6-5.7,1.1c-2.2,0.6-4.7,1.3-7.1,1.8
			c-4.9,1.1-9.6,1.8-12.6-0.8c0.4-1.1,0.9-2,1.3-2.7c4.7-2.4,9.4-5.8,14.2-9.3c5-3.5,10.1-7.3,15.2-9.8c10.8-5.4,22.7-8.6,34.3-11
			c1-0.2,1.9-0.4,2.9-0.6c-1,6.4-1,13.1-1.9,19.4c-1.1,7.7-2.2,14.2-5.7,21.2c-2.8,5.8-10.5,11.9-12.1,17.8
			c-0.7,2.4-0.5,3.2-0.2,5.8c0.3,2.9,3.2,6.6,3.7,9.9c0.6,4.8-0.2,10.3-0.9,15C1096.5,484.7,1095.8,487.3,1094.8,489.9z"/>
		<path class="st0" d="M1059.6,528.7c-11.3-1.6-22.6-2.9-34-2.2c-3.8,0.2-10.4,1.9-16.6,3.4c-6.3,1.3-12.2,2.6-15.6,0.1
			c0.6-1.1,1.4-2.2,1.9-2.8c3-1.4,6-3.1,9.1-4.7c1.6-1,3.2-1.9,4.9-2.9c1.6-0.9,3.3-1.9,5-2.9s3.4-1.9,5-2.8
			c1.7-0.9,3.4-1.8,5.1-2.7c3.4-1.7,6.8-3.2,10.2-4.5c14.3-5.2,29.9-7.9,45-9.2c4.1-0.4,8.2-0.7,12.3-0.9
			c-5.8,11.2-15.3,21.8-23.6,29.1c-1.5,1.3-3.3,2.5-5.1,3.7C1062,529,1060.8,528.8,1059.6,528.7z"/>
		<path class="st0" d="M1035.2,572.2c-1.1-0.2-2.3-0.5-3.4-0.8c-11.7-2.7-23.1-5.6-34.6-6.6c-3.9-0.4-10.8,0.3-17.2,0.9
			c-6.5,0.5-12.5,0.9-15.6-1.9c0.7-1.1,1.6-2,2.3-2.6c6.6-2.2,13.5-5.1,20.6-7.8c7.3-2.8,14.8-5.4,21.8-6.9c15-3.2,30.2-4,44.6-5.2
			c0.3,0,0.5,0,0.8-0.1c-0.6,3.2-0.9,6.6-2.1,9.5C1048.9,559.1,1041.1,565.2,1035.2,572.2z"/>
		<path class="st0" d="M1016.6,670.2c-6.2-1.2-12.5-2.6-18.7-4.1c-5.5-1.4-11-2.7-16.6-4.1c-5.5-1.3-10.8-2.5-16.1-3.1
			c-3.6-0.4-9.8,0.3-15.3,1.6c-2.8,0.6-5.3,1.4-7.7,1.8c-2.4,0.5-4.5,0.8-6.5,0.1c0.2-1.2,0.6-2.4,1-3.2c5.4-4.4,11.8-8.4,18.8-11.5
			c7.1-3.2,14.6-5.5,21.2-6.8c12-2.3,24.2-3.6,36.5-4.4c-4.3-0.5-8.5-1.1-12.7-1.7c-11.5-1.7-22.7-3.7-33.8-4
			c-3.7-0.1-10.3,1.1-16.3,2.2c-6.1,1-11.8,1.9-15.2-0.5c0.6-1.1,1.3-2.1,1.9-2.8c6.1-2.8,12.5-6.2,19.1-9.5
			c6.8-3.3,13.8-6.5,20.4-8.5c5-1.5,10.1-2.8,15.2-3.9c-4.1-0.2-8.2-0.3-12.3-0.2c-3.8,0.1-10.5,1.6-16.8,2.7
			c-6.3,1.1-12.4,1.8-15.5-0.9c0.7-1.1,1.5-2.1,2.1-2.7c6.3-2.5,12.7-5.8,19.2-9.3c6.7-3.6,13.6-7.1,20.2-9.5
			c14-5.1,29.2-8,43.8-10.1c6.4-0.9,12.9-1.7,19.4-2.4c-3-0.5-6-1-9-1.5c7.8-1.5,16.6-2.2,18.2,2.2c1.1,3.1-12.3,12.8-14.5,16.5
			c-4.5,7.6-5.1,16.7-9,24.2c-2.6,5.1-8.1,8.9-11.1,13.6c8-3.5,15.6-8.3,24.5-9.2c-1.6,1.9-1.5,4-2.1,6.5
			c-1.7,7.3-5.4,11.4-9.5,17.5C1033.3,654.5,1025.3,662.5,1016.6,670.2z"/>
		<path class="st0" d="M987.5,695c-13.1,12.1-26.7,23-40.9,33.5c-4.1-1.1-8.1-2-12.2-2.6c-2.9-0.4-8.1,0.2-12.8,0.6
			c-4.8,0.4-9.4,0.6-12.2-2.2c0.4-1,1-1.9,1.5-2.5c5-2,10.1-4.7,15.6-7.4c5.6-2.7,11.4-5.3,16.8-6.8c5.2-1.4,10.4-2.4,15.6-3.1
			c-6.7-0.6-13.3-1-19.8-1c-3.7,0-10.2,1.4-16.3,2.6c-6.1,1.1-11.8,2-15.1-0.4c0.6-1.1,1.3-2.1,1.9-2.8c6.1-2.7,12.3-6.3,18.8-9.6
			c6.7-3.5,13.4-6.9,19.8-9.2c13.5-4.8,27.9-8.2,42.4-10.5c8.4-1.4,17.1-2.4,25.9-3.1C1006.8,678.8,996.6,686.6,987.5,695z"/>
		<path class="st0" d="M916.3,754.1c-3.1-0.5-6.3-0.9-9.5-1.1c-2.1-0.1-5.6,0.2-9.2,0.4c-1-1.9-2.1-3.8-3.1-5.9
			c2-0.7,4.1-1.5,6.2-2.2c2.4-0.9,4.8-1.9,7.1-2.8c2.4-0.8,4.7-1.6,7-2.3c2.4-0.7,4.9-1.3,7.4-1.7c2.5-0.5,5-1,7.5-1.3
			c2.1-0.3,4.3-0.5,6.5-0.7C929,742,922.7,748.1,916.3,754.1z"/>
	</g>
	<path class="st0" d="M763.5,877.2c36-22.3,70.7-50.7,98.4-82.7c29.5-34.1,50-78.9,63.5-121.8c1.4-4.5-5-9.3-7.9-4.5
		c-22.9,37.9-35.9,80.5-64.2,115.3c-27.4,33.7-62.9,56-97.6,81C749.4,869.1,756.6,881.5,763.5,877.2z"/>
	<path class="st0" d="M1057.1,105.3c3.4,19.2,6,39.6,7.9,59.8c1.9,20.2,3,40.3,3,58.9c0,19.8-0.8,40-2.8,60.2c-2,20.1-5,40.2-9,59.9
		c-5.1,24.6-11.9,49.4-20.5,73.4c-8.5,24-18.4,47.4-28.3,70.5s-20,46.1-30,68.6s-20,44.6-30.5,65.3c-5.2,10.3-11.2,21.7-17.7,33.2
		s-13.3,23.4-19.9,35.1c-6.6,11.7-12.8,23.4-18.1,34.5c-5.4,11-9.8,21.5-13.3,30.4c2.5-12.2,8.2-29.7,15.6-46.7
		c7.3-17,15.9-33.8,22.3-46.4c5.3-10.6,10.8-21.6,16.1-32.9c5.3-11.3,10.6-23,15.7-34.8c10.2-23.7,20.3-47.5,29.8-69.6
		c10.8-25,21.5-49.5,31.9-74c10.3-24.6,20.2-49.3,28.2-75.9c9-29,15.6-59.2,20.2-90.2c2.1-15.5,3.9-31.2,4.8-47.1
		c1.1-15.9,1.3-31.9,1.1-48c-0.3-10.8-1.1-30.5-3.1-49c-1.9-18.5-4.1-35.6-4.8-41.4C1057.2,106.2,1059.2,115.4,1057.1,105.3z"/>
	<path class="st3" d="M1074.2,454.8c5.3-1.9,12.5,1,17.9,1.6c9,1,19,0.3,28-0.7c17.1-1.9,34.3-4.7,50.7-10.3
		c3.1-1.1,6.4-2.1,9.3-3.5c2.6-1.2,4.5-3.3,7.3-4.1c2.3,4.7,17.7,1.2,22,2.3c-5.5-0.3-12.9,2.6-18.4,3.7c-14.6,3-28.4,9.4-42.9,13.1
		c-17,4.3-34.5,4.6-52,4.4c-7-0.1-9.8-1.5-14.4,4.2s-7.9,12.3-12.5,18.1c-1.2-6.3-3.1-3.3-6.6-5.1c-1.6-0.9-2.3-3.4-2.9-5.2
		c-1.1-3.2-1-2.7,1-5.4c5.3-7.2,15.8-8.4,23.8-11.6C1082.2,454.9,1077.4,455.2,1074.2,454.8z"/>
	<path class="st3" d="M1013.2,544.2c-4.8-0.2-11.5,2.8-16.4,4.5c-5.2,1.8-10.6,3.6-15.5,6c-1.8,0.9-11.4,6.8-10.5,9.3
		c1.4,4,16.1,1.7,18.7,1.2C1000.4,563.4,1009.2,554.4,1013.2,544.2z"/>
	<path class="st3" d="M938.7,631.1c1.7-3.3,8.9-5.7,12.3-7.5c4.1-2.3,8.7-3.8,12.8-6c8.3-4.4,18.3-10.2,28.2-9.8
		c7.5,0.3,15.6-1.5,22.8-0.7c-6.2,3.4-12.4,7.5-18.7,11c-4.5,2.5-8.4,4.5-12.5,7.6c-2.6,2-5.2,3.8-8.2,5.1c-3.9,1.6-5.5-0.2-9.7-0.6
		c-4.5-0.4-9,1.4-13.4,1.9C949.4,632.4,936.5,636.3,938.7,631.1z"/>
	<path class="st3" d="M1060.8,468.9c-0.4-0.6-16,10.6-18.3,12.1c-5.5,3.6-11.3,6.7-16.7,10.2c-1.2,0.8-4.9,2.5-3.8,4.4
		c0.5,0.8,7.9-0.4,9.3-0.5c6.7-0.8,13.6-2.8,19.4-6.3c3.1-1.9,6.2-4,8.9-6.5c4.2-3.8,4.5-7.7,6.6-12.9L1060.8,468.9z"/>
	<path class="st3" d="M1123.9,235.5c-2.4-3.2,5.3-10.8,7.7-13.2c2.9-3,5.8-5,9.3-7.1c3.1-1.8,5.4-3.8,9-5c3.4-1.1,6.8-1.1,10.2-2.3
		c-0.7,9.9-12.7,23.2-21,28.6c-5.7,3.8-10.1,3.7-16.8,4.1c0.5-3.7,1.6-7.8,2.5-11.5L1123.9,235.5z"/>
	<path class="st3" d="M1063.8,498.7c0.1-0.1,6.9,0.5,9.1,0.3c-6.3,2-17.2,13.5-11.7,20.4c5.6,6.9,19.5,7,27.6,7.6
		c14.2,1,28.6,0.9,42.7,2.5c8.7,1,17.6,1.1,26.1,2.3c-8.2,2.9-18.2,2.7-26.8,2.7c-8,0-16.1,0.7-24.2,0.6c-6.1-0.1-12.1-1.5-18.1-2.1
		c-5.9-0.6-11.1-3.8-17-3.4c-5.6,0.3-9.9-0.2-15.4-1.1c-3.8-0.6-9.3-0.4-12.8-1.8c-7.5-2.9,6.7-13.9,9.5-16.8
		C1057.3,505.2,1059.5,499,1063.8,498.7z"/>
	<path class="st0" d="M1098.2,282.6c3.9-3.6,6.8-9.7,10.4-14.2c3.7-4.8,8.6-8.8,13.6-12.5c3.1-2.2,6.4-4.5,9.9-6.2s7-3.2,10.5-4.4
		c7.1-2.4,14.1-3.9,21-4.7c3.5-0.4,7.6-1,11.9-1.6c2.2-0.2,4.4-0.4,6.7-0.5c2.2-0.1,4.4-0.2,6.2-0.3c0,1.4-0.3,2.8-0.6,4.5
		c-0.4,1.6-1.2,3-2.1,4.3c-1.7,2.7-4.1,5-5.8,6.7c-2.9,3-6.1,5.9-9.6,8.3c-3.5,2.4-7.1,4.5-10.6,5.8c-4,1.5-7.8,3-11.5,4.3
		c-3.8,1.2-7.4,2.6-11.4,3.2c-4.3,0.8-8.8,0.9-13.3,1.5c-4.5,0.5-9.1,1.2-13.3,2.7c-2.8,1-8.9,5.7-12,4.2
		C1098.3,282.5,1098.8,281.1,1098.2,282.6z"/>
	<path class="st0" d="M1156,165.7c-1.1,4.7-0.7,10.7-1.6,15.8c-1,5.4-3,10.6-5.5,15.5c-3.1,6.2-7.1,12.3-11.8,17.5
		c-4.7,5.3-9.8,9.9-15.2,13.7c-2.7,1.9-6,4.2-9.5,6.2s-7.5,3.3-10.4,4.2c0-1-0.1-2.5,0.3-3.6c0.2-0.6,0.3-1.2,0.5-1.8
		c0.1-0.7,0.3-1.3,0.6-1.9c1-2.5,2.4-4.7,3.3-6.5c3.1-6,7-12.6,11.3-17.5c4.9-5.5,9-11,14.1-16.1c5.5-5.6,12.3-10.3,17.1-16.9
		c1.6-2.2,3.6-8.8,6.4-9.5C1156,165.8,1156.1,167.1,1156,165.7z"/>
	<g>
		<path class="st4" d="M1016.4,0.2c0.1,0.1,0.2,0.2,0.3,0.3C1017.6,0.7,1017.9,0.9,1016.4,0.2z"/>
		<path class="st4" d="M1079.1,5.9c0.1,0,0,0,0.3,0l0,0h0.1c0,0,0.1,0,0.2,0c0.2,0,0.2,0,0,0c-0.1,0-0.1,0-0.2,0l0,0l0,0l0,0l0,0
			h-0.1H1079.1c-0.1-0.1-0.2-0.1-0.4-0.1c-0.8,0-1.8,0.7-2.1,1.4c0.1-0.3,0.4-0.5,0.7-0.7l0,0C1077.8,6,1078.6,5.8,1079.1,5.9z"/>
		<path class="st4" d="M1182.1,106.5c0,0.2,0,0.3-0.1,0.5C1182.4,108,1182.4,108.3,1182.1,106.5z"/>
		<path class="st4" d="M1223.3,155.6c-0.1,0.2-0.2,0.4-0.4,0.5C1222.7,157.7,1222.5,158.2,1223.3,155.6z"/>
		<path class="st4" d="M1007.2,504.9c2.3-0.9,4.4-2,6.6-3c1.3-0.6,2.6-1.3,3.8-1.9c3.3-1.7,6.5-3.4,9.2-5c2.8-1.6,5.6-3.3,8.4-5
			c2.8-1.8,5.6-3.6,8.2-5.7c5.4-4,10.6-8.5,15.6-13.2c9.9-9.5,18.9-20.2,25.8-31.5c5.5-9,10.4-18.5,13.3-28.4
			c0.7-2.4,1.2-4.8,1.8-7.3c0.6-2.5,0.9-5.2,1.5-7.7c1.2-4.9,2.2-9.7,4.1-13.9c-0.1-0.6-0.1-1.5-0.4-2.4c-3.1,0.1-5.9,3.2-8.3,6.9
			c-2.5,3.6-4.8,7.7-6.5,9.7c-2.7,2.9-5.6,5.6-8.6,8.2c-1.7,1.4-3.4,2.9-5.1,4.3c5.4-5.4,10.5-11.1,15.5-17
			c9.6-11.5,18.5-23.6,25.8-35.9c5.9-9.7,11.4-19.8,15.9-30c0.9-1.9,1.6-3.9,2.4-6c7-5.4,13.9-11.3,20.4-17.9c2-2,4-4.1,5.9-6.2
			c1.9-2.1,3.8-4.4,5.7-6.6c1.9-2.2,3.6-4.6,5.4-6.9l2.6-3.5c1-1.4,2-2.9,3-4.4c3.8-6,6.8-12.1,9.2-17.9c2.3-5.8,4-11.3,5.3-16.2
			c1.1-4,1.9-7.7,2.7-11.3c0.8-3.3,1.5-6.7,2.3-10c1.5-6.3,3.8-13,6.1-20.2c2.2-6.7,4.5-14.6,7.5-22.2c2.9-7.4,6.3-14.6,10.6-20.6
			c0.1-1,0.3-2.4,0.2-3.8c-4.6-0.7-9.9,3.3-15.3,7.9c-5.3,4.8-10.3,10.6-13.8,13.2c-10.2,8-21.8,15.7-32,27.1
			c-10.2,11.3-17.8,22.9-23.7,31.3c-2.7,3.8-5.1,7.1-7.6,9.8c-1.5,1.7-3.1,3.5-4.6,5.2c-0.9,1-1.8,2-2.6,3c1.6-2.7,3-5.4,4-7.9
			c1.1-2.8,1.9-5.4,2.6-7.8c0.5-1.9,0.9-3.7,1.3-5.4c0.1-0.6,0.3-1.2,0.4-1.8c4.7-3.8,9.2-7.9,13.4-12.4
			c10.8-11.5,19.8-25.1,26.2-38.9c5.1-11.1,8.5-23.1,9.8-34.8c0.6-5.5,0.4-11.7,0.2-17.6c-0.2-5.8-0.2-11.3,0.6-16.4
			c-0.2-0.7-0.6-1.6-1.1-2.5c-3.1,0.9-5.4,5-7.4,9.5c-1,2.2-2,4.5-2.8,6.6c-0.9,2.1-1.7,3.9-2.5,5.1c-4.5,7-10.4,13.2-16.5,18.9
			c3.7-8.1,6.8-16.6,8.9-25.1l0,0c0.8-3.1,1.4-6.2,1.9-9.2c0.5-2.3,0.9-4.6,1.1-7c0.5-3.6,0.8-7.2,1.1-10.8c0-0.6,0.1-1.2,0.1-1.8
			c0-1.7,0.1-3.4,0.1-5.2c0-2.7,0-5.5-0.2-8.2c-0.1-1.4-0.2-2.8-0.4-4.3c-0.1-0.6-0.2-1.3-0.3-1.9c-0.2-1.5-0.4-3-0.7-4.5
			c-0.2-0.9-0.3-1.8-0.5-2.7c-0.1-0.7-0.3-1.3-0.4-2c-0.3-1.3-0.6-2.6-0.9-3.9c-0.2-0.8-0.4-1.7-0.6-2.5c-0.3-1-0.5-2-0.7-2.9
			c-0.3-1.1-0.5-2.3-0.8-3.4c-0.2-0.9-0.4-1.7-0.6-2.6c-0.9-3.9-1.5-7.7-1.6-11.3c0.5,1,0.6,1.3,0-0.4v-0.1c0,0.1,0,0.3,0,0.4
			c0,0,0,0,0,0.1c-0.2-0.3-0.4-0.8-0.7-1.2c-0.2-0.4-0.5-0.8-0.8-1.1c-1,0.5-1.7,1.4-2.4,2.5c-0.4,0.6-0.8,1.3-1.1,2.1l0,0
			c-0.9,2.1-1.5,4.6-2,7.1c-0.5,2.6-1.1,5.3-1.5,7.7c-0.2,1.2-0.4,2.3-0.6,3.3c0,0,0,0.1,0,0.2c-0.2,1-0.4,1.8-0.7,2.5
			c-0.2,0.4-0.3,0.8-0.5,1.2c-1.7,4-3.5,7.8-5.5,11.5c-0.8,1.3-1.6,2.6-2.4,3.9c-1.2,2-2.4,4-3.7,5.9c-0.5,0.8-1,1.5-1.5,2.2
			l-3.4,4.8l-0.7,0.9c-1.3,1.8-2.5,3.6-3.8,5.3c-0.1,0.1-0.2,0.2-0.2,0.3c-1.4,1.8-2.7,3.7-4,5.5l-0.3,0.5l-1.5,2.3
			c-0.7,0.9-1.3,1.8-1.9,2.8c-1.2,1.9-2.3,3.7-3.4,5.6c-2.3,3.9-4.6,7.9-6.7,11.8c-0.1,0.2-0.2,0.4-0.4,0.7c1.2-6.1,1.8-12.2,2-18.3
			c0.2-4.7,0-9.4-0.3-14c-0.1-1.5-0.2-3-0.4-4.6c-0.8-8.1-2.3-15.9-4.1-23.3c-2.7-10.2-5.9-20-10.4-29.3c-2.1-4.4-4.9-9-7.4-13.7
			c-1.2-2.3-2.3-4.7-3.3-7.1c-0.5-1.2-0.9-2.3-1.3-3.6c-0.3-0.7-0.6-1.5-1.3-2.5c-0.2-0.2-0.4-0.5-0.7-0.7c-0.2-0.2-0.9-0.4-0.9-0.4
			c-0.6-0.2-1.2-0.1-1.7,0.2c-0.1,0-0.2,0.1-0.3,0.2c-0.5,0.4-0.6,0.9-0.7,1.3c0,0.5,0,0.9,0.3,1.4c0.1,0.2,0.4,0.5,0.7,0.7
			c-0.1,0.2-0.2,0.4-0.4,0.7c-0.1,0.5-0.2,1.1-0.3,1.6c-0.1,1.1-0.3,2.2-0.3,3.4c-0.1,4.6,0.5,9.5,0.2,12.2c-0.4,4.1-1,8.2-1.8,12.3
			c-0.7,4.1-1.5,8.3-2.2,12.4c-0.5,2.8-1,5.5-1.4,8.2c-2.7-7.2-5.9-14.2-9.8-20.6c-2.8-4.6-6-9.1-9.5-13.1s-7.4-7.6-11.4-10.7
			c-7.5-5.7-17.4-10-24.1-15.8c-0.6-0.2-1.4-0.4-2.2-0.5c-1.2,5,8.3,14.1,10.7,18.5c3.7,6.6,6.2,13.7,8,20.7s2.8,13.9,4.3,20.7
			c1.4,6.3,2.7,12.5,4,18.6c1.3,6.2,2.6,12.6,3.8,19.4c0.1,0.9,0.3,1.9,0.5,2.8c1,5.1,2.8,10.5,4.7,15.8c2.3,6.2,4.9,12.4,7.5,18.1
			c0.7,1.7,1.6,3.7,2.6,5.8c1,2.1,1.9,4.3,3.3,6.4c0.3,0.6,0.7,1.1,1,1.6c1,1.5,2.1,3,3.3,4.3c0.1,0.1,0.2,0.2,0.4,0.4
			c0,0.3,0,0.5,0,0.8c-0.2,1.4-0.4,2.8-0.6,4.4c-1,6.7-2.5,15.1-0.9,22.3c2.7-1.1,6.1-2.5,9.4-4.6c1.2-0.8,2.4-1.6,3.6-2.5
			c-2.2,4.9-4.3,9.8-6.3,14.5c-1.8,4.1-4.4,9.6-6.4,15.2l-0.7,2.1c-0.2,0.8-0.3,1.5-0.4,2.3c-0.4,1.4-0.8,2.9-1,4.3
			c-0.3,1.5-0.6,2.8-0.3,4.5c0,0.4,0,0.7,0.1,1.2c0,0.3,0,0.7,0.1,1.1c0.1,0.7,0.1,1.4,0.2,2.1c0.9-0.2,1.7-0.5,2.7-0.7
			c0.9-0.3,1.9-0.6,3-0.8c1.8-0.4,3.6-1,5.5-1.6l1-0.3c3.5-1.1,6.8-2.6,10-4.4c-4,5.3-7.9,10.8-11.5,16.2c-1.2,1.8-2.6,3.8-4.1,6
			c-0.7,1.1-1.5,2.2-2.3,3.4c-0.7,1.2-1.4,2.5-2.1,3.8c-1.4,2.5-2.7,5-3.7,7.5c-0.8,2.7-1.4,5.3-1.5,7.9c3.3-0.4,7.4-0.8,11.5-1.6
			c2.1-0.4,4.1-1,6.3-1.5c0.7-0.2,1.4-0.4,2.1-0.6c-4.2,4.7-8.5,10.2-12.3,16c-0.7,1.1-1.5,2.3-2.2,3.4c-0.7,1.1-1.3,2.2-1.9,3.2
			c-0.8,1.4-1.7,3-2.6,4.7c-0.5,0.8-0.9,1.8-1.4,2.7c-0.4,1-0.8,2-1.1,2.9c-0.7,1.9-1.4,3.9-1.7,5.8c-0.2,2-0.2,3.9,0,5.5
			c2.2-1,4.6-2.1,7.2-3.3c2.5-1.3,5.2-2.6,7.7-4c5.1-2.8,9.9-5.9,14-8.4c2.4-1.4,4.9-3,7.3-4.6c1.7-1.1,3.4-2.3,5.1-3.6
			c0.9-0.6,1.8-1.3,2.6-2c-1.2,1.2-2.3,2.4-3.5,3.6c-13.8,13.8-28.1,33.2-39.1,52.3c-0.1,0.1-0.2,0.3-0.3,0.4
			c-1.6,2.8-3.5,6.2-5.4,9.8c-1,1.8-1.9,3.6-2.8,5.6s-1.6,4-2.3,6.1c-1.5,4-2.8,8.1-3.6,12c-0.5,4.1-0.5,8,0.1,11.4
			c2.9-1.3,6-2.7,9.3-4.3c1.8-0.9,3.7-1.8,5.6-2.7c2.5-1.4,5.2-2.7,7.9-4.1c-4.9,6-9.6,12.2-14.6,18.4c-1.9,2.3-3.7,4.7-5.4,7.2
			c-6.9,10-12.8,21.6-18,32.1c-1,2-2.1,4.2-3.2,6.7c-0.6,1.2-1.1,2.5-1.7,3.8s-1.1,2.6-1.6,4c-0.2,0.7-0.4,1.4-0.6,2.1
			c-0.3,0.7-0.5,1.4-0.7,2c-0.4,1.3-0.8,2.7-1.2,3.9c-0.6,2.6-1,5.1-1,7.3c2.1-0.8,4.3-1.9,6.7-3.1c1.1-0.6,2.2-1.2,3.3-1.8
			c1.8-1,3.6-2.1,5.4-3.1c1.8-1.1,3.6-2.3,5.4-3.5c2.1-1.4,4.2-2.9,6.2-4.5c-7.3,7.4-14.2,15-21.9,22.4c-4.5,4.3-8.8,9.4-13,14.7
			c-0.6,0.8-1.3,1.6-1.9,2.4c-1.5,1.9-2.9,3.7-4.3,5.6c-2,2.8-3.9,5.5-5.8,8.1c-1.1,1.6-2.5,3.3-3.8,5.3s-2.7,4.1-4.1,6.2
			c-2.8,4.1-4.9,8.8-5.6,12.6c2.9-0.4,6.2-1.2,9.7-2.3C1000.2,507.9,1003.7,506.4,1007.2,504.9z M1078,9.4c-0.1-0.2,0-0.3,0.1-0.4
			s0.2-0.2,0.3-0.2c0,0.1-0.1,0.2-0.1,0.3l0,0l0,0l0,0c0,0,0,0.1-0.1,0.1c0,0.1-0.1,0.1-0.1,0.1C1078.2,9.3,1078.1,9.4,1078,9.4
			C1078.1,9.4,1078.1,9.4,1078,9.4z"/>
		<path class="st4" d="M1105.6,381.9c-0.1,0.1-0.1,0.3-0.2,0.4C1105.5,383.2,1105.5,383.5,1105.6,381.9z"/>
		<path class="st4" d="M1079,465.9c-0.1,0.1-0.1,0.2-0.2,0.3C1078.7,467,1078.7,467.2,1079,465.9z"/>
		<path class="st4" d="M960.9,614.4c-0.4,0.1-0.8,0.1-1.2,0.2c-2.8,0.5-5.6,0.9-8.3,1c-3.1,0.1-5.9,0-8.4-0.3c1.4-3,3.7-6.7,6.7-9.4
			c1.5-1.4,2.9-2.9,4.2-4.3c1.3-1.4,2.6-2.6,3.7-3.7c1.6-1.7,3.2-3.4,4.8-5.1c2.1-2.2,4.2-4.4,6.3-6.5c3.8-3.8,7.5-7.5,11.2-10.7
			c8.3-7.3,14.9-15.2,22.3-23.2c2.1-2.1,4.2-4.3,6.6-6.4c0.3-0.3,0.5-0.5,0.8-0.8c-2.1,0.9-4.2,1.6-6.3,2.4
			c-2.2,0.7-4.6,1.5-7.2,2.2c-3.3,0.9-6.8,1.7-10.2,2.4c-3.1,0.5-6.2,0.9-9.1,1s-5.7-0.2-8-0.4c1.3-3.1,3.9-6.1,6.7-8.8
			c2.8-2.9,5.9-5.3,8.1-7.4c0.8-0.8,1.6-1.6,2.5-2.4c6.7-6.4,14-12.9,21-18.1c8.9-6.5,16.8-13.4,25.8-20c4.9-3.6,10.3-6.8,15.9-9.9
			c2.7-1.6,5.5-3.3,8.2-5c2.6-1.8,5.2-3.6,7.7-5.6c1.6-1.4,4-4.3,6.5-6.9c2.5-2.6,5.1-4.7,7.6-4.3c0.1,0.7,0.1,1.5,0,2
			c-2.1,3-3.5,6.8-4.9,10.6c-1.4,3.9-2.7,8-4.3,11.5c-3.4,7.5-7.9,14.8-13.2,21.4c-4.2,5.2-8.9,10.2-14.1,14.9
			c-0.4,0.7-0.7,1.4-1,2.1c-1.5,3.7-2.2,7.7-3.1,11.2c-1,3.8-1.9,7.7-3.2,11.7c-1.3,4-2.9,8.1-4.9,12.3
			c-4.9,10.6-12.5,20.6-21.6,28.7c-9,8.2-19.3,14.5-29.7,18.5C973.9,611.1,967.4,613.2,960.9,614.4z"/>
		<path class="st4" d="M1039.4,596.2c-0.1,0-0.2,0.1-0.3,0.1C1038.6,596.9,1038.5,597,1039.4,596.2z"/>
		<path class="st4" d="M879.4,758.1c0.9-3.2,2.2-6.9,3.9-10.8c1.7-3.9,3.8-7.9,6.1-12c4.6-8.2,10.2-16.1,15-22.5
			c2.9-3.9,6.1-7.8,9.5-11.6c7.7-8.6,16.4-16.8,25.8-24.1c3.3-2.6,6.7-5,10.1-7.3c-4.1,0.6-8.7,1-13.5,1c-1.3,0-2.6,0-3.9,0
			c-3.3-0.1-6.5-0.4-9.5-0.9c-3-0.6-5.8-1.3-8.1-2.2c2-2.6,5.1-5.6,8.6-7.7c1.7-1.1,3.5-2.2,5.1-3.3c1.6-1,3.2-2,4.5-2.8
			c3.2-2.1,6.4-4.3,9.7-6.4c1.3-0.8,2.5-1.6,3.8-2.4c4.5-2.9,9-5.6,13.3-7.9c9.7-5.2,18-11.5,27-17.5c2.6-1.6,5.1-3.2,7.8-4.7
			c2.8-1.7,5.7-3.4,8.5-5.1c5.9-3.5,12.3-7,18.6-10.3c2.1-1.1,5.5-3.7,9.3-5.1c1.9-0.8,3.8-1.2,5.4-1.2c1.7,0,3.1,0.5,3.9,1.4
			c-0.4,0.7-0.8,1.3-1.1,1.7c-3.4,1.3-6.3,4-8.5,7.2c-2.3,3.3-3.9,7-5.5,10.2c-1.8,3.4-3.6,7-5.7,10.6c-2.2,3.6-4.6,7.2-7.5,10.9
			c-3.6,4.6-7.9,9-12.6,12.9c4.6-1,9-1.7,13.3-2.4s9.1-1.1,13.9-2.6c4.7-1.4,9.5-3.8,13.2-7.4c0.6-0.2,1.5-0.5,2.4-0.7
			c0.3,1.4-0.3,3.2-1.5,5.3c-1.3,2-3.1,4.2-5.2,6.1c-4.2,4-9.2,7.1-11.8,9.2c-7.8,6.3-15.9,12.6-23.6,18.4
			c-3.7,2.8-7.5,5.6-11.1,8.3c-3.5,2.7-6.9,5.1-10.3,7.6c-12.5,8.5-24.6,16-36.7,25.7c-5.3,4.3-11.3,8.6-17.4,13
			c-6.1,4.4-12.4,8.7-18.4,12.8c-1.8,1.3-3.8,2.7-6,4.3c-2.2,1.5-4.6,3.2-6.9,4.9c-3.6,2.7-7.7,5-11.2,6.4
			C881.1,757.5,880.2,757.8,879.4,758.1z"/>
		<path class="st4" d="M1039.7,635.7c0.1-0.1,0.2-0.2,0.3-0.3C1038.5,636.2,1038.7,636.1,1039.7,635.7z"/>
	</g>
	<path class="st5" d="M1109.4,93.4c2,8.2,0,19.8-1.9,28c-1,4.4-3.9,8.1-6.1,12c-4.2,7.3-7.8,14.8-11.2,22.5
		c-2.4,5.4-10.4,13.1-10.1,19.1c0.7-0.9,1.1-2.1,1.1-3.2c-2.7,3.3-7.6,5-11.7,6.1c13-9.2,19.5-24.7,24.6-39.3
		c3.3-9.4,6-19.1,9.2-28.5C1105.2,104.5,1109.3,98.9,1109.4,93.4z"/>
	<path class="st5" d="M1071.3,61.1c0.4,5.5-1.7,12.2-2.1,17.9c-0.2,3.3-1,6-1.8,9.2c-0.8,3.7-0.2,7.4-0.2,11.1
		c0.1,13.7,0.2,28.1,3.5,41.3c1.4,5.7,0,8.3-1.1,13.6c-0.5-7.5-2.4-12.1-8.6-16.7c4.3-2.9,2.7-12.2,2.6-16.5
		c-0.2-9.6-2.6-19.4-2.3-28.9c0.3-10,3.6-19.8,3.7-29.9c0.1-6.6-1.1-13.7-3.2-19.9C1063.2,43.9,1075.5,58.9,1071.3,61.1z"/>
	<path class="st5" d="M1153.9,139.9c-7.6,12-22.9,19.2-33.3,29.4c-11.3,11.1-23.1,23.5-30.2,37.5c-3.7,7.2-10.7,8.7-18.8,10.9
		c13.3-9.6,19.8-23.7,30.2-36.5c14.6-17.9,35.2-30,48.6-48.6c4.6-6.4,8.5-13.1,12.4-19.6c-0.5,6.3-3.1,13.1-5.8,18.9
		C1155.4,135.4,1152.1,139.9,1153.9,139.9z"/>
	<path class="st5" d="M1130.1,226.9c0.6-0.3,1.3-0.4,1.9-0.6c-9,5.8-17.4,12.5-26.5,18.3c-8.6,5.5-19.5,7.2-27.2,14.3
		c-4.1,3.8-7.7,7.1-11.1,11.8c12.8-5.7,24.8-16.1,36.8-23.6C1113.6,241.1,1122.6,233.6,1130.1,226.9z"/>
	<path class="st5" d="M1129.1,232.3c-5.2,10.5-13.2,18.8-21.8,25.9c-4.2,3.4-9.1,6.9-13.6,10.7c-5.1,4.3-8.9,9.7-14,14.1
		c-4.4,3.8-9.7,7.4-13.1,11.8c6.5-1.7,12-7.5,17.8-10.5c5.1-2.7,10.2-4.9,14.4-8.8c5.1-4.7,9.2-10.2,14.7-14.6
		c4.5-3.6,8.5-6.9,11.1-12C1127.1,244,1131.1,237.4,1129.1,232.3z"/>
	<path class="st5" d="M1078.2,406.9c-15,7-24.3,21.1-37,31c-3.5,2.7-7.1,4.6-10.7,7.2c9.2-9.9,13.3-22.7,23.8-31.4
		c12.7-10.5,31.9-14.5,42.2-27.8C1093.4,391.9,1087.6,397.1,1078.2,406.9z"/>
	<path class="st5" d="M1008.1,547c12-14.1,35.1-18,44.9-34.2c-3.8-0.2-9.5,5.5-13.4,7.5c-4.4,2.2-9.2,3.3-13.7,5.3
		c-8.4,3.5-12.6,11-19.7,16.3c-7,5.2-21.6,10.9-29.9,10.5C988.1,552,999.1,551.2,1008.1,547z"/>
	<path class="st5" d="M948.7,670.1c9.9-4.8,17.8-12.4,28.7-16.1c5.2-1.8,10.6-3.9,15.8-4.9c6.1-1.1,8.2-2.6,12.7-7.1
		c3.8-3.9,6.7-8.6,7.7-14c-6.9,6.3-13.1,9.9-22.4,12.7c-5.7,1.8-11.3,1.6-16.9,2.9c-6,1.4-11.6,5.6-17,8.4
		c-8.9,4.7-16.8,11-26.7,12.9c-5.4,1-10.9,1-16.1,1.5C920,674.3,943.2,673,948.7,670.1z"/>
	<path class="st5" d="M1053.2,370.1c4.2-1.5,10.1-4.2,13.5-7c3.9-3.2,7.1-8.6,10.3-12.7c10.8-13.8,23.5-28,37.5-38.6
		c4.4-3.3,8.2-7.3,12.4-10.8c3.3-2.8,9.2-5,11.4-8.6c0.4,5.4-0.5,11.2-1.1,16.6c-0.4,3.6-1.2,7.6-1.2,11c5.6-4.9,12.2-9.6,16.8-14.9
		c-9.4,2.5-7.7-12.4-11.6-17.3c-7.3,1.5-13.8,7.3-19.6,11.6c-11.6,8.6-20.9,19.7-31.8,29.2c-11,9.5-21.9,19-29.5,31.4
		c-2.1,3.5-4.6,6.3-7.8,8.7c-1.5,1.1-3.2,2.2-4,3.7C1051.2,371.7,1054.4,370.3,1053.2,370.1z"/>
	<path class="st0" d="M1093.7,305.9c0,0-0.1,0.2-0.3,0.6l-0.2,0.1C1093.6,306.1,1093.7,305.9,1093.7,305.9z"/>
	<path class="st0" d="M1077.1,353.4c-0.1,0.1-0.2,0.2-0.3,0.3C1077.5,352.2,1077.4,352.4,1077.1,353.4z"/>
	<path class="st0" d="M1061.6,388.2c0,0.1-0.2,0.3-0.5,0.7c-0.1,0.1-0.3,0.1-0.4,0.2C1061.2,388.5,1061.5,388.2,1061.6,388.2z"/>
	<path class="st0" d="M1048,422.9c0,0.1-0.2,0.3-0.5,0.8c-0.2,0.1-0.3,0.2-0.4,0.2C1047.6,423.3,1047.9,423,1048,422.9z"/>
	<path class="st0" d="M1042.5,451.9c0,0.1-0.2,0.3-0.5,0.8c-0.1,0.1-0.3,0.2-0.4,0.2C1042.2,452.2,1042.5,451.9,1042.5,451.9z"/>
	<path class="st0" d="M1016,493.5c0,0.1-0.2,0.4-0.5,0.9c-0.1,0.1-0.3,0.2-0.5,0.3C1015.6,494,1015.9,493.6,1016,493.5z"/>
	<path class="st0" d="M996,526.2c-0.1,0.1-0.4,0.4-0.7,0.8c-0.2,0.1-0.3,0.2-0.5,0.3C995.6,526.6,995.9,526.2,996,526.2z"/>
	<path class="st0" d="M966.6,561.1c-0.2,0-0.4,0.1-0.6,0.2C968,559.9,967.6,560.1,966.6,561.1z"/>
	<path class="st0" d="M950,605.9c-0.1,0.1-0.4,0.4-0.7,0.8c-0.2,0.1-0.4,0.2-0.6,0.2C949.5,606.3,949.9,605.9,950,605.9z"/>
	<path class="st0" d="M937.8,628.8c-0.1,0.1-0.3,0.4-0.7,0.9c-0.2,0.1-0.4,0.2-0.5,0.3C937.3,629.2,937.7,628.8,937.8,628.8z"/>
	<path class="st0" d="M936.7,659.2c-0.1,0.1-0.3,0.2-0.4,0.4c0.5-0.8,0.8-1.2,0.9-1.4C937.1,658.3,936.9,658.7,936.7,659.2z"/>
	<path class="st0" d="M910,702c-0.1,0.1-0.3,0.4-0.7,0.8c-0.2,0.1-0.4,0.2-0.5,0.3C909.5,702.5,909.9,702.1,910,702z"/>
	<path class="st0" d="M911.3,721.2c-0.1,0.1-0.3,0.4-0.5,0.7c-0.1,0-0.3,0.1-0.4,0.2C910.9,721.6,911.1,721.3,911.3,721.2z"/>
	<path class="st3" d="M1148.9,309.6c2.1-0.9,6.3-2,9.2-3.1c3.4-1.3,6.2-0.1,9.2-0.8c2.6-0.6,6.1-3.6,8.6-4.9c3-1.6,5.9-2.8,8.8-4.4
		c3.5-2.1,7.4-4.4,10.1-7.3c-7.4,2.3-14.2,7.1-21.8,9.3c-3.7,1.1-11,3.3-14.6,1.9c-2.3,3-6.4,6.9-9.5,9
		C1149,309.7,1149.3,309.9,1148.9,309.6z"/>
	<path class="st3" d="M1136.1,320c-3.8,9.8-9.2,19.5-14.3,28.9c3.4-0.5,7.6,0.6,11,0.4c5.1-0.3,10-1.5,15.1-2.5
		c9.1-1.8,18.3-4.7,27.5-6.4c7.1-1.3,13.8-4.2,20.4-7.1c-6.1-0.2-14.7,2.8-20.7,4.9c-7.1,2.4-14.6,4.4-22,5.9
		c-4.6,1-15.6,3.9-19.6,0.5c-3.9-3.2-1.2-8.8,0.3-12.5C1135.6,328,1137.3,323.7,1136.1,320z"/>
	<path class="st3" d="M1118.6,355.4c0.1-0.1,0.6-0.7,1.7-0.5c-2.4,4.3-5.9,8.8-8.9,13.1c-3.8,5.5-6.1,8.2-2.3,14
		c3.6,5.6,17.4,3.2,23.3,2.9c11.5-0.8,22.6-3.2,33.8-5.4c9.9-2,21.4-5.3,31.1-5.7c-4.8,4.2-14.6,4.3-20.7,5.2
		c-3.8,0.6-6.6,2.2-10.3,3.1c-5.5,1.4-11.4,1.5-16.9,2.8c-9.8,2.2-19.4,4-29.4,3.7c-4.5-0.1-9,0-13.5-0.1c-2.5-0.1-7.6,0.4-9.7-0.6
		c-3.5-1.6-1.7-3.7,0.2-6.7c2.8-4.5,5.6-8.9,8.5-13.3C1107.8,364.3,1112.4,356.6,1118.6,355.4z"/>
	<path class="st3" d="M1091.9,424c8.7,3.2,18.8,1.5,27.7,0.8c10.5-0.9,20.7-3.5,31-6c23.8-5.8,47.5-12.4,71.6-15.6
		c7.9-1.1,16.8-4.6,21.3-11.9c-4,6.3-18.8,7-25.3,7c-8.9-0.1-17,0.7-25.7,2.4c-9.2,1.8-17.8,5.7-26.8,8.4
		c-11.3,3.3-22.3,5.1-33.9,6.1c-6,0.5-14.7,3.7-20.5,1c-6.3-2.9-7.4-14.6-8.2-20.7c-2.3,2.6-2.2,10.4-3.5,14.1
		c-1.7,5-4.8,9.5-6.4,14.4C1093.7,423.5,1094.2,422.9,1091.9,424z"/>
	<path class="st3" d="M1027,570c2.8-0.5,7,1.6,9.9,2.2c3.5,0.7,7,0.9,10.6,1.6c9.4,1.7,19.9-0.6,29.2-2.5c18.2-3.8,37.7-7,56.3-5.8
		c6.6,0.4,13.2,0,19.7,1c3.6,0.6,6.8,1.1,10.2,0.9c4.1-0.3,8.1-2,12.2-3.4c4.7-1.6,9.5-1.8,14.1-3.8c-3,0.4-6.9,1.1-10.2,1.7
		c-5.8,1.1-11.3,0.3-17.1,0.2c-16.6-0.2-33.2-2.7-49.8-0.9c-16.2,1.8-31.3,7.4-47.4,9.7c-10.6,1.6-19.7,2.2-24.9-8.5
		c-2-4-2.5-7.4-1.7-11.8c0.5-2.7,1.5-5.5,0.9-8.1c-2.6,0.2-1.8,3.1-2,5c-0.2,2.7-1,4.9-1.8,7.6C1033.8,558.9,1026.1,568,1027,570z"
		/>
	<path class="st3" d="M1136.1,602c-3.7-3.5-14.6-3.6-20.1-3.9c-7-0.4-13.9,0.7-20.8,0.9c-16.8,0.3-33.9,2-50.2,5.6
		c-6.2,1.4-12,3.2-18.1,5c1.2-4.8,4.3-9.1,8.7-11.7c1.2-0.7,5.2-1.6,5.1-3.5c-0.2-2.6-4.6-1.4-6-1.1c-6.6,1.4-11.4,6.1-17.1,9.1
		c-4.6,2.5-10.8,7-15.8,8.2c-4.4,1-12.1,0.1-15.7-2.7c0.1-3.4,6.9-6.1,9.3-8.1c3.8-2.9,7.4-6.1,10.9-9.3c3.2-2.9,5.5-6.8,8.7-9.5
		c3-2.5,6.2-2,10.1-2c-2.4,5.4-10.9,8.2-13.3,14.4c-2,5.3,2.8,4,6.3,2.5c8.1-3.5,14.5-7,23.5-7.6c2.9-0.2,8.7-1.2,10.4,2.3
		c2.1,4.4-7.1,4.5-5.9,8.4c24.3-4.6,50.2-8.7,75-6.5c16,1.4,30.7,2.3,46.2-1.8c-1.4,3.7-13.3,5.7-17,6.6
		C1147.5,598.3,1138.1,599.1,1136.1,602z"/>
	<path class="st3" d="M1009.8,637.6c1.1-1.8,6.9-1.8,9.5-2.2c6-1,11.5-1.1,17.6-0.9c7.9,0.2,15.8,0.8,23.7,1.2
		c9.2,0.6,18.1-0.2,27.3-1.3c5.7-0.7,11.7-0.7,17.4-1c-6.8-1.9-16.4-0.1-23.5,0.1c-10.3,0.2-20.5-1.2-30.8-1.3
		c-7.4-0.1-17.2,1-22.8-4.8c-2.6-2.7-5.3-7.4-4.8-11.1c0,4.1-3.9,7.7-6.2,10.9C1015.8,629.3,1009.8,635.8,1009.8,637.6z"/>
	<path class="st3" d="M1016.6,670.7c1.9-1.8,6.7-1,9.4-1.3c3.7-0.4,7.4-1.1,11.2-1.1c8.7,0,17-0.1,25.7,0.7
		c7.5,0.7,15.2,0.9,22.5,2.5c5.1,1.1,10.4,2.5,15.6,3c5.7,0.5,11.9-2.2,17.5-1.7c-5.9-1.4-11.8-1.8-17.7-3.3
		c-9.2-2.3-17.4-4.6-27-5.1c-9.1-0.4-18.1,0-27.1-1c-4.8-0.5-10-1-12.8-5.4c-2.1-3.2-0.5-5.5,0.1-8.9c-3.9,0-9,5.2-12.2,7.5
		c-4,2.9-11.8,6.7-14.2,10.7C1010.9,668,1014.2,669.9,1016.6,670.7z"/>
	<path class="st3" d="M959.1,704.9c1.1-2,18.7,0.8,22,0.8c11,0,22,0.1,33,0.1c8.3,0,16-1.2,24.2,0.4c5.8,1.1,10.6,0.8,16.5,0.3
		c7.9-0.6,15.7-1.1,23.6-1c-8.6,1.3-19.6,0.8-28.2-0.7c-12.6-2.3-24.8-2.9-37.5-3.7c-9-0.6-22.3-3.5-16.2-15.7
		c1.6-3.2,8.9-10,7.5-13.7c-3.3,0.7-6.9,5.1-9.7,7.1c-4.2,3-8.3,6.1-12.4,9.1c-4,3-8.3,5.6-12.4,8.4c-2.7,1.8-9.9,5-11,7.7
		c4.4,1.7,10.2,1.8,14.9,2.4c9.1,1.2,18.1,0.8,27.2,0.1c8.2-0.6,16.4-2.1,24.6-1.8c5.9,0.3,11.6,2.7,17.5,2.8L959.1,704.9z"/>
	<path class="st3" d="M952.3,707.2c2,3.3-6.6,9.2-3.2,14.4c3.4,5.3,13.2,5.4,18.6,6.3c10,1.7,19.7,5.4,29.9,6
		c14.3,0.8,28.2,4.8,42.4,5.7c10.1,0.6,20.3,1.8,30.2,2.6c-8.9,2.2-19.2,1.5-28.2,0.4c-9.6-1.2-19.6-0.9-29.4-2.1
		c-8.7-1.1-18-1.8-26.8-1.9c-9.2-0.1-15.8-3.6-24.2-6.8c-11.1-4.3-21.7-4.4-33.2-5.1c1-3.7,5.3-5.2,8.3-6.9
		C941.3,717.2,948.4,712.7,952.3,707.2z"/>
	<g class="st6">
		<path class="st7" d="M1239.4,312.9c-9-0.1-18,0.7-27.2,1.7c-9.1,1-18.3,2.5-27.4,4.4s-18,4.2-26.7,6.8s-17.1,5.8-25,8.9
			c8.6-2.3,17.3-4.9,26-7.1c8.7-2.2,17.6-4.3,26.4-6.1c8.9-1.8,17.8-3.5,26.8-5C1221.3,315.2,1230.3,313.8,1239.4,312.9z"/>
	</g>
	<g class="st6">
		<path class="st7" d="M1242.9,346.9c-11.1-2.2-23.2-1.6-34.8,0.4c-11.7,2-23.1,5.1-34.2,8.2c-5.6,1.5-11.1,3-16.6,4.3
			s-11.2,2.5-16.8,3.9c-5.6,1.4-11.2,3-16.3,5.2c-2.6,1.1-5,2.3-7.3,3.7c-1.1,0.7-2.2,1.4-3.3,2.1c-1.1,0.7-2,1.6-3.1,2.1
			c1.2-0.4,2.2-1.3,3.4-1.8c1.1-0.6,2.3-1.2,3.5-1.8c2.4-1.1,5-2.1,7.6-3c5.3-1.8,10.8-3,16.4-4.1s11.3-2,16.8-3.2
			c5.6-1.2,11.1-2.6,16.6-4.1c11-3,22.1-6.3,33.4-8.8C1219.7,347.5,1231.4,346,1242.9,346.9z"/>
	</g>
	<g class="st6">
		<path class="st7" d="M1239.4,389.3c-11.5,0.6-23.2,2.4-35,3.8c-5.9,0.7-11.8,1.6-17.8,2.3c-5.9,1-11.8,2-17.6,3.1
			c-11.7,2.1-23.3,4.4-34.8,6.6c-5.8,1.1-11.5,2.3-17.1,3.8c-5.5,1.5-10.7,3.6-15.5,5.3c5.2-1.3,10.6-2.8,16.3-3.9
			c5.7-1.1,11.5-1.9,17.3-2.7c11.6-1.6,23.1-3.7,34.7-5.8l17.3-3.3c5.8-1,11.6-2.1,17.4-3.2C1216.1,393.5,1227.7,391.1,1239.4,389.3
			z"/>
	</g>
	<g class="st6">
		<path class="st7" d="M1218.7,411.9c-11.5,2-23.2,4.4-34.9,7.1c-11.7,2.6-23.3,5.6-34.9,8.7c-11.6,3.2-23.1,6.5-34.4,10.1
			c-5.6,1.8-11.4,3.6-16.6,6c-2.6,1.2-5.1,2.5-7.3,4c-1.1,0.8-2.1,1.6-3.1,2.4c-1,0.8-1.8,1.8-2.8,2.5c1.1-0.6,2-1.5,3.1-2.2
			s2.2-1.4,3.4-2c2.4-1.3,5-2.4,7.6-3.3c5.4-2,11.1-3.3,16.8-4.8c11.5-2.9,22.9-6,34.3-9.1s22.8-6.3,34.3-9.4
			C1195.8,418.5,1207.2,415.3,1218.7,411.9z"/>
	</g>
	<g class="st6">
		<path class="st7" d="M1220.1,447.8c-12,1.1-24.3,2.9-36.4,5.7c-6.1,1.4-12.1,3.1-18.1,4.9c-6,1.8-12,4-17.7,6.1s-11.3,4.1-17,5.6
			c-5.7,1.6-11.6,2.9-17.6,4s-12,2.1-17.8,3.3c-2.9,0.6-5.8,1.2-8.7,1.9l-4.3,1c-1.4,0.3-2.8,0.8-4.2,0.8c1.5,0.1,3-0.2,4.4-0.4
			l4.5-0.6c3-0.4,6-0.8,9-1.1c6-0.7,12.1-1.3,18.1-2.1s12.1-1.8,17.9-3.2s11.5-3.4,17.2-5.5c11.4-4.2,23.1-8.3,34.8-11.7
			C1196.1,453.2,1208.1,450.4,1220.1,447.8z"/>
	</g>
	<g class="st6">
		<path class="st7" d="M1245.1,508.8c-3.5-1.4-7.3-2.9-11.2-3.7c-4-0.8-8.1-1.3-12.2-1.4c-8.3-0.2-16.7,0.8-24.7,2.2
			c-8.1,1.5-15.8,3.4-23.4,4.9c-7.7,1.5-15.4,3-23.1,4.2c-15.5,2.4-31.2,3.9-46.9,4.7c-7.9,0.4-15.7,0.6-23.6,0.7
			c-3.9,0-7.9,0-11.8-0.2c-2,0-3.9,0-5.8-0.3c-1.9-0.2-3.9-0.3-5.6-1c1.8,1,3.8,1.2,5.7,1.7c1.9,0.5,4,0.6,6,0.9c4,0.5,8,0.8,12,1.2
			c8,0.5,16,0.8,23.9,0.9c7.9-0.1,15.8-0.4,23.7-0.9c7.9-0.6,15.7-1.5,23.4-2.6c7.8-1.2,15.5-2.7,23.1-4.4s15.2-3.8,23.1-5.7
			c7.8-1.8,15.8-3.4,23.9-3.9c4-0.2,8.1-0.1,12.1,0.3C1237.5,506.7,1241.3,507.8,1245.1,508.8z"/>
	</g>
	<g class="st6">
		<path class="st7" d="M1206.3,548.3c-13.4-3.4-27.4-5.9-41.6-7.5c-14.3-1.6-28.7-2.3-43.2-2c-7.2,0.2-14.5,0.5-21.6,1.1
			c-7.2,0.7-14.3,1.7-21.2,3.1c-6.9,1.4-13.7,3.1-20.3,5.1c-3.3,1-6.5,2.1-9.7,3.2l-4.7,1.7c-1.6,0.6-3.1,1.1-4.7,1.2
			c1.7,0,3.4-0.3,5-0.8l5-1.3c3.3-0.8,6.7-1.6,10.1-2.3c6.8-1.5,13.6-2.7,20.5-3.7s13.9-1.8,20.9-2.2s14-0.7,21.1-0.9
			c14.1-0.3,28.2,0.1,42.3,1C1178.3,544.9,1192.3,546.3,1206.3,548.3z"/>
	</g>
	<g class="st6">
		<path class="st7" d="M1179.8,579.3c-12.5-2-25.5-3.5-38.7-3.9c-13.2-0.5-26.5-0.2-39.8,1.1c-13.2,1.3-26.3,3.4-39,6.5
			c-6.3,1.6-12.5,3.4-18.5,5.4c-3,1-5.9,2.1-8.9,3.1c-2.9,1-5.8,2.2-8.7,2.6c1.6,0,3.1-0.3,4.6-0.6l4.6-1.1c3.1-0.8,6.2-1.6,9.2-2.4
			c6.2-1.5,12.5-2.9,18.8-4.1c12.6-2.5,25.4-4.3,38.3-5.5s25.9-1.9,38.9-2C1153.9,578.1,1166.9,578.6,1179.8,579.3z"/>
	</g>
	<g class="st6">
		<path class="st7" d="M1166.8,613.5c-11.7-0.4-23.7-0.8-35.8-0.6c-12,0.1-24.2,0.7-36.3,1.4c-6,0.4-12.1,0.9-18.1,1.4s-12,1.1-18,2
			c-5.9,0.9-11.8,2.1-17.4,3.7c-2.8,0.8-5.5,1.7-8.1,2.7c-2.6,0.9-5.1,2.1-7.6,3c2.7-0.6,5.3-1.5,8.1-2.2c2.8-0.7,5.6-1.4,8.4-1.9
			c5.7-1.1,11.6-1.9,17.5-2.4c11.8-1.1,23.8-1.7,35.6-2.5c11.9-0.8,23.8-1.5,35.7-2.3C1142.8,615,1154.8,614.4,1166.8,613.5z"/>
	</g>
	<g class="st6">
		<path class="st7" d="M1171.9,664.5c-2.8-0.4-5.5-1.3-8.3-1.9c-2.8-0.7-5.6-1.3-8.4-1.8c-5.7-1.2-11.4-2.1-17.2-3
			c-11.5-1.6-23.2-2.8-35-3.1c-11.7-0.3-23.4-0.2-34.9,0.4c-5.7,0.3-11.4,0.8-17.1,1.3c-2.8,0.3-5.7,0.6-8.3,0.9
			c-1.3,0.2-2.4,0.4-3.2,0.8c-0.8,0.4-1.1,1-1.3,1.2c0.3-0.1,0.6-0.5,1.5-0.8c0.8-0.2,2-0.3,3.3-0.4c2.8,0,5.7-0.1,8.5-0.1
			c5.7,0,11.4-0.1,17.1-0.1c11.4,0,22.9,0.2,34.4,0.6c11.5,0.4,22.9,1.2,34.4,2.2c5.7,0.5,11.5,1.1,17.2,1.7
			C1160.4,663.1,1166.1,664.1,1171.9,664.5z"/>
	</g>
	<g class="st6">
		<path class="st7" d="M1145.2,697.6c-6.2-0.7-12.5-1.7-18.8-2.4c-3.2-0.4-6.3-0.8-9.5-1.1c-3.2-0.4-6.4-0.7-9.6-1
			c-12.8-1.3-25.7-1.8-38.6-2.2c-12.9-0.3-25.8-0.3-38.5,0.1c-6.4,0.2-12.7,0.5-18.9,0.7c-3.1,0.1-6.2,0.3-9.3,0.4
			c-3.1,0.1-6.1,0.1-9.1,0.1c3.1,0.3,6.2,0.6,9.4,0.8c3.2,0.1,6.3,0.3,9.5,0.4c3.2,0.1,6.3,0.2,9.5,0.3s6.3,0.2,9.5,0.3
			c12.7,0.3,25.4,0.7,38,1c12.7,0.4,25.4,0.7,38.1,1.2c6.4,0.2,12.7,0.5,19.1,0.7C1132.4,697.2,1138.8,697.6,1145.2,697.6z"/>
	</g>
	<g class="st6">
		<path class="st7" d="M1089.5,732c-11.7-2.1-23.8-4.1-35.9-5.5c-12.2-1.4-24.5-2.4-36.8-2.8c-12.3-0.6-24.6-0.7-36.6-0.7
			c-6,0-12-0.3-17.9-0.9c-2.9-0.2-5.8-0.3-8.4,0c-1.3,0.1-2.5,0.3-3.6,0.7c-1.1,0.3-2.1,0.9-3,1.1c3.8-1.3,9.4-1.2,15.3-0.1
			c6,1.1,12.1,1.7,18.1,2c12.1,0.5,24.2,1.1,36.2,1.6c12.1,0.5,24.2,1.2,36.3,1.9C1065.2,730.2,1077.3,731.2,1089.5,732z"/>
	</g>
	<g class="st6">
		<path class="st7" d="M1049.5,763.6c-11.1-5.3-24.2-7.6-36.8-9.1c-6.3-0.8-12.6-1.3-18.7-2.1c-6.1-0.7-12.3-1.6-18.6-2.5
			c-12.5-1.8-25.3-3.5-38-3.7c-6.3-0.1-12.6,0.1-18.6,1c-3,0.5-5.8,1.2-8.2,2.3c-1.2,0.5-2.3,1.2-3.3,1.9s-1.7,1.6-2.6,2.1
			c1-0.4,1.8-1.2,2.9-1.7c1-0.6,2.2-1,3.5-1.4c2.5-0.8,5.4-1.2,8.3-1.4c5.9-0.3,12.3-0.1,18.4,0.3c12.4,0.9,24.9,2.9,37.2,4.7
			c6.2,0.9,12.3,1.7,18.5,2.3s12.4,1,18.7,1.4C1024.7,758.4,1037.6,759.6,1049.5,763.6z"/>
	</g>
	<path class="st8" d="M1067.8,174.4c8.4-10.1,11.7-22.5,12.8-35.3c0.1,0.3,0.2,0.7,0.3,1c0.1,0.2,0.3,0.2,0.5,0.1
		c0.4-0.3,0.8-0.7,1.1-1.2c0,0.3-0.1,0.7-0.1,1c-0.8,3.1-1.6,6.2-2,9.4c-0.1,0.6,0.8,1.1,1.1,0.5c1.3-2.3,2.2-4.8,2.9-7.4
		c2-5.7,3.4-11.8,4.2-18c1.7-8.6,2.3-17.7,1.8-26.4c0.9-3.3,1.7-6.6,2.1-9.9c0-0.5-0.4-0.9-0.8-0.9c0.1-0.4,0.2-0.9,0.2-1.3
		c1.6-4.4,3-8.9,2.4-13.4c-0.1-1-1.5-1.1-1.9-0.3c-1.3,3-2.5,6.1-3.6,9.3c0-1.7,0-3.3-0.1-5c0-0.4-0.4-0.4-0.6-0.3
		c0.4-1.4,0.8-2.9,0.7-4.4c0-0.4-0.5-0.7-0.8-0.7c0.6-2.6,1.3-5.3,1.7-8c0.1-0.7-0.8-1.1-1.2-0.5c-3.1,4.6-4.8,10.4-5.7,16.1
		c0-1.5,0.1-3.1,0.1-4.6c0.3-1.2,0.5-2.3,0.8-3.5c1.7-7.4,3.6-15.2,2-22.8c-0.1-0.5-0.8-0.6-0.9,0c-0.8,5.9-1.7,11.7-2.7,17.5
		c-0.1,0.1-0.1,0.1-0.1,0.3c0,0.3,0,0.5-0.1,0.8c-0.7,3.9-1.5,7.9-2.3,11.9c1.1-21.1,4.2-42.2,0.6-63.3c-0.3-1.8-3.1-1.5-2.8,0.4
		c4.6,23.1-0.2,46.3-0.7,69.6c-0.3-0.2-0.6-0.3-1-0.3c-0.1-2.3-0.3-4.6-0.2-6.9c0.1-4.9,1.8-9.8,1.7-14.6c0-0.4-0.6-0.8-0.9-0.4
		c-2.7,3.7-2.7,9.3-3,13.7c-0.1,1.5-0.2,3.1-0.2,4.7c-0.5,0-0.9,0.3-1.2,0.9c-7.8,16.4-0.8,36.3,1.3,53.2c0,0.3,0.4,0.3,0.5,0.1
		c0.1-0.2,0.1-0.4,0.1-0.6c-0.3,2.3-0.5,4.6-0.6,6.9c0,0.7,1.1,1.2,1.4,0.4c0.3-0.9,0.5-1.8,0.8-2.8c0,1.5,0,3,0.2,4.4
		c0.1,0.7,1,0.9,1.3,0.3c-2.4,10.3-6.6,19.5-10.2,29.8C1066.5,174.4,1067.4,174.9,1067.8,174.4z M1086.5,81.2
		c0.3-1.1,0.7-2.3,1.1-3.4c-0.1,0.4-0.2,0.8-0.2,1.2c-0.1,0.1-0.2,0.3-0.3,0.5c-1,4.9-1.8,9.9-2.3,15c-0.1-1.8-0.2-3.7-0.1-5.5
		c0-0.3,0.1-0.6,0.1-0.9C1085.8,86,1086,83.2,1086.5,81.2z M1072.5,88.6c0.4,5.3,0,10.9-0.3,16.3C1071.5,99.5,1071.2,94,1072.5,88.6
		z M1082.2,99.9c0-0.8,0.1-1.7,0.1-2.5c0.5,4.4,1.1,8.8,1.3,13.2v0.1C1083.2,107.1,1082.7,103.5,1082.2,99.9z M1081,129.5
		c0.1,0.1,0.3,0.2,0.4,0.2c-0.2,1.6-0.3,3.2-0.4,4.8c-0.1,0.3-0.2,0.7-0.2,1C1080.9,133.6,1081,131.5,1081,129.5z"/>
	<path class="st8" d="M1079.2,196.3c4.5-5.6,7.9-12,11.2-18.5c11.5-16.9,29.2-30.2,44-44.1c0.2-0.2-0.1-0.5-0.3-0.3
		c-10,8.8-20.1,17.5-29.9,26.6c-2.3,2.1-4.5,4.2-6.6,6.3c6.6-8.7,14.5-16.2,22.1-24c3.5-3.6,7.3-7.6,10.9-12
		c9.4-8,16.8-20,22.6-30.4c0.2-0.3-0.2-0.6-0.4-0.3c-3.9,4.9-7.7,9.8-11.7,14.7c1.9-4.2,3.1-8.5,3.3-12.9c0-0.4-0.2-0.6-0.4-0.8
		c5.9-12.4,9.5-25.8,9-39.5c0-1.1-1.7-1-1.8,0c-2.4,13.6-6.3,26.1-11.9,37.8c-3.4,4.2-6.7,8.6-10.2,12.7c1.1-2,2.2-3.9,3.2-5.9
		c1.8-3.1,3.4-6.2,5.1-9.2c0.3-0.5-0.4-1.1-0.7-0.6c0.6-1.5,1.1-3.1,1.6-4.7c0.2-0.8-0.7-1.4-1.3-0.7c-6,7.6-10.8,16.1-16.1,24.2
		c-1.6,2.1-3.1,4.2-4.4,6.5c0,0.1-0.1,0.2-0.1,0.2c-1.3,1.9-2.6,3.9-3.9,5.8c-8.9,9-16.5,19.5-19.9,30.7c-0.1,0.3,0,0.6,0.2,0.8
		c-2,3.2-4.7,7.5-4.8,11.5c-4.6,7.8-8.6,16-11.5,24.7C1076,196.4,1078.1,197.7,1079.2,196.3z M1101.1,158.2
		c7.5-11.4,18.3-20.6,26.6-31.4c1.6-2.2,3.2-4.4,4.8-6.7c-1,1.6-2.1,3.2-3.2,4.8c-3.6,5.1-8.3,9.7-11.2,15.2
		c-0.1,0.2-0.1,0.5-0.1,0.7c-3.2,3.5-6.5,6.9-9.7,10.4c-3.6,3.9-7,8-10.3,12.2C1099,161.6,1100,159.9,1101.1,158.2z"/>
	<path class="st8" d="M1059.6,123.1c0.7-11.9-1.4-25.1-4.3-37.7c-0.1-3.4-0.4-6.9-0.3-10.3c0.1-5.9,0.1-11.5-0.7-17.3
		c-0.1-0.4-0.6-0.3-0.6,0.1c0.4,4.3,0.1,8.6-0.4,13c-0.9-5.9-1.9-11.8-2.6-17.6c-0.9-7.5-2.8-14-7.3-20.1c-0.4-0.5-1,0-0.8,0.5
		c2.1,6.4,3,13,3.7,19.8c-5.2-15.5-12.4-30.6-22.7-43.3c-0.1-0.1-0.2,0-0.1,0.1c6.3,10.3,11.6,20.7,16.1,31.6
		c-0.5-0.4-1.5,0-1.3,0.8c1.4,5,2.8,10,4.2,15.1c-0.2,0.1-0.4,0.2-0.4,0.5c0.8,15.3,2.2,31.8,8.7,45.9c0.3,0.7,1.2,0.7,1.6,0.3
		c0.7,3.2,1.4,6.4,2.3,9.5c0.1,0.4,0.5,0.6,0.9,0.7c0.6,2.9,1.3,5.8,2.1,8.7C1058,124.1,1059.5,124.4,1059.6,123.1z M1040.3,43.7
		c3,7.5,5.5,15.2,7.5,23.3c0.1,0.3,0.1,0.7,0.2,1C1045.6,59.7,1042.9,51.6,1040.3,43.7z M1043.6,62.1c1.4,5.2,2.6,10.5,3.8,15.8
		c1.1,4.8,1.9,9.7,2.8,14.6C1047.9,82.4,1045.2,72.4,1043.6,62.1z"/>
	<path class="st8" d="M1067.9,249.9c1.4-3.4,10.9-6.7,14.2-8.4c4-2.1,8.2-4,11.6-7.1c1-1,0.3-2.9-1.2-2.7c-1.3,0.2-2.5,0.5-3.8,0.9
		c1.6-0.8,3.1-1.6,4.6-2.3c8.3-3.9,17.1-6.8,23.7-13.4c0.7-0.7,0.3-2.4-0.9-2.1c-8.7,2.4-16.8,7.1-24.6,11.8
		c6.1-4.9,12.5-9.5,18.9-13.9c8.8-6.1,18.8-11.3,25.9-19.5c0.7-0.8-0.2-2.3-1.2-2c-11.1,2.9-21.1,9.9-30.3,18c0.3-0.3,0.5-0.7,0.8-1
		c2.9-2.1,5.4-4.5,8.3-6.7c4.5-3.5,9.3-6.7,14.1-9.7c1.2-0.7,0.4-2.9-1-2.2c-3.1,1.6-6.4,3.4-9.7,5.4c3.1-3,6.3-6,9.6-9
		c0.6-0.4,1.1-0.8,1.7-1.2c7.2-5,15.6-8.8,21.5-15.3c1.4-1.6-0.8-3.6-2.4-3.1c-12.4,4.1-25.2,15.5-35.2,25.9
		c-6.9,5.8-13.2,12.3-17.3,19.5c-1.9,2.2-3.7,4.4-5.6,6.7c1.3-2.2,2.5-4.4,3.7-6.5c7.3-12.1,15.6-22.7,26.3-32.1
		c18.1-15.8,41.9-28.2,52.9-50.6c0.3-0.7-0.7-1.1-1.1-0.6c-18,20-39.8,34.4-59.4,52.6c-8.5,7.9-15.3,16.7-21.1,26.8
		c-6.5,11.3-13.5,21.5-20.9,32.1c-0.4,0.6-0.1,1.3,0.4,1.6c-1.8,1.8-3.6,3.8-5.2,6c-0.5,0.6,0.4,1.3,1,0.8c-0.1,0.3-0.1,0.5-0.1,0.8
		C1066.2,250.4,1067.5,250.9,1067.9,249.9z"/>
	<path class="st8" d="M1063,340.8c1.4-1.9,2.7-3.9,4.1-5.8c0.2,0.2,0.5,0.3,0.9,0.1c5.7-3,10.6-7.8,15.2-13c0.3,0.3,0.8,0.4,1.1,0
		c20.1-26.2,47.2-46.9,74.5-64.8c0.9-0.6-0.1-1.9-1-1.6c-15.7,5.9-29,17.5-41,28.9c-1.4,1.3-2.8,2.7-4.2,4c7.9-9,15.9-18,23.6-27.1
		c6.6-6.1,13.6-11.8,20.8-17.1c0.3-0.2,0-0.8-0.4-0.6c-4.5,2.4-8.8,5.1-13,8c4.4-5.3,8.7-10.6,13.5-15.3c9.9-9.5,21-17.5,31.9-25.8
		c1.2-0.9-0.1-3-1.4-2.4c-13.2,6.2-24.7,15.1-35.3,25.1c-0.9,0.8-1.8,1.7-2.7,2.6c1-1.4,2-2.8,3-4.2c0.9-0.9,1.8-1.9,2.7-2.8
		c10.1-10,22.9-18,32.2-28.6c0.7-0.8-0.4-2.2-1.4-1.7c-6.8,3.3-13.2,8.4-19.2,14c0.4-0.4,0.7-0.9,1.1-1.3
		c5.8-7.1,12.1-13.7,18.9-19.9c6.1-5.5,13-9.9,17-17.2c0.3-0.6-0.4-1.5-1-0.9c-6.4,6.7-15,10.4-22.2,16.2
		c-5.7,4.6-10.9,9.8-15.7,15.2c-11.9,13.3-22,28.2-32.3,42.7c-22.8,31.9-52.2,57.2-71.3,92C1060.6,340.6,1062.2,341.9,1063,340.8z
		 M1090.5,304.6c-0.7,1-1.5,2-2.2,3.1c-0.1,0.2-0.2,0.4-0.2,0.6c-0.9,0.9-1.8,1.8-2.7,2.6c-0.1,0.1-0.2,0.2-0.4,0.4
		C1086.8,309,1088.6,306.8,1090.5,304.6z"/>
	<path class="st8" d="M1155.9,294.8c11.3-7.8,18.5-23.8,24.6-35.7c6.6-13.1,11.9-26.7,15.1-41c0.3-1.5-1.8-2.6-2.3-1
		c-2.6,7.7-5.3,15.2-8.4,22.7c-0.1,0-0.2,0-0.2,0.1c-4.4,8.1-8.6,15.3-15.4,21.8c-6,5.6-13.2,9.8-18.7,15.9
		c-0.8,0.9,0.4,2.2,1.4,1.8c7.1-3,14.8-8.5,21-15.3c-1,1.6-2,3.1-3.1,4.6c-1.3,1.5-2.7,3-4.1,4.4c-4.1,4.1-9.3,7.2-13.1,11.7
		c-1,1.1,0.5,2.5,1.7,2.1c1.5-0.5,2.9-1.1,4.3-1.8c-1.7,2.8-3.2,5.6-4.4,8.6C1154,294.5,1155.2,295.3,1155.9,294.8z"/>
	<path class="st8" d="M1155.4,193.3c9.1-12.5,13.9-27.9,17.3-42.8c0.2-1-1-1.6-1.5-0.6c-6.4,13.8-9.7,28.7-18.8,41.2
		c-7.9,10.9-20.1,18.2-27.6,29c-0.5,0.7,0.3,1.8,1.1,1.4C1137.3,216,1148.1,203.3,1155.4,193.3z"/>
	<path class="st8" d="M1155.2,186.5c3.4-2.9,19.2-32.1,14.8-33.8c-0.3-0.1-0.5,0.2-0.3,0.5s-0.9,2.1-1.8,3.5c0-0.2-0.3-0.3-0.4-0.1
		c-2.8,3.7-5.4,7.5-7.7,11.5c-2.1,3.5-5.2,7.3-6.1,11.3c-0.2,0.7,0.3,1.5,1,1.5c-0.6,1.3-1,2.6-1.3,4
		C1152.9,186.1,1154.1,187.4,1155.2,186.5z"/>
	<path class="st8" d="M1025.7,441.6c2.6-4.2,5.1-8.5,7.7-12.7c1.4-2.1,2.9-4.2,4.3-6.3c8-7.4,14.9-16.4,23-23.8
		c9.8-9,19.6-18,29.4-27c1.2-1.1-0.4-3.1-1.6-2.1c-11,9.4-22.2,18.7-32.9,28.5c-5.9,5.5-12.8,11.5-17.7,18.3
		c-0.2,0.2-0.4,0.3-0.6,0.5c0.9-1.5,1.8-2.9,2.8-4.3c5.3-5.5,9.8-12.1,14.8-17.8c6.8-7.9,13.9-15.6,21-23.2
		c13.6-14.5,27.5-28.8,41-43.4c0.7-0.7-0.2-2-1-1.3c-10.6,9.8-21,19.8-31.2,30.1c12.9-15.7,26.3-30.9,40.5-45.6
		c0.5-0.5-0.1-1.3-0.7-0.9c-21.5,13.9-36.6,37.8-52.4,57.3c-4.7,5.8-9.5,11.7-14.2,17.5c-6.4,6.8-12.7,13.9-17.7,21.5
		c-4.6,5.6-8.9,11.6-9.9,18.7c0,0.1,0,0.2,0,0.3c-2.7,4.8-4.8,10.1-6.1,14.7C1023.9,441.6,1025.1,442.5,1025.7,441.6z"/>
	<path class="st8" d="M1021.4,495.9c9.7-5.5,18.3-12.7,26.1-20.7c15.9-16.4,28.7-37.6,36.8-58.9c0.4-1-0.9-1.7-1.6-0.9
		c-8.8,10.4-15.6,22-23.1,33.1c-0.2-0.2-0.5-0.3-0.8-0.1c-5.9,4.2-11.5,8.8-17,13.8c6.7-10,13.2-20.1,20.8-28
		c0.8-0.8-0.2-2.1-1.1-1.4c-0.2,0.2-0.4,0.3-0.7,0.5c0.6-0.6,0-1.8-0.9-1.4c-13.8,6-24.3,19.4-33.5,30.9
		c-11.6,14.7-22.6,29.2-35.7,42.7c-0.3,0.3-0.2,0.8,0,1c-0.1,0.1-0.2,0.1-0.3,0.2c-0.6,0.5-0.1,1.4,0.6,1.4
		C1001.5,507.9,1012.6,500.9,1021.4,495.9z M1057.4,451.8c-4.7,6.7-9.7,13.2-15.6,19c-5.6,5.5-11.7,10.6-18,15.3
		c3.2-3.4,6.2-7.2,9.1-11C1041.3,467.6,1049.6,459.9,1057.4,451.8z M1023.9,471.5c8.5-10.9,17.6-20.3,27.4-29.5
		c-6.4,7-11.5,15.1-17.4,22.8c-7.2,9.4-16.4,16.8-24.6,25C1014.4,483.9,1019.2,477.6,1023.9,471.5z M1002.8,496.9
		c-0.7,0.8-1.3,1.5-2,2.3c-0.2,0.3-0.3,0.7-0.3,1c-1,0.6-2,1.1-3,1.7C999.4,500.3,1001.1,498.6,1002.8,496.9z"/>
	<path class="st8" d="M984.3,546.8c0.8-0.7,1.6-1.4,2.5-2c2.7-1.9,5.2-3.9,7.7-6c0.2,0.1,0.5,0.2,0.8,0.1c18.2-4.4,35.3-18,48-32.1
		c4.1-3.2,7.8-6.7,11.3-10.3c0.1-0.2,0-0.5-0.2-0.4c-11.6,6.9-23.4,14.3-34.1,22.4c-0.3,0.2-0.4,0.6-0.3,0.9c-3.6,2-7.2,4-10.7,6.1
		c4.7-4.5,9.5-8.9,14.6-12.9c12.2-9.6,27.7-14.8,38-26.7c0.3-0.3-0.2-0.9-0.5-0.7c-14.5,7.4-29.8,13.8-42.8,23.8
		c-13.2,10.2-27,22.5-36.8,36c-1,1.4,0.8,2.9,2.1,2.1C983.8,547,984,547,984.3,546.8z"/>
	<path class="st8" d="M1014.6,547.6c0.2-0.2,0.3-0.4,0.5-0.6c0.2-0.3-0.1-0.6-0.4-0.4c-0.2,0.1-0.4,0.3-0.6,0.5
		C1013.7,547.4,1014.2,548,1014.6,547.6z"/>
	<path class="st8" d="M988.5,590.8c10.8-7.6,19.6-15.8,27.9-26c0.7-0.9-0.7-2.3-1.5-1.5c-8.6,9.1-19.3,16.5-29.6,23.5
		c-4,2.8-8.4,5.3-12.7,7.9c1.2-1,2.4-1.9,3.6-3c7.7-5.3,15.1-11.2,22.4-17c7.2-5.7,15.3-11.6,18.7-20.4c0.2-0.6-0.5-1-0.9-0.5
		c-7,8.2-15.3,14.8-23.8,21.2c1.8-1.9,3.6-3.8,5.5-5.7c8.9-8.8,17.9-17.6,26.3-26.9c0.9-1-0.7-2.4-1.7-1.7
		c-11.4,7.9-21.5,17-31.5,26.6c-9,8.6-19.2,17.2-25.3,28.1c-0.2,0.3-0.2,0.6-0.2,0.9c-4.9,3.7-9.5,7.7-14.2,11.7
		c-0.5,0.4-0.4,1-0.1,1.5c-0.1,0.1-0.2,0.2-0.3,0.3c-1.2,1.1,0,3,1.5,2.5C965.2,608.3,977.6,598.4,988.5,590.8z"/>
	<path class="st8" d="M976.5,635.5c15-2.2,28.4-10,40-19.3c0.8-0.6-0.1-2.2-1-1.6c-9.8,6-20,10.3-30.4,14.6c3.3-2.1,6.6-4.3,9.9-6.3
		c8.6-5.2,17.3-10.3,26.1-15.2c0.7-0.4,0.4-1.7-0.5-1.5c-10,2.1-18.5,8-27.3,12.9c-9.3,5.2-19.8,9.7-27.9,16.8
		c-0.8,0.7-0.6,1.8,0.1,2.3c-8.1,3.9-15.8,8.5-22.1,14.6c-0.6,0.6,0,1.9,0.9,1.5C955.4,648.9,965.6,641.7,976.5,635.5z"/>
	<path class="st8" d="M910.1,724.5c1.8-2,3.7-4,5.5-6c0.2,0.5,1,0.8,1.5,0.3c29.2-32.8,76.1-40.6,108.6-69.5
		c0.5-0.5,0.5-1.1,0.2-1.6c0.3-0.5,0-1.3-0.6-1.2c-8.8,1.8-18.3,4.2-26.4,8.1c-0.9,0.4-0.5,2,0.5,1.8c4.3-0.7,8.7-1.9,12.9-3.3
		c-6,3.7-11.6,8.2-17.4,11.6c-10.2,6.1-21,11.2-31.5,16.9c-12.2,6.7-23.8,13.4-34,22c19.5-20.1,41.6-38.8,69.3-43.3
		c1-0.2,0.7-1.6-0.3-1.5c-19.3,0.3-35.4,11.9-50,23.5c-14.2,11.3-31.4,24.2-39.8,40.7C908.3,723.9,909.3,725.4,910.1,724.5z"/>
	<path class="st8" d="M936,714.1c12.8-8.8,26.1-17.3,37.9-27.3c0.6-0.5,0-1.6-0.8-1.2c-12.6,6.7-24.3,15.1-36.2,23
		c-12.7,8.6-26.8,16.7-38.1,27.2c-0.7,0.7,0,2,1,1.6C912.7,731.3,924.4,722.1,936,714.1z"/>
	<path class="st8" d="M888.6,750.2c8-13.2,17.1-25.6,27.8-36.8c10-10.5,21.5-18.8,32.4-28.1c0.7-0.6,0-2-0.9-1.5
		c-1,0.5-2,1.1-2.9,1.7c2.8-2.2,5.7-4.4,8.4-6.8c0.8-0.7,0-2.2-1-1.7c-19.7,9-37.1,27.7-48.8,46.7c-6.2,8.3-11.8,16.9-16.5,25.4
		C886.6,750.1,888,751.3,888.6,750.2z"/>
	<path class="st9" d="M1047.3,65.9c0.3-4.8-0.2-9.6-1.2-14.5c0.5,1,1,2.1,1.6,3.1c0.4,0.7,1.4,0.5,1.3-0.4c-2-14.6-9.6-26.9-18.6-38
		c4.7,4.2,7.6,9.1,10.8,14.6c4,7,7.5,14.4,12.1,21c0.5,0.7,1.5,0.1,1.4-0.6c-1-8.5-7.6-16.1-11.9-23.2c-1.5-2.5-3.1-4.6-4.7-6.7
		c1.1,0.9,2.2,1.9,3.3,3.1c3.7,4.1,6,8.9,9,13.5c0.4,0.6,1.3,0.1,1.2-0.5c-1.6-9.5-11.1-20.4-20.9-23.6c-1.8-1.5-3.8-3-6-4.5
		c-0.4-0.5-0.9-1-1.3-1.5h-0.1c0,0.1,0,0.1,0,0.2c-0.6-0.2-1.2,0.5-0.8,1.1c0.5,0.6,1,1.3,1.5,2c0.9,2.1,2.6,4.2,4.4,6.3
		c3.8,5.9,7,12.1,9.7,18.6c4,9.9,5.1,19.9,7.9,30C1046,66.7,1047.3,66.9,1047.3,65.9z"/>
	<path class="st9" d="M1085.1,75.4c0.5-1.6,1-3.3,1.4-5.1c-0.2,0.8,1.1,1.4,1.5,0.6c6.6-11.2,4.3-26.1,3.4-38.5
		c-0.1-1-1.9-1.1-1.8,0c0.3,10.1-0.1,19.5-1.6,29.1c1.9-14.3,1.1-31-3.7-42.4c-0.1-0.1-0.3-0.1-0.3,0c-1,9.1,0.6,18.5,0.5,27.7
		c-0.1,9.4-1.7,18.6-1.7,28C1082.9,76,1084.7,76.8,1085.1,75.4z"/>
	<path class="st9" d="M1076.8,125.6c1.9-8.6,3.7-17.2,5.7-25.7c7.8-10.8,12.8-24.9,12.6-38.2c0-0.3-0.2-0.5-0.4-0.6
		c0.3-3,0.4-6,0.5-8.8c0-1.2-1.7-1.5-1.8-0.2c-0.2,3.6-0.6,7.1-1.2,10.6c-0.2,1-0.4,2-0.7,3c-0.2,0.1-0.5,0.2-0.6,0.5
		c-8.2,18.5-15.3,38.6-15.5,59C1075.3,125.9,1076.6,126.5,1076.8,125.6z M1091.3,73.6c-1.6,5.1-3.8,9.9-6,14.7
		c1.4-5,2.9-10,4.7-14.9C1090.3,73.9,1091,74.2,1091.3,73.6z"/>
	<path class="st9" d="M1145.3,96.6c7.4-7,10.7-17.9,11.7-27.8c0.1-0.8-0.7-1.2-1.2-0.9c1-5.7,1.5-11.5,1.6-17c0-1-1.5-1.7-1.8-0.5
		c-4.1,14.9-6.7,29.3-12.8,43.5c-0.4,1,0.7,1.7,1.5,1.4c0,0,0,0.1-0.1,0.1C1143.7,96.1,1144.6,97.3,1145.3,96.6z"/>
	<path class="st9" d="M1132.7,114c4.9-3.1,9-7.1,12.6-11.6c6.1-6,10.9-13.1,12.8-21.9c0.2-0.8-1.2-1.2-1.4-0.4
		c-0.2,1-0.5,1.9-0.8,2.9c-0.1-0.9-1.6-1.3-2.1-0.3c-5.5,11.6-13.5,20.7-22.1,30.1C1131.1,113.4,1131.9,114.5,1132.7,114z"/>
	<path class="st9" d="M1155.1,97.9c0.7-1.1-0.6-2.3-1.5-1.8c0.8-1.5,1.5-3,2.2-4.5c0.6-1.4-1.5-2.3-2.2-0.9
		c-3.5,7.4-8.8,12.7-14.2,18.6c-0.4,0.4-0.3,1.1,0,1.5c-3.6,3.1-7.4,6-11.2,9.1c-0.8,0.7,0,2,1,1.6
		C1140,117,1148.6,107.5,1155.1,97.9z"/>
	<path class="st9" d="M1148.5,157.3c11.4-7.3,21.6-19.3,27.5-31.4c0.5-1-1.2-2-1.8-1c-7.3,12.2-18.4,20.2-27.3,30.9
		C1146.2,156.8,1147.5,157.9,1148.5,157.3z"/>
	<path class="st9" d="M1176.3,129.5c0.3-0.7-0.9-1.5-1.2-0.7c-13.3,25.5-36.1,39.3-58.1,56.3c-0.7,0.5,0,1.8,0.8,1.4
		C1141.8,173.7,1166.2,155.6,1176.3,129.5z"/>
	<path class="st9" d="M1112,208.2c9.9-9.1,20.7-16.9,31.4-24.9c-0.3,0.4-0.2,0.9,0.1,1.3c-4.9,3.4-9.9,6.6-14.8,10.1
		c-0.8,0.6,0,2,1,1.6c12.5-5.3,24-13.3,31.9-24.4c0.7-0.9-0.1-2-1-2.1c2.5-3.6,4.7-7.4,6.8-11.5c0.3-0.4,0.6-0.7,0.8-1.1
		c0.7-1-0.6-2.1-1.5-1.4c-0.1,0.1-0.2,0.1-0.3,0.3c-0.1,0.1-0.1,0.2-0.2,0.2c-8.9,10.2-22.3,15.9-33.1,23.8
		c-10.2,7.4-21.3,15.7-28.6,26.1c-0.9,1.2,0.7,2.7,1.9,1.9c3.1-2.2,6-4.5,8.9-6.9c-1.7,1.6-3.3,3.2-4.9,4.7
		C1109,207.1,1110.7,209.4,1112,208.2z M1158.3,167.4c-0.6,0.8-1.2,1.5-1.8,2.3c-1.4,0.7-2.9,1.5-4.3,2.3
		C1154.3,170.5,1156.3,169,1158.3,167.4z"/>
	<path class="st9" d="M1181.8,228.5c9.8-21.6,17.7-43.2,29.6-64c0.3-0.4,0.1-0.9-0.2-1.2c0-0.1,0-0.1,0-0.2c1.4-1.4,2.8-2.8,4.2-4.2
		c0.4-0.4,0-1.2-0.5-0.9c-17.7,9.7-32.8,27.4-40.7,45.9c-0.4,0.9,1,1.8,1.6,0.9c1.4-1.9,2.7-3.8,4.1-5.6c-0.8,2.1-1.5,4.3-2,6.6
		c-0.4,1.5,1.6,3.1,2.7,1.5c5.6-8.6,10.6-17.2,16.2-25.4c-8.7,14.1-15.4,30.1-17.3,45.9C1179.1,229.4,1181.2,229.9,1181.8,228.5z"/>
	<path class="st9" d="M1184,237.4c8.5-17.8,18.7-35.2,18.9-55.6c0,0-0.1-0.1-0.1,0c-3.7,7-5,14.7-7.6,22.2
		c-3,8.7-7.6,16.6-11.7,24.8c-8.3,16.5-14.8,30.3-29.7,41.7c-1,0.8,0.1,2.3,1.1,1.9C1170,267.2,1177.6,250.8,1184,237.4z"/>
	<path class="st9" d="M1186,225.6c0.3-0.7-0.8-1.4-1.2-0.7c-5.5,8.5-11.8,16-18.7,22.9c4.6-5.5,8.6-11.6,12.1-17.6
		c0.6-0.9-0.8-2.1-1.4-1.1c-7.9,12.4-18.1,21.8-28.3,32.2c-0.6,0.6-0.2,1.4,0.5,1.5c-3,2.4-6.2,4.7-9.3,7c-0.8,0.6,0,1.9,0.9,1.5
		C1161,262.5,1176.3,245.4,1186,225.6z"/>
	<path class="st9" d="M1082.5,360.4c5.6-6.4,10.6-13.3,16.1-19.9c-0.2,1,1.1,1.9,2.1,1.3c13.2-8.3,24-22.9,31.2-36.5
		c0.6-1.1-0.8-2.3-1.6-1.2c-2.5,3-5,6-7.6,8.9c-17.7,9.8-34.9,27.9-42.4,46.1C1079.6,360.5,1081.5,361.5,1082.5,360.4z"/>
	<path class="st9" d="M1109.7,344.3c8.5-8.1,14.2-18.3,18.9-28.9c0.4-1-1.2-2.1-1.8-1c-5.3,10.1-12,19.3-18.2,28.8
		C1108.2,343.9,1109.1,345,1109.7,344.3z"/>
	<path class="st9" d="M1131.9,313.1c0.1-0.4-0.5-0.7-0.7-0.3c-6.7,13.7-13.4,27-23,38.8c-9.6,11.7-21.4,20.9-33.1,30.4
		c-0.9,0.7,0,2.4,1.1,1.9C1103,371.5,1125.5,341.7,1131.9,313.1z"/>
	<path class="st9" d="M1083.4,370.6c14.2-9.7,24.9-25.3,33.9-39.7c0.7-1.2-1-2.6-1.8-1.4c-9.7,14.7-22.2,26.3-33.6,39.6
		C1081,370,1082.4,371.2,1083.4,370.6z"/>
	<path class="st9" d="M1033.8,468.9c7.6-13.2,17-24.3,28.3-34.4c2.3-2,4.6-4.1,6.9-6.1c-2.8,3.4-5.4,6.8-7.9,10.2
		c-0.8,1.2,0.7,2.7,1.9,1.8c6.5-5.1,12.6-11.4,18.1-18.2c-7.2,10.7-14.1,21.7-21,32.4c-0.6,0.9,0.6,2.3,1.5,1.5
		c15.3-14.9,29.2-35.6,36-56c0.2-0.5-0.5-1-0.9-0.5c-0.6,0.8-1.2,1.7-1.8,2.5c0.3-0.5,0.6-0.9,0.8-1.4c0.3-0.5-0.3-1.2-0.7-0.7
		c-1.2,1.2-2.4,2.5-3.6,3.7c-0.2-0.2-0.4-0.2-0.6,0c-20,18.9-51.6,35.8-59,64.1C1031.6,468.9,1033.1,470.2,1033.8,468.9z"/>
	<path class="st9" d="M1027.4,524.8c16.1-11,34.5-27.3,41.7-46c0.3-0.7-0.7-1.5-1.2-0.9c-2.7,2.9-5.3,5.8-7.9,8.8
		c-10.3,3-20.5,7.5-28.3,14.9c-0.6,0.6-0.2,1.9,0.7,1.8c-4.4,3.4-8.5,7-12.1,10.6c-0.6,0.7,0,2.2,1,1.6c10-6,20.3-12.3,30-19
		c-1.6,1.8-3.3,3.5-5,5.2c-7.1,7-14.2,13.7-20.8,21.1C1024.6,524.1,1026.3,525.5,1027.4,524.8z"/>
	<path class="st9" d="M1029.6,542.5c0.1-0.4-0.5-0.7-0.8-0.3c-3.4,4.6-6.2,9.6-9.1,14.6c-0.4-0.5-1.2-0.6-1.8,0
		c-9.1,11.3-20,20.3-29.8,30.8c-0.8,0.8,0,2.7,1.2,2c1.9-1.1,3.8-2.4,5.6-3.7c-3.3,2.9-6.7,5.8-10.1,8.7c-0.9,0.7,0,2.4,1.1,1.8
		C1004.7,587.1,1026.1,563.8,1029.6,542.5z"/>
	<path class="st9" d="M1008.2,656.8c0.8-0.6-0.1-2.2-1-1.6c-22.7,13.4-46.1,27.3-66.6,43.8c-1.1,0.9,0.1,2.9,1.4,2.2
		C965.6,689.7,987.8,673.4,1008.2,656.8z"/>
	<path class="st9" d="M887.7,750.5c8.3-14.4,25-21.2,37.5-31.2c0.8-0.7,0-2.1-1-1.7c-3.9,1.7-7.6,3.9-11.2,6.3
		c0.7-0.7,1.5-1.4,2.2-2.2c0.8-0.9,0-2.8-1.3-2.1c-1.6,0.8-3.3,1.8-4.9,2.8c0.4-0.3,0.7-0.7,1.1-1c8.5-7.6,18.5-12.8,27.9-19.1
		c0.8-0.6,0.1-2.2-0.9-1.9c-9.1,2.6-18.2,7.9-26.4,14.8c4.6-5.4,9.6-10.7,15.1-15.7c7.8-7.1,16-13.9,25.2-19
		c5-2.8,13.8-3.9,17.6-8.1c0.3-0.3,0.1-0.7-0.2-1c-0.1-0.1-0.2-0.2-0.4-0.3c-0.1-0.1-0.4-0.1-0.5,0s-0.2,0.2-0.3,0.2
		c-0.1,0.1-0.1,0.3,0.1,0.3c-6.2-2.1-18.3,5-23.2,7.9c-8.9,5.2-16.8,11.9-24.3,18.9c-11.9,11.1-26.8,24.4-31.3,40.7
		c-0.2,0.7,0.1,1.3,0.6,1.7c-0.1,0.2-0.2,0.4-0.3,0.6c-2.1,2.9-4,5.9-5.6,8.9c-0.2,0.4,0.3,0.8,0.6,0.4c0.5-0.6,0.9-1.2,1.4-1.8
		c0,0.1-0.1,0.1-0.1,0.2c-0.3,0.8,0.8,1.5,1.3,0.8c0.2-0.2,0.3-0.5,0.5-0.7c-0.1,0.3-0.2,0.6-0.3,0.9
		C886.7,750.5,887.4,751,887.7,750.5z"/>
	<path class="st1" d="M1062.6,73.2c12.3-27-24.6-57-43.7-69.3c-0.6-0.4-1.4,0.4-0.9,1c8.4,9.4,19.1,16.5,27.3,26.1
		c10.9,12.8,13.5,24.9,13.5,41.2C1058.8,74.3,1061.6,75.4,1062.6,73.2z"/>
	<path class="st1" d="M1091.8,118.1c9.6-9.3,11.3-27.9,10.2-40.5c-1.5-18.2-10.8-36.3-18-52.8c-0.1-0.3-0.6-0.3-0.6,0.1
		c-0.8,15.4,10.7,29.8,12.5,45.1c1,8.7,0.5,17.9-1.5,26.5c-1.6,6.7-5,12.8-6.2,19.5C1088,117.9,1090.4,119.5,1091.8,118.1z"/>
	<path class="st1" d="M1153.4,106.8c6.1-18.8,6.3-42.1,2-61.3c-0.2-0.8-1.4-0.9-1.5,0c-2.2,19.4,0.2,38.2-5.9,57.2
		c-2.8,8.8-7,16.8-13,23.8c-5.3,6.2-12.3,10.9-16.7,17.8c-1,1.5,0.6,3.7,2.3,2.9C1136.2,140.7,1148.3,122.5,1153.4,106.8z"/>
	<path class="st1" d="M1157.2,172.7c11-16.4,19.5-31.7,19.3-52c0-0.8-1.3-1.4-1.6-0.4c-2,7.7-2.7,15.8-5.6,23.2
		c-3.7,9.5-10.4,17.9-16.5,25.9c-5.6,7.4-11.6,14.5-18.4,20.8c-5.8,5.3-12.9,9.3-17.9,15.3c-1.4,1.6,0.4,4.4,2.4,4
		C1135.9,206.8,1148.5,185.7,1157.2,172.7z"/>
	<path class="st1" d="M1190.2,216.1c11.5-16.9,17-36.7,28-54c0.2-0.3-0.2-0.8-0.5-0.5c-14.5,12.8-17.8,31.9-27.9,47.8
		c-5.7,9-12.6,17.2-20.5,24.4c-6.8,6.1-15.7,11-21,18.5c-1.1,1.5,0.6,3.3,2.2,2.8C1166.3,250.2,1181.3,229.2,1190.2,216.1z"/>
	<path class="st1" d="M1065.3,394.6c13.7-9.5,24.4-27.2,34.4-40.3c11.5-15.1,21.7-30.6,30.8-47.2c0.2-0.3-0.3-0.7-0.5-0.4
		c-10.3,14.8-20.9,29.6-32.1,43.8c-6.3,8-12.9,15.7-19.9,23.1c-5.5,5.8-11.7,11.1-16,17.8C1060.7,393.6,1063.2,396.1,1065.3,394.6z"
		/>
	<path class="st1" d="M1075.1,440.1c8-13.2,13.7-28.1,19-42.5c0.3-0.9-0.9-1.7-1.5-0.8c-8.2,12.2-12.9,26.4-20.8,38.8
		c-4.4,6.8-9.6,12.9-15.8,18.1c-6.1,5-13.1,8.7-18.1,14.8c-1.5,1.8,0.8,4.1,2.7,3.4C1054.7,467.4,1067.6,452.4,1075.1,440.1z"/>
	<path class="st1" d="M1050,500.6c6.9-6.4,16.5-15.3,17.9-24.9c0-0.1-0.1-0.3-0.2-0.2c-4.2,2.5-6.3,6.2-9.7,9.8
		c-4.4,4.7-9.3,9-14.5,12.7c-8.8,6.4-22,10.6-27.3,20.6c-0.8,1.5,0.4,3.4,2.2,2.8C1029.4,517,1041.2,508.7,1050,500.6z"/>
	<path class="st1" d="M1013.5,570.4c8.4-11,15.7-23.6,22.5-35.6c0.5-1-0.7-2-1.4-1.1c-7.8,9.4-14.6,19.6-22.4,28.9
		c-7.6,9.1-20.1,15.2-25.9,25.3c-0.6,1.1,0.1,3,1.6,2.7C998.5,588.5,1007.1,578.9,1013.5,570.4z"/>
	<path class="st1" d="M1003.8,625.3c8.4-7,16.5-14.6,21.3-24.6c0.4-0.9-0.9-1.5-1.5-0.8c-7.5,9.1-14.3,18.1-24.9,23.9
		c-7.4,4-16.3,5.7-23,10.8c-1.2,0.9-0.5,3.3,1,3.4C987,638.7,996.3,631.5,1003.8,625.3z"/>
	<path class="st1" d="M967.8,675.9c7.8-3.2,15.9-5.9,23.8-8.7c13.5-4.7,29.5-9.7,39.4-20.6c0.6-0.7,0-2.1-1-1.6
		c-15.9,7.5-30.5,14-47.6,18.7c-11.7,3.2-27.5,5.7-35.3,15.7c-1.1,1.4,0.3,3.3,1.9,3.2C955.7,681.9,961.5,678.4,967.8,675.9z"/>
	<path class="st1" d="M1196.8,361.5c0.8-0.4,0.3-1.6-0.6-1.3c-15.1,4.4-29.4,9.9-45.1,12.1c-12.5,1.8-25.1,1.9-37.3,5.8
		c-1.2,0.4-0.4,2.2,0.8,1.9c14.5-4.8,30-4.2,44.9-6.9C1172.1,370.8,1185.5,367.6,1196.8,361.5z"/>
	<path class="st1" d="M1172.2,331.4c-10.7,2.7-21.3,4.8-32.3,5.8c-0.1,0,0,0.1,0,0.1c11-0.2,22-1.8,32.5-5.4
		C1172.7,331.8,1172.5,331.3,1172.2,331.4z"/>
	<path class="st1" d="M1194.6,281.3c0.4-0.2,0-0.9-0.4-0.7c-8.1,3.7-15.9,7.9-24.1,11.3c-0.1,0,0,0.2,0.1,0.1
		C1178.6,289.7,1187.3,286.3,1194.6,281.3z"/>
	<path class="st1" d="M1198.3,422.2c0.3-0.2,0-0.8-0.4-0.6c-30.2,15.7-59.7,27.1-94.1,29.9c-0.1,0,0,0.1,0,0.1
		C1136.3,449.5,1171.1,440.5,1198.3,422.2z"/>
	<path class="st1" d="M1145.9,461c-20.7,2-41,8.3-60.5,15.4c-0.4,0.1-0.1,0.7,0.2,0.6c19.8-7,39.9-10.9,60.4-15.1
		C1146.6,461.7,1146.4,460.9,1145.9,461z"/>
	<path class="st1" d="M1228.9,446.7c0.3-0.1,0.2-0.7-0.2-0.6c-30.8,7.7-61.1,20.6-90.3,33.1c0,0,0,0.1,0,0
		C1168.4,468.3,1199.4,459,1228.9,446.7z"/>
	<path class="st1" d="M1162.3,508.4c-15.7,1-31.1,5.1-46.9,3.9c-13.1-1-25.3-4.1-38.5-2.5c-0.3,0-0.2,0.5,0.1,0.5
		c15.3-1.4,30.1,3.6,45.3,3.7c13.1,0.1,27.3-2.1,40.2-4.7C1163.1,509.2,1162.9,508.3,1162.3,508.4z"/>
	<path class="st1" d="M1234.1,509.9c-19.3,2.5-38.5,8.1-56.9,14.2c-0.2,0.1-0.1,0.3,0.1,0.3c18.9-5.3,38-9,57-13.6
		C1234.8,510.6,1234.6,509.8,1234.1,509.9z"/>
	<path class="st1" d="M1163.2,552.8c-36.8-4.1-75.9,2.1-111.6,11.1c-0.9,0.2-0.7,1.8,0.3,1.5c37.1-9.2,73.4-10.7,111.4-11.9
		C1163.7,553.5,1163.6,552.8,1163.2,552.8z"/>
	<path class="st1" d="M1137.3,586.2c-22.6-2-45.1,0.1-67.2,5.2c-0.4,0.1-0.3,0.7,0.1,0.6c22.2-4.8,44.4-6.3,67.1-5.6
		C1137.5,586.5,1137.5,586.2,1137.3,586.2z"/>
	<path class="st1" d="M1157.6,584.9c0-0.1-0.2,0-0.2,0.1C1157.4,585.1,1157.6,585,1157.6,584.9z"/>
	<path class="st1" d="M1127.4,606.6c-29.3-2.6-60.3-1.8-88.3,7.8c-0.3,0.1-0.1,0.5,0.2,0.4c29.1-8.7,58.2-6.8,88.1-7.6
		C1127.8,607.2,1127.7,606.6,1127.4,606.6z"/>
	<path class="st1" d="M1130.7,621.2c-23.7,0.8-47.5,3.7-71.1,6.3c-0.4,0-0.2,0.6,0.1,0.5c23.6-1.2,47.7-2.4,71.1-6.1
		C1131.4,621.9,1131.2,621.2,1130.7,621.2z"/>
	<path class="st1" d="M1103.1,648.7c-17.6-1.7-35.4-1.4-53.1-1.6c-0.6,0-0.7,0.9-0.1,0.9c17.7,0.8,35.5,2.1,53.2,1.3
		C1103.5,649.3,1103.4,648.7,1103.1,648.7z"/>
	<path class="st1" d="M1111.1,683.8c-29.3-1-58.8-0.4-88.2-0.2c-0.1,0-0.1,0.1,0,0.1c29.3,0.4,58.8,1.1,88.2,0.3
		C1111.2,684.1,1111.2,683.8,1111.1,683.8z"/>
	<path class="st1" d="M1076.7,678.9c-18-4.4-37.2-4.3-55.6-2.8c-0.3,0-0.2,0.4,0.1,0.4c18.7-0.2,36.9,2,55.4,3.2
		C1077.1,679.6,1077.1,679,1076.7,678.9z"/>
	<path class="st1" d="M1059,718c-31.5-0.8-62.7,0.4-94.2-2.3c-1.1-0.1-1.2,1.6-0.2,1.7c30.9,2.6,63.5,5.1,94.4,1.4
		C1059.4,718.8,1059.4,718,1059,718z"/>
	<path class="st1" d="M1001.4,747.5c-13.9-5.4-29.6-6.8-44.5-6.8c-0.7,0-0.5,1.1,0.2,1.1c15.3,0,29.3,3,44.1,6.4
		C1001.6,748.3,1001.8,747.6,1001.4,747.5z"/>
	<path class="st1" d="M1105.4,252.7c-0.4,0.4-0.7,0.9-1.1,1.1c-0.3-0.3-0.5-0.7-0.7-1C1104.2,252.8,1104.8,252.7,1105.4,252.7z"/>
	<path class="st1" d="M1093.7,305.9c0,0-0.1,0.3-0.3,0.6l-0.2,0.1C1093.6,306.1,1093.7,305.9,1093.7,305.9z"/>
	<path class="st1" d="M1077.1,353.4c-0.1,0.1-0.2,0.2-0.3,0.3C1077.5,352.2,1077.4,352.4,1077.1,353.4z"/>
	<path class="st1" d="M1061.6,388.2c0,0.1-0.2,0.3-0.5,0.7c-0.1,0.1-0.3,0.1-0.4,0.2C1061.3,388.5,1061.5,388.2,1061.6,388.2z"/>
	<path class="st1" d="M1048,422.9c0,0.1-0.2,0.3-0.5,0.8c-0.2,0.1-0.3,0.2-0.4,0.2C1047.6,423.3,1047.9,423,1048,422.9z"/>
	<path class="st1" d="M1042.5,451.8c0,0.1-0.2,0.3-0.5,0.8c-0.1,0.1-0.3,0.2-0.4,0.2C1042.2,452.2,1042.5,451.9,1042.5,451.8z"/>
	<path class="st1" d="M1016,493.5c0,0.1-0.2,0.4-0.5,0.9c-0.1,0.1-0.3,0.2-0.5,0.3C1015.6,494,1015.9,493.6,1016,493.5z"/>
	<path class="st1" d="M996,526.2c-0.1,0.2-0.4,0.4-0.7,0.8c-0.2,0.1-0.3,0.2-0.5,0.3C995.5,526.6,995.8,526.3,996,526.2z"/>
	<path class="st1" d="M966.6,561.1c-0.2,0-0.4,0.1-0.6,0.2C968,559.9,967.6,560.1,966.6,561.1z"/>
	<path class="st1" d="M950,605.9c-0.1,0.1-0.4,0.4-0.7,0.8c-0.2,0.1-0.4,0.2-0.6,0.2C949.5,606.3,949.9,605.9,950,605.9z"/>
	<path class="st1" d="M937.8,628.8c-0.1,0.1-0.3,0.4-0.7,0.9c-0.2,0.1-0.4,0.2-0.5,0.2C937.3,629.2,937.7,628.8,937.8,628.8z"/>
	<path class="st1" d="M936.7,659.2c-0.1,0.1-0.3,0.2-0.4,0.4c0.5-0.8,0.8-1.2,0.9-1.4C937.1,658.3,936.9,658.7,936.7,659.2z"/>
	<path class="st1" d="M910,702c-0.1,0.1-0.3,0.4-0.7,0.8c-0.2,0.1-0.4,0.2-0.5,0.3C909.5,702.4,909.9,702.1,910,702z"/>
	<path class="st1" d="M911.3,721.2c-0.1,0.1-0.3,0.4-0.5,0.7c-0.1,0-0.3,0.1-0.4,0.2C910.9,721.6,911.2,721.3,911.3,721.2z"/>
	<path class="st1" d="M1062.9,56.5c0.7,30.6,1.3,61.3,2,91.9c-0.3-0.5-0.7-1.1-1-1.6c-1.4-2.1-2.3-4.3-3.3-6.4s-1.8-4.1-2.6-5.8
		c-2.6-5.7-5.2-11.9-7.5-18.1c-1.9-5.3-3.7-10.6-4.7-15.8c2.1-7.1,3.3-14.4,5.5-21.4C1053.1,73.9,1063,60.7,1062.9,56.5z"/>
	<path class="st1" d="M1139.2,150.8c-7.4,5-14.8,10-22.3,15C1123.7,160,1131.1,154.9,1139.2,150.8z"/>
	<path class="st1" d="M1117,165.8c-16.4,14.1-29.4,32.5-40.6,51.9c-1.8,0.6-3.6,1.2-5.5,1.6c-1.1,0.3-2.1,0.5-3,0.8
		c-1,0.2-1.9,0.5-2.7,0.7c-0.1-0.7-0.1-1.4-0.2-2.1c0-0.4-0.1-0.8-0.1-1.1c-0.1-0.4-0.1-0.8-0.1-1.2c-0.2-1.7,0.1-3,0.3-4.5
		c0.3-1.4,0.6-2.9,1-4.3c0.1-0.8,0.2-1.6,0.4-2.3l0.7-2.1c2-5.7,4.6-11.1,6.4-15.2c2-4.7,4.1-9.6,6.3-14.5c-1.2,0.9-2.4,1.8-3.6,2.5
		c-3.3,2.1-6.7,3.5-9.4,4.6c-1.6-7.2-0.1-15.6,0.9-22.3c13.6-23.9,27.2-47.7,40.8-71.6c0.9-1.6,1.8-3.2,2.7-4.7
		c-0.7,3.1-1.5,6.2-2.3,9.3c-8.8,34.8-19.9,69-33.3,102.3C1089.6,184.3,1103.3,175.1,1117,165.8z"/>
	<path class="st1" d="M1121.1,234.5c-5.1,3.6-10.6,6.6-16.3,9C1110.1,240.3,1115.5,237.2,1121.1,234.5z"/>
	<path class="st1" d="M1104.8,243.5c-12.5,7.6-24.3,16.5-35,26.5c3.8-5.8,8-11.4,12.3-16c-0.7,0.2-1.4,0.4-2.1,0.6
		c-2.1,0.5-4.2,1.1-6.3,1.5c-4.1,0.9-8.2,1.2-11.5,1.6c0.1-2.5,0.7-5.2,1.5-7.9C1077.6,251.2,1091.9,248.9,1104.8,243.5z"/>
	<path class="st1" d="M1066,294.9c-2.5,1.2-5,2.4-7.2,3.3c-0.3-1.6-0.3-3.5,0-5.5c0.4-1.9,1-3.8,1.7-5.8c0.3-1,0.7-2,1.1-2.9
		s0.9-1.8,1.4-2.7c0.9-1.7,1.8-3.3,2.6-4.7c0.6-1.1,1.3-2.2,1.9-3.2c9.3,0.1,18.6,1.6,27.4,4.4c-2.4,1.7-4.9,3.2-7.3,4.6
		c-4.1,2.4-9,5.6-14,8.4C1071.2,292.3,1068.5,293.6,1066,294.9z"/>
	<path class="st1" d="M1055.1,369.2c-3.3,1.5-6.4,3-9.3,4.3c-0.6-3.4-0.6-7.3-0.1-11.4c0.8-3.9,2.1-8,3.6-12c0.7-2,1.5-4.1,2.3-6.1
		c0.9-1.9,1.8-3.8,2.8-5.6c1.9-3.6,3.8-6.9,5.4-9.8c0.1-0.1,0.2-0.3,0.3-0.4c22.3-17.4,46-33,70.8-46.6
		C1102.8,308.2,1074.1,335.8,1055.1,369.2z"/>
	<path class="st1" d="M1027.3,446.8c-2.3,1.2-4.6,2.3-6.7,3.1c0.1-2.1,0.4-4.6,1-7.3c0.3-1.3,0.7-2.6,1.2-3.9c0.2-0.6,0.4-1.3,0.7-2
		c0.2-0.7,0.4-1.4,0.6-2.1c0.4-1.4,1-2.8,1.6-4c0.6-1.3,1.2-2.5,1.7-3.8c1.1-2.5,2.3-4.7,3.2-6.7c5.1-10.5,11.1-22.1,18-32.1
		c7.5-0.5,15-1,22.4-1.5C1055.9,406.2,1041.3,426.3,1027.3,446.8z"/>
	<path class="st1" d="M1007.2,504.9c-3.6,1.5-7.1,2.9-10.5,4c-3.5,1-6.8,1.8-9.7,2.3c0.7-3.8,2.8-8.5,5.6-12.6
		c1.4-2.1,2.8-4.2,4.1-6.2c1.3-2,2.7-3.7,3.8-5.3c1.9-2.6,3.8-5.3,5.8-8.1c1.4-1.9,2.8-3.7,4.3-5.6c7.7-0.2,15.4-0.3,23.1-0.4
		c-6,10.1-12.7,19.8-20,29C1011.7,503,1009.5,504,1007.2,504.9z"/>
	<path class="st1" d="M996.3,549.8c-3.3,0.9-6.8,1.7-10.2,2.4c-3.1,0.5-6.2,0.9-9.1,1s-5.7-0.2-8-0.4c1.3-3.1,3.9-6.1,6.7-8.8
		c2.8-2.9,5.9-5.3,8.1-7.4c0.8-0.8,1.6-1.6,2.5-2.4c5.4,1.3,10.7,2.5,16.1,3.8C1000.5,541.9,998.5,545.9,996.3,549.8z"/>
	<path class="st1" d="M973.9,601.2c-5,4.2-9.7,8.7-14.1,13.4c-2.8,0.5-5.6,0.9-8.3,1c-3.1,0.1-5.9,0-8.4-0.3c1.4-3,3.7-6.7,6.7-9.4
		c1.5-1.4,2.9-2.9,4.2-4.3c1.3-1.4,2.6-2.6,3.7-3.7c1.6-1.7,3.2-3.4,4.8-5.1C966.3,595.6,970.1,598.4,973.9,601.2z"/>
	<path class="st1" d="M936.2,670.8c-1.3,0-2.6,0-3.9,0c-3.3-0.1-6.5-0.4-9.5-0.9c-3-0.6-5.8-1.3-8.1-2.2c2-2.6,5.1-5.6,8.6-7.7
		c1.7-1.1,3.5-2.2,5.1-3.3c1.6-1,3.2-2,4.5-2.8c3.2-2.1,6.4-4.3,9.7-6.4c3.5,2.3,5.7,8,4,12.2C944.7,664.5,940.5,667.7,936.2,670.8z
		"/>
	<path class="st1" d="M879.4,758.1c0.9-3.2,2.2-6.9,3.9-10.8c1.7-3.9,3.8-7.9,6.1-12c4.6-8.2,10.2-16.1,15-22.5
		c2.9-3.9,6.1-7.8,9.5-11.6c-0.5,1.1-1,2.2-1.5,3.3c-8.8,18.3-18.9,35.9-30.4,52.6C881.1,757.5,880.2,757.8,879.4,758.1z"/>
</g>
</svg>
