<?xml version="1.0" encoding="utf-8"?>
<!-- Generator: Adobe Illustrator 22.0.0, SVG Export Plug-In . SVG Version: 6.00 Build 0)  -->
<svg version="1.1" id="Calque_2_1_" xmlns="http://www.w3.org/2000/svg" xmlns:xlink="http://www.w3.org/1999/xlink" x="0px"
	 y="0px" viewBox="0 0 4000 607.8" style="enable-background:new 0 0 4000 607.8;" xml:space="preserve">
<style type="text/css">
	.st0{fill:#406E61;}
	.st1{fill:#7BAE90;}
	.st2{opacity:0.1;}
	.st3{opacity:0.38;fill:#406E61;enable-background:new    ;}
	.st4{fill:#578261;}
	.st5{opacity:0.59;fill:#578261;enable-background:new    ;}
	.st6{opacity:0.7;}
	.st7{fill:#6EB09C;}
	.st8{fill:#69A16E;}
	.st9{opacity:0.43;fill:#4B694C;enable-background:new    ;}
</style>
<g>
	<g>
		<g>
			<path class="st0" d="M2955.4,351.4c-0.1-0.9-0.2-1.4-0.2-1.5c0,0.1,0.1,0.5,0.3,1C2955.4,351.1,2955.4,351.2,2955.4,351.4z"/>
			<path class="st0" d="M2977.2,366.3c-0.3-0.8-0.5-1.2-0.6-1.4c0.1,0.1,0.2,0.4,0.5,0.9C2977.2,366,2977.2,366.2,2977.2,366.3z"/>
			<path class="st0" d="M2995.9,408.3c-0.1-0.9-0.2-1.3-0.2-1.4c0,0.1,0.1,0.5,0.3,0.9C2995.9,408,2995.9,408.2,2995.9,408.3z"/>
			<path class="st0" d="M3010.7,416.6c-0.1-0.6-0.2-1-0.2-1.2c0.1,0.1,0.2,0.4,0.3,0.8C3010.8,416.3,3010.7,416.4,3010.7,416.6z"/>
			<path class="st0" d="M3019.6,447.5L3019.6,447.5c-0.1,0.1-0.1,0.3-0.1,0.4c0.1-0.5,0.1-0.8,0.1-0.9
				C3019.6,447.1,3019.6,447.3,3019.6,447.5z"/>
			<path class="st0" d="M3103.3,350.5c-6.4,9.2-13.6,19.5-20.7,27.5c-4.1,4.6-7.9,9.3-11.7,14c-3.7,4.5-7.4,9-11.3,13.4
				c-6.9,7.8-14.9,14.8-22.1,22.7c-1.9,2.1-3.8,4.2-5.5,6.5c-1.1,1.5-2.6,4.3-4.3,7.1c-0.3,0.6-0.7,1.1-1,1.7
				c-2,3.3-4.3,6.2-6.7,6.3c-0.2-0.8-0.3-1.5-0.3-2.1l0,0c0.9-2,1.6-4.2,2.1-6.5c0.5-1.9,0.9-3.8,1.4-5.7c0.5-2.2,0.9-4.5,1.5-6.7
				s1.1-4.3,1.8-6.3c0.7-2.2,1.5-4.2,2.4-6.3s1.8-4.2,2.7-6.2c0.9-1.7,1.7-3.4,2.6-5.2c1.2-2.3,2.5-4.6,3.9-6.9
				c4.6-7.7,10-15.3,16-22.4c-3.4,3.2-7,6.2-10.6,9.2c-3.4,2.8-6.7,5.5-9.9,8.3c-2.8,2.5-5.5,5-8,7.8c-1.7,2-3.8,6.1-5.9,9.8
				c-2.1,3.8-4.2,7.3-7.7,8c-0.5-0.8-0.9-1.7-1.1-2.4c1-4.7,1.5-9.9,2.2-15.2c0.8-5.5,1.7-11.1,3.3-15.8c1.5-4.5,3.4-8.9,5.4-13.1
				c-3.7,4.6-7.4,9.4-10.6,14.2c-1.8,2.8-4,8.3-6.2,13.4c-2.2,5.1-4.4,9.8-7.8,11c-0.6-1-0.9-2-1.2-2.8c1-5.9,1.5-12.2,2.2-18.7
				c0.7-6.7,1.6-13.4,3-19.3c3.1-12.4,7.7-24.7,13.3-36.7c3.1-6.9,6.7-13.9,10.6-20.7c0.2-0.3,0.4-0.6,0.5-1
				c-0.2,0.2-0.4,0.4-0.6,0.6c-4,4-8.1,8-12.3,11.9c-3.7,3.4-7.5,6.8-11.2,10.3c-3.7,3.4-7.2,6.7-10.3,10.4
				c-2.1,2.4-4.6,7.4-6.4,12.1c-0.9,2.4-1.6,4.6-2.5,6.6c-0.8,2-1.7,3.7-3.2,4.9c-0.8-0.8-1.5-1.7-1.9-2.4
				c-0.6-6.2-0.4-12.9,0.8-19.6c1.2-6.8,3.1-13.5,5.5-19.1c4.2-10,9.3-19.7,14.9-29.3c-2.5,2.9-5,5.8-7.6,8.6
				c-7,7.7-14,15-19.7,23.1c-1.9,2.7-4.3,8.2-6.5,13.2c-2.3,5-4.4,9.7-7.9,11c-0.5-1-0.9-2.1-1.2-2.8c1-5.9,1.6-12.3,2.5-18.9
				c0.9-6.7,2-13.5,3.8-19.4c1.4-4.5,3-8.9,4.7-13.2c-2.2,2.9-4.3,5.9-6.2,9c-1.8,2.9-4,8.6-6.3,13.8s-4.8,10.1-8.4,11.1
				c-0.5-1-0.8-2.1-1-2.9c1.3-5.9,2-12.3,2.7-18.8c0.7-6.8,1.5-13.6,3-19.7c3.2-13,8.5-25.6,14.2-37.5c2.5-5.2,5.1-10.4,7.8-15.6
				c-1.8,2-3.7,4-5.6,5.9c-1.6,1.7-3.3,3.4-5.1,5c-0.7,0.7-1.5,1.4-2.2,2.2c-7.8,7.4-15.6,14.3-22.1,22.4c-2.2,2.7-5.1,8.1-7.9,13.2
				c-2.9,5-5.5,9.7-9.1,10.7c-0.4-1.1-0.7-2.2-0.8-3c1.7-6,2.9-12.5,4.4-19.1c1.5-6.8,3.3-13.7,5.7-19.6c5-12.7,12-24.4,18.2-35.6
				c0.1-0.2,0.2-0.4,0.4-0.6c2.8-5,5.7-10.1,8.7-15.3c5.3-9.3,10.8-18.8,16.5-28.2c9-14.9,18.3-29.8,28.1-43.3
				c9.7-13.5,23.1-33.9,36.4-42.5c1.5,9.8-4.2,25.7-7.2,35.6c-2.8,9.4-6.1,19.6-9.9,29.5c2.7-4.1,5.4-8.5,8.3-12.7
				c5.6-8.1,11.4-15.7,17.5-20.6c2.5,9.5-1.7,25.7-4.1,35.7c-2.3,10.1-5.3,21-8.8,31.5c10.4-12.1,24.3-28.3,37.1-34.6
				c0.6,9.6-6.3,24.3-10,33.5c-6.2,15.4-13.5,32.9-21.9,47c-3.3,5.5-6.4,10.9-9.5,16.3c10.2-13,21.1-25.4,32.4-36.3
				c11.4-11,27.6-27.4,41.8-32.7c-0.2,9.5-8.1,23.3-12.5,31.9c-6.4,12.7-13.8,26.9-21.8,39c1.4-1.3,2.7-2.7,4.1-3.9
				c5.9-5.6,13.3-12.4,21-18.3c3.9-2.9,7.8-5.7,11.7-7.9s7.8-4,11.4-5.1c-1,9.5-9.9,22.7-14.6,31.2c-7.9,14.2-16.6,30.5-25.6,43.7
				c-2.9,4.3-5.7,8.6-8.4,12.9c-0.8,1.3-1.6,2.5-2.4,3.8c0.7-0.7,1.4-1.3,2.1-2c4.6-4.3,9.3-8.4,14.1-12.1
				c10.3-7.9,25.1-19.6,38.2-21.6c-0.1,8.3-7.3,18.8-11.1,25.6c-6.4,11.5-13.7,24.4-21.7,34.5c-7.3,9.1-13.9,18.3-21.3,27.2
				c5.7-5.4,11.5-10.4,17.4-14.7c8.6-6.3,21.1-15.5,30.9-17.1C3113.8,336.5,3107,345,3103.3,350.5z"/>
		</g>
		<g>
			<path class="st0" d="M2955.4,351.4c-0.1-0.9-0.2-1.4-0.2-1.5c0,0.1,0.1,0.5,0.3,1C2955.4,351.1,2955.4,351.2,2955.4,351.4z"/>
			<path class="st0" d="M2977.2,366.3c-0.3-0.8-0.5-1.2-0.6-1.4c0.1,0.1,0.2,0.4,0.5,0.9C2977.2,366,2977.2,366.2,2977.2,366.3z"/>
			<path class="st0" d="M2995.9,408.3c-0.1-0.9-0.2-1.3-0.2-1.4c0,0.1,0.1,0.5,0.3,0.9C2995.9,408,2995.9,408.2,2995.9,408.3z"/>
			<path class="st0" d="M3010.7,416.6c-0.1-0.6-0.2-1-0.2-1.2c0.1,0.1,0.2,0.4,0.3,0.8C3010.8,416.3,3010.7,416.4,3010.7,416.6z"/>
			<path class="st0" d="M3019.6,447.5L3019.6,447.5c-0.1,0.1-0.1,0.3-0.1,0.4c0.1-0.5,0.1-0.8,0.1-0.9
				C3019.6,447.1,3019.6,447.3,3019.6,447.5z"/>
			<path class="st0" d="M3103.3,350.5c-6.4,9.2-13.6,19.5-20.7,27.5c-4.1,4.6-7.9,9.3-11.7,14c-3.7,4.5-7.4,9-11.3,13.4
				c-6.9,7.8-14.9,14.8-22.1,22.7c-1.9,2.1-3.8,4.2-5.5,6.5c-1.1,1.5-2.6,4.3-4.3,7.1c-0.3,0.6-0.7,1.1-1,1.7
				c-2,3.3-4.3,6.2-6.7,6.3c-0.2-0.8-0.3-1.5-0.3-2.1l0,0c0.9-2,1.6-4.2,2.1-6.5c0.5-1.9,0.9-3.8,1.4-5.7c0.5-2.2,0.9-4.5,1.5-6.7
				s1.1-4.3,1.8-6.3c0.7-2.2,1.5-4.2,2.4-6.3s1.8-4.2,2.7-6.2c0.9-1.7,1.7-3.4,2.6-5.2c1.2-2.3,2.5-4.6,3.9-6.9
				c4.6-7.7,10-15.3,16-22.4c-3.4,3.2-7,6.2-10.6,9.2c-3.4,2.8-6.7,5.5-9.9,8.3c-2.8,2.5-5.5,5-8,7.8c-1.7,2-3.8,6.1-5.9,9.8
				c-2.1,3.8-4.2,7.3-7.7,8c-0.5-0.8-0.9-1.7-1.1-2.4c1-4.7,1.5-9.9,2.2-15.2c0.8-5.5,1.7-11.1,3.3-15.8c1.5-4.5,3.4-8.9,5.4-13.1
				c-3.7,4.6-7.4,9.4-10.6,14.2c-1.8,2.8-4,8.3-6.2,13.4c-2.2,5.1-4.4,9.8-7.8,11c-0.6-1-0.9-2-1.2-2.8c1-5.9,1.5-12.2,2.2-18.7
				c0.7-6.7,1.6-13.4,3-19.3c3.1-12.4,7.7-24.7,13.3-36.7c3.1-6.9,6.7-13.9,10.6-20.7c0.2-0.3,0.4-0.6,0.5-1
				c-0.2,0.2-0.4,0.4-0.6,0.6c-4,4-8.1,8-12.3,11.9c-3.7,3.4-7.5,6.8-11.2,10.3c-3.7,3.4-7.2,6.7-10.3,10.4
				c-2.1,2.4-4.6,7.4-6.4,12.1c-0.9,2.4-1.6,4.6-2.5,6.6c-0.8,2-1.7,3.7-3.2,4.9c-0.8-0.8-1.5-1.7-1.9-2.4
				c-0.6-6.2-0.4-12.9,0.8-19.6c1.2-6.8,3.1-13.5,5.5-19.1c4.2-10,9.3-19.7,14.9-29.3c-2.5,2.9-5,5.8-7.6,8.6
				c-7,7.7-14,15-19.7,23.1c-1.9,2.7-4.3,8.2-6.5,13.2c-2.3,5-4.4,9.7-7.9,11c-0.5-1-0.9-2.1-1.2-2.8c1-5.9,1.6-12.3,2.5-18.9
				c0.9-6.7,2-13.5,3.8-19.4c1.4-4.5,3-8.9,4.7-13.2c-2.2,2.9-4.3,5.9-6.2,9c-1.8,2.9-4,8.6-6.3,13.8s-4.8,10.1-8.4,11.1
				c-0.5-1-0.8-2.1-1-2.9c1.3-5.9,2-12.3,2.7-18.8c0.7-6.8,1.5-13.6,3-19.7c3.2-13,8.5-25.6,14.2-37.5c2.5-5.2,5.1-10.4,7.8-15.6
				c-1.8,2-3.7,4-5.6,5.9c-1.6,1.7-3.3,3.4-5.1,5c-0.7,0.7-1.5,1.4-2.2,2.2c-7.8,7.4-15.6,14.3-22.1,22.4c-2.2,2.7-5.1,8.1-7.9,13.2
				c-2.9,5-5.5,9.7-9.1,10.7c-0.4-1.1-0.7-2.2-0.8-3c1.7-6,2.9-12.5,4.4-19.1c1.5-6.8,3.3-13.7,5.7-19.6c5-12.7,12-24.4,18.2-35.6
				c0.1-0.2,0.2-0.4,0.4-0.6c2.8-5,5.7-10.1,8.7-15.3c5.3-9.3,10.8-18.8,16.5-28.2c9-14.9,18.3-29.8,28.1-43.3
				c9.7-13.5,23.1-33.9,36.4-42.5c1.5,9.8-4.2,25.7-7.2,35.6c-2.8,9.4-6.1,19.6-9.9,29.5c2.7-4.1,5.4-8.5,8.3-12.7
				c5.6-8.1,11.4-15.7,17.5-20.6c2.5,9.5-1.7,25.7-4.1,35.7c-2.3,10.1-5.3,21-8.8,31.5c10.4-12.1,24.3-28.3,37.1-34.6
				c0.6,9.6-6.3,24.3-10,33.5c-6.2,15.4-13.5,32.9-21.9,47c-3.3,5.5-6.4,10.9-9.5,16.3c10.2-13,21.1-25.4,32.4-36.3
				c11.4-11,27.6-27.4,41.8-32.7c-0.2,9.5-8.1,23.3-12.5,31.9c-6.4,12.7-13.8,26.9-21.8,39c1.4-1.3,2.7-2.7,4.1-3.9
				c5.9-5.6,13.3-12.4,21-18.3c3.9-2.9,7.8-5.7,11.7-7.9s7.8-4,11.4-5.1c-1,9.5-9.9,22.7-14.6,31.2c-7.9,14.2-16.6,30.5-25.6,43.7
				c-2.9,4.3-5.7,8.6-8.4,12.9c-0.8,1.3-1.6,2.5-2.4,3.8c0.7-0.7,1.4-1.3,2.1-2c4.6-4.3,9.3-8.4,14.1-12.1
				c10.3-7.9,25.1-19.6,38.2-21.6c-0.1,8.3-7.3,18.8-11.1,25.6c-6.4,11.5-13.7,24.4-21.7,34.5c-7.3,9.1-13.9,18.3-21.3,27.2
				c5.7-5.4,11.5-10.4,17.4-14.7c8.6-6.3,21.1-15.5,30.9-17.1C3113.8,336.5,3107,345,3103.3,350.5z"/>
		</g>
	</g>
	<g>
		<path class="st1" d="M3075.3,381.1c-1.5,3.6-3,7.2-4.5,10.8c-3.7,4.5-7.4,9-11.3,13.4c-6.9,7.8-14.9,14.8-22.1,22.7
			c-1.9,2.1-3.8,4.2-5.5,6.5c-1.1,1.5-2.6,4.3-4.3,7.1c-0.3,0.6-0.7,1.1-1,1.7c-2,3.3-4.3,6.2-6.7,6.3c-0.2-0.8-0.3-1.5-0.3-2.1
			c0,0.1-0.1,0.2-0.1,0.3c0.1-0.5,0.1-0.8,0.1-0.9c0,0.1,0,0.3,0,0.6c0.9-2,1.6-4.2,2.1-6.5c0.5-1.9,0.9-3.8,1.4-5.7
			c0.5-2.2,0.9-4.5,1.5-6.7s1.1-4.3,1.8-6.3c0.7-2.2,1.5-4.2,2.4-6.3s1.8-4.2,2.7-6.2c0.9-1.7,1.7-3.4,2.6-5.2
			c1.2-2.3,2.5-4.6,3.9-6.9c4.6-7.7,10-15.3,16-22.4c-3.4,3.2-7,6.2-10.6,9.2c-3.4,2.8-6.7,5.5-9.9,8.3c-2.8,2.5-5.5,5-8,7.8
			c-1.7,2-3.8,6.1-5.9,9.8c-2.1,3.8-4.2,7.3-7.7,8c-0.5-0.8-0.9-1.7-1.1-2.4c1-4.7,1.5-9.9,2.2-15.2c0.8-5.5,1.7-11.1,3.3-15.8
			c1.5-4.5,3.4-8.9,5.4-13.1c-3.7,4.6-7.4,9.4-10.6,14.2c-1.8,2.8-4,8.3-6.2,13.4c-2.2,5.1-4.4,9.8-7.8,11c-0.6-1-0.9-2-1.2-2.8
			c1-5.9,1.5-12.2,2.2-18.7c0.7-6.7,1.6-13.4,3-19.3c3.1-12.4,7.7-24.7,13.3-36.7c3.1-6.9,6.7-13.9,10.6-20.7c0.2-0.3,0.4-0.6,0.5-1
			c-0.2,0.2-0.4,0.4-0.6,0.6c-4,4-8.1,8-12.3,11.9c-3.7,3.4-7.5,6.8-11.2,10.3c-3.7,3.4-7.2,6.7-10.3,10.4
			c-2.1,2.4-4.6,7.4-6.4,12.1c-0.9,2.4-1.6,4.6-2.5,6.6c-0.8,2-1.7,3.7-3.2,4.9c-0.8-0.8-1.5-1.7-1.9-2.4
			c-0.6-6.2-0.4-12.9,0.8-19.6c1.2-6.8,3.1-13.5,5.5-19.1c4.2-10,9.3-19.7,14.9-29.3c-2.5,2.9-5,5.8-7.6,8.6c-7,7.7-14,15-19.7,23.1
			c-1.9,2.7-4.3,8.2-6.5,13.2c-2.3,5-4.4,9.7-7.9,11c-0.5-1-0.9-2.1-1.2-2.8c1-5.9,1.6-12.3,2.5-18.9c0.9-6.7,2-13.5,3.8-19.4
			c1.4-4.5,3-8.9,4.7-13.2c-2.2,2.9-4.3,5.9-6.2,9c-1.8,2.9-4,8.6-6.3,13.8s-4.8,10.1-8.4,11.1c-0.5-1-0.8-2.1-1-2.9
			c1.3-5.9,2-12.3,2.7-18.8c0.7-6.8,1.5-13.6,3-19.7c3.2-13,8.5-25.6,14.2-37.5c2.5-5.2,5.1-10.4,7.8-15.6c-1.8,2-3.7,4-5.6,5.9
			c-1.6,1.7-3.3,3.4-5.1,5c-0.7,0.7-1.5,1.4-2.2,2.2c-7.8,7.4-15.6,14.3-22.1,22.4c-2.2,2.7-5.1,8.1-7.9,13.2
			c-2.9,5-5.5,9.7-9.1,10.7c-0.4-1.1-0.7-2.2-0.8-3c1.7-6,2.9-12.5,4.4-19.1c1.5-6.8,3.3-13.7,5.7-19.6c5-12.7,12-24.4,18.2-35.6
			c0.1-0.2,0.2-0.4,0.4-0.6c2.8-5,5.7-10.1,8.7-15.3c0.9-0.4,1.9-1,2.7-1.5l21.2-12.3c5-2.9,10.5-5.9,16.2-4.9
			c8.7,1.5,13.2,11.9,12.6,20.8c-0.6,8.8-4.5,17.1-5.6,25.9c-1.1,8.8,1.8,19.3,10.1,22.4c8.2,3.1,19.3-2.1,25.4,4.3
			c4.6,4.8,2.7,12.5,1.8,19c-0.9,6.6,1.4,15.4,8,15.6c6.6,0.2,13-9,18.3-5c2.1,1.6,2.5,4.6,2.5,7.3c0,3.3-0.4,6.5-0.9,9.7
			c-0.1,0.6-0.2,1.2-0.3,1.8c-2.9,15.5-9.6,30.7-7.3,46.2c0.4,3,1.6,6.4,4.3,7.7c2.2,1.1,4.9,0.5,7.3,1.3
			C3079.2,365.6,3077.8,374.9,3075.3,381.1z"/>
	</g>
	<g class="st2">
		<path class="st0" d="M3024.9,312c-4,4-8.1,8-12.3,11.9c-3.7,3.4-7.5,6.8-11.2,10.3c-3.7,3.4-7.2,6.7-10.3,10.4
			c-2.1,2.4-4.6,7.4-6.4,12.1c-0.9,2.4-1.6,4.6-2.5,6.6c-0.8,2-1.7,3.7-3.2,4.9c-0.8-0.8-1.5-1.7-1.9-2.4
			c-0.6-6.2-0.4-12.9,0.8-19.6c1.2-6.8,3.1-13.5,5.5-19.1c4.2-10,9.3-19.7,14.9-29.3c-2.5,2.9-5,5.8-7.6,8.6c-7,7.7-14,15-19.7,23.1
			c-1.9,2.7-4.3,8.2-6.5,13.2c-2.3,5-4.4,9.7-7.9,11c-0.5-1-0.9-2.1-1.2-2.8c1-5.9,1.6-12.3,2.5-18.9c0.9-6.7,2-13.5,3.8-19.4
			c1.4-4.5,3-8.9,4.7-13.2c-2.2,2.9-4.3,5.9-6.2,9c-1.8,2.9-4,8.6-6.3,13.8s-4.8,10.1-8.4,11.1c-0.5-1-0.8-2.1-1-2.9
			c1.3-5.9,2-12.3,2.7-18.8c0.7-6.8,1.5-13.6,3-19.7c3.2-13,8.5-25.6,14.2-37.5c2.5-5.2,5.1-10.4,7.8-15.6c-1.8,2-3.7,4-5.6,5.9
			c2.7-6.5,6.6-13.4,10.7-12.4c2.8,0.7,3.4,15.4,5.1,19c3.4,7.1,9.8,12,13.5,18.7c2.5,4.4,2.6,10.4,4.6,15
			c1.4-7.7,1.6-15.6,5.3-22.8c0.7,2.1,2.2,3.1,3.8,4.8c4.5,4.9,5.8,9.6,8.3,15.7C3021.6,291.9,3023.6,301.8,3024.9,312z"/>
		<path class="st0" d="M3028.9,345.9c2.5,15.7,3.8,31.2,4.6,47c-2.8,2.5-5.5,5-8,7.8c-1.7,2-3.8,6.1-5.9,9.8c-2.1,3.8-4.2,7.3-7.7,8
			c-0.5-0.8-0.9-1.7-1.2-2.4c1-4.7,1.5-9.9,2.2-15.2c0.8-5.5,1.7-11.1,3.3-15.8c1.5-4.5,3.4-8.9,5.4-13.1
			c-3.7,4.6-7.4,9.4-10.6,14.2c-1.8,2.8-4,8.3-6.2,13.4c-2.2,5.1-4.4,9.8-7.8,11c-0.6-1-0.9-2-1.2-2.8c1-5.9,1.5-12.2,2.2-18.7
			c0.7-6.7,1.6-13.4,3-19.3c3.1-12.4,7.7-24.7,13.3-36.7c3.1-6.9,6.7-13.9,10.6-20.7C3026.4,323.6,3027.2,335.1,3028.9,345.9z"/>
		<path class="st0" d="M3037.4,428.1c-1.9,2.1-3.8,4.2-5.5,6.5c-1.1,1.5-2.6,4.3-4.3,7.1c-1.9-0.1-3.9-0.3-5.9-0.6
			c0.5-1.9,0.9-3.8,1.4-5.7c0.5-2.2,0.9-4.5,1.5-6.7s1.1-4.3,1.8-6.3c0.7-2.2,1.5-4.2,2.4-6.3s1.8-4.2,2.7-6.2
			c0.9-1.7,1.7-3.4,2.6-5.2C3034.7,412.6,3036.1,420.3,3037.4,428.1z"/>
	</g>
	<path class="st0" d="M3052.9,602.3c1.3-37.7-2.6-77.5-12.6-113.9c-10.7-38.8-33.7-76.2-58.8-107.5c-2.7-3.3-9.4-0.9-7.3,3.6
		c16.8,35.8,41.9,66.5,53.7,104.7c11.4,37,10.4,74.4,11.7,112.5C3039.9,608.8,3052.7,609.6,3052.9,602.3z"/>
	<path class="st0" d="M2626.2,1.9c16,7,32.3,15.2,48.2,23.8c15.9,8.6,31.4,17.7,45.2,27c14.7,9.8,29.3,20.5,43.3,31.9
		c13.9,11.5,27.3,23.7,39.9,36.4c15.7,16,30.7,33.3,44.2,51.6c13.6,18.2,26,37.1,38.2,56c12.2,18.8,24.2,37.7,36,56.2
		c11.7,18.6,23.1,36.9,33.3,55c5.1,8.9,10.5,19,15.9,29.6c5.3,10.5,10.8,21.5,16.2,32.2s11,21.1,16.6,30.5
		c5.5,9.5,11.1,17.9,16,24.9c-7.8-7.9-18-20.8-26.9-34.7c-9-13.9-17.1-28.5-23.4-39.5c-5.2-9.2-10.6-18.7-16.4-28.3
		c-5.7-9.6-11.8-19.2-18-28.9c-12.6-19.3-25.1-38.6-36.9-56.6c-13.2-20.4-26-40.5-39-60.3c-13.1-19.8-26.6-39.5-42.3-58.6
		c-17-21.1-36.2-40.9-56.8-59.7c-10.5-9.3-21.2-18.4-32.5-26.9c-11.2-8.7-23-16.8-35.1-24.6c-8.1-5.2-23.2-14.3-37.9-22
		c-14.6-7.7-28.5-14.6-33-17C2627,2.3,2634.7,5.4,2626.2,1.9z"/>
	<path class="st3" d="M2957.3,350.4c-1.6-2.9,0.2-9.4,0.5-12.8c0.3-4.2,1.5-8.3,1.9-12.4c0.9-8.3,1.5-18.6,6.7-25.8
		c4-5.4,6.6-12.3,10.8-17.3c-0.6,6.3-0.6,12.9-1.1,19.3c-0.4,4.5-0.8,8.5-0.5,13c0.2,2.9,0.2,5.8-0.3,8.6c-0.7,3.7-2.8,4-5.2,6.9
		c-2.5,3.1-3.4,7.3-5.2,10.9C2963.6,343.1,2960.1,354.7,2957.3,350.4z"/>
	<g>
		<path class="st4" d="M3022.1,457.3c-1.9-2.2-4-5-6.1-8.2c-2-3.2-4-6.8-5.9-10.5c-3.8-7.4-6.9-15.5-9.2-22.3
			c-1.5-4.1-2.8-8.4-3.9-12.8c-2.6-10-4.4-20.5-5.1-31c-0.3-3.7-0.4-7.4-0.4-11.1c-1.6,3.3-3.6,7-5.9,10.5c-0.6,1-1.3,1.9-2,2.8
			c-1.8,2.4-3.5,4.6-5.4,6.6s-3.9,3.6-5.6,4.9c-1-2.8-1.6-6.6-1.4-10.2c0.1-1.8,0.1-3.7,0.1-5.4c0.1-1.7,0.1-3.3,0.1-4.7
			c0-3.4,0-6.9,0-10.4c0-1.3,0.1-2.7,0.1-4c0.1-4.8,0.3-9.5,0.7-13.8c1-9.8,0.4-19,0.4-28.7c0.1-2.7,0.1-5.3,0.4-8.2
			c0.2-2.9,0.3-5.9,0.5-8.8c0.4-6.1,0.9-12.6,1.6-18.9c0.2-2.1,0-5.9,0.8-9.4c0.4-1.8,1-3.4,1.8-4.6c0.9-1.2,1.9-2,3-2.2
			c0.3,0.6,0.5,1.2,0.7,1.7c-0.7,3.1-0.2,6.7,1.1,9.9c1.3,3.3,3.3,6.3,4.8,9.2c1.7,3,3.5,6.1,5.1,9.5s3.1,7,4.3,11
			c1.7,5,2.8,10.3,3.3,15.7c1.5-3.9,3.2-7.5,4.8-11c1.6-3.6,3.7-7.3,5-11.6c1.3-4.1,1.9-8.9,1-13.5c0.1-0.6,0.4-1.4,0.7-2.1
			c1.2,0.5,2.2,1.9,3.2,3.8c0.8,1.9,1.6,4.4,2,6.9c0.9,5.1,0.7,10.3,1,13.3c0.8,8.9,1.4,18,1.9,26.6c0.2,4.2,0.4,8.3,0.6,12.4
			c0.3,4,0.4,7.7,0.5,11.4c0.2,13.5-0.3,26.1,0.9,40c0.6,6.1,0.8,12.6,1,19.3c0.3,6.7,0.3,13.5,0.4,20c0.1,1.9,0.1,4.2,0.2,6.6
			c0,2.4,0.1,5,0.2,7.5c0.2,4-0.1,8.2-0.8,11.5C3022.5,455.8,3022.3,456.6,3022.1,457.3z"/>
	</g>
	<path class="st5" d="M2991.2,362.4c1.3-9.7-0.3-19.4,2.3-29.3c1.3-4.7,2.4-9.8,4.2-14.1c2.2-5,2.2-7.4,1-12.9
		c-1-4.8-3-9.3-6.5-12.6c1.3,8.2,0.8,14.6-1.7,22.9c-1.5,5.1-4.4,9.1-6.2,14c-1.9,5.1-1.6,11.4-2.2,16.7c-0.9,8.9-0.2,17.9-3.7,26.2
		c-1.9,4.5-4.7,8.6-6.9,12.7C2980.1,385.7,2990.6,367.9,2991.2,362.4z"/>
	<path class="st0" d="M2955.2,350c0.1,0.1,0.1,0.5,0.3,1c0,0.2-0.1,0.3-0.1,0.5C2955.2,350.5,2955.1,350.1,2955.2,350z"/>
	<path class="st0" d="M2977.2,365.8c0,0.2,0,0.3,0,0.5c-0.3-0.8-0.5-1.2-0.6-1.4C2976.7,365.1,2976.9,365.4,2977.2,365.8z"/>
	<path class="st0" d="M2995.7,406.9c0,0.1,0.1,0.5,0.3,0.9c0,0.2-0.1,0.3-0.1,0.5C2995.8,407.4,2995.7,407,2995.7,406.9z"/>
	<path class="st0" d="M3010.5,415.4c0.1,0.1,0.2,0.4,0.3,0.8c0,0.1-0.1,0.3-0.1,0.4C3010.6,415.9,3010.5,415.6,3010.5,415.4z"/>
	<path class="st3" d="M3020.5,378.1c3.4,0.2,3.6,9.4,9.1,9.5c5.6,0.1,10.5-7.1,13.9-10.7c6.2-6.6,13.7-11.9,19.3-19.2
		c7.7-10.1,17.6-18.5,25.3-28.6c5.5-7.2,11.4-14.2,16.9-21.1c-2.8,7.7-8.4,15-13.7,21.1c-5.6,6.6-10.4,14.1-16.1,20.7
		c-5.1,5.9-10.3,12.4-14.7,18.9c-4.7,6.8-10.5,9.9-17,14.5c-8.7,6.1-14.1,13.9-20.3,22.1c-2.2-2.6-1.2-6.5-1-9.6
		C3022.4,391.2,3022.6,383.7,3020.5,378.1z"/>
	<g class="st6">
		<path class="st7" d="M3106.9,288.7c-7.4,7.6-14.8,15.6-21.9,23.9c-7.1,8.3-13.9,16.9-20.3,25.9c-6.6,8.8-12.7,17.9-18.7,26.8
			c-3,4.4-6.2,8.7-9.5,12.8c-1.6,2.1-3.1,4.2-4.2,6.3c-0.5,1-1,2-1.3,3s-0.4,2-0.6,2.8c0.9-3.5,3.8-7.5,7.5-11.4s7.3-8.1,10.5-12.4
			c6.4-8.7,12.8-17.4,19.2-26c6.4-8.7,12.8-17.3,19.4-25.9C3093.5,305.8,3100.3,297.3,3106.9,288.7z"/>
	</g>
	<g class="st6">
		<path class="st7" d="M3110.5,334c-9.4,5.6-17.7,14.1-25,22.7c-3.7,4.3-7.2,8.7-10.8,12.8c-3.6,4.2-7.3,8.3-11.1,12.5
			c-7.5,8.4-15.1,17-21.6,26.3c-3.2,4.6-6.2,9.4-8.5,14.3c-1.1,2.4-2,4.9-2.4,7.2c-0.2,1.2-0.3,2.3-0.2,3.4c0,1.1,0.3,2,0.2,2.9
			c0.2-0.9,0.1-1.9,0.2-3c0.1-1.1,0.3-2.2,0.7-3.3c0.7-2.2,1.7-4.6,3.1-6.9c2.7-4.6,6-9.1,9.4-13.5c6.8-8.8,14.5-17,21.9-25.3
			c3.7-4.1,7.4-8.3,10.9-12.6s6.9-8.7,10.3-13.1C3094.4,349.8,3101.6,340.8,3110.5,334z"/>
	</g>
	<path class="st8" d="M2979.3,324.6c5.8-12.2,6.7-26,5.6-39.2c-0.1-0.9-1.7-1-1.7-0.1c-0.4,10.2-2.3,20-4.2,29.8
		c0.1-3.5,0.1-7,0.2-10.4c0.4-9,0.9-17.9,1.7-26.9c0.1-0.7-1.1-1.2-1.4-0.4c-3.4,8.5-3.2,17.7-3.9,26.6c-0.7,9.5-2.7,19.5-1.3,29
		c0.1,0.9,1,1.3,1.8,1.1c-1.1,7.9-1.5,15.9-0.2,23.6c0.1,0.8,1.4,0.9,1.5,0.1C2978.8,346.9,2978.6,335.7,2979.3,324.6z"/>
	<path class="st8" d="M3012.4,417.9c-0.6-2.3-1.1-4.7-1.7-7c0.5,0.1,1.1-0.3,0.9-1c-9.9-37.9,7.6-76.6,2.3-114.9
		c-0.1-0.6-0.6-0.9-1.1-0.9c-0.2-0.5-0.9-0.7-1.2-0.1c-3.1,7.4-6,15.6-7,23.6c-0.1,0.9,1.2,1.4,1.6,0.5c1.6-3.5,2.9-7.3,4-11.2
		c-0.2,6.3,0.3,12.7,0,18.7c-0.5,10.6-2.1,21.1-3.1,31.7c-1.1,12.4-1.9,24.2-0.5,36.1c-5.2-24.4-8.1-50,2.2-72.9
		c0.4-0.8-0.8-1.3-1.3-0.6c-9.3,14.5-8.7,32.2-7.4,48.7c1.3,16.1,2.4,35.2,10.5,49.7C3011.1,419,3012.7,419,3012.4,417.9z"/>
	<path class="st8" d="M3017.6,393.6c-0.1-13.9,0.1-27.9-1.5-41.7c-0.1-0.7-1.2-0.8-1.3-0.1c-1.3,12.7-0.9,25.5-0.8,38.2
		c0.1,13.7-0.9,28.1,1.3,41.7c0.1,0.9,1.5,1,1.7,0.1C3018.7,419.3,3017.7,406.2,3017.6,393.6z"/>
	<path class="st8" d="M3020.8,446.6c-5.8-12.5-10.5-25.4-13.5-38.8c-2.8-12.6-3.3-25.2-4.8-38c-0.1-0.8-1.5-0.9-1.6-0.1
		c-0.1,1-0.2,2-0.2,3c-0.2-3.2-0.5-6.4-0.9-9.6c-0.1-0.9-1.6-1.1-1.8-0.1c-3.1,19,2.1,41.2,10.4,59.3c3,8.7,6.7,17.1,10.7,24.8
		C3019.7,448.1,3021.3,447.6,3020.8,446.6z"/>
	<path class="st9" d="M3010.9,311.7c-0.1-0.9-1.6-1-1.7-0.1c-1.4,23.5-2.6,47.7-0.6,71.1c0.1,1.2,2.1,1.4,2.3,0.1
		C3014.1,359.6,3013.1,335,3010.9,311.7z"/>
	<path class="st9" d="M3020.6,447.4c-6.6-13.3-3.4-29-4.5-43.3c-0.1-0.9-1.6-1-1.7-0.1c-0.6,3.7-0.9,7.6-0.9,11.5
		c-0.2-0.9-0.3-1.8-0.5-2.7c-0.2-1.1-2-1.4-2.2-0.1c-0.2,1.6-0.3,3.3-0.4,5c-0.1-0.4-0.2-0.9-0.2-1.3c-1.4-10.1-0.3-20-0.3-30.2
		c0-0.9-1.6-1.2-1.8-0.3c-2.6,8-3.2,17.4-2.1,26.9c-1.7-6.1-3.2-12.4-4.2-19c-1.4-9.3-2.4-18.7-1.6-28.1c0.4-5.1,3.9-12.2,2.7-17.1
		c-0.1-0.3-0.5-0.4-0.8-0.4c-0.1,0-0.3,0.1-0.4,0.1c-0.2,0-0.2,0.2-0.2,0.4c0,0.1,0,0.2,0,0.4c0,0.1,0.2,0.2,0.3,0.1
		c-4.6,3.6-5.3,16-5.6,21.1c-0.6,9.2,0.5,18.3,2,27.4c2.3,14.4,4.8,32,14.7,43.4c0.4,0.5,1.1,0.6,1.6,0.4c0.1,0.2,0.2,0.3,0.3,0.5
		c1.1,3,2.4,5.9,3.9,8.5c0.2,0.3,0.7,0.2,0.6-0.2c-0.2-0.6-0.4-1.3-0.6-1.9l0.1,0.1c0.4,0.6,1.5,0.1,1.2-0.6
		c-0.1-0.2-0.2-0.5-0.3-0.7c0.2,0.2,0.3,0.5,0.5,0.7C3020.1,448.2,3020.8,447.9,3020.6,447.4z"/>
	<path class="st1" d="M3005,351.1c1.5-7.4,3.5-14.7,5.4-22c3.2-12.4,7.5-26.7,4.3-39.4c-0.2-0.8-1.5-1.1-1.7-0.1
		c-2.4,15.5-4.7,29.6-9.8,44.6c-3.4,10.3-9.5,23.2-5.9,34c0.5,1.5,2.6,1.4,3.3,0.2C3003.4,363,3003.7,357,3005,351.1z"/>
	<path class="st1" d="M3074.7,361.7c-10.9,7.7-19.8,18.6-27.1,29.6c-0.4,0.5,0.6,0.9,0.9,0.4c7.6-11.4,16.7-20.2,26.6-29.5
		C3075.5,361.9,3075,361.4,3074.7,361.7z"/>
	<path class="st1" d="M2955.2,350c0,0.1,0.1,0.5,0.3,1c0,0.2-0.1,0.3-0.1,0.5C2955.2,350.5,2955.1,350.1,2955.2,350z"/>
	<path class="st1" d="M2977.2,365.8c0,0.2,0,0.3,0,0.5c-0.3-0.8-0.5-1.2-0.6-1.4C2976.7,365.1,2976.9,365.4,2977.2,365.8z"/>
	<path class="st1" d="M2995.7,406.9c0,0.1,0.1,0.5,0.3,0.9c0,0.2-0.1,0.3-0.1,0.5C2995.8,407.4,2995.7,407,2995.7,406.9z"/>
	<path class="st1" d="M3010.5,415.4c0.1,0.1,0.2,0.4,0.3,0.8c0,0.1-0.1,0.3-0.1,0.4C3010.6,415.9,3010.5,415.6,3010.5,415.4z"/>
	<path class="st1" d="M2985.6,371.9c-0.6,1-1.3,1.9-2,2.8c-1.8,2.4-3.5,4.6-5.4,6.6s-3.9,3.6-5.6,4.9c-1-2.8-1.6-6.6-1.4-10.2
		c0.1-1.8,0.1-3.7,0.1-5.4c0.1-1.7,0.1-3.3,0.1-4.7c0-3.4,0-6.9,0-10.4c3.4-1.4,8.7-0.3,11,3.1
		C2985.1,362.6,2985.3,367.3,2985.6,371.9z"/>
	<path class="st1" d="M3022.1,457.3c-1.9-2.2-4-5-6.1-8.2c-2-3.2-4-6.8-5.9-10.5c-3.8-7.4-6.9-15.5-9.2-22.3
		c-1.5-4.1-2.8-8.4-3.9-12.8c0.6,0.9,1.1,1.8,1.7,2.8c9.2,15.6,17.2,31.8,24,48.6C3022.5,455.8,3022.3,456.6,3022.1,457.3z"/>
</g>
</svg>
