<?xml version="1.0" encoding="utf-8"?>
<!-- Generator: Adobe Illustrator 22.0.0, SVG Export Plug-In . SVG Version: 6.00 Build 0)  -->
<svg version="1.1" id="Flowers_2" xmlns="http://www.w3.org/2000/svg" xmlns:xlink="http://www.w3.org/1999/xlink" x="0px" y="0px"
	 viewBox="0 0 4000 795.1" style="enable-background:new 0 0 4000 795.1;" xml:space="preserve">
<style type="text/css">
	.st0{fill:#3F6E4D;}
	.st1{opacity:0.66;fill:#3F6E4D;enable-background:new    ;}
	.st2{fill:#86B77B;}
</style>
<g>
	<path class="st0" d="M3713.2,647.9c18.6-13.5,37.3-26.9,56-40.3c-2.3,1.7-4.6,3.4-6.9,5.1c-11.4,8.3-23.2,17-35.4,25.5
		C3722.3,641.5,3717.7,644.7,3713.2,647.9z M3713.2,647.9c18.6-13.5,37.3-26.9,56-40.3c-2.3,1.7-4.6,3.4-6.9,5.1
		c-11.4,8.3-23.2,17-35.4,25.5C3722.3,641.5,3717.7,644.7,3713.2,647.9z M3713.2,647.9c18.6-13.5,37.3-26.9,56-40.3
		c-2.3,1.7-4.6,3.4-6.9,5.1c-11.4,8.3-23.2,17-35.4,25.5C3722.3,641.5,3717.7,644.7,3713.2,647.9z M3713.2,647.9
		c18.6-13.5,37.3-26.9,56-40.3c-2.3,1.7-4.6,3.4-6.9,5.1c-11.4,8.3-23.2,17-35.4,25.5C3722.3,641.5,3717.7,644.7,3713.2,647.9z
		 M3713.2,647.9c18.6-13.5,37.3-26.9,56-40.3c-2.3,1.7-4.6,3.4-6.9,5.1c-11.4,8.3-23.2,17-35.4,25.5
		C3722.3,641.5,3717.7,644.7,3713.2,647.9z M3713.2,647.9c18.6-13.5,37.3-26.9,56-40.3c-2.3,1.7-4.6,3.4-6.9,5.1
		c-11.4,8.3-23.2,17-35.4,25.5C3722.3,641.5,3717.7,644.7,3713.2,647.9z M3713.2,647.9c18.6-13.5,37.3-26.9,56-40.3
		c-2.3,1.7-4.6,3.4-6.9,5.1c-11.4,8.3-23.2,17-35.4,25.5C3722.3,641.5,3717.7,644.7,3713.2,647.9z M3713.2,647.9
		c18.6-13.5,37.3-26.9,56-40.3c-2.3,1.7-4.6,3.4-6.9,5.1c-11.4,8.3-23.2,17-35.4,25.5C3722.3,641.5,3717.7,644.7,3713.2,647.9z
		 M3032.5,701.4l-0.4-2.7c0,0,10.4-1.6,28.7-4.3c9.2-1.4,20.2-3.2,32.8-5.4c12.6-2.1,26.9-4.6,42.3-7.6c7.7-1.5,15.8-3.1,24-4.9
		c8.3-1.7,16.8-3.8,25.5-5.9c8.7-2.2,17.6-4.5,26.6-7.3c4.5-1.4,9-2.8,13.5-4.2c4.5-1.5,9.1-3.1,13.7-4.7
		c18.3-6.5,36.9-13.6,55.3-21.5c4.7-1.9,9.1-4,13.7-6c2.2-1,4.5-1.9,6.9-3l7-3.3l7.1-3.3l1.8-0.8l0.2-0.1c0,0,0,0,0.1,0l0.3-0.1
		l0.8-0.4l3.4-1.7c4.6-2.2,9.1-4.5,13.6-7c18.1-9.6,36.3-19.9,54.7-29.6c9.2-4.8,18.5-9.5,28-13.9c9.4-4.3,19.3-8.3,28.6-11.7
		c19.3-6.8,38.2-11.4,55.8-15.6c17.7-4.2,34.1-7.9,49.1-12.1c14.9-4.1,28.3-8.7,39.7-13.6c0.5-0.2,0.9-0.4,1.4-0.6
		c10.8-4.6,19.8-9.5,27.3-13.7c3.2-1.8,6.1-3.5,8.6-5.1c0.2-0.1,0.3-0.2,0.5-0.3c-0.6-0.1-1.1-0.3-1.7-0.4l0,0
		c-1.9-0.4-3.7-0.9-5.5-1.3c-2.2-0.5-4.3-1-6.5-1.5c-5-1.2-10-2.3-15-3.5c-2.4-0.6-4.8-1.1-7.2-1.7c-4,2-10.1,4.9-18.2,8.5
		c-7.6,3.4-16.8,7.4-27.5,11.8c-8.4,3.4-17.6,7-27.6,10.9c-2.7,1.1-5.5,2.2-8.4,3.3c-13.2,5.1-27.5,10.6-42.7,16.6
		c-15.2,5.8-31.1,12.1-47.7,18.3c-16.6,6.2-33.8,12.5-51.4,18.5c-8.8,3-17.6,6.1-26.6,9c-8.9,2.9-17.9,5.9-26.9,8.8
		c-18,5.6-36.4,10.5-54.6,14.7c-18.3,4.2-36.3,8.3-53.8,12.3c-17.6,4-34.7,7.6-51.2,9.8c-8.3,1.1-16.4,2-24.3,2.4
		c-4.1,0.2-7.6,0.4-11.6,0.5c-3.9,0.1-7.6,0.1-11.3,0c-14.6-0.3-28-1.9-39.8-4.3c-11.7-2.4-21.7-5.5-29.6-8.5c-8-3-14-6.1-18.1-8.2
		c-4-2.3-6.1-3.4-6.1-3.4l1.2-2.4c0,0,2.1,1,6.2,2.8c4.1,1.7,10.2,4.2,18.2,6.5c7.9,2.3,17.8,4.5,29.2,5.8c5.7,0.7,11.9,1,18.3,1.1
		c6.4,0.1,13-0.1,19.9-0.6c3.5-0.3,7-0.6,10.5-1s7.5-1,11-1.6c7.4-1.2,15-2.8,22.7-4.7c15.5-3.8,31.6-8.7,48-14.8
		c16.3-6.2,33.1-13.5,50.3-20.6s34.8-13.9,52.8-19.9c9-3,18-5.7,27-8.6c9-2.8,18-5.5,26.8-8.2c17.8-5.4,35.5-10.4,52.6-15
		c17.2-4.7,33.8-8.9,49.5-13c15.8-4.1,30.7-7.9,44.5-11.5s26.4-6.8,37.6-9.5c11.3-2.7,21.1-4.9,29.3-6.5c4-0.8,7.6-1.5,10.7-2.1
		c-8.9-2.4-17.9-4.8-26.9-7.3c-4.4-1.1-8.8-2.5-13.2-3.9c-7.6,6.6-16.4,12.2-25.5,16.8c-11.2,5.6-22.9,10-34.7,13.6
		c-11.8,3.8-23.8,6.7-35.6,9.7l-17.8,4.4c-2.9,0.7-6.1,1.4-9.2,2.1l-5.5,1.1l-3.7,0.7c-24.7,4.3-49.7,6.5-74.1,8
		c-12.2,0.9-24.3,1.6-36.1,2.7c-11.9,1-23.7,2.3-35.2,4c-11.6,1.8-23,3.9-34.3,6.7c-5.6,1.4-11.2,2.9-16.8,4.5
		c-2.8,0.8-5.6,1.7-8.3,2.6l-4.5,1.5l-4.4,1.3l-8.7,2.6c-3.2,0.8-6.3,1.6-9.5,2.3c-3.2,0.8-6.4,1.5-9.5,2c-3.1,0.6-6.2,1.1-9.4,1.6
		c-12.6,1.8-25.4,2.9-38.1,2.8c-12.7,0.1-25.4-0.7-38-2l-9.4-1.1c-1.6-0.2-3.1-0.4-4.6-0.7c-1.6-0.3-3.1-0.5-4.7-0.7
		c-6.2-0.9-12.4-2.2-18.6-3.4c-12.3-2.7-24.4-5.8-36.3-9.7c-9.1-2.8-18-6.1-26.8-9.6l-0.1,0.3l-8.3-3.7l0.9-2.6
		c11.9,3.2,23.8,6.3,35.9,8.4c12,2.3,24.1,3.9,36.1,4.9c6,0.4,12,1,18.1,1c6,0.2,12,0.2,18,0c3,0,6-0.3,8.9-0.5c3-0.3,6-0.3,8.9-0.7
		c5.9-0.7,11.8-1.3,17.6-2.4c11.7-1.7,23-4.5,34.3-7.3c5.5-1.7,11.3-2.9,16.7-4.8c1.3-0.4,2.7-0.9,4-1.3l0,0c1.3-0.4,2.7-0.8,4-1.2
		l4.9-1.7c-1.4,0.2-2.8,0.5-4.2,0.7c-11.3,1.8-22.7,3.3-34.1,4.5c-11.5,1.2-23,2-34.6,2.3c-11.6,0.4-23.2,0.2-34.8-0.4
		c-11.6-0.7-23.2-1.9-34.7-3.8c-11.5-1.9-22.9-4.4-34.1-7.7c-2.3-0.7-4.5-1.4-6.8-2.1c-8.8-2.9-17.5-6.3-25.9-10.2h-0.1l0,0l0.9-2.6
		l0,0c11.2,2.3,22.4,4.2,33.5,5.6c11.2,1.2,22.3,2.2,33.5,2.6c11.2,0.3,22.3,0.5,33.4,0c11.1-0.5,22.2-1.1,33.2-2.2
		c11-1.1,22.1-2.3,33-3.9c11.1-1.5,22.1-3.2,33.1-5.2c11-1.9,22-4,33-6.2l33-6.7l33.3-6.6c11.1-2.1,22.3-4.1,33.6-5.9
		c5.6-0.9,11.3-1.7,17-2.6c5.7-0.8,11.1-1.5,17-2.2c11.4-1.3,22.7-2.5,34-3.6l33.8-2.9c8.6-0.7,17.1-1.5,25.6-2.4
		c2.7-0.2,5.3-0.6,7.9-0.9c11.2-1.2,22.2-2.9,33.2-4.3c5.8-0.7,11.5-1.3,17.3-1.7c-2.2-0.8-4.4-1.5-6.6-2.3
		c-6.3-2.2-12.6-4.3-18.9-6.5c-9.1-3.6-18.2-7-27.2-10.5c-0.1,0.5-0.3,1-0.5,1.4l0.2,1l-2,0.5l-0.5,0.1l-7.1,1.6
		c-6.2,3.9-13.2,7.1-20.3,9.4c-10.6,3.6-21.6,5.8-32.5,7.4c-10.8,1.7-21.5,3-32.2,4.4c-10.7,1.3-21.5,2.7-32.2,3.8
		c-10.8,1.2-21.5,2.4-32.3,3.5c-10.7,1.2-21.5,2.1-32.2,3.2c-10.8,1-21.5,1.9-32.3,2.8l-32.3,2.5c-10.8,0.9-21.6,1.5-32.4,2.3
		c-10.8,0.8-21.6,1.3-32.4,1.9c-10.8,0.6-21.6,1-32.5,1.4s-21.8,0.5-32.7,0.5c-5.5,0-11-0.1-16.4-0.2c-5.5-0.1-11-0.3-16.4-0.5
		c-11-0.5-22-1.2-33-2.4c-21.9-2.2-43.9-5.8-65.3-11.8l0.2-2.7c3.7-0.3,7.4-0.5,11.1-0.7c1.8-0.1,3.5-0.2,5.3-0.3
		c5.4-0.3,10.8-0.7,16.2-1c10.8-0.7,21.5-1.5,32.2-2.3l32-2.7l32-2.9l32.1-2.9l32.2-2.7c10.8-0.8,21.6-1.5,32.4-2.1
		c10.8-0.6,21.6-1.3,32.4-1.8l32.4-1.6c10.8-0.4,21.6-0.9,32.5-1.2c10.8-0.3,21.7-0.7,32.5-0.9c10.9-0.3,21.7-0.5,32.5-0.6
		c10.8-0.2,21.7-0.2,32.6-0.2l32.5,0.1c0.7,0,1.4,0,2,0c10,0,19.8-0.4,29.5-1.6c5.8-0.8,11.5-2,17.1-3.7c3.2-0.9,6.4-2.1,9.5-3.4
		c-8-3.1-15.9-6.4-23.7-9.8c-4.7-2-9.3-4-14-6c-0.2-0.1-0.3-0.2-0.5-0.2l-0.1,0.1c0,0-1.5-0.6-4.3-1.9c-3-1.3-6-2.6-9-4.1
		c-0.6-0.3-1.1-0.5-1.7-0.8c-2.9-1.3-5.8-2.7-8.7-4.1c-4,0.8-9.9,2-17.2,3.3c-3.8,0.7-8,1.4-12.6,2.1c-4.6,0.7-9.6,1.4-14.9,2.2
		c-5.3,0.8-11,1.5-17,2.3s-12.3,1.4-19,2.1c-13.2,1.5-27.5,2.7-42.7,4s-31.2,2.3-47.8,3.4c-8.3,0.4-16.7,0.9-25.3,1.4
		c-8.6,0.4-17.2,0.6-26,0.7c-17.5,0.4-35.3,0-53-0.5c-17.8-0.8-35.6-1.7-53.1-3.1c-8.8-0.7-17.4-1.3-26-2.1
		c-8.6-0.9-17-1.7-25.3-2.5c-16.6-1.9-32.7-3.8-47.8-6.1c-7.6-1.1-15-2.2-22.1-3.3c-7.2-1-14-2.4-20.6-3.5
		c-6.6-1.2-12.9-2.3-18.9-3.3c-6-1.2-11.7-2.4-17-3.5c-5.4-1.1-10.3-2.1-14.9-3.1c-4.6-1-8.9-2-12.7-2.9
		c-15.2-3.6-23.9-5.9-23.9-5.9l0.4-2.7c0,0,1.1,0,3.3,0.1c3.9,0.1,11.1,0.4,21.1,1c15.5,0.8,37.5,2,64,3.4c13.2,0.6,27.5,1.3,42.7,2
		c15.1,0.6,31,1.2,47.5,1.9c16.5,0.5,33.5,1.2,50.9,1.6c17.3,0.7,34.8,0.8,52.4,1.3c17.6,0.2,35.1,0.9,52.4,1.4
		c17.3,0.7,34.3,1.3,50.8,1.9c8.2,0.3,16.3,0.4,24.3,0.6c8,0.2,15.8,0.5,23.3,0.5c15.1,0.2,29.5,0.4,42.7,0.3c13.2,0,25.3,0,36.1,0
		c10.8,0.1,20.2,0.1,27.9,0.2c3.1,0,5.9,0.1,8.4,0.1c-2.4-1.1-4.8-2.3-7.2-3.4l-6.7-3.2l-6.7-3.4c-4.4-2.2-8.8-4.5-13.2-6.8
		c-5.6-2.9-11.2-5.7-16.6-8.5c-0.3,0.2-0.7,0.3-1,0.4c-3.4,1.5-8.5,3.3-15,4.3c-6.5,1.1-14.6,1.2-23.9,1.8c-9.3,0.6-19.7,1-31.1,1.4
		c-11.4,0.5-23.7,0.8-36.8,1.1c-13,0.3-26.8,0.4-41.1,0.4c-9.6-0.1-19.5-0.1-29.5-0.3c-4.8-0.1-9.6-0.2-14.5-0.3
		c-15-0.2-30.2-0.9-45.4-1.5c-15.2-0.9-30.4-1.5-45.4-2.7c-15-1-29.7-2.3-43.9-3.6c-7.1-0.6-14.1-1.5-21-2.2
		c-6.8-0.8-13.5-1.4-20-2.3c-13-1.7-25.3-3.2-36.6-5c-5.7-0.8-11.1-1.7-16.3-2.4c-5.1-0.9-10-1.7-14.6-2.5
		c-9.2-1.6-17.2-2.9-23.7-4.3c-13.1-2.7-20.6-4.2-20.6-4.2l0.2-1.2l0.2-1.4c0,0,7.5,1,20.7,2.9c6.6,1,14.6,1.9,23.8,3.1
		c4.6,0.5,9.5,1.1,14.7,1.7c5.1,0.5,10.6,1.1,16.3,1.7c11.3,1.3,23.6,2.2,36.6,3.3s26.7,2.1,40.9,3c14.2,0.8,28.8,1.6,43.7,2.2
		c14.9,0.8,30,1.1,45.2,1.6c15.1,0.2,30.2,0.7,45.1,0.6c14.9,0.2,29.5,0,43.7,0c7.1,0,14.1-0.3,20.9-0.4c6.8-0.1,13.5-0.2,20-0.4
		c13-0.4,25.2-0.7,36.6-1.3c11.3-0.4,21.7-0.9,30.8-1.5c4.6-0.3,8.8-0.5,12.8-0.8c3-0.2,5.9-0.4,8.5-0.4c-1.4-0.8-2.9-1.7-4.6-2.7
		c-4.5-2.6-9.8-6-15.8-10.1c-1.2-0.8-2.4-1.6-3.7-2.5c-3.4-2-6.6-4-10-6l0.4,2.1c0,0-1.9,0.7-5.5,2c-3.6,1.2-8.7,3.1-15.6,4.7
		c-1.9,0.5-4,1-6.2,1.5c-1.7,0.4-3.5,0.8-5.3,1.1c-4.2,0.8-8.7,1.6-13.6,2.3c-4.9,0.6-10.1,1.2-15.6,1.8c-5.6,0.4-11.4,0.7-17.5,0.9
		c-12.2,0.2-25.4,0-39.3-1.1c-13.9-0.9-28.5-2.4-43.6-4.3c-15.1-1.8-30.5-4.1-46.2-6.7c-15.7-2.6-31.5-5.5-47.3-8.4
		c-7.9-1.5-15.8-2.9-23.7-4.3c-7.9-1.6-15.7-3.1-23.5-4.6c-5.7-1.2-11.4-2.3-17.1-3.5c-9.7-2-19.2-4.1-28.5-6.1
		c-14.7-3.4-29-6.8-42.4-10.3c-13.5-3.4-26.1-7-37.8-10.4c-11.6-3.5-22.2-6.8-31.6-10c-9.3-3.2-17.5-6-24.1-8.6
		c-6.6-2.4-11.8-4.6-15.3-6s-5.4-2.1-5.4-2.1l0.8-2.6c0,0,1.9,0.6,5.6,1.6c3.7,1,8.9,2.7,15.7,4.5c3.4,0.9,7.1,1.9,11.2,3.1
		c4.1,1.1,8.5,2.2,13.2,3.4c9.5,2.4,20.2,5,31.9,7.7c11.8,2.6,24.5,5.3,38,8.1s27.8,5.4,42.5,8c14.7,2.7,30,5.3,45.6,7.9
		c15.6,2.5,31.4,5,47.2,7.6c15.8,2.5,31.7,5,47.2,7.2c15.6,2.2,30.8,4.5,45.6,6.1c14.8,1.7,29.1,3.1,42.6,3.9
		c13.5,0.9,26.3,1.2,38.1,1.7c5.9,0.2,11.6,0.4,16.9,0.6c5.4,0.1,10.5,0.1,15.3,0.2c9.6,0.1,18,0.1,24.9,0.2
		c6.9,0.1,12.5-0.1,16.3,0c2.3,0,3.9,0.1,4.9,0.1c-1.3-0.8-2.6-1.6-3.9-2.3c-6.3-3.9-12.5-7.7-18.7-11.6v0.1c0,0-1.8,0.1-5.3,0.3
		s-8.6,0.5-15.1,0.7c-6.5,0.3-14.4,0.4-23.5,0.5c-4.5,0-9.4,0-14.5,0c-5.1-0.1-10.5-0.3-16-0.5s-11.4-0.3-17.5-0.6
		c-6-0.5-12.3-0.8-18.7-1.3c-12.8-0.7-26.3-2.4-40.3-3.8c-14-1.7-28.3-3.5-42.9-6c-7.3-1.1-14.6-2.3-22-3.6l0,0
		c-7.3-1.3-14.7-2.7-22.1-4c-14.7-3.1-29.4-6-43.8-9.5c-14.4-3.2-28.5-7-42.1-10.6c-6.8-2-13.4-3.8-20-5.7c-6.5-1.8-12.9-3.7-19-5.7
		c-6.2-1.9-12.2-3.8-18-5.7s-11.3-3.8-16.6-5.7s-10.4-3.7-15.3-5.4c-4.8-1.8-9.4-3.5-13.7-5.1c-4.3-1.6-8.3-3.1-12-4.5
		s-7-2.8-10.1-4c-12.1-5-19.1-7.9-19.1-7.9l0.9-2.6c0,0,7.1,2.4,19.6,6.4c3.1,1,6.5,2.3,10.3,3.4c3.8,1.2,7.8,2.5,12.2,3.9
		c4.3,1.4,9,2.8,13.8,4.4c4.9,1.4,10.1,2.9,15.5,4.5c5.4,1.5,10.9,3.3,16.8,4.9c5.8,1.6,11.8,3.2,18,4.9c6.2,1.8,12.6,3.3,19.1,5
		c2.3,0.6,4.6,1.2,6.9,1.7c4.3,1.1,8.7,2.2,13.1,3.3c13.6,3.1,27.6,6.5,42,9.5c14.3,3.2,28.9,5.8,43.5,8.6
		c14.6,2.5,29.3,5.2,43.7,7.2c14.5,2.4,28.7,3.9,42.5,5.9c6.9,0.8,13.7,1.6,20.4,2.4c3.3,0.4,6.6,0.8,9.9,1.2c3.3,0.3,6.5,0.7,9.6,1
		c12.7,1.3,24.7,2.6,35.7,3.5c5.6,0.5,10.9,1,15.9,1.5c5,0.4,9.8,0.8,14.3,1.1c4.5,0.4,8.7,0.8,12.6,1.1c3.9,0.3,7.5,0.5,10.8,0.8
		c6.5,0.5,11.6,0.9,15.1,1.2c0.1,0,0.2,0,0.3,0c-7.6-4.9-15.2-9.6-22.6-14.4c-6.3-4.1-12.4-8.1-18.5-12.2l0.1,0.7c0,0-1.7,0.9-5,2.1
		c-1.6,0.6-3.6,1.2-6.1,1.8s-5.3,1.1-8.5,1.4c-6.4,0.8-14.2,0.5-23.2-0.2c-8.9-0.7-18.9-1.8-29.8-3.5c-10.9-1.6-22.5-3.8-34.8-6.2
		c-12.3-2.5-25.1-5.2-38.4-8.2l0,0c-13.3-3-27-6.1-40.9-9.4c-13.9-3.3-28-6.7-42.1-10.4c-28.1-7.3-56.1-15-82.3-22.6
		c-13.1-3.8-25.7-7.6-37.7-11.2c-11.9-3.8-23.1-7.3-33.5-10.7c-10.4-3.3-19.9-6.6-28.2-9.4c-0.2-0.1-0.5-0.2-0.7-0.3
		c-8.1-2.8-15.1-5.2-21-7.2c-12-4.3-18.8-6.7-18.8-6.7l0.8-2.6c0,0,6.9,2,19.1,5.7c6.1,1.8,13.5,3.9,22,6.4c8.5,2.4,18,5.3,28.5,8.2
		c10.4,3,21.8,6.1,33.8,9.3s24.7,6.6,37.8,10.2c26.3,6.9,54.3,13.9,82.5,20.5c14.1,3.2,28.1,6.5,42.1,9.7
		c13.9,3.1,27.6,6.1,40.8,8.8c13.3,2.8,26.1,5.4,38.3,7.9c12.2,2.4,23.6,4.5,34.2,6c10.6,1.6,20.3,2.6,28.9,3.2
		c8.6,0.7,16.1,0.7,22.2,1.3c6.2,0.6,11,1.4,14.5,2.1c0.3,0.1,0.5,0.1,0.7,0.2c-18.5-12.3-36.1-24.3-52.8-35.9
		c-2.2,0.5-6.1,1.2-11.3,1.8c-4.3,0.5-9.7,0.9-15.8,0.9c-6.2,0.2-13.1-0.1-20.6-0.3s-15.7-0.7-24.3-1.1c-8.6-0.5-17.7-1.2-27.1-2
		c-9.4-0.9-19.1-1.8-28.9-3.1c-9.9-1.1-19.8-2.6-29.8-4.1c-10-1.8-19.9-3.3-29.6-5.3c-9.8-1.9-19.3-4-28.5-6.1
		c-4.6-1-9.1-2.2-13.6-3.3c-4.4-1.2-8.8-2.1-12.9-3.4c-8.4-2.4-16.2-4.6-23.5-7c-3.6-1.1-7.1-2.3-10.4-3.3c-3.2-1.2-6.3-2.3-9.2-3.3
		c-5.8-2.1-10.9-3.8-15-5.6c-8.2-3.3-12.9-5.2-12.9-5.2l0.9-2.5c0,0,4.8,1.6,13.1,4.5c4.1,1.5,9.2,3,15.1,4.9c2.9,0.9,6,1.9,9.3,2.9
		c3.3,0.9,6.7,1.9,10.4,2.9c7.2,2.2,15.2,4,23.5,6.1c4.2,1.1,8.5,2,12.9,3c4.4,0.9,8.9,2.1,13.5,2.9c9.2,1.8,18.7,3.8,28.4,5.4
		c9.7,1.8,19.5,3.1,29.4,4.6c9.9,1.2,19.8,2.7,29.6,3.6c9.8,1.1,19.4,1.9,28.7,2.7c9.3,0.7,18.3,1.4,26.9,1.8
		c8.5,0.4,16.6,0.8,24.1,1c3.7,0.1,7.3,0.2,10.7,0.3c3.4,0,6.6,0,9.6,0.2c6.1,0.2,11.3,0.6,15.8,1c1.8,0.1,3.4,0.3,4.9,0.5l-0.1-0.1
		c-13.7-9.5-26.8-18.6-39.2-27.1c-0.6,0.2-4.7,1.6-11.8,2.9c-3.8,0.7-8.5,1.2-13.9,1.6c-2.6,0.1-5.5,0.3-8.6,0.3
		c-3,0-6.2-0.1-9.5-0.3c-6.6-0.2-13.8-0.7-21.3-1.1c-7.6-0.5-15.6-1.2-23.8-2c-8.3-0.8-16.8-1.8-25.4-3.1c-3.4-0.4-6.8-1-10.1-1.5
		s-6.5-1.1-9.8-1.6c-2.1-0.3-4.1-0.7-6.2-1c-8.7-1.7-17.4-3.3-25.9-5.4c-8.5-1.8-16.9-4-24.9-6.2c-3.8-1-7.6-2.2-11.2-3.2
		c-0.2-0.1-0.4-0.1-0.6-0.1c-3.8-1.2-7.6-2.2-11.2-3.5c-7.3-2.4-14.1-4.7-20.3-7.1c-3.1-1.2-6.1-2.3-9-3.4c-2.8-1.2-5.4-2.3-7.9-3.3
		c-5-2.1-9.4-3.9-12.8-5.7c-6.2-2.9-10-4.8-10.9-5.2c0,0-0.1,0-0.2-0.1l1-2.5c0,0,4.1,1.5,11.4,4.1c3.6,1.4,8,2.9,13.1,4.5
		c2.6,0.8,5.3,1.7,8.1,2.7c2.8,0.8,5.9,1.7,9.1,2.7c6.2,2,13.1,3.7,20.4,5.7c3.6,1,7.4,1.9,11.2,2.8c3.8,0.9,7.7,1.9,11.7,2.7
		c8,1.7,16.3,3.6,24.7,5c8.4,1.7,17.1,2.9,25.7,4.4c8.6,1.2,17.2,2.5,25.7,3.4c8.5,1.1,16.9,1.7,25,2.6c8.1,0.7,16,1.3,23.4,1.7
		s14.5,0.8,21,0.9c6.5,0.2,12.5,0.5,17.7,0.9c5.3,0.5,9.9,1.1,13.8,1.7c2.2,0.3,4.1,0.7,5.8,1.1c-7-4.8-13.7-9.4-20.1-13.8l-1.1,0.7
		c0,0-1.2-0.8-3-2.3v0.2c0,0-1.1,0.1-3,0.2c-2,0.1-4.9,0.1-8.5,0c-7.2-0.2-17.6-1-29.8-3.1c-6.1-1-12.7-2.4-19.7-3.8
		c-4.1-0.8-8.3-1.7-12.6-2.6c-3.1-0.6-6.1-1.3-9.3-1.9c-7.6-1.7-15.4-3.3-23.4-5.3c-7.9-1.8-16-3.9-24-5.9
		c-8.1-2.1-16.1-4.2-23.9-6.5c-7.9-2.2-15.6-4.6-23-6.9c-7.4-2.4-14.6-4.7-21.4-7.1c-6.8-2.4-13.1-4.7-18.9-6.9
		c-2.9-1.1-5.7-2.2-8.3-3.2c-2.7-1.1-5.1-2.2-7.5-3.1c-4.7-2-8.8-3.7-12.1-5.2c-6.6-3-10.4-4.8-10.4-4.8l1-2.5c0,0,3.9,1.4,10.7,3.7
		c3.3,1.2,7.5,2.5,12.3,4.1c0,0,0,0,0.1,0c4.8,1.6,10.2,3.2,16.1,5.1c5.9,1.9,12.3,3.6,19.1,5.6s14,3.9,21.5,5.9
		c7.5,1.9,15.2,4,23.1,5.8c7.8,2,15.9,3.7,23.9,5.7c8.1,1.8,16.1,3.6,24,5.3s15.7,3.3,23.3,4.9c7.6,1.5,14.9,2.9,21.8,4.3
		c6.9,1.3,13.5,2.6,19.6,3.7c6,1.3,11.6,2.5,16.4,3.8c4.9,1.3,9.1,2.6,12.6,3.7c2,0.7,3.7,1.3,5.2,1.8l-0.1-0.1
		c-18.5-12.5-34.9-23.4-48.7-32.3c-0.7-0.5-1.4-0.9-2.2-1.4l-0.4,1.3c0,0-3.9,0.5-10.3,0c-3.2-0.2-7.1-0.8-11.4-1.7
		c-2.7-0.6-5.5-1.2-8.5-2.1c-1.9-0.6-3.9-1.2-5.9-1.9c-10.3-3.5-22.3-7.8-35.1-12.6c-6.4-2.4-12.9-5-19.6-7.7
		c-6.6-2.6-13.2-5.5-19.8-8.3c-0.1,0-0.2-0.1-0.2-0.1c-6.6-3-13.3-5.9-19.8-9c-6.5-3-12.8-6.1-19-9.2c-9.7-5-18.9-9.8-27-14.5
		c-2-1.1-4-2.3-5.9-3.4c-2.3-1.4-4.6-2.7-6.8-4c-0.1,0-0.2-0.1-0.3-0.2c-2-1.2-3.9-2.4-5.7-3.5c-3.8-2.4-7.1-4.4-9.7-6.3
		c-5.3-3.6-8.3-5.6-8.3-5.6l1.4-2.3c0,0,3.2,1.6,8.9,4.4c5.7,2.8,13.8,6.8,23.6,11.4c4.9,2.4,10.3,4.6,15.9,7.2
		c5.7,2.6,11.7,5.2,17.9,7.8c6.3,2.6,12.6,5.4,19.2,8c6.5,2.7,13.3,5.3,19.9,7.9c6.8,2.6,13.4,5.2,20.1,7.7
		c4.3,1.6,8.6,3.2,12.8,4.7c1.5,0.6,3.1,1.1,4.6,1.7c-0.6-0.5-1.3-0.9-2-1.3c-4.7-3.1-9.5-6.8-14.7-10.5c-5.2-3.8-10.5-7.9-16-12.2
		s-11.2-8.8-16.8-13.5c-5.7-4.6-11.3-9.5-17-14.3c-11.2-9.8-22.1-20-32.2-29.7c-4.9-5-9.7-9.7-14.2-14.3c-4.5-4.5-8.6-9-12.3-13.1
		c-3.8-4.1-7.2-7.9-10.2-11.3c-3-3.4-5.6-6.4-7.6-8.9c-4.1-5.1-6.5-7.9-6.5-7.9l0.7-0.6l1.3-1.3c0,0,11.2,9.7,28,24.2
		c4.2,3.6,8.8,7.5,13.6,11.6c4.8,4.2,10,8.3,15.3,12.8c5.4,4.3,10.7,9,16.4,13.5s11.4,9.1,17.1,13.7c5.8,4.5,11.5,9.1,17.3,13.4
		c5.7,4.4,11.4,8.6,16.9,12.8c5.5,4.1,10.9,8,15.9,11.7c5.1,3.7,10,7.2,14.4,10.4c4.4,3.3,8.3,6.6,11.6,9.6c2,1.9,3.7,3.6,5.3,5.2
		l0.2-0.4c0,0,0.9,0.5,2.5,1.5c-1.5-1.5-3-3.1-4.6-4.8c-2.6-2.9-5.3-6.2-8.2-9.5c-2.9-3.4-5.9-7-9-10.7l-0.9-1
		c-6.1-7.1-12.5-14.6-18.9-22.1c-13.5-15.7-27.2-31.3-37.3-43c-10.2-11.7-16.9-19.7-16.9-19.7l1.5-1.5l0.4-0.5c0,0,1.9,1.7,5.4,4.7
		c1.7,1.5,3.7,3.4,6.1,5.5c2.4,2.1,5,4.6,7.9,7.2c5.7,5.3,12.2,11.7,19.2,18.6c6.9,7,14.2,14.4,21.3,22c7.1,7.7,14.2,15.3,20.6,22.7
		c6.4,7.4,12.5,14.2,17.3,20.3c4.8,6.1,8.2,11.8,10.4,15.9c1.4,2.7,2.3,4.8,2.7,5.9c2.6,1.6,5.5,3.3,8.7,5.2
		c6,3.7,12.9,7.8,20.6,12.6c10.3,6.4,22,13.8,34.9,22.2l-0.2-0.2c-2.7-3.3-5.3-7.1-8.2-11c-2.8-4-6.1-8-9.3-12.2c-2-2.5-4-5-6-7.5
		c-1.4-1.7-2.8-3.4-4.2-5.2c-3.5-4.4-7.2-8.7-10.9-13s-7.5-8.5-11.2-12.7c-3.7-4.2-7.5-8.2-11.1-12.2c-3.6-3.9-7.1-7.8-10.5-11.3
		s-6.6-6.9-9.6-10c-12-12.4-20-20.7-20-20.7l1.8-2c0,0,2.3,1.6,6.5,4.6c1.9,1.3,4,3,6.5,4.9c0.3,0.2,0.5,0.4,0.8,0.6
		c2.8,2.1,5.9,4.6,9.3,7.3c3.4,2.7,7,5.7,10.8,8.9s7.7,6.7,11.8,10.3c4,3.7,8.1,7.5,12.2,11.6c4.1,3.9,8.2,8.1,12.2,12.3
		c4,4.3,7.9,8.5,11.7,12.8c3.9,4.2,7.4,8.6,10.9,12.8c3.4,4.3,6.7,8.4,9.7,12.4c3.1,4,5.9,7.7,8.2,11.5c2.4,3.7,4.3,7.2,5.8,10.4
		s2.7,6.1,3.5,8.6c0.4,1.1,0.7,2.1,0.9,3c7.4,4.9,15.2,10,23.3,15.4c2.6,1.8,5.3,3.5,8,5.3c4.3,2.9,8.7,5.8,13.1,8.7
		c0.3,0.2,0.6,0.4,0.9,0.6c-0.1-0.1-0.2-0.3-0.3-0.4c-1-1.3-2-2.7-3-4.1c-0.3-0.4-0.6-0.9-1-1.4c-3.8-5.6-8-11.7-12.6-18
		c-4.5-6.3-9.4-12.9-14.3-19.8c-5.2-6.7-10.3-13.9-15.8-20.9c-5.5-7.1-11-14.3-16.6-21.5c-5.7-7.1-11.2-14.3-16.9-21.2
		c-5.6-7.1-11.3-13.8-16.6-20.5c-10.9-13.2-21.1-25.6-29.9-36.2c-7.5-9.1-14-16.9-18.9-22.8c-0.8-1-1.6-1.9-2.3-2.9
		c-5.1-6.2-8-9.9-8-9.9l1.9-1.9c0,0,3.6,2.9,9.9,8c3.2,2.5,6.9,5.7,11.1,9.4c2.1,1.8,4.4,3.8,6.8,5.8c2.3,2.2,4.8,4.4,7.4,6.7
		c5.1,4.6,10.7,9.7,16.5,15.1c5.8,5.4,11.8,11.3,18,17.4c12.3,12.2,25,25.6,37.4,39.5c6.1,7,12.3,13.9,18,21
		c5.9,7,11.5,14,16.9,20.9c5.2,6.9,10.5,13.5,15.1,20c4.7,6.5,9.1,12.6,13.1,18.3s7.2,11.3,9.5,16.5c2.4,5.2,4,10,4.9,14.1
		c0.9,3.6,1.3,6.6,1.5,8.9c0.1,0.5,0.1,1,0.1,1.4c9,6,18.2,12.1,27.6,18.3c0,0,0.1,0,0.1,0.1c9.5,6.2,19.2,12.5,29.2,18.9
		c4.8,3,9.6,6.1,14.6,9.2c1.3,0.8,2.6,1.6,3.9,2.5c2.6,1.7,5.3,3.3,7.9,4.9c-0.3-0.2-0.6-0.5-0.9-0.8c-0.9-0.8-1.8-1.7-2.7-2.5
		c-3.1-2.9-6.1-5.8-9.2-8.8c-7.8-8-16-16.1-23.9-24.8c-8.1-8.5-15.9-17.5-23.7-26.5c-7.6-9.1-15.3-18.2-22.4-27.6
		c-7.3-9.2-14-18.5-20.5-27.5c-6.3-9.2-12.5-18-17.9-26.6c-5.5-8.6-10.7-16.7-15.1-24.4c-2.2-3.8-4.4-7.5-6.4-11
		c-1.9-3.5-3.8-6.9-5.6-10.1c-3.5-6.3-6.4-11.9-8.7-16.5c-4.6-9.2-7.1-14.5-7.1-14.5l2.3-1.4c0,0,3.5,4.8,9.5,13.3
		c0.6,0.8,1.2,1.8,1.9,2.8c2.6,3.7,5.5,7.8,8.9,12.3c2.1,2.9,4.3,6,6.6,9.3c2.4,3.2,4.9,6.6,7.6,10.1c2.6,3.5,5.3,7.2,8.2,11
		c2.9,3.7,5.8,7.6,8.9,11.6c3,4,6.3,8.1,9.5,12.1c3.3,4.1,6.7,8.4,10.1,12.6c7,8.5,14.1,17.3,21.7,25.9c7.4,8.8,15.2,17.4,22.9,26.2
		c8,8.5,15.7,17.3,23.8,25.5c7.8,8.4,15.9,16.3,23.6,24c15.6,15.4,30,29.8,42.5,42.1c6.2,6.2,11.9,12,16.9,17.1
		c2.2,2.2,4.2,4.3,6.1,6.3c0.7,0.4,1.5,0.8,2.2,1.2c0.1,0.1,0.2,0.1,0.3,0.2c5.2,2.8,10.4,5.5,15.6,8.3c1.1,0.6,2.3,1.2,3.5,1.9
		c3.2,1.8,6.4,3.4,9.6,5.1c0.1,0,0.2,0.1,0.3,0.2c5.3,2.7,10.7,5.2,16,7.9c0.7,0.3,1.3,0.6,2,1c-4.5-3.9-9.1-8.1-13.9-12.3
		c-8-7-16.1-14.7-24.6-22.5c-8.3-8-17.1-16.2-25.5-24.9c-8.6-8.5-17.1-17.4-25.7-26.3c-8.4-8.9-16.8-18-24.8-27.1
		c-8.1-9-15.9-18-23.3-26.8c-7.3-8.9-14.5-17.4-21-25.8c-6.6-8.2-12.7-16.2-18.2-23.5c-2.8-3.7-5.4-7.2-7.9-10.6
		c-2.4-3.4-4.8-6.6-6.9-9.7c-4.4-6.1-8.2-11.3-11.1-15.8c-6-8.9-9.4-13.9-9.4-13.9l2.2-1.7c0,0,4,4.6,11.1,12.7l0.9,1.1
		c3.3,3.8,7.2,8.4,11.7,13.5c4.9,5.6,10.4,11.9,16.6,18.7c3.1,3.4,6.2,7,9.5,10.6c3.4,3.7,6.8,7.4,10.3,11.3
		c7,7.8,14.6,15.8,22.4,24.2c7.9,8.3,15.9,16.9,24.4,25.4c8.3,8.7,17.1,17.1,25.6,25.8c8.7,8.5,17.4,17.1,26.1,25.3
		c8.7,8.3,17.4,16.3,25.7,24c4.3,3.8,8.4,7.6,12.5,11.3s8.1,7.3,12,10.8c7.9,6.9,15.3,13.4,22.1,19.4c6.8,6.2,12.8,12,18.1,17.2
		c4.8,4.9,8.8,9.3,12.3,13.1c0.4,0.2,0.7,0.3,1.1,0.5c2.4,1.1,4.8,2.2,7.3,3.2c2.2,0.9,4.3,1.8,6.5,2.7c4.6,1.9,9.3,3.8,14,5.7
		c1.5,0.6,3.1,1.3,4.7,2c6.8,2.8,13.7,5.4,20.7,8c0.1,0.1,0.2,0.1,0.3,0.1l0,0c3.6,1.4,7.3,2.7,11,4.1c0.2,0.1,0.4,0.1,0.6,0.2
		c3.2,1.2,6.4,2.4,9.7,3.5c0.9,0.3,1.8,0.6,2.7,1c-0.5-0.3-1.1-0.6-1.7-0.9l0,0c-4-2-8.6-4.5-13.5-7.4c-6.6-3.7-13.8-8.1-21.4-13.3
		c-3.9-2.5-7.8-5.2-11.8-8.1c-4-3-8.1-6-12.3-9.2c-8.4-6.3-16.8-13.5-25.5-21c-8.5-7.7-17.2-15.7-25.6-24.3
		c-8.5-8.5-16.6-17.7-24.5-27c-7.8-9.4-15.4-19-22.5-28.7c-7.4-9.5-14.1-19.3-21-28.4c-6.7-9.3-13.2-18.2-19.3-26.6
		c-3.1-4.2-6.1-8.3-9-12.2c-2.9-4-5.6-7.9-8.3-11.6c-5.3-7.4-10.1-14.2-14.2-20.3c-4.2-6.1-7.9-11.4-10.8-15.7
		c-5.9-8.8-9.3-13.8-9.3-13.8l1.2-0.9l1-0.7c0,0,4,4.6,10.8,12.6c3.4,4,7.7,8.8,12.6,14.3c4.9,5.5,10.5,11.6,16.7,18.2
		c6.1,6.6,12.8,13.8,20.1,21.2c7.1,7.5,15.1,15,23.3,22.7c8.3,7.7,17,15.5,25.9,23.2c7,6.2,14.3,12.3,21.4,18.6
		c1.9,1.7,3.7,3.3,5.5,5c9,7.8,17.7,16,26.3,24c8.4,8.2,16.8,16.1,24.7,24c3.9,3.9,7.9,7.8,11.6,11.7c3.8,3.9,7.4,7.7,10.9,11.4
		c7.1,7.5,13.7,14.7,19.7,21.4c3,3.4,5.9,6.7,8.6,9.8c2.7,3.1,5.3,6.1,7.6,8.9c0.9,1.2,1.9,2.2,2.8,3.3c3.6,4.4,6.7,8.3,9.4,11.8
		c3.3,4.2,5.8,7.7,7.5,10.1c1.7,2.4,2.6,3.7,2.6,3.7l-0.5,0.6c5.9,1.9,11.7,3.9,17.6,5.8c3.8,1.2,7.6,2.5,11.4,3.7
		c1,0.3,2.1,0.6,3.2,1c0.5,0.1,0.9,0.3,1.4,0.4l10.9,3.2l1.1,0.3c-1-0.7-2-1.3-3-1.9c-3.9-2.6-8.1-5.2-12.2-8.1
		c-4.1-3-8.5-5.9-12.8-9.1c-4.4-3.2-8.8-6.5-13.2-10.1c-4.4-3.5-8.9-7.2-13.4-11c-4.4-3.9-8.9-7.9-13.4-12c-4.6-4-8.9-8.3-13.3-12.7
		c-8.9-8.6-17.5-17.8-26.2-26.8c-8.4-9.3-17-18.5-24.9-28c-8.1-9.3-15.6-18.8-23-28c-7.1-9.4-14.1-18.3-20.3-27.1
		c-3.1-4.3-6.1-8.7-9-12.8s-5.5-8.2-8.1-12.1c-2.5-3.9-5-7.7-7.3-11.3c-2.2-3.6-4.4-7.1-6.4-10.3c-4-6.5-7.3-12.2-10-16.9
		c-5.3-9.5-8.2-15-8.2-15l2.2-1.5c0,0,3,3,8.2,8.6c1.1,1.2,2.3,2.4,3.6,3.8c1.9,2,3.9,4.2,6.1,6.6c2.2,2.4,4.7,4.9,7.3,7.6
		c2.6,2.8,5.3,5.7,8.2,8.7s6,6.2,9.2,9.6c6.4,6.7,13.4,13.8,20.8,21.4c3.6,3.9,7.5,7.6,11.4,11.5s7.9,7.9,12,12
		c8.2,8,16.6,16.3,25.4,24.5c8.7,8.3,17.7,16.5,26.6,24.8c9.1,8.1,18.1,16.3,27.1,24.1c4.5,4,9,7.9,13.4,11.7s8.8,7.6,13,11.5
		c0.3,0.3,0.7,0.6,1.1,0.9c3.9,3.5,7.8,6.8,11.5,10.3c4.1,3.7,8,7.3,11.9,10.8c7.7,7.2,14.9,13.9,21.6,20.2c3.4,3.1,6.5,6.1,9.6,9
		c3.1,2.8,6,5.5,8.8,8c5.4,5.2,9.8,10.2,13.2,14.7c1.3,1.7,2.4,3.4,3.5,4.9c0.9,1.5,1.7,2.8,2.4,4c0.2,0,0.3,0.1,0.4,0.1
		c0.9,0.2,1.9,0.5,2.8,0.7h0.1c1.1,0.3,2.2,0.6,3.4,0.9c0.1,0,0.1,0,0.2,0.1c1.7,0.4,3.4,0.8,5.1,1.2c0.4,0.1,0.7,0.2,1.1,0.2
		c0.9,0.2,1.9,0.4,2.8,0.7c-0.2-0.2-0.4-0.2-0.6-0.4c-5.7-4-12-8.8-18.5-14.3c-6.6-5.4-13.3-11.7-20.3-18.5s-13.9-14.4-20.8-22.4
		c-6.9-8-13.7-16.6-20.1-25.7c-4.4-6.1-8.6-12.5-12.6-19c-1.9-3.1-3.9-6.1-5.8-9.2c-5.8-9.7-11.6-19.3-17.2-28.9
		c-5.6-9.5-11.1-18.9-16.4-27.9c-5.2-9.2-10.2-18-14.9-26.4c-4.6-8.5-8.9-16.4-12.6-24c-3.8-7.4-7.2-14.3-10.1-20.5
		c-2.9-6.1-5.4-11.5-7.4-15.9c-3.9-8.9-6.1-14-6.1-14l2.4-1.2c0,0,3.1,4.7,8.4,12.8c2.6,4.1,6,8.9,9.8,14.5
		c3.7,5.6,8.1,11.8,12.9,18.5c4.7,6.9,10.1,14.1,15.7,21.7c5.7,7.6,11.7,15.6,18.1,23.8c6.4,8.1,13,16.6,20.1,24.9
		c6.9,8.3,14.4,16.5,21.7,24.7c7.5,8.1,14.8,16.3,22,24.4c7,8.2,13.9,16.3,20.2,24.4c6.4,8,12.5,15.8,18.1,23.5
		c5.7,7.5,10.7,14.9,15.5,21.7c2.3,3.4,4.6,6.7,6.6,10c2.1,3.2,4.1,6.2,5.9,9c3.6,5.8,6.7,11,9.2,15.3c1,1.7,1.9,3.3,2.6,4.6
		c1.4,0.3,2.8,0.6,4.3,0.9c1.4,0.3,2.7,0.6,3.9,0.8c1.8,0.4,3.6,0.8,5.4,1.1c3.6,0.7,7.2,1.4,10.8,2c0.6,0.1,1.1,0.2,1.6,0.3
		c0.7,0.1,1.4,0.3,2.1,0.4c0.2,0,0.4,0.1,0.6,0.1c3.5,0.6,7,1.3,10.5,1.9c-1.7-1.5-3.3-3-5.1-4.6c-1.6-1.5-3.3-2.9-4.9-4.5
		c-1.5-1.6-3.1-3.2-4.8-4.8c-3.2-3.3-6.5-6.7-9.9-10.2c-3.2-3.7-6.5-7.5-9.9-11.3c-1.7-1.9-3.3-3.9-5-5.8c-1.6-2-3.2-4.1-4.8-6.2
		c-3.2-4.2-6.6-8.4-9.9-12.7c-3.2-4.4-6.3-8.8-9.5-13.3c-3.3-4.5-6.2-9.1-9.2-13.8s-6.2-9.3-8.9-14.1c-2.8-4.8-5.7-9.6-8.5-14.4
		c-2.8-4.7-5.3-9.7-7.9-14.5c-5.3-9.5-9.9-19.3-14.4-28.5c-2.2-4.7-4.3-9.4-6.3-13.9c-2-4.6-4-9-5.7-13.4
		c-3.5-8.8-6.9-17.1-9.6-24.9c-1.4-3.9-2.7-7.6-4-11.2c-1.1-3.6-2.2-7-3.2-10.2c-2-6.4-3.8-11.9-4.9-16.5
		c-2.5-9.2-3.7-14.5-3.7-14.5l0.4-0.1l2.2-0.7c0,0,2.6,4.8,6.9,13.4c2.2,4.3,4.9,9.4,7.9,15.3c1.5,2.9,3.1,6,4.9,9.3
		c1.8,3.3,3.7,6.6,5.6,10.2c3.8,7.2,8.3,14.8,12.9,22.8c4.5,8.1,9.8,16.4,14.9,25.1c2.7,4.3,5.5,8.6,8.2,13s5.6,8.8,8.6,13.2
		c2.9,4.4,5.8,8.9,8.8,13.3c3.1,4.4,6.1,8.8,9.2,13.2c3,4.4,6.3,8.6,9.4,12.9c3.2,4.3,6.3,8.6,9.6,12.6c3.2,4.1,6.4,8.2,9.6,12.2
		c3.3,4,6.6,7.7,9.8,11.5c1.6,1.9,3.2,3.8,4.8,5.6c1.7,1.8,3.3,3.5,4.9,5.3c3.2,3.5,6.4,6.9,9.4,10.2c3.2,3.2,6.3,6.2,9.3,9.2
		c1.5,1.5,3,3,4.4,4.4c1.4,1.5,3,2.7,4.5,4c5.8,5.1,11,10,16.1,13.7c2.5,1.9,4.6,4,6.4,6.1c0.9,1.1,1.7,2.2,2.5,3.2s1.5,2.1,2.1,3.1
		c1.9,3.1,3.2,6.1,4.2,8.8c1.5,0.2,2.9,0.4,4.3,0.6c2.2,0.3,4.5,0.6,6.7,1c1,0.1,2,0.2,3,0.3c0.8,0.1,1.5,0.2,1.9,0.2
		c0.8,0.1,1.7,0.2,2.5,0.3l0,0c0.8,0.1,1.5,0.2,2.3,0.2c-2.1-1.2-4.2-2.7-6.3-4.4c-0.4-0.3-0.7-0.6-1.2-1c-1.5-1.3-3-2.7-4.6-4.3
		c-1.9-2-3.6-4.2-5.4-6.5c-3.7-4.6-7.6-9.7-11.7-15.1c-4.1-5.4-8.3-11.2-12.6-17.2s-8.6-12.4-13-18.8c-4.4-6.4-8.5-13.1-12.8-19.7
		c-8.3-13.4-16.2-27.1-23.2-40.1c-2.8-5.3-5.4-10.4-8-15.4c-3.6-7.3-7-14.3-9.9-20.7c-1.2-2.7-2.4-5.3-3.5-7.7c-1-2.5-2-4.8-3-7
		c-1.8-4.5-3.5-8.3-4.7-11.5c-2.4-6.4-3.7-10.1-3.7-10.1l2.4-1.2c0,0,2.4,3.1,6.5,8.7c4,5.5,9.8,13.4,16.7,22.9
		c6.9,9.4,14.9,20.4,23.4,32.2c4.3,5.9,8.7,11.9,13.3,18l13.7,18.5c4.7,6.2,9.3,12.3,13.9,18.4c4.5,6.1,9.2,11.9,13.6,17.7
		c8.9,11.4,17.1,22,24.4,31c3.7,4.4,6.8,8.7,9,13s3.6,8.4,4.5,12c1.1,4.4,1.4,8.2,1.4,10.4c0.5,0,1,0.1,1.4,0.1
		c1.3,0.1,2.5,0.3,3.8,0.4l0,0c2.9,0.3,5.7,0.6,8.5,0.9c9.5,0.7,18.9,1.4,28.2,2.1c2.4,0.2,4.7,0.4,7.1,0.5c0.1,0,0.1,0,0.2,0
		c0.5,0,1,0.1,1.5,0.1c0.5,0.1,1,0.1,1.5,0.1c-0.1-0.1-0.3-0.2-0.4-0.2c-3.3-1.8-6.7-4-10.3-6.6c-4-2.7-8-6-12-9.7
		c-4.1-3.7-8-7.9-12-12.2c-4-4.4-8.2-8.9-12.3-13.6c-4.1-4.7-8.2-9.5-12.3-14.4s-7.9-9.9-11.8-14.8c-3.8-5-7.5-9.9-11-14.8
		c-3.5-4.8-6.8-9.6-9.8-14.1c-3-4.6-5.9-8.9-8.4-13c-5.1-8.1-9.1-15.1-11.6-20.1c-1.3-2.5-2.4-4.4-3-5.8c-0.7-1.4-1-2.1-1-2.1
		l2.1-1.7c0,0,0.6,0.5,1.9,1.4c1.2,0.9,2.9,2.3,5.1,4.1h0.1c4.3,3.6,10.4,8.7,17.5,14.9c3.5,3.2,7.3,6.6,11.4,10.3
		c3.9,3.7,8.2,7.6,12.4,11.7c4.3,4,8.6,8.3,13.1,12.6c4.3,4.4,8.9,8.7,13.2,13.2c4.4,4.4,8.8,8.9,13.1,13.3c4.3,4.4,8.5,8.8,12.5,13
		c4.1,4.2,8,8.3,11.4,12.5c3.4,4.1,6.5,8.3,9.1,12.2c2.6,4,4.9,7.8,6.7,11.3s3.3,6.8,4.4,9.6c0.6,1.4,1.1,2.8,1.5,4
		c3,0.1,6.1,0.2,9.1,0.3h0.1c3.1,0.1,6.2,0.2,9.3,0.4h0.1c1.8,0.1,3.7,0.1,5.5,0.2c-0.9-0.5-1.8-1.1-2.6-1.6
		c-0.2-0.2-0.4-0.2-0.6-0.4c-3-2-5.9-4.4-8.9-7.1c-3.2-2.8-6.1-6.2-9.2-9.6c-3.1-3.5-6.2-7-9.3-10.9c-3.2-3.7-6.1-7.6-9.1-11.5
		c-5.9-7.9-11.5-16.1-16.4-24c-2.4-3.9-4.7-7.8-6.8-11.5c-2-3.7-3.9-7.3-5.5-10.6c-3.3-6.6-5.8-12.4-7.3-16.4
		c-0.8-2.1-1.3-3.7-1.7-4.8s-0.6-1.7-0.6-1.7l2.3-1.5c0,0,0.5,0.4,1.4,1.2c0.9,0.7,2.2,1.9,3.9,3.3c0.9,0.8,1.8,1.6,2.8,2.5
		c0.9,0.8,1.9,1.7,3,2.7c2.2,2,4.7,4.2,7.3,6.8s5.5,5.3,8.5,8.2c2.9,2.9,6.1,5.9,9.2,9.2c3.2,3.2,6.4,6.6,9.7,9.9
		c3.2,3.4,6.6,6.8,9.8,10.3c3.3,3.4,6.6,6.9,9.8,10.3c3.2,3.4,6.4,6.8,9.4,10.1c3,3.2,6,6.4,8.5,9.6c2.6,3.2,4.8,6.4,6.7,9.6
		c1.9,3.2,3.5,6.2,4.8,9c1.2,2.9,2.2,5.5,2.9,7.7c0.2,0.5,0.3,1,0.4,1.4c0.5,0,0.9,0,1.4,0c0.3,0,0.6,0,0.9,0c0.7,0,1.5,0,2.2,0
		c0.4,0,0.8,0,1.2,0c2.1,0,4.1,0,6,0.1c5.5,0,10.9-0.1,16.3-0.3c0.3,0,0.6,0,0.9-0.1c-0.8-1-1.7-2.1-2.5-3.3c-2-2.6-4.2-5.4-6.3-8.3
		c-2.1-2.9-4.3-5.9-6.4-9.1c-2.1-3.2-4.3-6.4-6.3-9.6c-2-3.3-4.1-6.5-6-9.8c-2-3.2-3.8-6.5-5.4-9.8c-3.4-6.4-6.4-12.5-8.7-17.9
		c-2.4-5.3-4.1-9.9-5.2-13.1c-1.1-3.2-1.7-5.2-1.7-5.2l1.1-0.8l1.1-0.7c0,0,6.4,4.9,14.9,12.7c2.2,1.9,4.4,4.1,6.8,6.4
		c2.3,2.3,4.9,4.7,7.4,7.2c2.6,2.5,5.1,5.1,7.7,7.8c2.6,2.7,5.2,5.4,7.8,8.1c5.2,5.5,10.2,11.1,14.9,16.3c2.4,2.6,4.6,5.2,6.7,7.6
		c2.1,2.4,4.1,4.8,5.9,6.9c1.8,2.1,3.5,4,5,5.8c1.4,1.8,1.7,4.2,1.2,6.7c0,0.3-0.1,0.7-0.2,1c1.3-0.1,2.5-0.1,3.8-0.2
		c0.1,0,0.2,0,0.2,0c4.8-0.2,9.6-0.5,14.3-0.8c2.5-0.2,5.1-0.3,7.5-0.5c-0.2-0.4-0.5-0.9-0.7-1.3c-1.8-2.9-3.6-6.2-5.9-9.6
		c-1.1-1.7-2.1-3.5-3.3-5.3s-2.5-3.6-3.7-5.5c-2.5-3.7-5.3-7.5-8.1-11.5c-1.4-2-2.8-3.9-4.3-5.9s-3-3.9-4.4-5.9
		c-2.9-4.1-6.1-7.9-9-11.9c-3-4-6-7.8-8.9-11.6c-1.5-1.9-2.9-3.8-4.2-5.6c-1.4-1.8-2.8-3.6-4.2-5.4c-2.7-3.5-5.2-6.9-7.5-9.9
		c-2.4-3.1-4.5-6-6.4-8.5c-1.9-2.6-3.5-4.9-4.9-6.8c-0.1-0.1-0.2-0.3-0.3-0.4c-2.5-3.6-3.9-5.7-3.9-5.7l1.7-2.1c0,0,2.5,1,6.8,2.9
		c2.2,1,4.7,2.2,7.6,3.7c2.9,1.5,6.2,3.2,9.6,5.2c13.9,7.9,31.4,20.1,47.3,34.7c4.1,3.5,7.8,7.4,11.6,11.2c1.9,1.9,3.6,3.9,5.4,5.9
		c1.7,2,3.5,3.9,5.2,5.9c3.4,3.9,6.5,7.9,9.3,11.8c2.9,3.8,5.3,7.8,7.7,11.3c2.2,3.7,4.2,7.2,5.8,10.4c1.1,1.9,1.6,3.9,1.5,5.9
		c1.1-0.1,2.2-0.3,3.3-0.4c1.1-0.1,2.1-0.3,3.2-0.4c0,0,0-0.1-0.1-0.1c-1.2-2.4-2.6-5.1-4.1-8.1c-2.9-6-6.3-12.8-9.8-20.3
		c-1.7-3.7-3.6-7.5-5.3-11.4c-1.7-4-3.7-7.8-5.4-11.9c-7.2-16-14.3-32-19.7-44c-1.3-3.1-2.6-5.9-3.7-8.4c-1.1-2.5-2.1-4.8-2.9-6.6
		c-1.7-3.7-2.5-5.9-2.5-5.9l0.8-0.6l1.3-1.1c0,0,2,1.3,5.3,3.5c1.7,1.1,3.7,2.6,5.9,4.4c2.3,1.8,4.8,3.8,7.4,6.2
		c2.6,2.3,5.3,4.9,8.2,7.8c2.8,2.8,5.7,5.9,8.6,9.1c2.8,3.3,5.8,6.7,8.6,10.2c2.9,3.5,5.6,7.2,8.3,11c2.7,3.7,5.2,7.5,7.7,11.2
		c2.6,3.7,4.8,7.5,7,11.1c4.5,7.3,8.3,14.1,11.5,20c1.6,2.9,3,5.7,4.3,8.1c0.6,1.2,1.3,2.2,1.4,3.5c0.1,1.2-0.2,2.6-0.8,4
		c-0.3,0.9-0.9,1.9-1.5,2.8c-0.1,0.1-0.1,0.2-0.2,0.3c4-0.8,8-1.6,11.8-2.4c0.2,0,0.4-0.1,0.7-0.1c-1.7-3.7-3.7-8-6-12.7
		c-1.8-4.1-3.9-8.4-6.1-13.1c-2.2-4.6-4.5-9.5-6.9-14.5s-5-10.2-7.5-15.4c-2.6-5.2-5.3-10.5-7.9-15.8c-2.8-5.3-5.4-10.6-8.2-15.7
		c-2.8-5.2-5.5-10.3-8.3-15.1c-2.7-4.9-5.4-9.6-8-14s-5.1-8.7-7.5-12.5c-1.2-1.9-2.3-3.8-3.4-5.6c-1.1-1.7-2.2-3.4-3.2-4.9
		c-1.9-3.1-3.7-5.9-5.2-8.1c-3-4.5-4.7-7.1-4.7-7.1l0.6-0.6l1.3-1.3c0,0,2.6,1.7,7,4.8c2.3,1.5,4.9,3.5,7.9,5.9s6.3,5.2,9.8,8.4
		c3.6,3.1,7.2,6.8,11,10.5c2,1.9,3.8,4,5.7,6.1s3.9,4.2,5.8,6.5c3.7,4.5,7.8,9.1,11.5,14.1c3.8,4.8,7.5,9.9,11.1,15
		c3.5,5.1,7.1,10.3,10.3,15.5c3.3,5.2,6.4,10.4,9.3,15.4c2.9,5,5.8,9.9,8.2,14.7c2.5,4.7,4.9,9.1,6.9,13.3
		c3.6,7.2,6.6,13.4,8.8,18.1c0.3-0.1,0.6-0.2,0.9-0.3c-1-1.2-1.8-2.5-2.5-4c-0.7-1.9-1-4.1-1.6-6.4c-0.2-0.7-0.4-1.4-0.5-2.2
		c-0.3-1.6-0.7-3.3-1.1-5.1c-0.7-2.5-1.4-5.2-2.2-8c-1.4-5.6-3.2-11.6-5-18.1c-0.9-3.2-2-6.5-3.1-9.8s-2-6.8-3.2-10.2
		c-2.3-6.9-4.8-14-7.5-21.3c-2.5-7.3-5.6-14.5-8.3-21.9c-3.1-7.2-6-14.6-9.1-21.6c-3.1-7.2-6.3-14.1-9.4-20.8
		c-3.3-6.7-6.3-13.2-9.4-19.3c-3.1-6.1-6-11.9-8.9-17.2c-1.4-2.7-2.8-5.3-4-7.7c-1.4-2.4-2.7-4.6-3.9-6.8c-2.3-4.3-4.4-8.1-6.3-11.2
		c-3.6-6.2-5.6-9.9-5.6-9.9l1.7-1.4l0.4-0.3c0,0,3.2,2.6,8.7,7.3c2.8,2.3,6,5.3,9.7,8.9c1.8,1.8,3.8,3.7,5.8,5.7
		c1.9,2.1,4,4.3,6.1,6.6c4.4,4.5,8.7,9.7,13.4,15.2c2.4,2.7,4.6,5.7,6.8,8.7c2.3,3,4.7,6,7,9.2c4.5,6.4,9.3,13,13.6,20.1
		c4.6,6.9,8.6,14.2,12.8,21.5c4,7.4,7.9,14.8,11.4,22.3c3.7,7.4,6.7,15,9.8,22.2c2.9,7.3,5.6,14.4,7.9,21.3
		c2.3,6.9,4.6,13.3,6.1,19.5c0.9,3,1.7,6,2.5,8.7c0,0.2,0.1,0.4,0.1,0.6c0.2,0.9,0.4,1.8,0.6,2.7c-0.1-4.1-0.3-8.9-0.5-14.4
		c-0.2-6.2-0.7-13.2-1.1-20.7c-0.3-7.6-1-15.8-1.6-24.5c-0.7-8.7-1.4-17.9-2.3-27.3c-1-9.5-1.9-19.3-3.2-29.2c-1.2-10-2.7-20-4-30.1
		c-1.7-10-3-20.1-5-29.9c-1-4.9-1.8-9.9-2.7-14.6c-1-4.8-2-9.6-3-14.3c-0.9-4.7-2.1-9.2-3.1-13.7c-1.1-4.4-2-8.9-3.2-13.1
		c-2.4-8.4-4.3-16.6-6.7-23.9c-1.1-3.7-2.2-7.2-3.2-10.6c-1-3.3-2.2-6.4-3.2-9.4c-0.9-2.4-1.6-4.8-2.4-7c-1.1-3.1-2-5.9-3.1-8.4
		c-3.4-8.5-5.2-13.4-5.2-13.4l2.4-1.2c0,0,3,4.3,8,12.1c2.7,3.7,5.3,8.7,8.5,14.4c1.6,2.8,3.4,5.8,5,9.1s3.3,6.7,5.1,10.2
		c3.7,7.1,6.8,15.1,10.4,23.4c1.9,4.2,3.4,8.6,5.1,13c1.6,4.5,3.5,9,5,13.7c1.6,4.7,3.1,9.5,4.7,14.3c1.6,4.9,2.9,9.8,4.3,14.8
		s2.9,10,4.1,15.1c1.3,5.1,2.6,10.2,3.8,15.3c2.2,10.3,4.6,20.6,6.3,30.8c1.9,10.1,3.5,20.2,5,29.9c0.7,4.9,1.3,9.7,1.9,14.4
		c0.6,4.7,1.3,9.3,1.6,13.8c0.9,8.9,1.8,17.4,2.4,25.2c0.6,7.8,1.1,15,1.4,21.4c0.2,4.1,0.4,7.9,0.5,11.3c1-0.6,1.9-1,2.9-1.5
		c0.6-0.4,1.1-0.7,1.7-1c0.3-5.2,0.4-11.4,1.1-18.3c0.1-0.8,0.2-1.7,0.4-2.6c0-0.1,0-0.1,0-0.1c0.4-2.7,0.8-5.5,1.3-8.5
		c0.5-3.9,1.3-8.1,2.2-12.3c2-8.4,3.3-17.8,5-27.7c0.9-4.9,1.3-10.1,2.1-15.3c0.6-5.2,1.5-10.6,1.8-16c0.5-5.5,1-11,1.4-16.6
		c0.6-5.6,0.6-11.4,1-17.1c0.8-11.5,0.6-23.2,0.9-35c-0.4-11.8-0.2-23.6-1.1-35.2c-0.4-5.8-0.4-11.6-1.1-17.2
		c-0.5-5.7-1-11.3-1.5-16.8c-0.4-5.5-1.3-11-2-16.3c-0.7-5.3-1.1-10.5-2.1-15.5c-1.7-10-3-19.7-5-28.4c-0.9-4.4-1.7-8.7-2.6-12.6
		c-0.8-4-1.8-7.7-2.6-11.3c-1.7-7.1-3.2-13.3-4.7-18.4c-0.5-1.8-1-3.4-1.4-5c-2-7.1-3.1-11.1-3.1-11.1l2.6-0.9c0,0,2.7,5.5,7.2,15.1
		c2.4,4.7,4.7,10.8,7.5,17.8c1.3,3.5,2.9,7.2,4.3,11.1c1.3,4,2.7,8.1,4.2,12.5c3,8.7,5.6,18.3,8.4,28.5c1.5,5.1,2.5,10.4,3.7,15.8
		c1.1,5.4,2.5,10.9,3.4,16.6c1,5.6,2,11.4,3,17.2s1.6,11.8,2.4,17.7c1.6,11.9,2.3,24.2,3.3,36.3c0.3,12.2,1.1,24.4,0.7,36.5
		c-0.2,6-0.1,12-0.4,17.9c-0.3,5.8-0.7,11.6-1,17.4c-0.3,5.7-1.1,11.3-1.6,16.8c-0.6,5.4-1,10.8-2,16c-1.6,10.4-3,20.2-5,29.1
		c-1,4.5-2,8.7-3.1,12.8c-1.2,4-2.7,7.7-4.1,11.1c-2.4,5.8-4.8,10.8-7.3,14.9c0.1,0.1,0.1,0.2,0.2,0.3c0.3,0.4,0.6,0.8,0.8,1.3
		c0.8,1.4,1.3,2.8,1.6,4.2c0.9,4.9-1.3,10-5.9,12.6c-0.6,0.3-1.3,0.7-1.9,1.1c-4.4,2.2-9.9,5-16.4,8c-3.2,1.4-6.8,3-10.4,4.6
		c-1.7,0.7-3.5,1.5-5.3,2.2c-0.2,0.9-0.6,1.7-0.9,2.6c-0.6,1.7-1.4,3.5-2.3,5.2c-3.3,6.6-8.5,13.1-14.2,19c-2.8,3-5.6,6-8.3,9.1
		l-1,1.1l-0.7,0.8l-0.5,0.6c-0.8,0.8-1.4,1.6-2.3,2.5c-1.8,1.8-3.6,3.6-5.3,5.1c-6.9,6.3-14.1,11.7-21,16.5c-3.4,2.5-6.8,4.7-10,6.8
		c-1.2,0.8-2.4,1.5-3.5,2.3c-2,1.2-3.8,2.4-5.6,3.6c-2.8,1.7-5.4,3.4-7.8,4.8c-2.3,1.4-4.4,2.6-6,3.7c-2.6,1.6-4.4,2.6-5,3
		c-0.2,0.1-0.3,0.2-0.3,0.2v-0.1l-0.5-0.5l-1.4-1.5c0,0,1.4-1.8,3.9-4.9c2.6-3,6.4-7.2,11-12c0.3-0.3,0.5-0.6,0.8-0.8
		c4.5-4.6,9.8-9.7,15.4-15.2c3-2.9,6-5.8,9.1-8.9c3-3,6.1-6,8.9-9.1c1.5-1.6,2.7-3,3.9-4.4c0.6-0.7,1.3-1.7,2-2.6l1.9-2.5
		c2.9-3.8,5.8-7.1,8.6-10.2c1.4-1.6,2.9-3.2,4.3-4.6c-5.1,1.6-10.5,3.2-16.1,4.8c-2.1,0.6-4.2,1.1-6.3,1.7
		c-3.7,6.2-7.9,12.9-12.8,19.7c-1.7,2.4-3.4,4.8-5.3,7.2c-1.8,2.4-3.7,4.8-5.7,7.2c-4,4.7-8,9.5-12.4,14c-4.1,4.7-8.8,9-13.2,13.3
		c-2.2,2.1-4.6,4.1-6.9,6.1c-2.3,2-4.6,4-6.9,5.8c-2.4,1.8-4.7,3.6-6.9,5.3c-2.3,1.7-4.6,3.3-6.9,4.7c-4.5,3.1-8.9,5.6-13,8
		s-8.1,4.1-11.6,5.7c-1.8,0.8-3.4,1.5-4.9,2.2c-1.2,0.4-2.2,0.8-3.3,1.2c-5.8,6.3-11.4,12.7-17.5,18.6c-6,6.2-12.3,11.9-18.3,17.5
		c-0.6,0.6-1.3,1.2-1.9,1.7c-2.4,2.1-4.8,4.2-7.2,6.2c-3,2.5-6,5-9,7.3s-5.9,4.5-8.7,6.6s-5.7,4-8.4,5.9c-2.7,1.8-5.3,3.7-7.8,5.3
		c-2.6,1.5-5,3-7.3,4.4s-4.4,2.7-6.4,3.8s-3.9,2.1-5.6,2.9c-6.8,3.5-10.8,5.4-10.8,5.4l-1.5-2.4c0,0,3.3-2.8,9.3-7.4
		c1.5-1.2,3.2-2.4,4.9-3.9s3.6-3,5.6-4.7s4.2-3.5,6.4-5.3c2.2-1.9,4.5-4,6.9-6.1c4.9-4.2,9.9-9,15.3-14c2.7-2.4,5.4-5.1,8.1-7.8
		c2.8-2.7,5.6-5.4,8.4-8.3c5.6-5.7,11.3-11.6,17-17.8c5.8-6.1,11.4-12.5,17.1-18.9c5.6-6.5,11.2-12.8,16.7-19.3
		c5.4-6.5,10.8-12.8,16-18.9c8.1-9.7,15.7-19,22.6-27.3c1.9-2.3,3.7-4.5,5.5-6.7s3.5-4.2,5.2-6.2c0,0,0-0.1,0.1-0.1
		c-0.1,0-0.3,0.1-0.4,0c-4.7,0.7-9.4,1.4-14.3,2c-0.5,0.6-0.9,1.3-1.4,1.9c-2.2,2.9-4.8,6.1-7.7,9.5c-3,3.4-6.2,7-9.7,10.7
		c-3.6,3.6-7.3,7.6-11.3,11.4l-0.2,0.2c-7.9,7.7-16.7,15.5-25.7,23c-4.5,3.8-9.2,7.5-13.7,11.1c-4.6,3.6-9.2,7.1-13.6,10.4
		c-4.5,3.3-8.9,6.3-13.2,9c-4.4,2.6-8.6,5-12.7,7c-0.6,0.3-1.1,0.5-1.6,0.8c-3.4,1.6-6.8,3-9.8,4.1c-3.5,1.4-6.7,2.2-9.4,2.9
		c-2.3,0.6-4.3,0.9-5.8,1.1c-2,1.8-3.9,3.5-5.9,5.3c-4,3.6-8.1,7.2-12.2,10.8l-22.4,18.5l-22.7,18c-7.7,5.8-15.4,11.6-23.2,17.3
		l-23.6,16.8c-7.9,5.5-15.9,10.9-23.9,16.3l-24.2,15.9l-24.4,15.4c-8.1,5.1-16.4,10.2-24.6,15.2c-14.8,9-29.8,17.7-44.9,26.4
		l0.1,0.2l-5.1,2.7l-1.5-2.4c7.6-5.8,15.3-11.7,23-17.4c7.7-5.8,15.4-11.5,23.2-17.1l1.6-1.2l23.3-17.1c-0.9,0.4-1.9,0.7-2.8,1.1
		c-3.3,1.1-6.5,2.1-9.7,3.2c-3.2,0.9-6.4,1.9-9.6,2.7c-10.7,2.8-21,4.7-30.5,6.4c-1.6,0.3-3.3,0.5-4.9,0.7c-11,1.6-20.9,3-29.7,4.1
		c-8.8,1.2-16.4,2.4-22.7,3.4c-4.6,0.8-8.5,1.5-11.6,2.1c-1.1,0.2-2.1,0.4-3,0.6c-3.4,0.7-5.2,1-5.2,1l-1.1-2.5c0,0,1.6-1,4.6-2.6
		c3-1.7,7.7-3.9,13.7-6.5c3-1.2,6.4-2.6,10.1-3.8c1.9-0.7,3.8-1.3,5.8-2s4.1-1.3,6.3-1.9c8.6-2.6,18.6-5,29.2-7.5
		c1-0.2,1.9-0.4,2.9-0.7c9.8-2.3,20.3-4.6,30.9-7.6c2.9-0.9,5.9-1.8,8.8-2.7c2.9-1,5.8-2.1,8.8-3.1c2.9-1.2,5.6-2.2,8.6-3.6
		c1.5-0.7,3-1.5,4.6-2.2l2.4-1.1l1.8-1.1c11.4-6,22.3-14,33.1-22.8c10.7-8.9,21.4-18.6,32.3-28.3c21.9-19.2,43.7-38.3,64.2-56.3
		c10.2-9,20.2-17.6,29.6-25.9c9.4-8.2,18.4-15.9,26.7-22.9c5.6-4.7,10.9-9.2,15.8-13.3c2.4-2,4.8-3.9,7-5.8
		c6.9-5.6,12.9-10.4,18-14.3c3.8-3,7.1-5.5,9.6-7.4l1-0.7c-1.4,0-2.7,0.1-4.2,0.1c-5.1,0.1-10.2,0.2-15.4,0.2
		c-2.6,0.1-5.3,0.1-7.9,0.2c-1.7,3-4.3,7.1-8.3,11.5c-4,4.7-9.7,9.2-16.2,14.5s-13.9,11.3-21.9,17.9c-16.1,13.1-34.7,28.5-54.9,44.7
		c-10.1,8.2-20.5,16.5-31.1,25.1c-10.6,8.5-21.4,17.2-32.1,25.8c-10.8,8.6-21.6,17.2-32.5,25.6c-10.9,8.3-22.3,16.1-34.2,22.3
		c-5.9,3.1-12,5.8-18.1,8.1c-1.6,0.6-3,1.1-4.7,1.6c-1.5,0.5-3,0.9-4.5,1.4c-2.9,0.8-6.2,1.6-9.2,2.3c-1.4,0.3-2.8,0.5-4.2,0.8l0,0
		c-10.6,1.9-20.8,2.5-30.3,2.6c-2.2,0-4.3,0-6.4,0c-3.3-0.1-6.6-0.2-9.7-0.4c-0.6-0.1-1.3-0.1-1.9-0.1c-5.2,3.1-10.3,6.2-15.4,9.1
		c-11.2,6.5-21.9,12.5-31.8,18c-9.8,5.6-19,10.4-27.1,14.7s-15.2,8.1-21.1,11c-11.8,5.9-18.5,9.4-18.5,9.4l-1.4-2.4
		c0,0,6.4-4,17.6-11c5.6-3.5,12.3-7.7,20.1-12.6c7.7-4.8,16.5-10.4,25.9-16.5c9.5-6,19.7-12.7,30.5-19.8c0.8-0.6,1.7-1.1,2.5-1.7
		c-0.3,0-0.5-0.1-0.7-0.1c-0.8-0.1-1.5-0.2-2.3-0.3c-4.2-0.5-8.1-1-11.6-1.6c-12.2-1.9-19.2-3.1-19.2-3.1l0.2-2.2v-0.5
		c0,0,0.3,0,0.9,0.1c2.3,0.2,8.7,0.7,18.3,1.4c5.9,0.4,13,0.9,21,1.2c0.1,0,0.3,0,0.4,0c0.2,0,0.4,0,0.6,0
		c7.6-5.1,15.4-10.3,23.5-15.7c11.6-7.9,23.6-16.1,35.8-24.5c12.1-8.3,24.3-17.1,36.5-25.8c12-8.9,24.3-17.5,36.1-26.4
		c11.9-8.7,23.4-17.5,34.6-26c11-8.7,21.9-16.8,31.9-24.8c10.1-8,19.6-15.5,28.3-22.6c8.7-7,16.7-13.6,23.6-19.5
		c6.2-5.3,11.9-9.5,17.2-12.7c-6.1-0.3-12.2-0.7-18.4-1c-0.4,0-0.9,0-1.3-0.1l0.2,0.3c0,0-0.1,0.2-0.4,0.6c-0.4,0.7-1.1,1.8-2.2,3.4
		c-1.7,2.6-4.3,6.3-7.7,10.7c-3.4,4.5-7.9,9.8-13.4,15.5c-1.2,1.3-2.5,2.7-3.9,4c-1.6,1.6-3.2,3.3-4.9,5c-3.2,3-6.7,6.1-10.2,9.4
		c-3.6,3.3-7.3,6.6-11.4,9.9c-4.1,3.3-8.3,6.6-12.8,9.9c-4.4,3.4-9.1,6.7-13.9,9.9c-1.7,1.1-3.4,2.3-5.1,3.4c0,0,0,0-0.1,0
		c-3.1,2.1-6.4,4.3-9.6,6.4c-10.3,6.4-20.8,13.2-31.8,19.6c-10.8,6.5-22.2,12.7-33.4,19c-11.5,5.9-22.8,12-34.3,17.4
		c-11.4,5.7-22.9,10.7-33.9,15.6c-5.6,2.3-11,4.7-16.4,6.9s-10.6,4.4-15.8,6.4c-5.1,2-10.2,4-15,5.8c-4.9,1.9-9.6,3.5-14.2,5.1
		c-3.1,1.1-6.1,2.1-9,3.1c-1.4,0.5-2.7,0.9-4.1,1.4c-4.2,1.4-8.2,2.6-11.9,3.8c-7.5,2.4-14,4.5-19.4,6c-10.8,3-17,4.8-17,4.8
		l-0.9-2.6c0,0,5.9-2.4,16.2-6.7c5.2-2,11.5-4.7,18.6-7.8c3.6-1.5,7.4-3.2,11.4-4.9c4-1.9,8.1-3.7,12.4-5.7c4.3-2,8.9-4.1,13.6-6.3
		c4.6-2.2,9.4-4.5,14.3-6.9c4.9-2.3,10-4.9,15-7.5c5.1-2.6,10.3-5.3,15.6-8.1c10.4-5.7,21.2-11.5,32-17.8
		c10.9-6.1,21.6-12.8,32.5-19.3c10.6-6.9,21.4-13.5,31.6-20.5c10.4-6.8,20.3-14,29.9-20.8c9.5-7,18.7-13.7,27.5-20.1
		c4.4-3.2,8.7-6.2,12.8-9.1c4.2-2.9,8.2-5.8,12.2-8.4c3.9-2.7,7.7-5.2,11.3-7.6c3.6-2.5,7-4.7,10.2-6.8c3.3-2.1,6.4-4,9.3-5.7
		c2.9-1.7,5.5-3.4,8.1-4.8c0.9-0.5,1.8-1,2.6-1.5c3.8-2.1,6.8-3.7,9.1-4.8c0.4-0.2,0.7-0.3,1-0.5c-1.9-0.1-3.8-0.2-5.7-0.3
		c-0.7,0-1.3-0.1-2-0.1c-4.7-0.3-9.4-0.8-14.1-1.2c-3.3-0.3-6.7-0.6-10.1-0.9l0.3,0.4c0,0-1.4,1.5-4.1,4c-2.7,2.5-6.7,6.2-11.9,10.4
		c-5.3,4.3-11.9,9.2-19.7,14.5s-16.9,10.8-26.9,16.7c-11.3,6.8-23.7,14.1-36.8,22c-10,5.9-20.5,12.2-31.2,18.6
		c-25,14.7-51.7,30.4-78.3,46c-13.3,7.8-26.7,15.5-39.9,23.1s-26,15.4-39.3,21.9c-6.6,3.3-13.4,6.3-20.1,8.8
		c-1.7,0.6-3.4,1.2-5.1,1.7l-2.6,0.9l-2.5,0.7c-3.5,1-6.8,1.8-10.2,2.6c-7,1.6-13.9,2.8-20.5,3.8c-5.8,1-11.5,1.8-16.9,2.8
		c-11.4,2.1-21.7,4.4-30.7,6.9c-9,2.6-16.6,5.4-22.8,7.9c-6.2,2.6-10.8,5.1-13.9,6.8c-3.1,1.8-4.8,2.8-4.8,2.8l-1.6-2.3
		c0,0,1.6-1.1,4.6-3.2c3.1-2,7.6-4.9,13.7-8.1c6.1-3.2,13.8-6.5,22.8-9.8c9-3.2,19.4-6.2,30.9-8.9s23.9-5.1,36.5-8.5
		c3.1-0.9,6.3-1.8,9.4-2.8l2.4-0.8l2.3-0.8c1.6-0.6,3.2-1.2,4.7-1.8c6.2-2.6,12.5-5.7,18.7-9.1c12.4-6.9,24.9-14.9,37.9-22.9
		c12.9-8,26.1-16.1,39.2-24.3c26.3-16.1,52.7-32.3,77.4-47.4c24.8-14.9,47.9-29,67.7-40.9c9.9-6,19-11.5,27.4-15.9
		c8.3-4.4,15.8-7.9,22.1-10.6c6.3-2.7,11.4-4.5,14.9-5.7c0.3-0.1,0.5-0.2,0.8-0.3c-4.2-0.4-8.4-0.8-12.6-1.2
		c-8.3-1-16.7-2.1-25.1-3.1c0,0,0,0-0.1,0c-0.5-0.1-1-0.1-1.4-0.2c-2.2,1.8-5.1,4.2-8.8,7.1c-8.4,6.5-20.8,15.2-36.3,24.6
		c-15.5,9.4-33.6,20.3-53.2,31.7c-9.8,5.7-20,11.5-30.3,17.4c-10.4,5.9-21,11.7-31.5,17.5c-21.2,11.7-42.5,23.1-62.5,33.8
		c-10,5.4-19.9,10.2-29.6,14.1c-9.7,4-18.6,8.1-26.8,12c-16.5,7.7-30.1,14.2-39.7,18.7c-9.6,4.6-15,7.2-15,7.2l-1.4-2.4
		c0,0,5.3-3,14.4-8.3c4-2.3,8.7-5.1,14.1-8.3c0,0,0.1-0.1,0.2-0.1c6.8-4.1,14.7-8.7,23.4-14c7.7-4.6,16.2-9.8,24.7-15.6
		c4.3-2.9,8.8-5.9,13.4-8.7c4.6-2.9,9.5-5.5,14.4-8.3c19.8-11.1,40.8-22.8,61.9-34.6c10.5-5.9,21-11.8,31.4-17.6
		s20.6-11.4,30.5-16.9c19.8-10.9,38.4-21.1,54.2-29.8c8.6-4.7,16.5-8.8,23.5-12.2c6-2.9,11.4-5.3,15.9-7.2c0.9-0.4,1.8-0.7,2.7-1.1
		c0.2-0.1,0.3-0.1,0.4-0.2c-2.3-0.3-4.6-0.6-6.9-0.9c-4.9-0.8-9.8-1.6-14.7-2.4c-7.6-1.2-15.2-2.4-22.8-3.7
		c-0.1,0.2-0.3,0.3-0.4,0.5c-0.9,1-1.9,2-3,3.2c-2.1,2.2-4.3,4.7-7.1,7.4s-5.8,5.9-9.5,8.9c-1.8,1.6-3.8,2.9-5.9,4.2
		c-2.1,1.4-4.3,2.8-6.5,4.3c-2.2,1.4-4.5,3-7,4.5c-2.4,1.5-4.9,3-7.5,4.5s-5.2,3.1-8,4.7c-2.8,1.5-5.6,3.1-8.5,4.7
		c-2.9,1.6-5.8,3.2-8.8,4.9c-3.1,1.6-6.1,3.2-9.3,4.8s-6.4,3.3-9.7,4.9c-3.3,1.6-6.6,3.2-10,4.9c-13.6,6.5-28.1,13-43.1,19.6
		c-14.9,6.5-30.4,13.3-46,20.2c-15.7,6.8-31.3,14.2-46.7,21.8c-7.7,3.8-15.4,7.6-22.8,11.8c-7.5,4-14.9,8.2-22.1,12.6
		c-14.6,8.6-28.7,17.9-43.4,25.7c-7.3,3.9-14.7,7.4-22.2,10.5c-3.8,1.5-7.4,3-11.2,4.4c-3.7,1.3-7.2,2.5-11,3.7
		c-14.8,4.6-28.7,8-41.8,10.5s-25.3,3.9-36,4.7c-5.7,0.5-11,0.7-15.9,0.8c-4.4,0.1-8.4,0.1-12,0c-3.8-0.1-7.3-0.1-10.3-0.3
		c-3-0.1-5.6-0.2-7.6-0.5c-4.2-0.3-6.4-0.4-6.4-0.4l0.1-2.7c0,0,2.2,0.2,6.3,0.5c2.1,0.2,4.6,0.3,7.6,0.4c3,0.1,6.4,0.1,10.2,0.1
		c7.7-0.2,17-0.6,27.5-1.9c10.5-1.4,22.3-3.6,34.9-7c6.3-1.6,12.7-3.8,19.2-6.1c6.4-2.6,13.1-5.3,19.6-8.7c3.2-1.5,6.6-3.4,10-5.2
		c3.1-1.8,6.5-3.7,9.8-5.7c6.6-4,13.2-8.2,20-12.4c13.6-8.6,27.8-17.5,42.4-26.6c7.4-4.5,14.9-8.9,22.6-13.2
		c7.7-4.4,15.5-8.4,23.4-12.4c15.8-7.8,31.8-15,47.7-21.8c15.8-6.9,31.4-13.2,46.5-19.4c15.1-6.3,29.6-12.3,43.1-18.4
		c3.4-1.5,6.7-3,10-4.5c3.2-1.5,6.4-3.1,9.6-4.5c3.2-1.5,6.2-3,9.2-4.4c3-1.5,5.9-3,8.8-4.5c2.9-1.4,5.6-2.9,8.4-4.3
		c2.7-1.5,5.3-2.9,7.8-4.4c2.6-1.4,5.1-2.8,7.5-4.2c2-1.1,3.9-2.3,5.8-3.5c0.4-0.3,0.7-0.5,1.1-0.7c4.4-2.7,8.6-5.3,12.4-7.6
		c3.8-2.3,7.7-4,11.1-5.6c2.1-1,4.1-2,5.9-3c0.8-0.5,1.6-0.9,2.4-1.4c-9.2-1.8-18.5-3.7-27.8-5.5c-2.4-0.5-4.8-0.9-7.1-1.4
		c-1.4,1.5-3,3.2-4.9,5c-2.1,2.1-4.6,4.4-7.4,6.7c-7.3,5.9-16.8,12.4-28.5,18.3c-11.6,6.1-25.1,12-40.2,17.4
		c-15,5.5-31.6,10.6-48.7,16c-17.2,5.4-34.9,11.3-52.3,18.8c-8.9,3.8-17.3,7.9-26,12.4s-17.4,9.4-26.2,14.5
		c-17.6,10-35.5,21-54.3,31.1c-4.6,2.5-9.4,5-14.2,7.5l-3.6,1.8l-0.9,0.5l-1.1,0.5l-1.8,0.9l-14.2,6.5c-2.3,1-5,2-7.5,3
		c-5,1.9-10.1,4.1-15.1,5.7c-20,7-40.3,12.1-59.9,16.1c-19.7,4.1-38.8,6.9-56.9,9.7c-18.1,2.6-35.1,5-51,6.7
		c-31.6,3.5-58,5.5-76.4,7c-11.1,0.9-19.3,1.6-24.1,2C3034.2,701.3,3032.5,701.4,3032.5,701.4z M2990.6,156.9
		c-2.1-1.3-4-2.5-5.9-3.7h-0.1c0,0-0.7-0.4-1.8-1.2c-1.6-1-3.1-1.9-4.5-2.7c-2.5-1.5-4.5-2.8-6.3-3.8c1.1,1.4,2,2.6,2.7,3.5
		c1.1,1.5,1.6,2.4,1.6,2.4l-0.2,0.3c1,0.3,2.1,0.7,3.1,1C2983.3,154.1,2987.1,155.5,2990.6,156.9z M3897.7,519.9
		c-3.1,0-6.2-0.1-9.5-0.2c-0.2,0-0.3,0-0.5,0c-5.2-0.1-10.5-0.2-15.7-0.3c-1.7,2.9-4.1,6.4-7.3,10.2c-2.1,2.6-4.6,5.3-7.5,8
		c-2.9,2.8-6.2,5.5-9.8,8.4c-7.1,5.9-15.1,12.4-24,19.5c-1.4,1.1-2.8,2.2-4.2,3.4c-7.6,6.1-15.9,12.5-24.5,19.2
		c-5.1,4-10.4,8.1-15.8,12.1c-3.2,2.5-6.5,4.9-9.8,7.4c-2.3,1.7-4.6,3.4-6.9,5.1c-11.4,8.3-23.2,17-35.4,25.5
		c-4.5,3.2-9.1,6.5-13.7,9.7c-7.7,5.4-15.5,10.7-23.3,16c-12.6,8.3-25.1,16.7-37.6,24.7c-12.4,8.2-24.9,15.7-36.9,23.1
		c-2.6,1.6-5.2,3.2-7.8,4.7c-0.1,0.1-0.2,0.1-0.3,0.2c1.9,0,3.9-0.2,6-0.2c1.8-0.1,3.6-0.3,5.4-0.4c8.7-0.8,17.9-2.2,27.1-4.7
		c2.7-0.9,5.4-1.5,8.3-2.6c1.4-0.5,2.9-1,4.4-1.5c1.2-0.4,2.7-1.1,4.1-1.6c5.5-2.3,11-5.1,16.5-8.3c10.9-6.3,21.3-14.2,31.8-22.6
		c10.4-8.5,20.9-17.6,31.4-26.5l31.5-26.5c10.5-8.7,20.7-17.4,30.6-25.7c19.9-16.6,38.6-31.9,54.5-45.2c6.3-5.2,12.2-10.1,17.6-14.5
		c1.4-1.2,2.8-2.4,4.2-3.5C3886.9,527.6,3892.4,522.9,3897.7,519.9z M3919.7,562c6.8-6.6,13.7-13.2,20.7-19.7
		c6.7-6.7,13.5-13.3,20.5-20c1.2-1.3,2.4-2.5,3.7-3.7c-5,0.2-10.2,0.5-15.4,0.6l-0.3,0.3c-2.2,2.4-6.1,6.7-11.7,12.5
		c-4.4,4.6-9.8,10.2-16,16.5s-13.3,13.3-21.1,20.9c-7.9,7.5-16.4,15.7-25.4,24.3c-9.1,8.5-18.7,17.6-28.6,26.9
		c-15.3,14.3-31.3,29.4-47.6,44.7c4.3-3.4,8.7-6.8,13-10.1l22.3-17.9l21.9-18.4l18-15.5l3.7-3.2c7.1-6.4,14.3-12.6,21.4-18.9
		l10.4-9.7L3919.7,562z M4006.9,515.4c-3.9,0.4-7.8,0.8-11.8,1.1c-2.5,0.2-5,0.4-7.5,0.6c-4.5,0.4-9.1,0.7-13.7,1
		c-2.2,3.2-4.4,6.4-6.6,9.5c-1.5,1.9-2.9,3.8-4.4,5.8l0,0c-4.4,5.8-8.9,11.5-13.5,17.2c-5.1,6-10.2,12-15.5,17.9
		c6.2-4.6,12.7-9.2,19.1-13.9c4.8-3.5,9.6-6.9,14.3-10.4l23.2-16.8c5.1-3.7,9.9-7.2,14.3-10.4
		C4005.5,516.4,4006.2,515.9,4006.9,515.4z M4068.2,506c-0.5,0.1-1,0.2-1.5,0.3c-6,1.2-12.1,2.4-18.4,3.5c-0.6,1-1.2,2-1.9,3
		c-2.2,3.5-4.6,7.3-7.2,11.3c-1.8,2.7-3.6,5.6-5.5,8.5c-2,2.9-4,5.9-6.1,9c-4.2,6.2-8.8,12.6-13.6,19.2c-4.9,6.5-9.9,13.3-15.3,20
		c-0.4,0.4-0.7,0.8-1.1,1.3c0.2-0.1,0.3-0.3,0.5-0.4c2.8-2.3,5.8-4.7,8.6-7.4c1.9-1.8,3.9-3.5,5.9-5.3c1.9-1.9,3.9-3.8,5.9-5.7
		s4-4,6-6.1s4.1-4.2,6.1-6.4c4-4.3,8-8.8,11.9-13.4c4-4.5,7.7-9.2,11.6-13.8c3.7-4.7,7.4-9.2,10.9-13.6c0.4-0.5,0.8-1,1.2-1.6
		C4066.9,507.6,4067.6,506.9,4068.2,506z M3451.7,432.8c-0.5,0.4-1.1,0.9-1.6,1.3l1.1-0.5C3451.4,433.4,3451.6,433.2,3451.7,432.8z
		 M3550.7,466.7l-10.4-3.2l-14.7-4.5c0,0,0,0-0.1,0c-1.8-0.5-3.5-1.2-5.2-1.7c-8.6,4.6-17.9,8-27.3,10.6c-11.1,3-22.3,4.8-33.6,6.8
		c-11.2,2-22.5,3.6-33.7,5.3l-33.6,4.7c-11.1,1.6-22.3,3.2-33.2,5c-5.3,0.8-11.1,1.9-16.5,2.9l-16.4,3.2c-2.6,0.5-5.1,1-7.5,1.5
		c10.1-0.4,20.3-0.7,30.3-0.7c4.9-0.1,9.8-0.2,14.7-0.2c7.3-0.1,14.5-0.2,21.7-0.4c12-0.4,23.9-1.1,35.7-2.3l8.8-0.9
		c2.9-0.4,5.7-0.7,8.8-1.1l18.1-2.7c12.1-1.6,24.1-3.3,35.9-5.2c11.8-2,23.5-4.3,34.8-7.7C3535.3,473.3,3543.1,470.4,3550.7,466.7z
		 M3713.2,647.9c18.6-13.5,37.3-26.9,56-40.3c-2.3,1.7-4.6,3.4-6.9,5.1c-11.4,8.3-23.2,17-35.4,25.5
		C3722.3,641.5,3717.7,644.7,3713.2,647.9z M3713.2,647.9c18.6-13.5,37.3-26.9,56-40.3c-2.3,1.7-4.6,3.4-6.9,5.1
		c-11.4,8.3-23.2,17-35.4,25.5C3722.3,641.5,3717.7,644.7,3713.2,647.9z M3713.2,647.9c18.6-13.5,37.3-26.9,56-40.3
		c-2.3,1.7-4.6,3.4-6.9,5.1c-11.4,8.3-23.2,17-35.4,25.5C3722.3,641.5,3717.7,644.7,3713.2,647.9z M3713.2,647.9
		c18.6-13.5,37.3-26.9,56-40.3c-2.3,1.7-4.6,3.4-6.9,5.1c-11.4,8.3-23.2,17-35.4,25.5C3722.3,641.5,3717.7,644.7,3713.2,647.9z
		 M3713.2,647.9c18.6-13.5,37.3-26.9,56-40.3c-2.3,1.7-4.6,3.4-6.9,5.1c-11.4,8.3-23.2,17-35.4,25.5
		C3722.3,641.5,3717.7,644.7,3713.2,647.9z M3713.2,647.9c18.6-13.5,37.3-26.9,56-40.3c-2.3,1.7-4.6,3.4-6.9,5.1
		c-11.4,8.3-23.2,17-35.4,25.5C3722.3,641.5,3717.7,644.7,3713.2,647.9z M3713.2,647.9c18.6-13.5,37.3-26.9,56-40.3
		c-2.3,1.7-4.6,3.4-6.9,5.1c-11.4,8.3-23.2,17-35.4,25.5C3722.3,641.5,3717.7,644.7,3713.2,647.9z M3713.2,647.9
		c18.6-13.5,37.3-26.9,56-40.3c-2.3,1.7-4.6,3.4-6.9,5.1c-11.4,8.3-23.2,17-35.4,25.5C3722.3,641.5,3717.7,644.7,3713.2,647.9z"/>
	<path class="st1" d="M4178.1,312.7c0.7-11.5,0.6-23.3,0.9-35c-0.4-11.8-0.2-23.6-1.1-35.2c-0.4-5.8-0.5-11.6-1.1-17.2
		c-0.5-5.7-1-11.3-1.5-16.8c-0.4-5.5-1.3-10.9-2-16.3c-0.7-5.3-1.1-10.5-2.1-15.6c-1.7-10-2.9-19.7-5-28.4
		c-0.9-4.4-1.7-8.6-2.6-12.6c-0.8-4-1.8-7.7-2.6-11.3c-1.7-7.1-3.2-13.3-4.7-18.4c-0.5-1.8-1-3.5-1.4-5c3,7.5,5.4,15.2,7.8,22.1
		c8.8,26.1,15.5,52.8,20.1,79.8c9.2,54,9.9,109.2,2,162.9c-2.2,15.2-5.2,30.2-8.8,45.1c-1.8,7.3-3.7,14.6-5.8,21.8
		c-1.8,6-6.7,14.7-6.6,20.9c-0.1-9.1-0.2-18.2-0.3-27.3c0,0,0,0,0-0.1c0.4-2.7,0.8-5.6,1.3-8.5c0.5-3.9,1.3-8.1,2.1-12.3
		c2-8.4,3.3-17.8,5-27.7c0.9-4.9,1.3-10,2.1-15.3c0.6-5.2,1.5-10.5,1.9-16c0.5-5.5,1-11,1.4-16.6
		C4177.7,324.2,4177.7,318.5,4178.1,312.7z"/>
	<path class="st1" d="M4121.8,393.7c-0.7-8.7-1.4-17.9-2.3-27.3c-1-9.5-1.9-19.3-3.2-29.2c-1.1-10-2.6-20-4-30.1
		c-1.7-10-3-20.1-5-30c-1-4.9-1.7-9.8-2.7-14.6s-2-9.6-3-14.3c-0.9-4.7-2.1-9.2-3.1-13.7c-1.1-4.5-2-8.9-3.2-13.1
		c-2.4-8.4-4.3-16.6-6.7-23.9c-1.1-3.7-2.2-7.2-3.2-10.6c-1-3.4-2.2-6.4-3.1-9.4c-0.9-2.4-1.7-4.8-2.4-7
		c41.8,89.7,61.8,188.8,57.5,286.3c-0.2,4.9-2.8,11.4-7.5,9.8c-2.8-1-3.7-4.5-4.2-7.4c-0.5-2.8-0.9-5.7-1.4-8.5
		c0.2,0.9,0.4,1.8,0.6,2.7c-0.1-4.1-0.3-8.9-0.6-14.4c-0.2-6.2-0.7-13.1-1.1-20.7C4123.1,410.6,4122.4,402.4,4121.8,393.7z"/>
	<path class="st1" d="M4086.4,458.5c-0.7-2.6-1.4-5.2-2.1-8c-1.4-5.6-3.2-11.6-5-18c-0.9-3.2-2-6.5-3-9.8c-1.1-3.3-2-6.8-3.2-10.2
		c-2.3-6.9-4.8-14-7.5-21.3c-2.5-7.3-5.6-14.5-8.3-21.8c-3.1-7.2-6-14.6-9.2-21.7c-3.1-7.1-6.3-14.1-9.4-20.8
		c-3.3-6.7-6.3-13.3-9.4-19.3c-3.1-6.1-6-11.9-8.9-17.2c-1.4-2.7-2.8-5.2-4-7.7c-1.4-2.4-2.6-4.7-3.8-6.8c-2.3-4.3-4.4-8.1-6.3-11.2
		c-3.6-6.2-5.6-9.9-5.6-9.9l1.7-1.4c41.5,59.4,75.2,124.1,99.6,192c2.3,6.3,4.5,12.8,3.6,19.4c-0.8,6.5-5.7,12.9-12.2,13.2
		c-1.9-4.7-3.8-9.4-5.7-14.2C4087.2,462,4086.8,460.3,4086.4,458.5z"/>
	<path class="st1" d="M4063.9,495.2c-1.9-3.4-3.9-6.9-5.9-10.4c0.2,0,0.4-0.1,0.7-0.2c-1.7-3.7-3.7-8-6-12.8
		c-1.8-4.1-3.9-8.4-6.1-13.1c-2.2-4.6-4.5-9.5-6.9-14.5s-5-10.2-7.6-15.4s-5.3-10.5-7.9-15.9c-2.8-5.2-5.4-10.6-8.2-15.7
		c-2.8-5.2-5.5-10.3-8.2-15.1c-2.7-4.9-5.4-9.6-8-14s-5.1-8.7-7.5-12.5c-1.2-1.9-2.3-3.8-3.4-5.6c-1.1-1.7-2.2-3.4-3.2-4.9
		c-2-3.1-3.7-5.9-5.2-8.1c-3-4.5-4.7-7.1-4.7-7.1l0.6-0.6c30.6,39,57.8,80.6,81,124.2C4064.4,466.7,4071.1,482.7,4063.9,495.2z"/>
	<path class="st1" d="M4016.3,497.5c-1.6-1.3-2.7-3-3.7-4.8c1.1-0.1,2.1-0.3,3.2-0.4c0,0,0-0.1-0.1-0.1c-1.2-2.4-2.6-5.1-4.1-8.1
		c-3-5.9-6.3-12.8-9.8-20.3c-1.7-3.7-3.6-7.5-5.3-11.4c-1.7-4-3.7-7.8-5.4-11.9c-7.2-16-14.3-32-19.7-44c-1.4-3.1-2.6-5.9-3.7-8.3
		c-1.1-2.5-2.1-4.8-2.9-6.6c-1.7-3.7-2.5-5.9-2.5-5.9l0.8-0.6c26.5,34.6,47.7,73.2,62.3,114c0.9,2.5,1.7,5.3,0.5,7.6
		C4024.2,499.9,4019.2,499.8,4016.3,497.5z"/>
	<path class="st1" d="M3962.2,497.7c2.5-0.2,5-0.3,7.5-0.5c-0.2-0.4-0.5-0.8-0.7-1.3c-1.9-2.9-3.6-6.2-5.9-9.6
		c-1.1-1.7-2.2-3.5-3.4-5.2c-1.2-1.8-2.5-3.6-3.7-5.5c-2.5-3.8-5.3-7.5-8.1-11.5c-1.4-2-2.8-3.9-4.3-5.9s-3-3.9-4.5-5.9
		c-2.9-4-6.1-7.9-9-11.9c-3-3.9-6-7.8-8.9-11.6c-1.5-1.9-2.9-3.8-4.2-5.6c-1.4-1.8-2.8-3.6-4.2-5.3c-2.7-3.5-5.2-6.9-7.6-10
		c-2.3-3.1-4.5-6-6.4-8.5c-1.9-2.6-3.5-4.9-4.9-6.8c-0.1-0.1-0.2-0.3-0.3-0.4c10.8,8.6,21.6,17.1,32,26.2
		c26.1,22.7,50.1,49.6,61.2,82.1C3979,503.3,3970,501.7,3962.2,497.7z"/>
	<path class="st1" d="M3911,499.8c0.3,0,0.6,0,0.9,0c-0.8-1.1-1.7-2.1-2.5-3.3c-2-2.6-4.2-5.4-6.3-8.3c-2.1-2.9-4.3-5.9-6.4-9.1
		c-2.1-3.2-4.3-6.3-6.3-9.6s-4.1-6.5-6-9.9c-2-3.3-3.8-6.5-5.5-9.7c-3.4-6.4-6.4-12.5-8.7-17.9c-2.4-5.3-4.1-9.9-5.2-13.2
		c-1.2-3.2-1.7-5.2-1.7-5.2l1.1-0.7c22.1,31.1,44.2,62.1,66.2,93.2C3923.6,505.9,3917.1,503.5,3911,499.8z"/>
	<path class="st1" d="M3829.9,470.3c-3.2-3.7-6.1-7.6-9.1-11.5c-5.9-7.9-11.5-16.1-16.3-23.9c-2.4-3.9-4.7-7.8-6.8-11.5
		c-2-3.7-3.9-7.3-5.5-10.6c-3.3-6.6-5.8-12.4-7.3-16.5c-0.8-2-1.4-3.6-1.8-4.7c-0.4-1.1-0.6-1.7-0.6-1.7l2.3-1.5
		c0,0,0.5,0.4,1.4,1.2s2.2,1.9,3.9,3.3c0.9,0.7,1.8,1.6,2.8,2.5c21.7,37.6,47.3,73.1,76,105.8c-4.1-0.6-8-1.6-11.6-3.2
		c-3-2-6-4.3-8.9-7c-3.2-2.8-6.1-6.2-9.2-9.6C3836,477.7,3832.9,474.1,3829.9,470.3z"/>
	<path class="st2" d="M4167.9,454.6c17.6-42.3,23.4-91.3,25.3-137.2c1.8-44.5-2.1-89.5-11.9-133.4c-5.4-24-11.8-49.4-22.5-71.7
		c-0.4-0.8-1.6-0.2-1.4,0.6c6.6,20.9,14.5,41.2,19.7,62.6c5.4,21.9,9.5,44.1,11.5,66.5c4.1,45.4,2.4,90.4-5.1,135
		c-4.4,26.1-11.7,51.2-19.3,76.4C4163.7,455.3,4167.1,456.6,4167.9,454.6z"/>
	<path class="st2" d="M4142.4,461c4.8-38.3,1.7-78.8-4.3-117.1c-6.1-39.4-16.6-78.2-31-115.7c-7.9-20.5-16.4-41.9-28.3-60.5
		c-0.6-0.9-1.8-0.1-1.4,0.8c8.1,18.5,17.5,36.3,25,55.1c7.2,18.1,13.3,36.6,18.5,55.4c10.5,38.1,16.4,77.2,18.4,116.4
		c1.1,22,0.1,43.8-0.3,65.7C4138.9,463.4,4142.2,463.1,4142.4,461z"/>
	<path class="st2" d="M4108.3,477.3c2.1-18.4-5.1-37.6-10.9-55.1c-6.2-18.9-14.3-37.5-22.8-55.6c-8.7-18.4-18.3-36.3-29.1-53.6
		c-10.4-16.7-21.4-34.5-34.9-49c-0.9-1-2.6,0.3-1.9,1.5c10.9,16.2,23.2,31.4,33.6,48c10.3,16.6,19.7,33.7,28,51.4
		c8.6,18.4,15.4,37.2,21.8,56.3c5.9,17.7,13.5,37.6,13.4,56.3C4105.6,479.2,4108.1,478.9,4108.3,477.3z"/>
	<path class="st2" d="M4079.8,485.9c-7-29.3-24.4-56.7-40.4-82.1c-16.5-26.2-35.9-52.2-57.4-74.7c-0.4-0.5-1.1,0.2-0.7,0.7
		c40.5,46.4,75.7,98.5,95.7,156.8C4077.6,488.4,4080.3,487.7,4079.8,485.9z"/>
	<path class="st2" d="M4041,493.9c-3.2-21.8-15.5-41.4-28.3-59c-7-9.6-14.4-18.8-21.5-28.3c-7.4-10.1-14.6-20.6-22.5-30.4
		c-0.4-0.5-1.3,0.2-1,0.7c13.3,19.9,28.6,38.4,41.8,58.4c12.3,18.7,22.1,38.1,28.2,59.5C4038.3,497,4041.3,495.9,4041,493.9z"/>
	<path class="st2" d="M3959.7,439.4c8.6,8.8,16.2,18.6,23,28.8c6.9,10.5,11.3,21.6,16.5,33c0.8,1.8,3.2,0.4,2.9-1.2
		c-4.3-23.9-22.2-45.4-39.5-61.7c-19.4-18.2-41.9-35.2-64.9-48.4c-0.9-0.5-1.6,0.8-0.8,1.4C3918.2,407.1,3940.9,420.1,3959.7,439.4z
		"/>
	<path class="st2" d="M3917.7,486.6c5.8,6.1,11.9,14.7,19.4,18.7c0.7,0.4,1.3-0.4,1-1c-3.4-7.4-11.2-13.6-16.7-19.5
		c-6.2-6.7-12.5-13.2-18.8-19.8c-13-13.8-23.9-29-32-46.1c-0.5-1-2-0.1-1.5,0.9c8.2,16.2,17.9,31.6,29.4,45.8
		C3904.5,472.8,3911.1,479.7,3917.7,486.6z"/>
	<path class="st2" d="M3873.7,504.5c1,1,3-0.4,2.1-1.6c-12.6-17.7-28.1-33.6-42.6-49.8c-7.2-8-14.5-16-20.7-24.9
		c-6.3-9-10.7-18.4-15.1-28.4c-0.4-0.9-1.8-0.2-1.5,0.6c5.1,19,19.7,35.8,32,50.9C3842.6,469.3,3857,488.3,3873.7,504.5z"/>
	<path class="st1" d="M3806.6,497.3c3.4,0.2,6.8,0.5,10.3,0.7c-3.4-1.9-7-4.1-10.7-6.8c-4-2.8-8-6-12-9.7c-4.1-3.7-8-7.9-12-12.2
		c-4-4.4-8.2-8.9-12.3-13.6c-4.2-4.7-8.2-9.5-12.3-14.4s-8-9.9-11.8-14.8c-3.8-5-7.5-9.9-11-14.8c-3.5-4.8-6.8-9.6-9.8-14.1
		c-3-4.6-5.9-8.9-8.4-13c-5.1-8.1-9-15.1-11.6-20.1c-1.3-2.5-2.3-4.4-3-5.8c-0.7-1.4-1-2.1-1-2.1l2.1-1.7c0,0,0.7,0.5,1.9,1.4
		s2.9,2.3,5.1,4.1c0,0,0,0,0.1,0c26.8,51.6,71.5,94.9,114.6,135.6c-18.2,10.6-41.6,12.3-61.7,4.5c1.4-2,2.4-4.3,3.1-6.7
		c4.2,0.4,8.3,0.9,12.4,1.3C3787.9,495.9,3797.3,496.6,3806.6,497.3z"/>
	<path class="st1" d="M3677.7,404.6c-8.3-13.4-16.2-27-23.2-40.1c-2.8-5.2-5.4-10.4-7.9-15.4c5.5,6.1,11.2,12.1,16.8,18.1
		c33.9,36.7,63.5,77.4,88,120.8c-4.8,0.2-9.3-0.4-13.6-1.9c-1.5-1.3-3-2.7-4.5-4.3c-1.9-2-3.6-4.2-5.4-6.6
		c-3.7-4.6-7.6-9.7-11.7-15.1c-4.1-5.4-8.3-11.2-12.6-17.2s-8.6-12.3-13-18.8C3686.1,418,3681.9,411.2,3677.7,404.6z"/>
	<path class="st1" d="M3654.2,479.1c-0.9-0.7-1.9-1.5-2.8-2.3c3.6,0.7,7.2,1.4,10.7,2c5,0.9,9.9,1.8,14.9,2.7
		c-1.7-1.5-3.3-3-5.1-4.6c-1.6-1.5-3.3-2.9-4.8-4.5c-1.6-1.6-3.2-3.2-4.8-4.8c-3.2-3.3-6.5-6.7-9.9-10.2c-3.2-3.7-6.5-7.4-9.9-11.3
		c-1.7-1.9-3.4-3.9-5.1-5.8c-1.6-2-3.2-4.1-4.9-6.2c-3.2-4.2-6.6-8.4-9.9-12.7c-3.1-4.4-6.3-8.9-9.5-13.3c-3.2-4.5-6.2-9.2-9.2-13.8
		c-3-4.7-6.2-9.3-8.9-14.1c-2.8-4.8-5.7-9.6-8.5-14.4c-2.8-4.7-5.3-9.7-7.9-14.5c-5.3-9.5-9.9-19.3-14.4-28.5
		c-2.2-4.7-4.2-9.4-6.3-13.9c-2-4.6-4-9-5.7-13.4c-3.5-8.8-6.9-17.1-9.6-24.9c-1.4-3.9-2.7-7.6-3.9-11.2c-1.1-3.6-2.2-7-3.2-10.2
		c-2-6.4-3.8-11.9-4.9-16.6c-2.5-9.2-3.7-14.5-3.7-14.5l0.4-0.2c23.6,62.9,56.1,122.8,96.1,177.2c23.4,31.7,49.3,61.6,75.1,91.4
		C3684.7,493.7,3666.9,488.9,3654.2,479.1z"/>
	<path class="st1" d="M3572.6,435.1c-7-6.8-13.9-14.4-20.8-22.4c-6.9-8-13.7-16.6-20.1-25.7c-4.4-6.1-8.6-12.5-12.6-18.9
		c43.3,22.1,78.7,60.2,96.9,105.2c-4.5-2.3-8.9-4.7-13.2-7.2c0.1,0,0.1,0,0.2,0c3,0.8,6,1.5,9,2.2c-0.2-0.2-0.4-0.3-0.6-0.4
		c-5.7-4-12-8.8-18.5-14.3C3586.3,448.2,3579.5,442,3572.6,435.1z"/>
	<path class="st1" d="M3593.7,460.4c-30.9-20.5-56.4-48.2-80.1-77.9c3.9,3.5,7.8,6.9,11.5,10.3c4.1,3.7,8,7.3,11.9,10.9
		c7.7,7.2,14.9,13.9,21.6,20.1c3.4,3.1,6.6,6.1,9.6,9c3.1,2.8,6,5.5,8.8,8c5.4,5.2,9.8,10.2,13.2,14.7
		C3591.5,457.2,3592.6,458.8,3593.7,460.4z"/>
	<path class="st1" d="M3410.3,330.1c-8.1-9.3-15.6-18.9-23-28c-7.1-9.3-14.1-18.3-20.3-27.1c-3.1-4.4-6.1-8.7-9-12.8
		s-5.5-8.3-8.1-12.1c-2.6-3.9-5-7.7-7.3-11.3c-2.2-3.6-4.4-7.1-6.4-10.3c-4-6.5-7.3-12.2-10-16.9c-5.3-9.5-8.2-15-8.2-15l2.2-1.6
		c0,0,2.9,3,8.2,8.6c63.8,91.3,138.6,175.1,222.3,248.8c-8.6-1.1-16.8-3.7-24.6-7.4c1.1,0.3,2.1,0.7,3.2,1l13.5,3.9
		c-1-0.6-2-1.2-3-1.9c-3.9-2.6-8.1-5.2-12.2-8.1c-4.1-2.9-8.5-5.9-12.8-9.1c-4.4-3.1-8.8-6.5-13.2-10.1c-4.4-3.5-8.9-7.2-13.4-11
		c-4.4-3.9-8.9-7.9-13.4-12c-4.5-4-8.9-8.4-13.3-12.7c-8.9-8.6-17.5-17.8-26.2-26.8C3426.8,348.8,3418.3,339.6,3410.3,330.1z"/>
	<path class="st1" d="M3477.8,409c-40.9-37.7-82-76.6-117.5-119.2c1.9,1.6,3.7,3.3,5.5,5c9,7.9,17.7,16,26.3,24
		c8.4,8.1,16.8,16.1,24.7,24c3.9,4,7.9,7.8,11.6,11.7c3.8,3.9,7.4,7.7,11,11.4c7.1,7.5,13.7,14.7,19.7,21.4c3,3.4,5.9,6.6,8.6,9.8
		c2.7,3.1,5.3,6.1,7.7,8.9c0.9,1.1,1.9,2.2,2.8,3.3C3478,409.2,3477.9,409.1,3477.8,409z"/>
	<path class="st1" d="M3433.4,412.1c13.9,5.7,28.1,10.8,42.2,16C3460.6,426.1,3446.6,420.2,3433.4,412.1z"/>
	<path class="st1" d="M3366.4,344.9c-8.5-8.5-16.6-17.7-24.5-27c-7.8-9.4-15.4-19-22.6-28.7c-7.3-9.6-14.1-19.3-21-28.4
		c-6.7-9.3-13.2-18.2-19.4-26.6c-3.1-4.2-6.1-8.3-9-12.2c-2.9-4-5.6-7.8-8.3-11.5c-5.3-7.4-10.1-14.2-14.2-20.3
		c-4.2-6.1-7.8-11.4-10.8-15.7c-5.9-8.8-9.3-13.8-9.3-13.8l1.2-0.9c70.2,101.5,155.7,192.6,252.8,269c-1.6-0.1-3.1-0.3-4.7-0.4l0,0
		c-4-2.1-8.5-4.5-13.5-7.4c-6.5-3.7-13.8-8.1-21.4-13.3c-3.9-2.5-7.8-5.3-11.8-8.1c-4-2.9-8.1-6-12.3-9.2
		c-8.4-6.4-16.9-13.5-25.5-21C3383.5,361.6,3374.8,353.5,3366.4,344.9z"/>
	<path class="st1" d="M3234.6,261.5c-8.1-9-15.9-18.1-23.4-26.9c-7.3-8.9-14.5-17.4-21-25.8c-6.6-8.2-12.7-16.2-18.2-23.5
		c-2.7-3.7-5.4-7.2-7.9-10.6c-2.4-3.4-4.8-6.6-6.9-9.7c-4.4-6.1-8.2-11.4-11.1-15.8c-6-8.9-9.4-14-9.4-14l2.2-1.6
		c0,0,4,4.6,11.1,12.7l0.9,1.1c57.3,85,146.9,147.7,207.8,231.5c-15.1-3.4-28.5-10.9-40.8-20.3c1.2,0.6,14.9,7.8,16,8.4
		c8.4,4.7,4.7,2.2,13.4,6.6c0.7,0.3,1.3,0.6,2,1c-4.5-3.9-9.1-8.1-14-12.4c-8-7-16.1-14.6-24.5-22.5c-8.3-8-17-16.2-25.5-24.9
		c-8.6-8.5-17.1-17.5-25.7-26.3C3250.9,279.6,3242.6,270.6,3234.6,261.5z"/>
	<path class="st1" d="M3196,273c-8.1-8.5-15.9-17.5-23.7-26.5c-7.6-9.2-15.3-18.3-22.4-27.6c-7.3-9.2-14-18.6-20.5-27.6
		c-6.3-9.2-12.5-17.9-17.9-26.6c-5.5-8.6-10.7-16.7-15.1-24.4c-2.2-3.8-4.4-7.5-6.4-11c-2-3.5-3.8-6.9-5.6-10.1
		c-3.5-6.3-6.4-11.9-8.7-16.5c-4.6-9.2-7.1-14.5-7.1-14.5l2.3-1.3c0,0,3.5,4.8,9.4,13.2c0.6,0.9,1.2,1.8,1.9,2.8
		c39.9,79.4,105.2,146.4,168.7,210.5c-7.5-1.3-14.8-3.7-21.8-6.7c-3.1-2.9-6.1-5.8-9.2-8.8C3212.1,289.8,3203.9,281.7,3196,273z"/>
	<path class="st1" d="M3220.9,302.5c-5-2.7-9.9-5.8-14.6-9.2C3211.1,296.4,3215.9,299.4,3220.9,302.5z"/>
	<path class="st1" d="M3120.1,232.9c-2.1-0.8-4.2-1.6-6.1-2.7c-0.3-0.5-0.7-0.9-1-1.4c-3.8-5.6-8-11.6-12.6-17.9
		c-4.5-6.4-9.4-13-14.3-19.8c-5.2-6.8-10.3-13.9-15.8-20.9c-5.5-7.1-11-14.3-16.6-21.5c-5.7-7.1-11.2-14.3-17-21.2
		c-5.5-7.1-11.2-13.8-16.6-20.5c-10.9-13.2-21.1-25.6-29.9-36.2c-7.5-9.1-14-16.9-18.9-22.8c34.8,29.8,66.1,63.7,96.7,97.9
		C3091,171.4,3114.8,199.3,3120.1,232.9z"/>
	<path class="st1" d="M2969.5,95.4c-12-12.4-20-20.7-20-20.7l1.8-2c0,0,2.3,1.7,6.5,4.6c1.9,1.3,4.1,3,6.5,4.9
		c22.4,20.5,43.9,42,64.4,64.4c3.5,3.8,6.7,10.5,2.4,13c-1.3,0.7-2.8,0.7-4.2,0.3c-1.4-1.7-2.8-3.5-4.2-5.2
		c-3.5-4.4-7.2-8.7-10.8-13c-3.7-4.3-7.5-8.5-11.2-12.7c-3.7-4.2-7.5-8.2-11.1-12.2c-3.6-3.9-7.1-7.8-10.5-11.3
		C2975.6,101.8,2972.4,98.5,2969.5,95.4z"/>
	<path class="st1" d="M2890.6,49.7C2880.4,38,2873.7,30,2873.7,30l1.5-1.5c27.7,30.2,55.3,60.4,83,90.6c-3.9-1.2-7.7-2.7-11.3-4.3
		c-6.1-7.1-12.5-14.6-18.9-22C2914.4,77.1,2900.8,61.4,2890.6,49.7z"/>
	<path class="st1" d="M2806.9,19.5c-3-3.4-5.6-6.4-7.6-8.9c-4.1-5-6.5-7.9-6.5-7.9l0.6-0.6c55.7,55.8,117,105.9,182.6,149.4
		c-13.5-1-26.2-6.5-38.4-13.2c1.5,0.6,3.1,1.1,4.6,1.7c-0.7-0.4-1.3-0.9-2-1.3c-4.6-3.1-9.5-6.8-14.7-10.6
		c-5.2-3.8-10.5-7.9-16.1-12.2c-5.5-4.3-11.2-8.8-16.8-13.5c-5.7-4.6-11.3-9.5-17-14.3c-11.2-9.8-22.1-20-32.2-29.7
		c-4.9-5-9.7-9.7-14.2-14.3s-8.6-9-12.4-13.2C2813.2,26.7,2809.8,22.9,2806.9,19.5z"/>
	<path class="st1" d="M2834.6,104.4c26.3,11.6,52.6,23.2,78.9,34.8c-4.3-0.7-8.5-1.3-12.9-2c-0.1,0-0.2-0.1-0.2-0.1
		c-6.7-3-13.3-5.9-19.8-9c-6.5-3-12.9-6.1-19-9.2C2851.9,113.9,2842.7,109,2834.6,104.4z"/>
	<path class="st1" d="M2861.7,118.9c-9.8-5-18.9-9.9-27-14.5c-2-1.2-4-2.3-5.8-3.4c-2.4-1.4-4.6-2.7-6.8-4c-0.1-0.1-0.2-0.1-0.3-0.2
		c54.7,19.5,108,43.2,159.3,70.9c-1.9-0.6-3.9-1.2-5.9-1.9c-10.3-3.5-22.3-7.8-35.1-12.6c-6.4-2.4-13-5-19.6-7.7
		c-6.6-2.6-13.2-5.5-19.8-8.3c-0.1-0.1-0.1-0.1-0.2-0.1c-6.6-3-13.3-5.9-19.8-9C2874.1,125.1,2867.8,122,2861.7,118.9z"/>
	<path class="st1" d="M2869.2,166.3c-6.7-2.4-13.1-4.7-18.9-6.9c-2.9-1.1-5.7-2.2-8.4-3.2c-2.7-1.1-5.1-2.1-7.5-3.1
		c-4.7-2-8.8-3.7-12.1-5.2c-6.6-3-10.4-4.8-10.4-4.8l1-2.5c0,0,3.9,1.4,10.7,3.7c3.4,1.2,7.5,2.6,12.3,4.1c0,0,0,0,0.1,0
		c54.4,23.2,111.4,40,169.5,49.7c-3.8,0.8-7.6,1.4-11.4,1.8c-3.1-0.6-6.1-1.3-9.3-1.9c-7.6-1.7-15.4-3.3-23.4-5.3
		c-8-1.8-16-3.9-24-5.9c-8.1-2.1-16.1-4.2-23.9-6.5c-7.9-2.2-15.6-4.6-23-6.9C2883.2,171,2876,168.7,2869.2,166.3z"/>
	<path class="st1" d="M2834.2,185c-6.2-2.9-10-4.8-10.8-5.2c50.3,15.2,100.5,30.5,150.7,45.7c3.2,1,6.4,1.9,9.5,2.9
		c-6.4-1.5-12.9-3-19.3-4.5c-22.7-5.3-45.5-10.5-68.2-15.8c-0.2-0.1-0.4-0.1-0.6-0.2c-3.8-1.2-7.6-2.2-11.2-3.5
		c-7.3-2.4-14.1-4.7-20.3-7.1c-3.1-1.2-6.1-2.3-9-3.4c-2.8-1.2-5.4-2.3-8-3.4C2842,188.5,2837.7,186.7,2834.2,185z"/>
	<path class="st1" d="M2820.1,223c-10.4-3.4-19.8-6.6-28.3-9.4c-0.2-0.1-0.5-0.2-0.7-0.3c88.4,24.7,176.9,49.3,265.3,74
		c-13.3-3-27-6.1-40.9-9.4c-13.9-3.3-28-6.7-42.1-10.4c-28.1-7.3-56.1-15-82.3-22.6c-13.1-3.8-25.7-7.6-37.6-11.2
		C2841.7,229.9,2830.5,226.4,2820.1,223z"/>
	<path class="st1" d="M2966.7,301.5c-14.4-3.2-28.5-7-42.1-10.6c-6.8-2-13.4-3.8-20-5.7c-6.5-1.8-12.9-3.7-19-5.7
		c-6.2-2-12.2-3.9-18-5.7c-5.7-1.9-11.3-3.8-16.6-5.7s-10.4-3.7-15.2-5.4c-4.8-1.8-9.4-3.5-13.7-5.1c-4.3-1.6-8.3-3.1-12-4.5
		s-7-2.8-10.1-4.1c-12.2-5-19.1-7.9-19.1-7.9l0.9-2.6c0,0,7.1,2.4,19.6,6.4c3.1,1,6.5,2.3,10.3,3.4c3.8,1.2,7.8,2.5,12.2,3.9
		c4.3,1.3,9,2.8,13.8,4.4c4.9,1.4,10.1,2.9,15.5,4.5c5.4,1.5,11,3.3,16.8,4.9c5.8,1.6,11.8,3.2,18,4.9c6.2,1.8,12.6,3.3,19.1,5
		c2.3,0.6,4.5,1.2,6.9,1.8c40.8,12.5,81.6,25,122.4,37.4c-1.2,0-2.3,0-3.5-0.1l0,0c-7.3-1.3-14.7-2.7-22.1-4
		C2995.8,307.9,2981,305.1,2966.7,301.5z"/>
	<path class="st1" d="M2866.2,356.6c-13.1-2.6-20.6-4.2-20.6-4.2l0.2-1.2l301.8,32.2c-4.8-0.1-9.6-0.2-14.4-0.3
		c-15-0.2-30.2-0.9-45.4-1.5c-15.2-0.9-30.4-1.5-45.4-2.7c-15-0.9-29.7-2.3-43.9-3.6c-7.1-0.6-14.1-1.5-21-2.2
		c-6.8-0.8-13.5-1.4-20-2.3c-13-1.7-25.3-3.2-36.6-5c-5.7-0.8-11.1-1.7-16.3-2.4c-5.1-0.9-10-1.7-14.6-2.5
		C2880.8,359.4,2872.8,358.1,2866.2,356.6z"/>
	<path class="st1" d="M2952.5,327.2c97.4,11.7,195,23,292.7,26.8c-1.7,0.4-3.4,0.8-5.3,1.1c-4.2,0.8-8.7,1.6-13.6,2.3
		c-4.9,0.6-10.1,1.2-15.6,1.8c-5.5,0.4-11.4,0.7-17.4,1c-12.2,0.2-25.4,0-39.3-1.1c-13.9-0.9-28.5-2.4-43.6-4.3
		c-15.1-1.8-30.5-4.1-46.2-6.7c-15.7-2.6-31.5-5.5-47.3-8.4c-7.9-1.5-15.8-2.9-23.7-4.4c-7.9-1.6-15.7-3.1-23.5-4.7
		C2963.9,329.5,2958.2,328.4,2952.5,327.2z"/>
	<path class="st1" d="M3006.3,417.3c-16.6-1.9-32.7-3.8-47.8-6.1c-7.6-1.1-15-2.2-22.1-3.3c-7.1-1-14-2.4-20.6-3.5
		c-6.6-1.2-12.9-2.3-18.9-3.3c-6-1.2-11.7-2.4-17-3.5s-10.3-2.1-14.9-3.1c-4.6-1-8.8-2.1-12.7-2.9c-15.2-3.6-23.9-5.9-23.9-5.9
		l0.3-2.7c0,0,1.1,0,3.3,0.1c165.3,27.7,333.2,40.8,497.6,19.4c22.1-2.9,46.2-6,65.9,5.4c-0.2,0-0.3,0-0.5,0.1
		c-2.9-1.3-5.8-2.7-8.7-4.1c-4,0.8-9.8,2-17.2,3.3c-3.8,0.7-8,1.4-12.6,2.1c-4.6,0.7-9.6,1.4-14.9,2.2c-5.3,0.8-11,1.5-17.1,2.3
		c-6,0.8-12.3,1.4-18.9,2.1c-13.2,1.5-27.5,2.7-42.7,4s-31.2,2.3-47.8,3.4c-8.3,0.5-16.8,0.9-25.3,1.4c-8.6,0.4-17.2,0.6-26,0.7
		c-17.5,0.4-35.3,0-53-0.5c-17.8-0.8-35.6-1.7-53.1-3.1c-8.8-0.7-17.4-1.3-26-2.1C3023,419,3014.6,418.1,3006.3,417.3z"/>
	<path class="st1" d="M3068.2,481.1c-5.5,0-10.9-0.1-16.4-0.2c-5.5-0.1-11-0.2-16.4-0.5c-11-0.5-22-1.2-32.9-2.4
		c-21.9-2.2-43.9-5.8-65.3-11.8l0.2-2.7c3.7-0.3,7.4-0.5,11.1-0.7c148.7,14.1,298.8,6.3,443.8-23.3c10,0,19.8-0.4,29.5-1.6
		c5.8-0.8,11.5-2,17.1-3.7c4.4,0.3,8.7,0.9,12.8,2.1l-7.1,1.6c-6.3,3.9-13.2,7.1-20.3,9.4c-10.6,3.6-21.6,5.8-32.5,7.4
		c-10.8,1.7-21.5,3-32.2,4.4c-10.7,1.3-21.5,2.7-32.2,3.8c-10.8,1.3-21.5,2.4-32.3,3.5c-10.7,1.1-21.5,2.1-32.3,3.2
		c-10.8,1-21.5,1.9-32.3,2.8l-32.3,2.5c-10.8,0.9-21.6,1.5-32.4,2.3c-10.8,0.8-21.6,1.3-32.4,1.9c-10.8,0.5-21.6,1-32.5,1.4
		C3090,480.9,3079.1,481.1,3068.2,481.1z"/>
	<path class="st1" d="M3097.7,557.6l-9.4-1.1c-1.6-0.2-3.1-0.4-4.7-0.7c120.2-6.4,237.5-56.7,358.3-44c-4.5,1.5-9,2.9-13.5,4.3
		l-3.7,0.7c-24.7,4.3-49.7,6.5-74.1,8.1c-12.2,0.9-24.3,1.6-36.1,2.6c-11.9,1-23.7,2.3-35.2,4c-11.6,1.8-23,3.9-34.3,6.7
		c-5.6,1.4-11.3,2.9-16.8,4.6c-2.8,0.8-5.6,1.7-8.3,2.6l-4.5,1.5l-4.4,1.3l-8.7,2.6c-3.2,0.8-6.3,1.6-9.5,2.3
		c-3.2,0.8-6.3,1.5-9.5,2c-3.1,0.6-6.2,1.1-9.4,1.6c-12.6,1.7-25.4,2.9-38.1,2.8C3123,559.8,3110.3,558.9,3097.7,557.6z"/>
	<path class="st1" d="M3525.5,458.9c-1.7-0.5-3.5-1.2-5.2-1.7c-8.6,4.6-18,8-27.3,10.6c-11.1,3-22.3,4.8-33.6,6.8
		c-11.2,2-22.5,3.6-33.7,5.3l-33.6,4.7c-11.2,1.5-22.3,3.1-33.2,5c-5.3,0.9-11.1,1.9-16.6,2.9l-16.4,3.2c-2.5,0.5-5.1,1-7.5,1.5
		c10.2-0.4,20.3-0.7,30.3-0.7c4.9-0.1,9.8-0.1,14.7-0.2c-50.2,7.9-100.3,15.9-150.4,23.8c-8.2,1.3-16.5,2.6-24.7,3.8
		c1.3-0.4,2.7-0.8,4-1.2l4.9-1.7c-1.4,0.2-2.8,0.5-4.3,0.7c-11.3,1.8-22.7,3.3-34,4.5c-11.5,1.2-23,2-34.6,2.3
		c-11.5,0.4-23.2,0.2-34.8-0.4c-11.6-0.8-23.2-1.9-34.7-3.8c-11.5-1.9-22.9-4.4-34.1-7.7c-2.3-0.7-4.5-1.4-6.8-2.1
		c20.3,1.9,40.8,6,61.1,7.8c104.4,9.1,203.4-43.4,307.9-43.4c23.6,0,44.2-10.6,65.9-19.1c2.6-0.3,5.3-0.6,7.9-0.9
		c11.2-1.2,22.2-2.9,33.3-4.3c5.8-0.7,11.5-1.3,17.3-1.7c-2.2-0.8-4.4-1.5-6.6-2.3C3509.6,451.2,3518.1,453.9,3525.5,458.9z"/>
	<path class="st1" d="M3146.8,627.5c-4.1,0.2-7.6,0.4-11.6,0.4c-3.9,0.1-7.6,0.1-11.3,0c-14.6-0.3-28-1.9-39.8-4.3
		c-11.7-2.4-21.7-5.4-29.7-8.5c-8-3-14-6.1-18.1-8.2c-4-2.3-6.1-3.4-6.1-3.4l1.2-2.4c0,0,2.2,1,6.2,2.9c4.1,1.7,10.2,4.2,18.2,6.5
		c7.9,2.3,17.8,4.5,29.2,5.8c5.7,0.6,11.9,1,18.3,1.1c27.2,3.4,54.9,3.2,81.9,0.2c61.8-6.9,120.8-27.6,178.5-49.6
		s115.2-45.5,175.9-58.4c-1.8,1.5-3.6,2.9-5.5,4.3c-2.7,1.1-5.5,2.2-8.4,3.3c-13.2,5.1-27.5,10.7-42.7,16.6
		c-15.2,5.8-31.1,12.1-47.7,18.3c-16.6,6.2-33.8,12.5-51.4,18.5c-8.8,3-17.6,6.1-26.6,9s-17.9,5.9-26.9,8.8
		c-18.1,5.6-36.4,10.5-54.6,14.7c-18.3,4.2-36.4,8.3-53.8,12.3c-17.6,4-34.7,7.6-51.3,9.9C3162.8,626.2,3154.7,627,3146.8,627.5z"/>
	<path class="st1" d="M3641.7,490.6c-1.9-0.4-3.7-0.9-5.5-1.3C3638.1,489.4,3640,489.8,3641.7,490.6z"/>
	<path class="st1" d="M3611.7,523c-11.6,6.1-25.1,12-40.2,17.4c-15,5.5-31.5,10.6-48.6,16s-34.9,11.3-52.3,18.8
		c-8.9,3.8-17.3,7.9-26,12.5c-8.7,4.5-17.4,9.4-26.2,14.4c-17.6,10-35.5,21-54.3,31.1c-4.6,2.5-9.4,5-14.2,7.4l-3.6,1.8l-0.9,0.5
		l-1.1,0.6l-1.8,0.8l-14.2,6.5c-2.3,1-5,2-7.4,3c-5.1,1.9-10.1,4-15.1,5.7c-20,7-40.3,12.1-59.9,16.1c-19.7,4.1-38.8,6.9-56.9,9.8
		c-18.1,2.6-35.1,5-51,6.7c-31.6,3.6-58,5.5-76.4,7.1c-11.1,0.9-19.3,1.6-24.1,2c1.4-0.8,2.8-1.6,4.3-2.2c7.5-3,15.7-3.5,23.8-4.2
		c144.8-11.2,285.6-57.9,406.7-134.9c40.4-25.7,98.5-20.5,134.8-49.7c10.8-4.7,19.9-9.5,27.3-13.7c3.2-1.8,6.1-3.5,8.7-5.2
		c1.9,1.1,3.4,2.8,4.2,4.9c0.2,0.6,0.4,1.2,0.4,1.7c-2.1,2.1-4.6,4.4-7.4,6.7C3632.9,510.6,3623.4,517.1,3611.7,523z"/>
	<path class="st1" d="M3670.2,525.6c-2.1,1.4-4.3,2.8-6.5,4.3c-2.2,1.4-4.5,3-7,4.5c-2.4,1.5-4.9,3-7.5,4.5s-5.2,3.1-8,4.8
		c-2.8,1.5-5.6,3.1-8.5,4.7c-2.9,1.6-5.9,3.2-8.8,4.9c-3,1.6-6.1,3.2-9.3,4.8s-6.4,3.3-9.6,4.9c-3.3,1.6-6.7,3.2-10.1,4.9
		c-13.6,6.5-28.1,13-43.1,19.6c-14.9,6.5-30.4,13.3-46,20.2s-31.3,14.2-46.7,21.8c-7.7,3.8-15.4,7.6-22.8,11.8
		c-7.5,4-14.9,8.2-22.1,12.6c-14.6,8.6-28.7,17.9-43.4,25.7c-7.3,3.9-14.7,7.4-22.2,10.5c-3.7,1.5-7.4,3-11.2,4.3
		c-3.7,1.3-7.2,2.6-11,3.7c-14.8,4.6-28.7,8-41.8,10.5s-25.2,3.9-36,4.7c-5.7,0.5-11,0.7-15.9,0.8c43.1-7.6,85.7-18.1,124.4-37.6
		c37.3-18.9,70-45.7,107.3-64.5c60.4-30.6,132.4-40.2,184.6-82.9c1.1-3.9,3-7.6,5.5-10.9c0.4-0.3,0.7-0.5,1.1-0.7
		c4.4-2.7,8.6-5.3,12.4-7.6c3.8-2.3,7.7-4,11.1-5.6c2.1-1,4.1-2,5.9-3c3.6-0.3,7.1-0.1,10.7,0.6c-0.9,1-1.9,2.1-3,3.2
		c-2,2.2-4.3,4.7-7.1,7.4s-5.8,6-9.5,8.9C3674.3,523,3672.2,524.2,3670.2,525.6z"/>
	<path class="st1" d="M3590.4,608c-21.2,11.7-42.5,23-62.5,33.7c-10,5.4-19.9,10.2-29.6,14.1c-9.7,4-18.6,8.1-26.8,12
		c-16.4,7.7-30.1,14.2-39.7,18.7c-9.6,4.5-15,7.2-15,7.2l-1.3-2.4c0,0,5.2-3,14.4-8.3c4-2.3,8.7-5.1,14.1-8.3c0.1,0,0.1-0.1,0.2-0.1
		c70.8-35.6,141.3-71.8,209.9-111.2c19.4-11.2,38.8-22.7,55.9-37c3.8-3.2,7.6-6.6,11.6-9.5c3.8-2.9,7.9-5.3,12.4-6.9
		c2-0.7,4.1-1.2,6.2-1.4c4-0.5,8.2-0.1,11.9,1.3c-0.5,0-1-0.1-1.4-0.2c-2.2,1.8-5.1,4.2-8.8,7.1c-8.4,6.6-20.8,15.2-36.3,24.6
		c-15.5,9.4-33.6,20.3-53.2,31.7c-9.8,5.7-19.9,11.5-30.3,17.4C3611.6,596.4,3600.9,602.1,3590.4,608z"/>
	<path class="st1" d="M3660.3,599.6c11.5-6.8,23.3-13.8,36.2-16.9c-10,5.9-20.5,12.2-31.2,18.6c-25,14.7-51.6,30.4-78.3,46
		c-13.3,7.8-26.7,15.5-39.9,23.1s-26,15.4-39.3,21.9c-6.6,3.3-13.4,6.3-20.2,8.8c-1.7,0.6-3.4,1.2-5.1,1.7l-2.6,0.9l-2.5,0.7
		c-3.5,1-6.8,1.8-10.1,2.6c-7.1,1.6-13.9,2.8-20.5,3.8C3521,680.2,3591.4,640.5,3660.3,599.6z"/>
	<path class="st1" d="M3543.4,714c0,0,0.3,0,0.9,0.1c-0.3,0.1-0.6,0.3-1,0.4L3543.4,714z"/>
	<path class="st1" d="M3746.9,599.6C3746.9,599.7,3746.9,599.7,3746.9,599.6c-3.2,2.2-6.4,4.3-9.7,6.5
		c-10.3,6.4-20.7,13.2-31.8,19.6c-10.8,6.6-22.2,12.7-33.4,19c-11.4,5.9-22.8,12-34.3,17.4c-11.4,5.7-22.9,10.6-33.9,15.6
		c-5.6,2.3-11,4.7-16.4,6.9c-5.4,2.3-10.6,4.5-15.8,6.4c-5.1,2-10.2,4-15,5.8c-4.9,1.9-9.6,3.5-14.2,5.1c-3.1,1.1-6.1,2.1-9.1,3.1
		c7-3.4,14-6.7,21-10.1c88.9-42.9,179-86.6,253.2-151.2c3.7-3.2,7.4-6.5,9.4-10.9c1.4-3.2,1.7-7.1,0.5-10.3c3.8-2.1,6.8-3.7,9.1-4.8
		c0.4-0.2,0.7-0.3,1-0.5c-1.9-0.1-3.8-0.2-5.7-0.3c3.5-0.4,7.2,0.1,10.5,1.6c-0.4,0.7-1.1,1.8-2.2,3.4c-1.7,2.6-4.3,6.3-7.7,10.7
		c-3.4,4.5-7.9,9.8-13.4,15.5c-1.3,1.3-2.5,2.7-3.9,4C3787,569.3,3767.3,584.9,3746.9,599.6z"/>
	<path class="st1" d="M3583.7,716.7c0.6-0.3,1.2-0.6,1.8-0.9c-0.5,0.3-1,0.6-1.4,0.9c-2.6,1.7-5.3,3.3-7.9,5
		c-0.8-0.1-1.5-0.2-2.3-0.3C3577.2,719.9,3580.5,718.3,3583.7,716.7z"/>
	<path class="st1" d="M3613.2,716.4c1.8-0.1,3.6-0.3,5.4-0.4c-3.8,2.7-7.5,5.4-11.3,8.1c-3.3-0.1-6.6-0.2-9.7-0.4
		c3.2-2.3,6.4-4.7,9.6-7C3609.1,716.6,3611.1,716.5,3613.2,716.4z"/>
	<path class="st1" d="M3769.1,607.6c-18.7,13.4-37.3,26.9-56,40.3c-7.7,5.4-15.5,10.7-23.3,16c-12.6,8.3-25.1,16.7-37.6,24.7
		c-12.4,8.2-24.9,15.8-36.9,23.2c-2.6,1.6-5.2,3.2-7.8,4.7c49.6-36.1,99.1-72.2,148.7-108.3c20-14.6,40.3-29.3,63-39.3
		c-7.6,6.1-15.8,12.5-24.5,19.2c-5.1,4-10.4,8-15.8,12.1C3775.7,602.7,3772.4,605.1,3769.1,607.6z"/>
	<path class="st1" d="M3637.4,739c1-0.2,2-0.5,2.9-0.7c-21.3,8.2-43.3,15.3-63.5,25.8c-1.1,0.2-2.1,0.4-3,0.6c-3.4,0.7-5.2,1-5.2,1
		l-1.1-2.5c0,0,1.6-0.9,4.6-2.6c3-1.7,7.7-4,13.7-6.5c3-1.3,6.4-2.6,10.1-3.8c1.9-0.6,3.8-1.3,5.8-2s4.1-1.2,6.3-1.9
		C3616.9,743.9,3626.8,741.5,3637.4,739z"/>
	<path class="st1" d="M3684.6,707.3c-5.9,3.1-12,5.8-18.1,8.1c-1.6,0.6-3,1.1-4.7,1.6c-1.5,0.5-3,0.9-4.5,1.4
		c-2.9,0.9-6.2,1.6-9.2,2.3c-1.4,0.3-2.8,0.5-4.2,0.8c65.9-32,122-80.8,177.1-129c16.3-14.2,32.6-27.6,46.9-43.8
		c3.3-3.8,6.7-7.7,8.3-12.5c1.5-1.2,2.9-2.3,4.2-3.5c6.3-5.3,11.8-9.9,17.1-12.9c-3.1,0-6.2-0.1-9.5-0.2c-0.2,0-0.3,0-0.5,0
		c12.9-1.7,26-2.6,39-2.7c-0.9,0.9-1.8,1.8-2.7,2.7c-2.6,0.1-5.3,0.1-8,0.2c-1.7,3-4.3,7.1-8.3,11.5c-4,4.7-9.7,9.2-16.3,14.6
		c-6.5,5.3-13.9,11.3-21.9,17.9c-16.1,13.1-34.7,28.5-54.9,44.7c-10.1,8.2-20.5,16.5-31.1,25.1c-10.6,8.5-21.4,17.2-32.1,25.8
		c-10.8,8.6-21.6,17.2-32.5,25.6C3707.9,693.3,3696.5,701.1,3684.6,707.3z"/>
	<path class="st1" d="M3675,757.5l23.3-17.1c-0.9,0.4-1.9,0.7-2.8,1.1c-3.3,1.1-6.5,2.1-9.7,3.2c-3.2,0.9-6.4,1.9-9.6,2.7
		c-10.7,2.8-21,4.8-30.5,6.4c50.7-22.4,99.1-48.9,138.7-86.8c40.8-39,87.4-73.2,122.2-117.6c0.5-0.6,0.9-1.2,1.3-1.7
		c2.4-2,4.8-3.9,7-5.8c6.9-5.6,12.9-10.4,18-14.3c3.8-3,7.1-5.5,9.6-7.4c2.1-0.4,4.2-0.6,6.3-0.5c-2.2,2.4-6.1,6.7-11.7,12.6
		c-4.4,4.6-9.8,10.2-16,16.5s-13.3,13.3-21.1,20.9c-7.9,7.5-16.4,15.7-25.5,24.3c-9.1,8.5-18.7,17.6-28.6,26.9
		c-15.3,14.3-31.4,29.4-47.6,44.7c4.3-3.4,8.7-6.8,13-10.1l22.3-18l21.9-18.4l17.9-15.5C3812.4,660.8,3745.9,712.5,3675,757.5z"/>
	<path class="st1" d="M3991.3,547.4c0.7-1.3,1.2-2.7,1.6-4.1c1.5-5.2,0.5-11.4-2.5-16c5.1-3.7,9.9-7.2,14.3-10.4
		c0.7-0.5,1.4-1.1,2.1-1.6c-3.9,0.4-7.8,0.8-11.8,1.1c13.1-4.1,27-5.7,40.8-4.7c-4.7,0.7-9.4,1.4-14.3,2c-0.5,0.6-0.9,1.3-1.4,1.9
		c-2.2,2.9-4.8,6.1-7.7,9.5s-6.2,7-9.7,10.7c-3.6,3.6-7.3,7.6-11.3,11.4C3991.4,547.3,3991.4,547.4,3991.3,547.4z"/>
	<path class="st1" d="M3910.7,608.7c-3.4,1.6-6.8,3-9.8,4.1c-3.5,1.4-6.8,2.2-9.4,2.9c-2.3,0.7-4.4,0.9-5.8,1.1
		c-2,1.8-3.9,3.5-5.9,5.3c-3.2,0.3-6.6-0.3-9.5-1.8c29.9-30,60.7-59,92.4-87c-4.4,5.8-8.9,11.5-13.5,17.2c-5.1,6-10.2,12-15.5,17.9
		c6.2-4.5,12.7-9.2,19.1-13.9c4.8-3.5,9.6-7,14.3-10.4c-0.8,0.8-1.7,1.5-2.5,2.2c-27.2,22.7-54.4,45.3-81.7,68
		C3892.8,613.9,3901.9,611.9,3910.7,608.7z"/>
	<path class="st1" d="M4031,518c1.8-2.2,3.5-4.2,5.2-6.2c0.7,0,1.3,0.1,2,0.1c-4.3,4.2-8.5,8.5-12.7,12.8
		C4027.3,522.4,4029.2,520.2,4031,518z"/>
	<path class="st1" d="M3943.9,638.9c1.6-2.3,3.2-4.7,4.8-7c29.8-43.5,63.1-84.7,99.3-123c-0.5,1.3-1.1,2.6-1.6,3.9
		c-2.2,3.5-4.6,7.3-7.2,11.3c-1.7,2.7-3.6,5.6-5.5,8.5c-2,2.9-4,5.9-6.1,9c-4.2,6.2-8.8,12.6-13.6,19.2c-4.9,6.5-9.9,13.3-15.3,19.9
		c-0.4,0.4-0.7,0.8-1.1,1.3c0.2-0.1,0.3-0.3,0.5-0.4c-6,6.5-12.2,12.9-18.3,19.2c28.8-13.4,54.6-32.9,75.3-56.8
		c8.6-9.9,16.5-23.8,11.2-35.7c-0.3-0.6-0.6-1.2-0.9-1.8c0.5-0.1,0.9-0.2,1.4-0.3c10.3-2.5,20.6-4.9,30.9-7.4
		c-2.1,0.6-4.2,1.1-6.3,1.7c-3.7,6.2-7.9,12.9-12.8,19.7c-1.7,2.4-3.4,4.8-5.3,7.2c-1.8,2.4-3.7,4.8-5.7,7.2c-4,4.7-8,9.5-12.4,14
		c-4.2,4.7-8.8,9-13.2,13.3c-2.2,2.1-4.6,4.1-6.9,6.1c-2.3,2-4.6,4-6.9,5.8c-2.3,1.8-4.7,3.6-6.9,5.3c-2.3,1.7-4.6,3.3-6.9,4.7
		c-4.5,3.1-9,5.6-13.1,8s-8.1,4.1-11.6,5.7c-1.8,0.8-3.4,1.5-4.9,2.2c-1.2,0.4-2.3,0.8-3.3,1.2c-5.7,6.3-11.4,12.7-17.5,18.6
		c-5.9,6.2-12.3,11.9-18.3,17.5C3945.2,637.8,3944.6,638.3,3943.9,638.9z"/>
	<path class="st1" d="M4084,547.1c-3.4,2.5-6.8,4.7-10,6.8c-1.2,0.8-2.4,1.5-3.5,2.3c17.6-14.1,31.4-33.3,41.7-53.6
		c2.8-5.4,5.5-11.1,10.3-14.9c4.7-3.8,12.2-5,17-0.9c0.1,0.1,0.2,0.2,0.3,0.3c-0.6,1.7-1.4,3.5-2.4,5.2c-3.3,6.6-8.5,13-14.2,19
		c-2.8,3-5.7,6.1-8.3,9.1l-1,1.2l-0.7,0.8l-0.5,0.6c-0.8,0.8-1.4,1.6-2.3,2.5c-1.8,1.8-3.6,3.6-5.3,5.1
		C4098.1,536.8,4090.9,542.2,4084,547.1z"/>
	<path class="st2" d="M3769.5,432.5c19.7,22.2,43.4,42.1,58.7,67.6c0.9,1.6,3.5,0.3,2.6-1.3c-13.6-24.2-38.1-42.9-56.5-63.4
		c-20.4-22.7-39.9-46.1-58.8-70c-0.6-0.8-1.8,0.3-1.2,1C3732.6,388.6,3750.5,411.1,3769.5,432.5z"/>
	<path class="st2" d="M3752.4,495.3c-2.3-15.5-13.1-27.7-21.8-40.3c-11.3-16.5-22.5-33-33.7-49.6c-23.3-34.6-44.4-70.4-67.2-105.2
		c-0.2-0.4-0.8-0.1-0.6,0.3c16.5,34,38.8,65.8,59.7,97.3c9.1,13.7,18.4,27.3,27.6,40.9c12.2,17.9,27.4,36.3,33.7,57.2
		C3750.5,497.2,3752.6,496.7,3752.4,495.3z"/>
	<path class="st2" d="M3617.5,390.3c14.7,18.5,31.4,35.4,47.4,52.8c15.4,16.8,30.4,34.4,47.1,50c0.8,0.8,2.1-0.3,1.4-1.2
		c-28.2-34.6-62.3-64.3-90.7-98.8c-29.8-36.1-48.6-78.5-67-120.8c-0.4-0.9-1.7-0.2-1.3,0.6C3571.7,313.9,3589.5,355,3617.5,390.3z"
		/>
	<path class="st2" d="M3537.5,366.2c31.9,30.8,62.6,60.8,83.7,100.2c0.5,1,2.1,0.2,1.6-0.8c-16.6-37.2-47.6-66.4-76.5-94.2
		c-15.1-14.5-30.2-28.9-44-44.6c-15.3-17.4-26.8-36.2-38-56.3c-0.3-0.5-1-0.1-0.8,0.4C3476.6,308.7,3509.4,339.1,3537.5,366.2z"/>
	<path class="st2" d="M3412.5,302.3c17.4,19,34.7,38.2,53,56.4c35.4,35.3,77.1,63.5,110.1,101.2c0.5,0.5,1.3-0.2,0.9-0.8
		c-31.7-38.7-74-66.8-109-102.1c-35.9-36.1-67.4-76.8-104.5-111.7c-0.5-0.5-1.3,0.2-0.9,0.8C3377.7,265.7,3395.6,283.8,3412.5,302.3
		z"/>
	<path class="st2" d="M3384.5,329.6c17.6,14.4,34.6,29.4,50.5,45.6c16.2,16.5,29.7,35.9,46.3,52c0.1,0.1,0.2,0,0.2-0.1
		c-10.1-18.3-26.3-34.6-40.8-49.7c-14.1-14.8-29.1-28.7-44.8-41.9c-34.6-29.2-69.2-56.4-98.7-91c-0.8-0.9-2,0.3-1.4,1.2
		C3318.5,279.5,3353.4,304.1,3384.5,329.6z"/>
	<path class="st2" d="M3354.7,363.8c5.9,6.4,19.5,17.7,21.5,26.3c0.1,0.3,0.5,0.2,0.5,0c0.3-8-10-16.3-14.8-21.9
		c-9.5-10.8-19.6-21-30.5-30.4c-0.6-0.5-1.6,0.5-1,1.1C3338.5,347.2,3346.8,355.3,3354.7,363.8z"/>
	<path class="st2" d="M3176.4,237.5c29.3,31,61.1,59.4,90.2,90.6c0.1,0.2,0.4,0,0.3-0.2c-9.2-17.4-26-30.7-40.2-44.1
		c-15.2-14.4-30.2-29-44.6-44.1c-14.4-15.1-28.3-30.6-41.2-47c-13.5-17.1-24.2-35.7-37-53.2c-0.4-0.6-1.3,0.1-1.1,0.7
		C3119,176.3,3149.4,208.9,3176.4,237.5z"/>
	<path class="st2" d="M3068.8,145.8c12.3,12.9,23.2,26.8,32.9,41.8c10.7,16.4,17.3,34.6,27.4,51.1c0.3,0.4,0.9,0.2,0.8-0.3
		c-6.7-33-32.7-66.1-55.4-90.3c-13.6-14.5-28.1-28.2-42.3-42.1c-12.8-12.6-25.2-26.1-39-37.7c-0.5-0.4-1.2,0.4-0.8,0.9
		C3015.8,96.4,3044,119.8,3068.8,145.8z"/>
	<path class="st2" d="M3056.7,191.9c0.1,0.1,0.3,0.1,0.2-0.1c-7.2-25.1-28.5-46.7-48-63.4c-0.4-0.3-1,0.3-0.6,0.7
		C3027.2,149.6,3044.2,166.7,3056.7,191.9z"/>
	<path class="st2" d="M2958.9,138.7c0.4,0.3,0.9-0.3,0.5-0.6c-27.4-25.2-62-42.5-91.1-65.8c-0.5-0.4-1.2,0.4-0.7,0.9
		C2893.6,99.3,2928.9,117.4,2958.9,138.7z"/>
	<path class="st2" d="M4072.8,548.6c20.8-13.4,41.6-30.7,50.4-54.5c0.1-0.3-0.3-0.4-0.4-0.1c-11.2,24.3-30.5,37.6-50.6,53.8
		C4071.8,548.1,4072.3,548.9,4072.8,548.6z"/>
	<path class="st2" d="M4016.7,576.2c10.4-9.5,19.9-20,29.6-30.1c8.1-8.5,16.5-16.6,21.8-27.2c0-0.1-0.1-0.1-0.1-0.1
		c-12.1,21.9-35.3,38.4-51.9,56.8C4015.8,576,4016.3,576.6,4016.7,576.2z"/>
	<path class="st2" d="M3909.8,665.5c25.3-21.9,47.1-48.4,69.7-73c21.1-23,44.3-47.8,60.2-74.7c0.2-0.3-0.2-0.7-0.5-0.4
		c-21.3,22.2-39.5,48.4-59.3,72.1c-22.1,26.6-47.6,49.7-70.7,75.4C3908.9,665.2,3909.4,665.8,3909.8,665.5z"/>
	<path class="st2" d="M3900,610.5c30.5-16.8,57.3-41.3,81.7-65.6c0.1-0.1,0-0.2-0.1-0.1c-25.2,24.8-53.6,44.2-82.1,65.1
		C3899.2,610,3899.6,610.7,3900,610.5z"/>
	<path class="st2" d="M3707.7,747.9c47.1-28.3,87.7-68.3,128.6-104.4c19.4-17.1,38.3-34.6,57-52.6c17.4-16.8,40.4-27.6,54.6-47.6
		c0.1-0.1-0.1-0.3-0.2-0.1c-16.8,19.7-39.8,32.3-58.6,49.8c-18.5,17.1-36.9,34.3-55.8,51c-40.8,36.2-82.9,69.8-126,103.3
		C3706.9,747.5,3707.3,748.1,3707.7,747.9z"/>
	<path class="st2" d="M3865.7,522.4c1-1.3-1.1-2.9-2.2-1.7c-33.6,38-82.2,57.8-120.7,90.2c-18.9,15.9-38.1,31.4-58,46.1
		c-21.3,15.7-44.3,29.4-65,45.7c-0.6,0.5,0.1,1.3,0.8,1c23.5-12,45-28.7,66.1-44.3c21.2-15.8,41.8-32.3,62.1-49.3
		c19.7-16.5,40.5-30.5,62.4-44C3831.2,553.7,3851,540.9,3865.7,522.4z"/>
	<path class="st2" d="M3808,535.1c0.2-0.2-0.2-0.6-0.4-0.4c-28.2,20.4-53.3,44.3-82.8,63.3c-29.4,18.9-61.3,32.7-91.7,49.8
		c-0.4,0.3,0,0.9,0.5,0.8c32.8-10.2,64.4-29.8,92.9-48.4C3754.7,581.6,3786.1,561,3808,535.1z"/>
	<path class="st2" d="M3787.8,513.1c-32.5,26.3-72,42.1-106.2,66.2c-35.9,25.4-72.8,46.9-112.9,65.5c-0.1,0,0,0.1,0.1,0.1
		c39.6-16.1,77.4-37.6,112.4-61.8c19.8-13.6,39.8-25.6,61.2-36.6c16.9-8.7,34.1-17.7,47.8-31C3791.5,514.3,3789.2,512,3787.8,513.1z
		"/>
	<path class="st2" d="M3494.4,549.5c-17.3,0.9-32.3,12.2-46.7,20.4c-20.3,11.7-41,22.8-62,33.2c-19.6,9.7-39.5,18.9-59.7,27.4
		c-20.1,8.5-41.2,15.3-61,24.5c-0.5,0.2-0.2,0.9,0.3,0.8c41.1-10.6,81.3-30.9,119.1-49.4c17.5-8.6,34.7-17.6,51.7-27
		c19.3-10.7,37.1-22.5,58.7-28.5C3495.7,550.7,3495.2,549.4,3494.4,549.5z"/>
	<path class="st2" d="M3452,527.6c-22.3,4.4-44.3,14.4-65.7,21.7c-24.3,8.3-48.7,16.2-73.1,23.9c-23.6,7.5-47.3,14.7-71.1,21.5
		s-48.8,11.8-72,20.2c-0.1,0-0.1,0.3,0.1,0.2c22.1-3.2,43.8-10.3,65.1-16.3c24.7-6.9,49.3-14.3,73.8-22
		c23.6-7.4,47.2-15.1,70.7-22.8c23.9-7.8,50.3-13.8,72.7-24.9C3453.3,528.9,3453,527.4,3452,527.6z"/>
	<path class="st2" d="M3539.9,507.6c-22.4,4.7-44.3,11.1-66.2,17c-1.1,0.3-0.3,2,0.7,1.7c22.1-5.6,44.3-10.8,65.9-17.8
		C3541,508.4,3540.6,507.5,3539.9,507.6z"/>
	<path class="st2" d="M3397.8,509.3c-41.9,1.4-84.6,7.8-125.9,13.9c-40.3,6-80,14.1-119.1,24.9c-0.6,0.2-0.2,1,0.4,0.8
		c40.9-10.4,82.3-18.8,124.2-24.7c40-5.6,80.9-7.2,120.7-13.5C3399.1,510.6,3398.8,509.2,3397.8,509.3z"/>
	<path class="st2" d="M3311.5,448.2c-41.6-4.5-85.8,5.5-126.7,10.6c-46.3,5.8-91.6,6.6-138.4,4c-1.1-0.1-1.3,1.6-0.2,1.7
		c44.3,4,87.9,3,131.8-2.2c22.2-2.7,44.4-5.9,66.6-8.3c22.3-2.4,44.6-2.3,66.9-4.2C3312.5,449.7,3312.4,448.3,3311.5,448.2z"/>
	<g>
		<path class="st2" d="M3091.9,405.8c-13.8,1.2-27-1.7-40.7-3.6c-4.6-0.6-9.2-1-13.8-1.1c-2.1,0.1-4.3,0.1-6.4,0.1
			c-3.3,0.5-6.1-0.6-8.5-3.3c0,0-0.9-0.3-1.3-0.5c-0.3-0.1-0.5,0.1-0.6,0.4c0,0.3-0.1,0.5-0.1,0.8s0.2,0.5,0.4,0.6
			c0.2,0,0.3,0.1,0.5,0.1c0.6,0.1,0.7-0.8,0.1-0.9c1.5,0.3,4.1,3.6,6.4,4.1c7.1,1.8,15.8-0.1,23.2,0.9c13.7,1.8,27.2,5.4,40.9,3
			C3092.3,406.3,3092.2,405.8,3091.9,405.8z"/>
		<path class="st2" d="M3021.1,397.5L3021.1,397.5C3020.7,397.3,3020.8,397.4,3021.1,397.5z"/>
	</g>
	<path class="st2" d="M3240.7,404.6c-41.3-3.3-84.1,0.8-125.4,1.7c-0.3,0-0.2,0.4,0.1,0.4c41.3-0.1,84.4,3.2,125.4-1.1
		C3241.3,405.6,3241.3,404.7,3240.7,404.6z"/>
	<path class="st2" d="M3316.6,367.7c-16.8,1.6-32.9,5.8-49.9,6.7c-16.9,0.9-33.8,1.2-50.8,0.9c-34.2-0.6-68.1-2-102,1.8
		c-0.8,0.1-0.6,1.2,0.2,1.2c34.7-2.7,69.7-0.7,104.5-0.1c16.9,0.3,34,0.6,50.8-0.8c15.6-1.3,33.2-2,47.8-7.8
		C3318.2,369.2,3317.7,367.6,3316.6,367.7z"/>
	<path class="st2" d="M3120.8,321.4c-33.5-3.5-66.7-7-100.1-11.9v0.1c32.1,5.4,67.7,16.1,100.1,12.7
		C3121.3,322.2,3121.3,321.5,3120.8,321.4z"/>
	<path class="st2" d="M2987.4,328.5c-36.6-6.8-76.5-10.4-111.4-24.3c-0.2-0.1-0.3,0.2-0.1,0.2c35.6,13.7,74.3,17.8,111.5,24.5
		C2987.7,329,2987.7,328.6,2987.4,328.5z"/>
	<path class="st2" d="M3033.5,335.3c-13.6-2.6-27.2-4.3-41-5.1c-0.4,0-0.4,0.5-0.1,0.6c13.7,0.9,27.4,2.6,41,5
		C3033.8,335.8,3033.8,335.4,3033.5,335.3z"/>
	<path class="st2" d="M3042.7,276.8c-6-2.2-13.1-2.9-19.4-2.7c-0.2,0-0.2,0.3,0,0.3c6.3,1.1,12.9,2.4,19.3,2.9
		C3042.8,277.3,3042.9,276.9,3042.7,276.8z"/>
	<path class="st2" d="M3188,299.7c-10.7-0.8-21.2,1-32,0c-10-0.9-19.9-2.7-29.7-4.8c-21.9-4.7-43.4-10.7-65.6-13.8
		c-0.2,0-0.2,0.2,0,0.2c23.5,4.4,46.5,11.7,69.9,16.6c17.1,3.5,40.7,8.8,57.6,3.3C3188.9,300.9,3188.7,299.7,3188,299.7z"/>
	<path class="st2" d="M3123.3,259.2c-25.8-3.2-52.1-2.9-78-5.3c-25.9-2.4-51.9-5.9-77.7-9.4c-0.8-0.1-0.9,1-0.1,1.2
		c26.7,4.5,53.4,7.5,80.3,10.3c24.8,2.6,50.8,6,75.6,4.8C3124.3,260.7,3124.2,259.3,3123.3,259.2z"/>
	<path class="st2" d="M2976.3,220.6c-2.9-0.7-5.9-0.6-8.8-0.4c-0.2,0-0.2,0.4,0.1,0.4c2.9-0.1,5.8,0.3,8.8,0.3
		C2976.5,220.9,2976.5,220.6,2976.3,220.6z"/>
	<path class="st2" d="M3085.6,227.2c-32.7-2.1-65.3-2.9-98-5.7c-0.6-0.1-0.7,0.8-0.1,0.9c32,4.4,66,7.6,98.1,6.2
		C3086.5,228.6,3086.5,227.2,3085.6,227.2z"/>
	<path class="st2" d="M2982.2,187.8c-22.6-5.4-45.5-10-68.2-14.6c-0.9-0.2-1,1.2-0.1,1.4c22.7,4.8,45.5,9.8,68.3,13.8
		C2982.6,188.4,2982.6,187.9,2982.2,187.8z"/>
	<path class="st2" d="M3058.2,206.2c-19.4-1.6-37.6-9.2-56.9-11c-0.4,0-0.4,0.5-0.1,0.6c19,2.1,37.9,13.6,57,11.6
		C3058.8,207.2,3058.8,206.2,3058.2,206.2z"/>
	<path class="st2" d="M3004.7,161.3c-27.2-4.5-51.6-11.1-77.3-21.9c-24.4-10.2-49.8-17.7-73.1-30.4c-0.2-0.1-0.3,0.2-0.1,0.2
		c26.1,13.2,52.8,23.3,79.5,34.9c21.8,9.5,47,21.6,71.1,20.8C3007,164.9,3006.8,161.7,3004.7,161.3z"/>
	<path class="st2" d="M3359.8,380.5c-0.1-0.1-0.3-0.1-0.5-0.2c-0.7-0.6-1.5-1.2-2.2-1.9C3358.1,379.1,3358.9,379.8,3359.8,380.5z"/>
	<path class="st1" d="M3084.9,215.8c-6.9-4.5-13.8-9.1-20.7-13.5c0.7,0.3,1.4,0.6,2.1,0.9c1.7,0.7,3.5,1.1,5.2,1.8
		c2.1,0.9,4.1,2.2,6,3.6c6.1,4.2,11.8,7.7,17.7,11.4c2.5,1.6,5.1,3.3,7.7,5.1c0.1,0.1,0.2,0.2,0.3,0.2c3.8,2.8,8.3,7,12.6,8.6
		c0.2,0.1,0.3,0.1,0.5,0.2c0.2,0.1,0.5,0.2,0.7,0.2c0.9,0.3,1.9,0.7,2.7,1.2c1.4,0.8,2.6,2.2,3.8,3.3c3,3.1,6.4,5.7,10.1,7.8
		c4.4,2.5,9.2,4.3,13.6,6.8c0.6,0.3,1.3,0.8,2,1.2c7.6,4.8,21.7,15.5,27.8,19.6c0,0,0.1,0,0.1,0.1c35.9,24.2,41.2,26.2,56.6,37.1
		c16.2,11.6,32,24.1,50.1,32.2c5.9,2.7,12.2,3.5,18,6.4c0.1,0.1,0.2,0.1,0.3,0.2c9.4,4.6,19.2,10,28.7,15.3c0.1,0,0.2,0.1,0.3,0.2
		c10.1,5.5,19.8,10.8,28.3,14.5c13.8,11.3,31.7,15.9,48.9,21.6c4.5,1.5,8.9,3,13.2,4.8c10.7,4.4,22,8.9,32.7,13.5
		c0.1,0.1,0.2,0.1,0.3,0.1l0,0c2.6,1.1,6.8,2.6,11,4.1c0.2,0.1,0.4,0.1,0.6,0.2c4.1,1.4,8.1,2.7,10.6,3.7l0,0c3.9,1.4,5.1,3.7,9,5.1
		c6.2,2.3,5.2,0.2,11.5,2.2c10.7,3.4,21.5,7.1,32.2,10.5c0.5,0.1,0.9,0.3,1.4,0.4c3.5,1,7.7,1.8,10.7,3.1c0.1,0,0.1,0.1,0.2,0.1
		c4.6,1.9,3,0.4,8,1.9c4.1,1.3,12.4,10.6,16.6,10.4c2.8-0.1,5.2,1.8,7.9,2.1c2.6,0.3,8.8,1.6,11.4,1.9c5.8,0.7,7.6-1.7,11-1.4
		c0.8,0,1.7,0.3,2.8,0.7h0.1c2.5,1.1,5.8,2.4,8.5,2.1h0.1c0.3,0,0.7,0.1,1.1,0.2c1.6,0.6,3.7,2.1,4.8,2.4c1.8,0.4,3.1,2,4.7,3.1
		c7,5,13.8-0.3,22.2,1.5c0.5,0.1,0.9,0.2,1.4,0.3c1.4,0.3,2.7,0.6,3.9,0.8c6.2,1.3,9.8,1.9,17.8,3.4c0.7,0.1,1.4,0.3,2.1,0.4
		c0.2,0,0.4,0.1,0.6,0.1c3.8,0.8,14.2,3.7,17,4.2c2.5,0.4,4.9,1.4,7.2,2.4c8.7,3.6,17.9,7.9,26.9,6c2.5-0.5,4.8-1.5,7.3-1.6
		c5.1-0.3-1.4-0.9,3.6-1h0.1c1.1,0,6.4,0.9,9.6,1.3c0.8,0.1,1.5,0.2,1.9,0.2c0.1,0,0.3,0,0.3,0c0.9,0,1.6,0.1,2.2,0.3l0,0
		c2.8,0.7,3.7,2.8,7.2,4.3c6.7,3,12.5-1.7,19.7-1.4l0,0c15,0.8,29.4,1.5,43.8,3.5c0.1,0,0.1,0,0.2,0c0.1,0.4,0.8,0.2,1.5,0.1
		c0.4-0.1,0.8-0.1,1.1-0.1c0.2,0,0.4,0.1,0.4,0.2c7.4-3.2,4.9,0.8,12.7,3.4c3.7,1.2,4.8-1.9,15.9-2.2h0.1c2.5-0.1,5.6,0,9.3,0.4h0.1
		c9.5,0.8,6.9,3.8,16.4,5.3c3.8,0.6,9.2-4.9,13-4.9c0.3,0,0.6,0,0.9,0c1.2,0,2.3,0,3.4,0c2.1,0,4.1,0,6,0.1
		c9.8,0.2,18.6,1.1,29.9,5.3c9.8,0.5,13.1-6.9,19.2-6.7c0.9,0,2.3,0,3.8-0.2c0.1,0,0.2,0,0.2,0c4.7-0.4,11.3-1.3,14.3-0.8
		c2.2,0.4,5.6,0.1,7.7,0.9c6,2.1,12.3,1.3,20.3,1c4.3-0.1,14.8-7,19.1-6.5c11,4.3,16,5.7,27,2.6c1.3-0.3,6.3-7.7,7.5-8.1
		c0.3-0.1,1.3-0.3,2.6-0.6c3.9-0.9,10.7-2.2,11.6-2.1c13.3,1.9,24.2,1.1,33.2-8.4c8.3,0.9,4.7,3,11.4-1.6c1.2-0.9,2.4-1.8,3.9-2.2
		c1.4-0.4,3-0.3,4.5-0.4c4-0.2,7.9-1.8,10.7-4.6c1.5-1.5,2.9-3.3,5.1-3.6c1.9-0.2,3.8,1,5.7,0.7c2.4-0.3,3.9-2.9,6-4.1
		c2-1.1,4.4-1,6.7-1.2c4.4-0.5,8.6-2.7,11.5-5.9c-0.3-4.7,3.6-5.9,7.3-3.1c1.1,2.3,3.9,3.5,6.4,3.3c2.5-0.1,4.8-1.3,7-2.6
		c0.3-0.2,0.5-0.3,0.8-0.5c0.3,0.4,0.6,0.8,0.8,1.3c0.8,1.4,1.3,2.8,1.6,4.2c-15.7,7.2-32.8,11.1-48.3,18.7
		c-7.1,3.4-13.8,7.6-21.1,10.4c-6.6,2.5-13.7,3.9-20.6,5.3c-22.2,4.4-44.2,10.9-66.8,13.2c-28.7,2.9-57.5,5.7-86.2,8.6
		c-6.6,0.7-13.3,1.3-20,1.4c-8.1,0.1-16.2-0.7-24.3-1.5c-17.8-1.8-36.5-6.1-54.4-6.1c-25.2-0.1-50.5-1.6-75.6-4.4
		c-25.6-2.9-51.1-7.1-76.6-11.4c-7.7-1.3-16.5-0.7-24.2-2.3c-7-1.5-14-2.9-21.1-4.4c-27-5.6-54-11.3-80.4-19.6
		c-11.6-3.7-22.6-11.9-34.3-15.1c-19.8-5.4-39.7-10.9-59.1-17.9c-34.4-12.6-69.3-26.9-102.3-43.1c-25.9-12.6-51.5-25.7-76.8-39.3
		c-22.5-12.1-43.2-26.9-64.7-40.6C3177,278,3131.3,246.2,3084.9,215.8z"/>
	<path class="st2" d="M3064.2,202.3c-1.7-0.8-3.2-1.9-4.7-3.1C3061.1,200.2,3062.6,201.2,3064.2,202.3z"/>
	<path class="st2" d="M3003.6,162.6c11.8,7.6,23.7,15.2,35.5,22.8c3.8,2.4,7.9,5.3,12.4,6c2.5,2.8,5.1,5.6,8,7.9
		C3040.9,187,3022.3,174.8,3003.6,162.6z"/>
</g>
</svg>
