<?xml version="1.0" encoding="utf-8"?>
<!-- Generator: Adobe Illustrator 22.0.0, SVG Export Plug-In . SVG Version: 6.00 Build 0)  -->
<svg version="1.1" id="Calque_2_1_" xmlns="http://www.w3.org/2000/svg" xmlns:xlink="http://www.w3.org/1999/xlink" x="0px"
	 y="0px" viewBox="0 0 4000 936.5" style="enable-background:new 0 0 4000 936.5;" xml:space="preserve">
<style type="text/css">
	.st0{fill:#3F6E4D;}
	.st1{opacity:0.66;fill:#3F6E4D;enable-background:new    ;}
	.st2{fill:#86B77B;}
</style>
<g>
	<path class="st0" d="M2240.4,222.6c-17,19.1-34.1,38.2-51.1,57.3c2.1-2.4,4.1-4.8,6.2-7.2c10.4-11.8,21.1-24.1,32.3-36.3
		C2232,231.9,2236.2,227.2,2240.4,222.6z M2240.4,222.6c-17,19.1-34.1,38.2-51.1,57.3c2.1-2.4,4.1-4.8,6.2-7.2
		c10.4-11.8,21.1-24.1,32.3-36.3C2232,231.9,2236.2,227.2,2240.4,222.6z M2240.4,222.6c-17,19.1-34.1,38.2-51.1,57.3
		c2.1-2.4,4.1-4.8,6.2-7.2c10.4-11.8,21.1-24.1,32.3-36.3C2232,231.9,2236.2,227.2,2240.4,222.6z M2240.4,222.6
		c-17,19.1-34.1,38.2-51.1,57.3c2.1-2.4,4.1-4.8,6.2-7.2c10.4-11.8,21.1-24.1,32.3-36.3C2232,231.9,2236.2,227.2,2240.4,222.6z
		 M2240.4,222.6c-17,19.1-34.1,38.2-51.1,57.3c2.1-2.4,4.1-4.8,6.2-7.2c10.4-11.8,21.1-24.1,32.3-36.3
		C2232,231.9,2236.2,227.2,2240.4,222.6z M2240.4,222.6c-17,19.1-34.1,38.2-51.1,57.3c2.1-2.4,4.1-4.8,6.2-7.2
		c10.4-11.8,21.1-24.1,32.3-36.3C2232,231.9,2236.2,227.2,2240.4,222.6z M2240.4,222.6c-17,19.1-34.1,38.2-51.1,57.3
		c2.1-2.4,4.1-4.8,6.2-7.2c10.4-11.8,21.1-24.1,32.3-36.3C2232,231.9,2236.2,227.2,2240.4,222.6z M2240.4,222.6
		c-17,19.1-34.1,38.2-51.1,57.3c2.1-2.4,4.1-4.8,6.2-7.2c10.4-11.8,21.1-24.1,32.3-36.3C2232,231.9,2236.2,227.2,2240.4,222.6z
		 M2967.6,0.2l1.1,2.9c0,0-11,4.2-30.1,11.6c-9.6,3.7-21.2,8.3-34.4,13.8C2891,33.9,2876.1,40,2860,47c-8,3.5-16.4,7.2-25,11.1
		c-8.6,3.9-17.4,8.2-26.3,12.6c-8.9,4.5-18,9.2-27.1,14.4c-4.5,2.6-9.1,5.2-13.7,7.8c-4.6,2.8-9.2,5.6-13.8,8.4
		c-18.3,11.5-36.8,23.7-54.9,36.8c-4.6,3.2-8.9,6.6-13.5,9.8c-2.2,1.6-4.4,3.1-6.7,4.9l-6.8,5.3l-6.9,5.3l-1.8,1.3l-0.2,0.2
		c0,0,0,0-0.1,0.1l-0.3,0.2l-0.8,0.7l-3.3,2.7c-4.5,3.5-8.8,7.1-13.2,10.9c-17.4,14.8-34.6,30.4-52.4,45.4
		c-8.9,7.4-17.9,14.8-27.1,21.8c-9.2,6.9-18.9,13.6-28.3,19.6c-19.3,12-38.8,21.6-57,30.4s-35.2,16.8-50.5,25
		c-15.2,8.1-28.6,16.3-39.9,24.3c-0.5,0.3-0.9,0.7-1.4,1c-10.6,7.7-19.3,15.1-26.4,21.5c-3,2.8-5.8,5.3-8.2,7.7
		c-0.2,0.1-0.3,0.3-0.5,0.4c0.6,0,1.3,0,1.9,0c0,0,0,0,0.1,0c2.1,0,4.2,0.1,6.3,0.1c2.5,0,4.9,0.1,7.4,0.1
		c5.7,0.1,11.5,0.1,17.2,0.2c2.7,0,5.5,0.1,8.3,0.1c3.9-3.1,9.8-7.8,17.7-13.7c7.4-5.5,16.5-12.1,27-19.4
		c8.3-5.7,17.4-11.9,27.4-18.5c2.7-1.8,5.5-3.7,8.3-5.6c13.2-8.7,27.4-18.2,42.4-28.3c15.1-10,30.9-20.6,47.5-31.4
		c16.5-10.7,33.7-21.7,51.4-32.5c8.8-5.4,17.7-10.9,26.7-16.2s18-10.8,27.1-16c18.2-10.5,37-20.2,55.8-29.2
		c18.9-9,37.5-17.8,55.5-26.4c18.1-8.6,36-16.6,53.3-23.1c8.8-3.2,17.4-6.1,25.8-8.5c4.4-1.3,8.2-2.3,12.5-3.3
		c4.2-1,8.3-1.9,12.3-2.7c16-3.2,30.9-4.7,44.3-4.9c13.3-0.2,24.9,0.7,34.3,2.1c9.4,1.3,16.7,3.3,21.6,4.6c4.9,1.5,7.5,2.3,7.5,2.3
		l-0.8,2.9c0,0-2.6-0.6-7.5-1.6c-4.9-0.9-12.1-2.2-21.3-2.7c-9.2-0.6-20.4-0.7-33.1,0.8c-6.4,0.7-13.2,1.7-20.2,3.2
		c-6.9,1.4-14.1,3.2-21.5,5.4c-3.7,1.1-7.5,2.3-11.2,3.6s-7.9,2.9-11.6,4.4c-7.8,3.1-15.6,6.7-23.6,10.6
		c-16,7.8-32.2,17.1-48.6,27.7c-16.3,10.6-32.8,22.7-49.8,34.6c-17,11.9-34.5,23.5-52.6,34.3c-9,5.4-18.2,10.6-27.3,15.8
		c-9.1,5.2-18.2,10.3-27.2,15.4c-18.1,10.2-36.1,19.8-53.6,29s-34.6,17.8-50.7,26.1c-16.2,8.3-31.4,16-45.6,23.2
		c-14.1,7.2-27,13.8-38.6,19.4s-21.8,10.4-30.3,14.2c-4.2,1.8-7.9,3.5-11.2,4.9c10.3,0.5,20.6,0.9,31,1.5c5.1,0.2,10.2,0.6,15.3,1
		c6.7-9.1,14.9-17.2,23.6-24.4c10.8-8.8,22.5-16.4,34.5-23.2c11.9-7,24.3-13,36.3-19.1l18.3-9.1c3-1.5,6.3-3,9.6-4.5l5.7-2.5
		l3.8-1.7c25.8-10.7,52.5-19,78.6-26.6c13.1-3.9,26-7.6,38.6-11.6c12.7-3.9,25.2-8.2,37.4-12.9c12.1-4.7,24.1-9.8,35.7-15.6
		c5.8-2.8,11.5-5.8,17.2-9c2.8-1.6,5.6-3.2,8.4-4.8l4.5-2.7l4.5-2.5l8.8-4.9c3.2-1.7,6.5-3.2,9.7-4.8c3.3-1.6,6.6-3.1,9.9-4.4
		c3.2-1.4,6.5-2.7,9.8-4.1c13.3-5,26.9-9.3,40.8-12.3c13.8-3.2,27.8-5.4,41.8-7l10.5-1.1c1.7-0.2,3.5-0.3,5.2-0.4
		c1.8-0.1,3.5-0.2,5.3-0.4c7-0.5,14-0.6,21-0.8c14,0,27.9,0.4,41.8,1.8c10.6,0.9,21,2.3,31.4,4l0.1-0.3l9.9,2l-0.4,3
		c-13.7-0.6-27.4-1.1-41-0.5c-13.6,0.4-27.1,1.6-40.5,3.3c-6.7,1-13.3,1.8-19.9,3.3c-6.6,1.2-13.1,2.7-19.5,4.4
		c-3.2,0.7-6.4,1.8-9.6,2.7c-3.2,1-6.4,1.8-9.5,2.9c-6.2,2.2-12.5,4.2-18.5,6.9c-12.3,4.7-23.9,10.5-35.5,16.2
		c-5.6,3.2-11.6,5.9-17,9.3c-1.3,0.8-2.7,1.6-4.1,2.4l0,0c-1.3,0.8-2.7,1.5-4.1,2.3l-4.9,3c1.4-0.6,2.9-1.2,4.4-1.8
		c11.8-4.7,23.9-9.1,36-13.1c12.3-4.1,24.6-7.7,37.1-10.8c12.5-3.2,25.2-5.8,37.9-8c12.8-2,25.7-3.5,38.7-4.3
		c12.9-0.7,26-0.7,39,0.2c2.6,0.2,5.2,0.4,7.9,0.7c10.3,1,20.5,2.7,30.6,4.9h0.1h0.1l-0.3,3l0,0c-12.8,0.2-25.3,0.9-37.8,2
		c-12.5,1.4-24.8,2.9-37,5.2c-12.2,2.4-24.3,4.8-36.3,8c-11.9,3.2-23.8,6.5-35.6,10.4c-11.7,3.8-23.5,7.8-34.9,12.1
		c-11.7,4.4-23.2,8.8-34.7,13.6c-11.5,4.7-22.9,9.7-34.4,14.7l-34.3,15.2l-34.6,15.2c-11.6,4.9-23.3,9.8-35.1,14.6
		c-5.9,2.4-11.8,4.6-17.9,6.9c-6,2.2-11.7,4.3-17.9,6.5c-12,4.2-24.1,8.2-36.2,12.1l-36.1,11.3c-9.2,2.9-18.3,5.8-27.3,8.8
		c-2.8,0.9-5.6,1.9-8.4,2.8c-11.8,4-23.4,8.6-35.1,12.7c-6.1,2.1-12.2,4.2-18.4,6c2.6,0.3,5.2,0.6,7.8,0.9
		c7.4,0.8,14.8,1.7,22.1,2.5c10.7,1.7,21.4,3.2,32.1,4.8c0-0.6,0-1.1,0.2-1.7l-0.5-1l2-1l0.6-0.3l7.4-3.5
		c5.8-5.8,12.6-10.9,19.8-15.1c10.6-6.5,22.1-11.5,33.5-15.9s22.7-8.4,34-12.5c11.4-4,22.7-8.1,34.1-12c11.4-3.9,22.8-7.8,34.3-11.6
		c11.4-3.8,22.9-7.5,34.3-11.2c11.5-3.7,23-7.2,34.5-10.9l34.5-10.5c11.5-3.5,23.1-6.9,34.7-10.3c11.5-3.4,23.2-6.6,34.8-9.9
		c11.6-3.2,23.2-6.3,35-9.3c11.7-3,23.5-5.8,35.5-8.5c6-1.3,11.9-2.6,17.9-3.7c6-1.2,12-2.4,18-3.4c12.1-2.1,24.2-4,36.4-5.4
		c24.4-2.9,49.1-4.3,73.8-3l0.4,3c-4,1.2-7.9,2.3-11.9,3.4c-1.9,0.5-3.8,1-5.6,1.6c-5.8,1.6-11.6,3.3-17.4,5
		c-11.6,3.4-23,6.8-34.5,10.3l-34.2,10.7l-34.1,10.9l-34.2,10.9l-34.4,10.7c-11.6,3.4-23.1,6.9-34.7,10.1
		c-11.6,3.2-23.2,6.6-34.8,9.8l-34.8,9.5c-11.7,3-23.3,6.2-35,9.2s-23.4,6-35.1,8.8c-11.7,2.9-23.4,5.8-35.2,8.5
		c-11.7,2.8-23.5,5.4-35.4,8.1l-35.4,7.7c-0.7,0.2-1.5,0.3-2.2,0.5c-10.8,2.5-21.5,5.2-31.7,8.8c-6.1,2.3-12.1,5-17.7,8.2
		c-3.3,1.8-6.4,3.8-9.5,6c9.4,1.5,18.9,3.1,28.2,4.9c5.6,1.1,11.1,2.1,16.7,3.1c0.2,0,0.4,0.1,0.6,0.1v-0.1c0,0,1.8,0.3,5.2,1.1
		c3.6,0.7,7.2,1.4,10.8,2.3c0.7,0.2,1.3,0.3,2.1,0.5c3.5,0.7,6.9,1.5,10.4,2.3c4.2-1.9,10.2-4.5,17.9-7.8c4-1.6,8.4-3.5,13.2-5.4
		c4.9-1.8,10.1-3.9,15.7-6c5.6-2.1,11.6-4.3,18-6.6c6.3-2.3,13.1-4.5,20.1-6.8c14-4.8,29.3-9.6,45.4-14.7
		c16.2-5.1,33.4-10,51.2-15.3c8.9-2.5,18-5,27.2-7.6c9.2-2.5,18.6-4.8,28.1-7c18.9-4.7,38.4-8.5,57.8-12.3
		c19.5-3.5,39.1-6.8,58.4-9.5c9.7-1.3,19.3-2.8,28.8-4c9.5-1.1,18.9-2.2,28.1-3.4c18.5-2,36.4-3.8,53.5-5c8.5-0.6,16.8-1.2,24.8-1.8
		c8-0.7,15.8-0.8,23.2-1.2c7.5-0.3,14.6-0.6,21.4-0.9c6.8-0.1,13.3-0.2,19.4-0.3c6.1-0.1,11.7-0.2,17-0.2c5.3-0.1,10.1,0.1,14.5,0.1
		c17.4,0.2,27.4,0.6,27.4,0.6l0.3,3.1c0,0-1.2,0.3-3.6,0.6c-4.3,0.8-12.2,2.2-23.2,4c-17,2.8-41.2,6.9-70.4,11.8
		c-14.5,2.5-30.2,5.2-46.9,8.1c-16.6,3-34,6.2-52.1,9.4c-18.1,3.5-36.8,6.8-55.7,10.6c-18.9,3.5-38,7.6-57.3,11.2
		c-19.2,4-38.4,7.4-57.3,11.2c-19,3.4-37.7,6.8-55.8,10.2c-9,1.7-17.9,3.5-26.6,5.2c-8.7,1.7-17.3,3.3-25.5,5
		c-16.5,3.4-32.1,6.7-46.5,10c-14.4,3.2-27.6,6.1-39.2,8.7c-11.8,2.5-22,4.8-30.4,6.6c-3.4,0.7-6.4,1.3-9.2,1.9
		c2.9,0.7,5.8,1.3,8.6,1.9l8.1,1.9l8.1,2.1c5.4,1.4,10.7,2.8,16,4.2c6.7,1.8,13.5,3.5,20.1,5.3c0.3-0.3,0.7-0.5,1-0.7
		c3.3-2.4,8.4-5.6,15.3-8.3c6.8-2.8,15.6-4.8,25.5-7.7c10-2.9,21.2-5.8,33.5-9.1c12.2-3.3,25.6-6.6,39.8-10.1
		c14.1-3.5,29.1-6.9,44.6-10.4c10.5-2.2,21.3-4.6,32.2-6.8c5.2-1.1,10.5-2.1,15.8-3.2c16.3-3.4,33.1-6.3,49.7-9.3
		c16.8-2.7,33.5-5.7,50-8c16.5-2.6,32.9-4.6,48.6-6.7c7.9-1,15.7-1.8,23.3-2.7c7.6-0.8,15.1-1.8,22.3-2.4c14.6-1.3,28.3-2.6,41-3.4
		c6.4-0.5,12.5-0.9,18.3-1.3c5.8-0.3,11.3-0.6,16.5-0.8c10.4-0.5,19.4-1,26.8-1.1c14.9-0.3,23.4-0.4,23.4-0.4l0.1,1.4l0.1,1.6
		c0,0-8.4,0.7-23.2,1.9c-7.4,0.6-16.4,1.5-26.6,2.4c-5.1,0.5-10.6,1.1-16.4,1.6c-5.7,0.7-11.8,1.4-18.1,2.1
		c-12.6,1.4-26.2,3.3-40.6,5.2c-14.4,2-29.6,4.2-45.2,6.6c-15.6,2.6-31.7,5.2-48.1,8.1c-16.4,2.7-32.9,6.1-49.5,9.2
		c-16.5,3.5-33,6.6-49.2,10.2c-16.2,3.4-32.1,7.1-47.5,10.6c-7.7,1.7-15.3,3.7-22.6,5.5c-7.4,1.8-14.6,3.5-21.6,5.2
		c-14,3.6-27.3,6.9-39.5,10.2c-12.2,3.2-23.3,6.2-33.1,9.1c-4.9,1.4-9.5,2.7-13.7,3.9c-3.3,0.9-6.3,1.8-9.2,2.5
		c1.7,0.6,3.6,1.2,5.7,1.8c5.6,1.7,12.2,4.1,19.7,7.2c1.5,0.6,3,1.2,4.6,1.8c4.1,1.3,8.2,2.7,12.3,4.1l-1-2.2c0,0,1.9-1.2,5.5-3.5
		c3.6-2.1,8.7-5.5,15.9-8.9c2-1,4.1-2,6.4-3.1c1.7-0.9,3.6-1.7,5.5-2.5c4.4-1.8,9.1-3.9,14.3-5.8c5.1-1.9,10.7-3.8,16.5-5.7
		c6-1.8,12.2-3.5,18.8-5.2c13.2-3.2,27.6-6.1,43-8.2c15.4-2.3,31.6-4.3,48.5-5.9c16.8-1.6,34.2-2.9,51.9-3.9s35.6-1.7,53.5-2.3
		c9-0.3,17.9-0.7,26.8-1c9-0.2,17.8-0.4,26.7-0.6c6.5-0.1,13-0.2,19.4-0.3c11-0.2,21.9-0.2,32.5-0.3c16.9,0.2,33.1,0.4,48.6,1
		c15.5,0.5,30.1,1.3,43.6,2.2c13.5,1,25.8,2.1,36.8,3.2c10.9,1.2,20.4,2.3,28.3,3.5c7.8,1,13.9,2.2,18.1,2.8c4.2,0.6,6.4,1,6.4,1
		l-0.3,3c0,0-2.2-0.2-6.5-0.4c-4.2-0.2-10.3-0.7-18.2-1c-3.9-0.2-8.2-0.4-13-0.6c-4.7-0.2-9.8-0.4-15.2-0.5
		c-10.9-0.3-23.2-0.6-36.5-0.7c-13.4,0-27.9,0.1-43.2,0.3c-15.3,0.2-31.5,0.8-48.2,1.5s-33.9,1.4-51.5,2.5
		c-17.6,1-35.3,2.1-53.2,3.1c-17.8,1.1-35.6,2.2-53.1,3.5c-17.5,1.4-34.6,2.5-51.1,4.3c-16.5,1.7-32.4,3.7-47.3,6.1
		c-15,2.3-28.9,5-41.8,7.3c-6.5,1.2-12.7,2.4-18.5,3.5c-5.9,1.2-11.4,2.4-16.7,3.4c-10.5,2.2-19.6,4.2-27.2,5.8
		c-7.5,1.5-13.6,3.1-17.7,3.9c-2.5,0.6-4.2,0.9-5.3,1c1.6,0.5,3.2,1.1,4.8,1.5c7.8,2.7,15.5,5.4,23.2,8.1v-0.1c0,0,2-0.5,5.7-1.6
		c3.8-1.1,9.2-2.6,16.2-4.4c7-1.9,15.5-3.9,25.4-6.2c4.9-1.1,10.2-2.3,15.8-3.5s11.4-2.2,17.6-3.4c6.1-1.1,12.5-2.4,19.1-3.5
		c6.7-1,13.6-2,20.6-3.1c14.1-2.3,29.2-3.8,44.7-5.6c15.6-1.5,31.7-3,48.1-3.8c8.2-0.6,16.5-1,24.8-1.4l0,0c8.3-0.4,16.6-0.7,25-1
		c16.7-0.2,33.5-0.6,49.9-0.2c16.5,0,32.7,0.8,48.4,1.4c7.8,0.5,15.5,0.9,23.1,1.4c7.5,0.4,14.9,0.9,22,1.7
		c7.2,0.6,14.2,1.2,20.9,1.8c6.7,0.6,13.2,1.4,19.5,2.1c6.3,0.8,12.2,1.5,17.9,2.2c5.7,0.8,11.1,1.6,16.1,2.3c5,0.7,9.8,1.4,14.2,2
		s8.3,1.4,12,2c14.4,2.5,22.7,4,22.7,4l-0.4,3c0,0-8.3-0.9-22.8-2.3c-3.6-0.4-7.6-0.9-12-1.2c-4.4-0.4-9.1-0.8-14.2-1.3
		c-5.1-0.4-10.4-0.9-16.1-1.4c-5.7-0.3-11.7-0.7-17.9-1.1c-6.2-0.3-12.7-0.9-19.4-1.3c-6.7-0.3-13.6-0.7-20.8-1
		c-7.1-0.4-14.5-0.6-21.9-0.8c-2.6-0.1-5.2-0.2-7.9-0.2c-4.9-0.2-10-0.3-15-0.4c-15.5-0.1-31.6-0.4-48-0.2
		c-16.3-0.1-32.9,0.7-49.4,1.1c-16.5,0.8-33.1,1.4-49.3,2.7c-16.3,0.9-32.2,2.7-47.7,3.9c-7.7,0.8-15.3,1.6-22.7,2.4
		c-3.7,0.4-7.4,0.7-11,1.1s-7.2,0.8-10.7,1.2c-14.1,1.7-27.4,3.2-39.7,4.8c-6.2,0.8-12.1,1.5-17.7,2.2c-5.6,0.8-10.9,1.5-15.9,2.2
		s-9.7,1.3-14,1.9c-4.3,0.7-8.3,1.2-11.9,1.8c-7.2,1.1-12.9,1.8-16.7,2.3c-0.2,0-0.2,0-0.3,0c9.5,3.5,18.9,6.8,28,10.2
		c7.8,3,15.5,5.8,23.1,8.8l-0.2-0.7c0,0,1.6-1.4,4.9-3.5c1.6-1,3.7-2.2,6.3-3.4c2.5-1.3,5.5-2.5,8.9-3.6c6.8-2.4,15.4-4,25.3-5.3
		c9.9-1.4,21-2.6,33.2-3.4c12.2-0.9,25.4-1.3,39.3-1.6c13.9-0.2,28.5-0.4,43.7-0.3l0,0c15.2,0,30.8,0.2,46.7,0.4
		c15.9,0.2,32.1,0.5,48.3,1.2c32.3,1.1,64.6,2.8,94.9,4.7c15.1,1,29.8,2,43.7,3.1c13.9,1.2,26.9,2.4,39,3.6
		c12.1,1.1,23.2,2.4,33,3.4c0.3,0,0.6,0.1,0.8,0.1c9.5,1.1,17.7,2,24.5,2.8c14.1,1.8,22.1,2.8,22.1,2.8l-0.2,3c0,0-8-0.5-22.1-1.6
		c-7.1-0.5-15.6-1-25.4-1.7c-9.8-0.6-20.9-1.4-33-2c-12.1-0.7-25.2-1.3-39-2c-13.8-0.6-28.4-1.2-43.5-1.9c-30.2-1.2-62.4-2-94.7-2.4
		c-16.1-0.1-32.2-0.2-48.1-0.4c-15.8,0-31.4,0.1-46.5,0.2c-15.1,0.2-29.7,0.4-43.5,0.7c-13.8,0.3-26.7,0.9-38.6,1.7
		c-11.9,0.9-22.7,2-32.2,3.5c-9.5,1.3-17.6,3.1-24.5,3.9s-12.3,1.1-16.2,1.2c-0.3,0-0.5,0-0.8,0c23.1,8.9,45.1,17.8,66.1,26.3
		c2.3-1,6.3-2.8,11.9-4.7c4.6-1.6,10.3-3.3,16.9-4.8c6.7-1.7,14.2-3.1,22.5-4.6c8.2-1.6,17.2-3.1,26.7-4.6c9.5-1.6,19.6-3,30-4.4
		c10.5-1.3,21.2-2.7,32.2-3.6c11-1.2,22.2-1.9,33.4-2.8c11.3-0.5,22.4-1.2,33.5-1.4c11.1-0.3,22-0.3,32.5-0.2
		c5.2,0,10.5,0.2,15.5,0.3c5.1,0.2,10,0.2,14.9,0.6c9.7,0.6,18.8,1.1,27.2,2c4.2,0.4,8.2,0.7,12.1,1.1c3.8,0.5,7.4,0.9,10.8,1.3
		c6.8,0.9,12.8,1.5,17.6,2.5c9.8,1.6,15.3,2.6,15.3,2.6l-0.4,3c0,0-5.6-0.6-15.3-1.8c-4.9-0.6-10.8-1.1-17.6-1.7
		c-3.4-0.3-7-0.6-10.8-0.9c-3.8-0.2-7.8-0.4-12-0.6c-8.4-0.6-17.5-0.7-27-0.9c-4.8-0.2-9.7-0.2-14.7-0.2s-10.2-0.1-15.4,0.1
		c-10.5,0.2-21.2,0.4-32.2,1c-10.9,0.4-22,1.3-33.1,2.1c-11.1,1-22.2,1.9-33,3.2c-10.9,1.1-21.5,2.6-31.8,4
		c-10.3,1.5-20.3,2.9-29.7,4.5s-18.2,3.1-26.4,4.7c-4.1,0.8-8,1.6-11.7,2.3c-3.7,0.8-7.2,1.6-10.5,2.1c-6.6,1.3-12.5,2-17.4,2.7
		c-2,0.3-3.8,0.4-5.4,0.6l0.1,0.1c17.2,7,33.6,13.7,49.1,20c0.6-0.4,4.8-2.9,12.1-6c4-1.7,8.9-3.4,14.7-5.1c2.8-0.8,6-1.6,9.2-2.4
		c3.3-0.7,6.7-1.4,10.4-2c7.2-1.4,15.1-2.6,23.5-3.9c8.3-1.3,17.2-2.4,26.4-3.6c9.2-1.1,18.7-2.1,28.4-2.8c3.8-0.3,7.6-0.6,11.4-0.9
		c3.7-0.2,7.4-0.4,11-0.6c2.3-0.1,4.6-0.2,6.9-0.4c9.9-0.2,19.7-0.6,29.5-0.4c9.7-0.1,19.3,0.2,28.6,0.7c4.4,0.2,8.7,0.5,13,0.8
		c0.2,0,0.5,0,0.7,0c4.4,0.3,8.8,0.6,13,1.1c8.5,0.8,16.5,1.7,23.8,2.8c3.7,0.5,7.2,1,10.6,1.5c3.3,0.6,6.5,1.2,9.4,1.7
		c5.9,1.1,11.1,2,15.3,3.1c7.4,1.7,12,2.8,13.1,3c0.1,0,0.1,0,0.2,0l-0.5,3c0,0-4.9-0.7-13.4-1.7c-4.2-0.6-9.4-1.2-15.3-1.8
		c-3-0.3-6.1-0.6-9.5-1c-3.3-0.2-6.8-0.5-10.5-0.7c-7.3-0.7-15.2-0.9-23.6-1.3c-4.2-0.2-8.5-0.2-12.9-0.3c-4.4-0.1-8.9-0.2-13.4-0.2
		c-9.1,0.1-18.6,0-28.1,0.5c-9.6,0.2-19.3,1-29,1.5c-9.7,0.8-19.4,1.4-28.8,2.5c-9.5,0.8-18.8,2.2-27.8,3.2
		c-9,1.2-17.7,2.4-25.9,3.8c-8.2,1.3-15.9,2.6-23.1,4c-7.1,1.4-13.7,2.5-19.5,3.3s-11,1.2-15.4,1.5c-2.5,0.2-4.6,0.2-6.5,0.2
		c8.7,3.5,17.1,7,25.2,10.2l1.1-1.1c0,0,1.4,0.6,3.8,1.7v-0.2c0,0,1.2-0.4,3.3-0.9s5.3-1.3,9.2-2.1c7.9-1.5,19.4-3.2,33.2-3.8
		c6.9-0.4,14.4-0.5,22.3-0.6c4.7-0.1,9.4-0.2,14.4-0.3c3.5-0.1,7-0.1,10.5-0.2c8.7,0,17.6-0.1,26.7,0.1c9.1,0.1,18.3,0.4,27.5,0.6
		c9.3,0.3,18.5,0.7,27.6,1.3c9.1,0.5,18,1.2,26.7,1.9c8.6,0.8,17,1.6,24.9,2.5s15.4,1.9,22.2,3c3.5,0.5,6.7,1,9.8,1.5
		c3.2,0.6,6.1,1.1,8.9,1.6c5.6,1,10.4,1.9,14.4,2.8c7.9,1.7,12.5,2.7,12.5,2.7l-0.5,3c0,0-4.6-0.6-12.6-1.4
		c-3.9-0.5-8.8-0.9-14.3-1.5h-0.1c-5.6-0.6-11.9-1.1-18.7-1.6c-6.9-0.6-14.3-1-22.1-1.5c-7.9-0.5-16.2-0.8-24.8-1.2
		c-8.6-0.3-17.5-0.7-26.5-0.8c-9-0.3-18.2-0.2-27.3-0.4c-9.2,0-18.3-0.1-27.4,0.1c-9,0.1-17.9,0.2-26.5,0.3
		c-8.6,0.2-16.9,0.4-24.8,0.6c-7.9,0.3-15.3,0.5-22.2,0.7c-6.8,0.1-13.2,0-18.8-0.2s-10.5-0.7-14.6-1c-2.4-0.2-4.4-0.5-6.1-0.7
		l0.2,0.1c23.2,9.1,43.6,17.1,60.8,23.4c0.9,0.4,1.8,0.7,2.7,1l0.1-1.5c0,0,4.1-1.5,11.2-2.5c3.5-0.5,7.9-0.9,12.8-0.9
		c3,0,6.3,0,9.7,0.3c2.2,0.2,4.5,0.4,6.9,0.7c12.1,1.3,26.1,3.1,41.2,5.2c7.5,1,15.3,2.3,23.2,3.7c7.8,1.2,15.7,2.8,23.5,4.2
		c0.1,0,0.2,0,0.3,0.1c7.9,1.6,15.9,3.2,23.7,5c7.8,1.7,15.4,3.5,22.8,5.4c11.8,3.1,23,6.1,32.9,9.2c2.5,0.8,4.9,1.5,7.2,2.3
		c2.9,1,5.7,1.9,8.3,2.7c0.1,0,0.2,0.1,0.3,0.1c2.5,0.8,4.9,1.7,7.1,2.5c4.7,1.7,8.8,3.1,12.1,4.5c6.6,2.6,10.4,4.1,10.4,4.1l-1,2.9
		c0,0-3.9-1-10.8-2.7c-6.9-1.7-16.6-4-28.4-6.7c-5.9-1.4-12.3-2.6-19-4c-6.8-1.4-14-2.8-21.3-4.2c-7.4-1.3-15-2.8-22.9-4.1
		c-7.8-1.4-15.7-2.5-23.6-3.8c-8-1.2-15.9-2.5-23.7-3.5c-5.1-0.7-10.1-1.4-15.1-2c-1.8-0.2-3.6-0.5-5.4-0.7c0.8,0.3,1.7,0.6,2.5,1
		c5.8,2.3,12,5.1,18.5,7.9c6.5,2.9,13.3,6.1,20.4,9.4c7,3.3,14.3,6.9,21.5,10.6c7.3,3.7,14.6,7.7,22,11.5
		c14.6,8,28.9,16.4,42.1,24.5c6.6,4.2,12.9,8.2,18.9,12.2c6,3.8,11.5,7.7,16.6,11.3c5.1,3.5,9.7,6.9,13.8,9.9s7.6,5.6,10.4,7.8
		c5.7,4.5,9,7.1,9,7.1l-0.6,0.8l-1.1,1.7c0,0-14.5-7.8-36.3-19.5c-5.4-2.9-11.3-6-17.6-9.3c-6.2-3.4-12.9-6.7-19.7-10.2
		c-6.9-3.4-13.9-7.2-21.1-10.7c-7.2-3.6-14.6-7.1-21.9-10.7c-7.4-3.5-14.7-7.1-22.1-10.4c-7.3-3.3-14.5-6.6-21.5-9.8
		c-7-3.1-13.8-6.1-20.2-8.9c-6.5-2.8-12.6-5.4-18.2-7.8c-5.6-2.5-10.6-5.2-15-7.7c-2.6-1.6-4.9-3-7.1-4.4l-0.2,0.5
		c0,0-1.1-0.4-3.1-1c2,1.3,4,2.6,6.1,4.1c3.5,2.5,7.2,5.4,11.2,8.4c3.9,3,8.1,6.2,12.4,9.4l1.2,0.9c8.3,6.3,17.1,12.8,25.9,19.4
		c18.5,13.8,37.1,27.5,51,37.8s23.2,17.4,23.2,17.4l-1.3,2l-0.4,0.6c0,0-2.5-1.4-7-3.8c-2.2-1.2-4.9-2.8-7.9-4.5
		c-3.1-1.7-6.5-3.7-10.3-6c-7.5-4.4-16.1-9.8-25.3-15.6c-9.1-5.9-18.9-12.2-28.4-18.8c-9.5-6.6-19.1-13.2-27.9-19.7
		c-8.7-6.5-17-12.4-23.8-17.9c-6.7-5.5-11.8-10.8-15.1-14.8c-2.2-2.6-3.6-4.6-4.4-5.7c-3.2-1.1-6.8-2.3-10.7-3.6
		c-7.4-2.6-15.9-5.3-25.4-8.7c-12.7-4.5-27.2-9.8-43.3-15.7l0.3,0.2c3.7,3,7.5,6.4,11.6,9.9c4,3.6,8.5,7.2,13,11
		c2.7,2.2,5.5,4.4,8.4,6.7c1.9,1.5,3.9,3.1,5.8,4.6c4.8,3.9,9.9,7.7,14.9,11.5c5.1,3.8,10.2,7.5,15.2,11.2c5.1,3.7,10.1,7.1,15,10.6
		c4.9,3.4,9.6,6.7,14.1,9.7c4.6,3,8.9,5.9,12.8,8.6c16,10.6,26.8,17.6,26.8,17.6l-1.4,2.7c0,0-2.9-1.2-8.2-3.4
		c-2.4-1-5.1-2.2-8.2-3.7c-0.4-0.1-0.7-0.3-1-0.4c-3.6-1.6-7.6-3.6-11.9-5.7c-4.4-2.1-9-4.5-13.9-7.1s-10-5.5-15.3-8.4
		c-5.2-3.1-10.6-6.2-16-9.7c-5.5-3.3-10.9-6.8-16.2-10.4c-5.3-3.7-10.7-7.3-15.8-11.1c-5.2-3.7-10.1-7.6-14.9-11.3
		c-4.7-3.9-9.3-7.5-13.5-11.1c-4.3-3.6-8.3-7-11.7-10.5c-3.5-3.4-6.4-6.8-8.8-10c-2.5-3.1-4.4-6-5.9-8.5c-0.7-1.1-1.2-2.1-1.7-3
		c-9.3-3.5-19-7.2-29-11.1c-3.3-1.3-6.6-2.6-10-3.9c-5.4-2.1-10.8-4.2-16.4-6.3c-0.4-0.2-0.8-0.3-1.2-0.5c0.1,0.1,0.3,0.2,0.4,0.4
		c1.4,1.2,2.8,2.4,4.2,3.8c0.4,0.4,0.9,0.9,1.4,1.3c5.5,5.2,11.6,10.7,18,16.5s13.3,11.8,20.4,18.1c7.3,6.1,14.5,12.6,22.3,19
		c7.7,6.4,15.4,12.9,23.2,19.3c7.9,6.3,15.6,12.8,23.5,19c7.8,6.4,15.6,12.3,23,18.3c15.1,11.7,29.2,22.7,41.2,32.1
		c10.4,8.1,19.3,15,26.1,20.3c1.1,0.9,2.2,1.7,3.2,2.5c7.1,5.5,11,8.8,11,8.8l-1.6,2.6c0,0-4.6-2.3-12.7-6.3
		c-4.1-2-8.8-4.6-14.4-7.5c-2.8-1.5-5.7-3-8.8-4.7c-3-1.8-6.3-3.6-9.6-5.5c-6.7-3.8-14-7.9-21.6-12.5c-7.6-4.5-15.5-9.4-23.7-14.5
		c-16.3-10.3-33.4-21.9-50.2-33.9c-8.3-6.2-16.7-12.2-24.7-18.4c-8.1-6.2-15.9-12.5-23.4-18.6c-7.4-6.3-14.7-12.1-21.3-18.1
		c-6.7-5.9-12.9-11.5-18.6-16.8c-5.7-5.2-10.5-10.5-14.3-15.7c-3.8-5-6.7-9.9-8.7-14.2c-1.8-3.7-3-6.8-3.8-9.3
		c-0.2-0.5-0.3-1-0.5-1.5c-11.2-4.3-22.7-8.7-34.5-13.2c-0.1,0-0.1,0-0.1-0.1c-11.8-4.5-23.9-9-36.4-13.5c-5.9-2.2-12-4.3-18.1-6.5
		c-1.6-0.6-3.2-1.1-4.8-1.7c-3.3-1.2-6.5-2.3-9.8-3.4c0.4,0.2,0.8,0.4,1.1,0.6c1.2,0.7,2.4,1.4,3.5,2.1c4,2.4,8.1,4.8,12.2,7.4
		c10.4,6.8,21.3,13.6,32,21.2c10.8,7.3,21.5,15.2,32.2,23.1c10.5,8.1,21,16.2,31,24.6c10.2,8.2,19.6,16.8,29,25
		c9.1,8.5,17.9,16.5,25.9,24.7c8.1,8,15.7,15.5,22.3,22.9c3.4,3.6,6.6,7.1,9.6,10.4c3,3.4,5.8,6.6,8.5,9.6
		c5.3,6.1,9.9,11.4,13.4,15.8c7.2,8.9,11.2,14.1,11.2,14.1l-2.2,2.1c0,0-5-4.4-13.5-12.1c-0.9-0.8-1.8-1.7-2.7-2.5
		c-3.7-3.4-7.9-7.2-12.7-11.3c-3-2.7-6.1-5.5-9.4-8.5c-3.4-2.9-6.9-6-10.7-9.2c-3.7-3.2-7.5-6.5-11.6-10c-4-3.4-8.2-6.9-12.5-10.5
		c-4.2-3.7-8.8-7.3-13.3-10.9c-4.6-3.7-9.3-7.5-14-11.3c-9.7-7.5-19.5-15.4-29.8-23c-10.1-7.8-20.8-15.3-31.3-23
		c-10.8-7.3-21.3-15-32-21.9c-10.5-7.2-21.2-13.9-31.5-20.4c-20.7-13-39.8-25.1-56.4-35.5c-8.2-5.3-15.8-10.1-22.5-14.5
		c-2.9-1.9-5.6-3.7-8.1-5.3c-0.9-0.3-1.8-0.5-2.7-0.8c-0.1,0-0.2-0.1-0.3-0.1c-6.3-1.7-12.6-3.5-19-5.3c-1.4-0.4-2.8-0.8-4.2-1.2
		c-3.9-1.1-7.8-2.2-11.7-3.2c-0.1,0-0.3-0.1-0.4-0.1c-6.4-1.6-12.9-3.1-19.3-4.7c-0.8-0.2-1.6-0.4-2.4-0.6
		c5.9,3.2,11.9,6.6,18.1,10.1c10.4,5.7,21,12.1,32.1,18.6c11,6.7,22.4,13.5,33.7,20.9c11.4,7.2,22.8,14.8,34.3,22.4
		c11.3,7.7,22.6,15.5,33.5,23.5c11,7.8,21.6,15.8,31.9,23.6c10.1,7.9,20,15.5,29.1,22.9c9.2,7.3,17.7,14.5,25.5,21.2
		c3.9,3.4,7.6,6.6,11.2,9.6c3.5,3.1,6.8,6.1,9.9,8.9c6.2,5.6,11.6,10.4,15.9,14.5c8.6,8.2,13.6,12.9,13.6,12.9l-2,2.3
		c0,0-5.5-4.1-15.1-11.2l-1.3-0.9c-4.5-3.4-9.9-7.4-16-11.8c-6.7-4.9-14.2-10.4-22.5-16.4c-4.1-3-8.5-6.1-12.9-9.3
		c-4.5-3.2-9.1-6.5-13.9-9.8c-9.5-6.8-19.7-13.6-30.2-20.9c-10.6-7.1-21.4-14.6-32.6-21.8c-11.1-7.4-22.7-14.5-34-21.9
		c-11.6-7.1-23-14.4-34.5-21.2c-11.4-6.9-22.8-13.5-33.7-20c-5.5-3.1-11-6.2-16.3-9.2c-5.3-3.1-10.5-6-15.6-8.8
		c-10.2-5.6-19.9-10.9-28.8-15.8c-8.8-5.1-16.8-9.9-23.8-14.4c-6.4-4.2-11.8-8-16.5-11.3c-0.4-0.1-0.9-0.2-1.3-0.2
		c-2.9-0.6-5.8-1.2-8.7-1.7c-2.6-0.4-5.1-0.9-7.7-1.3c-5.5-0.9-11-1.9-16.6-2.8c-1.8-0.3-3.7-0.7-5.5-1c-8.1-1.4-16.2-2.6-24.4-3.7
		c-0.1,0-0.2,0-0.4-0.1l0,0c-4.3-0.6-8.6-1.2-13-1.8c-0.2,0-0.4-0.1-0.6-0.1c-3.8-0.5-7.6-1-11.4-1.5c-1.1-0.2-2.1-0.2-3.2-0.4
		c0.6,0.2,1.4,0.4,2.1,0.5l0,0c4.9,1.2,10.4,2.8,16.5,4.8c8,2.5,16.9,5.5,26.5,9.3c4.8,1.8,9.7,3.8,14.8,5.9c5,2.3,10.2,4.6,15.6,7
		c10.6,4.9,21.6,10.6,32.8,16.7c11.1,6.3,22.5,13,33.7,20.3c11.3,7.2,22.3,15.3,33.2,23.5c10.8,8.4,21.4,16.9,31.5,25.8
		c10.3,8.6,20,17.6,29.7,25.8c9.5,8.5,18.7,16.6,27.4,24.3c4.4,3.8,8.6,7.5,12.8,11.1c4.1,3.6,8,7.2,11.8,10.6
		c7.6,6.7,14.4,13,20.4,18.6c6.1,5.6,11.3,10.5,15.5,14.5c8.5,8.1,13.4,12.7,13.4,12.7l-1.1,1.3l-0.9,1c0,0-5.4-4-14.8-11.1
		c-4.7-3.6-10.5-7.7-17.2-12.5s-14.2-10.1-22.5-15.8c-8.2-5.7-17.3-11.9-26.9-18.2c-9.6-6.4-20-12.7-30.8-19.1s-22.2-12.7-33.8-19
		c-9.1-5.1-18.5-10-27.8-15.1c-2.4-1.3-4.8-2.7-7.2-4.1c-11.7-6.3-23.2-13.1-34.4-19.7c-11.1-6.8-22.2-13.4-32.6-20.2
		c-5.2-3.3-10.4-6.6-15.4-9.9c-5-3.4-9.9-6.6-14.6-9.8c-9.5-6.4-18.4-12.7-26.6-18.5c-4.1-3-8-5.8-11.7-8.6
		c-3.7-2.7-7.2-5.4-10.5-7.9c-1.3-1-2.6-2-3.8-2.9c-5-3.9-9.3-7.4-13.1-10.5c-4.6-3.8-8.2-7-10.6-9.2c-2.5-2.1-3.7-3.4-3.7-3.4
		l0.4-0.8c-6.8-0.7-13.7-1.4-20.5-2.1c-4.4-0.4-8.8-0.9-13.3-1.3c-1.2-0.1-2.4-0.2-3.7-0.3c-0.5,0-1.1-0.1-1.6-0.1l-12.7-0.8
		l-1.3-0.1c1.2,0.5,2.4,0.9,3.7,1.4c4.8,1.9,10.1,3.7,15.3,5.9c5.2,2.2,10.6,4.4,16.2,6.8c5.6,2.4,11.1,5,16.8,7.8
		s11.4,5.7,17.2,8.7c5.8,3.2,11.6,6.5,17.4,9.8c5.9,3.3,11.7,6.9,17.5,10.6c11.8,7.2,23.3,15.1,35,22.9c11.4,8.1,22.9,16,33.9,24.4
		c11,8.1,21.5,16.7,31.7,24.9c10,8.5,19.7,16.5,28.6,24.6c4.4,4,8.7,7.9,12.9,11.7c4.1,3.8,8,7.6,11.8,11.2
		c3.7,3.6,7.3,7.1,10.7,10.5c3.3,3.4,6.4,6.6,9.4,9.7c6,6.1,10.9,11.5,14.9,16c8.1,9.1,12.6,14.3,12.6,14.3l-2,2.2
		c0,0-3.9-2.6-11-7.4c-1.5-1-3.1-2.1-4.8-3.3c-2.5-1.8-5.3-3.6-8.3-5.7c-3-2-6.3-4.2-9.7-6.5c-3.4-2.4-7.2-4.9-11-7.5
		c-3.9-2.6-8-5.3-12.3-8.2c-8.5-5.8-17.9-11.8-27.7-18.2c-4.9-3.3-10-6.5-15.2-9.7c-5.2-3.3-10.5-6.7-15.9-10.1
		c-10.9-6.7-22-13.7-33.6-20.5c-11.4-6.9-23.2-13.7-34.9-20.5c-11.8-6.7-23.6-13.3-35.3-19.7c-5.8-3.2-11.7-6.4-17.4-9.5
		s-11.4-6.2-16.9-9.3c-0.5-0.3-0.9-0.5-1.4-0.7c-5.1-2.8-10.1-5.6-15-8.4c-5.3-3-10.5-6-15.5-8.9c-10.1-6-19.6-11.5-28.4-16.7
		c-4.4-2.6-8.6-5.1-12.6-7.5c-4.1-2.3-7.9-4.5-11.5-6.6c-7.1-4.4-13.1-8.8-17.9-12.8c-1.8-1.6-3.5-3.1-5-4.5
		c-1.4-1.4-2.6-2.6-3.6-3.8c-0.2,0-0.3,0-0.5,0c-1.1,0-2.1-0.1-3.2-0.1h-0.1c-1.3,0-2.6-0.1-3.9-0.1c-0.1,0-0.2,0-0.2,0
		c-1.9-0.1-3.9-0.1-5.8-0.1c-0.4,0-0.8,0-1.2,0c-1.1,0-2.2,0-3.2,0c0.3,0.1,0.5,0.2,0.7,0.3c7.2,3,15.1,6.7,23.6,11.1
		c8.5,4.3,17.3,9.5,26.5,15.2c9.3,5.7,18.6,12.3,28,19.3c9.4,7.1,18.9,14.7,28,23.1c6.3,5.6,12.3,11.5,18.3,17.6
		c2.9,2.9,5.7,5.8,8.5,8.6c8.6,9.2,17.3,18.2,25.6,27.3c8.4,9,16.6,17.9,24.6,26.4c7.9,8.7,15.5,17.1,22.5,25.1
		c7,8.1,13.6,15.7,19.5,23c5.9,7.2,11.3,13.8,16,19.9c4.6,6,8.7,11.2,11.9,15.6c6.4,8.7,10.1,13.7,10.1,13.7l-2.3,1.9
		c0,0-4.5-4.3-12.2-11.9c-3.9-3.8-8.7-8.3-14.2-13.4c-5.4-5.2-11.6-10.9-18.5-17.1c-6.8-6.3-14.4-12.8-22.3-19.9
		c-8-6.9-16.5-14.2-25.4-21.5s-18.1-14.9-27.9-22.2c-9.5-7.4-19.7-14.5-29.6-21.6c-10.2-7-20-14.2-29.8-21.2
		c-9.6-7.2-19-14.4-27.9-21.6s-17.4-14.2-25.3-21.2c-8-6.7-15.3-13.6-22.1-19.8c-3.4-3.2-6.6-6.2-9.6-9.2c-3-2.9-5.9-5.8-8.6-8.4
		c-5.3-5.4-9.9-10.4-13.7-14.4c-1.5-1.6-2.8-3.1-4-4.4c-1.6,0-3.2,0-4.8,0s-3.1,0-4.5,0c-2,0-4.1,0-6.1,0.1
		c-4.1,0.1-8.1,0.2-12.2,0.4c-0.6,0-1.2,0.1-1.9,0.1c-0.8,0-1.6,0.1-2.4,0.1c-0.2,0-0.5,0-0.7,0c-4,0.2-7.9,0.3-11.8,0.5
		c2.2,1.2,4.3,2.5,6.6,3.8c2.1,1.2,4.3,2.3,6.4,3.7c2.1,1.3,4.2,2.7,6.4,4.1c4.3,2.8,8.7,5.7,13.3,8.7c4.3,3.2,8.9,6.5,13.5,9.9
		c2.3,1.7,4.6,3.4,6.9,5.1c2.2,1.8,4.5,3.7,6.8,5.6c4.5,3.8,9.2,7.5,13.8,11.4c4.5,4,9,8.1,13.6,12.2s8.9,8.4,13.4,12.8
		c4.3,4.4,9,8.6,13.1,13.2c4.2,4.5,8.5,9,12.7,13.6c4.2,4.5,8.1,9.3,12.1,13.8c8.1,9.1,15.4,18.6,22.6,27.6
		c3.6,4.6,6.9,9.1,10.2,13.6s6.5,8.8,9.5,13.2c5.9,8.7,11.6,16.9,16.4,24.7c2.4,3.9,4.8,7.6,7,11.2c2.1,3.6,4.1,7,5.9,10.3
		c3.7,6.5,7,12,9.3,16.8c4.9,9.5,7.6,14.9,7.6,14.9l-0.4,0.3l-2.2,1.3c0,0-4-4.6-10.7-12.9c-3.4-4.2-7.6-9.1-12.3-14.7
		c-2.4-2.8-4.9-5.8-7.6-8.9c-2.7-3.1-5.6-6.3-8.6-9.8c-5.9-6.9-12.5-14.1-19.5-21.7c-6.9-7.7-14.6-15.4-22.2-23.7
		c-3.9-4-8-8-12.1-12.2c-4-4.2-8.2-8.2-12.5-12.3c-4.3-4.1-8.4-8.3-12.8-12.3c-4.4-4-8.8-8.1-13.2-12.1c-4.3-4-8.9-7.8-13.4-11.7
		c-4.5-3.9-8.9-7.8-13.5-11.4c-4.5-3.7-9-7.3-13.4-11c-4.5-3.5-9-6.8-13.4-10.2c-2.2-1.7-4.4-3.3-6.5-5c-2.2-1.5-4.4-3.1-6.6-4.6
		c-4.3-3-8.6-6-12.7-8.9c-4.3-2.7-8.4-5.2-12.4-7.7c-2-1.2-3.9-2.5-5.9-3.7c-1.9-1.2-3.9-2.2-5.8-3.3c-7.6-4.1-14.4-8.3-20.8-11
		c-3.2-1.5-5.9-3.2-8.4-5.1c-1.3-0.9-2.4-2-3.5-2.9s-2.1-1.9-3.1-2.9c-2.8-2.9-4.9-5.8-6.6-8.5c-1.6,0.1-3.3,0.2-4.9,0.4
		c-2.5,0.2-5,0.4-7.5,0.5c-1.1,0.1-2.2,0.3-3.4,0.4c-0.9,0.1-1.7,0.2-2.1,0.2c-0.9,0.1-1.9,0.2-2.8,0.3l0,0
		c-0.9,0.1-1.7,0.2-2.6,0.3c2.6,0.8,5.2,1.9,7.9,3.2c0.5,0.3,1,0.5,1.5,0.8c1.9,1,4,2.2,6,3.5c2.5,1.7,4.9,3.7,7.5,5.8
		c5.2,4.1,10.6,8.8,16.4,13.6c5.8,4.8,11.7,10.2,17.9,15.6c6.2,5.5,12.4,11.4,18.6,17.3c6.3,5.9,12.4,12.2,18.7,18.3
		c12.2,12.6,24.2,25.5,34.9,38c4.3,5,8.4,10,12.4,14.8c5.7,7.1,11,13.9,15.7,20.2c2,2.6,3.9,5.2,5.7,7.5c1.7,2.4,3.4,4.7,4.9,6.9
		c3.1,4.4,5.8,8.1,7.8,11.4c4.2,6.4,6.5,10.1,6.5,10.1l-2.3,1.9c0,0-3.4-2.8-9.2-7.9c-5.7-5-13.9-12.2-23.6-20.9
		c-9.8-8.6-21.1-18.6-33.2-29.4c-6.1-5.3-12.3-10.8-18.8-16.4l-19.4-16.8c-6.5-5.6-13.1-11.2-19.6-16.6c-6.4-5.5-12.9-10.8-19-16
		c-12.4-10.2-23.9-19.8-34-27.8c-5.1-3.9-9.5-7.9-12.9-12s-5.9-8.3-7.8-12c-2.3-4.5-3.5-8.5-4-11c-0.5,0.1-1.1,0.1-1.6,0.2
		c-1.4,0.1-2.8,0.3-4.2,0.5l0,0c-3.2,0.3-6.4,0.7-9.5,1.1c-10.5,1.5-20.9,3-31.2,4.5c-2.6,0.4-5.2,0.8-7.8,1.1c-0.1,0-0.1,0-0.2,0
		c-0.6,0.1-1.1,0.2-1.6,0.3c-0.5,0.1-1.1,0.1-1.7,0.2c0.2,0.1,0.3,0.1,0.5,0.2c4,1.2,8.3,2.8,12.8,4.7c5,2,10.1,4.6,15.4,7.7
		c5.3,3,10.6,6.6,16.1,10.4c5.4,3.8,11.1,7.7,16.6,11.9c5.6,4.1,11.3,8.4,16.9,12.7c5.6,4.3,11,8.8,16.4,13.2
		c5.3,4.5,10.5,8.9,15.5,13.4c5,4.4,9.7,8.8,14.1,13c4.4,4.2,8.5,8.2,12.2,12.1c7.5,7.6,13.5,14.3,17.5,19c2,2.4,3.6,4.3,4.7,5.6
		c1.1,1.3,1.6,2,1.6,2l-1.9,2.4c0,0-0.8-0.4-2.4-1.1c-1.5-0.7-3.7-1.8-6.5-3.2h-0.1c-5.6-2.9-13.4-6.9-22.7-12
		c-4.6-2.6-9.6-5.4-14.9-8.4c-5.2-3.1-10.7-6.2-16.3-9.7c-5.7-3.3-11.4-7-17.3-10.5c-5.8-3.7-11.8-7.3-17.6-11.2
		c-5.9-3.7-11.7-7.5-17.5-11.3c-5.7-3.7-11.3-7.5-16.7-11.1c-5.5-3.6-10.7-7.1-15.4-10.8c-4.7-3.7-9-7.4-12.9-11.1
		c-3.8-3.7-7.2-7.3-10.1-10.7c-2.8-3.4-5.3-6.6-7.1-9.3c-1-1.4-1.9-2.7-2.5-4c-3.3,0.6-6.6,1.2-9.9,1.8h-0.1
		c-3.4,0.6-6.8,1.2-10.2,1.8h-0.1c-2,0.4-4,0.7-6,1.1c1.1,0.3,2.2,0.7,3.2,1.1c0.3,0.1,0.5,0.2,0.8,0.3c3.7,1.4,7.5,3.3,11.4,5.5
		c4.1,2.3,8.1,5.3,12.3,8.2c4.2,3,8.5,6.1,12.7,9.6c4.3,3.3,8.5,6.8,12.7,10.4c8.3,7.2,16.4,14.7,23.6,22.1c3.6,3.7,7,7.4,10.2,10.9
		c3,3.6,6,7,8.6,10.2c5.2,6.4,9.3,12.1,11.9,16.1c1.3,2.1,2.3,3.7,3,4.7c0.7,1.1,1.1,1.8,1.1,1.8l-2.1,2.2c0,0-0.7-0.4-1.8-0.9
		c-1.2-0.6-2.8-1.5-5-2.7c-1.1-0.6-2.3-1.3-3.7-2.1c-1.2-0.7-2.5-1.4-3.9-2.2c-2.9-1.7-6.1-3.5-9.6-5.6c-3.5-2.2-7.2-4.4-11.2-6.9
		c-3.9-2.5-8.1-5-12.3-7.8c-4.3-2.7-8.5-5.6-13-8.4c-4.3-3-8.9-5.8-13.2-8.9c-4.5-2.9-8.8-5.9-13.1-8.9s-8.5-5.8-12.6-8.7
		c-4.1-2.8-8-5.5-11.6-8.4s-6.7-5.8-9.6-8.8c-2.8-3-5.3-5.9-7.4-8.7c-2-2.8-3.7-5.4-5-7.7c-0.3-0.5-0.5-1-0.8-1.4
		c-0.5,0.1-1,0.2-1.5,0.3c-0.3,0.1-0.6,0.1-0.9,0.2c-0.8,0.2-1.6,0.4-2.4,0.5c-0.4,0.1-0.9,0.2-1.3,0.3c-2.3,0.5-4.4,0.9-6.6,1.4
		c-6,1.3-11.8,2.8-17.6,4.2c-0.4,0.1-0.7,0.2-1,0.3c1.1,0.9,2.3,1.9,3.5,2.9c2.8,2.4,5.8,4.9,8.8,7.5c3,2.7,6.1,5.4,9.1,8.3
		c3.1,2.9,6.2,5.9,9.2,8.9c3,3.1,6.1,6.1,8.9,9.3c2.9,3.1,5.7,6.2,8.3,9.3c5.2,6.1,10,12,13.8,17.3c3.8,5.2,6.9,9.8,8.8,13
		c2,3.2,3.1,5.2,3.1,5.2l-1,1.1l-1,1.1c0,0-8.1-3.8-19.2-10.2c-2.9-1.6-5.8-3.4-8.9-5.3c-3.1-2-6.5-3.9-9.8-6.1
		c-3.4-2.1-6.8-4.4-10.2-6.6c-3.5-2.3-7-4.6-10.4-7c-6.9-4.7-13.8-9.6-20.1-14.1c-3.2-2.3-6.2-4.6-9.1-6.6c-2.9-2.1-5.6-4.2-8.1-6
		c-2.5-1.9-4.8-3.6-6.8-5.1c-2-1.6-2.8-4.2-2.9-7c0-0.3,0-0.8-0.1-1.2c-1.4,0.4-2.7,0.8-4.1,1.1c-0.1,0-0.2,0-0.2,0.1
		c-5.2,1.4-10.3,2.9-15.3,4.3c-2.7,0.8-5.4,1.6-8.1,2.4c0.4,0.4,0.7,0.8,1.1,1.2c2.7,2.8,5.4,5.9,8.7,9c1.6,1.6,3.2,3.3,4.9,4.9
		c1.8,1.6,3.6,3.3,5.4,5c3.7,3.5,7.6,6.9,11.6,10.5c2,1.8,4,3.6,6.1,5.4s4.2,3.5,6.3,5.4c4.1,3.7,8.5,7.1,12.7,10.8
		c4.3,3.6,8.4,7.1,12.5,10.4c2,1.7,4,3.4,5.9,5.1c2,1.6,3.9,3.2,5.8,4.8c3.7,3.2,7.3,6.2,10.6,9s6.3,5.4,9,7.7c2.7,2.4,5,4.5,7,6.2
		c0.1,0.1,0.3,0.2,0.4,0.3c3.6,3.3,5.6,5.3,5.6,5.3l-1.4,2.7c0,0-3-0.4-8-1.5c-2.6-0.5-5.6-1.2-9.2-2.2c-3.5-1-7.5-2-11.7-3.4
		c-17-5.3-39-14.3-59.8-26.3c-5.3-2.8-10.3-6.2-15.3-9.4c-2.5-1.6-4.9-3.4-7.3-5.1s-4.8-3.4-7.1-5.1c-4.6-3.5-8.9-7-12.9-10.6
		c-4.1-3.4-7.7-7.2-11.1-10.5c-3.3-3.5-6.3-6.8-8.9-9.8c-1.7-1.8-2.6-3.9-3-6c-1.1,0.4-2.4,0.8-3.5,1.3c-1.1,0.4-2.3,0.8-3.4,1.2
		c0.1,0,0.1,0.1,0.1,0.1c1.9,2.3,4,5,6.4,7.8c4.6,5.8,10,12.4,15.5,19.7c2.7,3.6,5.7,7.3,8.6,11.1c2.8,3.9,5.9,7.6,8.7,11.6
		c11.7,15.7,23.3,31.3,32.1,43c2.2,3,4.2,5.8,6,8.2c1.8,2.5,3.4,4.7,4.7,6.5c2.7,3.6,4.1,5.8,4.1,5.8l-0.7,0.8l-1.2,1.5
		c0,0-2.5-0.9-6.6-2.6c-2.1-0.8-4.6-2-7.5-3.3c-2.9-1.4-6.1-3-9.5-4.9s-7-4.1-10.8-6.4c-3.7-2.4-7.6-5.1-11.5-7.9
		c-3.9-2.9-7.9-5.8-11.8-9.1c-4-3.1-7.8-6.5-11.7-9.9c-3.8-3.3-7.5-6.9-11.1-10.4c-3.7-3.4-7-7-10.3-10.4
		c-6.6-6.8-12.5-13.3-17.3-19c-2.5-2.8-4.6-5.4-6.6-7.8c-0.9-1.1-2-2.1-2.3-3.5c-0.4-1.3-0.4-2.9-0.1-4.5c0.1-1.1,0.5-2.3,1-3.5
		c0.1-0.1,0.1-0.2,0.2-0.4c-4.2,1.8-8.3,3.6-12.3,5.5c-0.3,0.1-0.5,0.2-0.7,0.3c2.7,3.6,6,7.8,9.6,12.4c3,4,6.3,8.2,9.8,12.7
		c3.5,4.5,7.2,9.2,11,14.1c3.9,4.8,7.9,9.9,11.9,15c4.1,5.1,8.3,10.2,12.4,15.3c4.3,5,8.4,10.2,12.7,15.1c4.3,5,8.5,9.8,12.6,14.5
		c4.1,4.6,8.2,9.1,12,13.3c3.9,4.2,7.6,8.2,11.2,11.8c1.8,1.8,3.5,3.6,5,5.2c1.6,1.6,3.2,3.1,4.6,4.5c2.9,2.9,5.4,5.5,7.7,7.6
		c4.4,4.1,6.8,6.6,6.8,6.6l-0.5,0.8l-1.1,1.8c0,0-3.2-1.2-8.8-3.6c-2.9-1-6.2-2.7-10.1-4.5c-3.9-1.9-8.1-4.1-12.7-6.8
		c-4.6-2.5-9.4-5.6-14.5-8.8c-2.6-1.6-5.1-3.4-7.7-5.2c-2.6-1.8-5.3-3.6-7.9-5.6c-5.1-4-10.7-8-15.9-12.5c-5.3-4.3-10.5-9-15.7-13.7
		c-5-4.7-10.2-9.5-14.9-14.4c-4.9-4.8-9.5-9.7-13.9-14.5s-8.7-9.4-12.5-14c-3.8-4.5-7.5-8.7-10.8-12.7c-5.7-7-10.4-13-13.9-17.6
		c-0.3,0.2-0.6,0.4-0.9,0.5c1.4,1,2.6,2.3,3.7,3.7c1.3,1.9,2.1,4.2,3.3,6.5c0.4,0.7,0.8,1.5,1.1,2.2c0.8,1.7,1.6,3.5,2.4,5.3
		c1.4,2.6,2.8,5.3,4.3,8.2c2.9,5.7,6.3,11.9,9.8,18.4c1.7,3.3,3.7,6.6,5.7,9.9s3.8,6.9,6,10.3c4.2,7,8.6,14.1,13.2,21.3
		c4.5,7.3,9.6,14.4,14.3,21.8c5.1,7.1,10,14.4,15.2,21.3c5,7,10.3,13.8,15.3,20.4c5.2,6.5,10,12.9,14.9,18.8
		c4.8,5.9,9.5,11.5,13.9,16.5c2.2,2.6,4.3,5.1,6.2,7.4c2.1,2.3,4,4.4,5.8,6.5c3.6,4.1,6.8,7.8,9.5,10.7c5.5,5.9,8.5,9.4,8.5,9.4
		l-1.5,2l-0.4,0.4c0,0-4.2-2-11.3-5.8c-3.6-1.8-7.8-4.4-12.7-7.3c-2.4-1.5-5-3.1-7.7-4.8c-2.6-1.8-5.3-3.7-8.2-5.6
		c-5.9-3.9-11.8-8.5-18.2-13.3c-3.2-2.4-6.3-5.1-9.5-7.8c-3.2-2.7-6.6-5.4-9.8-8.3c-6.5-5.9-13.2-11.9-19.6-18.6
		c-6.6-6.4-12.8-13.4-19.1-20.3c-6.1-7.1-12.2-14.2-17.7-21.5c-5.8-7.1-10.9-14.6-16-21.8c-5-7.2-9.6-14.3-13.7-21.2
		c-4.2-7-8.2-13.4-11.3-19.7c-1.7-3.1-3.3-6.1-4.8-8.9c-0.1-0.2-0.2-0.4-0.3-0.6c-0.4-1-0.9-1.9-1.3-2.8c1.1,4.4,2.5,9.6,4.1,15.5
		c1.7,6.6,3.9,14.1,6.2,22.3c2.2,8.2,4.9,17,7.7,26.3c2.8,9.3,5.9,19.1,9.1,29.1c3.4,10.1,6.7,20.5,10.5,31
		c3.7,10.5,7.7,21.1,11.6,31.8c4.3,10.5,8.1,21.1,12.6,31.4c2.3,5.1,4.3,10.3,6.5,15.3c2.3,5,4.5,9.9,6.7,14.8
		c2.1,4.9,4.5,9.5,6.7,14.2c2.3,4.6,4.4,9.2,6.6,13.5c4.7,8.6,8.7,17,13,24.4c2.1,3.7,4.1,7.3,6,10.8c1.9,3.4,3.9,6.4,5.7,9.5
		c1.5,2.4,2.9,4.8,4.3,7c1.9,3.1,3.6,5.9,5.3,8.4c5.7,8.4,8.9,13.4,8.9,13.4l-2.3,1.9c0,0-4.3-4-11.6-11.2
		c-3.8-3.4-7.9-8.2-12.7-13.5c-2.4-2.7-5-5.5-7.6-8.6c-2.5-3.2-5.2-6.5-8-9.9c-5.7-6.8-11.1-14.8-17-23c-3-4.1-5.7-8.5-8.7-13
		c-2.8-4.5-5.9-8.9-8.7-13.7c-2.8-4.7-5.7-9.6-8.6-14.4c-2.9-4.9-5.6-10-8.3-15.1c-2.8-5.1-5.5-10.2-8.1-15.5
		c-2.6-5.2-5.2-10.5-7.8-15.7c-4.9-10.7-9.9-21.3-14.3-31.9c-4.5-10.6-8.7-21.1-12.6-31.3c-2-5.2-3.7-10.2-5.5-15.2
		c-1.7-4.9-3.6-9.8-5.1-14.6c-3.1-9.5-6.2-18.5-8.7-26.8c-2.6-8.3-4.8-16.1-6.7-22.9c-1.2-4.5-2.3-8.5-3.3-12.2
		c-0.9,0.8-1.9,1.6-2.8,2.3c-0.5,0.5-1.1,1-1.6,1.5c1,5.7,2.3,12.5,3.2,20.2c0.1,0.9,0.2,1.9,0.2,2.9c0,0.1,0,0.1,0,0.1
		c0.3,3,0.4,6.2,0.6,9.5c0.4,4.4,0.6,9.1,0.6,13.9c-0.1,9.6,0.7,20.2,1.3,31.3c0.2,5.6,1,11.3,1.4,17.1c0.6,5.8,0.9,11.8,1.9,17.8
		c0.8,6.1,1.6,12.2,2.4,18.4c0.7,6.3,2,12.5,3,18.9c2,12.7,4.9,25.4,7.5,38.3c3.3,12.7,5.9,25.6,9.7,38c1.8,6.2,3.3,12.5,5.3,18.5
		c1.9,6.1,3.8,12,5.7,17.9c1.8,5.9,4.1,11.6,6.1,17.2s3.8,11.2,6,16.4c4.3,10.5,8,20.7,12.2,29.7c2.1,4.6,4,9,5.9,13.1
		c1.9,4.2,3.8,8,5.6,11.6c3.5,7.3,6.7,13.7,9.6,18.9c1,1.8,1.9,3.5,2.7,5.1c3.9,7.2,6,11.3,6,11.3l-2.6,1.6c0,0-4.2-5.3-11.5-14.7
		c-3.8-4.5-7.7-10.6-12.4-17.5c-2.3-3.5-4.9-7.1-7.4-11.1c-2.4-4-4.9-8.2-7.5-12.6c-5.4-8.7-10.5-18.6-16-28.9
		c-2.8-5.2-5.2-10.7-7.9-16.2c-2.5-5.6-5.4-11.3-7.7-17.2c-2.4-5.9-4.9-11.9-7.4-18s-4.6-12.4-6.9-18.7
		c-4.7-12.6-8.4-25.7-12.3-38.7c-3.3-13.2-7.1-26.3-9.5-39.5c-1.3-6.6-2.8-13-3.8-19.6c-1-6.4-2.1-12.8-3.1-19.2
		c-1-6.3-1.5-12.5-2.3-18.7c-0.7-6.1-1.5-12-1.7-17.9c-0.7-11.7-1.6-22.7-1.6-32.9c0-5.1,0-10,0.3-14.6c0.4-4.6,1.1-9,1.8-13.1
		c1.2-6.9,2.6-12.9,4.4-18c-0.1-0.1-0.2-0.2-0.3-0.3c-0.4-0.4-0.9-0.8-1.2-1.2c-1.2-1.3-2.1-2.7-2.7-4.2c-2.1-5.2-1-11.2,3.4-15.1
		c0.6-0.5,1.2-1,1.8-1.6c4.2-3.4,9.6-7.9,15.9-12.7c3.2-2.3,6.6-4.9,10.2-7.5c1.7-1.2,3.5-2.4,5.3-3.6c0-1,0.2-2,0.3-3
		c0.3-2,0.7-4.1,1.3-6.2c2-8,6.1-16.3,10.9-24.1c2.3-4,4.7-7.9,6.9-11.9l0.8-1.5l0.6-1l0.4-0.8c0.7-1.1,1.2-2.1,1.9-3.3
		c1.5-2.4,3-4.8,4.5-6.9c6-8.5,12.5-16.1,18.9-23c3.2-3.5,6.3-6.8,9.2-9.9c1.1-1.1,2.2-2.2,3.2-3.3c1.9-1.8,3.6-3.6,5.3-5.2
		c2.7-2.6,5.1-5,7.4-7.1c2.2-2.1,4.1-3.9,5.6-5.4c2.5-2.4,4.1-3.9,4.8-4.4c0.2-0.1,0.3-0.2,0.3-0.2v0.1l0.6,0.4l1.9,1.3
		c0,0-1,2.3-3.1,6.3c-2.1,3.9-5.2,9.4-9.1,15.7c-0.3,0.4-0.5,0.8-0.7,1.1c-3.8,6.1-8.3,12.9-13,20.2c-2.5,3.8-5.1,7.8-7.8,11.8
		c-2.5,4-5.2,8-7.5,12.1c-1.3,2.1-2.2,3.9-3.2,5.7c-0.5,1-1,2.2-1.6,3.3l-1.5,3.2c-2.2,4.8-4.6,9.1-6.9,13.2
		c-1.2,2.1-2.4,4.1-3.5,6.1c5.2-3,10.6-6.1,16.4-9.1c2.1-1.1,4.3-2.2,6.4-3.4c2.5-7.7,5.5-15.9,9.2-24.5c1.3-3,2.6-6.1,4-9.1
		c1.4-3.1,2.9-6.1,4.4-9.2c3.3-6.1,6.4-12.3,10.1-18.2c3.4-6.1,7.4-11.9,11.1-17.7c1.9-2.9,4-5.6,6-8.3c2-2.8,4-5.5,6.1-7.9
		c2.1-2.5,4.2-5,6.2-7.4c2.1-2.4,4.3-4.7,6.4-6.8c4.1-4.4,8.4-8.3,12.3-11.9c3.8-3.6,7.9-6.4,11.2-9c1.7-1.3,3.3-2.5,4.8-3.5
		c1.1-0.8,2.2-1.5,3.2-2.1c4.7-8.2,9.4-16.6,14.5-24.4c5-8.2,10.5-15.9,15.7-23.4c0.5-0.8,1.1-1.6,1.6-2.3c2.1-2.9,4.2-5.7,6.4-8.5
		c2.7-3.5,5.3-6.9,8-10.1s5.3-6.4,7.9-9.3c2.6-3,5.3-5.7,7.7-8.4c2.5-2.7,4.8-5.3,7.2-7.6c2.4-2.3,4.7-4.5,6.9-6.5
		c2.1-2,4.1-4,6-5.7s3.8-3.2,5.4-4.6c6.5-5.5,10.4-8.5,10.4-8.5l2.2,2.2c0,0-2.9,3.9-8.3,10.3c-1.3,1.7-2.9,3.4-4.4,5.4
		s-3.2,4.2-5,6.5s-3.7,4.8-5.7,7.3c-1.9,2.6-3.9,5.4-6,8.3c-4.3,5.7-8.6,12.2-13.3,18.9c-2.4,3.3-4.6,6.8-6.9,10.4
		c-2.4,3.6-4.8,7.3-7.2,11c-4.7,7.6-9.5,15.4-14.1,23.5c-4.8,8-9.3,16.4-14.1,24.7c-4.5,8.4-9.1,16.7-13.4,25.1
		c-4.3,8.3-8.6,16.5-12.8,24.5c-6.4,12.5-12.5,24.4-18.1,35.1c-1.5,3-3,5.8-4.4,8.6c-1.5,2.8-2.8,5.4-4.2,8v0.1
		c0.1,0,0.3-0.1,0.4-0.1c4.9-1.9,9.9-3.8,15-5.6c0.3-0.8,0.7-1.6,1-2.4c1.7-3.7,3.8-7.8,6.1-12.2c2.4-4.4,5-9.1,8-14
		c3-4.8,6.1-10,9.6-15.1l0.1-0.2c6.8-10.3,14.4-20.9,22.4-31.3c3.9-5.2,8.2-10.3,12.2-15.4c4.1-5.1,8.2-9.9,12.3-14.6
		c4.1-4.6,8.2-9,12.2-13c4.2-3.9,8.2-7.5,12.1-10.7c0.5-0.4,1.1-0.8,1.6-1.2c3.3-2.6,6.7-4.9,9.6-6.8c3.4-2.3,6.8-4,9.5-5.5
		c2.3-1.2,4.5-2,6-2.6c1.7-2.4,3.4-4.8,5.2-7.2c3.5-4.9,7.1-9.8,10.7-14.6l19.9-25.5l20.4-25c6.9-8.2,14-16.3,21.1-24.4l21.6-24
		c7.3-7.9,14.7-15.7,22-23.5l22.4-23.2l22.8-22.7c7.6-7.5,15.3-15,23.1-22.4c13.9-13.3,28.2-26.5,42.5-39.5l-0.1-0.2l4.9-4.2
		l2.2,2.2c-6.9,8.1-13.8,16.4-20.9,24.5c-7,8.1-14,16.2-21.1,24.2l-1.4,1.6l-21.2,24.3c0.9-0.6,1.9-1.3,2.8-1.9
		c3.3-1.9,6.6-3.9,9.8-5.8c3.3-1.8,6.5-3.6,9.8-5.2c11-5.6,21.7-10.2,31.7-14.3c1.7-0.7,3.4-1.3,5.1-2c11.5-4.4,22-8.3,31.3-11.7
		s17.2-6.6,23.8-9.2c4.8-2,8.9-3.7,12.1-5.1c1.2-0.5,2.2-1,3.1-1.4c3.5-1.5,5.4-2.4,5.4-2.4l1.8,2.5c0,0-1.5,1.4-4.4,4
		c-2.9,2.6-7.4,6.1-13.3,10.3c-3,2.1-6.3,4.4-10.1,6.6c-1.9,1.2-3.8,2.3-5.8,3.6c-2.1,1.2-4.2,2.4-6.4,3.6
		c-8.8,4.9-19,9.9-29.9,15.2c-1,0.5-2,0.9-3,1.4c-10.1,4.9-20.9,9.9-31.8,15.7c-2.9,1.7-5.9,3.4-8.9,5.1c-2.9,1.8-5.9,3.6-8.8,5.5
		c-2.8,2-5.6,3.8-8.5,6c-1.5,1.2-3,2.3-4.4,3.5l-2.3,1.7l-1.8,1.6c-10.9,9.3-20.9,20.6-30.5,32.8c-9.5,12.3-18.8,25.4-28.3,38.6
		c-19.2,26.1-38.3,52.2-56.2,76.7c-9,12.2-17.7,24-26,35.3c-8.2,11.2-16.1,21.7-23.5,31.4c-4.9,6.5-9.6,12.6-14,18.3
		c-2.1,2.8-4.2,5.4-6.3,8c-6.2,7.7-11.5,14.4-16.1,19.9c-3.4,4.2-6.4,7.7-8.7,10.4l-0.9,1c1.5-0.4,3-0.7,4.5-1.1
		c5.5-1.3,11.1-2.6,16.7-4c2.8-0.7,5.7-1.4,8.6-2.1c1.1-3.7,3-8.8,6.2-14.5c3.2-6,8.3-12.4,14.1-19.7c5.8-7.4,12.4-15.6,19.5-24.7
		c14.4-18.1,30.9-39.3,49-61.8c9-11.3,18.3-22.9,27.8-34.8c9.5-11.8,19.1-23.8,28.7-35.8c9.7-11.9,19.3-23.9,29.2-35.7
		c9.9-11.7,20.4-22.9,31.8-32.5c5.7-4.8,11.6-9.2,17.7-13.2c1.6-1,2.9-1.9,4.7-2.9c1.5-0.9,3.1-1.7,4.5-2.6c3-1.6,6.3-3.2,9.4-4.7
		c1.5-0.6,2.9-1.2,4.4-1.9l0,0c11.1-4.6,22-7.8,32.3-10.2c2.4-0.6,4.7-1,6.9-1.5c3.7-0.7,7.2-1.3,10.7-1.9c0.7-0.1,1.4-0.2,2.1-0.3
		c4.9-4.7,9.8-9.2,14.5-13.6c10.6-9.8,20.7-18.9,30.2-27.3c9.3-8.4,18.2-15.9,25.9-22.6c7.8-6.6,14.6-12.4,20.3-17.1
		c11.4-9.3,17.9-14.7,17.9-14.7l2.1,2.3c0,0-6,5.9-16.5,16.2c-5.2,5.2-11.5,11.4-18.8,18.6c-7.3,7.1-15.4,15.3-24.2,24.2
		c-8.9,8.8-18.4,18.6-28.4,28.9c-0.8,0.8-1.6,1.6-2.4,2.4c0.3,0,0.6,0,0.8-0.1c0.9-0.1,1.7-0.2,2.6-0.2c4.7-0.5,9.1-0.9,13-1.1
		c13.8-0.9,21.6-1.3,21.6-1.3l0.3,2.5l0.1,0.5c0,0-0.3,0.1-1,0.1c-2.5,0.3-9.6,1.3-20.3,2.9c-6.5,1-14.3,2.2-23.2,3.8
		c-0.1,0-0.3,0-0.4,0.1c-0.2,0-0.4,0.1-0.7,0.1c-7.1,7.4-14.3,15-21.7,22.8c-10.7,11.4-21.8,23.2-33,35.3
		c-11.2,12-22.3,24.5-33.5,36.9c-10.9,12.6-22.2,24.9-32.9,37.4c-10.8,12.3-21.2,24.7-31.3,36.6c-9.9,12.1-19.7,23.5-28.7,34.7
		c-9.1,11.1-17.6,21.6-25.3,31.5c-7.8,9.8-14.9,18.8-21,26.9c-5.4,7.2-10.7,13.2-15.6,18c6.7-1.1,13.4-2.2,20.3-3.3
		c0.5-0.1,1-0.2,1.4-0.2l-0.3-0.3c0,0,0.1-0.3,0.3-0.8c0.3-0.8,0.8-2.2,1.5-4.2c1.2-3.2,3.1-7.8,5.8-13.5
		c2.6-5.7,6.2-12.5,10.8-20.1c1-1.7,2.1-3.5,3.2-5.3c1.3-2.2,2.7-4.3,4.2-6.6c2.8-4.1,5.8-8.3,8.9-12.6c3.1-4.4,6.4-9,10-13.5
		c3.6-4.6,7.4-9.2,11.5-13.9c4-4.7,8.2-9.4,12.7-14.1c1.6-1.6,3.1-3.3,4.7-5c0,0,0,0,0.1,0c2.9-3.1,5.9-6.2,8.9-9.3
		c9.6-9.4,19.4-19.3,29.8-28.9c10.2-9.7,21.1-19.2,31.8-28.7c11-9.2,21.9-18.6,33.1-27.2c11-8.9,22.3-17.1,33.1-25.1
		c5.5-3.9,10.9-7.7,16.2-11.5c5.3-3.7,10.4-7.4,15.6-10.8c5.1-3.4,10.1-6.8,14.9-9.9c4.8-3.2,9.6-6.1,14.2-9
		c3.1-1.9,6.2-3.8,9.1-5.6c1.4-0.9,2.8-1.7,4.1-2.5c4.2-2.5,8.2-4.8,12-7c7.5-4.4,14.1-8.2,19.6-11.2c11-5.9,17.3-9.3,17.3-9.3
		l1.7,2.6c0,0-5.8,4.1-16,11.2c-5.2,3.5-11.4,7.9-18.3,13c-3.5,2.5-7.2,5.2-11.2,8.1c-3.9,3-7.9,6-12.1,9.2
		c-4.2,3.2-8.7,6.6-13.2,10.1s-9.1,7.2-13.9,11c-4.8,3.7-9.7,7.7-14.5,11.8c-4.9,4.1-9.9,8.2-15,12.5c-10,8.7-20.3,17.7-30.5,27.1
		c-10.4,9.2-20.5,19.1-30.7,28.8c-9.9,10-20,19.8-29.5,29.9c-9.7,9.9-18.7,20.1-27.6,29.8c-8.7,9.9-17.1,19.5-25,28.5
		c-4,4.5-7.9,8.9-11.8,13c-3.9,4.2-7.6,8.3-11.2,12.1c-3.6,3.8-7.2,7.5-10.5,11s-6.4,6.8-9.5,9.8c-3.1,3.1-6,5.9-8.8,8.4
		s-5.2,5.1-7.6,7.2c-0.9,0.8-1.7,1.5-2.5,2.2c-3.6,3.2-6.5,5.7-8.8,7.4c-0.4,0.3-0.7,0.5-0.9,0.7c2.1-0.3,4.1-0.7,6.2-1
		c0.7-0.1,1.5-0.2,2.2-0.4c5.2-0.8,10.4-1.3,15.6-2.1c3.7-0.5,7.5-0.9,11.2-1.4l-0.4-0.4c0,0,1.1-1.9,3.4-5.4
		c2.3-3.4,5.8-8.3,10.5-14.2c4.7-5.9,10.7-12.9,17.9-20.5s15.8-15.8,25.2-24.6c10.6-10.1,22.3-21.1,34.7-32.8
		c9.5-8.9,19.3-18.2,29.4-27.7c23.6-22,48.9-45.5,74-69c12.6-11.7,25.3-23.3,37.8-34.8c12.5-11.4,24.5-23,37.5-33.4
		c6.4-5.2,13-10,19.8-14.4c1.7-1,3.4-2.1,5.1-3.1l2.6-1.6l2.5-1.4c3.6-1.9,7-3.6,10.4-5.3c7.3-3.4,14.5-6.4,21.4-9.1
		c6.1-2.5,12.1-4.8,17.7-7.2c11.9-5,22.6-10,31.8-14.9c9.1-4.9,16.8-9.8,22.8-14.1c6.1-4.4,10.5-8.2,13.5-10.8
		c2.9-2.8,4.5-4.2,4.5-4.2l2.3,2.1c0,0-1.5,1.6-4.2,4.6c-2.9,2.9-7.1,7.2-13,12.1c-5.8,5-13.4,10.4-22.4,16.1
		c-9,5.6-19.6,11.4-31.5,17.1c-11.8,5.7-24.8,11.3-37.7,18c-3.2,1.7-6.5,3.5-9.5,5.4l-2.4,1.5l-2.3,1.5c-1.6,1-3.1,2.1-4.7,3.1
		c-6.1,4.4-12.2,9.2-18.1,14.4c-11.8,10.5-23.5,22.3-35.7,34.1c-12.1,11.8-24.4,23.8-36.8,35.8c-24.8,23.9-49.5,47.8-72.8,70.2
		c-23.3,22.2-45.1,43.1-63.8,60.8c-9.3,9-17.9,17.1-25.9,23.9s-15.3,12.5-21.5,16.9s-11.3,7.7-14.9,9.8c-0.3,0.2-0.5,0.4-0.8,0.5
		c4.6-0.6,9.3-1.2,14-1.8c9.3-1,18.7-1.8,28.1-2.7c0,0,0,0,0.1,0c0.5-0.1,1.1-0.1,1.6-0.2c1.9-2.5,4.5-5.8,7.9-9.9
		c7.5-9.1,18.9-21.6,33.6-35.5c14.5-14,31.6-30.2,50.2-47.3c9.3-8.5,18.9-17.3,28.8-26.2c9.8-8.9,20-17.8,30.1-26.7
		c20.2-17.9,40.6-35.3,59.8-51.8c9.5-8.3,19.2-15.9,28.8-22.4c9.6-6.7,18.3-13.3,26.3-19.5c16-12.4,29.3-22.7,38.7-29.9
		c9.3-7.3,14.6-11.4,14.6-11.4l2.1,2.3c0,0-5,4.6-13.7,12.5c-3.8,3.5-8.3,7.6-13.3,12.4c0,0.1-0.1,0.1-0.2,0.1
		c-6.5,6.1-13.9,13.1-22,20.9c-7.3,6.9-15.2,14.5-23.1,23c-4,4.2-8.1,8.5-12.5,12.7c-4.3,4.2-9,8.3-13.7,12.5
		c-18.8,16.8-38.9,34.7-59,52.6c-10,9-20,17.9-29.9,26.7c-9.9,8.8-19.7,17.4-29.1,25.8c-19,16.6-36.6,32.2-51.8,45.5
		c-8.2,7.2-15.8,13.5-22.6,18.9c-5.8,4.6-11.1,8.5-15.5,11.7c-0.9,0.6-1.8,1.2-2.7,1.9c-0.2,0.1-0.3,0.2-0.4,0.3
		c2.6-0.2,5.2-0.4,7.7-0.7c5.5-0.3,11-0.6,16.5-0.9c8.5-0.5,17.1-1,25.7-1.5c0.1-0.2,0.2-0.4,0.4-0.6c0.7-1.3,1.6-2.7,2.4-4.2
		c1.7-2.9,3.5-6.2,6-9.8c2.4-3.6,4.9-7.9,8.1-12c1.5-2.1,3.5-4,5.4-6s4-4.1,6.1-6.3c2.1-2.1,4.2-4.4,6.5-6.6s4.6-4.4,7.1-6.8
		c2.4-2.3,4.9-4.7,7.5-7.1c2.6-2.3,5.3-4.7,8.1-7.2c2.7-2.4,5.6-4.9,8.4-7.5c2.9-2.4,5.9-4.9,9-7.4c3-2.5,6.1-5.1,9.3-7.7
		s6.4-5.1,9.7-7.7c13.2-10.4,27.4-20.9,42.1-31.7c14.6-10.7,29.8-21.8,45.2-33.1c15.4-11.2,30.6-22.9,45.5-34.9
		c7.4-6,14.9-12,21.9-18.3c7.2-6.1,14.2-12.5,21-19c13.8-12.9,26.9-26.4,41-38.4c7-6,14.2-11.6,21.6-16.8c3.7-2.6,7.3-5,11.1-7.4
		c3.7-2.2,7.2-4.5,11.1-6.6c14.9-8.6,29.3-15.7,42.9-21.5c13.6-5.9,26.5-10.4,38-13.8c6.1-1.9,11.8-3.4,17.1-4.7
		c4.7-1.2,9.1-2.1,13.1-2.9c4.2-0.9,8-1.6,11.3-2.1c3.3-0.6,6.1-1.1,8.4-1.3c4.6-0.7,7-1.1,7-1.1l0.5,3c0,0-2.4,0.3-7,1
		c-2.3,0.3-5.1,0.8-8.3,1.4c-3.3,0.6-7,1.4-11.2,2.3c-8.3,2-18.3,4.7-29.4,8.7c-11.1,4.1-23.4,9.3-36.2,16
		c-6.4,3.2-12.9,7.2-19.4,11.2c-6.4,4.4-13,9-19.2,14.2c-3.1,2.4-6.3,5.3-9.6,8.1c-3,2.7-6.2,5.6-9.3,8.5
		c-6.2,5.9-12.4,12.1-18.7,18.4c-12.7,12.6-26,25.7-39.8,39.1c-6.9,6.7-14,13.3-21.4,19.8c-7.3,6.6-14.8,12.8-22.4,19.1
		c-15.3,12.3-31,24-46.6,35.2c-15.5,11.3-31,22-45.9,32.3c-14.9,10.4-29.2,20.5-42.4,30.4c-3.3,2.4-6.6,4.9-9.8,7.3
		s-6.3,4.9-9.4,7.3c-3.1,2.4-6.1,4.7-9,7.1c-2.9,2.3-5.7,4.7-8.5,7s-5.4,4.5-8.1,6.7c-2.5,2.3-5,4.5-7.4,6.7
		c-2.5,2.2-4.8,4.3-7.1,6.4c-1.9,1.7-3.6,3.5-5.4,5.2c-0.3,0.4-0.7,0.7-1.1,1c-4.1,4-8,7.8-11.7,11.3c-3.6,3.4-7.4,6.2-10.7,8.8
		c-2.1,1.6-4,3.2-5.6,4.7c-0.8,0.7-1.5,1.4-2.3,2.1c10.5-0.2,21-0.5,31.5-0.7c2.7-0.1,5.4-0.2,8.1-0.2c1.2-2,2.5-4.2,4.1-6.6
		c1.8-2.8,4-5.9,6.5-9.1c6.5-8.2,15.3-17.5,26.5-26.8c11.1-9.4,24.4-19.1,39.5-28.6c15-9.6,31.8-19.2,49.1-29.1
		c17.4-10,35.2-20.7,52.3-33c8.7-6.3,16.9-12.7,25.3-19.8c8.4-7,16.7-14.4,25-22c16.8-15.2,33.5-31.4,51.5-46.9
		c4.4-3.9,9-7.7,13.6-11.5l3.5-2.8l0.9-0.7l1.1-0.9l1.7-1.4l13.9-10.5c2.3-1.7,4.9-3.4,7.4-5.1c5-3.3,10-6.8,15-9.9
		c20.1-12.5,40.9-22.9,61.3-32c20.4-9.2,40.5-16.9,59.5-24.3c19-7.2,37-13.9,53.8-19.6c33.5-11.5,61.7-20,81.4-26.1
		c11.8-3.7,20.6-6.4,25.7-7.9C2965.8,0.8,2967.6,0.2,2967.6,0.2z M3144.7,582.2c2.6,0.9,5,1.8,7.3,2.6h0.1c0,0,0.8,0.2,2.3,0.8
		c2,0.7,3.8,1.3,5.5,1.9c3.1,1,5.6,1.9,7.8,2.7c-1.5-1.3-2.8-2.3-3.8-3.2c-1.5-1.4-2.3-2.2-2.3-2.2l0.1-0.4
		c-1.2-0.1-2.5-0.2-3.6-0.4C3153.2,583.5,3148.8,582.9,3144.7,582.2z M2070.7,406.4c3.4-0.7,6.8-1.4,10.3-2.1c0.2,0,0.4-0.1,0.6-0.1
		c5.6-1.2,11.4-2.3,17.2-3.5c1.2-3.6,2.9-8,5.5-12.9c1.7-3.3,3.7-6.8,6.2-10.5c2.4-3.8,5.4-7.5,8.6-11.5c6.3-8.1,13.4-17.2,21.4-27
		c1.2-1.5,2.5-3.1,3.8-4.7c6.8-8.4,14.2-17.4,22-26.8c4.6-5.6,9.4-11.3,14.3-17c2.9-3.4,5.9-6.9,8.9-10.4c2.1-2.4,4.1-4.8,6.2-7.2
		c10.4-11.8,21.1-24.1,32.3-36.3c4.1-4.6,8.4-9.2,12.6-13.8c7.1-7.7,14.2-15.4,21.4-23c11.7-12.1,23.3-24.2,35-35.9
		c11.5-11.9,23.3-23.1,34.6-34.1c2.5-2.3,4.9-4.7,7.4-7c0.1-0.1,0.2-0.2,0.3-0.3c-2.1,0.5-4.2,1.1-6.4,1.7c-1.9,0.6-3.8,1.1-5.8,1.8
		c-9.3,3-18.9,6.7-28.4,11.6c-2.8,1.6-5.5,2.9-8.4,4.8c-1.4,0.9-2.9,1.7-4.4,2.7c-1.2,0.7-2.7,1.8-4,2.7c-5.5,3.9-10.8,8.2-15.9,13
		c-10.3,9.5-19.8,20.6-29.1,32.3c-9.3,11.8-18.5,24.2-27.8,36.4l-27.9,36.4c-9.3,12-18.3,23.9-27.1,35.3
		c-17.6,22.9-34.3,44-48.4,62.3c-5.6,7.2-10.8,13.9-15.6,20.1c-1.3,1.7-2.5,3.2-3.7,4.8C2080.5,395.4,2075.6,401.8,2070.7,406.4z
		 M2036.5,365.8c-5.8,8.8-11.7,17.7-17.8,26.4c-5.6,8.9-11.5,17.8-17.4,26.7c-1,1.7-2,3.3-3.1,5c5.4-1.5,10.9-3,16.5-4.4l0.3-0.4
		c1.8-3.1,5.1-8.8,9.7-16.5c3.6-6.1,8.2-13.4,13.4-21.8c5.2-8.3,11.3-17.7,18-27.8c6.7-10.1,14-21.1,21.8-32.5
		c7.8-11.5,16.1-23.7,24.6-36.2c13.1-19.3,27-39.5,41-60.1c-3.9,4.8-7.8,9.5-11.7,14.2l-19.9,24.9l-19.4,25.2l-15.8,21.1l-3.2,4.4
		c-6.1,8.7-12.5,17.1-18.7,25.7l-9,13.1L2036.5,365.8z M1953,437.6c4.1-1.4,8.3-2.7,12.6-4.1c2.7-0.8,5.3-1.6,8-2.5
		c4.9-1.5,9.7-2.9,14.7-4.4c1.6-4,3.2-8,4.9-12c1.1-2.5,2.3-4.8,3.4-7.3l0,0c3.4-7.3,6.9-14.7,10.5-21.9c4-7.8,8.2-15.5,12.5-23.2
		c-5.7,6.5-11.5,13.1-17.4,19.7c-4.4,4.9-8.8,9.9-13.1,14.8l-21.2,23.8c-4.7,5.3-9.1,10.3-13.1,14.8
		C1954.2,436.2,1953.6,436.9,1953,437.6z M1888.5,462.6c0.5-0.3,1-0.5,1.5-0.7c6.2-2.7,12.6-5.5,19.2-8.2c0.4-1.2,0.8-2.4,1.3-3.8
		c1.5-4.4,3.2-9.1,5.1-14c1.2-3.4,2.6-7,3.9-10.6c1.5-3.6,2.9-7.4,4.5-11.3c3-7.7,6.5-15.8,10.1-24.1c3.8-8.3,7.6-16.8,11.9-25.4
		c0.3-0.5,0.5-1.1,0.8-1.6c-0.1,0.2-0.3,0.4-0.4,0.5c-2.5,3.1-5.1,6.5-7.6,10.2c-1.6,2.4-3.5,4.7-5.1,7.2s-3.3,5.1-5.1,7.7
		c-1.8,2.6-3.4,5.4-5.1,8.1c-1.7,2.8-3.4,5.5-5.1,8.4c-3.3,5.7-6.6,11.5-9.7,17.4c-3.2,5.8-6.1,11.9-9.2,17.7
		c-2.9,6-5.8,11.7-8.6,17.5c-0.3,0.7-0.7,1.3-1,2C1889.6,460.5,1889,461.5,1888.5,462.6z M2576.6,393.4c0.5-0.6,0.9-1.2,1.4-1.8
		l-1.1,0.8C2576.8,392.7,2576.7,393,2576.6,393.4z M2460.8,380.5l12.1,1l17.1,1.4c0,0,0,0,0.1,0c2,0.2,4.1,0.4,6.1,0.6
		c8.3-7.1,17.6-13,27.1-18.1c11.3-5.9,23.1-10.6,34.9-15.5c11.7-4.8,23.6-9.4,35.4-13.9l35.4-13.2c11.7-4.4,23.4-8.8,34.9-13.4
		c5.6-2.2,11.6-4.8,17.3-7.1l17.1-7.4c2.7-1.2,5.3-2.3,7.8-3.4c-10.9,2.9-21.9,5.6-32.7,8.1c-5.4,1.3-10.6,2.5-16,3.8
		c-7.9,1.8-15.7,3.7-23.5,5.6c-13,3.3-25.7,6.9-38.3,11.1l-9.4,3.1c-3.1,1.1-6,2.1-9.3,3.3l-19,7.4c-12.8,4.7-25.4,9.4-37.8,14.4
		c-12.4,5.1-24.5,10.4-36,16.8C2476,369.5,2468.1,374.6,2460.8,380.5z M2240.4,222.6c-17,19.1-34.1,38.2-51.1,57.3
		c2.1-2.4,4.1-4.8,6.2-7.2c10.4-11.8,21.1-24.1,32.3-36.3C2232,231.9,2236.2,227.2,2240.4,222.6z M2240.4,222.6
		c-17,19.1-34.1,38.2-51.1,57.3c2.1-2.4,4.1-4.8,6.2-7.2c10.4-11.8,21.1-24.1,32.3-36.3C2232,231.9,2236.2,227.2,2240.4,222.6z
		 M2240.4,222.6c-17,19.1-34.1,38.2-51.1,57.3c2.1-2.4,4.1-4.8,6.2-7.2c10.4-11.8,21.1-24.1,32.3-36.3
		C2232,231.9,2236.2,227.2,2240.4,222.6z M2240.4,222.6c-17,19.1-34.1,38.2-51.1,57.3c2.1-2.4,4.1-4.8,6.2-7.2
		c10.4-11.8,21.1-24.1,32.3-36.3C2232,231.9,2236.2,227.2,2240.4,222.6z M2240.4,222.6c-17,19.1-34.1,38.2-51.1,57.3
		c2.1-2.4,4.1-4.8,6.2-7.2c10.4-11.8,21.1-24.1,32.3-36.3C2232,231.9,2236.2,227.2,2240.4,222.6z M2240.4,222.6
		c-17,19.1-34.1,38.2-51.1,57.3c2.1-2.4,4.1-4.8,6.2-7.2c10.4-11.8,21.1-24.1,32.3-36.3C2232,231.9,2236.2,227.2,2240.4,222.6z
		 M2240.4,222.6c-17,19.1-34.1,38.2-51.1,57.3c2.1-2.4,4.1-4.8,6.2-7.2c10.4-11.8,21.1-24.1,32.3-36.3
		C2232,231.9,2236.2,227.2,2240.4,222.6z M2240.4,222.6c-17,19.1-34.1,38.2-51.1,57.3c2.1-2.4,4.1-4.8,6.2-7.2
		c10.4-11.8,21.1-24.1,32.3-36.3C2232,231.9,2236.2,227.2,2240.4,222.6z"/>
	<path class="st1" d="M1815.7,699.3c2,12.7,4.9,25.5,7.5,38.3c3.3,12.7,5.9,25.6,9.7,38c1.8,6.2,3.3,12.5,5.3,18.5
		c1.9,6.1,3.8,12.1,5.7,17.9c1.8,5.9,4.1,11.6,6.1,17.2s3.8,11.2,6,16.4c4.3,10.5,7.9,20.7,12.2,29.7c2,4.6,4,8.9,5.8,13.1
		c1.9,4.1,3.8,7.9,5.6,11.6c3.5,7.3,6.6,13.7,9.6,18.8c1,1.8,1.9,3.5,2.8,5.1c-5.1-7.4-9.6-15.2-13.8-22.1
		c-15.9-26.2-29.6-53.6-41.1-81.9c-23.1-56.5-37.1-116.3-41.5-176.6c-1.2-17-1.7-34.1-1.3-51.2c0.2-8.4,0.5-16.8,1-25.2
		c0.5-6.9,3.8-17.6,2.2-24.3c2.3,9.9,4.6,19.7,7,29.6c0,0,0,0,0,0.1c0.3,3,0.4,6.2,0.6,9.6c0.4,4.4,0.6,9.1,0.6,13.9
		c-0.1,9.7,0.7,20.2,1.3,31.3c0.2,5.6,1,11.3,1.4,17.1c0.6,5.8,0.9,11.8,1.8,17.9c0.8,6,1.6,12.2,2.4,18.4
		C1813.3,686.7,1814.7,693,1815.7,699.3z"/>
	<path class="st1" d="M1857.4,597.7c2.8,9.3,5.9,19.1,9.1,29.2c3.4,10,6.7,20.5,10.5,31c3.7,10.6,7.7,21.1,11.6,31.7
		c4.3,10.5,8.1,21.2,12.6,31.4c2.3,5.1,4.3,10.3,6.5,15.3c2.3,5,4.5,9.9,6.7,14.8c2.1,4.9,4.5,9.5,6.7,14.2
		c2.3,4.6,4.3,9.2,6.6,13.5c4.6,8.6,8.7,17,13,24.4c2.1,3.7,4.1,7.3,6,10.8c1.9,3.4,3.9,6.5,5.7,9.5c1.5,2.4,3,4.8,4.3,7
		c-67.1-87.4-112.8-190.4-131.6-297.4c-0.9-5.3,0.3-13.1,5.8-12.5c3.3,0.4,5.1,4,6.3,7.1c1.2,3,2.4,5.9,3.5,9
		c-0.5-0.9-0.9-1.9-1.3-2.8c1.1,4.5,2.5,9.6,4.1,15.5c1.7,6.7,3.9,14.1,6.2,22.3C1851.9,579.6,1854.6,588.4,1857.4,597.7z"/>
	<path class="st1" d="M1880.2,518.6c1.4,2.6,2.8,5.3,4.3,8.2c2.9,5.7,6.3,11.9,9.8,18.4c1.7,3.3,3.7,6.5,5.7,9.9
		c2,3.3,3.8,6.9,6,10.3c4.2,7,8.6,14.1,13.3,21.3c4.5,7.3,9.6,14.4,14.3,21.7c5.1,7.1,10,14.4,15.2,21.3c5.1,7,10.3,13.8,15.3,20.4
		c5.2,6.5,10,12.9,14.9,18.8s9.5,11.5,13.9,16.6c2.2,2.6,4.3,5,6.3,7.4c2.1,2.3,4,4.4,5.8,6.5c3.6,4.1,6.8,7.8,9.5,10.7
		c5.5,5.9,8.5,9.4,8.5,9.4l-1.5,1.9c-59.5-54.5-111.7-116.8-154.6-184.7c-4-6.3-7.9-12.9-8.6-20.2c-0.7-7.3,3-15.4,10.1-17.3
		c3.2,4.7,6.4,9.4,9.6,14.1C1878.6,515.1,1879.4,516.8,1880.2,518.6z"/>
	<path class="st1" d="M1895.8,473.3c2.9,3.3,5.9,6.6,8.9,9.9c-0.2,0.1-0.4,0.2-0.7,0.3c2.7,3.6,5.9,7.8,9.6,12.4
		c3,4,6.3,8.2,9.8,12.7c3.5,4.5,7.2,9.2,11,14.2c3.9,4.8,7.9,9.8,11.9,15c4.1,5.1,8.3,10.2,12.4,15.3c4.3,5,8.5,10.2,12.7,15.1
		c4.3,5,8.5,9.8,12.6,14.5c4.1,4.6,8.2,9.1,12.1,13.3c3.9,4.1,7.6,8.2,11.1,11.7c1.8,1.8,3.4,3.5,5,5.2c1.6,1.6,3.2,3.1,4.6,4.5
		c2.9,2.9,5.4,5.5,7.7,7.6c4.4,4.1,6.8,6.6,6.8,6.6l-0.5,0.8c-42.7-35-82.3-73.8-118.1-115.5C1902.1,504.4,1891,488.6,1895.8,473.3z
		"/>
	<path class="st1" d="M1947,459.3c2,1,3.7,2.6,5.2,4.3c-1.2,0.4-2.3,0.8-3.4,1.2l0.1,0.1c1.9,2.3,4.1,5,6.4,7.8
		c4.7,5.8,10,12.4,15.5,19.7c2.8,3.6,5.7,7.3,8.6,11.2c2.8,3.9,5.9,7.6,8.7,11.6c11.6,15.6,23.3,31.3,32,43.1c2.2,3,4.2,5.7,6.1,8.2
		c1.8,2.5,3.4,4.7,4.7,6.5c2.7,3.6,4.1,5.8,4.1,5.8l-0.7,0.8c-37.2-31.2-69.5-68.1-95.3-109c-1.6-2.5-3.2-5.4-2.4-8.2
		C1937.8,458.6,1943.3,457.5,1947,459.3z"/>
	<path class="st1" d="M2005.9,446.1c-2.7,0.8-5.4,1.6-8,2.4c0.4,0.4,0.7,0.8,1.1,1.2c2.7,2.7,5.4,5.9,8.7,9c1.6,1.6,3.2,3.3,4.9,4.9
		c1.8,1.6,3.6,3.3,5.3,5.1c3.7,3.5,7.6,6.9,11.6,10.5c2,1.8,4,3.6,6.1,5.4s4.2,3.5,6.3,5.4c4.1,3.7,8.5,7.1,12.7,10.8
		c4.2,3.5,8.4,7.1,12.5,10.4c2.1,1.7,4,3.4,6,5.1c2,1.6,3.9,3.2,5.8,4.8c3.7,3.2,7.3,6.2,10.6,9s6.3,5.4,9,7.7c2.7,2.4,5,4.5,7,6.2
		c0.1,0.1,0.3,0.2,0.4,0.3c-13.8-6.7-27.7-13.4-41.2-20.8c-33.8-18.4-66.5-41.8-86.3-74.5C1986.2,444.1,1996.3,443.6,2005.9,446.1z"
		/>
	<path class="st1" d="M2061,431.4c-0.3,0.1-0.7,0.2-1,0.3c1.2,0.9,2.3,1.9,3.6,2.9c2.8,2.4,5.8,4.8,8.8,7.5s6.1,5.4,9.2,8.3
		c3.1,2.9,6.2,5.9,9.2,8.9c3,3.1,6,6.1,8.9,9.3c2.9,3.1,5.7,6.2,8.3,9.3c5.2,6.1,9.9,12,13.7,17.3c3.9,5.2,6.9,9.8,8.8,13.1
		c2,3.2,3.1,5.2,3.1,5.2l-1,1.1c-31.5-28.4-63-56.9-94.5-85.4C2045.8,427.9,2053.5,428.8,2061,431.4z"/>
	<path class="st1" d="M2156.3,443.9c4.3,3.3,8.5,6.8,12.7,10.4c8.3,7.2,16.4,14.7,23.5,22.1c3.6,3.7,7,7.4,10.1,10.9
		c3.1,3.6,6,7,8.6,10.2c5.2,6.4,9.3,12.1,11.9,16.1c1.3,2,2.4,3.6,3.1,4.7c0.7,1.1,1.1,1.7,1.1,1.7l-2.1,2.2c0,0-0.6-0.3-1.8-0.9
		s-2.8-1.5-5-2.7c-1.1-0.6-2.3-1.3-3.7-2.1c-32.7-35.6-69-68.1-108.2-96.7c4.6-0.4,9.1-0.1,13.4,0.7c3.7,1.4,7.5,3.3,11.4,5.5
		c4.1,2.3,8.1,5.3,12.4,8.3C2147.8,437.4,2152.2,440.5,2156.3,443.9z"/>
	<path class="st2" d="M1792.5,542.6c-9,50.3-3.5,104.9,5.6,155.3c8.8,48.9,23.8,96.9,45.1,142.2c11.6,24.8,24.7,50.8,41.7,72.6
		c0.6,0.8,1.8-0.2,1.4-1c-12.3-21.2-25.7-41.3-36.5-63.3c-11.1-22.5-20.9-45.6-28.5-69.5c-15.4-48.4-24.4-97.7-27-148
		c-1.5-29.4,0.4-58.5,2.5-87.7C1796.9,540.8,1793,540.2,1792.5,542.6z"/>
	<path class="st2" d="M1818.7,529.5c4,42.8,17.2,86.1,32.9,126.3c16.2,41.4,36.9,81.1,61.7,118.3c13.6,20.4,27.9,41.6,45.4,59
		c0.8,0.8,2-0.3,1.3-1.2c-13.2-18.2-27.8-35.3-40.5-53.9c-12.2-17.9-23.3-36.6-33.4-55.8c-20.6-38.9-36.4-80-48.1-122.1
		c-6.5-23.7-10.7-47.6-15.5-71.5C1822,526,1818.5,527.2,1818.7,529.5z"/>
	<path class="st2" d="M1851.8,503.6c2.2,20.5,14.6,39.7,25.1,57.3c11.3,19.1,24.6,37.4,38.2,55c13.9,17.9,28.7,35.1,44.6,51.3
		c15.3,15.7,31.6,32.4,49.8,44.9c1.2,0.8,2.8-1,1.7-2c-15.8-15-32.8-28.5-48.1-44.1c-15.2-15.5-29.6-31.9-42.8-49.1
		c-13.8-17.9-25.7-36.7-37.3-56c-10.7-17.9-23.8-37.6-28.2-58C1854.4,500.8,1851.6,501.7,1851.8,503.6z"/>
	<path class="st2" d="M1880.7,487.3c14.6,30.1,40.2,55.8,63.7,79.5c24.3,24.6,51.7,48,80.5,67.3c0.6,0.4,1.2-0.5,0.6-1
		c-55.3-40.7-106-88.8-141.9-147.4C1882.5,484,1879.9,485.5,1880.7,487.3z"/>
	<path class="st2" d="M1921.1,469.2c8.7,22.9,26.8,41.3,45.1,57.3c9.9,8.7,20.2,16.9,30.2,25.6c10.5,9.2,20.9,18.9,31.8,27.7
		c0.6,0.5,1.4-0.5,0.9-1c-19.3-18.4-40.4-34.9-59.6-53.5c-17.9-17.4-33.2-36.1-45-57.9C1923.2,465.2,1920.2,467.1,1921.1,469.2z"/>
	<path class="st2" d="M2022.7,508.9c-11.4-7.5-22.1-16.3-31.9-25.8c-10.1-9.8-17.6-20.8-25.9-31.9c-1.3-1.7-3.6,0.4-2.9,2.1
		c10.4,24.9,35.1,44.1,57.8,57.6c25.4,15.1,54.1,28.2,82.3,37c1.1,0.3,1.5-1.2,0.5-1.7C2075.6,534,2047.7,525.3,2022.7,508.9z"/>
	<path class="st2" d="M2056.9,447.4c-7.8-5.2-16.5-13.1-25.6-15.6c-0.8-0.2-1.3,0.7-0.9,1.4c5.5,7.2,15.5,12.1,22.9,17.2
		c8.3,5.7,16.8,11.3,25.2,17c17.5,11.9,33,25.8,46,42.4c0.8,1,2.2-0.4,1.4-1.3c-12.8-15.6-27.1-30.1-43-42.7
		C2074.5,459.2,2065.8,453.3,2056.9,447.4z"/>
	<path class="st2" d="M2100.4,417.4c-1.4-0.8-3.2,1.1-1.9,2.3c18,16.2,38.7,29.8,58.4,43.9c9.8,7,19.7,13.9,28.5,22
		c9,8.3,16.1,17.4,23.2,27.3c0.6,0.9,2-0.2,1.5-1.1c-10.1-19.4-30.1-34.2-47.1-47.6C2142.7,448.1,2122.5,430.9,2100.4,417.4z"/>
	<path class="st1" d="M2175.2,408.9c-3.8,0.6-7.6,1.1-11.3,1.7c4.1,1.2,8.6,2.8,13.3,4.8c5,2.1,10.1,4.7,15.4,7.7
		c5.3,3,10.6,6.6,16,10.4s11.1,7.7,16.6,11.9c5.6,4.1,11.2,8.4,16.8,12.7c5.6,4.3,11.1,8.8,16.4,13.2c5.3,4.5,10.5,8.9,15.5,13.4
		c5,4.4,9.7,8.8,14.1,13c4.4,4.2,8.5,8.2,12.2,12.1c7.5,7.6,13.5,14.3,17.5,19c2,2.4,3.6,4.3,4.7,5.6c1,1.3,1.6,2,1.6,2l-1.9,2.4
		c0,0-0.8-0.4-2.4-1.1c-1.5-0.7-3.7-1.8-6.5-3.2c0,0,0,0-0.1,0c-41.6-49.7-100.6-85.9-157.4-119.8c17.2-15.9,42.2-23.4,66-19.8
		c-1,2.6-1.6,5.3-1.8,8c-4.6,0.5-9.2,1-13.8,1.6C2195.8,405.9,2185.4,407.4,2175.2,408.9z"/>
	<path class="st1" d="M2337.7,478.6c12.3,12.6,24.2,25.5,34.9,38c4.3,5,8.4,10,12.3,14.8c-7.5-5.3-15.2-10.5-22.7-15.7
		c-45.8-31.7-87.8-68.8-124.8-110.2c5.1-1.4,10.2-1.8,15.3-1.2c2,1,3.9,2.2,6,3.6c2.5,1.7,4.9,3.7,7.5,5.8
		c5.1,4.1,10.6,8.7,16.4,13.6c5.8,4.9,11.7,10.2,17.9,15.7c6.1,5.5,12.4,11.3,18.6,17.3C2325.4,466.1,2331.5,472.5,2337.7,478.6z"/>
	<path class="st1" d="M2345.2,392c1.2,0.6,2.4,1.2,3.6,1.8c-4.1,0.1-8.1,0.2-12.2,0.4c-5.6,0.2-11.2,0.4-16.8,0.7
		c2.2,1.2,4.3,2.5,6.6,3.8c2.1,1.2,4.3,2.3,6.4,3.7c2.1,1.3,4.2,2.7,6.4,4.1c4.3,2.8,8.7,5.7,13.3,8.7c4.4,3.2,8.9,6.5,13.5,9.9
		c2.3,1.7,4.6,3.4,6.9,5.1c2.2,1.8,4.5,3.7,6.8,5.6c4.5,3.7,9.2,7.5,13.8,11.4c4.5,4,9,8.1,13.6,12.2s8.9,8.5,13.4,12.8
		c4.4,4.4,9,8.6,13.1,13.2c4.2,4.5,8.5,9,12.7,13.6c4.2,4.5,8.1,9.3,12.1,13.8c8.1,9.1,15.4,18.6,22.6,27.6
		c3.5,4.6,6.9,9.2,10.2,13.6c3.3,4.5,6.5,8.8,9.5,13.2c6,8.7,11.6,16.9,16.4,24.7c2.4,3.9,4.7,7.6,7,11.2c2.1,3.6,4.1,7.1,5.9,10.3
		c3.7,6.5,7,12,9.3,16.8c4.9,9.4,7.6,14.9,7.6,14.9l-0.4,0.3c-40.9-62.7-90.6-120-147.3-169.5c-33.1-28.9-68.4-55.1-103.8-81.3
		C2308.6,383.5,2329.1,384.4,2345.2,392z"/>
	<path class="st1" d="M2444.6,420.1c9.2,5.7,18.6,12.3,28,19.3c9.4,7.1,18.9,14.7,28,23.1c6.3,5.6,12.3,11.5,18.3,17.5
		c-52.4-13.6-100.1-46.5-130.8-91c5.4,1.4,10.8,2.9,16.1,4.7c-0.1,0-0.1,0-0.2,0c-3.4-0.1-6.9-0.2-10.3-0.2c0.3,0.1,0.5,0.2,0.8,0.3
		c7.2,3,15.1,6.6,23.5,11.1C2426.6,409.1,2435.4,414.3,2444.6,420.1z"/>
	<path class="st1" d="M2415.6,397.7c38.5,14.8,73,38.8,105.9,65.4c-5.1-2.8-10.1-5.6-15-8.4c-5.3-3.1-10.5-6-15.6-8.9
		c-10.1-5.9-19.6-11.5-28.4-16.7c-4.4-2.6-8.6-5.1-12.6-7.5c-4.1-2.3-7.9-4.5-11.5-6.6c-7.1-4.3-13.1-8.8-17.9-12.8
		C2418.7,400.7,2417.1,399.2,2415.6,397.7z"/>
	<path class="st1" d="M2646.4,495.1c11.1,8.1,21.5,16.8,31.8,24.9c10,8.4,19.7,16.5,28.6,24.6c4.4,4,8.7,8,12.9,11.7
		c4.1,3.8,8,7.7,11.8,11.2c3.7,3.6,7.3,7.1,10.7,10.5c3.3,3.4,6.5,6.6,9.4,9.7c5.9,6.1,10.9,11.5,15,16c8,9,12.5,14.3,12.5,14.3
		l-2,2.2c0,0-3.9-2.6-11-7.4c-91.4-84-193-157-301.8-217c9.7-0.9,19.2,0,28.6,2.1c-1.2-0.1-2.5-0.2-3.7-0.3l-15.6-1
		c1.2,0.5,2.4,0.9,3.7,1.4c4.9,1.9,10.1,3.7,15.3,5.9c5.2,2.2,10.6,4.4,16.2,6.8c5.5,2.4,11.1,5,16.8,7.8s11.5,5.7,17.2,8.7
		c5.8,3.1,11.6,6.4,17.4,9.8c5.9,3.2,11.7,7,17.5,10.6c11.8,7.2,23.3,15.1,35,22.9C2624,478.8,2635.5,486.7,2646.4,495.1z"/>
	<path class="st1" d="M2554,425.6c53.6,31.2,107.6,63.5,156.6,101.3c-2.4-1.3-4.8-2.7-7.2-4c-11.7-6.4-23.2-13.1-34.4-19.8
		c-11.1-6.8-22.2-13.4-32.6-20.2c-5.2-3.4-10.4-6.6-15.4-9.9s-9.9-6.6-14.7-9.7c-9.5-6.4-18.4-12.7-26.6-18.5c-4.1-3-8-5.8-11.7-8.6
		c-3.7-2.7-7.2-5.4-10.5-7.9c-1.3-1-2.6-2-3.8-2.9C2553.7,425.5,2553.8,425.6,2554,425.6z"/>
	<path class="st1" d="M2601.5,411.5c-16.5-2.8-33.1-4.9-49.8-7.2C2568.5,402.9,2585.2,405.9,2601.5,411.5z"/>
	<path class="st1" d="M2690.6,468.4c11.3,7.2,22.3,15.3,33.2,23.5c10.8,8.4,21.4,17,31.5,25.8c10.3,8.6,20,17.6,29.6,25.9
		c9.5,8.5,18.7,16.6,27.5,24.3c4.4,3.8,8.6,7.5,12.7,11.1c4.1,3.6,8,7.2,11.8,10.5c7.6,6.7,14.4,13,20.4,18.6s11.3,10.5,15.5,14.5
		c8.5,8.1,13.5,12.7,13.5,12.7l-1.1,1.3c-100.8-93.4-215.8-171.9-339.8-231.6c1.7-0.3,3.5-0.5,5.2-0.7l0,0
		c4.9,1.3,10.4,2.9,16.5,4.8c8,2.4,16.9,5.5,26.5,9.3c4.8,1.8,9.7,3.9,14.8,6c5,2.2,10.3,4.5,15.6,7c10.7,4.9,21.6,10.6,32.8,16.7
		C2668,454.4,2679.4,461.1,2690.6,468.4z"/>
	<path class="st1" d="M2854.1,527.4c11,7.8,21.6,15.8,31.9,23.6c10.1,7.9,19.9,15.5,29.1,22.9c9.2,7.3,17.7,14.5,25.5,21.2
		c3.9,3.3,7.6,6.5,11.2,9.6c3.5,3.1,6.8,6.1,9.9,8.9c6.2,5.6,11.6,10.4,15.9,14.5c8.7,8.2,13.6,12.9,13.6,12.9l-2,2.3
		c0,0-5.5-4.1-15.1-11.2l-1.3-1c-82.9-78.6-195.3-125.2-281.8-201.7c17.2,0,33.6,4.9,49.3,12.3c-1.4-0.4-18-4.9-19.5-5.3
		c-10.3-3.1-5.6-1.3-16.2-3.9c-0.8-0.2-1.6-0.4-2.4-0.6c5.9,3.2,11.9,6.6,18.2,10.1c10.4,5.7,21,12,32.1,18.6
		c11,6.7,22.4,13.5,33.7,20.9c11.4,7.2,22.8,14.9,34.3,22.4C2831.9,511.6,2843.2,519.4,2854.1,527.4z"/>
	<path class="st1" d="M2893.3,505.5c10.8,7.3,21.5,15.2,32.2,23.1c10.5,8.1,21,16.2,31,24.6c10.1,8.2,19.7,16.8,29,25
		c9.1,8.4,17.9,16.5,25.9,24.6c8,8,15.7,15.5,22.3,22.9c3.4,3.6,6.6,7.1,9.6,10.4c3,3.4,5.8,6.6,8.5,9.6c5.3,6,9.9,11.4,13.4,15.8
		c7.2,8.9,11.3,14.1,11.3,14.1l-2.2,2c0,0-4.9-4.4-13.5-12.1c-0.9-0.8-1.8-1.7-2.7-2.6c-62.5-76.7-149.7-133.8-234.2-188.2
		c8.5-0.4,17,0.4,25.3,2.1c4,2.4,8.1,4.8,12.1,7.4C2871.7,491.1,2882.6,498,2893.3,505.5z"/>
	<path class="st1" d="M2859.1,479.4c6.1,1.7,12.2,3.9,18.1,6.5C2871.2,483.7,2865.2,481.6,2859.1,479.4z"/>
	<path class="st1" d="M2985.5,530.9c2.5,0.3,4.9,0.8,7.3,1.4c0.5,0.4,0.9,0.9,1.4,1.3c5.5,5.2,11.5,10.7,18,16.5
		c6.4,5.8,13.3,11.8,20.4,18.1c7.2,6.1,14.5,12.6,22.2,19s15.4,12.9,23.2,19.3c7.9,6.3,15.7,12.8,23.6,19c7.7,6.4,15.6,12.3,23,18.3
		c15.1,11.7,29.2,22.7,41.2,32.1c10.4,8.1,19.3,15,26,20.3c-45.1-24-87.2-53.4-128.8-83.1C3031.9,590.7,2999.4,566.1,2985.5,530.9z"
		/>
	<path class="st1" d="M3182.4,644c16,10.6,26.7,17.6,26.7,17.6l-1.4,2.7c0,0-2.9-1.2-8.1-3.4c-2.4-1-5.1-2.2-8.3-3.7
		c-29.3-16.9-57.9-35.1-85.6-54.5c-4.7-3.3-9.8-9.8-5.7-13.6c1.3-1.1,2.9-1.5,4.5-1.3c1.9,1.5,3.9,3.1,5.9,4.6
		c4.8,3.9,9.9,7.7,14.9,11.5c5.1,3.7,10.2,7.5,15.2,11.2s10.1,7.1,15,10.6c4.9,3.4,9.6,6.7,14.1,9.7
		C3174.2,638.5,3178.5,641.4,3182.4,644z"/>
	<path class="st1" d="M3279.3,674.7c13.9,10.3,23.2,17.4,23.2,17.4l-1.3,2c-37.4-26.2-74.7-52.3-112.1-78.5c4.5,0.4,9,1,13.4,2
		c8.3,6.2,17.1,12.8,25.9,19.4C3246.8,650.7,3265.4,664.4,3279.3,674.7z"/>
	<path class="st1" d="M3377.6,687.3c4,3,7.6,5.6,10.4,7.8c5.7,4.5,9,7.1,9,7.1l-0.6,0.8c-74-47.2-152.8-87-234.7-118.4
		c15-2.2,30.1,0.8,44.9,5.1c-1.8-0.3-3.6-0.5-5.4-0.7c0.8,0.3,1.7,0.6,2.5,0.9c5.8,2.3,11.9,5.1,18.5,7.9c6.5,2.8,13.3,6.1,20.4,9.4
		c7,3.4,14.3,6.9,21.5,10.7c7.3,3.7,14.6,7.6,22,11.5c14.6,8,28.9,16.4,42.2,24.5c6.6,4.2,12.9,8.2,18.8,12.1
		c6,3.9,11.5,7.7,16.6,11.3C3368.9,681,3373.5,684.3,3377.6,687.3z"/>
	<path class="st1" d="M3326.9,601.7c-31.4-6.3-62.8-12.6-94.2-18.9c4.8-0.3,9.6-0.6,14.5-0.9c0.1,0,0.2,0,0.3,0.1
		c8,1.6,15.9,3.2,23.7,5c7.8,1.7,15.5,3.5,22.8,5.4C3305.8,595.5,3317,598.6,3326.9,601.7z"/>
	<path class="st1" d="M3294,592.4c11.8,3.1,23,6.2,32.9,9.3c2.5,0.8,4.9,1.5,7.2,2.3c2.9,1,5.7,1.9,8.3,2.7c0.1,0,0.2,0.1,0.3,0.1
		c-64.2-8-127.9-21-190.3-38.6c2.2,0.1,4.5,0.4,6.9,0.6c12.1,1.3,26.1,3.1,41.2,5.2c7.5,1,15.3,2.3,23.2,3.7
		c7.8,1.2,15.7,2.8,23.6,4.2c0.1,0,0.2,0,0.3,0.1c7.9,1.6,15.9,3.2,23.7,5C3279,588.7,3286.6,590.5,3294,592.4z"/>
	<path class="st1" d="M3274.3,542.7c7.9,0.9,15.3,1.9,22.2,3c3.5,0.5,6.7,1,9.9,1.5c3.2,0.6,6.1,1.1,8.9,1.6
		c5.6,1,10.4,1.9,14.4,2.8c7.9,1.7,12.5,2.7,12.5,2.7l-0.5,3c0,0-4.6-0.5-12.6-1.4c-3.9-0.5-8.8-1-14.3-1.5c0,0,0,0-0.1,0
		c-64.8-12.1-130.8-16.6-196.3-13.2c3.9-1.8,7.9-3.4,11.9-4.7c3.5-0.1,7-0.1,10.5-0.2c8.6,0,17.6-0.1,26.7,0.1
		c9.1,0.1,18.4,0.4,27.6,0.6c9.3,0.3,18.5,0.7,27.6,1.3c9.1,0.5,18,1.2,26.7,1.9C3258,541,3266.4,541.8,3274.3,542.7z"/>
	<path class="st1" d="M3308,514c7.4,1.7,12,2.8,13,3c-58.4-4.5-116.7-8.9-175-13.4c-3.7-0.3-7.4-0.6-11.1-0.8
		c7.4,0.1,14.7,0.1,22.1,0.2c26,0.2,52,0.5,78,0.7c0.2,0,0.5,0,0.7,0c4.4,0.3,8.8,0.6,13,1.1c8.5,0.8,16.5,1.7,23.8,2.8
		c3.7,0.5,7.2,1,10.6,1.5c3.3,0.6,6.5,1.2,9.5,1.7C3298.6,512,3303.7,512.9,3308,514z"/>
	<path class="st1" d="M3314.1,469.2c12.1,1.1,23.2,2.4,33,3.4c0.3,0,0.6,0.1,0.8,0.1c-102.1-5.5-204.3-11-306.4-16.4
		c15.2,0,30.8,0.2,46.7,0.4c15.9,0.2,32.1,0.5,48.3,1.1c32.3,1.2,64.7,2.8,94.9,4.7c15.1,1,29.8,2,43.6,3.1
		C3289,466.9,3302,468.1,3314.1,469.2z"/>
	<path class="st1" d="M3135.7,419.2c16.5,0,32.7,0.8,48.4,1.3c7.9,0.5,15.5,0.9,23.1,1.4c7.5,0.4,14.9,0.9,22.1,1.7
		c7.2,0.6,14.2,1.3,20.9,1.8c6.7,0.7,13.2,1.4,19.5,2.2c6.2,0.8,12.2,1.5,17.9,2.2c5.7,0.8,11.1,1.6,16.1,2.3c5,0.7,9.8,1.4,14.2,2
		c4.4,0.7,8.3,1.4,12,2c14.4,2.5,22.7,4,22.7,4l-0.4,3c0,0-8.3-0.9-22.9-2.3c-3.6-0.4-7.6-0.9-12-1.3s-9.1-0.8-14.2-1.3
		c-5-0.4-10.4-0.9-16.1-1.4c-5.7-0.3-11.7-0.7-17.9-1.2c-6.2-0.3-12.7-0.9-19.4-1.2c-6.7-0.4-13.6-0.7-20.8-1
		c-7.1-0.4-14.5-0.6-21.9-0.8c-2.6-0.1-5.2-0.2-7.9-0.3c-47.4-3.7-94.7-7.5-142.1-11.2c1.3-0.3,2.6-0.5,3.9-0.8l0,0
		c8.3-0.4,16.6-0.7,25-1C3102.6,419.2,3119.3,418.8,3135.7,419.2z"/>
	<path class="st1" d="M3231.7,335c14.9-0.3,23.4-0.4,23.4-0.4l0.1,1.4l-336,37.8c5.2-1.1,10.5-2.1,15.8-3.2
		c16.3-3.4,33-6.3,49.7-9.3c16.8-2.7,33.5-5.7,50-8c16.5-2.6,32.9-4.6,48.6-6.7c7.9-1,15.7-1.8,23.3-2.7c7.6-0.8,15-1.8,22.3-2.4
		c14.6-1.3,28.3-2.6,41-3.4c6.4-0.5,12.5-0.9,18.3-1.3c5.8-0.3,11.3-0.6,16.5-0.8C3215.2,335.6,3224.2,335.1,3231.7,335z"/>
	<path class="st1" d="M3144.9,387.9c-108.7,10.8-217.6,22.1-324.8,41.5c1.7-0.8,3.6-1.7,5.5-2.5c4.4-1.8,9.1-3.9,14.3-5.8
		c5.1-1.9,10.7-3.8,16.6-5.7c5.9-1.7,12.2-3.6,18.7-5.2c13.2-3.2,27.6-6.1,43-8.2c15.4-2.4,31.6-4.3,48.4-5.9
		c16.8-1.6,34.2-3,51.9-3.9s35.6-1.6,53.5-2.3c9-0.3,17.9-0.7,26.8-1c9-0.2,17.8-0.4,26.7-0.6C3132,388.1,3138.5,388,3144.9,387.9z"
		/>
	<path class="st1" d="M3064.8,302.8c18.5-1.9,36.4-3.8,53.5-5c8.5-0.6,16.8-1.2,24.9-1.8c8-0.7,15.8-0.8,23.2-1.2
		c7.5-0.3,14.6-0.6,21.4-0.9c6.8-0.1,13.3-0.2,19.3-0.3c6.1-0.1,11.7-0.2,17-0.2s10.1,0.1,14.5,0.1c17.4,0.2,27.4,0.7,27.4,0.7
		l0.3,3.1c0,0-1.2,0.3-3.6,0.7c-186.4,9.8-372.2,36-545.8,99c-23.4,8.5-48.8,17.7-72.9,10c0.2-0.1,0.4-0.1,0.5-0.2
		c3.5,0.8,6.9,1.5,10.4,2.3c4.2-1.9,10.2-4.5,17.9-7.8c4-1.6,8.3-3.5,13.2-5.4s10.1-3.9,15.7-6c5.6-2.1,11.6-4.3,18-6.6
		c6.3-2.3,13.1-4.5,20.1-6.8c14-4.8,29.3-9.6,45.4-14.6c16.2-5.1,33.4-10.1,51.2-15.3c8.9-2.5,18-5,27.2-7.6
		c9.2-2.5,18.6-4.8,28.1-7.1c18.9-4.6,38.4-8.5,57.8-12.2c19.5-3.4,39.1-6.8,58.4-9.5c9.7-1.3,19.3-2.8,28.8-4
		C3046.1,305.1,3055.5,304,3064.8,302.8z"/>
	<path class="st1" d="M2982.1,248.4c5.9-1.3,11.9-2.6,17.9-3.7c6-1.3,12-2.4,18-3.4c12.1-2.1,24.2-4,36.4-5.4
		c24.4-2.9,49.1-4.3,73.8-3l0.4,3c-4,1.2-7.9,2.3-11.9,3.4c-165.1,20.5-326.5,65.3-477,132.4c-10.8,2.4-21.4,5.2-31.7,8.9
		c-6.1,2.3-12.1,4.9-17.7,8.2c-4.8,0.7-9.7,1.1-14.5,0.9l7.4-3.5c5.9-5.8,12.6-10.9,19.8-15.1c10.6-6.5,22.1-11.5,33.5-15.9
		s22.7-8.4,34-12.5c11.4-4,22.7-8.1,34.1-11.9c11.4-4,22.8-7.8,34.2-11.6c11.4-3.8,22.9-7.5,34.3-11.2c11.5-3.7,23-7.2,34.4-10.9
		l34.6-10.5c11.5-3.5,23.1-6.9,34.6-10.3c11.6-3.5,23.2-6.6,34.8-9.9c11.6-3.2,23.2-6.3,35-9.3
		C2958.4,253.9,2970.2,251,2982.1,248.4z"/>
	<path class="st1" d="M2931.4,172.3l10.5-1.1c1.7-0.2,3.5-0.3,5.2-0.4c-129.1,36-244.6,119-379,134.3c4.5-2.7,9.1-5.3,13.7-7.9
		l3.8-1.7c25.9-10.7,52.5-19,78.6-26.6c13.1-3.9,26-7.6,38.7-11.6c12.7-3.9,25.2-8.2,37.3-12.9c12.2-4.7,24.1-9.8,35.7-15.6
		c5.8-2.9,11.6-5.8,17.2-9c2.8-1.5,5.7-3.2,8.4-4.8l4.5-2.7l4.5-2.5l8.8-4.9c3.2-1.6,6.5-3.2,9.8-4.8s6.5-3.1,9.8-4.5
		c3.2-1.4,6.5-2.7,9.8-4.1c13.3-4.9,26.9-9.3,40.8-12.2C2903.4,176.1,2917.5,173.9,2931.4,172.3z"/>
	<path class="st1" d="M2490.1,382.9c2,0.2,4.1,0.4,6.1,0.6c8.3-7.1,17.6-13,27.1-18.1c11.3-5.9,23.1-10.6,34.9-15.5
		c11.7-4.8,23.6-9.4,35.4-13.9l35.4-13.2c11.8-4.4,23.5-8.8,35-13.4c5.6-2.2,11.6-4.8,17.3-7.1l17-7.4c2.6-1.1,5.3-2.3,7.8-3.4
		c-11,2.9-21.9,5.6-32.8,8.1c-5.3,1.3-10.7,2.5-16,3.8c52.6-20.7,105.2-41.5,157.8-62.2c8.6-3.4,17.3-6.8,26-10.1
		c-1.4,0.8-2.7,1.5-4.1,2.3l-4.9,3c1.4-0.6,2.9-1.2,4.5-1.8c11.8-4.7,23.9-9.1,35.9-13.1c12.3-4.1,24.6-7.7,37.1-10.8
		c12.5-3.2,25.2-5.8,37.9-8c12.8-2,25.7-3.5,38.7-4.3c12.9-0.7,26-0.7,39,0.2c2.6,0.2,5.2,0.4,7.9,0.7c-22.5,2.9-45.8,3.3-68.3,6.3
		c-115.7,15.2-210.8,96.2-324.3,121.5c-25.7,5.7-45.5,22.2-67,36.7c-2.8,0.9-5.6,1.9-8.4,2.8c-11.8,4-23.4,8.5-35.1,12.7
		c-6.1,2.1-12.1,4.2-18.4,6c2.6,0.3,5.2,0.6,7.8,0.9C2509.3,387.4,2499.3,386.6,2490.1,382.9z"/>
	<path class="st1" d="M2861.2,108.2c4.5-1.3,8.2-2.3,12.5-3.3c4.2-1.1,8.3-1.9,12.3-2.7c16-3.2,30.9-4.7,44.3-4.9
		c13.3-0.2,24.9,0.7,34.3,2.1c9.4,1.3,16.7,3.3,21.6,4.6c4.9,1.5,7.5,2.3,7.5,2.3l-0.8,2.9c0,0-2.6-0.6-7.5-1.6
		c-4.9-0.9-12.1-2.2-21.3-2.7c-9.2-0.6-20.4-0.6-33.1,0.8c-6.4,0.7-13.2,1.7-20.2,3.2c-30.4,2.9-60.5,9.8-89.1,19.6
		c-65.6,22.4-124.7,59.2-182.2,97c-57.5,37.8-114.3,77.2-177.2,105.9c1.6-2.1,3.2-4.1,4.9-6c2.7-1.8,5.5-3.7,8.3-5.6
		c13.2-8.8,27.4-18.3,42.4-28.3c15.1-10,30.9-20.6,47.4-31.4c16.5-10.7,33.7-21.7,51.4-32.5c8.8-5.4,17.7-10.9,26.7-16.2
		s18-10.8,27.1-16c18.3-10.5,37-20.2,55.8-29.2c18.9-9,37.5-17.8,55.5-26.3c18.2-8.6,35.9-16.7,53.4-23.1
		C2844.2,113.5,2852.7,110.6,2861.2,108.2z"/>
	<path class="st1" d="M2356,376.5c2.1,0,4.2,0,6.3,0.1C2360.2,376.9,2358.1,376.9,2356,376.5z"/>
	<path class="st1" d="M2380.9,333.9c11.1-9.4,24.5-19.1,39.5-28.6c15-9.6,31.7-19.1,49-29.1s35.2-20.7,52.3-33
		c8.7-6.3,16.9-12.8,25.3-19.8c8.4-6.9,16.7-14.4,25-22c16.8-15.2,33.5-31.4,51.5-46.9c4.4-3.9,9-7.8,13.6-11.5l3.5-2.8l0.9-0.7
		l1.1-0.9l1.7-1.3l13.9-10.5c2.3-1.7,4.9-3.4,7.4-5.1c5-3.3,10-6.8,15.1-9.9c20.1-12.5,40.9-22.8,61.3-31.9
		c20.4-9.2,40.5-16.9,59.5-24.3c19-7.2,37-13.9,53.8-19.6c33.5-11.5,61.7-20,81.4-26.1c11.8-3.7,20.6-6.4,25.7-7.9
		c-1.3,1.3-2.7,2.4-4.2,3.4c-7.4,5-16.2,7.6-24.9,10.3c-154.8,47.1-296.6,131.9-409.7,244.8c-37.8,37.7-102.1,46-134.6,86.5
		c-10.6,7.7-19.3,15.1-26.4,21.5c-3,2.8-5.8,5.3-8.2,7.7c-2.3-0.8-4.4-2.2-5.8-4.4c-0.4-0.6-0.7-1.2-0.9-1.8c1.8-2.8,4-5.9,6.5-9.1
		C2360.8,352.5,2369.6,343.2,2380.9,333.9z"/>
	<path class="st1" d="M2316.7,345.2c1.9-2,3.9-4.1,6-6.3c2.1-2.1,4.2-4.4,6.5-6.6s4.6-4.4,7.1-6.8c2.4-2.3,4.9-4.7,7.5-7.1
		c2.6-2.3,5.4-4.7,8.1-7.1c2.8-2.4,5.6-4.9,8.4-7.4c2.9-2.5,5.9-4.9,9-7.5c3-2.5,6.1-5.1,9.3-7.7c3.2-2.5,6.5-5.1,9.8-7.7
		c13.2-10.4,27.4-20.9,42.1-31.7c14.6-10.7,29.8-21.8,45.2-33c15.3-11.2,30.6-22.9,45.5-35c7.4-6,14.9-12,21.9-18.3
		c7.2-6.1,14.2-12.5,21-19c13.7-12.9,26.9-26.4,41-38.4c7-6,14.2-11.6,21.6-16.8c3.7-2.6,7.3-5,11.1-7.4c3.7-2.3,7.2-4.5,11-6.7
		c15-8.6,29.3-15.6,42.9-21.5c13.6-5.9,26.5-10.4,38-13.8c6.1-1.9,11.8-3.4,17.1-4.7c-45.1,18.7-88.9,40.3-126.2,70.9
		c-36,29.5-65.1,66.5-101.1,96.1c-58.3,47.8-134.3,75.6-180.8,134.7c-0.2,4.5-1.4,9-3.3,13.2c-0.3,0.4-0.7,0.7-1,1
		c-4.1,4-8,7.8-11.6,11.3c-3.6,3.4-7.4,6.2-10.7,8.8c-2.1,1.6-3.9,3.2-5.6,4.7c-3.8,1.1-7.8,1.8-11.8,1.9c0.7-1.3,1.6-2.7,2.4-4.2
		c1.7-2.9,3.5-6.1,6-9.7c2.4-3.6,4.9-7.9,8.1-12C2312.8,349.1,2314.7,347.2,2316.7,345.2z"/>
	<path class="st1" d="M2383.6,236.4c20.2-17.8,40.7-35.3,59.8-51.8c9.5-8.3,19.2-15.8,28.8-22.4c9.6-6.7,18.3-13.3,26.3-19.5
		c16-12.4,29.3-22.7,38.7-29.9c9.3-7.3,14.6-11.4,14.6-11.4l2,2.3c0,0-5,4.5-13.6,12.5c-3.8,3.5-8.3,7.6-13.3,12.4
		c-0.1,0.1-0.1,0.1-0.2,0.2c-68.4,55.8-136.3,112.2-201.4,171.6c-18.4,16.8-36.7,34-51.9,53.7c-3.4,4.4-6.7,9-10.3,13.1
		c-3.5,4-7.3,7.7-11.8,10.5c-2,1.2-4.1,2.3-6.4,3c-4.3,1.5-8.9,2-13.3,1.5c0.5-0.1,1.1-0.1,1.6-0.2c1.9-2.5,4.5-5.8,7.9-9.9
		c7.5-9.1,18.9-21.6,33.5-35.5c14.5-14,31.6-30.2,50.2-47.3c9.3-8.5,18.9-17.3,28.8-26.2C2363.3,254.2,2373.5,245.3,2383.6,236.4z"
		/>
	<path class="st1" d="M2309.5,262.4c-10.8,10.2-22,20.6-35.3,27.1c9.5-8.9,19.3-18.2,29.5-27.7c23.6-22,48.8-45.5,74-68.9
		c12.6-11.7,25.3-23.3,37.8-34.8c12.5-11.4,24.5-23,37.4-33.3c6.4-5.2,13-10,19.8-14.4c1.7-1.1,3.4-2.1,5.1-3.1l2.6-1.6l2.5-1.4
		c3.5-1.9,7-3.6,10.4-5.3c7.3-3.4,14.5-6.4,21.4-9.1C2441.5,141.1,2374.6,201.3,2309.5,262.4z"/>
	<path class="st1" d="M2409,109.7c0,0-0.3,0.1-1,0.1c0.3-0.2,0.6-0.4,1-0.7V109.7z"/>
	<path class="st1" d="M2215.3,283.3C2215.4,283.2,2215.4,283.2,2215.3,283.3c2.9-3.1,5.9-6.3,9-9.4c9.6-9.4,19.4-19.3,29.8-28.9
		c10.2-9.7,21.1-19.2,31.8-28.7c11-9.2,21.9-18.6,33.1-27.2c11-8.9,22.3-17.1,33.1-25.1c5.5-3.9,10.9-7.7,16.2-11.5
		c5.3-3.7,10.4-7.4,15.6-10.8c5.1-3.4,10.1-6.8,14.9-10c4.8-3.2,9.6-6.1,14.2-9c3.1-1.9,6.2-3.8,9.1-5.6
		c-6.8,5.4-13.5,10.7-20.3,16.1c-86.3,68.1-173.7,137.4-238.8,225.5c-3.2,4.3-6.4,8.9-7.5,14.2c-0.8,3.8-0.2,8.1,2,11.4
		c-3.6,3.2-6.6,5.6-8.8,7.4c-0.4,0.3-0.6,0.5-0.9,0.7c2.1-0.3,4.1-0.7,6.2-1c-3.7,1.3-7.8,1.6-11.8,0.8c0.3-0.8,0.8-2.2,1.5-4.2
		c1.2-3.2,3.1-7.8,5.8-13.5c2.6-5.7,6.2-12.5,10.8-20.1c1-1.7,2.1-3.5,3.2-5.3C2179.1,325.9,2196.7,304.2,2215.3,283.3z"/>
	<path class="st1" d="M2364.6,116.5c-0.6,0.4-1.2,0.9-1.8,1.4c0.4-0.4,0.9-0.9,1.3-1.3c2.5-2.4,4.9-4.9,7.4-7.3
		c0.9-0.1,1.7-0.2,2.6-0.2C2370.9,111.5,2367.7,114,2364.6,116.5z"/>
	<path class="st1" d="M2332.6,124c-1.9,0.5-3.8,1.1-5.8,1.8c3.4-3.9,6.9-7.7,10.3-11.6c3.6-0.7,7.2-1.3,10.7-1.9
		c-2.9,3.3-5.8,6.6-8.8,9.9C2337,122.8,2334.8,123.4,2332.6,124z"/>
	<path class="st1" d="M2189.3,279.9c17.1-19.1,34.1-38.2,51.1-57.3c7.1-7.7,14.2-15.4,21.4-23c11.7-12.1,23.3-24.2,35-35.9
		c11.5-11.9,23.3-23.1,34.6-34.1c2.5-2.3,4.9-4.7,7.4-7c-45.2,51.2-90.4,102.4-135.6,153.6c-18.2,20.7-36.8,41.6-59,57.9
		c6.8-8.4,14.2-17.4,22-26.8c4.6-5.6,9.4-11.3,14.3-17C2183.3,286.9,2186.3,283.4,2189.3,279.9z"/>
	<path class="st1" d="M2300.8,105.3c-1,0.5-2,1-3,1.4c21.2-14.1,43.4-27.1,62.8-43.4c1.1-0.5,2.2-1,3.1-1.4c3.5-1.5,5.4-2.4,5.4-2.4
		l1.8,2.5c0,0-1.5,1.4-4.4,4c-2.9,2.6-7.4,6.2-13.3,10.3c-3,2.1-6.3,4.4-10.1,6.6c-1.9,1.2-3.8,2.3-5.8,3.6c-2,1.2-4.2,2.3-6.4,3.6
		C2322,95,2311.7,100,2300.8,105.3z"/>
	<path class="st1" d="M2257.1,151.2c5.7-4.8,11.6-9.2,17.7-13.2c1.6-1,3-1.9,4.7-2.9c1.5-0.9,3-1.7,4.5-2.6c3-1.6,6.3-3.2,9.5-4.7
		c1.5-0.7,2.9-1.3,4.4-1.9c-63.9,50.7-113.2,117.3-161.5,183c-14.3,19.4-28.8,37.9-40.5,58.9c-2.7,4.9-5.4,10-6.1,15.6
		c-1.3,1.6-2.5,3.2-3.8,4.8c-5.6,7.3-10.4,13.6-15.4,18.2c3.4-0.7,6.8-1.4,10.3-2.1c0.2,0,0.4-0.1,0.6-0.1
		c-13.6,4.9-27.6,9.1-41.8,12.3c0.8-1.2,1.5-2.4,2.3-3.6c2.8-0.7,5.7-1.4,8.6-2.1c1.1-3.7,3-8.8,6.2-14.5
		c3.2-6.1,8.4-12.4,14.2-19.7c5.8-7.4,12.4-15.7,19.5-24.7c14.4-18.1,30.9-39.3,49-61.8c9-11.3,18.3-22.9,27.8-34.8
		c9.5-11.8,19.1-23.8,28.7-35.8c9.7-11.9,19.3-24,29.2-35.7C2235.2,172,2245.7,160.8,2257.1,151.2z"/>
	<path class="st1" d="M2255.4,94.3l-21.2,24.3c0.9-0.6,1.9-1.3,2.8-1.9c3.3-1.9,6.6-3.9,9.8-5.8c3.3-1.8,6.5-3.6,9.7-5.2
		c11-5.6,21.7-10.3,31.7-14.3c-49.7,36.5-95.9,77-129.9,127.8c-34.9,52.2-77.4,100.7-104.5,157.4c-0.4,0.7-0.7,1.5-1,2.2
		c-2.1,2.8-4.3,5.4-6.3,8c-6.1,7.7-11.5,14.4-16.1,19.9c-3.5,4.2-6.4,7.7-8.7,10.4c-2.2,0.9-4.4,1.6-6.7,2.1
		c1.8-3.1,5.1-8.8,9.7-16.5c3.6-6.1,8.2-13.4,13.4-21.8c5.2-8.3,11.3-17.7,17.9-27.8c6.7-10.1,14-21.1,21.8-32.6s16-23.6,24.6-36.2
		c13.2-19.3,27-39.6,41-60.1c-3.9,4.8-7.8,9.5-11.7,14.2l-19.9,24.9l-19.4,25.2l-15.8,21.1C2129.4,232.5,2189.2,160.3,2255.4,94.3z"
		/>
	<path class="st1" d="M1962.1,399c-0.4,1.6-0.7,3.2-0.8,4.8c-0.4,6,2.2,12.6,6.5,16.8c-4.7,5.3-9.1,10.3-13.1,14.8
		c-0.6,0.8-1.3,1.5-1.9,2.2c4.1-1.4,8.3-2.7,12.6-4.1c-13.2,7.6-28,12.8-43.2,15c4.9-1.9,9.9-3.8,15-5.6c0.4-0.8,0.7-1.6,1-2.4
		c1.7-3.7,3.8-7.8,6.1-12.2c2.4-4.4,5-9.1,7.9-14c3-4.8,6.1-10,9.5-15.1C1962,399.2,1962.1,399.1,1962.1,399z"/>
	<path class="st1" d="M2035,312.9c3.3-2.6,6.7-4.9,9.7-6.8c3.4-2.3,6.8-4,9.5-5.4c2.3-1.3,4.5-2,6-2.6c1.7-2.4,3.4-4.8,5.1-7.2
		c3.4-1.1,7.2-1.2,10.7-0.4c-25.2,39.8-51.7,78.8-79.5,116.9c3.4-7.3,6.9-14.7,10.5-21.9c4-7.8,8.2-15.5,12.5-23.2
		c-5.7,6.4-11.5,13.1-17.4,19.7c-4.4,4.9-8.8,9.9-13.1,14.8c0.7-1,1.5-2,2.2-3c24.1-31.2,48.3-62.4,72.4-93.7
		C2053.3,302.9,2043.8,307.3,2035,312.9z"/>
	<path class="st1" d="M1926.1,440.6c-1.5,2.8-2.8,5.4-4.2,8c-0.7,0.1-1.4,0.2-2.2,0.3c3.6-5.6,7.2-11.3,10.7-17
		C1929,434.9,1927.6,437.8,1926.1,440.6z"/>
	<path class="st1" d="M1991.6,288.1c-1.2,2.9-2.3,5.8-3.5,8.8c-21.9,54.6-48.1,107.3-78.4,157.7c0.2-1.6,0.5-3.1,0.8-4.7
		c1.5-4.4,3.2-9.1,5.1-14c1.2-3.4,2.6-7,3.9-10.6c1.4-3.6,2.9-7.4,4.5-11.2c3-7.7,6.5-15.8,10.1-24.1c3.8-8.3,7.6-16.8,11.9-25.4
		c0.3-0.6,0.5-1.1,0.9-1.7c-0.2,0.2-0.3,0.4-0.5,0.6c5-8.5,10.2-16.9,15.3-25.3c-28.1,21.5-51.4,48.9-68.2,79.9
		c-6.9,12.8-12.2,29.8-3.6,41.5c0.4,0.6,0.9,1.1,1.4,1.7c-0.5,0.2-0.9,0.4-1.4,0.7c-10.6,5.2-21.2,10.4-31.8,15.5
		c2.1-1.1,4.2-2.2,6.4-3.4c2.5-7.7,5.5-16,9.2-24.5c1.3-3,2.6-6.1,4-9.1c1.4-3.1,2.9-6.1,4.4-9.2c3.3-6.1,6.4-12.3,10.1-18.2
		c3.4-6.1,7.4-12,11.1-17.7c1.9-2.9,4-5.6,6-8.3c2-2.8,4-5.5,6.2-8c2.1-2.5,4.2-5,6.2-7.4c2.1-2.4,4.3-4.7,6.4-6.8
		c4.1-4.4,8.4-8.3,12.3-11.9c3.8-3.6,7.8-6.4,11.2-9c1.7-1.3,3.3-2.5,4.8-3.5c1.2-0.8,2.2-1.5,3.3-2.1c4.7-8.2,9.4-16.6,14.5-24.4
		c5-8.2,10.5-15.9,15.7-23.4C1990.5,289.6,1991.1,288.9,1991.6,288.1z"/>
	<path class="st1" d="M1861.4,421.7c3.2-3.5,6.3-6.8,9.2-9.8c1.1-1.1,2.2-2.2,3.3-3.3c-15.7,19.6-26.1,43.8-32.4,68.3
		c-1.7,6.5-3.3,13.4-7.6,18.7c-4.2,5.3-12.1,8.4-18.3,5.1c-0.1-0.1-0.3-0.1-0.4-0.2c0.3-2,0.7-4.1,1.3-6.2c2-8,6.1-16.3,10.9-24.1
		c2.3-4,4.7-7.9,6.9-11.9l0.8-1.5l0.6-1l0.4-0.8c0.7-1.1,1.1-2.1,1.9-3.3c1.5-2.4,3-4.8,4.5-6.9
		C1848.6,436.3,1855.1,428.7,1861.4,421.7z"/>
	<path class="st2" d="M2231.1,470.4c-26.8-19.4-57.3-35.3-80.2-59.4c-1.4-1.5-3.8,0.5-2.5,2c20.6,23,51.7,37.4,76.8,55.3
		c27.7,19.8,54.5,40.5,80.9,61.9c0.8,0.7,1.9-0.7,1-1.4C2281.8,509.3,2257,489.2,2231.1,470.4z"/>
	<path class="st2" d="M2234.6,398.1c6.2,16.2,21,27,33.4,38.6c16.2,15.2,32.4,30.5,48.6,45.8c33.7,31.9,65.3,65.8,98.5,98.2
		c0.3,0.3,0.9-0.1,0.6-0.5c-26.1-33-58.1-62.2-88.4-91.4c-13.2-12.7-26.6-25.2-39.9-37.8c-17.6-16.5-38.5-32.9-50.4-54
		C2236.1,395.6,2234,396.6,2234.6,398.1z"/>
	<path class="st2" d="M2406.6,479.7c-20.5-16.6-42.7-31-64.3-46c-20.8-14.5-41.4-30.1-63.3-43c-1.1-0.7-2.3,0.8-1.2,1.7
		c39,30.8,83.2,54.9,122.5,85.5c41.1,32,71.8,73.6,102,115.2c0.6,0.8,1.9-0.2,1.3-1C2474.9,551.7,2445.5,511.3,2406.6,479.7z"/>
	<path class="st2" d="M2499.4,486.6c-42.1-25.8-82.7-51-115.2-88.8c-0.8-1-2.3,0.2-1.6,1.2c27,36.5,67.7,60.7,106,84
		c19.9,12.1,39.8,24.1,58.6,37.8c20.9,15.2,37.9,32.9,54.9,52.1c0.4,0.5,1.1-0.1,0.8-0.6C2579.5,534.5,2536.5,509.3,2499.4,486.6z"
		/>
	<path class="st2" d="M2650.7,526c-23.5-16.4-47-33.2-71.2-48.6c-47-29.8-99.2-50.4-144.2-83.5c-0.7-0.5-1.4,0.5-0.8,1
		c43.8,34.4,96.6,54.8,143.2,84.8c47.7,30.7,91.9,67.3,140.6,96.3c0.7,0.4,1.4-0.5,0.8-1C2697.5,557.4,2673.7,542,2650.7,526z"/>
	<path class="st2" d="M2674.6,489.5c-22.6-11.4-44.7-23.6-65.9-37.4c-21.6-14.1-41-31.9-62.8-45.4c-0.1-0.1-0.2,0.1-0.1,0.2
		c15.4,17.5,37,31.3,56.3,44.2c18.9,12.7,38.6,24.2,58.8,34.7c44.7,23.4,88.8,44.6,129.3,75.2c1.1,0.8,2.1-0.8,1.2-1.7
		C2758.4,528.1,2714.6,509.7,2674.6,489.5z"/>
	<path class="st2" d="M2698.8,445.1c-8-5.5-25.5-14.6-29.7-23.4c-0.1-0.3-0.6-0.2-0.5,0.2c1.5,8.7,14.8,15.4,21.4,20.2
		c12.9,9.5,26.3,18.2,40.5,25.7c0.8,0.4,1.6-1,0.8-1.5C2720.4,459.2,2709.4,452.4,2698.8,445.1z"/>
	<path class="st2" d="M2923.2,539.4c-39.4-26.7-80.8-49.8-119.9-76.8c-0.2-0.1-0.4,0.1-0.3,0.3c14.2,16.8,35.7,27.1,54.3,38.3
		c20,12,39.8,24.2,59.2,37.2c19.3,12.9,38.2,26.5,56.1,41.2c18.7,15.3,35,33,53,49c0.6,0.5,1.4-0.4,1-1
		C3000.3,592.1,2959.4,564,2923.2,539.4z"/>
	<path class="st2" d="M3062.3,613.1c-16.5-11.1-31.7-23.6-45.8-37.5c-15.5-15.3-27.2-33.4-42.1-49c-0.4-0.4-1.1,0-0.8,0.5
		c15.3,34.2,51.5,64,82,84.9c18.3,12.5,37.4,23.8,56.2,35.6c17,10.6,33.7,22.3,51.5,31.6c0.7,0.4,1.2-0.7,0.6-1.2
		C3131.8,654.1,3095.5,635.5,3062.3,613.1z"/>
	<path class="st2" d="M3064.3,560.1c-0.1-0.1-0.3,0-0.2,0.1c13.9,25.6,42.3,43.9,67.5,57.4c0.5,0.3,1-0.6,0.5-0.9
		C3106.6,599.1,3084,584.5,3064.3,560.1z"/>
	<path class="st2" d="M3183.6,594.4c-0.5-0.2-0.9,0.5-0.4,0.8c35.9,20.8,77.6,31.3,114.9,49.6c0.6,0.3,1.2-0.7,0.6-1.1
		C3264,621.5,3221.2,610.4,3183.6,594.4z"/>
	<path class="st2" d="M1873.3,417.4c-19.4,19.6-37.8,43.4-41.7,71.4c0,0.3,0.4,0.3,0.5,0c6.3-29.1,24.1-48.3,42-70.7
		C1874.5,417.7,1873.7,417,1873.3,417.4z"/>
	<path class="st2" d="M1927.6,373.9c-9,12.8-16.8,26.5-24.9,39.9c-6.8,11.2-13.9,22-17.1,34.9c0,0.1,0.1,0.1,0.1,0
		c7.8-26.7,29.1-50.3,42.7-74.3C1928.7,373.9,1927.9,373.3,1927.6,373.9z"/>
	<path class="st2" d="M2022.3,251c-22.3,29.9-39.5,64-58.2,96.2c-17.4,30.1-36.7,62.6-47.4,95.8c-0.1,0.4,0.4,0.7,0.6,0.3
		c17.8-29.3,31.3-62.2,47.1-92.7c17.7-34.2,39.8-65.6,58.6-99C2023.3,251,2022.7,250.5,2022.3,251z"/>
	<path class="st2" d="M2046.2,308.4c-29.1,25.6-52.3,58.7-73,91.1c-0.1,0.1,0.1,0.2,0.2,0.1c21.5-33.1,47.6-61,73.6-90.6
		C2047.3,308.7,2046.6,308.1,2046.2,308.4z"/>
	<path class="st2" d="M2222.3,112.6c-44.4,42.2-78.9,95.4-114.7,144.6c-17,23.3-33.4,46.8-49.3,70.9c-14.9,22.5-37.3,39.8-47.8,64.9
		c-0.1,0.2,0.2,0.3,0.3,0.1c13.5-25.5,35.5-44.7,51.8-68.3c16-23.1,31.9-46.2,48.3-68.9c35.6-49.3,73.3-95.9,112.1-142.7
		C2223.2,112.8,2222.6,112.2,2222.3,112.6z"/>
	<path class="st2" d="M2104.8,395.9c-0.8,1.7,1.9,2.9,2.8,1.3C2135,347.7,2183,314.6,2217,270c16.7-21.9,33.9-43.4,52-64.1
		c19.4-22.2,41-42.7,59.7-65.4c0.6-0.7-0.4-1.4-1.1-0.9c-22.6,18.7-42.1,42-61.2,64.2c-19.3,22.3-37.7,45.3-55.7,68.6
		c-17.5,22.7-36.7,42.9-57.2,63C2134.8,353.6,2116.4,372.2,2104.8,395.9z"/>
	<path class="st2" d="M2164.4,368.2c-0.2,0.3,0.3,0.6,0.5,0.4c25.8-29,47.2-61,74.7-88.8c27.4-27.7,58.8-50.3,87.7-76.2
		c0.4-0.4-0.2-1-0.7-0.7c-33.2,19-62.9,47.9-89.3,75C2211.2,304.7,2182.1,334.7,2164.4,368.2z"/>
	<path class="st2" d="M2191.8,387.2c28.9-36.4,68.1-63.2,99.5-97.6c33-36.3,67.9-68.5,106.9-98.5c0.1-0.1,0-0.2-0.1-0.1
		c-39.2,27.1-75.1,59.6-107.4,94.3c-18.2,19.6-37.1,37.5-57.7,54.6c-16.3,13.5-32.8,27.5-44.5,45.3
		C2187.4,386.8,2190.5,388.8,2191.8,387.2z"/>
	<path class="st2" d="M2502,276.9c18.6-5.1,32.2-21,45.8-33.5c19.2-17.6,39.1-34.7,59.4-51.1c19-15.3,38.4-30,58.3-44.2
		c19.8-14.1,41.2-26.6,60.4-41.4c0.5-0.4,0-1-0.5-0.8c-42.1,21.4-81,53.2-117.6,82.4c-16.9,13.5-33.5,27.5-49.7,41.9
		c-18.4,16.3-34.9,33.5-57,45.1C2500.3,275.8,2501.2,277.1,2502,276.9z"/>
	<path class="st2" d="M2553.4,290.4c23.2-10.2,44.7-26.3,66.3-39.4c24.4-14.8,49-29.4,73.7-43.7c23.9-13.8,47.9-27.4,72.1-40.6
		c24.3-13.2,50.2-24.6,73.4-39.4c0.1-0.1,0-0.3-0.1-0.2c-23.2,8.8-45.2,21.8-66.9,33.4c-25.2,13.5-50.2,27.5-74.9,41.7
		c-23.9,13.7-47.7,27.8-71.4,41.9c-24.1,14.3-51.4,27.1-73.1,44.6C2551.7,289.3,2552.3,290.9,2553.4,290.4z"/>
	<path class="st2" d="M2462.6,333.4c23.2-10.5,45.5-22.7,67.9-34.5c1.2-0.6-0.1-2.3-1.2-1.7c-22.6,11.4-45.6,22.4-67.4,35.2
		C2461.2,332.8,2462,333.7,2462.6,333.4z"/>
	<path class="st2" d="M2616.8,297.3c45.3-11.6,90.1-28.8,133.6-45.5c42.3-16.2,83.6-34.7,123.5-55.9c0.6-0.3,0-1.1-0.6-0.8
		c-42,21.1-84.9,40.3-129.1,56.8c-42.2,15.8-86.2,27.4-128.1,43.8C2615.1,296.1,2615.7,297.6,2616.8,297.3z"/>
	<path class="st2" d="M2725.4,342.9c46.3-5.2,91.9-26.7,135.2-42.1c48.9-17.4,98-29.3,149.5-37.8c1.2-0.2,1-2-0.2-1.9
		c-49.2,6.4-96.3,17.9-142.8,34.2c-23.5,8.3-46.8,17.1-70.4,25.1c-23.6,8-48,13.3-71.7,20.7C2724,341.5,2724.4,343,2725.4,342.9z"/>
	<g>
		<path class="st2" d="M2974.5,336c14.8-4.6,29.8-4.7,45.1-5.9c5.2-0.4,10.2-1.1,15.3-2.2c2.3-0.6,4.6-1.2,7-1.7
			c3.4-1.3,6.8-0.8,10.1,1.5c0,0,1,0.2,1.6,0.2c0.3,0,0.6-0.2,0.6-0.5s0-0.6,0-0.9s-0.3-0.5-0.6-0.5c-0.2,0-0.4,0-0.6,0
			c-0.7,0-0.6,1,0.1,1c-1.7,0-5.3-2.9-8-2.9c-8.1-0.2-17.2,3.9-25.5,4.7c-15.3,1.3-30.9,0.7-45.2,6.6
			C2973.9,335.6,2974.1,336.1,2974.5,336z"/>
		<path class="st2" d="M3053.5,328h-0.1C3053.9,328,3053.8,328,3053.5,328z"/>
	</g>
	<path class="st2" d="M2812.8,373.2c45.8-6.3,91.3-21.2,136-32.1c0.3-0.1,0.1-0.5-0.2-0.5c-44.9,10-92.6,16.9-136.1,31.5
		C2812,372.3,2812.2,373.3,2812.8,373.2z"/>
	<path class="st2" d="M2739.3,431.7c17.9-5.8,34.4-14.2,52.7-19.3c18.2-5.1,36.5-9.4,55.1-13.2c37.3-7.6,74.5-14.3,110.5-26.5
		c0.8-0.3,0.3-1.5-0.5-1.2c-37,11.3-75.6,17.6-113.6,25.3c-18.5,3.7-37.1,7.5-55.1,13.1c-16.7,5.2-35.6,10.2-50,20.1
		C2737.2,430.4,2738.1,432,2739.3,431.7z"/>
	<path class="st2" d="M2963.3,434.7c37.3-4.3,74.2-8.5,111.7-11.2v-0.1c-36.2,1.8-77.5-1.2-112,10.3
		C2962.6,434,2962.8,434.8,2963.3,434.7z"/>
	<path class="st2" d="M3106.7,394.8c41.5-1.4,85.7-7.1,127-0.5c0.2,0,0.2-0.3,0-0.3c-42-6.3-85.1-1.4-127.1,0.3
		C3106.3,394.3,3106.4,394.8,3106.7,394.8z"/>
	<path class="st2" d="M3054.9,398.5c15.4-0.5,30.7-1.9,45.8-4.3c0.4-0.1,0.3-0.7-0.1-0.6c-15.1,2.3-30.4,3.8-45.8,4.5
		C3054.6,398.2,3054.6,398.6,3054.9,398.5z"/>
	<path class="st2" d="M3059.1,464.4c7.1,0.9,15,0,21.8-1.8c0.2-0.1,0.1-0.3-0.1-0.3c-7.2,0.3-14.6,0.5-21.7,1.6
		C3058.8,463.9,3058.8,464.4,3059.1,464.4z"/>
	<path class="st2" d="M2895.6,474.6c11.9-1.7,22.8-6.2,34.8-7.7c11.1-1.4,22.3-1.9,33.5-1.9c24.9-0.2,49.8,1.2,74.6-0.8
		c0.2,0,0.1-0.3,0-0.3c-26.7,0.9-53.4-1.5-80-1.1c-19.5,0.3-46.4,0.2-63.4,10.4C2894.3,473.5,2894.8,474.7,2895.6,474.6z"/>
	<path class="st2" d="M2975.6,503c28.8-2.7,57.3-9.4,86.1-13s57.8-6.1,86.8-8.5c0.9-0.1,0.7-1.3-0.1-1.3
		c-30.1,1.5-59.9,4.7-89.8,8.2c-27.6,3.2-56.7,5.8-83.4,13C2974.2,501.6,2974.6,503.1,2975.6,503z"/>
	<path class="st2" d="M3144.8,509.5c3.3,0,6.6-0.8,9.7-1.7c0.3-0.1,0.1-0.5-0.2-0.4c-3.2,0.8-6.4,1.1-9.6,1.8
		C3144.5,509.2,3144.6,509.5,3144.8,509.5z"/>
	<path class="st2" d="M3024.3,528.7c36.1-5.6,71.7-12.6,107.9-17.5c0.7-0.1,0.6-1.1-0.1-1c-35.8,3-73.6,7.6-108.2,16.9
		C3023,527.4,3023.4,528.9,3024.3,528.7z"/>
	<path class="st2" d="M3146.3,546.6c25.9,0.4,51.9-0.1,77.7-0.5c1,0,0.8-1.5-0.2-1.5c-25.9,0.2-51.8,0.4-77.6,1.4
		C3145.8,546,3145.9,546.6,3146.3,546.6z"/>
	<path class="st2" d="M3059.3,544.9c21.5-3,43.2,1,64.5-1.8c0.4-0.1,0.3-0.7-0.1-0.6c-21.1,2.3-44.5-5.7-64.7,1.2
		C3058.3,544,3058.5,545,3059.3,544.9z"/>
	<path class="st2" d="M3128.2,580.8c30.7-1.7,58.8-0.3,89.4,5.1c28.9,5.2,58.4,7.2,86.8,15.4c0.2,0.1,0.2-0.2,0-0.3
		c-31.5-8.1-63-12.6-94.9-18.8c-26-5.1-56.3-12.2-82.3-5.5C3124.8,577.5,3125.9,581,3128.2,580.8z"/>
	<path class="st2" d="M2689.2,428.2c0.2,0,0.4,0.1,0.5,0.1c1,0.5,1.9,1,2.8,1.5C2691.4,429.3,2690.3,428.8,2689.2,428.2z"/>
	<path class="st1" d="M3027.9,540.9c8.6,3.2,17.2,6.5,25.8,9.7c-0.8-0.2-1.6-0.4-2.5-0.5c-2-0.3-4.1-0.3-6.1-0.7
		c-2.6-0.5-5-1.5-7.4-2.5c-7.6-3.1-14.7-5.5-22-8.1c-3.1-1.1-6.3-2.3-9.6-3.7c-0.1,0-0.3-0.1-0.4-0.2c-4.8-2.1-10.7-5.6-15.8-6.3
		c-0.2,0-0.4-0.1-0.6-0.1c-0.3,0-0.5-0.1-0.8-0.1c-1.1-0.1-2.2-0.3-3.2-0.6c-1.8-0.6-3.3-1.7-4.9-2.7c-4-2.6-8.4-4.7-12.9-6.1
		c-5.4-1.7-11-2.5-16.4-4.1c-0.7-0.2-1.6-0.5-2.5-0.8c-9.4-3.4-27.4-11.7-34.9-14.7c-0.1,0-0.1,0-0.1-0.1
		c-44.8-17.7-51.2-18.6-70.5-26.7c-20.4-8.6-40.6-18.5-62.3-23c-7.1-1.5-14.1-0.9-21.2-2.6c-0.1,0-0.2-0.1-0.3-0.1
		c-11.3-2.7-23.3-6.3-34.9-9.7c-0.1,0-0.3-0.1-0.4-0.1c-12.3-3.6-24.2-7-34.3-8.9c-17.8-9-38.3-9.6-58.3-11.7
		c-5.2-0.5-10.4-1.1-15.5-2c-12.7-2.2-26.1-4.4-38.8-6.8c-0.1,0-0.2,0-0.4-0.1l0,0c-3.1-0.6-8-1.2-13-1.8c-0.2,0-0.4-0.1-0.6-0.1
		c-4.8-0.5-9.5-1-12.4-1.4l0,0c-4.6-0.6-6.4-2.8-11-3.4c-7.3-1-5.7,1-13.1,0.4c-12.5-1.1-25.1-2.6-37.5-3.6c-0.5,0-1.1-0.1-1.6-0.1
		c-4-0.2-8.8-0.2-12.4-0.8c-0.1,0-0.2,0-0.2,0c-5.5-1-3.4,0.3-9.2-0.2c-4.7-0.4-16-8.5-20.5-7.3c-3,0.8-6-0.7-9.2-0.4
		c-2.9,0.3-9.9,0.4-12.8,0.7c-6.5,0.6-7.9,3.7-11.6,4.2c-0.9,0.1-1.9,0.1-3.2-0.1h-0.1c-3-0.6-6.9-1.2-9.7-0.3c0,0-0.1,0-0.2,0
		c-0.4,0.1-0.8,0.1-1.2,0c-1.9-0.3-4.5-1.4-5.8-1.4c-2.1,0-3.9-1.4-5.8-2.2c-8.9-3.8-14.9,3.6-24.5,3.7c-0.5,0-1,0-1.5,0
		c-1.6,0-3.1,0-4.5,0c-7,0.1-11.1,0.2-20.2,0.6c-0.8,0-1.6,0.1-2.4,0.1c-0.2,0-0.5,0-0.7,0c-4.3,0-16.3-0.6-19.5-0.4
		c-2.8,0.1-5.6-0.3-8.4-0.8c-10.3-1.8-21.4-4.3-30.7-0.1c-2.5,1.2-4.9,2.7-7.6,3.5c-5.5,1.6,1.7,0.6-3.7,2h-0.1
		c-1.2,0.3-7.1,0.6-10.7,0.9c-0.9,0.1-1.7,0.2-2.1,0.2c-0.2,0-0.3,0-0.4,0.1c-1,0.2-1.7,0.3-2.5,0.2l0,0c-3.2-0.1-4.7-2.1-8.9-2.9
		c-8-1.6-13.2,4.9-21.1,6.2l0,0c-16.5,2.7-32.4,5.4-48.5,6.7c-0.1,0-0.1,0-0.2,0c-0.2-0.4-0.9-0.1-1.6,0.3c-0.4,0.2-0.8,0.3-1.1,0.4
		s-0.4,0-0.5-0.2c-7.3,5.3-5.5,0.3-14.7-0.7c-4.3-0.5-4.7,3.3-16.8,6.3h-0.1c-2.7,0.7-6.1,1.3-10.2,1.8h-0.1
		c-10.5,1.4-8.5-2.4-19.1-1.8c-4.3,0.3-8.8,7.6-13,8.5c-0.3,0.1-0.6,0.1-0.9,0.2c-1.3,0.3-2.5,0.5-3.7,0.8c-2.3,0.5-4.4,0.9-6.6,1.4
		c-10.7,2.1-20.5,3.2-33.8,1.5c-10.8,1.8-12.5,10.7-19.3,11.9c-1,0.2-2.5,0.6-4.1,1.1c-0.1,0-0.2,0-0.2,0.1
		c-5,1.6-11.9,4.1-15.3,4.3c-2.5,0.1-6.1,1.2-8.6,0.9c-7-0.8-13.6,1.6-22.4,3.8c-4.7,1.2-14.4,11.2-19.2,11.7
		c-13-2.1-18.8-2.3-30,3.7c-1.3,0.7-5,9.8-6.3,10.6c-0.3,0.2-1.3,0.7-2.6,1.3c-4,1.9-11.1,5-12.1,5.1c-14.9,1.2-26.6,4.6-34.1,17.2
		c-9.2,1-5.8-2.1-12,4.5c-1.1,1.2-2.2,2.5-3.7,3.3s-3.2,1-4.8,1.5c-4.3,1.2-8.1,3.9-10.5,7.6c-1.3,2-2.4,4.3-4.6,5.1
		c-2,0.7-4.4-0.1-6.4,0.6c-2.6,1-3.5,4.1-5.5,6c-1.9,1.7-4.6,2.1-7,3c-4.7,1.6-8.7,5-11,9.2c1.4,5.1-2.5,7.3-7.1,5.2
		c-1.8-2.2-5.1-2.8-7.8-2.1c-2.7,0.7-4.9,2.6-7,4.5c-0.3,0.2-0.5,0.5-0.7,0.7c-0.4-0.4-0.9-0.8-1.2-1.2c-1.2-1.3-2.1-2.7-2.7-4.2
		c15.3-11.6,33-20,48.1-32c6.9-5.4,13.2-11.6,20.4-16.4c6.6-4.4,13.9-7.6,21.2-10.8c23-10.1,45.4-22.6,69.4-30.4
		c30.5-10.1,61.1-20.1,91.7-30.1c7.1-2.3,14.2-4.7,21.5-6.3c8.8-2.1,17.8-3.1,26.8-4.2c19.8-2.4,41.2-2.2,60.6-6.4
		c27.5-6,55.3-10.5,83.3-13.5c28.6-3.1,57.3-4.6,86-6.1c8.7-0.4,18.1-3.2,26.8-3.3c8-0.1,16-0.2,24-0.3c30.7-0.4,61.5-0.7,92.1,1.9
		c13.5,1.2,27.4,7.5,40.9,8.1c22.9,1.1,45.8,2.2,68.6,5.3c40.5,5.4,81.9,12.6,121.7,22.1c31.2,7.5,62.2,15.6,93,24.2
		c27.4,7.7,53.4,18.8,80.2,28.6C2912.7,495.5,2970.1,519.1,3027.9,540.9z"/>
	<path class="st2" d="M3053.6,550.7c2,0.5,4,1.3,5.9,2.2C3057.6,552.1,3055.6,551.4,3053.6,550.7z"/>
	<path class="st2" d="M3129.1,579.2c-14.7-5.4-29.4-10.8-44.1-16.2c-4.8-1.7-9.9-3.9-14.9-3.5c-3.4-2.4-6.9-4.8-10.6-6.6
		C3082.7,561.7,3105.9,570.4,3129.1,579.2z"/>
</g>
</svg>
