<?xml version="1.0" encoding="utf-8"?>
<!-- Generator: Adobe Illustrator 22.0.0, SVG Export Plug-In . SVG Version: 6.00 Build 0)  -->
<svg version="1.1" id="Flowers_2" xmlns="http://www.w3.org/2000/svg" xmlns:xlink="http://www.w3.org/1999/xlink" x="0px" y="0px"
	 viewBox="0 0 4000 880.1" style="enable-background:new 0 0 4000 880.1;" xml:space="preserve">
<style type="text/css">
	.st0{fill:#3F6E4D;}
	.st1{opacity:0.66;fill:#3F6E4D;enable-background:new    ;}
	.st2{fill:#86B77B;}
</style>
<g>
	<g>
		<path class="st0" d="M886.3,484.9c-0.6-16-1.2-32.1-1.9-48.1c0,2,0.1,4,0.2,6c0.3,9.9,0.6,20.1,1.2,30.4
			C885.9,477.1,886.1,481,886.3,484.9z M886.3,484.9c-0.6-16-1.2-32.1-1.9-48.1c0,2,0.1,4,0.2,6c0.3,9.9,0.6,20.1,1.2,30.4
			C885.9,477.1,886.1,481,886.3,484.9z M886.3,484.9c-0.6-16-1.2-32.1-1.9-48.1c0,2,0.1,4,0.2,6c0.3,9.9,0.6,20.1,1.2,30.4
			C885.9,477.1,886.1,481,886.3,484.9z M886.3,484.9c-0.6-16-1.2-32.1-1.9-48.1c0,2,0.1,4,0.2,6c0.3,9.9,0.6,20.1,1.2,30.4
			C885.9,477.1,886.1,481,886.3,484.9z M886.3,484.9c-0.6-16-1.2-32.1-1.9-48.1c0,2,0.1,4,0.2,6c0.3,9.9,0.6,20.1,1.2,30.4
			C885.9,477.1,886.1,481,886.3,484.9z M886.3,484.9c-0.6-16-1.2-32.1-1.9-48.1c0,2,0.1,4,0.2,6c0.3,9.9,0.6,20.1,1.2,30.4
			C885.9,477.1,886.1,481,886.3,484.9z M886.3,484.9c-0.6-16-1.2-32.1-1.9-48.1c0,2,0.1,4,0.2,6c0.3,9.9,0.6,20.1,1.2,30.4
			C885.9,477.1,886.1,481,886.3,484.9z M886.3,484.9c-0.6-16-1.2-32.1-1.9-48.1c0,2,0.1,4,0.2,6c0.3,9.9,0.6,20.1,1.2,30.4
			C885.9,477.1,886.1,481,886.3,484.9z M1142.2,880l1.6-1c0,0-3.5-6.4-9.7-17.5c-3.1-5.6-6.7-12.4-10.9-20.3
			c-4.2-7.8-8.8-16.7-13.6-26.5c-2.4-4.9-4.9-10-7.4-15.3s-5-10.8-7.5-16.5c-2.4-5.7-4.9-11.6-7.2-17.7c-1.1-3-2.3-6.1-3.4-9.2
			c-1.1-3.1-2.2-6.3-3.2-9.5c-4.1-12.8-8.2-26.1-11.6-39.6c-0.9-3.4-1.7-6.7-2.5-10.1c-0.4-1.7-0.9-3.3-1.3-5.1l-1.2-5.3l-1.2-5.3
			l-0.3-1.3v-0.2c0,0,0,0,0-0.1l-0.1-0.2l-0.1-0.6l-0.5-2.6c-0.7-3.5-1.4-7-2-10.5c-2.5-14.1-4.6-28.5-7.1-42.8
			c-1.3-7.1-2.7-14.3-4.3-21.3c-1.7-7-3.6-14.1-5.8-20.7c-4.4-13.5-9.9-25.8-15-37.3c-5.2-11.5-10.1-22.1-14.1-32.1
			c-4-9.9-7.2-19.2-9.3-27.6c-0.1-0.3-0.2-0.7-0.3-1c-2-7.9-3.2-15-4.1-20.9c-0.4-2.5-0.7-4.9-0.9-7c0-0.1,0-0.3-0.1-0.4
			c0.3,0.2,0.6,0.5,0.9,0.7l0,0c1,0.8,2,1.6,3,2.4c1.2,1,2.3,1.9,3.5,2.9c2.7,2.2,5.4,4.5,8.2,6.7c1.3,1.1,2.6,2.1,3.9,3.2
			c0.6,3,1.6,7.7,3,13.6c1.3,5.6,3.1,12.4,5.2,20.1c1.7,6,3.6,12.7,5.7,19.8c0.6,2,1.1,4,1.7,6c2.8,9.5,5.8,19.7,9,30.5
			s6.5,22.2,10.2,34c3.6,11.8,7.4,23.9,11.6,36.1c2,6.1,4.1,12.3,6.3,18.4c2.2,6.2,4.3,12.3,6.6,18.5c4.5,12.3,9.6,24.4,15,36.2
			c5.4,11.8,10.8,23.5,15.9,34.7c5.2,11.3,10.5,22.3,16.2,32.3c2.9,5,5.8,9.8,8.8,14.3c1.6,2.4,3,4.3,4.6,6.5s3.2,4.2,4.7,6.2
			c6.3,7.8,12.7,14.5,18.9,19.8c6.2,5.3,12,9.5,16.9,12.5c4.9,3.1,9.1,5,11.9,6.3c2.9,1.2,4.4,1.8,4.4,1.8l0.8-1.7
			c0,0-1.4-0.7-4.1-2.2c-2.6-1.5-6.5-3.7-11.1-7.1c-4.6-3.3-9.9-7.7-15.3-13.4c-2.7-2.9-5.5-6-8.3-9.5c-2.7-3.4-5.4-7.1-8-11.1
			c-1.3-2-2.6-4.1-3.9-6.2c-1.2-2.1-2.6-4.5-3.8-6.7c-2.5-4.6-4.8-9.4-7-14.4c-4.5-10.1-8.5-21-12.1-32.7c-3.5-11.6-6.6-24-10-36.5
			s-7.1-25.1-11.4-37.5c-2.1-6.2-4.5-12.3-6.7-18.5c-2.2-6.1-4.6-12.2-6.8-18.2c-4.6-12.1-9.3-23.9-14-35.3s-9.4-22.3-13.8-32.7
			c-4.4-10.4-8.6-20.2-12.5-29.3c-3.9-9.1-7.4-17.4-10.6-24.7c-3.3-7.3-6.2-13.7-8.8-18.9c-1.2-2.5-2.4-4.8-3.4-6.8
			c5,3.8,10.1,7.7,15.1,11.5c2.5,1.9,5,3.7,7.6,5.5c-0.4,7.1,0.4,14.3,1.7,21.2c1.7,8.5,4.2,16.8,7.3,24.9
			c2.9,8.1,6.4,15.9,9.7,23.7l5.1,11.6c0.8,1.9,1.8,4,2.8,6l1.7,3.5l1.2,2.3c8,15.4,17.3,30,26.7,44c4.6,7.1,9.3,14,13.7,20.9
			c4.5,6.9,8.7,13.9,12.6,21s7.5,14.3,10.8,21.7c1.6,3.7,3.2,7.4,4.6,11.2c0.7,1.9,1.4,3.8,2.1,5.7l1.1,3.1l1.1,3l2.3,5.9
			c0.9,2.1,1.8,4.2,2.7,6.2c0.9,2.1,1.9,4.1,2.9,6.1c1,2,2,3.9,3,5.8c4.3,7.7,9,15.1,14.4,22.1c5.2,7,11,13.6,16.9,19.9l4.5,4.7
			c0.7,0.8,1.5,1.5,2.3,2.2s1.6,1.5,2.3,2.3c3.1,3,6.4,5.8,9.6,8.7c6.6,5.5,13.3,10.8,20.3,15.6c5.3,3.7,10.8,7.2,16.3,10.4
			l-0.1,0.2l5.4,2.9l1-1.6c-6.7-5.1-13.3-10.3-19.5-15.9c-6.2-5.5-12.1-11.5-17.7-17.6c-2.7-3.1-5.5-6.1-8.1-9.4
			c-2.6-3.2-5.1-6.5-7.5-9.8c-1.2-1.6-2.3-3.4-3.5-5.1c-1.1-1.8-2.3-3.4-3.3-5.2c-2.1-3.5-4.2-7-6.1-10.7
			c-3.9-7.1-7.2-14.6-10.4-21.9c-1.4-3.8-3.2-7.5-4.4-11.2c-0.3-0.9-0.7-1.8-1-2.8l0,0c-0.3-0.9-0.7-1.8-1-2.7l-1.1-3.4
			c0.5,0.9,0.9,1.7,1.4,2.6c3.7,6.9,7.7,13.8,11.8,20.6c4.2,6.8,8.6,13.4,13.2,19.9s9.6,12.8,14.8,18.8c5.2,6,10.7,11.8,16.5,17.3
			c5.8,5.4,12,10.6,18.4,15.3c1.3,0.9,2.6,1.9,4,2.8c5.2,3.6,10.7,6.8,16.3,9.7l0,0l0,0l1-1.6l0,0c-5.9-5.1-11.6-10.4-17-15.9
			c-5.3-5.6-10.5-11.2-15.4-17.1c-4.8-6-9.6-11.9-14-18.2c-4.4-6.2-8.7-12.6-12.7-19.1s-8-13.1-11.7-19.7c-3.8-6.7-7.5-13.5-11-20.3
			c-3.6-6.8-7-13.8-10.5-20.7l-10.2-21l-10.4-21c-3.5-7-7.1-14-10.9-20.9c-1.8-3.5-3.8-6.9-5.7-10.4c-2-3.4-3.8-6.7-5.9-10.2
			c-4-6.8-8.2-13.5-12.3-20.1l-12.6-19.7c-3.2-5-6.4-10-9.4-15.1c-1-1.6-1.9-3.2-2.9-4.7c-4-6.6-7.7-13.4-11.6-20
			c-2-3.4-4.1-6.8-6.3-10.2c1.3,0.9,2.7,1.7,4,2.6c3.8,2.5,7.6,5,11.4,7.5c5.7,3.4,11.3,6.9,17,10.3c-0.2,0.3-0.4,0.6-0.5,0.9
			l-0.6,0.3l0.6,1.3l0.2,0.3l2.1,4.6c0.5,5.1,1.7,10.3,3.4,15.2c2.5,7.4,6,14.3,9.6,21c3.6,6.6,7.4,13,11.1,19.5
			c3.8,6.4,7.6,12.9,11.4,19.3s7.7,12.8,11.6,19.1c3.9,6.4,7.9,12.7,11.8,19c4,6.3,8,12.6,12,18.9l12.2,18.7
			c4.1,6.3,8.2,12.5,12.3,18.7c4.1,6.2,8.3,12.4,12.5,18.5s8.5,12.2,12.9,18.3c4.3,6.1,8.8,12.1,13.4,18.1c2.3,3,4.6,6,7,8.9
			c2.3,3,4.7,5.9,7.1,8.8c4.9,5.8,9.8,11.5,15,17c10.3,11,21.5,21.4,33.6,30.5l1.4-1.3c-1.4-2.2-2.8-4.3-4.3-6.3c-0.7-1-1.4-2-2-3
			c-2.1-3.1-4.2-6.2-6.2-9.3c-4.1-6.2-8.2-12.4-12.2-18.6l-11.9-18.7l-11.8-18.8l-11.9-18.8l-12.1-18.8c-4.1-6.2-8.2-12.5-12.4-18.6
			c-4.2-6.1-8.3-12.4-12.6-18.5l-12.7-18.4c-4.3-6.1-8.6-12.2-12.9-18.3c-4.3-6.1-8.7-12.2-13.1-18.1c-4.4-6.1-8.8-12.1-13.2-18
			c-4.4-6-9-11.9-13.5-17.9l-13.6-17.7c-0.3-0.4-0.6-0.8-0.9-1.1c-4.2-5.5-8.1-11-11.5-16.8c-2-3.5-3.7-7.2-5.2-11
			c-0.9-2.2-1.5-4.4-2.1-6.7c5,3,10.1,5.9,15.1,8.7c3,1.7,6,3.3,9.1,5.1c0.1,0.1,0.2,0.1,0.3,0.2v0.1c0,0,1,0.6,2.8,1.5
			c1.9,1.1,3.9,2.1,5.9,3.1c0.4,0.2,0.8,0.4,1.1,0.6c1.9,1,3.8,2,5.8,3c1.2,2.6,3.1,6.2,5.4,10.8c1.2,2.4,2.6,5,4.1,7.8
			c1.6,2.8,3.2,5.9,5.1,9.1c1.8,3.3,3.8,6.7,5.9,10.3c2.1,3.6,4.4,7.3,6.8,11.3c4.7,7.8,10.1,16.2,15.7,25.1
			c5.7,8.8,11.8,18.1,18.2,27.6c3.2,4.7,6.5,9.5,9.8,14.4c3.4,4.8,6.9,9.7,10.5,14.5c7.1,9.7,14.7,19.3,22.4,28.8
			c7.8,9.4,15.8,18.7,23.8,27.7c4,4.5,8,9,12,13.3s8,8.5,11.9,12.7c7.9,8.3,15.7,16.2,23.2,23.5c3.8,3.7,7.4,7.2,11,10.7
			c3.5,3.5,7.1,6.6,10.5,9.7c3.4,3.1,6.6,6.1,9.7,8.9c3.2,2.8,6.2,5.4,9,7.8c2.8,2.4,5.4,4.7,7.9,6.8s4.8,4,6.8,5.6
			c8.3,6.8,13.1,10.5,13.1,10.5l1.3-1.4c0,0-0.5-0.6-1.5-1.7c-1.7-2.1-4.9-5.9-9.4-11.1c-6.9-8.1-16.7-19.6-28.6-33.5
			c-5.9-6.9-12.2-14.5-18.9-22.4c-6.6-8-13.6-16.4-20.9-25.1c-7.2-8.8-14.7-17.8-22.1-27.1c-7.6-9.1-15-18.7-22.6-28.1
			c-7.5-9.5-15.2-18.8-22.6-28c-7.6-9.2-15.1-18.2-22.3-26.9c-3.6-4.4-7.1-8.7-10.5-13s-6.8-8.4-10-12.5c-6.4-8.2-12.5-15.9-18-23.2
			c-5.5-7.2-10.6-13.9-15.1-19.7c-4.6-5.9-8.5-11-11.8-15.2c-1.3-1.7-2.5-3.2-3.6-4.6c1.6,0.8,3.2,1.6,4.8,2.5l4.5,2.3l4.6,2.2
			c3,1.4,6.1,2.9,9.1,4.3c3.9,1.8,7.7,3.6,11.5,5.4c0.1,0.3,0.1,0.5,0.2,0.7c0.6,2.5,1.8,6,4,10.1c2.1,4.1,5.5,8.5,9,13.8
			c3.6,5.3,7.7,11.2,12.3,17.6c4.5,6.5,9.5,13.3,14.8,20.6c5.3,7.3,11,14.8,16.9,22.6c4.1,5.2,8.2,10.6,12.5,16
			c2,2.6,4.1,5.2,6.2,7.8c6.4,8.1,13.1,16.1,19.8,24.1c6.8,7.9,13.6,16,20.4,23.6c6.8,7.7,13.7,15.2,20.3,22.4
			c3.3,3.6,6.7,7.1,9.9,10.5c3.3,3.4,6.4,6.8,9.6,10c6.4,6.4,12.3,12.4,18,17.8c2.8,2.7,5.5,5.3,8.1,7.8c2.6,2.4,5.1,4.7,7.4,6.9
			c4.7,4.3,8.7,8.1,12.2,11.1c6.9,6,10.8,9.4,10.8,9.4l0.6-0.6l0.7-0.8c0,0-3.7-3.7-10.2-10.1c-3.3-3.2-7.1-7.2-11.6-11.7
			c-2.2-2.3-4.5-4.7-7.1-7.2c-2.4-2.6-5-5.3-7.7-8.1c-5.4-5.6-11-11.9-17-18.5c-6-6.7-12.3-13.7-18.7-21c-6.3-7.4-12.9-15-19.5-22.9
			c-6.6-7.8-13.1-15.9-19.7-24c-6.4-8.2-13-16.2-19.2-24.4c-6.3-8-12.4-16.1-18.2-23.9c-3-3.9-5.7-7.8-8.5-11.6
			c-2.8-3.8-5.5-7.5-8.1-11.1c-5.2-7.3-10.2-14.1-14.6-20.5c-4.5-6.4-8.6-12.2-12.1-17.5c-1.8-2.6-3.4-5.1-4.9-7.3
			c-1.2-1.7-2.3-3.4-3.3-4.8c1,0.4,2.1,0.8,3.4,1.4c3.3,1.3,7.3,2.8,12,4.2c0.9,0.3,1.9,0.6,2.9,0.9c2.5,1,4.9,1.9,7.3,2.8l-1.3,0.7
			c0,0,0.4,1.4,1.2,3.8c0.9,2.5,2,6.1,4,10.6c0.6,1.3,1.2,2.6,1.8,4c0.5,1.1,1,2.2,1.6,3.4c1.4,2.6,2.8,5.5,4.5,8.5
			c1.7,2.9,3.5,6.1,5.6,9.3c2.1,3.2,4.4,6.5,6.8,10c5,6.7,10.6,13.9,17,21c6.3,7.2,13.2,14.6,20.5,22s14.9,14.9,22.9,22.3
			c7.9,7.4,16.1,14.8,24.3,22.2c4.1,3.7,8.2,7.4,12.2,11c4.1,3.6,8.2,7.2,12.3,10.8c3,2.6,6,5.2,9,7.8c5.1,4.4,10.2,8.7,15.2,12.9
			c8,6.6,15.7,12.9,23.2,18.7c7.5,5.9,14.7,11.2,21.4,16.1c6.7,4.8,12.9,9.2,18.5,12.9s10.5,6.9,14.6,9.4c4.1,2.6,7.4,4.4,9.6,5.8
			c2.2,1.3,3.4,2,3.4,2l1.1-1.6c0,0-1.1-0.8-3.2-2.3s-5.2-3.7-8.9-6.6c-1.9-1.5-4-3.1-6.3-4.8c-2.3-1.8-4.8-3.7-7.4-5.7
			c-5.2-4.2-11.1-8.9-17.4-14.1c-6.3-5.3-13.1-11-20.2-17.2c-7.1-6.1-14.5-12.8-22.1-19.7s-15.4-14.1-23.2-21.5
			c-7.9-7.4-15.8-15-23.8-22.5c-7.9-7.6-15.9-15.1-23.6-22.6c-7.7-7.6-15.3-14.9-22.4-22.2c-7.1-7.3-13.8-14.6-19.9-21.6
			s-11.7-13.8-16.8-20c-2.6-3.1-5-6.2-7.4-9c-2.3-2.9-4.4-5.7-6.5-8.2c-4.1-5.2-7.6-9.8-10.5-13.5s-5.2-6.9-6.8-8.9
			c-1-1.3-1.7-2.1-2.1-2.6c1,0.4,1.9,0.7,2.9,1.1c4.7,1.7,9.4,3.5,14,5.2l0,0c0,0,0.7,1,2.1,3s3.4,4.9,5.9,8.6s5.8,8,9.6,13
			c1.9,2.5,3.9,5.1,6.1,7.9s4.5,5.6,7,8.6c2.4,3,5,6.1,7.6,9.3c2.8,3.1,5.6,6.3,8.5,9.6c5.8,6.7,12.3,13.4,18.8,20.4
			c6.7,6.9,13.7,13.9,21.1,20.8c3.6,3.5,7.4,7,11.1,10.4l0,0c3.8,3.5,7.6,6.9,11.4,10.3c7.8,6.7,15.5,13.5,23.4,19.8
			c7.7,6.5,15.7,12.5,23.3,18.4c3.9,2.8,7.7,5.7,11.4,8.4c3.7,2.8,7.4,5.4,11,7.9s7.2,5,10.5,7.4c3.4,2.3,6.8,4.5,10,6.6
			s6.3,4.1,9.3,6s5.8,3.6,8.5,5.2c2.6,1.6,5.1,3.2,7.4,4.6c2.3,1.4,4.4,2.6,6.4,3.8c7.7,4.5,12.2,7,12.2,7l1-1.6
			c0,0-4.2-2.9-11.6-7.9c-1.9-1.2-3.9-2.6-6.1-4.1s-4.6-3.2-7.2-5c-2.5-1.8-5.2-3.7-8.1-5.7c-2.8-2.1-5.8-4.2-8.8-6.5
			c-3.1-2.3-6.3-4.6-9.6-7c-3.3-2.5-6.7-5-10.2-7.7c-3.5-2.6-7-5.4-10.6-8.2c-1.3-1-2.5-2-3.8-3c-2.4-1.9-4.8-3.8-7.2-5.7
			c-7.3-6.1-15-12.2-22.6-18.8c-7.7-6.4-15.2-13.3-22.8-20c-7.4-6.9-15-13.7-22.1-20.7c-7.3-6.9-14.1-14-20.9-20.7
			c-3.3-3.4-6.6-6.8-9.8-10.1c-1.6-1.6-3.2-3.3-4.8-4.9c-1.5-1.6-3.1-3.2-4.6-4.8c-6-6.4-11.7-12.4-16.8-18
			c-2.6-2.8-5.1-5.5-7.5-8.1c-2.3-2.6-4.5-5-6.6-7.3s-4.1-4.4-5.9-6.4s-3.4-3.9-4.9-5.5c-3-3.3-5.3-6-7-7.7
			c-0.1-0.1-0.1-0.1-0.1-0.2c5.8,2,11.5,4.1,17.1,6c4.8,1.6,9.5,3.2,14.2,4.8l-0.4,0.3c0,0,0.2,1.3,0.9,3.6c0.4,1.1,0.9,2.5,1.6,4.1
			s1.6,3.4,2.8,5.3c2.3,3.8,5.7,8,9.8,12.6c4.1,4.6,8.9,9.5,14.3,14.8c5.4,5.2,11.4,10.6,17.9,16.3c6.5,5.6,13.3,11.4,20.4,17.4l0,0
			c7.1,6,14.5,12.1,22.1,18.2c7.6,6.2,15.3,12.4,23.1,18.5c15.6,12.2,31.5,24.1,46.4,35.1c7.5,5.5,14.8,10.7,21.7,15.7
			c7,4.9,13.6,9.4,19.7,13.6c6.1,4.2,11.8,8,16.8,11.3c0.1,0.1,0.3,0.2,0.4,0.3c4.9,3.2,9.1,6,12.6,8.3c7.3,4.7,11.5,7.4,11.5,7.4
			l1.1-1.6c0,0-4-2.9-11-8c-3.5-2.6-7.7-5.7-12.6-9.2c-4.8-3.6-10.3-7.6-16.3-12s-12.4-9.3-19.1-14.4c-6.7-5.1-13.8-10.6-21.2-16.2
			c-14.7-11.3-30.1-23.6-45.4-36.2c-7.6-6.3-15.2-12.6-22.7-18.8c-7.5-6.2-14.8-12.4-21.8-18.4s-13.8-11.9-20.2-17.5
			c-6.4-5.6-12.2-11-17.5-16c-5.3-5.1-9.9-9.9-13.8-14.4c-4-4.4-7.1-8.5-10-11.6s-5.3-5.4-7.1-7c-0.1-0.1-0.2-0.2-0.4-0.3
			c14.3,4.7,28.1,9.1,41.2,13.2c0.7,1.4,1.9,3.8,3.8,7c1.5,2.6,3.6,5.7,6.1,9c2.5,3.4,5.5,7.1,8.8,11.1c3.2,4,6.9,8.3,10.8,12.8
			s8,9.2,12.4,13.9c4.4,4.7,8.9,9.7,13.7,14.5c4.7,4.9,9.7,9.7,14.6,14.5c5.1,4.7,10.1,9.4,15.2,13.9s10.2,8.8,15.2,12.9
			c2.5,2.1,5,4,7.4,6c2.5,1.9,4.8,3.9,7.2,5.6c4.8,3.5,9.2,6.9,13.6,9.7c2.1,1.5,4.2,2.9,6.1,4.2c2,1.3,3.9,2.5,5.6,3.6
			c3.5,2.3,6.6,4.3,9.2,5.7c5.2,3.1,8.2,4.8,8.2,4.8l1-1.6c0,0-2.9-1.9-7.9-5.2c-2.5-1.6-5.5-3.7-8.9-6.1c-1.7-1.2-3.5-2.5-5.4-3.8
			c-1.8-1.4-3.8-2.9-5.9-4.4c-4.2-3-8.5-6.6-13.1-10.2c-2.3-1.8-4.6-3.8-7-5.7c-2.4-2-4.8-3.9-7.2-6.1c-4.8-4.2-9.8-8.6-14.7-13.2
			c-5-4.5-9.8-9.3-14.7-14.1c-4.8-4.9-9.7-9.6-14.3-14.6c-4.7-4.8-9.1-9.8-13.4-14.5c-4.3-4.8-8.4-9.4-12.2-13.9
			c-3.8-4.5-7.4-8.7-10.6-12.7c-1.6-2-3.2-3.9-4.6-5.7c-1.4-1.8-2.8-3.6-4.1-5.2c-2.6-3.2-5.1-5.9-7.1-8.2c-0.8-0.9-1.6-1.7-2.3-2.4
			h0.1c10.8,3.4,21.1,6.5,30.8,9.6c0.1,0.4,1.1,3.3,3.4,7.7c1.2,2.4,2.9,5.2,5,8.3c1,1.5,2.2,3.2,3.4,4.8c1.3,1.6,2.6,3.3,4.1,5.1
			c2.9,3.5,6.1,7.2,9.5,11.2c3.4,3.9,7.1,8,11,12.2c3.9,4.1,8,8.4,12.3,12.5c1.6,1.6,3.3,3.3,5,4.9c1.7,1.5,3.3,3.1,5,4.6
			c1,1,2.1,1.9,3.1,2.9c4.6,4,9.1,8.1,13.7,11.8c4.6,3.9,9.2,7.5,13.7,10.9c2.1,1.6,4.3,3.2,6.4,4.7c0.1,0.1,0.2,0.2,0.3,0.3
			c2.2,1.6,4.4,3.2,6.5,4.6c4.3,2.9,8.4,5.7,12.3,8c1.9,1.2,3.8,2.3,5.6,3.4c1.8,1,3.5,2,5.1,2.9c3.2,1.8,6,3.4,8.4,4.5
			c4.1,2.1,6.7,3.4,7.3,3.7c0,0,0.1,0,0.1,0.1l0.9-1.7c0,0-2.5-1.6-7-4.4c-2.2-1.4-4.9-3.1-7.9-5.2c-1.5-1-3.1-2.1-4.8-3.2
			c-1.6-1.2-3.4-2.5-5.2-3.8c-3.7-2.5-7.5-5.6-11.6-8.7c-2.1-1.5-4.1-3.2-6.2-4.9c-2.1-1.7-4.2-3.4-6.4-5.2
			c-4.2-3.6-8.7-7.3-13-11.3c-4.4-3.9-8.7-8.1-13.1-12.1c-4.2-4.2-8.6-8.3-12.6-12.6c-4.1-4.2-8-8.5-11.8-12.5
			c-3.7-4.1-7.4-8.1-10.7-12.1c-3.3-3.9-6.5-7.6-9.3-11.1s-5.5-6.6-7.9-9.3c-2.4-2.7-4.7-4.9-6.7-6.8c-1.1-1.1-2.1-1.9-3-2.7
			c5.5,1.7,10.7,3.4,15.8,5l0.1,0.9c0,0,0.9,0.3,2.5,0.6l-0.1,0.1c0,0,0.4,0.6,1.2,1.7c0.8,1.1,2,2.7,3.5,4.6
			c3.1,3.9,7.9,9.2,14.1,14.9c3.1,2.9,6.6,5.9,10.3,9.1c2.2,1.9,4.4,3.8,6.7,5.8c1.6,1.4,3.3,2.8,4.9,4.2c4.1,3.4,8.2,7,12.6,10.5
			c4.3,3.5,8.8,7,13.2,10.6c4.5,3.5,9,7,13.5,10.2c4.5,3.3,8.9,6.5,13.3,9.6c4.4,3,8.6,5.9,12.7,8.6s8,5.1,11.6,7.3
			c1.8,1.1,3.6,2.2,5.2,3.2c1.7,1,3.3,1.9,4.8,2.7c3,1.7,5.6,3.2,7.8,4.3c4.4,2.3,6.9,3.6,6.9,3.6l0.9-1.7c0,0-2.4-1.5-6.5-4.3
			c-2-1.3-4.5-3-7.3-4.9c0,0,0,0-0.1,0c-2.8-1.9-6-4.1-9.4-6.6c-3.5-2.4-7.1-5.2-11-8c-3.9-2.9-7.9-6-12.1-9.2
			c-4.1-3.3-8.5-6.6-12.8-10.1c-4.3-3.4-8.6-7.1-13-10.6c-4.3-3.6-8.7-7.2-12.8-10.8c-4.2-3.6-8.3-7.1-12.3-10.6s-7.8-6.9-11.4-10
			c-3.6-3.2-7-6.3-10.2-9.1c-3.2-2.7-6.2-5.2-8.9-7.3c-2.7-2.1-5.2-3.8-7.3-5.2c-1.2-0.8-2.2-1.5-3.2-2.1h0.1
			c14.4,4.7,27.1,8.9,37.6,12.5c0.6,0.2,1.1,0.4,1.7,0.6l-0.5,0.8c0,0,1.3,2.3,4.3,5.6c1.4,1.6,3.4,3.5,5.7,5.5
			c1.4,1.2,3,2.5,4.7,3.7c1.1,0.8,2.3,1.6,3.5,2.4c6.2,4.1,13.5,8.8,21.4,13.7c3.9,2.4,8.1,4.9,12.3,7.3c4.1,2.5,8.5,4.8,12.7,7.2
			c0.1,0,0.1,0.1,0.2,0.1c4.4,2.3,8.7,4.7,13.1,6.9c4.3,2.2,8.6,4.4,12.8,6.3c6.7,3.1,13.2,6,19,8.5c1.5,0.6,2.9,1.2,4.3,1.7
			c1.7,0.7,3.4,1.3,5,1.9c0.1,0,0.1,0.1,0.2,0.1c1.5,0.6,2.9,1.1,4.3,1.6c2.9,1,5.3,2,7.4,2.6c4.1,1.3,6.5,2.1,6.5,2.1l0.7-1.8
			c0,0-2.2-1.1-6.1-2.9c-3.9-1.9-9.4-4.6-15.9-7.9c-3.3-1.6-6.8-3.6-10.5-5.5c-3.7-2-7.6-4.1-11.6-6.4s-8.1-4.6-12.3-7
			c-4.2-2.4-8.4-5-12.6-7.4c-4.2-2.6-8.4-5.1-12.5-7.6c-2.7-1.7-5.3-3.3-7.9-5c-0.9-0.6-1.9-1.2-2.8-1.7c0.5,0.2,1,0.3,1.6,0.5
			c3.6,1.2,7.6,2.2,11.8,3.4c4.2,1.2,8.6,2.3,13.2,3.5c4.6,1.1,9.4,2.3,14.2,3.3c4.9,1.1,9.8,2,14.8,3c9.9,1.8,19.9,3.4,29.3,4.6
			c4.7,0.5,9.3,1.1,13.6,1.5c4.3,0.5,8.4,0.8,12.2,1c3.8,0.3,7.2,0.5,10.3,0.6c3.1,0.1,5.7,0.3,7.9,0.3c4.4,0,7,0.1,7,0.1l0.1-0.6
			l0.1-1.3c0,0-9.8-1.9-24.6-4.8c-3.7-0.7-7.6-1.6-11.9-2.4c-4.2-0.8-8.6-1.8-13.2-2.8c-4.5-1-9.3-1.9-14.1-3.1
			c-4.8-1.1-9.6-2.3-14.5-3.4c-4.8-1.2-9.7-2.3-14.4-3.6c-4.7-1.2-9.4-2.5-13.9-3.7s-8.8-2.5-12.9-3.6c-4.1-1.2-8-2.3-11.6-3.3
			s-7-1.7-10-2.2c-1.8-0.3-3.5-0.5-5-0.6l0.1-0.3c0,0-0.6-0.2-1.8-0.7c1.4,0.2,2.9,0.3,4.5,0.4c2.6,0.2,5.5,0.2,8.5,0.3
			c3,0.1,6.2,0.2,9.5,0.3l0.9,0.1c6.3,0.2,13,0.5,19.7,0.7c14,0.6,28.1,1.2,38.6,1.6c10.5,0.5,17.6,0.7,17.6,0.7l0.1-1.5l0.1-0.4
			c0,0-1.7-0.3-4.8-0.9c-1.5-0.3-3.4-0.6-5.5-0.9c-2.1-0.4-4.5-0.8-7.2-1.2c-5.2-0.8-11.4-1.6-17.9-2.4c-6.6-0.7-13.6-1.5-20.6-2.1
			c-7.1-0.5-14.1-1.1-20.7-1.4s-12.8-0.6-18.1-0.6c-5.3,0-9.7,0.6-12.8,1.2c-2.1,0.4-3.5,0.8-4.3,1.1c-1.9-0.8-4.1-1.6-6.4-2.5
			c-4.5-1.7-9.5-3.7-15.3-5.7c-7.7-2.8-16.6-6-26.4-9.4h0.2c2.9,0,6-0.2,9.3-0.3c3.3-0.2,6.8-0.2,10.4-0.2c2.1,0,4.3,0,6.6,0
			c1.5,0,3,0,4.5,0c3.8,0,7.6,0.2,11.5,0.3c3.8,0.2,7.7,0.4,11.5,0.6s7.5,0.5,11.1,0.8s7.1,0.5,10.4,0.8s6.4,0.6,9.3,0.9
			c11.6,1.2,19.4,1.9,19.4,1.9l0.3-1.9c0,0-1.9-0.6-5.2-1.6c-1.5-0.4-3.3-0.9-5.3-1.4c-0.2-0.1-0.4-0.1-0.6-0.2
			c-2.3-0.6-4.9-1.3-7.8-1.9c-2.9-0.7-6-1.4-9.3-2c-3.3-0.7-6.8-1.3-10.4-1.9c-3.7-0.5-7.4-1.1-11.3-1.6c-3.8-0.6-7.8-1-11.7-1.3
			c-3.9-0.3-7.9-0.6-11.7-0.8c-3.9-0.3-7.7-0.3-11.4-0.3c-3.7,0-7.3,0-10.7,0.1c-3.4,0.1-6.6,0.1-9.5,0.5c-3,0.3-5.7,0.8-8,1.4
			c-2.4,0.6-4.4,1.2-6.1,1.8c-0.7,0.3-1.4,0.5-2,0.8c-5.7-1.9-11.7-3.9-17.9-6c-2-0.7-4.1-1.3-6.2-2c-3.3-1.1-6.7-2.2-10.1-3.3
			c-0.2-0.1-0.5-0.2-0.7-0.2c0.1,0,0.2,0,0.3,0c1.1,0,2.3-0.1,3.5-0.2c0.4,0,0.8-0.1,1.2-0.1c4.6-0.4,9.6-0.7,14.9-1
			s10.8-0.5,16.6-0.8c5.8-0.1,11.7-0.4,17.8-0.5c6.1-0.1,12.2-0.2,18.4-0.3c6.1,0,12.3-0.1,18.4,0c6.1-0.1,12.1,0.1,17.9,0.1
			c11.6,0.2,22.5,0.4,31.8,0.6c8,0.2,14.8,0.3,20.1,0.4c0.9,0,1.7,0,2.5,0c5.4,0.1,8.6,0.1,8.6,0.1l0.2-1.9c0,0-3.1-0.7-8.4-1.9
			c-2.7-0.6-5.9-1.2-9.7-2c-1.9-0.4-3.9-0.8-6-1.2c-2.1-0.3-4.3-0.7-6.6-1.1c-4.6-0.8-9.6-1.7-15-2.4c-5.3-0.8-10.9-1.5-16.8-2.3
			c-11.7-1.4-24.2-2.5-36.7-3.3c-6.3-0.3-12.6-0.7-18.7-0.7c-6.2-0.2-12.3-0.2-18.2-0.2c-5.9,0.2-11.6,0.1-17,0.4
			s-10.5,0.5-15.2,0.9c-4.7,0.3-9,1-12.8,2c-3.7,1-7,2.2-9.6,3.5c-2.3,1.1-4.1,2.2-5.4,3c-0.3,0.2-0.6,0.4-0.8,0.5
			c-6.9-2.3-14-4.7-21.3-7.2h-0.1c-7.3-2.5-14.7-5-22.3-7.7c-3.6-1.3-7.3-2.6-11-4c-1-0.4-1.9-0.7-3-1.1c-2-0.7-3.9-1.5-5.9-2.2
			c0.3,0.1,0.5,0.1,0.8,0.1c0.8,0.1,1.6,0.3,2.5,0.4c2.8,0.4,5.7,0.8,8.6,1.2c7.5,0.8,15.3,1.8,23.2,2.3c7.9,0.7,16,1,24.1,1.4
			c8,0.2,16.1,0.4,24.1,0.2c8,0,15.7-0.4,23.3-0.8c7.5-0.6,14.8-1,21.7-1.8c6.9-0.7,13.4-1.4,19.3-2.4c3-0.4,5.9-0.9,8.6-1.3
			c2.7-0.5,5.3-0.9,7.7-1.3c4.8-0.9,9-1.7,12.4-2.4c6.8-1.5,10.7-2.4,10.7-2.4l-0.2-1.9c0,0-4,0.2-11,0.6c-0.7,0-1.5,0.1-2.3,0.2
			c-3,0.2-6.5,0.4-10.3,0.5c-2.4,0.1-5,0.3-7.7,0.4s-5.6,0.2-8.6,0.3c-3,0.1-6.1,0.2-9.3,0.3c-3.2,0.1-6.5,0.1-9.9,0.2
			s-6.9,0.1-10.5,0.1s-7.2,0-10.9,0c-7.5-0.1-15.1-0.2-22.9-0.5c-7.8-0.2-15.7-0.7-23.6-1.1c-7.9-0.7-15.8-1.1-23.5-1.9
			c-7.7-0.6-15.3-1.6-22.7-2.4c-14.7-1.8-28.5-3.4-40.3-4.9c-5.9-0.7-11.3-1.3-16.2-1.8c-2.1-0.2-4-0.4-5.9-0.6
			c-0.5-0.2-1-0.5-1.5-0.7c-0.1,0-0.1-0.1-0.2-0.1c-3.7-1.6-7.3-3.3-11-4.9c-0.8-0.3-1.6-0.7-2.4-1.1c-2.3-1-4.5-2-6.7-3
			c-0.1,0-0.2-0.1-0.2-0.1c-3.6-1.7-7.2-3.6-10.9-5.3c-0.4-0.2-0.9-0.5-1.3-0.7c4,0.8,8.1,1.5,12.4,2.2c7.1,1.3,14.6,2.4,22.3,3.6
			c7.8,1,15.8,2.3,23.9,3.1c8.1,1,16.5,1.8,24.8,2.6c8.3,0.7,16.6,1.3,24.8,1.7c8.2,0.5,16.3,0.8,24.1,1.1
			c7.8,0.1,15.4,0.3,22.5,0.3c7.2,0,13.9-0.1,20.2-0.3c3.1-0.1,6.1-0.2,9-0.3c2.8-0.1,5.5-0.3,8.1-0.4c5.1-0.3,9.5-0.5,13.1-0.8
			c7.2-0.6,11.4-0.9,11.4-0.9v-1.9c0,0-4.2-0.2-11.4-0.5h-1c-3.4-0.1-7.5-0.3-12.1-0.5c-5-0.3-10.7-0.5-16.9-0.9
			c-3.1-0.2-6.3-0.4-9.6-0.6c-3.4-0.2-6.8-0.4-10.3-0.7c-7.1-0.4-14.6-1.1-22.3-1.7c-7.7-0.7-15.7-1.3-23.8-2.2
			c-8.1-0.8-16.3-1.9-24.5-2.7c-8.2-1.1-16.4-2-24.4-3.3c-8-1.1-15.9-2.4-23.6-3.6c-3.8-0.7-7.6-1.3-11.2-1.9
			c-3.7-0.6-7.3-1.2-10.7-1.8c-7-1.3-13.6-2.5-19.6-3.6c-6.1-1-11.8-1.8-16.7-2.4c-4.6-0.5-8.6-0.8-12.1-1c-0.2-0.1-0.5-0.3-0.7-0.4
			c-1.6-0.8-3.2-1.7-4.8-2.6c-1.4-0.8-2.8-1.6-4.2-2.4c-3-1.7-5.9-3.4-8.9-5.2c-1-0.6-2-1.1-3-1.7c-4.3-2.5-8.6-5.1-12.9-7.8
			c-0.1,0-0.1-0.1-0.2-0.1l0,0c-2.2-1.4-4.5-2.8-6.8-4.2c-0.1-0.1-0.2-0.1-0.3-0.2c-2-1.2-3.9-2.5-5.9-3.7c-0.6-0.3-1.1-0.7-1.6-1
			c0.4,0.2,0.8,0.4,1.2,0.6l0,0c2.8,1.3,6,2.7,9.6,4.2c4.7,2,10.1,4,16,5.9c3,1,6.1,2,9.3,3c3.2,0.9,6.6,1.8,10,2.7
			c6.9,1.8,14.2,3.3,21.9,4.8c7.7,1.3,15.6,2.5,23.7,3.4s16.4,1.3,24.7,1.6c8.3,0.1,16.6,0.1,24.8-0.2c8.2-0.1,16.2-0.7,23.9-0.9
			c7.7-0.4,15.2-0.7,22.3-1c3.5-0.1,7-0.3,10.3-0.4c3.3-0.2,6.5-0.4,9.6-0.5c6.2-0.3,11.8-0.7,16.8-1.1c5-0.3,9.4-0.7,12.9-1
			c7.2-0.6,11.2-0.9,11.2-0.9v-1v-0.8c0,0-4.1-0.2-11.2-0.4c-3.6-0.1-7.9-0.4-12.9-0.7c-5-0.3-10.6-0.7-16.7-1.2
			c-6.1-0.4-12.7-1-19.7-1.7c-7-0.6-14.3-1.7-21.9-2.8c-7.6-1.2-15.3-2.5-23.2-4c-6.3-1.1-12.5-2.4-18.9-3.6c-1.7-0.3-3.3-0.6-5-0.9
			c-8-1.5-15.9-2.7-23.8-3.9c-7.9-1-15.6-2.2-23.1-3c-3.8-0.4-7.5-0.9-11.1-1.3c-3.7-0.3-7.2-0.7-10.7-1c-7-0.6-13.6-1.1-19.7-1.5
			c-3.1-0.2-6-0.3-8.8-0.4s-5.5-0.2-8-0.3c-1,0-2-0.1-2.9-0.1c-3.8-0.1-7.3,0-10.2,0c-3.6,0-6.6,0.2-8.6,0.3c-2,0.1-3.1,0.2-3.1,0.2
			l-0.1,0.6c-3.5-2.4-7-4.7-10.4-7.1c-2.2-1.5-4.5-3-6.8-4.6c-0.6-0.4-1.2-0.9-1.8-1.3c-0.3-0.2-0.5-0.4-0.8-0.6l-6.3-4.6l-0.7-0.5
			c0.8,0.2,1.5,0.5,2.3,0.8c3,1,6.2,2.2,9.5,3.1c3.3,1,6.7,2,10.2,3s7.2,2,10.9,2.8c3.7,0.9,7.6,1.7,11.5,2.5c3.9,0.7,8,1.4,12,2.1
			c4.1,0.7,8.2,1.2,12.3,1.8c8.3,1.1,16.8,1.8,25.3,2.6c8.5,0.5,17,1.2,25.4,1.4c8.3,0.4,16.6,0.3,24.5,0.4c8-0.2,15.7-0.3,22.9-0.7
			c3.6-0.2,7.2-0.4,10.6-0.6s6.7-0.6,9.9-0.8c3.1-0.3,6.2-0.6,9.1-0.9c2.9-0.4,5.6-0.7,8.2-1c5.2-0.6,9.6-1.3,13.2-1.9
			c7.3-1.2,11.4-2,11.4-2l-0.1-1.9c0,0-2.8-0.3-8-0.7c-1.1-0.1-2.3-0.2-3.5-0.3c-1.9-0.1-3.9-0.3-6.1-0.5s-4.6-0.4-7.1-0.6
			s-5.3-0.4-8.1-0.7c-2.8-0.3-5.8-0.6-8.9-0.9c-6.2-0.6-13-1.3-20.1-2c-3.6-0.3-7.2-0.8-10.9-1.2c-3.7-0.4-7.5-0.9-11.4-1.3
			c-7.7-1-15.7-2-23.7-3.2c-8.1-1.1-16.2-2.5-24.4-3.7c-8.1-1.4-16.2-2.8-24.2-4.3c-4-0.7-7.9-1.5-11.8-2.2
			c-3.9-0.8-7.8-1.5-11.6-2.1c-0.3,0-0.6-0.1-0.9-0.2c-3.5-0.6-6.9-1.3-10.3-1.8c-3.7-0.6-7.2-1.2-10.8-1.8c-7-1.1-13.7-2.1-19.8-3
			c-3.1-0.5-6-0.9-8.8-1.3c-2.8-0.5-5.4-0.9-8-1.3c-5-0.7-9.5-0.9-13.4-0.8c-1.5,0-2.8,0.1-4.1,0.2c-1.2,0.1-2.2,0.3-3.2,0.4
			c-0.1-0.1-0.2-0.1-0.2-0.2c-0.5-0.4-1-0.8-1.5-1.2h-0.1c-0.6-0.5-1.3-1-1.9-1.5l-0.1-0.1c-0.9-0.7-1.9-1.5-2.8-2.2
			c-0.2-0.2-0.4-0.3-0.6-0.5c-0.5-0.4-1-0.8-1.5-1.3c0.2,0,0.3,0.1,0.5,0.2c4.5,1.4,9.7,2.7,15.4,3.9c5.6,1.2,11.8,2.2,18.4,3
			c6.6,0.9,13.5,1.3,20.6,1.6c7.1,0.3,14.6,0.3,22.1-0.2c5.1-0.2,10.2-0.8,15.4-1.3c2.5-0.3,4.9-0.6,7.3-0.8
			c7.6-1.1,15.2-2.1,22.6-3.2s14.7-2.2,21.8-3.2c7.1-1.1,13.9-2.2,20.3-3.4c6.4-1.2,12.5-2.3,18.1-3.6c5.6-1.2,10.7-2.3,15.2-3.4
			s8.4-2,11.6-2.9c6.4-1.7,10-2.7,10-2.7l-0.3-1.9c0,0-3.8,0.4-10.4,1c-3.3,0.3-7.3,0.6-11.9,1c-4.5,0.4-9.7,0.7-15.3,1
			c-5.7,0.4-11.7,0.6-18.2,0.9c-6.5,0.2-13.3,0.4-20.3,0.5s-14.3,0.2-21.7-0.2c-7.3-0.1-14.8-0.7-22.3-1.1c-7.5-0.6-14.9-1-22.2-1.4
			c-7.3-0.3-14.5-0.5-21.5-0.4c-7,0-13.7,0.1-20.1,0.3c-6.4,0.1-12.4,0.6-18.1,0.9c-2.8,0.2-5.5,0.4-8.1,0.7c-2.5,0.2-5,0.5-7.3,0.7
			c-4.6,0.5-8.7,1.2-12,1.7c-1.3,0.2-2.5,0.4-3.6,0.6c-0.8-0.6-1.5-1.3-2.3-1.9s-1.5-1.2-2.1-1.8c-1-0.8-1.9-1.6-2.8-2.4
			c-1.9-1.7-3.8-3.3-5.6-5c-0.3-0.3-0.6-0.5-0.8-0.8c-0.3-0.3-0.7-0.6-1.1-1c-0.1-0.1-0.2-0.2-0.3-0.3c-1.8-1.6-3.6-3.3-5.4-4.9
			c1.5,0.3,3,0.5,4.6,0.8c1.4,0.2,2.9,0.6,4.4,0.7c1.5,0.2,3,0.3,4.6,0.5c3.1,0.3,6.3,0.6,9.6,1c3.3,0.1,6.7,0.3,10.2,0.5
			c1.7,0.1,3.5,0.1,5.2,0.2c1.8,0,3.5,0,5.3-0.1c3.6-0.1,7.2,0,10.9-0.1c3.7-0.2,7.4-0.4,11.1-0.6s7.5-0.6,11.2-1s7.5-0.7,11.3-1.3
			c3.7-0.5,7.5-1.1,11.2-1.6s7.4-1.3,11-2c7.3-1.3,14.4-3,21.3-4.6c3.4-0.8,6.8-1.7,10.1-2.6c3.3-0.9,6.5-1.7,9.5-2.7
			c6.2-1.9,12-3.7,17.3-5.6c2.6-1,5.2-1.9,7.6-2.7c2.4-0.9,4.7-1.8,6.8-2.7c4.2-1.7,8-3.1,10.9-4.5c6-2.7,9.3-4.3,9.3-4.3l-0.1-0.3
			l-0.5-1.5c0,0-3.7,0.7-10,2.1c-3.2,0.7-7.1,1.4-11.5,2.3c-2.2,0.4-4.5,0.9-7,1.3s-5.1,0.9-7.8,1.4c-5.4,1-11.3,1.9-17.6,2.9
			c-6.2,1.1-12.8,1.8-19.6,2.8c-3.4,0.4-6.9,0.8-10.4,1.2c-3.5,0.5-7,0.8-10.6,1.1c-3.6,0.3-7.2,0.7-10.8,0.9
			c-3.6,0.2-7.2,0.5-10.9,0.7c-3.6,0.3-7.2,0.3-10.8,0.5c-3.6,0.1-7.2,0.3-10.7,0.3c-3.6,0-7.1,0-10.5,0.1
			c-3.5-0.1-6.9-0.2-10.2-0.3c-1.7-0.1-3.3-0.1-5-0.2c-1.6-0.1-3.3-0.2-4.9-0.4c-3.2-0.2-6.4-0.5-9.4-0.7c-3-0.4-6-0.8-8.8-1.1
			c-1.4-0.2-2.8-0.3-4.2-0.5c-1.4-0.1-2.7-0.5-4-0.7c-5.1-1-10-1.6-14-2.8c-2.1-0.5-4-0.8-5.9-0.8c-1,0-1.9,0-2.8,0.1
			c-0.9,0-1.7,0.1-2.6,0.2c-2.4,0.3-4.6,0.9-6.4,1.5c-0.7-0.7-1.4-1.4-2.1-2.1c-1.1-1.1-2.2-2.2-3.3-3.2c-0.5-0.5-0.9-1-1.4-1.5
			c-0.4-0.4-0.7-0.7-0.9-1c-0.4-0.4-0.8-0.9-1.2-1.3l0,0c-0.4-0.4-0.7-0.8-1.1-1.2c1.5,0.6,3.2,1.1,5,1.5c0.3,0.1,0.7,0.1,1,0.2
			c1.3,0.3,2.7,0.5,4.2,0.6c1.8,0.2,3.7,0.1,5.8,0.1c4,0,8.4-0.1,13-0.2s9.4-0.4,14.5-0.6c5-0.2,10.2-0.7,15.5-1.1
			c5.2-0.4,10.6-1.1,15.9-1.6c10.6-1.3,21.2-2.9,31.1-4.8c4-0.8,7.8-1.6,11.5-2.4c5.4-1.2,10.6-2.4,15.2-3.6c1.9-0.5,3.8-1,5.6-1.5
			c1.8-0.5,3.4-1,5-1.4c3.1-0.9,5.9-1.7,8.1-2.4c4.4-1.5,7-2.4,7-2.4l-0.3-1.9c0,0-2.7,0-7.4,0.2c-4.6,0.2-11.2,0.5-19.2,0.9
			c-7.9,0.3-17.1,0.8-27,1.2c-4.9,0.2-10,0.4-15.2,0.6l-15.6,0.6c-5.2,0.1-10.5,0.3-15.6,0.4c-5.1,0.2-10.2,0.2-15.1,0.3
			c-9.8,0.1-18.9,0.2-26.8,0.2c-3.9-0.1-7.5,0.1-10.7,0.8c-3.2,0.7-6,1.7-8.3,2.8c-2.8,1.3-4.9,2.8-6.2,3.8
			c-0.2-0.2-0.5-0.5-0.7-0.7c-0.6-0.6-1.2-1.3-1.8-1.9l0,0c-1.4-1.4-2.7-2.9-4-4.3c-4.3-4.9-8.7-9.7-12.9-14.5
			c-1.1-1.2-2.2-2.4-3.2-3.6c0,0,0-0.1-0.1-0.1c-0.2-0.3-0.4-0.5-0.7-0.8c-0.2-0.2-0.5-0.5-0.7-0.8c0.1,0,0.2,0.1,0.3,0.1
			c2.3,1,5,1.9,7.9,2.8c3.1,1,6.5,1.7,10.2,2.3c3.7,0.6,7.5,0.9,11.6,1.3c4,0.3,8.2,0.6,12.4,0.8c4.2,0.2,8.5,0.3,12.8,0.4
			s8.6,0,12.8,0c4.3-0.1,8.4-0.2,12.5-0.4c4-0.2,8-0.5,11.6-0.8c3.7-0.3,7.2-0.7,10.4-1.1c6.5-0.8,11.9-1.7,15.6-2.4
			c1.9-0.4,3.4-0.6,4.4-0.9c1-0.2,1.5-0.4,1.5-0.4v-1.9c0,0-0.5-0.1-1.5-0.4c-1-0.2-2.4-0.6-4.3-1h-0.1c-3.7-0.8-9-1.9-15.3-3.1
			c-3.2-0.5-6.6-1.1-10.2-1.8c-3.6-0.5-7.5-1.2-11.4-1.7c-4-0.6-8-1.1-12.2-1.7c-4.1-0.4-8.4-1.1-12.6-1.5
			c-4.2-0.5-8.4-0.9-12.6-1.4c-4.1-0.4-8.2-0.8-12.2-1.2c-4-0.4-7.8-0.7-11.4-0.8c-3.6,0-7.1,0.1-10.3,0.3c-3.2,0.3-6.2,0.7-8.9,1.2
			c-2.6,0.6-5,1.1-7,1.7c-1,0.3-1.9,0.6-2.7,0.9c-1.3-1.6-2.6-3.2-4-4.8c0,0,0,0,0-0.1c-1.4-1.7-2.7-3.3-4.1-4.9c0,0,0,0,0-0.1
			c-0.8-1-1.6-1.9-2.4-2.9c0.6,0.3,1.3,0.5,2,0.7c0.2,0,0.3,0.1,0.5,0.1c2.3,0.8,4.8,1.3,7.5,1.8c2.8,0.5,5.8,0.6,9,0.8
			c3.1,0.2,6.4,0.3,9.7,0.3c3.3,0.1,6.6,0,10,0c6.7-0.2,13.4-0.7,19.6-1.5c3.1-0.4,6.1-0.9,9-1.3c2.8-0.5,5.5-1,8-1.6
			c4.9-1.1,9-2.3,11.8-3.2c1.4-0.5,2.5-0.9,3.3-1.1c0.8-0.3,1.2-0.4,1.2-0.4l-0.1-1.9c0,0-0.4-0.1-1.2-0.3c-0.8-0.2-1.9-0.4-3.4-0.7
			c-0.8-0.1-1.6-0.3-2.5-0.4c-0.8-0.1-1.7-0.3-2.7-0.5c-2-0.3-4.2-0.7-6.7-1s-5.1-0.7-7.9-1.1c-2.8-0.3-5.7-0.8-8.8-1
			c-3-0.4-6.2-0.6-9.3-1c-3.2-0.3-6.4-0.7-9.6-0.9c-3.2-0.3-6.4-0.6-9.6-0.9c-3.2-0.2-6.3-0.5-9.3-0.7s-5.9-0.5-8.7-0.5
			s-5.4,0.2-7.9,0.5c-2.5,0.4-4.8,0.8-6.8,1.3c-2,0.6-3.8,1.2-5.4,1.8c-0.3,0.1-0.6,0.3-0.9,0.4c-0.2-0.3-0.4-0.5-0.6-0.8
			c-0.1-0.2-0.2-0.3-0.4-0.5c-0.3-0.4-0.6-0.8-0.9-1.2c-0.2-0.2-0.3-0.4-0.5-0.6c-0.9-1.1-1.7-2.2-2.6-3.2c-2.3-3-4.5-6-6.7-9
			c-0.1-0.2-0.3-0.3-0.4-0.5c0.9,0,1.8,0,2.8,0c2.2,0,4.6-0.1,7.1-0.2c2.4-0.1,5-0.2,7.5-0.5c2.6-0.2,5.2-0.4,7.8-0.8
			c2.6-0.3,5.2-0.6,7.8-1c2.6-0.3,5.1-0.8,7.5-1.3c4.8-0.9,9.3-1.9,13.2-3c3.8-1,7-2.1,9.2-2.9s3.5-1.3,3.5-1.3l-0.1-0.9l-0.1-0.9
			c0,0-5.3-1.4-13-2.6c-2-0.4-4-0.6-6.2-0.9s-4.5-0.7-6.9-0.9c-2.4-0.3-4.9-0.6-7.4-0.8c-2.5-0.3-5.1-0.5-7.6-0.7
			c-5.1-0.4-10.2-0.8-14.9-1.1c-2.4-0.2-4.7-0.2-6.8-0.4c-2.2-0.1-4.2-0.2-6.2-0.3c-1.9-0.1-3.6-0.1-5.2-0.2c-1.5,0-2.9,0.9-4.1,2.2
			c-0.2,0.2-0.3,0.4-0.5,0.5c-0.5-0.7-1-1.4-1.5-2.2l-0.1-0.1c-1.9-2.7-3.7-5.4-5.5-8.2c-1-1.5-1.9-2.9-2.9-4.3c0.3,0,0.6-0.1,1-0.2
			c2.3-0.3,4.8-0.8,7.6-1c1.4-0.1,2.8-0.3,4.2-0.5c1.5-0.1,3-0.2,4.5-0.3c3.1-0.2,6.2-0.4,9.5-0.6c1.6-0.1,3.3-0.2,4.9-0.2
			c1.7,0,3.3-0.1,5-0.2c3.4-0.2,6.8-0.1,10.1-0.3c3.4-0.1,6.7-0.1,9.9-0.2c1.6,0,3.2-0.1,4.8-0.2c1.6,0,3.1,0,4.6-0.1
			c3-0.1,5.8-0.2,8.5-0.2c2.7-0.1,5.1-0.2,7.2-0.2c2.2-0.1,4.1-0.2,5.7-0.3c0.1,0,0.2,0,0.3,0c3-0.2,4.7-0.4,4.7-0.4l0.4-1.9
			c0,0-1.6-1-4.4-2.4c-1.4-0.8-3.1-1.6-5.1-2.5s-4.3-2-6.8-3c-10-4.1-23.9-8.4-38.3-10.7c-3.6-0.7-7.2-1-10.8-1.5
			c-1.8-0.2-3.6-0.3-5.4-0.4c-1.8-0.1-3.5-0.2-5.3-0.3c-3.5-0.1-6.9-0.1-10.2,0.1c-3.2,0.1-6.4,0.5-9.3,0.7c-2.9,0.4-5.6,0.9-8,1.3
			c-1.5,0.2-2.7,0.8-3.8,1.8c-0.4-0.6-0.8-1.3-1.1-2c-0.4-0.7-0.8-1.3-1.1-1.9h0.1c1.8-0.4,3.8-0.8,6-1.3c4.4-1,9.5-2.1,14.9-3.5
			c2.7-0.7,5.5-1.3,8.3-2.1c2.8-0.8,5.7-1.4,8.6-2.2c11.5-3,23.1-6.1,31.7-8.4c2.2-0.6,4.2-1.2,6-1.6c1.8-0.5,3.4-0.9,4.7-1.3
			c2.7-0.7,4.2-1.2,4.2-1.2v-0.7v-1.2c0,0-1.5-0.5-4.1-1.4c-1.3-0.5-2.9-0.9-4.8-1.3c-1.9-0.4-4-0.9-6.4-1.3
			c-2.3-0.4-4.9-0.8-7.6-1.1c-2.7-0.3-5.5-0.5-8.5-0.7c-2.9-0.1-6-0.3-9.1-0.2c-3.1,0-6.2,0.1-9.3,0.2s-6.2,0.4-9.2,0.7
			c-3.1,0.2-6,0.7-8.9,1c-5.7,0.7-11,1.6-15.5,2.5c-2.2,0.4-4.3,0.8-6.1,1.2c-0.9,0.2-1.8,0.2-2.4,0.8c-0.7,0.5-1.3,1.3-1.8,2.2
			c-0.4,0.6-0.6,1.3-0.9,2.1c0,0.1,0,0.2-0.1,0.3c-1.3-2.5-2.5-5-3.6-7.5c-0.1-0.1-0.1-0.3-0.2-0.4c2.7-0.7,5.8-1.5,9.3-2.3
			c2.9-0.8,6.1-1.5,9.5-2.4c3.4-0.8,6.9-1.7,10.6-2.6c3.7-0.8,7.5-1.7,11.4-2.6s7.8-1.7,11.8-2.6c4-0.8,7.9-1.7,11.8-2.4
			c3.9-0.8,7.8-1.5,11.5-2.1s7.4-1.2,10.8-1.7c3.5-0.5,6.8-1,9.8-1.3c1.5-0.2,3-0.4,4.4-0.6c1.4-0.1,2.7-0.3,3.9-0.4
			c2.5-0.3,4.7-0.5,6.5-0.7c3.6-0.3,5.8-0.6,5.8-0.6l0.1-0.6l0.2-1.3c0,0-2-0.7-5.5-1.7c-1.7-0.6-3.9-1.1-6.5-1.7s-5.4-1.2-8.6-1.7
			c-3.2-0.6-6.6-1-10.2-1.4c-1.8-0.3-3.7-0.3-5.6-0.5c-1.9-0.1-3.9-0.3-5.9-0.4c-4-0.1-8.1-0.3-12.3-0.1c-4.2,0-8.4,0.2-12.7,0.5
			c-4.2,0.3-8.4,0.6-12.6,1.1c-4.2,0.4-8.2,1-12.1,1.6c-3.9,0.6-7.7,1.2-11.3,1.9c-3.5,0.7-6.9,1.3-10,2c-5.4,1.2-9.9,2.3-13.3,3.1
			c-0.1-0.2-0.1-0.4-0.2-0.6c1.1,0.1,2.1-0.1,3.2-0.4c1.3-0.4,2.6-1.2,4.1-1.9c0.5-0.2,0.9-0.4,1.4-0.7c1-0.5,2.1-1.1,3.2-1.6
			c1.7-0.7,3.4-1.5,5.2-2.3c3.6-1.7,7.5-3.3,11.7-5.1c2.1-0.9,4.3-1.7,6.5-2.6c2.2-0.8,4.5-1.8,6.8-2.7c4.7-1.7,9.5-3.5,14.5-5.2
			c5-1.8,10.1-3.2,15.1-5c5.2-1.5,10.3-3.1,15.4-4.4c5.1-1.4,10.2-2.7,15.1-3.9c4.9-1.1,9.7-2.3,14.3-3.3c4.5-1,8.9-1.9,12.9-2.6
			c2-0.4,4-0.8,5.8-1.2c1.9-0.3,3.6-0.6,5.2-0.8c3.3-0.6,6.2-1.1,8.6-1.5c4.9-0.7,7.6-1.3,7.6-1.3l0.1-1.5v-0.3c0,0-2.7-0.6-7.5-1.6
			c-2.4-0.6-5.3-0.9-8.8-1.4c-1.7-0.2-3.6-0.4-5.5-0.7c-1.9-0.1-3.9-0.3-6.1-0.5c-4.2-0.4-8.8-0.5-13.7-0.7c-2.4-0.1-4.9,0-7.5,0
			s-5.2,0-7.8,0.2c-5.3,0.3-10.8,0.6-16.4,1.3c-5.6,0.5-11.2,1.5-16.8,2.4c-5.6,1-11.2,2.1-16.7,3.5c-5.5,1.2-10.8,2.8-16,4.3
			c-5.1,1.6-10.1,3.2-14.7,4.9c-4.6,1.8-9,3.3-13,5.2c-2,0.8-3.9,1.7-5.7,2.5c-0.1,0.1-0.3,0.1-0.4,0.2c-0.6,0.3-1.2,0.6-1.7,0.8
			c2.2-1.7,4.9-3.7,7.9-6c3.4-2.6,7.3-5.4,11.5-8.4c4.2-3.1,8.9-6.3,13.8-9.8c4.9-3.4,10.1-7,15.6-10.6s11.1-7.4,16.9-11
			c5.8-3.7,11.8-7.3,17.7-10.9c6.1-3.4,12-7.1,18.1-10.3c3-1.6,6-3.3,8.9-4.9c3-1.6,6-3.1,8.9-4.6c2.9-1.6,5.8-2.9,8.6-4.3
			c2.9-1.3,5.6-2.8,8.3-4c5.5-2.4,10.6-4.9,15.5-6.8c2.4-1,4.7-2,7-2.9c2.2-0.9,4.3-1.6,6.3-2.4c1.7-0.6,3.2-1.2,4.7-1.7
			c2.1-0.8,4-1.5,5.7-2c6-1.9,9.3-3,9.3-3l-0.4-1.9c0,0-3.6,0.2-9.8,0.9c-3.1,0.2-6.9,0.9-11.2,1.6c-2.2,0.4-4.5,0.7-6.9,1.2
			c-2.4,0.6-4.9,1.1-7.6,1.7c-5.3,1.1-10.9,2.8-16.9,4.5c-3,0.8-6,1.9-9.1,2.9c-3.1,1.1-6.3,2-9.4,3.3c-3.2,1.2-6.4,2.4-9.6,3.7
			c-3.2,1.3-6.5,2.7-9.7,4.1c-3.3,1.4-6.6,2.8-9.8,4.3s-6.5,3-9.7,4.6c-6.4,3.3-12.9,6.5-19.1,10c-6.2,3.4-12.3,6.9-18,10.3
			c-2.9,1.7-5.7,3.5-8.5,5.2c-2.7,1.7-5.5,3.3-8,5.1c-5.1,3.4-10,6.6-14.5,9.7c-4.4,3.1-8.5,5.9-12,8.5c-2.3,1.7-4.4,3.3-6.3,4.6
			c-0.1-0.8-0.3-1.5-0.4-2.2c0-0.5-0.1-0.9-0.2-1.3c2.7-2.4,5.9-5.2,9.3-8.6c0.4-0.4,0.8-0.9,1.2-1.3c0,0,0,0,0.1,0
			c1.3-1.4,2.6-2.9,4-4.4c1.9-2,3.8-4.2,5.7-6.6c3.7-4.8,8.1-9.6,12.7-14.8c2.2-2.6,4.8-5.1,7.3-7.8c2.5-2.6,5-5.4,7.8-8
			c2.7-2.7,5.5-5.3,8.3-8c2.7-2.8,5.8-5.3,8.7-8c5.8-5.4,12.2-10.5,18.3-15.7c6.5-4.9,12.6-10.2,19.2-14.7c3.2-2.3,6.4-4.8,9.6-6.9
			c3.2-2.2,6.5-4.4,9.6-6.5c3.1-2.2,6.4-4,9.5-6c3.1-1.9,6.1-4,9.2-5.6c6.1-3.4,11.7-7,17.2-9.6c2.7-1.4,5.4-2.8,7.8-4.1
			c2.5-1.3,4.9-2.4,7.1-3.5c4.5-2.2,8.4-4,11.8-5.4c1.2-0.5,2.2-1,3.2-1.4c4.6-2,7.2-3.2,7.2-3.2l-0.6-1.8c0,0-4,0.9-11.1,2.7
			c-3.5,0.7-7.7,2.1-12.6,3.7c-2.4,0.8-5.1,1.5-7.8,2.5s-5.5,2.1-8.4,3.2c-5.9,2.1-12.1,4.9-18.7,7.8c-3.3,1.4-6.6,3.2-10,4.8
			c-3.3,1.8-6.9,3.4-10.3,5.3c-3.4,1.9-6.9,3.9-10.4,5.9s-6.9,4.3-10.5,6.4c-7.1,4.3-13.9,9.3-20.8,14c-6.6,5.1-13.5,10-19.7,15.5
			c-3.1,2.7-6.4,5.2-9.4,8c-3,2.7-5.9,5.4-8.8,8.1c-2.9,2.7-5.6,5.5-8.3,8.2s-5.3,5.3-7.7,8c-4.8,5.4-9.5,10.4-13.5,15.4
			c-2,2.5-3.9,4.9-5.5,7.2c-1.6,2.4-3,4.8-4.2,7.1c-2.1,3.8-3.8,7.3-4.9,10.5c-0.1,0-0.2,0-0.3,0c-0.3,0-0.7,0-1,0.1
			c-1.1,0.2-2,0.5-2.9,1c-3,1.7-4.8,5.1-4.2,8.7c0.1,0.5,0.2,1,0.2,1.5c0.7,3.4,1.4,7.6,2.5,12.4c0.6,2.4,1.2,5,1.9,7.7
			c0.3,1.3,0.7,2.6,1.1,3.9c-0.4,0.5-0.7,1-1,1.6c-0.7,1.1-1.3,2.3-1.8,3.6c-2.1,4.7-3.4,10.4-4.2,16c-0.5,2.8-0.9,5.7-1.4,8.5
			l-0.2,1l-0.1,0.7l-0.1,0.6c-0.1,0.8-0.2,1.5-0.4,2.3c-0.2,1.8-0.4,3.5-0.5,5.1c-0.4,6.5-0.3,12.8,0,18.7c0.1,3,0.3,5.8,0.5,8.5
			c0.1,1,0.2,2,0.3,2.9c0.2,1.6,0.3,3.1,0.5,4.6c0.3,2.3,0.5,4.5,0.7,6.4s0.4,3.5,0.6,4.9c0.2,2.1,0.4,3.5,0.5,4c0,0.1,0,0.2,0,0.2
			l0,0h0.5l1.4,0.1c0,0,0.4-1.5,1-4.3c0.5-2.7,1.2-6.6,1.8-11.3c0-0.3,0.1-0.5,0.1-0.8c0.6-4.5,1.1-9.6,1.7-15
			c0.3-2.9,0.6-5.8,0.9-8.8c0.4-2.9,0.7-6,1.1-8.8c0.2-1.5,0.5-2.8,0.7-4.1c0.1-0.7,0.4-1.5,0.5-2.2l0.5-2.2
			c0.8-3.2,1.4-6.3,1.8-9.2c0.3-1.5,0.5-2.9,0.7-4.3c1.3,3.5,2.7,7.1,4.2,10.9c0.5,1.4,1.1,2.8,1.7,4.2c-1.8,4.7-3.6,9.9-5.2,15.6
			c-0.6,2-1.2,4-1.6,6c-0.5,2.1-1,4.1-1.5,6.2c-0.8,4.3-1.7,8.5-2.3,12.9c-0.8,4.3-1.2,8.7-1.6,13c-0.2,2.2-0.3,4.3-0.4,6.4
			c-0.1,2.1-0.2,4.2-0.2,6.3c0,2.1,0,4.1,0.1,6.1s0.2,4,0.4,5.8c0.2,3.8,0.7,7.3,1.2,10.6c0.4,3.3,1.2,6.2,1.8,8.8
			c0.3,1.3,0.6,2.5,0.9,3.6c0.2,0.8,0.5,1.6,0.7,2.3c-0.9,5.9-2,11.8-2.6,17.6c-0.8,6-1.2,11.9-1.7,17.6c-0.1,0.6-0.1,1.2-0.1,1.8
			c-0.1,2.2-0.2,4.5-0.3,6.6c-0.1,2.8-0.2,5.5-0.1,8.1c0,2.6,0,5.2,0.1,7.7s0.3,4.9,0.4,7.1c0.2,2.3,0.2,4.5,0.4,6.6
			c0.3,2.1,0.5,4,0.7,5.9c0.2,1.8,0.4,3.6,0.6,5.2c0.2,1.6,0.6,3.1,0.8,4.4c0.9,5.2,1.6,8.2,1.6,8.2l1.9-0.2c0,0,0.1-3,0.1-8.3
			c0-1.3,0-2.8,0-4.4c0.1-1.6,0.1-3.3,0.2-5.1c0.1-1.8,0.1-3.8,0.2-5.8c0.1-2,0.2-4.2,0.4-6.4c0.2-4.5,0.7-9.3,1.1-14.4
			c0.1-2.5,0.5-5.2,0.8-7.8c0.3-2.7,0.6-5.4,0.9-8.2c0.7-5.5,1.5-11.2,2.4-17c0.8-5.8,1.9-11.7,2.9-17.6c1.1-5.9,2.2-11.7,3.4-17.5
			s2.3-11.5,3.4-17c1.8-8.6,3.6-16.9,5.1-24.2c0.4-2,0.9-4,1.3-5.9c0.4-2,0.8-3.8,1.1-5.6v-0.1c0,0.1,0.1,0.2,0.1,0.2
			c1.6,2.9,3.2,5.8,4.9,8.6c-0.2,0.5-0.3,1.1-0.5,1.6c-0.6,2.5-1.2,5.3-1.9,8.4c-0.6,3.1-1.2,6.4-1.7,10c-0.5,3.5-1,7.3-1.3,11.1
			v0.2c-0.8,7.7-1.3,15.9-1.5,24.1c-0.2,4.1-0.2,8.3-0.2,12.3c0,4.1,0.1,8.1,0.2,12c0.1,3.9,0.4,7.6,0.7,11.2
			c0.4,3.6,0.9,6.9,1.6,10c0.1,0.4,0.2,0.8,0.3,1.2c0.6,2.6,1.2,5,1.9,7.1c0.7,2.5,1.6,4.6,2.3,6.4c0.6,1.5,1.3,2.8,1.8,3.7
			c-0.1,1.9-0.2,3.7-0.3,5.5c-0.2,3.8-0.5,7.6-0.6,11.3l-0.5,20.3l-0.1,20.2c0.1,6.7,0.3,13.5,0.5,20.2l0.9,20.2
			c0.3,6.7,0.8,13.4,1.3,20.1l1.6,20.1l2,20.1c0.7,6.7,1.4,13.4,2.2,20.1c1.4,12,3,24,4.7,36h-0.1l0.7,4l1.9-0.2
			c-0.1-6.7-0.2-13.4-0.4-20.1c-0.1-6.7-0.3-13.4-0.5-20.1v-1.4l-0.6-20.2c0.2,0.7,0.4,1.4,0.6,2c0.8,2.2,1.6,4.5,2.3,6.7
			c0.9,2.2,1.7,4.3,2.6,6.4c3,7.1,6.2,13.5,9.4,19.4c0.5,1,1.1,2,1.6,3c3.7,6.7,7.1,12.7,10.2,18c3,5.3,5.5,10,7.6,13.9
			c1.5,2.9,2.8,5.3,3.7,7.2c0.4,0.7,0.7,1.3,0.9,1.9c1.1,2.1,1.6,3.3,1.6,3.3l1.8-0.5c0,0-0.2-1.3-0.5-3.7
			c-0.4-2.4-1.1-5.9-2.3-10.3c-0.6-2.2-1.3-4.6-2.2-7.2c-0.4-1.3-0.9-2.6-1.4-4s-1.1-2.8-1.6-4.3c-2.2-5.9-5.1-12.3-8.2-19.2
			c-0.3-0.6-0.6-1.3-0.9-1.9c-2.9-6.4-6-13.1-8.9-20.2c-0.7-2-1.5-4-2.2-6s-1.3-4.1-2-6.2c-0.5-2.1-1.2-4-1.7-6.2
			c-0.3-1.1-0.5-2.3-0.7-3.4l-0.4-1.7l-0.2-1.5c-1.5-8.8-1.9-18.3-1.7-28c0.3-9.7,1-19.8,1.6-30c1.1-20.3,2.2-40.6,3.2-59.6
			c0.5-9.5,1-18.7,1.4-27.4c0.4-8.7,0.8-17,1.1-24.6c0.2-5.1,0.4-9.9,0.5-14.4c0.1-2.2,0.1-4.3,0.1-6.4c0.1-6.2,0.2-11.6,0.1-16.1
			c0-3.4,0-6.3-0.1-8.5v-0.8c0.6,0.8,1.1,1.5,1.7,2.3c2.1,2.8,4.2,5.6,6.3,8.5c1.1,1.5,2.2,2.9,3.2,4.4c-0.9,2.2-2,5.5-2.7,9.5
			c-0.8,4.2-0.9,9.3-1,15.2c-0.1,5.9-0.2,12.5-0.4,19.8c-0.2,14.5-0.7,31.4-0.9,49.5c-0.1,9.1-0.3,18.4-0.4,27.9
			c-0.1,9.5-0.2,19.2-0.3,28.8c0,9.7-0.2,19.3-0.1,28.9c0.1,9.6,0.7,19.2,2.4,28.4c0.8,4.6,1.9,9.1,3.2,13.4
			c0.4,1.1,0.6,2.1,1.1,3.3c0.4,1,0.8,2,1.1,3c0.8,2,1.8,4,2.6,6c0.4,0.9,0.9,1.8,1.3,2.6l0,0c3.4,6.6,7.3,12.5,11.3,17.7
			c0.9,1.2,1.8,2.3,2.7,3.5c1.4,1.8,2.9,3.5,4.3,5.1c0.3,0.3,0.6,0.7,0.9,1c0.5,4.2,1,8.3,1.6,12.4c1.2,9,2.4,17.4,3.7,25.2
			c1.1,7.8,2.4,14.9,3.5,21.2c1.1,6.3,2,11.8,2.9,16.3c1.8,9,2.7,14.2,2.7,14.2l1.9-0.3c0,0-0.5-5.2-1.5-14.4
			c-0.4-4.6-1-10.1-1.7-16.5c-0.7-6.3-1.3-13.5-2-21.3c-0.8-7.8-1.5-16.3-2.2-25.3c-0.1-0.7-0.1-1.4-0.2-2.1
			c0.1,0.1,0.3,0.2,0.4,0.4c0.4,0.4,0.7,0.8,1.1,1.1c2,2.1,3.9,4,5.7,5.6c6.1,5.9,9.7,9.1,9.7,9.1l1.1-1.1l0.2-0.2
			c0,0-0.1-0.2-0.4-0.5c-1.1-1.2-4-4.4-8.4-9.4c-2.7-3-5.9-6.7-9.4-11c0-0.1-0.1-0.1-0.2-0.2c-0.1-0.1-0.2-0.2-0.3-0.3
			c-0.5-6.4-0.9-12.9-1.4-19.7c-0.6-9.8-1.3-19.9-1.8-30.2c-0.6-10.3-1-20.7-1.5-31.2c-0.3-10.5-0.8-20.9-1-31.2
			c-0.3-10.3-0.4-20.4-0.6-30.2c0-9.8-0.2-19.3-0.1-28.3c0-9,0.1-17.5,0.2-25.3c0.1-7.8,0.3-15,0.5-21.4c0.2-5.7,0.1-10.6-0.4-14.9
			c2.7,3.2,5.5,6.4,8.3,9.6c0.2,0.2,0.4,0.5,0.6,0.7h-0.3c0,0-0.1,0.2-0.2,0.5c-0.2,0.5-0.5,1.4-0.9,2.7c-0.7,2-1.6,5.1-2.5,8.9
			c-1,3.8-1.9,8.6-2.7,14c-0.2,1.3-0.4,2.5-0.5,3.9c-0.2,1.6-0.4,3.2-0.6,4.9c-0.3,3.1-0.5,6.3-0.7,9.7c-0.2,3.4-0.5,6.9-0.5,10.5
			c-0.1,3.7-0.1,7.4,0,11.3c0,3.9,0.2,7.8,0.5,11.9c0.1,1.4,0.2,2.8,0.3,4.3l0,0c0.2,2.6,0.4,5.3,0.6,8.1c0.9,8.4,1.6,17.1,2.8,25.9
			c1,8.8,2.5,17.7,3.8,26.5c1.6,8.8,3.1,17.7,5,26.3c1.7,8.7,3.9,17.1,5.8,25.3c1.1,4.1,2.1,8.1,3.1,12s2.1,7.7,3.2,11.4
			c1.1,3.7,2.1,7.3,3.2,10.7c1,3.5,2.2,6.8,3.2,10c0.7,2.2,1.4,4.3,2.1,6.3c0.3,1,0.6,1.9,0.9,2.8c1,2.9,2,5.6,2.9,8.2
			c1.8,5.1,3.4,9.6,4.9,13.2c2.9,7.2,4.5,11.4,4.5,11.4l1.8-0.6c0,0-1.2-4.3-3.2-11.8c-1.1-3.7-2.3-8.3-3.6-13.6
			c-0.7-2.6-1.4-5.4-2.1-8.4c-0.7-3-1.4-6-2.1-9.3c-0.7-3.2-1.5-6.6-2.3-10.1s-1.5-7.1-2.3-10.8c-0.8-3.7-1.6-7.6-2.3-11.5
			c-0.8-3.9-1.5-7.9-2.2-12c-1.3-8.2-2.7-16.6-3.9-25.2c-1.3-8.6-2.2-17.4-3.3-26.1c-0.8-8.8-1.7-17.6-2.3-26.2
			c-0.7-8.6-1-17.2-1.4-25.4c-0.3-8.2-0.5-16.2-0.7-23.8c-0.1-3.8-0.3-7.4-0.5-11s-0.4-7-0.6-10.3c-0.2-3.3-0.5-6.5-0.7-9.5
			s-0.4-5.8-0.7-8.5s-0.5-5.2-0.9-7.6c-0.3-2.3-0.5-4.5-0.8-6.5c-0.1-0.7-0.2-1.4-0.3-2.1c-0.5-3-0.9-5.3-1.3-7.1
			c-0.1-0.3-0.1-0.5-0.2-0.7c0.9,1,1.7,2,2.5,3c0.3,0.3,0.6,0.7,0.9,1.1c2.1,2.4,4.4,4.8,6.5,7.2c1.6,1.7,3.1,3.4,4.7,5.1h-0.3
			c0,0-0.2,1.4-0.5,4c-0.2,2.6-0.5,6.3-0.6,11.1c-0.1,4.8,0,10.5,0.5,17.1c0.4,6.6,1.3,13.9,2.4,22c1.1,9.1,2.3,19.1,3.7,29.7
			c1,8.1,2,16.5,3.1,25.1c2.6,20,5.4,41.4,8.2,62.8c1.4,10.7,2.9,21.3,4.3,31.9c1.5,10.5,2.6,20.9,4.7,31c1,5.1,2.2,10,3.7,14.8
			c0.4,1.2,0.8,2.4,1.2,3.5l0.6,1.8l0.6,1.7c0.9,2.4,1.9,4.5,2.9,6.7c2.1,4.5,4.3,8.8,6.5,12.9c1.9,3.6,3.8,7.1,5.5,10.5
			c3.6,7.1,6.7,13.8,9.2,19.8c2.4,6,4.1,11.4,5.3,15.9s1.8,8.1,2.2,10.6c0.3,2.5,0.5,3.8,0.5,3.8l1.9-0.1c0,0-0.1-1.4-0.2-3.9
			c-0.2-2.6-0.6-6.3-1.4-11c-0.8-4.7-2.3-10.4-4.3-16.7c-2.1-6.3-4.8-13.3-8.2-20.7c-3.3-7.4-7.3-15.3-10.7-23.7
			c-0.8-2.1-1.7-4.2-2.4-6.4l-0.6-1.7l-0.5-1.6c-0.4-1.1-0.7-2.3-1-3.4c-1.2-4.5-2.2-9.3-3-14.2c-1.5-9.8-2.4-20.1-3.6-30.7
			c-1.1-10.5-2.3-21.3-3.4-32c-2.4-21.4-4.8-42.8-7.1-62.9c-2.4-20-4.6-38.8-6.5-54.8c-0.9-8-1.8-15.4-3-21.9
			c-1.1-6.5-2.4-12.1-3.6-16.7c-1.2-4.6-2.4-8.2-3.2-10.6c-0.1-0.2-0.1-0.4-0.2-0.6c2,2.1,3.9,4.2,5.9,6.4c4,4.1,8.1,8.2,12.2,12.4
			l0,0c0.2,0.2,0.5,0.5,0.7,0.7c-0.1,2-0.2,4.6-0.1,7.9c0,7.4,0.6,18,2,30.5s3.2,27.2,5.3,42.9c1.1,7.8,2.2,15.9,3.4,24.1
			c1.2,8.2,2.5,16.5,3.8,24.9c2.6,16.7,5.4,33.2,8.1,48.8c1.3,7.8,2.9,15.3,4.9,22.3c1.9,7,3.5,13.7,4.8,19.9
			c2.7,12.4,5,22.6,6.6,29.8c1.6,7.2,2.4,11.3,2.4,11.3l1.9-0.3c0,0-0.6-4.2-1.6-11.5c-0.4-3.2-0.9-7-1.5-11.3v-0.1
			c-0.7-5.5-1.5-11.8-2.3-18.9c-0.8-6.2-1.5-13.1-2-20.3c-0.2-3.6-0.5-7.3-0.9-11.1c-0.4-3.8-1-7.6-1.6-11.5
			c-2.4-15.6-4.9-32.2-7.4-48.9c-1.2-8.3-2.5-16.6-3.7-24.8c-1.3-8.2-2.5-16.2-3.7-24c-2.5-15.6-4.8-30.1-6.8-42.6
			c-1.1-6.7-2.2-12.8-3.3-18.1c-0.9-4.5-1.9-8.5-2.8-11.8c-0.2-0.7-0.4-1.3-0.5-2c0-0.1-0.1-0.2-0.1-0.3c1.1,1.1,2.3,2.2,3.4,3.4
			c2.5,2.3,4.9,4.6,7.4,7c3.8,3.6,7.6,7.2,11.5,10.9c0,0.1,0,0.3-0.1,0.4c-0.2,0.9-0.3,1.9-0.5,3c-0.3,2.1-0.7,4.4-1,7.1
			s-0.7,5.8-0.8,9c-0.1,1.7,0.1,3.3,0.2,5.1c0.1,1.8,0.3,3.6,0.4,5.5c0.2,1.8,0.3,3.8,0.5,5.8s0.5,4,0.7,6.1
			c0.3,2.1,0.5,4.2,0.8,6.4c0.3,2.2,0.7,4.4,1,6.7c0.4,2.3,0.7,4.6,1.1,7c0.4,2.3,0.9,4.7,1.4,7.2c0.5,2.4,0.9,4.9,1.4,7.4
			s1.1,5,1.6,7.6c2.2,10.3,4.8,21,7.5,32.1c2.7,11,5.6,22.4,8.5,33.9s5.5,23.3,7.9,35c1.2,5.9,2.4,11.7,3.2,17.6
			c1,5.8,1.8,11.7,2.5,17.6c1.5,11.7,2.5,23.5,4.4,34.9c1,5.7,2.2,11.3,3.7,16.7c0.8,2.7,1.5,5.3,2.4,8c0.9,2.5,1.7,5.1,2.6,7.6
			c3.7,10.1,7.7,19.2,11.8,27.4s8.5,15.5,12.5,21.7c2.1,3.3,4.2,6.3,6.2,9c1.8,2.4,3.5,4.6,5,6.6c1.6,2.1,3.1,3.9,4.5,5.5
			c1.3,1.6,2.5,2.9,3.4,4c1.9,2.2,2.9,3.3,2.9,3.3l1.4-1.3c0,0-1-1.1-2.9-3.2c-0.9-1.1-2.1-2.4-3.4-4s-2.7-3.4-4.4-5.5
			c-3.1-4.3-6.8-9.5-10.5-15.8c-3.7-6.4-7.4-13.8-10.9-22.1c-1.8-4.1-3.3-8.6-4.8-13.1c-1.3-4.7-2.6-9.5-3.6-14.5
			c-0.5-2.4-0.9-5.1-1.4-7.7c-0.4-2.5-0.8-5.2-1.1-7.8c-0.6-5.3-1.2-10.8-1.7-16.3c-1.1-11.1-2.3-22.8-3.6-34.8
			c-0.7-6-1.5-12-2.4-18.1s-2-12.1-3.2-18.2c-2.5-12-5.3-23.9-8.3-35.5c-2.9-11.6-6.1-22.9-9.1-33.9c-3-10.9-5.8-21.5-8.2-31.6
			c-0.6-2.5-1.2-5-1.8-7.4c-0.5-2.4-1.1-4.8-1.6-7.2c-0.5-2.4-1-4.7-1.5-7s-0.9-4.6-1.3-6.8c-0.4-2.2-0.8-4.3-1.2-6.5
			c-0.3-2.1-0.6-4.2-0.9-6.2c-0.3-2-0.6-4-0.9-5.9c-0.2-1.6-0.4-3.1-0.6-4.7c0-0.3-0.1-0.6-0.1-0.9c-0.4-3.6-0.8-7-1.1-10.1
			c-0.4-3.1-1.1-5.9-1.6-8.5c-0.4-1.6-0.6-3.1-0.8-4.5c-0.1-0.6-0.2-1.3-0.3-1.9c4.8,4.2,9.7,8.5,14.5,12.8c1.2,1.1,2.5,2.2,3.7,3.3
			c-0.2,1.4-0.5,3.1-0.6,4.8c-0.2,2.1-0.4,4.4-0.5,7c-0.1,6.6,0.4,14.6,2.1,23.5c1.6,9,4.1,19,7.5,29.5c3.4,10.6,7.5,21.9,11.8,33.5
			c4.3,11.7,8.6,24,11.8,36.7c1.7,6.5,3,12.9,4.2,19.6c1.3,6.7,2.3,13.6,3.2,20.6c2,14,3.6,28.5,6.1,43.2c0.6,3.6,1.2,7.3,1.9,11
			l0.5,2.7l0.1,0.7l0.2,0.9l0.3,1.3l2.5,10.6c0.4,1.7,1,3.6,1.5,5.4c1.1,3.6,2,7.3,3.3,10.7c4.6,14,10.4,27.3,16.5,39.7
			c6,12.5,12.5,24.2,18.6,35.3c6.2,11,12,21.4,17.7,30.8c11.3,18.8,21.3,34.1,28.2,44.8c4.1,6.5,7.2,11.2,9,14
			C1141.6,879,1142.2,880,1142.2,880z M1450.5,665.8c1.6,0.6,3,1.1,4.4,1.6l0,0c0,0,0.5,0.2,1.4,0.5c1.2,0.4,2.3,0.9,3.3,1.3
			c1.9,0.7,3.4,1.3,4.7,1.8c-1.2,0-2.2,0-3,0.1c-1.3,0.1-1.9,0.2-1.9,0.2l-0.1,0.2c-0.6-0.4-1.3-0.9-1.8-1.2
			C1455,668.5,1452.7,667,1450.5,665.8z M877.6,328.4c1.3,1.7,2.6,3.4,4.1,5.1c0.1,0.1,0.1,0.2,0.2,0.3c2.2,2.8,4.5,5.6,6.7,8.5
			c-0.8,2.2-1.7,5-2.4,8.4c-0.5,2.3-0.9,4.8-1.2,7.6c-0.3,2.8-0.3,5.8-0.4,9c-0.2,6.4-0.3,13.7-0.4,21.6c0,1.2,0,2.5-0.1,3.8
			c0,6.8,0,14.1,0,21.7c0,4.5,0,9.2,0.1,13.9c0,2.8,0.1,5.7,0.1,8.6c0,2,0.1,4,0.2,6c0.3,9.9,0.6,20.1,1.2,30.4
			c0.2,3.9,0.4,7.8,0.6,11.7c0.4,6.5,0.7,13.1,1.2,19.7c0.8,10.5,1.6,21,2.5,31.3c0.8,10.3,2,20.4,3.1,30.3c0.3,2.1,0.5,4.2,0.8,6.3
			c0,0.1,0,0.2,0,0.3c-0.8-1.1-1.6-2.2-2.4-3.4c-0.7-1-1.4-2.1-2-3.1c-3.2-5.1-6.3-10.7-8.8-16.8c-0.7-1.9-1.5-3.6-2.1-5.7
			c-0.3-1-0.7-2-1-3.1c-0.3-0.8-0.6-1.9-0.8-2.9c-1.1-4-1.9-8.3-2.5-12.6c-1.2-8.7-1.3-17.8-1.2-27.2c0.2-9.4,0.7-19.1,1-28.7
			l1-28.8c0.3-9.5,0.6-18.9,0.9-27.9c0.6-18.1,0.9-35,1.3-49.5c0.2-5.7,0.3-11,0.4-15.9c0-1.3,0.1-2.6,0.1-3.8
			C878,337.6,878.2,332.5,877.6,328.4z M845.9,334.7c0.7-6.6,1.3-13.3,1.9-19.9c0.8-6.6,1.5-13.2,2.1-19.9c0.2-1.2,0.3-2.4,0.5-3.6
			c2,2.9,4,5.8,6.1,8.7v0.3c-0.4,2.2-1,6.3-1.8,11.9c-0.7,4.4-1.4,9.8-2.1,15.9c-0.8,6.1-1.5,13.1-2.3,20.7
			c-0.7,7.6-1.6,15.8-2.3,24.5c-0.8,8.7-1.6,17.9-2.4,27.4c-1.3,14.6-2.6,29.9-3.9,45.5c0-3.8,0-7.7,0-11.5l0.3-20l0.7-19.9
			l0.8-16.5l0.2-3.4c0.5-6.6,0.8-13.3,1.1-19.9l0.8-9.9L845.9,334.7z M834.3,266.7c1.4,2.3,2.9,4.6,4.4,7c0.9,1.4,1.9,2.9,2.8,4.4
			c1.7,2.6,3.5,5.3,5.2,7.9c-0.8,2.6-1.6,5.2-2.3,7.8c-0.4,1.6-0.8,3.3-1.2,4.9l0,0c-1.2,4.9-2.4,9.9-3.6,14.8
			c-1.1,5.4-2.1,10.8-3.1,16.2c-0.2-5.4-0.4-10.9-0.6-16.5c-0.1-4.1-0.3-8.3-0.4-12.3l-0.7-20c-0.1-4.4-0.3-8.6-0.4-12.3
			C834.4,268,834.4,267.3,834.3,266.7z M813.7,229.2c0.1,0.3,0.3,0.6,0.4,0.9c1.8,3.8,3.8,7.7,5.9,11.6c-0.3,0.8-0.5,1.5-0.8,2.3
			c-1,2.7-2,5.7-3,8.9c-0.7,2.2-1.5,4.4-2.3,6.7c-0.7,2.3-1.5,4.8-2.2,7.3c-1.6,5-3.1,10.3-4.6,15.8c-1.4,5.5-2.9,11.2-4.2,17.1
			c-0.1,0.4-0.2,0.7-0.2,1.1c0-0.1,0-0.3,0-0.4c0-2.5,0.1-5.2,0.4-7.9c0.2-1.8,0.2-3.7,0.4-5.6s0.4-3.8,0.6-5.7
			c0.2-1.9,0.5-3.9,0.7-5.9c0.3-2,0.5-4,0.9-6.1c0.6-4.1,1.3-8.2,2.2-12.3c0.7-4.1,1.7-8.2,2.5-12.3c1-4,1.8-8,2.7-11.9
			c0.1-0.5,0.2-0.9,0.3-1.4C813.4,230.6,813.5,229.9,813.7,229.2z M1110.5,534c0,0.5,0,1,0,1.4l-0.2-0.8
			C1110.2,534.5,1110.3,534.3,1110.5,534z M1051,494.7l6.1,4.3l8.6,6.1l0,0c1,0.7,2.1,1.4,3.1,2.1c1.1,6.7,3.2,13.3,5.8,19.5
			c3,7.4,6.8,14.3,10.4,21.3s7.5,13.9,11.3,20.7l11.5,20.4c3.8,6.8,7.6,13.5,11.2,20.3c1.8,3.3,3.6,6.9,5.4,10.3l5.1,10.3
			c0.8,1.6,1.6,3.2,2.4,4.8c-4-5.7-8.1-11.4-12.3-16.8c-2-2.7-4-5.4-6-8.1c-3-4-5.9-8-8.9-12c-4.8-6.7-9.4-13.5-13.7-20.5l-3.2-5.2
			c-1-1.8-2-3.4-3.1-5.3l-6.1-11.1c-4.2-7.3-8.3-14.6-12.2-21.9c-3.9-7.3-7.5-14.7-10.4-22.4C1053.9,506,1052.2,500.5,1051,494.7z
			 M886.3,484.9c-0.6-16-1.2-32.1-1.9-48.1c0,2,0.1,4,0.2,6c0.3,9.9,0.6,20.1,1.2,30.4C885.9,477.1,886.1,481,886.3,484.9z
			 M886.3,484.9c-0.6-16-1.2-32.1-1.9-48.1c0,2,0.1,4,0.2,6c0.3,9.9,0.6,20.1,1.2,30.4C885.9,477.1,886.1,481,886.3,484.9z
			 M886.3,484.9c-0.6-16-1.2-32.1-1.9-48.1c0,2,0.1,4,0.2,6c0.3,9.9,0.6,20.1,1.2,30.4C885.9,477.1,886.1,481,886.3,484.9z
			 M886.3,484.9c-0.6-16-1.2-32.1-1.9-48.1c0,2,0.1,4,0.2,6c0.3,9.9,0.6,20.1,1.2,30.4C885.9,477.1,886.1,481,886.3,484.9z
			 M886.3,484.9c-0.6-16-1.2-32.1-1.9-48.1c0,2,0.1,4,0.2,6c0.3,9.9,0.6,20.1,1.2,30.4C885.9,477.1,886.1,481,886.3,484.9z
			 M886.3,484.9c-0.6-16-1.2-32.1-1.9-48.1c0,2,0.1,4,0.2,6c0.3,9.9,0.6,20.1,1.2,30.4C885.9,477.1,886.1,481,886.3,484.9z
			 M886.3,484.9c-0.6-16-1.2-32.1-1.9-48.1c0,2,0.1,4,0.2,6c0.3,9.9,0.6,20.1,1.2,30.4C885.9,477.1,886.1,481,886.3,484.9z
			 M886.3,484.9c-0.6-16-1.2-32.1-1.9-48.1c0,2,0.1,4,0.2,6c0.3,9.9,0.6,20.1,1.2,30.4C885.9,477.1,886.1,481,886.3,484.9z"/>
		<path class="st1" d="M871,84.9c5.8-5.4,12.2-10.5,18.3-15.7c6.4-4.9,12.7-10.2,19.2-14.7c3.2-2.3,6.4-4.8,9.6-6.9
			c3.2-2.2,6.5-4.4,9.6-6.5c3.1-2.2,6.4-4,9.5-6c3.1-1.9,6.1-4,9.2-5.6c6.1-3.4,11.7-7,17.2-9.7c2.7-1.4,5.3-2.8,7.8-4.1
			c2.5-1.3,4.9-2.4,7.1-3.5c4.5-2.2,8.4-4.1,11.8-5.4c1.2-0.5,2.3-1,3.3-1.4c-5.3,1.6-10.4,3.7-15,5.4c-17.6,6.5-34.7,14.5-51,23.8
			c-32.7,18.5-62.4,42.1-87.8,69.8c-7.2,7.8-14,16-20.4,24.4c-3.2,4.2-6.2,8.4-9.2,12.7c-2.5,3.6-5,10.1-8.4,12.7
			c4.9-3.9,9.8-7.8,14.7-11.7l0,0c1.3-1.4,2.6-2.9,4-4.4c1.9-2,3.8-4.2,5.7-6.5c3.7-4.8,8.1-9.6,12.7-14.8c2.2-2.6,4.8-5.1,7.3-7.8
			c2.5-2.6,5-5.4,7.8-8c2.7-2.6,5.5-5.3,8.3-8C865,90.2,868,87.7,871,84.9z"/>
		<path class="st1" d="M851.3,151c4.9-3.4,10.1-7,15.6-10.6s11.1-7.3,16.9-11c5.8-3.7,11.8-7.3,17.7-10.9c6.1-3.4,12-7.1,18.1-10.3
			c3-1.6,6-3.3,8.9-4.9c3-1.5,5.9-3.1,8.9-4.6c2.9-1.6,5.8-2.9,8.6-4.3c2.9-1.3,5.6-2.8,8.3-4c5.5-2.4,10.6-4.9,15.5-6.8
			c2.4-1,4.8-2,7-2.9s4.3-1.6,6.3-2.4c1.7-0.6,3.2-1.2,4.7-1.7c-65.3,16.2-126.6,48.5-176.9,93.3c-2.5,2.2-4.9,6.5-2.1,8.4
			c1.7,1.1,3.9,0.1,5.7-0.9c1.7-1,3.4-2,5.1-3c-0.6,0.3-1.1,0.5-1.7,0.8c2.2-1.7,4.9-3.7,7.9-6c3.4-2.6,7.3-5.3,11.5-8.5
			C841.7,157.6,846.4,154.4,851.3,151z"/>
		<path class="st1" d="M831.5,198.5c1.7-0.7,3.4-1.5,5.2-2.3c3.6-1.7,7.5-3.3,11.7-5.1c2.1-0.9,4.3-1.7,6.5-2.6
			c2.2-0.8,4.5-1.8,6.8-2.7c4.7-1.7,9.5-3.5,14.5-5.2c4.9-1.8,10.1-3.2,15.1-5c5.2-1.5,10.3-3.1,15.4-4.4c5.1-1.4,10.1-2.7,15.1-3.9
			c4.9-1.1,9.7-2.3,14.3-3.3s8.9-1.9,12.9-2.6c2-0.4,4-0.8,5.8-1.1c1.9-0.3,3.6-0.6,5.2-0.9c3.3-0.6,6.2-1.1,8.6-1.5
			c4.8-0.7,7.6-1.3,7.6-1.3V155c-49.1,3.2-97.7,13-144.1,29.2c-4.3,1.5-8.7,3.2-11.9,6.5c-3.1,3.3-4.5,8.7-1.9,12.4
			c3.3-1,6.6-2.1,10-3.1C829.3,199.6,830.4,199.1,831.5,198.5z"/>
		<path class="st1" d="M821.2,226.8c2.7-0.4,5.3-0.9,8-1.3c-0.1-0.1-0.1-0.3-0.2-0.4c2.7-0.7,5.8-1.5,9.3-2.3
			c2.9-0.8,6.1-1.5,9.5-2.4c3.4-0.8,7-1.7,10.7-2.6c3.7-0.8,7.5-1.7,11.4-2.6s7.8-1.7,11.8-2.6c4-0.7,7.9-1.6,11.8-2.4
			c3.9-0.7,7.8-1.5,11.5-2.1s7.4-1.2,10.8-1.7c3.4-0.5,6.8-1,9.8-1.3c1.5-0.2,3-0.4,4.4-0.6c1.4-0.1,2.7-0.3,3.9-0.4
			c2.5-0.3,4.7-0.5,6.5-0.7c3.7-0.3,5.8-0.5,5.8-0.5l0.1-0.6c-33.6,0.3-67.2,3.6-100.2,9.9C836.2,214.1,824.9,217.5,821.2,226.8z"/>
		<path class="st1" d="M839.9,253.8c1.4,0.3,2.7,0.2,4.1-0.1c-0.4-0.6-0.8-1.3-1.1-1.9h0.1c1.8-0.4,3.8-0.8,6-1.3
			c4.4-1,9.5-2.1,14.9-3.5c2.7-0.7,5.5-1.3,8.3-2.1c2.8-0.8,5.7-1.4,8.6-2.2c11.5-3,23-6.1,31.7-8.4c2.2-0.6,4.2-1.1,6-1.6
			s3.4-0.9,4.7-1.3c2.7-0.7,4.2-1.2,4.2-1.2v-0.7c-29.6,0.6-59,5.8-86.9,15.6c-1.7,0.6-3.6,1.4-4.3,3
			C835.3,250.5,837.5,253.2,839.9,253.8z"/>
		<path class="st1" d="M862.5,283.4c-1-1.5-1.9-2.9-2.9-4.3c0.3,0,0.6-0.1,1-0.2c2.3-0.3,4.8-0.7,7.6-1c1.4-0.1,2.8-0.3,4.2-0.4
			c1.5-0.1,3-0.2,4.5-0.4c3.1-0.3,6.3-0.4,9.5-0.6c1.6-0.1,3.3-0.2,4.9-0.2c1.7,0,3.3-0.1,5-0.2c3.4-0.2,6.8-0.1,10.1-0.3
			c3.4-0.1,6.7-0.1,9.9-0.2c1.6,0,3.2-0.1,4.8-0.1s3.1,0,4.6-0.1c3-0.1,5.8-0.2,8.5-0.2c2.6-0.1,5.1-0.2,7.2-0.2
			c2.2-0.1,4.1-0.2,5.7-0.3c0.1,0,0.2,0,0.3,0c-9.1-2.2-18.2-4.4-27.4-6.1c-23-4.3-47.4-5.8-69.4,2.3
			C852.5,276.7,857,280.9,862.5,283.4z"/>
		<path class="st1" d="M882.7,312.3c-0.1-0.2-0.3-0.4-0.4-0.5c0.9,0,1.8,0,2.8,0c2.2,0,4.6-0.1,7.1-0.2c2.4-0.1,5-0.2,7.5-0.5
			c2.6-0.2,5.2-0.4,7.8-0.7c2.6-0.3,5.2-0.6,7.8-1c2.6-0.3,5.1-0.8,7.5-1.3c4.8-0.9,9.3-2,13.2-3c3.8-1,7-2.1,9.2-2.9
			s3.5-1.3,3.5-1.3l-0.1-0.9c-25.8,1.5-51.6,2.9-77.4,4.4C874.2,308.1,878.2,310.6,882.7,312.3z"/>
		<path class="st1" d="M932.4,343.8c3.3,0.1,6.6,0,10,0c6.7-0.2,13.4-0.7,19.6-1.5c3.1-0.4,6.1-0.9,9-1.3c2.8-0.5,5.5-1,8-1.6
			c4.9-1.1,9-2.3,11.8-3.2c1.4-0.5,2.5-0.8,3.3-1.1c0.8-0.3,1.2-0.4,1.2-0.4l-0.1-1.9c0,0-0.4-0.1-1.2-0.3c-0.8-0.2-1.9-0.4-3.4-0.7
			c-0.8-0.1-1.6-0.3-2.5-0.4c-29.2,4.5-58.8,6-88.3,4.6c2,2,4.2,3.6,6.6,5c2.3,0.8,4.8,1.4,7.5,1.8c2.8,0.5,5.9,0.6,9,0.8
			C925.9,343.6,929.1,343.8,932.4,343.8z"/>
		<path class="st2" d="M799.5,152.3c15.2-28.1,38.9-52.6,62.7-73.6c23-20.4,48.7-37.9,76.2-51.6c15-7.5,31.3-15.1,47.7-19
			c0.6-0.1,0.8,0.8,0.3,1c-13.9,5.5-28.1,10-41.6,16.5c-14,6.6-27.5,14-40.3,22.7c-25.9,17.5-49.3,38-69.9,61.5
			c-12.1,13.8-22.4,28.7-32.7,43.8C800.9,154.9,798.8,153.6,799.5,152.3z"/>
		<path class="st2" d="M806.7,169c18.4-19.3,41.4-35.2,64.3-48.7c23.6-13.8,48.7-25,74.7-33.4c14.3-4.6,29.2-9.3,44.2-10.9
			c0.7-0.1,0.8,0.9,0.2,1.1c-13.2,3.7-26.7,6.2-39.9,10.3c-12.7,3.9-25.1,8.7-37.3,14c-24.7,10.9-48,24.7-69.8,40.6
			c-12.2,9-23.4,19-34.9,28.8C806.9,172,805.7,170.1,806.7,169z"/>
		<path class="st2" d="M812.3,194.7c8.9-9.2,22.2-13.6,34-18.1c12.7-4.9,26-8.6,39.2-11.8c13.5-3.3,27.1-5.8,40.8-7.5
			c13.3-1.6,27.4-3.3,40.8-2.3c0.9,0.1,0.9,1.6,0,1.7c-13.2,1.1-26.4,1-39.7,2.5c-13.2,1.6-26.2,3.9-39.1,7.1
			c-13.4,3.3-26.3,7.8-39.2,12.6c-11.9,4.5-25.7,9-35.7,17.2C812.4,197.1,811.5,195.5,812.3,194.7z"/>
		<path class="st2" d="M819.6,214c18.5-8.9,40.5-11.4,60.7-13.7c20.9-2.4,42.9-3.1,63.9-1.2c0.4,0,0.3,0.7-0.1,0.7
			c-41.7-1.9-84.2,1.6-123.7,16C819.1,216.4,818.5,214.6,819.6,214z"/>
		<path class="st2" d="M831.6,238.7c12.9-7.7,28.6-9.6,43.4-10.2c8-0.4,16.1-0.3,24.1-0.6c8.5-0.3,17.1-1,25.7-1
			c0.5,0,0.5,0.8,0,0.9c-16.2,1.4-32.5,1.1-48.7,2.6c-15.1,1.4-29.6,4.5-43.5,10.5C831,241.6,830.3,239.5,831.6,238.7z"/>
		<path class="st2" d="M894.6,259.4c-8.3-0.8-16.7-0.8-25,0c-8.5,0.8-16.3,3.2-24.5,5.4c-1.3,0.3-1.5-1.6-0.6-2.1
			c14.5-8.1,33.5-7.7,49.4-5.3c17.8,2.7,36.3,7.6,53,14.4c0.6,0.3,0.2,1.2-0.4,1C929.2,268,912.8,261.3,894.6,259.4z"/>
		<path class="st2" d="M887,302.9c-5.7-0.5-12.8-0.1-18.1-2.5c-0.5-0.2-0.3-0.9,0.1-1c5.3-1.4,11.9,0.2,17.4,0.6
			c6.1,0.5,12.3,1.1,18.4,1.6c12.8,1.1,25.5,0.4,38-2.6c0.7-0.2,0.9,1,0.2,1.2c-12.1,2.5-24.4,4-36.7,3.9
			C899.8,304.1,893.4,303.5,887,302.9z"/>
		<path class="st2" d="M895.8,334.7c-1-0.1-1.1-1.8,0-1.9c14.7-0.8,29.7,0.7,44.4,1.6c7.3,0.4,14.6,1,21.9,0.5
			c7.4-0.5,14.3-2.2,21.5-4.1c0.6-0.2,0.9,0.9,0.3,1.1c-12.3,5.5-27.4,4.8-40.5,4.7C927.6,336.4,911.4,336.8,895.8,334.7z"/>
		<path class="st1" d="M927.7,368.3c-1.6-1.8-3.1-3.5-4.7-5.3c2.4,1,5.1,2,8.1,2.9c3.1,1,6.6,1.7,10.2,2.3c3.7,0.6,7.5,0.9,11.6,1.2
			c4,0.3,8.2,0.6,12.4,0.8c4.2,0.2,8.5,0.3,12.8,0.4s8.6,0,12.8,0c4.3-0.1,8.4-0.2,12.5-0.4c4-0.2,7.9-0.5,11.6-0.8
			c3.7-0.3,7.2-0.7,10.4-1.1c6.5-0.8,11.9-1.6,15.6-2.4c1.9-0.4,3.3-0.7,4.4-0.9c1-0.2,1.5-0.4,1.5-0.4v-1.9c0,0-0.5-0.1-1.5-0.4
			c-1-0.2-2.4-0.6-4.3-1c0,0,0,0-0.1,0c-38.7,7.9-80.5,2.3-120.3-3.6c2,14.6,10.8,28.1,23.4,35.7c0.5-1.7,1.3-3.2,2.3-4.6
			c-2-2.1-3.9-4.1-5.9-6.2C936.3,377.9,931.9,373.1,927.7,368.3z"/>
		<path class="st1" d="M934.2,492.7c-1.2-9.2-2.4-18.7-6.1-27.2c1,8.1,2.1,16.5,3.1,25.1c2.6,20,5.4,41.4,8.1,62.8
			c1.4,10.7,2.9,21.3,4.3,31.9c1.5,10.5,2.6,20.9,4.7,31c1,5.1,2.2,10,3.7,14.8c0.4,1.2,0.8,2.4,1.2,3.5l0.6,1.8l0.7,1.7
			c0.9,2.3,1.9,4.5,2.9,6.7c2.1,4.6,4.3,8.8,6.5,12.9C949.4,603.9,941.2,548.2,934.2,492.7z"/>
		<path class="st1" d="M922,606.4c0,0-0.1-0.2-0.4-0.5c0.1,0.2,0.1,0.5,0.2,0.7L922,606.4z"/>
		<path class="st1" d="M898,445.4C898,445.5,898,445.5,898,445.4c0.2,2.7,0.4,5.4,0.6,8.1c0.9,8.4,1.6,17.1,2.8,25.9
			c1,8.8,2.5,17.7,3.8,26.5c1.6,8.8,3.1,17.7,5,26.3c1.7,8.7,3.9,17.1,5.8,25.3c1.1,4.1,2.1,8.1,3.2,12c1,3.9,2,7.7,3.2,11.4
			c1.1,3.7,2.1,7.3,3.2,10.7c1,3.5,2.2,6.8,3.2,10c0.7,2.2,1.4,4.3,2.1,6.3c-1.1-5.3-2.2-10.6-3.4-15.9
			c-14.2-67.3-28.6-135.5-25.1-204.1c0.2-3.4,0.4-6.9,1.9-9.9c1.1-2.2,3.1-4,5.3-4.8c-0.5-3-0.9-5.3-1.3-7.1
			c-0.1-0.3-0.1-0.5-0.2-0.7c0.9,1,1.7,2,2.5,3c-1.3-2.1-3.1-3.9-5.2-5c-0.2,0.5-0.5,1.4-0.9,2.7c-0.7,2-1.6,5.1-2.5,8.9
			c-1,3.8-1.9,8.6-2.7,14c-0.2,1.3-0.4,2.5-0.5,3.9C897.4,410.3,897.3,427.9,898,445.4z"/>
		<path class="st1" d="M903.7,585.6c-0.1-0.5-0.2-0.9-0.3-1.4c0,0.4,0.1,0.8,0.1,1.2c0.2,2.2,0.4,4.3,0.6,6.5
			c0.4,0.4,0.7,0.8,1.1,1.1C904.7,590.5,904.2,588,903.7,585.6z"/>
		<path class="st1" d="M891.6,569.4c-0.7-1-1.4-2.1-2-3.2c0.1,3.2,0.3,6.5,0.4,9.7c1.4,1.8,2.9,3.5,4.3,5.1
			c-0.1-2.8-0.2-5.5-0.3-8.3C893.1,571.7,892.4,570.5,891.6,569.4z"/>
		<path class="st1" d="M884.5,436.8c0.6,16,1.3,32.1,1.9,48.1c0.4,6.5,0.7,13.1,1.2,19.7c0.8,10.5,1.6,21,2.6,31.3
			c0.8,10.3,2,20.5,3.1,30.3c0.3,2.1,0.5,4.2,0.8,6.3c-1.5-42.8-2.9-85.6-4.4-128.4c-0.6-17.3-1.2-34.8-5.4-51.5
			c-0.1,6.8,0,14.1,0,21.7c0,4.5,0.1,9.2,0.1,13.9C884.4,431,884.4,433.9,884.5,436.8z"/>
		<path class="st1" d="M869.4,565.9c-0.3-0.6-0.6-1.3-0.9-1.9c4.5,15.2,9.9,30.3,12.7,45.9c0.3,0.7,0.6,1.3,0.9,1.9
			c1.1,2.1,1.6,3.3,1.6,3.3l1.8-0.5c0,0-0.2-1.3-0.5-3.7c-0.4-2.4-1.1-5.9-2.3-10.3c-0.6-2.2-1.3-4.6-2.2-7.2
			c-0.4-1.3-0.9-2.6-1.4-4s-1.1-2.8-1.6-4.3C875.4,579.3,872.5,572.8,869.4,565.9z"/>
		<path class="st1" d="M866.6,526.3c0.8,4.6,1.9,9.1,3.2,13.4c0.4,1.1,0.6,2.1,1.1,3.3c0.4,1,0.8,2,1.1,3c0.8,2,1.7,4.1,2.6,6
			c0.4,0.9,0.9,1.8,1.3,2.6c-10.4-50-7.8-101.8-5.2-152.9c0.8-15.1,1.1-29.8,3.8-44.7c0.6-3.5,1.3-7,3.2-10c0-1.3,0.1-2.6,0.1-3.8
			c0.2-5.8,0.4-10.8-0.2-15c1.3,1.7,2.6,3.4,4.1,5.1c0.1,0.1,0.1,0.2,0.2,0.3c-4.5-7.8-9.5-15.3-14.9-22.5c-0.1,0.9-0.2,1.8-0.3,2.7
			c1.1,1.5,2.2,2.9,3.2,4.4c-0.9,2.2-2,5.5-2.7,9.5c-0.9,4.2-0.9,9.3-1,15.2c-0.1,5.9-0.2,12.5-0.4,19.8
			c-0.2,14.5-0.7,31.4-0.9,49.5c-0.1,9.1-0.3,18.4-0.4,27.9c-0.1,9.5-0.2,19.2-0.3,28.8c0,9.7-0.2,19.3-0.1,28.9
			C864.3,507.5,864.9,517.1,866.6,526.3z"/>
		<path class="st1" d="M843.8,553.4l-0.6-20.2c0.2,0.7,0.4,1.4,0.6,2c0.8,2.2,1.6,4.5,2.4,6.7c0.9,2.2,1.7,4.3,2.6,6.4
			c3,7.1,6.2,13.5,9.4,19.4c-9.2-37.4-15.3-75.4-11.6-113.5c3.8-39.2,2.5-79.6,11.7-117.9c0.1-0.5,0.2-1,0.4-1.5
			c0.1-2.2,0.1-4.3,0.1-6.4c0.1-6.2,0.2-11.6,0.1-16.1c0-3.4,0-6.3-0.1-8.5c-0.7-1.3-1.4-2.5-2.4-3.7c-0.4,2.2-1,6.3-1.8,11.9
			c-0.7,4.4-1.3,9.8-2.1,15.9s-1.5,13.1-2.3,20.7c-0.7,7.6-1.6,15.8-2.3,24.5c-0.8,8.7-1.6,17.9-2.4,27.3
			c-1.3,14.6-2.6,29.9-3.9,45.5c0-3.9,0-7.7,0-11.5l0.3-20l0.6-19.9l0.8-16.5C838,436.3,838.2,495.1,843.8,553.4z"/>
		<path class="st1" d="M823.7,289.2c0.4-0.9,0.9-1.8,1.5-2.7c2.2-3.1,5.9-5.3,9.6-5.6c-0.1-4.4-0.3-8.6-0.4-12.4c0-0.6,0-1.2,0-1.8
			c1.4,2.3,2.9,4.6,4.4,7c-3.3-8.9-8.2-17.2-14.5-24.4c1.6,2.9,3.2,5.7,4.9,8.6c-0.2,0.5-0.3,1.1-0.5,1.6c-0.6,2.5-1.2,5.3-1.9,8.4
			c-0.6,3.1-1.2,6.4-1.7,10c-0.5,3.5-1,7.3-1.4,11.1C823.7,289.1,823.7,289.1,823.7,289.2z"/>
		<path class="st1" d="M824.7,359.9c0.6,2.6,1.2,5,1.9,7.1c0.7,2.5,1.7,4.6,2.4,6.4c0.6,1.5,1.3,2.8,1.8,3.7
			c-0.1,1.8-0.2,3.7-0.3,5.5c1.2,1.9,2.9,3.4,4.9,4.4c3.5-29.4,6.1-58.8,7.8-88.4c-1.2,4.9-2.4,9.9-3.6,14.8
			c-1.1,5.4-2.1,10.8-3.1,16.2c-0.2-5.4-0.4-10.9-0.6-16.5c-0.2-4.1-0.3-8.3-0.4-12.4c-0.1,0.8-0.1,1.6-0.1,2.3
			c-0.7,24.7-1.5,49.5-2.2,74.2C829.4,372,826.6,366.1,824.7,359.9z"/>
		<path class="st1" d="M822.9,254.7c0.4-2,0.8-3.8,1.1-5.6c-0.3-0.4-0.6-0.7-0.9-1c-0.5,4.2-1,8.3-1.5,12.5
			C822,258.6,822.5,256.6,822.9,254.7z"/>
		<path class="st1" d="M794.7,354.9c0.6-1.9,1.2-3.8,1.7-5.7c10.8-35.3,18.9-71.3,24.1-107.8c-0.5,0.9-1,1.7-1.4,2.6
			c-1,2.7-2,5.7-3,8.9c-0.7,2.2-1.5,4.4-2.3,6.7c-0.7,2.3-1.5,4.8-2.2,7.3c-1.6,5-3.1,10.3-4.6,15.8c-1.4,5.5-2.9,11.2-4.2,17.1
			c-0.1,0.4-0.2,0.7-0.2,1.1c0-0.2,0-0.3,0-0.5c-1,6.1-1.8,12.3-2.6,18.4c-4.9-21.6-5.3-44.1-1.2-65.8c1.7-9,5.8-19.4,14.4-21.7
			c0.4-0.1,0.9-0.2,1.3-0.3c-0.1-0.3-0.3-0.6-0.4-0.9c-3-6.7-6-13.4-9-20.1c0.5,1.4,1.1,2.8,1.7,4.2c-1.8,4.7-3.6,9.9-5.2,15.6
			c-0.6,2-1.1,4-1.6,6s-1,4.1-1.5,6.2c-0.8,4.2-1.7,8.5-2.3,12.9c-0.8,4.3-1.2,8.7-1.6,13c-0.2,2.2-0.3,4.3-0.4,6.4
			c-0.1,2.1-0.2,4.2-0.2,6.3c0,2.1,0,4.1,0.1,6.1s0.2,4,0.4,5.8c0.2,3.8,0.7,7.3,1.2,10.6c0.4,3.2,1.2,6.2,1.8,8.8
			c0.3,1.3,0.6,2.5,0.9,3.6c0.3,0.8,0.5,1.6,0.7,2.3c-1,5.9-2,11.8-2.6,17.6c-0.8,6-1.2,11.9-1.7,17.6
			C794.8,353.7,794.7,354.3,794.7,354.9z"/>
		<path class="st1" d="M785.2,238.4c0.1,3,0.3,5.8,0.5,8.4c0.1,1,0.2,2,0.3,2.9c0.2-15.8,4.7-31.6,11.2-46.1
			c1.7-3.9,3.6-7.8,3.7-12.1c0.1-4.2-2.5-8.8-6.6-9.7c-0.1,0-0.2,0-0.3,0c-0.7,1.1-1.3,2.3-1.8,3.6c-2.1,4.7-3.4,10.4-4.2,16
			c-0.4,2.8-0.9,5.7-1.4,8.5l-0.2,1l-0.1,0.7l-0.1,0.6c-0.1,0.8-0.3,1.5-0.4,2.3c-0.2,1.8-0.4,3.5-0.5,5.1
			C784.7,226.3,784.9,232.5,785.2,238.4z"/>
		<path class="st2" d="M977.8,360.3c-20.1-1.1-40.6-5.4-60.7-2.6c-1.2,0.2-1.6-1.7-0.4-2c18.6-3.1,38.8,2.1,57.5,3.2
			c20.7,1.2,41.3,1.7,62,1.7c0.7,0,0.6,1.1-0.1,1.1C1016.7,361.3,997.2,361.4,977.8,360.3z"/>
		<path class="st2" d="M789.1,245.2c-1.5-17.2-1-36.1,8-51.3c0.1-0.2,0.3,0,0.2,0.2c-8.3,16.7-7.3,33.1-7.6,51
			C789.7,245.5,789.1,245.6,789.1,245.2z"/>
		<path class="st2" d="M797.7,287.8c0.7-9.8,2.3-19.6,3.7-29.3c1.2-8.1,1.9-16.2,5.4-23.8c0-0.1,0.1,0,0.1,0
			c-6.6,16.1-5.8,36-8.6,53.1C798.3,288.3,797.7,288.3,797.7,287.8z"/>
		<path class="st2" d="M794.8,385.1c1.1-23.4,6.1-46.8,9.8-69.8c3.4-21.5,7-45,14.7-65.4c0.1-0.2,0.4-0.2,0.4,0.1
			c-3,21.3-9.3,42.7-13.7,63.8c-4.9,23.7-6.7,47.7-10.7,71.4C795.3,385.5,794.8,385.5,794.8,385.1z"/>
		<path class="st2" d="M828.2,366.5c-3.8-24-1.9-49.3,0.9-73.2c0-0.1,0.1-0.1,0.1,0c-2.7,24.6-1.2,48.5-0.4,73.2
			C828.8,366.8,828.3,366.9,828.2,366.5z"/>
		<path class="st2" d="M835.3,531.4c-4.5-38.1-0.2-77.6,2-115.8c1-18.1,2.4-36,4.3-54c1.7-16.8-2.1-34.1,2.6-50.5
			c0-0.1,0.2-0.1,0.2,0.1c-3.5,17.8-0.6,35.8-2.1,53.7c-1.4,17.6-2.9,35.1-3.9,52.7c-2.3,38.1-2.6,75.7-2.5,113.8
			C835.8,531.7,835.3,531.8,835.3,531.4z"/>
		<path class="st2" d="M889.6,346.9c0.3-1.1,2-0.7,1.8,0.4c-6.2,34.9,3.5,70,2.3,105.2c-0.6,17.3-0.9,34.5-0.4,51.8
			c0.5,18.5,2.8,37,2.8,55.4c0,0.5-0.7,0.5-0.8,0c-3.4-18-3.5-37.1-4-55.4c-0.4-18.5-0.2-36.9,0.4-55.4c0.6-17.9-0.7-35.4-2.6-53.3
			C887.3,379.4,885.9,363,889.6,346.9z"/>
		<path class="st2" d="M906.9,383.9c0-0.2,0.4-0.2,0.4,0c0.9,24.3-1.4,48.4,0.8,72.8c2.2,24.3,8.2,47.7,11.8,71.8
			c0.1,0.4-0.5,0.4-0.6,0.1c-8.3-22.4-11-48.2-13-71.8C904.4,433.3,902.3,407.2,906.9,383.9z"/>
		<path class="st2" d="M927.1,385.4c-0.5,29.2,7.6,57.7,9,86.8c1.5,30.7,5.4,60.2,12.2,90.2c0,0.1-0.1,0.1-0.1,0
			c-8-28.7-12.3-58.7-14-88.3c-1-16.7-2.9-32.9-6-49.4c-2.4-13-4.8-26.3-3.4-39.6C924.9,383.9,927.1,384.2,927.1,385.4z"/>
		<path class="st1" d="M1379.6,639.9c5.3,1.8,10.6,3.6,15.9,5.4c-0.5-0.2-0.9-0.5-1.3-0.7c-1.1-0.7-2.1-1.4-3.1-2.1
			c-1.4-0.8-2.9-1.2-4.4-1.7c-4.8-1.5-9-3.1-13.5-4.7c-1.9-0.7-3.9-1.3-5.9-2c-0.1,0-0.2,0-0.3-0.1c-3.1-0.9-7.2-1.5-9.8-3.2
			c-0.1-0.1-0.2-0.1-0.3-0.2c-0.1-0.1-0.3-0.2-0.4-0.3c-0.6-0.4-1.1-0.7-1.8-1c-1.1-0.4-2.2-0.5-3.4-0.6c-2.9-0.3-5.7-1-8.4-2.1
			c-3.2-1.3-6.1-3.1-9.3-4.5c-0.4-0.2-0.9-0.4-1.5-0.6c-5.7-2.1-17.4-5.1-22.1-6.6h-0.1c-27.9-9-31.2-11.1-43.5-14.7
			c-13-3.8-26.2-7-38.1-13.3c-3.9-2.1-7-5.1-10.9-7.1c-0.1,0-0.1-0.1-0.2-0.1c-6.4-3.1-13.4-6.1-20.1-9c-0.1,0-0.2-0.1-0.2-0.1
			c-7.2-3.1-14.1-6.1-19.6-9.1c-11.8-2.6-21.7-10.4-31.9-17.3c-2.7-1.8-5.3-3.5-8.1-5.1c-6.8-3.9-14-8.1-20.9-12
			c-0.1,0-0.1-0.1-0.2-0.1l0,0c-1.7-0.9-4.2-2.6-6.8-4.2c-0.1-0.1-0.2-0.1-0.3-0.2c-2.4-1.6-4.8-3.2-6.4-4.2l0,0
			c-2.4-1.5-4.1-1.2-6.5-2.7c-3.8-2.4-2.3-2.7-6-5.4c-6.3-4.4-12.8-8.6-19-13c-0.3-0.2-0.5-0.4-0.8-0.6c-2-1.5-4.2-3.4-6.1-4.5
			l-0.1-0.1c-3-1.7-1.5-1.5-4.4-3.5c-2.4-1.7-10.8-2.1-12.5-4.5c-1.1-1.6-3.1-2.1-4.4-3.4s-4.5-4.1-5.8-5.4
			c-2.8-2.9-2.3-4.9-3.8-6.6c-0.4-0.4-0.9-0.8-1.5-1.2h-0.1c-1.6-0.9-3.7-2.1-4.7-3.7c0,0,0-0.1-0.1-0.1c-0.1-0.2-0.3-0.3-0.6-0.5
			c-1-0.6-2.7-1.1-3.3-1.6c-1-0.8-2.4-0.8-3.6-1.2c-5.6-1.7-5.6-7.7-10.1-11.5c-0.2-0.2-0.5-0.4-0.7-0.6c-0.8-0.6-1.5-1.2-2.1-1.8
			c-3.3-2.8-5.1-4.5-9.3-8.2c-0.3-0.3-0.7-0.6-1.1-1c-0.1-0.1-0.2-0.2-0.3-0.3c-2-1.7-7.9-6.1-9.3-7.5c-1.3-1.2-2.8-2-4.3-2.9
			c-5.6-3.2-11.7-6.3-14.5-12.1c-0.8-1.6-1.2-3.3-2.2-4.7c-2-2.9,1,0.4-1-2.4c0,0,0,0,0-0.1c-0.5-0.6-3.1-3.1-4.7-4.7
			c-0.4-0.4-0.7-0.7-0.9-1c-0.1-0.1-0.1-0.1-0.1-0.2c-0.4-0.5-0.7-0.8-1.1-1.1l0,0c-1.5-1.2-3-0.8-5.3-2.1
			c-4.4-2.4-4.3-7.6-7.5-11.4l0,0c-6.7-7.8-13.1-15.4-20.2-22.4c0,0,0-0.1-0.1-0.1c-0.2,0.1-0.5-0.3-0.7-0.8
			c-0.1-0.2-0.3-0.5-0.4-0.6c-0.1-0.1-0.2-0.2-0.3-0.1c-1.4-5.5-2.5-2.3-7.2-5.5c-2.2-1.5-1-3.5-5.5-9.7c0,0,0,0,0-0.1
			c-1-1.4-2.3-3-4.1-4.9c0,0,0,0,0-0.1c-4.4-4.8-4.9-2.2-9.7-6.7c-1.9-1.8-1.2-7.2-2.8-9.3c-0.1-0.2-0.2-0.3-0.4-0.5
			c-0.5-0.6-1-1.3-1.4-1.9c-0.9-1.1-1.7-2.2-2.6-3.2c-4.2-5.3-8.4-9.6-15.3-14c-4.4-5.1-1.8-10.2-4.5-13.4c-0.4-0.5-0.9-1.2-1.5-2.2
			l-0.1-0.1c-1.7-2.7-4-6.7-5.5-8.2c-1.1-1.1-2.4-3-3.7-3.8c-3.6-2.4-5.8-6.1-9.1-10.6c-1.8-2.4-2.4-11.1-4.5-13.3
			c-6.9-4.1-9.7-6.3-12.7-13.6c-0.4-0.9,1.4-6.8,1.2-7.6c-0.1-0.2-0.3-0.8-0.7-1.7c-1.2-2.5-3.3-6.8-3.7-7.2
			c-6.5-6.4-10.7-12.7-9.4-21.8c-3.9-4.1-3.6-1.2-3.9-6.9c-0.1-1-0.1-2.1-0.4-3.1c-0.4-1-1.1-1.7-1.7-2.6c-1.6-2.3-2.3-5.1-2-7.8
			c0.2-1.5,0.6-3.1-0.2-4.3c-0.7-1.1-2.1-1.7-2.8-2.8c-0.8-1.5,0-3.4-0.3-5.1c-0.2-1.6-1.3-2.9-2.1-4.2c-1.6-2.6-2.2-5.8-1.6-8.8
			c2.6-1.9,1.6-4.6-1.4-5.3c-1.7,0.4-3.5-0.6-4.5-2.1c-1-1.4-1.3-3.2-1.5-4.9c0-0.2-0.1-0.4-0.1-0.6c-0.3,0-0.7,0-1,0.1
			c-1.1,0.2-2,0.5-2.9,1c2.7,11.7,7.8,22.8,10.2,34.6c1.1,5.4,1.7,10.8,3.3,16.1c1.4,4.7,3.6,9.2,5.8,13.6
			c6.9,14,12.6,28.9,20.9,42.2c10.5,16.9,21,33.9,31.5,50.8c2.4,3.9,4.9,7.9,7.6,11.6c3.3,4.5,7.2,8.6,11,12.6
			c8.4,9,18.5,17.3,26,27c10.6,13.7,21.9,26.9,33.9,39.4c12.3,12.8,25.2,24.8,38.1,36.9c3.9,3.6,7.3,8.7,11.3,12.2
			c3.7,3.2,7.4,6.4,11.2,9.6c14.3,12.3,28.6,24.6,44,35.4c6.8,4.7,15.8,7.2,22.4,12.2c11.2,8.5,22.4,17,34.3,24.5
			c21.1,13.3,43.3,26.1,65.8,37.1c17.5,8.6,35.3,16.9,53.1,24.8c15.8,7,32.4,11.9,48.7,17.6C1307.9,616.6,1344,627.8,1379.6,639.9z"
			/>
	</g>
</g>
</svg>
