<?xml version="1.0" encoding="utf-8"?>
<!-- Generator: Adobe Illustrator 22.0.0, SVG Export Plug-In . SVG Version: 6.00 Build 0)  -->
<svg version="1.1" id="Calque_2_1_" xmlns="http://www.w3.org/2000/svg" xmlns:xlink="http://www.w3.org/1999/xlink" x="0px"
	 y="0px" viewBox="0 0 4000 1319.4" style="enable-background:new 0 0 4000 1319.4;" xml:space="preserve">
<style type="text/css">
	.st0{fill:#406E61;}
	.st1{fill:#7BAE90;}
	.st2{opacity:0.1;}
	.st3{opacity:0.38;fill:#406E61;enable-background:new    ;}
	.st4{fill:#578261;}
	.st5{opacity:0.59;fill:#578261;enable-background:new    ;}
	.st6{opacity:0.7;}
	.st7{fill:#6EB09C;}
	.st8{fill:#69A16E;}
	.st9{opacity:0.43;fill:#4B694C;enable-background:new    ;}
</style>
<g>
	<g>
		<g>
			<path class="st0" d="M1215.4,645.5c4-0.8,3.3-0.8,1,0.2C1216.1,645.6,1215.8,645.6,1215.4,645.5z"/>
			<path class="st0" d="M1124.2,668c1.9,0.1,2.8,0.1,3.1,0.2c-0.2,0.1-1,0.1-2.1,0.3C1124.8,668.3,1124.5,668.1,1124.2,668z"/>
			<path class="st0" d="M1319.9,880c-16.6-14.1-33-27.4-48.9-41.3c-11.7-10.1-23-20.5-34-31.7c-11.1-11.3-21.1-23.9-30.9-36.7
				c-15.1-19.9-29.7-40.4-47.3-58.1c-4.9-4.7-15.3-11-24.3-18c-9.2-6.8-16.9-14.8-16-24.2c2.4-0.9,4.9-1.4,6.6-1.6
				c10.6,5.4,23.5,7.8,36.4,10.7c6.7,1.4,13.6,2.6,20.2,4c6.6,1.5,13,3.1,19,5.1c12.9,4.1,24.9,9.8,37.2,15.8
				c11.9,6.3,23.8,13,34.9,20.3c14.3,9.2,28.3,19.4,41.8,30.2c0.6,0.4,1.1,0.9,1.7,1.3c-0.4-0.5-0.8-0.9-1.3-1.4
				c-9.6-10.6-18.3-22-27.1-33.4c-11.1-14.2-22.7-28.4-36.5-40c-2.3-1.9-5.9-3.8-10-6c-4.1-2.1-8.8-4.2-13.1-6.7
				c-8.8-4.8-16.7-10.4-17.6-19.7c2-1.5,4.2-2.5,5.6-3.1c10.5,2.4,22.3,2.7,34.8,2.9c12.7,0.4,26.1,0.6,37.5,3.2
				c24.6,5.1,48,16.1,69.2,28.5c6.6,3.9,13,8,19.3,12.3c-11.4-15.9-21-34.4-32.4-49.9c-5.4-7.3-26.4-17.1-20.1-33.9
				c2-0.9,3.9-1.5,5.2-1.9c12.9,7.9,34.9,5.2,50.6,7.8c17,2.9,32.7,8.6,47.7,15.4c37.6,17.1,74.1,44.5,99.9,79.4
				c6.5,8.9,14.8,19.4,21.7,31.4c0.2,0.3,0.4,0.6,0.5,0.9c6.4,11.3,11.5,23.8,12.6,37.2c-16.3,7.3-36-0.2-48.8-3.4
				c-21.4-5.3-45.5-12.5-63.3-24.1c-1.9-1.2-3.8-2.5-5.7-3.6c-1.2-0.8-2.4-1.5-3.6-2.3c0.8,0.8,1.6,1.5,2.4,2.4
				c18,17.8,34.6,36.8,48.8,56.8c17.2,24.2,43.2,58.5,46.7,90.9c-20.4,2.2-45.4-13.1-61.5-21.1c-27.1-13.5-57.7-29.6-80.5-48.4
				c-1.3-1.1-2.6-2.1-3.9-3.2c-9.4-7.7-18.9-15.1-28.2-22.6c3.6,3.6,7.1,7.2,10.6,10.8c16.2,16.9,31.4,34.4,45,52
				c9.8,12.7,22.5,27.8,34.1,43.5c11.5,16,22.4,32.2,27.8,49.1c-10.6,1.9-23.9-0.6-36.6-5c-12.6-4.6-25.1-10.5-34.3-15
				C1380.2,921.2,1345.4,901.8,1319.9,880z"/>
			<path class="st0" d="M1037.7,693.9c2,0.2,3,0.2,3.3,0.2c-0.2,0.1-1,0.1-2.1,0.2C1038.4,694.2,1038,694.1,1037.7,693.9z"/>
			<path class="st0" d="M974.7,726.7c2,0.1,2.9,0.2,3.1,0.2c-0.2,0.1-1,0.1-2.1,0.2C975.4,727.1,975,726.9,974.7,726.7z"/>
			<path class="st0" d="M1110.2,997.9c-30.4-26-60.7-49.9-89.7-77c-5.4-5-10.6-10.1-15.9-15.3c-7.4-7.3-14.3-14.9-21-22.6
				c-27.4-31.8-50.4-66.7-80.2-94.8c-6.2-5.8-19.3-13.6-31.1-21.5c-11.7-8.1-22.5-16.2-23.4-26c2.8-0.9,5.7-1.4,7.7-1.6
				c14.1,5.6,29.9,9.5,46,13.8c16.6,4.4,33.4,9.1,47.9,15.4c29.9,12.9,57.9,31,83.9,49.4c-8.6-15.2-17.1-30.1-27.3-43.4
				c-4.2-5.5-13.9-12.9-22.5-20.5c-8.5-7.7-16.2-15.4-15.6-24.9c2.5-0.9,5-1.3,6.8-1.5c11.2,5.5,24.1,9.5,37.4,13.9
				c13.7,4.5,27.6,9.4,39.2,15.4c21.9,11.4,41.4,26.1,59.5,39.8c-11.6-19.3-23.3-38.4-38-55.3c-2.4-2.7-6.3-5.8-10.6-9.3
				c-4.5-3.4-9.4-7-14.1-10.8c-9.4-7.6-17.8-15.4-17.3-25.1c2.6-0.9,5.2-1.3,7-1.5c11.7,5.4,25,9.3,39,13.1
				c14.1,4.2,29,8.3,41.2,14.3c26.4,12.5,50.3,30.3,72.1,48.7c1.8,1.6,3.6,3.1,5.5,4.7c11.8,10.2,23.1,20.9,34.2,31.7
				c8.8,8.6,17.3,17.2,25.8,26c3.9,4,7.7,8,11.6,12.1c24.5,25.9,48.4,52.5,69.9,79.5c10.7,13.4,24.5,29.4,37.2,46.1
				c12.7,16.8,24.3,34.3,29.8,51.5c-17.4,2.4-40.2-7.1-58.8-15.9c1.4,2.1,2.6,4.3,3.8,6.4c-21.1,7.4-54.4-3.2-74.9-9.3
				c-19.6-5.5-40.6-12.8-60.5-21.7c3.6,4.3,7.2,8.6,10.6,12.9c25.8,32.2,64.6,78.1,74.7,116.8c-25-2-59-25.6-80.6-38.6
				C1183.1,1050.7,1142.1,1025,1110.2,997.9z"/>
			<path class="st0" d="M855.3,738.5c2.3,0.1,3.5,0.1,3.7,0.2c-0.2,0.1-1.1,0.1-2.5,0.3C856.1,738.8,855.7,738.7,855.3,738.5z"/>
			<path class="st0" d="M763.4,748.8c2.1,0.4,3.3,0.6,3.8,0.7c-0.4,0-1.3-0.1-2.5-0.1C764.3,749.2,763.8,749,763.4,748.8z"/>
			<path class="st0" d="M1105.3,1163.3c-37-27.6-78.6-61.1-109.5-96.4c-17.4-19.8-34.6-39.5-50.6-59.7
				c-16.1-20.2-31.1-40.5-45.3-61.8c-12.1-18-22.6-36.5-33.2-55.1c-1.6-2.9-3.2-5.8-4.9-8.7c-1.4-2.5-2.9-5-4.3-7.5
				c-13.8-23.8-28.4-47.3-46.5-68c-6-6.9-19.1-16.9-31.2-26.5c-11.9-9.9-23.1-19.3-23.3-29.5c3-0.6,6.1-0.6,8.2-0.6
				c7.1,3.7,14.8,6.8,22.4,10.2c4.2,1.6,8.4,3.3,12.7,5c4.2,1.7,8.5,3.5,12.8,5.1c4.4,1.7,8.7,3.5,12.9,5.4
				c4.3,1.9,8.6,3.8,12.8,5.6c8.2,4,16.3,8.1,23.7,12.6c31.2,19.4,59.5,45.1,84.7,71.7c6.8,7.2,13.5,14.5,20.1,22.1
				c5,5.7,9.9,11.4,14.8,17.2c18.7,22.3,36.5,45.5,53.8,68.1c27.9,36.5,55.7,73.7,80.4,110.7c24.3,36.8,63.1,89.1,72.4,130.4
				C1162,1208.4,1127.4,1179.8,1105.3,1163.3z"/>
			<path class="st0" d="M656.9,745.8c-0.4-0.3-0.8-0.5-1.2-0.8C661.4,746.7,660.4,746.2,656.9,745.8z"/>
			<path class="st0" d="M543.3,780c2.4,0.6,3.6,0.8,3.9,1c-0.4,0-1.3-0.1-2.6-0.2C544.2,780.5,543.7,780.3,543.3,780z"/>
			<path class="st0" d="M481.5,791.2c2.5,0.4,3.7,0.6,4,0.7c-0.3,0-1.3,0-2.7-0.1C482.3,791.6,481.9,791.4,481.5,791.2z"/>
			<path class="st0" d="M424.7,834.9c2.2-0.1,3.5-0.3,4-0.3c-0.4,0.1-1.3,0.2-2.6,0.6C425.7,835.2,425.2,835,424.7,834.9z"/>
			<path class="st0" d="M300.9,847.7c2.4,0.5,3.6,0.6,3.9,0.7c-0.3,0-1.3-0.1-2.6-0.1C301.8,848.2,301.3,847.9,300.9,847.7z"/>
			<path class="st0" d="M267.2,879c1.8,0.3,2.7,0.4,3.2,0.5c-0.4,0.1-1.2,0.1-2.2,0.1C267.9,879.3,267.5,879.2,267.2,879z"/>
			<path class="st0" d="M180,875.8L180,875.8c-0.3-0.2-0.6-0.4-0.8-0.7c1.3,0.6,2,0.9,2.3,1.1C181.3,876.2,180.7,876,180,875.8z"/>
			<path class="st0" d="M359.6,1172.8c-18.2-24.1-38.7-51.5-53.5-76.6c-8.5-14.5-17.3-28.2-26.1-42c-8.5-13.2-17-26.5-25.1-40.3
				c-14.4-24.3-25.6-50.7-39.8-75.9c-3.8-6.7-7.7-13.2-12.1-19.7c-2.9-4.1-8.8-10.3-14.6-16.9c-1.2-1.3-2.3-2.7-3.5-4.1
				c-6.8-7.9-12.3-16.2-10.6-22.6c2.1,0.1,4.1,0.6,5.5,1l0,0c4.4,4,9.5,7.5,15,11c4.4,2.8,9,5.6,13.5,8.4c5.3,3.2,10.8,6.2,16,9.3
				c5.1,3.2,10.1,6.5,14.7,9.8c5,3.5,9.7,7.4,14.3,11.4c4.6,4,9.3,8.1,13.7,12.3c3.7,3.7,7.4,7.4,11.1,11.1
				c5,5.1,9.8,10.4,14.4,15.8c16,18.3,31,38.7,44.2,60c-5.3-11.4-10.1-23.2-14.8-35c-4.4-11-8.5-22-13-32.5c-4-9.4-8.3-18.4-13.3-27
				c-3.6-6.1-12.4-15-20.4-23.4c-7.9-8.7-15.1-17-14.1-26.5c2.6-0.7,5.2-0.9,7-1c11.3,6.5,24.1,12.2,37.3,18.5
				c13.5,6.6,27.1,13.7,38,21.8c10.4,7.7,20.1,16.2,29.2,24.9c-8.8-13.6-17.9-26.9-27.7-39.1c-5.6-7-18-17.3-29.2-27.1
				c-11.2-10-21.5-19.5-21.8-29.4c3-0.6,6-0.7,8.2-0.7c14.3,7.5,30.3,14.1,46.4,21.4c16.6,7.4,33.1,15.3,47.1,23.9
				c29.3,18.5,57.2,40.8,83.3,65c15.2,13.8,30.1,28.8,44.5,44.6c0.7,0.7,1.4,1.4,2,2.2c-0.3-0.6-0.7-1.3-1-2
				c-7.1-13.6-13.8-27.6-20.3-41.6c-5.6-12.5-11.3-25-17-37.5c-5.7-12.4-11.3-24.2-18.1-35.2c-4.6-7.4-15.3-18.1-25.8-26.6
				c-5.3-4.3-10.6-8.1-15-12c-4.5-3.8-8.2-7.5-9.8-12.3c2.6-1.5,5.5-2.4,7.7-2.9c16.3,3.7,33.5,9.8,49.8,18.5
				c16.6,8.8,32.2,19.5,44.7,30.1c22.3,19.3,43,40.6,62.9,62.8c-5.4-8.9-10.6-17.7-15.8-26.7c-14-24.4-26.8-48.6-42.9-70.1
				c-5.4-7.2-17.5-17.9-28.6-27.8c-11-10.1-21.3-19.6-21.6-29.6c3-0.6,6.1-0.6,8.2-0.6c14.4,7.5,30.3,14.5,46.5,22.2
				c16.5,7.9,33,16.6,46.7,26.1c10.5,7.3,20.4,15.1,30,23.1c-5.7-8.1-11.6-16-18-23.6c-5.9-7.2-18.8-17.5-30.3-27.9
				s-21.8-20.9-21.4-30.9c3.1-0.4,6.2-0.2,8.3-0.1c14.1,8.3,30,15.4,46.3,22.7c16.8,7.4,33.7,15.3,48.1,24.2
				c30.7,19,58.7,43.5,84.7,68.1c11.4,10.9,22.5,22,33.6,33.3c-3.6-6.4-7.2-12.9-10.5-19.4c-3-5.7-5.8-11.4-8.6-17.2
				c-1.3-2.5-2.4-5.1-3.7-7.6c-12.4-26.2-23.9-52.1-39-75.7c-5-7.9-16.7-20-27.4-31.4c-10.5-11.6-20.5-22.4-19.7-32.5
				c3.1-0.2,6.3,0.1,8.4,0.4c14,9.4,29.7,18,45.5,27.5c16.2,9.7,32.4,20,45.7,31.1c28.4,23.7,52.6,51.4,76.4,76.9
				c0.4,0.5,0.9,0.9,1.3,1.5c10.5,11.5,21.2,23.2,32,35.1c19.4,21.5,39.3,43.7,58.8,66.2c30.9,35.6,61.3,72.2,88,108.8
				c26.5,36.3,67.8,88,78.9,129.3c-26.5-4.5-62.6-32.4-85.5-48.4c-21.9-15.2-45.3-32.2-67.6-50.2c8.4,10.3,17.2,21.1,25.6,32.1
				c16.1,21.1,30.8,42.6,38.2,62.5c-26.6-1.4-64.8-26.1-88.4-40.5c-24-14.5-49.7-31.2-73.6-49.2c22.3,36.9,52.4,86.3,57.8,124.7
				c-25.3-6.6-57.2-36.7-77.7-53.9c-34.5-28.8-73.3-62.5-102.7-95.9c-11.4-13-22.8-25.6-34.1-38.2c25,37.1,47.7,75.7,66.2,113.8
				c18.7,38.6,47.3,94.2,49.1,135.1c-24.4-8.4-53.1-40.5-71.7-58.9c-27.4-27.1-57.6-58-82-88.8c2.3,4.6,4.6,9.2,6.7,13.8
				c9.4,19.9,20.7,44.6,29.6,69.4c4.3,12.4,8,24.9,10.6,36.9c2.5,12,3.8,23.4,3.5,33.7c-23.7-10.6-50.1-44.6-68-63.8
				c-29.9-32.4-64.6-68.4-91.1-102.6c-8.6-11.1-17.4-21.8-26.1-32.5c-2.6-3.1-5.1-6.3-7.7-9.4c1.1,2.4,2.3,4.6,3.3,7
				c7.3,15.4,13.8,30.9,19.3,46.5c11.8,33.2,29.4,81.3,23.6,116.6c-21.3-7.3-42.3-34.5-56.7-50c-24.1-26.1-51.3-55.8-70.4-84.9
				c-17.4-26.5-35.6-51.1-52.3-77.6c9.2,19.1,17.1,38.4,23.2,57.2c9,27.5,22.1,67.4,18.1,93.9
				C386.6,1211.7,370.5,1187.1,359.6,1172.8z"/>
			<path class="st0" d="M1330,606.8l-0.5-0.3c1.5,0,2.1-0.1,2.2-0.1C1331.6,606.5,1330.9,606.6,1330,606.8z"/>
			<path class="st0" d="M1446.8,546c0.1-0.1,0.3-0.2,0.4-0.3C1447.9,544.4,1448.3,544,1446.8,546z"/>
			<path class="st0" d="M1446.2,548.8c0.2-1,0.6-2,0.9-2.7c0.1-0.1,0.1-0.2,0.2-0.3c10.6-9.1,29.2-13.1,43.2-12.5
				c1.9,0.1,3.7,0.3,5.6,0.5c1.7,0.2,3.4,0.4,5.1,0.6c3.4,0.4,6.8,1,10.3,1.6c6.8,1.3,13.6,2.9,20.3,4.8c16.8,4.7,34,11.4,50.2,20.1
				c16.1,8.8,31.3,19.3,43.9,31.7c6.3,6.2,14,13.7,20.5,22.2c6.6,8.4,11.9,18,15.2,25.4c-2.8,0.6-6,0.9-9.3,0.8
				c-3.2-0.2-6.6-0.8-10-1.4c-0.9,0-1.9,0-2.8-0.1l-2.5-0.6c-1.6-0.4-3.2-0.8-4.8-1.3c-3.1-0.8-6-1.6-8.5-2.3
				c-8.4-2.3-17.3-4.7-25.9-7.7s-16.9-6.5-24.3-10.5c-16.7-9-33.3-16.3-49.6-26.5c-9-5.6-17.3-12.5-25.7-19.5
				c-4.2-3.5-8.5-7-12.7-10.4c-4-3.2-8-6.4-12.4-8.6c-2.9-1.5-8.5-2.5-13.4-2.7c-2.5-0.1-4.8,0.1-7.3,0c-0.8,0-1.6,0-2.3,0.1
				C1448.7,549.2,1447.4,549.2,1446.2,548.8z"/>
		</g>
		<g>
			<path class="st0" d="M1215.4,645.5c4-0.8,3.3-0.8,1,0.2C1216.1,645.6,1215.8,645.6,1215.4,645.5z"/>
			<path class="st0" d="M1124.2,668c1.9,0.1,2.8,0.1,3.1,0.2c-0.2,0.1-1,0.1-2.1,0.3C1124.8,668.3,1124.5,668.1,1124.2,668z"/>
			<path class="st0" d="M1319.9,880c-16.6-14.1-33-27.4-48.9-41.3c-11.7-10.1-23-20.5-34-31.7c-11.1-11.3-21.1-23.9-30.9-36.7
				c-15.1-19.9-29.7-40.4-47.3-58.1c-4.9-4.7-15.3-11-24.3-18c-9.2-6.8-16.9-14.8-16-24.2c2.4-0.9,4.9-1.4,6.6-1.6
				c10.6,5.4,23.5,7.8,36.4,10.7c6.7,1.4,13.6,2.6,20.2,4c6.6,1.5,13,3.1,19,5.1c12.9,4.1,24.9,9.8,37.2,15.8
				c11.9,6.3,23.8,13,34.9,20.3c14.3,9.2,28.3,19.4,41.8,30.2c0.6,0.4,1.1,0.9,1.7,1.3c-0.4-0.5-0.8-0.9-1.3-1.4
				c-9.6-10.6-18.3-22-27.1-33.4c-11.1-14.2-22.7-28.4-36.5-40c-2.3-1.9-5.9-3.8-10-6c-4.1-2.1-8.8-4.2-13.1-6.7
				c-8.8-4.8-16.7-10.4-17.6-19.7c2-1.5,4.2-2.5,5.6-3.1c10.5,2.4,22.3,2.7,34.8,2.9c12.7,0.4,26.1,0.6,37.5,3.2
				c24.6,5.1,48,16.1,69.2,28.5c6.6,3.9,13,8,19.3,12.3c-11.4-15.9-21-34.4-32.4-49.9c-5.4-7.3-26.4-17.1-20.1-33.9
				c2-0.9,3.9-1.5,5.2-1.9c12.9,7.9,34.9,5.2,50.6,7.8c17,2.9,32.7,8.6,47.7,15.4c37.6,17.1,74.1,44.5,99.9,79.4
				c6.5,8.9,14.8,19.4,21.7,31.4c0.2,0.3,0.4,0.6,0.5,0.9c6.4,11.3,11.5,23.8,12.6,37.2c-16.3,7.3-36-0.2-48.8-3.4
				c-21.4-5.3-45.5-12.5-63.3-24.1c-1.9-1.2-3.8-2.5-5.7-3.6c-1.2-0.8-2.4-1.5-3.6-2.3c0.8,0.8,1.6,1.5,2.4,2.4
				c18,17.8,34.6,36.8,48.8,56.8c17.2,24.2,43.2,58.5,46.7,90.9c-20.4,2.2-45.4-13.1-61.5-21.1c-27.1-13.5-57.7-29.6-80.5-48.4
				c-1.3-1.1-2.6-2.1-3.9-3.2c-9.4-7.7-18.9-15.1-28.2-22.6c3.6,3.6,7.1,7.2,10.6,10.8c16.2,16.9,31.4,34.4,45,52
				c9.8,12.7,22.5,27.8,34.1,43.5c11.5,16,22.4,32.2,27.8,49.1c-10.6,1.9-23.9-0.6-36.6-5c-12.6-4.6-25.1-10.5-34.3-15
				C1380.2,921.2,1345.4,901.8,1319.9,880z"/>
			<path class="st0" d="M1037.7,693.9c2,0.2,3,0.2,3.3,0.2c-0.2,0.1-1,0.1-2.1,0.2C1038.4,694.2,1038,694.1,1037.7,693.9z"/>
			<path class="st0" d="M974.7,726.7c2,0.1,2.9,0.2,3.1,0.2c-0.2,0.1-1,0.1-2.1,0.2C975.4,727.1,975,726.9,974.7,726.7z"/>
			<path class="st0" d="M1110.2,997.9c-30.4-26-60.7-49.9-89.7-77c-5.4-5-10.6-10.1-15.9-15.3c-7.4-7.3-14.3-14.9-21-22.6
				c-27.4-31.8-50.4-66.7-80.2-94.8c-6.2-5.8-19.3-13.6-31.1-21.5c-11.7-8.1-22.5-16.2-23.4-26c2.8-0.9,5.7-1.4,7.7-1.6
				c14.1,5.6,29.9,9.5,46,13.8c16.6,4.4,33.4,9.1,47.9,15.4c29.9,12.9,57.9,31,83.9,49.4c-8.6-15.2-17.1-30.1-27.3-43.4
				c-4.2-5.5-13.9-12.9-22.5-20.5c-8.5-7.7-16.2-15.4-15.6-24.9c2.5-0.9,5-1.3,6.8-1.5c11.2,5.5,24.1,9.5,37.4,13.9
				c13.7,4.5,27.6,9.4,39.2,15.4c21.9,11.4,41.4,26.1,59.5,39.8c-11.6-19.3-23.3-38.4-38-55.3c-2.4-2.7-6.3-5.8-10.6-9.3
				c-4.5-3.4-9.4-7-14.1-10.8c-9.4-7.6-17.8-15.4-17.3-25.1c2.6-0.9,5.2-1.3,7-1.5c11.7,5.4,25,9.3,39,13.1
				c14.1,4.2,29,8.3,41.2,14.3c26.4,12.5,50.3,30.3,72.1,48.7c1.8,1.6,3.6,3.1,5.5,4.7c11.8,10.2,23.1,20.9,34.2,31.7
				c8.8,8.6,17.3,17.2,25.8,26c3.9,4,7.7,8,11.6,12.1c24.5,25.9,48.4,52.5,69.9,79.5c10.7,13.4,24.5,29.4,37.2,46.1
				c12.7,16.8,24.3,34.3,29.8,51.5c-17.4,2.4-40.2-7.1-58.8-15.9c1.4,2.1,2.6,4.3,3.8,6.4c-21.1,7.4-54.4-3.2-74.9-9.3
				c-19.6-5.5-40.6-12.8-60.5-21.7c3.6,4.3,7.2,8.6,10.6,12.9c25.8,32.2,64.6,78.1,74.7,116.8c-25-2-59-25.6-80.6-38.6
				C1183.1,1050.7,1142.1,1025,1110.2,997.9z"/>
			<path class="st0" d="M855.3,738.5c2.3,0.1,3.5,0.1,3.7,0.2c-0.2,0.1-1.1,0.1-2.5,0.3C856.1,738.8,855.7,738.7,855.3,738.5z"/>
			<path class="st0" d="M763.4,748.8c2.1,0.4,3.3,0.6,3.8,0.7c-0.4,0-1.3-0.1-2.5-0.1C764.3,749.2,763.8,749,763.4,748.8z"/>
			<path class="st0" d="M1105.3,1163.3c-37-27.6-78.6-61.1-109.5-96.4c-17.4-19.8-34.6-39.5-50.6-59.7
				c-16.1-20.2-31.1-40.5-45.3-61.8c-12.1-18-22.6-36.5-33.2-55.1c-1.6-2.9-3.2-5.8-4.9-8.7c-1.4-2.5-2.9-5-4.3-7.5
				c-13.8-23.8-28.4-47.3-46.5-68c-6-6.9-19.1-16.9-31.2-26.5c-11.9-9.9-23.1-19.3-23.3-29.5c3-0.6,6.1-0.6,8.2-0.6
				c7.1,3.7,14.8,6.8,22.4,10.2c4.2,1.6,8.4,3.3,12.7,5c4.2,1.7,8.5,3.5,12.8,5.1c4.4,1.7,8.7,3.5,12.9,5.4
				c4.3,1.9,8.6,3.8,12.8,5.6c8.2,4,16.3,8.1,23.7,12.6c31.2,19.4,59.5,45.1,84.7,71.7c6.8,7.2,13.5,14.5,20.1,22.1
				c5,5.7,9.9,11.4,14.8,17.2c18.7,22.3,36.5,45.5,53.8,68.1c27.9,36.5,55.7,73.7,80.4,110.7c24.3,36.8,63.1,89.1,72.4,130.4
				C1162,1208.4,1127.4,1179.8,1105.3,1163.3z"/>
			<path class="st0" d="M656.9,745.8c-0.4-0.3-0.8-0.5-1.2-0.8C661.4,746.7,660.4,746.2,656.9,745.8z"/>
			<path class="st0" d="M543.3,780c2.4,0.6,3.6,0.8,3.9,1c-0.4,0-1.3-0.1-2.6-0.2C544.2,780.5,543.7,780.3,543.3,780z"/>
			<path class="st0" d="M481.5,791.2c2.5,0.4,3.7,0.6,4,0.7c-0.3,0-1.3,0-2.7-0.1C482.3,791.6,481.9,791.4,481.5,791.2z"/>
			<path class="st0" d="M424.7,834.9c2.2-0.1,3.5-0.3,4-0.3c-0.4,0.1-1.3,0.2-2.6,0.6C425.7,835.2,425.2,835,424.7,834.9z"/>
			<path class="st0" d="M300.9,847.7c2.4,0.5,3.6,0.6,3.9,0.7c-0.3,0-1.3-0.1-2.6-0.1C301.8,848.2,301.3,847.9,300.9,847.7z"/>
			<path class="st0" d="M267.2,879c1.8,0.3,2.7,0.4,3.2,0.5c-0.4,0.1-1.2,0.1-2.2,0.1C267.9,879.3,267.5,879.2,267.2,879z"/>
			<path class="st0" d="M180,875.8L180,875.8c-0.3-0.2-0.6-0.4-0.8-0.7c1.3,0.6,2,0.9,2.3,1.1C181.3,876.2,180.7,876,180,875.8z"/>
			<path class="st0" d="M359.6,1172.8c-18.2-24.1-38.7-51.5-53.5-76.6c-8.5-14.5-17.3-28.2-26.1-42c-8.5-13.2-17-26.5-25.1-40.3
				c-14.4-24.3-25.6-50.7-39.8-75.9c-3.8-6.7-7.7-13.2-12.1-19.7c-2.9-4.1-8.8-10.3-14.6-16.9c-1.2-1.3-2.3-2.7-3.5-4.1
				c-6.8-7.9-12.3-16.2-10.6-22.6c2.1,0.1,4.1,0.6,5.5,1l0,0c4.4,4,9.5,7.5,15,11c4.4,2.8,9,5.6,13.5,8.4c5.3,3.2,10.8,6.2,16,9.3
				c5.1,3.2,10.1,6.5,14.7,9.8c5,3.5,9.7,7.4,14.3,11.4c4.6,4,9.3,8.1,13.7,12.3c3.7,3.7,7.4,7.4,11.1,11.1
				c5,5.1,9.8,10.4,14.4,15.8c16,18.3,31,38.7,44.2,60c-5.3-11.4-10.1-23.2-14.8-35c-4.4-11-8.5-22-13-32.5c-4-9.4-8.3-18.4-13.3-27
				c-3.6-6.1-12.4-15-20.4-23.4c-7.9-8.7-15.1-17-14.1-26.5c2.6-0.7,5.2-0.9,7-1c11.3,6.5,24.1,12.2,37.3,18.5
				c13.5,6.6,27.1,13.7,38,21.8c10.4,7.7,20.1,16.2,29.2,24.9c-8.8-13.6-17.9-26.9-27.7-39.1c-5.6-7-18-17.3-29.2-27.1
				c-11.2-10-21.5-19.5-21.8-29.4c3-0.6,6-0.7,8.2-0.7c14.3,7.5,30.3,14.1,46.4,21.4c16.6,7.4,33.1,15.3,47.1,23.9
				c29.3,18.5,57.2,40.8,83.3,65c15.2,13.8,30.1,28.8,44.5,44.6c0.7,0.7,1.4,1.4,2,2.2c-0.3-0.6-0.7-1.3-1-2
				c-7.1-13.6-13.8-27.6-20.3-41.6c-5.6-12.5-11.3-25-17-37.5c-5.7-12.4-11.3-24.2-18.1-35.2c-4.6-7.4-15.3-18.1-25.8-26.6
				c-5.3-4.3-10.6-8.1-15-12c-4.5-3.8-8.2-7.5-9.8-12.3c2.6-1.5,5.5-2.4,7.7-2.9c16.3,3.7,33.5,9.8,49.8,18.5
				c16.6,8.8,32.2,19.5,44.7,30.1c22.3,19.3,43,40.6,62.9,62.8c-5.4-8.9-10.6-17.7-15.8-26.7c-14-24.4-26.8-48.6-42.9-70.1
				c-5.4-7.2-17.5-17.9-28.6-27.8c-11-10.1-21.3-19.6-21.6-29.6c3-0.6,6.1-0.6,8.2-0.6c14.4,7.5,30.3,14.5,46.5,22.2
				c16.5,7.9,33,16.6,46.7,26.1c10.5,7.3,20.4,15.1,30,23.1c-5.7-8.1-11.6-16-18-23.6c-5.9-7.2-18.8-17.5-30.3-27.9
				s-21.8-20.9-21.4-30.9c3.1-0.4,6.2-0.2,8.3-0.1c14.1,8.3,30,15.4,46.3,22.7c16.8,7.4,33.7,15.3,48.1,24.2
				c30.7,19,58.7,43.5,84.7,68.1c11.4,10.9,22.5,22,33.6,33.3c-3.6-6.4-7.2-12.9-10.5-19.4c-3-5.7-5.8-11.4-8.6-17.2
				c-1.3-2.5-2.4-5.1-3.7-7.6c-12.4-26.2-23.9-52.1-39-75.7c-5-7.9-16.7-20-27.4-31.4c-10.5-11.6-20.5-22.4-19.7-32.5
				c3.1-0.2,6.3,0.1,8.4,0.4c14,9.4,29.7,18,45.5,27.5c16.2,9.7,32.4,20,45.7,31.1c28.4,23.7,52.6,51.4,76.4,76.9
				c0.4,0.5,0.9,0.9,1.3,1.5c10.5,11.5,21.2,23.2,32,35.1c19.4,21.5,39.3,43.7,58.8,66.2c30.9,35.6,61.3,72.2,88,108.8
				c26.5,36.3,67.8,88,78.9,129.3c-26.5-4.5-62.6-32.4-85.5-48.4c-21.9-15.2-45.3-32.2-67.6-50.2c8.4,10.3,17.2,21.1,25.6,32.1
				c16.1,21.1,30.8,42.6,38.2,62.5c-26.6-1.4-64.8-26.1-88.4-40.5c-24-14.5-49.7-31.2-73.6-49.2c22.3,36.9,52.4,86.3,57.8,124.7
				c-25.3-6.6-57.2-36.7-77.7-53.9c-34.5-28.8-73.3-62.5-102.7-95.9c-11.4-13-22.8-25.6-34.1-38.2c25,37.1,47.7,75.7,66.2,113.8
				c18.7,38.6,47.3,94.2,49.1,135.1c-24.4-8.4-53.1-40.5-71.7-58.9c-27.4-27.1-57.6-58-82-88.8c2.3,4.6,4.6,9.2,6.7,13.8
				c9.4,19.9,20.7,44.6,29.6,69.4c4.3,12.4,8,24.9,10.6,36.9c2.5,12,3.8,23.4,3.5,33.7c-23.7-10.6-50.1-44.6-68-63.8
				c-29.9-32.4-64.6-68.4-91.1-102.6c-8.6-11.1-17.4-21.8-26.1-32.5c-2.6-3.1-5.1-6.3-7.7-9.4c1.1,2.4,2.3,4.6,3.3,7
				c7.3,15.4,13.8,30.9,19.3,46.5c11.8,33.2,29.4,81.3,23.6,116.6c-21.3-7.3-42.3-34.5-56.7-50c-24.1-26.1-51.3-55.8-70.4-84.9
				c-17.4-26.5-35.6-51.1-52.3-77.6c9.2,19.1,17.1,38.4,23.2,57.2c9,27.5,22.1,67.4,18.1,93.9
				C386.6,1211.7,370.5,1187.1,359.6,1172.8z"/>
			<path class="st0" d="M1330,606.8l-0.5-0.3c1.5,0,2.1-0.1,2.2-0.1C1331.6,606.5,1330.9,606.6,1330,606.8z"/>
			<path class="st0" d="M1446.8,546c0.1-0.1,0.3-0.2,0.4-0.3C1447.9,544.4,1448.3,544,1446.8,546z"/>
			<path class="st0" d="M1446.2,548.8c0.2-1,0.6-2,0.9-2.7c0.1-0.1,0.1-0.2,0.2-0.3c10.6-9.1,29.2-13.1,43.2-12.5
				c1.9,0.1,3.7,0.3,5.6,0.5c1.7,0.2,3.4,0.4,5.1,0.6c3.4,0.4,6.8,1,10.3,1.6c6.8,1.3,13.6,2.9,20.3,4.8c16.8,4.7,34,11.4,50.2,20.1
				c16.1,8.8,31.3,19.3,43.9,31.7c6.3,6.2,14,13.7,20.5,22.2c6.6,8.4,11.9,18,15.2,25.4c-2.8,0.6-6,0.9-9.3,0.8
				c-3.2-0.2-6.6-0.8-10-1.4c-0.9,0-1.9,0-2.8-0.1l-2.5-0.6c-1.6-0.4-3.2-0.8-4.8-1.3c-3.1-0.8-6-1.6-8.5-2.3
				c-8.4-2.3-17.3-4.7-25.9-7.7s-16.9-6.5-24.3-10.5c-16.7-9-33.3-16.3-49.6-26.5c-9-5.6-17.3-12.5-25.7-19.5
				c-4.2-3.5-8.5-7-12.7-10.4c-4-3.2-8-6.4-12.4-8.6c-2.9-1.5-8.5-2.5-13.4-2.7c-2.5-0.1-4.8,0.1-7.3,0c-0.8,0-1.6,0-2.3,0.1
				C1448.7,549.2,1447.4,549.2,1446.2,548.8z"/>
		</g>
	</g>
	<g>
		<path class="st1" d="M1237.1,807c-11.1-11.3-21.1-23.9-30.9-36.7c-15.1-19.9-29.7-40.4-47.3-58.1c-4.9-4.7-15.3-11-24.3-18
			c-9.2-6.8-16.9-14.8-16-24.2c2.4-0.9,4.9-1.4,6.6-1.6c10.6,5.4,23.5,7.8,36.4,10.7c6.7,1.4,13.6,2.6,20.2,4c6.6,1.5,13,3.1,19,5.1
			c12.9,4.1,24.9,9.8,37.2,15.8c11.9,6.3,23.8,13,34.9,20.3c14.3,9.2,28.3,19.4,41.8,30.2c0.6,0.4,1.1,0.9,1.7,1.3
			c-0.4-0.5-0.8-0.9-1.3-1.4c-9.6-10.6-18.3-22-27.1-33.4c-11.1-14.2-22.7-28.4-36.5-40c-2.3-1.9-5.9-3.8-10-6
			c-4.1-2.1-8.8-4.2-13.1-6.7c-8.8-4.8-16.7-10.4-17.6-19.7c2-1.5,4.2-2.5,5.6-3.1c10.5,2.4,22.3,2.7,34.8,2.9
			c12.7,0.4,26.1,0.6,37.5,3.2c24.6,5.1,48,16.1,69.2,28.5c6.6,3.9,13,8,19.3,12.3c-11.4-15.9-21-34.4-32.4-49.9
			c-5.4-7.3-26.4-17.1-20.1-33.9c2-0.9,3.9-1.5,5.2-1.9c12.9,7.9,34.9,5.2,50.6,7.8c17,2.9,32.7,8.6,47.7,15.4
			c37.6,17.1,74.1,44.5,99.9,79.4c6.5,8.9,14.8,19.4,21.7,31.4c-17.4,8.7-53.2,3.9-72.5,5c-10.7,0.6-21.4,1.3-32.2,1.9
			c-0.4,0-0.8,0-1.2,0.1c-14.9,0.9-29.9,1.8-44.8,2.7c6.4,31.9,18.8,62.5,36.3,89.8c-14.7-3.9-28.8-9.8-42-17.6
			c-6.1-3.5-12-7.5-17.6-11.8c-5.2-3.8-10.1-8-14.7-12.5c-12.9-12.3-24.4-27-40.9-33.9c-16.5-6.8-40-1-44,16.4
			c-5,21.2,21.4,42.7,11.7,62.2c-5.8-1-11.4-2.6-16.9-4.6C1259.4,828.7,1248,818.2,1237.1,807z"/>
		<path class="st1" d="M983.6,883c-27.4-31.8-50.4-66.7-80.2-94.8c-6.2-5.8-19.3-13.6-31.1-21.5c-11.7-8.1-22.5-16.2-23.4-26
			c2.8-0.9,5.7-1.4,7.7-1.6c14.1,5.6,29.9,9.5,46,13.8c16.6,4.4,33.4,9.1,47.9,15.4c29.9,12.9,57.9,31,83.9,49.4
			c-8.6-15.2-17.1-30.1-27.3-43.4c-4.2-5.5-13.9-12.9-22.5-20.5c-8.5-7.7-16.2-15.4-15.6-24.9c2.5-0.9,5-1.3,6.8-1.5
			c11.2,5.5,24.1,9.5,37.4,13.9c13.7,4.5,27.6,9.4,39.2,15.4c21.9,11.4,41.4,26.1,59.5,39.8c-11.6-19.3-23.3-38.4-38-55.3
			c-2.4-2.7-6.3-5.8-10.6-9.3c-4.5-3.4-9.4-7-14.1-10.8c-9.4-7.6-17.8-15.4-17.3-25.1c2.6-0.9,5.2-1.3,7-1.5
			c11.7,5.4,25,9.3,39,13.1c14.1,4.2,29,8.3,41.2,14.3c26.4,12.5,50.3,30.3,72.1,48.7c1.8,1.6,3.6,3.1,5.5,4.7
			c11.8,10.2,23.1,20.9,34.2,31.7c8.8,8.6,17.3,17.2,25.8,26c-12.6-5.8-24.9-12.4-38-17c-23.5-8.2-54.3-7-67.8,13.9
			c-9.6,14.9-7,34.1-8,51.8c-0.9,17.7-9.4,38.6-27,40.7c-18.2,2.2-35.4-17.6-52.7-11.5c-6.5,2.3-11.2,8-17.5,10.8
			c-8,3.6-16.7,2.2-25.1-0.7c-5.4-5-10.6-10.1-15.9-15.3C997.3,898.4,990.3,890.7,983.6,883z"/>
		<path class="st1" d="M857.4,874c-13.8-23.8-28.4-47.3-46.5-68c-6-6.9-19.1-16.9-31.2-26.5c-11.9-9.9-23.1-19.3-23.3-29.5
			c3-0.6,6.1-0.6,8.2-0.6c7.1,3.7,14.8,6.8,22.4,10.2c4.2,1.6,8.4,3.3,12.7,5c4.2,1.7,8.5,3.5,12.8,5.1c4.4,1.7,8.7,3.5,12.9,5.4
			c4.3,1.9,8.6,3.8,12.8,5.6c8.2,4,16.3,8.1,23.7,12.6c31.2,19.4,59.5,45.1,84.7,71.7c6.8,7.2,13.5,14.5,20.1,22.1
			c5,5.7,9.9,11.4,14.8,17.2c-23.5-9-48-15.7-72.9-19.8c-14.2-2.4-31.5-2.2-42,5.8c-1.6-2.9-3.2-5.8-4.9-8.7
			C860.3,879.1,858.9,876.5,857.4,874z"/>
		<path class="st1" d="M304.2,1074.9c-8-6.9-16.1-13.8-24.1-20.7c-8.5-13.2-17-26.5-25.1-40.3c-14.4-24.3-25.6-50.7-39.8-75.9
			c-3.8-6.7-7.7-13.2-12.1-19.7c-2.9-4.1-8.8-10.3-14.6-16.9c-1.2-1.3-2.3-2.7-3.5-4.1c-6.8-7.9-12.3-16.2-10.6-22.6
			c2.1,0.1,4.1,0.6,5.5,1c-0.2-0.2-0.5-0.4-0.8-0.6c1.3,0.6,2,0.9,2.3,1.1c-0.3-0.1-0.8-0.2-1.5-0.4c4.4,4,9.5,7.5,15,11
			c4.4,2.8,9,5.6,13.5,8.4c5.3,3.2,10.8,6.2,16,9.3c5.1,3.2,10.1,6.5,14.7,9.8c5,3.5,9.7,7.4,14.3,11.4c4.6,4,9.3,8.1,13.7,12.3
			c3.7,3.7,7.4,7.4,11.1,11.1c5,5.1,9.8,10.4,14.4,15.8c16,18.3,31,38.7,44.2,60c-5.3-11.4-10.1-23.2-14.8-35
			c-4.4-11-8.5-22-13-32.5c-4-9.4-8.3-18.4-13.3-27c-3.6-6.1-12.4-15-20.4-23.4c-7.9-8.7-15.1-17-14.1-26.5c2.6-0.7,5.2-0.9,7-1
			c11.3,6.5,24.1,12.2,37.3,18.5c13.5,6.6,27.1,13.7,38,21.8c10.4,7.7,20.1,16.2,29.2,24.9c-8.8-13.6-17.9-26.9-27.7-39.1
			c-5.6-7-18-17.3-29.2-27.1c-11.2-10-21.5-19.5-21.8-29.4c3-0.6,6-0.7,8.2-0.7c14.3,7.5,30.3,14.1,46.4,21.4
			c16.6,7.4,33.1,15.3,47.1,23.9c29.3,18.5,57.2,40.8,83.3,65c15.2,13.8,30.1,28.8,44.5,44.6c0.7,0.7,1.4,1.4,2,2.2
			c-0.3-0.6-0.7-1.3-1-2c-7.1-13.6-13.8-27.6-20.3-41.6c-5.6-12.5-11.3-25-17-37.5c-5.7-12.4-11.3-24.2-18.1-35.2
			c-4.6-7.4-15.3-18.1-25.8-26.6c-5.3-4.3-10.6-8.1-15-12c-4.5-3.8-8.2-7.5-9.8-12.3c2.6-1.5,5.5-2.4,7.7-2.9
			c16.3,3.7,33.5,9.8,49.8,18.5c16.6,8.8,32.2,19.5,44.7,30.1c22.3,19.3,43,40.6,62.9,62.8c-5.4-8.9-10.6-17.7-15.8-26.7
			c-14-24.4-26.8-48.6-42.9-70.1c-5.4-7.2-17.5-17.9-28.6-27.8c-11-10.1-21.3-19.6-21.6-29.6c3-0.6,6.1-0.6,8.2-0.6
			c14.4,7.5,30.3,14.5,46.5,22.2c16.5,7.9,33,16.6,46.7,26.1c10.5,7.3,20.4,15.1,30,23.1c-5.7-8.1-11.6-16-18-23.6
			c-5.9-7.2-18.8-17.5-30.3-27.9S536,791,536.4,781c3.1-0.4,6.2-0.2,8.3-0.1c14.1,8.3,30,15.4,46.3,22.7
			c16.8,7.4,33.7,15.3,48.1,24.2c30.7,19,58.7,43.5,84.7,68.1c11.4,10.9,22.5,22,33.6,33.3c-3.6-6.4-7.2-12.9-10.5-19.4
			c-3-5.7-5.8-11.4-8.6-17.2c-1.3-2.5-2.4-5.1-3.7-7.6c-12.4-26.2-23.9-52.1-39-75.7c-5-7.9-16.7-20-27.4-31.4
			c-10.5-11.6-20.5-22.4-19.7-32.5c3.1-0.2,6.3,0.1,8.4,0.4c14,9.4,29.7,18,45.5,27.5c16.2,9.7,32.4,20,45.7,31.1
			c28.4,23.7,52.6,51.4,76.4,76.9c0.4,0.5,0.9,0.9,1.3,1.5c10.5,11.5,21.2,23.2,32,35.1c0.4,2.8,0.9,5.6,1.5,8.3l13.8,65
			c3.2,15.2,6.3,32-1.1,45.7c-11.3,21.2-41.7,23.9-64,14.9c-22.3-8.9-40.4-26-62.1-36.2c-21.7-10.3-51.3-11.5-66.3,7.3
			c-14.8,18.6-10.8,51.4-32.3,61.7c-16.1,7.8-34.4-3.5-50.5-11.4c-16.1-8-40.8-9.5-46.9,7.4c-6.1,16.9,12.2,41-2.6,51.2
			c-6,4.2-14.1,2.5-20.9,0.2c-8.4-2.8-16.5-6.4-24.3-10.5c-1.5-0.7-3-1.5-4.4-2.3c-37.5-20.4-70.9-50.5-112.8-57.6
			c-8.2-1.4-17.8-1.4-23.5,4.7c-4.6,4.8-5.4,12.3-9.5,17.6C340.8,1098.1,318.1,1086.8,304.2,1074.9z"/>
	</g>
	<g class="st2">
		<path class="st0" d="M1251.5,681.2c-2.3-1.9-5.9-3.8-10-6c-4.1-2.1-8.8-4.2-13.1-6.7c-8.8-4.8-16.7-10.4-17.6-19.7
			c2-1.5,4.2-2.5,5.6-3.1c10.5,2.4,22.3,2.7,34.8,2.9c12.7,0.4,26.1,0.6,37.5,3.2c24.6,5.1,48,16.1,69.2,28.5
			c6.6,3.9,13,8,19.3,12.3c-11.4-15.9-21-34.4-32.4-49.9c-5.4-7.3-26.4-17.1-20.1-33.9c2-0.9,3.9-1.5,5.2-1.9
			c12.9,7.9,34.9,5.2,50.6,7.8c17,2.9,32.7,8.6,47.7,15.4c37.6,17.1,74.1,44.5,99.9,79.4c6.7,9.1,15.2,20,22.2,32.3
			c-10.3-4.3-29.6-2.9-40.2-3.7c-17.6-1.3-35.9,1.8-53.3,0.7c-34.5-2.2-67-18.3-101.2-19.6c-21.6-0.9-31.7,12.2-33.7,33.9
			c-2.3,0.5-4.6,1-6.9,1.4c-9.6-10.6-18.3-22-27.1-33.4C1276.9,706.9,1265.3,692.8,1251.5,681.2z"/>
		<path class="st0" d="M1207.9,769.6c-0.6,0.2-1.2,0.5-1.7,0.7c-15.1-19.9-29.7-40.4-47.3-58.1c-4.9-4.7-15.3-11-24.3-18
			c-9.2-6.8-16.9-14.8-16-24.2c2.4-0.9,4.9-1.4,6.6-1.6c10.6,5.4,23.5,7.8,36.4,10.7c6.7,1.4,13.6,2.6,20.2,4c6.6,1.5,13,3.1,19,5.1
			c12.9,4.1,24.9,9.8,37.2,15.8c11.9,6.3,23.8,13,34.9,20.3c14.3,9.2,28.3,19.4,41.8,30.2C1279,761.1,1243.1,755.3,1207.9,769.6z"/>
		<path class="st0" d="M983.6,883c-27.4-31.8-50.4-66.7-80.2-94.8c-6.2-5.8-19.3-13.6-31.1-21.5c-11.7-8.1-22.5-16.2-23.4-26
			c2.8-0.9,5.7-1.4,7.7-1.6c14.1,5.6,29.9,9.5,46,13.8c16.6,4.4,33.4,9.1,47.9,15.4c29.9,12.9,57.9,31,83.9,49.4
			c-8.6-15.2-17.1-30.1-27.3-43.4c-4.2-5.5-13.9-13-22.5-20.5c-8.5-7.7-16.2-15.4-15.6-24.9c2.5-0.9,5-1.3,6.8-1.5
			c11.2,5.5,24.1,9.5,37.4,13.9c13.7,4.5,27.6,9.4,39.2,15.4c21.9,11.4,41.4,26.1,59.5,39.8c-11.6-19.3-23.3-38.4-38-55.3
			c-2.4-2.7-6.3-5.8-10.6-9.3c-4.5-3.4-9.4-7-14.1-10.8c-9.4-7.6-17.8-15.4-17.3-25.1c2.6-0.9,5.2-1.3,7-1.5
			c11.7,5.4,25,9.3,39,13.1c14.1,4.2,29,8.3,41.2,14.3c26.4,12.5,50.3,30.3,72.1,48.7c1.8,1.6,3.6,3.1,5.5,4.7
			c-13.6,7.5-26.4,17.7-39.7,25.4c-16.3,9.5-30.3,16.9-48.7,20.9c-15.2,3.3-38.3-2.2-51.9,3.5c-5.4,2.3-6.7,3.9-11.4,8.3
			c-5.1,4.9-7.7,16-13.3,21.7c-8.2,8.3-19.8,15-30,20.6C996,878.5,990,881,983.6,883z"/>
		<path class="st0" d="M857.4,874c-13.8-23.8-28.4-47.3-46.5-68c-6-6.9-19.1-16.9-31.2-26.5c-11.9-9.9-23.1-19.3-23.3-29.5
			c3-0.6,6.1-0.6,8.2-0.6c7.1,3.7,14.8,6.8,22.4,10.2c4.2,1.6,8.4,3.3,12.7,5c4.2,1.7,8.5,3.5,12.8,5.1c4.4,1.7,8.7,3.5,12.9,5.4
			c4.3,1.9,8.6,3.8,12.8,5.6c8.2,4,16.3,8.1,23.7,12.6c31.2,19.4,59.5,45.1,84.7,71.7c6.8,7.2,13.5,14.5,20.1,22.1
			c-29.9,5.6-64.2,3.5-90.3-1.4c-4.7-0.9-9.7-2.6-14.7-4.2C860.3,879.1,858.9,876.5,857.4,874z"/>
		<path class="st0" d="M738.3,892.5c-1.3-2.5-2.4-5.1-3.7-7.6c-12.4-26.2-23.9-52.1-39-75.7c-5-7.9-16.7-20-27.4-31.4
			c-10.5-11.6-20.5-22.3-19.7-32.5c3.1-0.2,6.3,0.1,8.4,0.4c14,9.4,29.7,18,45.5,27.5c16.2,9.7,32.4,20,45.7,31.1
			c28.4,23.7,52.6,51.4,76.4,76.9c0.4,0.5,0.9,0.9,1.3,1.5c-7,3.6-13.7,8.2-21.2,10.3C783.7,899.1,760.3,893.5,738.3,892.5z"/>
		<path class="st0" d="M524.4,1003.4c-7.1-13.6-13.8-27.6-20.3-41.6c-5.6-12.5-11.3-25-17-37.5c-5.7-12.4-11.3-24.2-18.1-35.2
			c-4.5-7.4-15.3-18.1-25.8-26.6c-5.3-4.3-10.6-8.1-15-12c-4.5-3.8-8.2-7.5-9.8-12.3c2.6-1.5,5.5-2.4,7.7-2.9
			c16.3,3.7,33.5,9.8,49.8,18.5c16.6,8.8,32.2,19.5,44.7,30.1c22.3,19.3,43,40.6,62.9,62.8c-5.4-8.8-10.6-17.7-15.8-26.7
			c-14-24.4-26.8-48.6-42.9-70.1c-5.4-7.2-17.5-17.9-28.6-27.8c-11-10.1-21.3-19.6-21.6-29.6c3-0.6,6.1-0.6,8.2-0.6
			c14.4,7.5,30.3,14.5,46.5,22.2c16.5,7.9,33,16.6,46.7,26.1c10.5,7.3,20.4,15.1,30,23.1c-5.7-8.1-11.6-16-18-23.6
			c-5.9-7.2-18.8-17.5-30.3-27.9s-21.8-20.9-21.4-30.9c3.1-0.4,6.2-0.2,8.3-0.1c14.1,8.3,30,15.4,46.3,22.7
			c16.8,7.4,33.7,15.3,48.1,24.2c30.7,19,58.7,43.5,84.7,68.1c11.4,10.9,22.5,22,33.6,33.3c-3.6-6.4-7.2-12.9-10.5-19.4
			c14.5,12.5,29,28.3,22.9,37.9c-4.3,6.6-42.5-4.3-53.1-2.9c-21.1,2.7-39.3,15.1-59.4,19.1c-13.5,2.7-28.9-2.1-42.5-0.8
			c18.7,10,38.9,17.3,54.1,32.8c-6-0.1-9.8,3.1-15.5,5.7c-16.4,7.6-29.7,6.8-47.4,8.2C579.2,1011.8,551.8,1008.5,524.4,1003.4z"/>
		<path class="st0" d="M433.8,985.2c-42.5-6.9-83.5-16.4-124.8-27.7c-4-9.4-8.3-18.4-13.3-27c-3.6-6.1-12.4-15-20.4-23.4
			c-7.9-8.7-15.1-17-14.1-26.5c2.6-0.7,5.2-0.9,7-1c11.3,6.5,24.1,12.2,37.3,18.5c13.5,6.6,27.1,13.7,38,21.8
			c10.4,7.7,20.1,16.2,29.2,24.9c-8.8-13.6-17.9-26.9-27.7-39.1c-5.6-7-18-17.3-29.2-27.1c-11.2-10-21.5-19.5-21.8-29.4
			c3-0.6,6-0.7,8.2-0.7c14.3,7.5,30.3,14.1,46.4,21.4c16.6,7.4,33.1,15.3,47.1,23.9c29.3,18.5,57.2,40.8,83.3,65
			c15.2,13.8,30.1,28.8,44.5,44.6C493.3,997.6,463.2,990,433.8,985.2z"/>
		<path class="st0" d="M215.2,938c-3.8-6.7-7.7-13.2-12.1-19.7c-2.9-4.1-8.8-10.3-14.6-16.9c2-4.8,4.1-9.7,6.5-14.7
			c4.4,2.8,9,5.6,13.5,8.4c5.3,3.2,10.8,6.2,16,9.3c5.1,3.2,10.1,6.5,14.7,9.8c5,3.5,9.7,7.4,14.3,11.4c4.6,4,9.3,8.1,13.7,12.3
			c3.7,3.7,7.4,7.4,11.1,11.1C257.1,944.1,236.3,941.3,215.2,938z"/>
	</g>
	<path class="st0" d="M-246.5,831.5c95.9,35.1,201.8,58.5,303.9,63.4c108.9,5.2,224.6-22.7,326.1-60.9c10.8-4,10.1-23.5-3.2-21.8
		c-106.2,13.1-206.5,51.9-314.8,50.1c-104.8-1.7-200.3-35.9-299.4-64.5C-252.2,792.5-265.1,824.7-246.5,831.5z"/>
	<path class="st0" d="M1658,237.6c-31.4,35.2-66.3,70.3-101.8,104.1c-35.6,33.6-72,65.9-107.5,93.6c-37.6,29.6-77.3,58.2-118.5,84.6
		c-41.2,26.2-83.9,50.5-127.2,72.2c-54.3,27.1-111.6,51.1-169.9,70.5c-58.3,19.6-117.5,35.8-176.2,51.3
		c-58.7,15.6-117.4,30.8-175,45.4c-57.7,14.6-114.5,28.4-169.5,39.4c-27.3,5.5-57.8,11.1-89.5,16c-31.5,4.8-64.3,9.7-96.4,14.6
		c-32.1,5-63.5,10.6-92.5,17c-29,6.3-55.5,13.5-77.6,20.2c26.9-13.5,68.7-28.8,111.9-40.2c43.3-11.5,87.9-20.1,121.4-27
		c28.1-5.7,57.1-11.6,86.6-18.4s59.5-14.3,89.5-22.1c60.2-16.1,120.5-32.3,176.8-47.3c63.6-16.8,126.1-32.9,188.1-49.7
		c62.1-17,123.9-35.2,186.4-59.6c68.6-26.1,135.8-58.7,201.4-96.1c32.6-19.1,65.1-39.1,96.6-61.1c31.8-21.6,62.6-45.1,92.9-69.6
		c20.1-16.6,56.3-47.7,88.4-79c32.2-31.2,61.6-61,71.4-70.8C1656.5,239.2,1641.9,256.6,1658,237.6z"/>
	<path class="st3" d="M1019.6,791.6c11.4,7.2,16.7,25.2,23.8,36.4c11.7,18.6,27.9,36.5,43.2,52.1c29,29.7,60.1,58.2,95.1,80.9
		c6.7,4.4,13.6,8.9,20.5,12.5c6.2,3.2,13,3.7,18.6,7.8c-5.6,11.3,24.1,35.5,28.6,45.2c-7.6-10.9-24.2-20.7-34.5-29.5
		c-27.5-23.4-60.3-39.9-88.9-61.9c-33.6-25.9-60.3-58.8-85.9-92.1c-10.3-13.4-11.8-20.9-29.4-21.2c-17.7-0.3-35.3,3.3-53,3.2
		c10.2-11.7,1.7-10.8,0-20.2c-0.8-4.4,3-9.5,5.5-13.2c4.5-6.8,3.7-5.9,11.8-6.2c21.6-0.7,39.5,17.6,57.6,27.7
		C1031.2,806.9,1023.5,798.3,1019.6,791.6z"/>
	<path class="st3" d="M758.6,809.1c-6.7-9.4-22.5-17.7-32.9-24.4c-11.2-7.2-22.7-14.9-34.5-20.4c-4.5-2.1-29.9-11.4-33.4-6.1
		c-5.6,8.6,20.8,33.1,25.6,37.4C703.1,813.3,733.3,816.5,758.6,809.1z"/>
	<path class="st3" d="M482.5,797.1c8.9-1.8,24.1,8.5,32.6,12c10.4,4.3,20.1,10.8,30.4,15.4c20.7,9.2,46.7,19.5,60.7,38.9
		c10.7,14.7,26.1,27.4,35.4,42.3c-15.7-6.7-32.6-12.4-48.7-19.1c-11.4-4.8-21.1-9.2-33.1-12.3c-7.5-2-15-4.2-21.8-8
		c-8.9-5-7.9-10.7-13.4-19.2c-5.9-9.2-16-14.9-23.7-22.7C496,819.4,469.2,800.7,482.5,797.1z"/>
	<path class="st3" d="M972.8,787.1c0.6-1.7-43.9-14.6-50.2-16.7c-15-5.1-29.6-11.4-44.3-16.5c-3.2-1.1-12.2-5.6-13.9-0.7
		c-0.8,2.2,12.5,14.6,14.8,16.9c11.5,11.7,25.6,21.7,40.9,27.5c8.3,3.1,16.9,5.8,25.6,7.3c13.6,2.4,21.3-3.1,34.4-6.7L972.8,787.1z"
		/>
	<path class="st3" d="M1510.3,558.7c2.4-9.3,28.4-6,36.5-5.1c10.1,1.1,18.2,3.5,27.4,7.2c8.2,3.3,15.3,4.6,22.8,9.6
		c7.2,4.8,12.2,11.3,19.6,16c-19.8,13.4-63.2,10.5-85.7,2.9c-15.7-5.3-22.2-13.7-32.8-25.9c7.7-4.5,17.2-8.6,25.6-12.5L1510.3,558.7
		z"/>
	<path class="st3" d="M920.6,837.3c0.3-0.1,9.3,14,13,17.8c-13.1-9-51.3-12.6-56.1,8.2c-4.9,21,15.8,47.6,26.8,63.6
		c19.3,28.3,40.9,55.7,59,84.8c11.1,17.9,24.1,35,34.5,53c-17.9-11.3-32.3-30.5-45-46.9c-11.9-15.3-25.4-29.6-37.3-45.1
		c-8.9-11.6-15.2-25.3-23.1-37.6c-7.7-12-9.4-26.6-18.8-37.4c-8.9-10.1-14.4-19.2-20.9-30.9c-4.5-8.1-13-18.3-15.7-27
		c-5.6-18.6,36.5-8.1,46-7.1C898.5,834.7,913.6,829.7,920.6,837.3z"/>
	<path class="st0" d="M1382.5,580.1c12.6,2.1,28.7-1.5,42.5-1.4c14.7-0.1,29.5,3.2,43.9,7.2c9,2.6,18.1,5.4,26.5,9.6
		c8.4,4,16.5,8.6,24.1,13.4c15.2,9.9,28.4,20.9,40.2,32.9c5.9,6,13.4,12.9,20.8,20.3c3.7,3.9,7.4,7.7,10.9,11.9
		c3.5,4.2,6.9,8.1,9.9,11.3c-2.6,2-5.8,3.7-9.5,5.5c-3.6,1.5-7.5,2.2-11.4,2.5c-7.8,0.8-15.6-0.3-21.4-1.1
		c-9.9-1.1-20.3-2.9-30.2-5.9c-9.7-3.1-19.1-6.9-26.8-11.6c-8.9-5.2-17.3-10.2-25.3-15.5c-8-5.4-15.9-10.2-23-16.9
		c-7.9-7-14.9-15.3-22.6-23s-15.9-15.4-25-21.3c-6.2-3.8-24.1-8.5-26-16.6C1382.8,580.1,1386.2,579.3,1382.5,580.1z"/>
	<path class="st0" d="M1690.8,515.6c-10.6,4.9-21.3,14.7-32.4,20.5c-11.6,6.1-24.7,10.1-37.7,12.7c-16.3,3.3-33.9,4.9-50.8,3.6
		c-17-1.1-33.3-3.8-48.6-8.4c-7.6-2.3-17-5-25.9-8.7c-9-3.6-17.5-9.2-23.6-13.5c2-1.6,4.5-3.9,7.3-4.9c1.4-0.6,2.8-1.2,4.3-1.7
		c1.5-0.9,3-1.3,4.5-1.7c6.1-1.8,12.4-2.5,17.2-3.4c16-3,34.3-5.6,50.1-4.6c17.8,1,34.4,0.7,51.6,2.8c18.8,2.1,38,7.9,57.6,7.2
		c6.6-0.3,22.1-6.4,27.6-2.1C1690.6,515.9,1688.4,517.9,1690.8,515.6z"/>
	<g>
		<path class="st4" d="M1796.9,3.6c0,0.3,0,0.6,0,1C1797.7,6.6,1797.9,7.2,1796.9,3.6z"/>
		<path class="st4" d="M1879.6,131c0.1,0.2,0.1,0,0.3,0.6l0.1,0.1l0.1,0.1c0.1,0,0.2,0.2,0.3,0.4c0.2,0.3,0.2,0.3,0-0.1
			c-0.1-0.3-0.2-0.3-0.3-0.4l-0.1-0.1l0,0l0,0l0,0l-0.1-0.3l-0.1-0.1c-0.2-0.3-0.4-0.6-0.7-1c-1.1-1.5-4-2.5-5.8-1.8
			c0.7-0.1,1.6,0,2.5,0.3c0.1,0,0.1,0,0.1,0C1877.6,128.8,1879,130,1879.6,131z"/>
		<path class="st4" d="M1842.2,477c-0.3,0.2-0.7,0.4-1,0.6C1839.8,479.7,1839.2,480.2,1842.2,477z"/>
		<path class="st4" d="M1810.2,628.4c-0.5,0-1,0.1-1.6,0.1C1805.4,630.4,1804.3,630.7,1810.2,628.4z"/>
		<path class="st4" d="M824.4,739.1c5.1,2.9,10.3,5.5,15.5,8c3.1,1.5,6.2,2.9,9.3,4.4c8.1,3.8,16.1,7.2,23.2,10.1
			c7.2,3,14.6,5.8,22.1,8.4s15.2,5.2,23,7.2c15.7,4.2,31.9,7.4,48.3,9.9c32.8,4.7,66.7,5.7,98.4,2c25.3-2.9,50.6-7.9,73.8-17.2
			c5.4-2.3,11-4.9,16.6-7.6s11.2-6,16.8-8.6c11-5,21.7-10.4,32.4-12.9c1.1-1,2.6-2.5,3.9-4.4c-4.7-5.7-14.9-6.3-25.5-5.4
			c-10.6,0.7-21.8,2.4-28.2,2c-9.5-0.9-18.9-2.4-28.3-4.1c-5.3-1.1-10.5-2.2-15.7-3.3c18.3,2.1,36.8,3.4,55.5,4
			c36.2,1,72.4,0,106.6-4.6c27.2-3.4,54.6-7.9,80.7-14.5c4.9-1.2,9.9-2.8,15.1-4.4c20.7,5.2,42.2,9.5,64.5,12.1
			c6.8,0.7,13.7,1.4,20.6,1.9c7,0.5,14,0.7,21,1c6.9,0.3,14.1,0.1,21.2,0l10.6-0.2c4.2-0.2,8.6-0.5,12.8-0.9
			c17.1-1.6,33.2-5.1,47.7-9.3c14.5-4.2,27.4-9.2,38.8-14.1c9.1-3.9,17.5-8,25.4-11.7c7.5-3.5,15-7.1,22.3-10.6
			c14.2-6.5,30.4-12.1,47.5-18.5c16-5.8,34.5-13.2,53.5-18.9c18.5-5.5,37.2-9.8,54.8-10.6c2.1-1.2,5-3.1,7.5-5.3
			c-5.4-9.7-21-14-38-17.3c-17-3-35.5-3.9-45.7-6.4c-30.5-7.5-62.4-17.9-99.3-20.3c-36.6-2.5-70.1,0.3-94.7,1.7
			c-11.3,0.6-21,0.9-29.9,0.3c-5.6-0.3-11.2-0.7-16.7-1c-3.2-0.1-6.4-0.3-9.7-0.5c7.5-0.9,14.6-2.4,21-4.2c7-2.1,13.2-4.5,18.7-6.8
			c4.4-1.9,8.4-3.9,12.2-5.6c1.3-0.7,2.6-1.3,4-1.9c14.2,3.2,28.7,5.6,43.5,7.1c37.8,3.4,77.2,0.3,113-8.2
			c28.6-6.8,56.5-18.3,80.9-33.3c11.5-7.1,22.8-16.6,33.8-25.8c10.6-9.1,21.1-17.3,31.9-23.3c0.9-1.4,2.2-3.5,3.1-5.7
			c-6.4-4.6-17.6-2.7-29,0.2c-5.7,1.5-11.5,3-16.8,4.6c-5.3,1.3-9.9,2.6-13.4,2.9c-20.1,1.9-40.6,0-60.5-3.1c21-5,41.7-11.9,61-20.6
			l0,0c7-3.1,13.8-6.5,20.3-10.1c5-2.5,10.1-5.3,15-8.2c7.6-4.5,14.9-9.3,22.1-14.1c1.2-0.8,2.5-1.6,3.7-2.5c3.4-2.5,6.6-5,10-7.5
			c5.2-4.1,10.3-8.3,15.2-12.6c2.6-2.3,5.1-4.7,7.5-7.1c1.1-1.1,2.1-2.2,3.2-3.3c2.5-2.6,5-5.3,7.5-8.1c1.5-1.7,2.9-3.3,4.4-5.1
			c1.1-1.2,2.2-2.5,3.2-3.7c2-2.5,4-5,6-7.6c1.3-1.7,2.5-3.3,3.8-5c1.5-2,3-3.9,4.5-5.8c1.8-2.2,3.5-4.4,5.3-6.6
			c1.3-1.7,2.7-3.3,4-5c6.1-7.5,12.3-14.4,19.2-19.9c-1.1,2.5-1.6,3.2,0.8-0.5l0.1-0.2c-0.3,0.2-0.5,0.4-0.7,0.6
			c0,0-0.1,0.1-0.2,0.1c0.4-0.9,0.9-2,1.3-3.2c0.3-1,0.6-2.1,0.9-3.2c-2.4-1-5.2-1.3-8.3-1c-1.8,0.2-3.6,0.5-5.6,1
			c-0.1,0-0.1,0-0.1,0.1c-5.2,1.4-10.8,4-16.5,6.9c-5.6,3-11.7,5.7-16.8,8.5c-2.6,1.4-5.1,2.7-7.3,3.8c-0.1,0.1-0.2,0.2-0.4,0.2
			c-2.1,1.1-4,1.9-5.7,2.5c-1.1,0.3-2.1,0.6-3.1,0.8c-10,2.7-20,5-30.2,6.7c-3.7,0.4-7.3,0.8-10.9,1.2c-5.6,0.7-11.2,1.3-16.7,1.7
			c-2.1,0.2-4.2,0.4-6.3,0.5l-14.2,0.7l-2.8,0.1c-5.3,0.3-10.5,0.6-15.7,0.7c-0.3,0-0.6,0-0.9,0c-5.6,0.1-11.1,0.3-16.5,0.7
			l-1.4,0.1l-6.7,0.6c-2.7,0.1-5.4,0.3-8.1,0.5c-5.3,0.5-10.6,1.2-15.8,1.9c-11,1.4-21.8,3.1-32.5,4.8c-0.6,0.1-1.2,0.2-1.8,0.3
			c13.3-6.8,25.9-14.8,37.7-23.5c9.2-6.8,18-14,26.2-21.5c2.7-2.5,5.4-5,8.1-7.5c14.2-13.7,26.9-28.1,38.1-42.5
			c15.2-20.3,29.1-41.1,40.3-63.5c5.2-10.5,9.8-22.7,15-34.5c2.6-5.8,5.4-11.5,8.6-16.8c1.5-2.7,3.1-5.2,4.8-7.8
			c1-1.6,2.1-3.4,2.7-6.3c0.2-0.7,0.3-1.6,0.2-2.4c0-0.6-0.5-2.3-0.6-2.4c-0.5-1.3-1.6-2.5-2.9-3c-0.3-0.2-0.5-0.2-0.8-0.2
			c-1.5-0.3-2.7,0.2-3.5,0.8c-0.9,0.6-1.7,1.4-2.2,2.6c-0.2,0.6-0.4,1.5-0.2,2.3c-0.5,0-1.1,0.2-1.9,0.3c-1.1,0.6-2.3,1.3-3.4,1.9
			c-2.2,1.3-4.6,2.8-6.8,4.5c-8.8,6.7-17.3,15-22.9,18.6c-8.4,5.3-17.1,10.3-26.1,15c-8.9,4.8-17.9,9.6-26.8,14.4
			c-6,3.2-11.8,6.3-17.7,9.6c9.6-15.7,18.1-32.4,24.5-49.5c4.5-12.2,8.3-24.9,10.7-37.6c2.4-12.7,3.4-25.3,3.3-37.5
			c-0.3-22.8-7.1-48-5.8-69.3c-0.5-1.3-1.4-3.2-2.4-4.8c-11.3,5.2-14.4,36.7-19.1,47.9c-7,16.8-16.8,32.3-27.4,46
			c-10.7,13.8-22.2,26.1-33,39.1c-10,12-19.6,23.7-29.3,35.4c-9.9,11.8-20.1,23.9-31.3,36.1c-1.6,1.7-3.1,3.4-4.5,5.2
			c-8.3,9.6-15.8,20.9-23,32.4c-8.5,13.6-16.2,27.8-23.3,41.2c-2.1,4-4.7,8.6-7.2,13.5c-2.5,5-5.4,10-7.3,15.8
			c-0.6,1.4-1,2.9-1.6,4.4c-1.4,4.2-2.5,8.5-3.2,12.8c-0.1,0.4-0.1,0.8-0.2,1.2c-0.5,0.3-1,0.8-1.6,1.1c-2.8,1.7-6,3.5-9.3,5.5
			c-14.2,8-32.4,17.7-43.6,31.5c6.1,3.5,13.8,7.9,22.7,11.1c3.3,1.2,6.7,2.2,10.2,3.1c-12.6,3.2-25,6.5-37,9.7
			c-10.6,2.7-24.7,6-38.5,10.6l-5.2,1.8c-1.7,0.7-3.4,1.7-5.1,2.7c-3.4,1.4-6.6,2.9-9.8,4.5c-3.1,1.7-6.1,3.1-9,6.1
			c-0.7,0.7-1.4,1.2-2.1,2c-0.7,0.4-1.3,1.1-2,1.7c-1.3,1.2-2.5,2.4-3.7,3.5c1.8,1.3,3.6,2.6,5.5,4.1c1.9,1.3,3.9,2.8,6,4.5
			c3.5,2.8,7.2,5.4,11.2,8l2.1,1.4c7.2,5,15.1,8.9,23.2,12.6c-16.1,0.3-32.4,1.1-47.9,2.2c-5.2,0.3-11.2,0.7-17.5,1.1
			c-3.2,0.2-6.5,0.5-9.8,0.7c-3.4,0.4-6.8,1.1-10.3,1.7c-6.8,1-13.5,2.3-19.8,4.2c-6.3,2.4-12.2,5.3-17.2,8.9
			c5.7,5.6,12.5,13,20.3,19.4c3.9,3.3,8,6.4,12.2,9.6c1.4,1.1,2.8,2.1,4.3,3.1c-15.2-1.1-32.1-0.9-48.8,0.6c-3.3,0.3-6.5,0.6-9.8,1
			c-3,0.3-6.1,0.7-9.1,1.2c-3.7,0.6-8.2,1.3-12.8,2.1c-2.3,0.4-4.7,0.9-7.1,1.4c-2.4,0.7-4.9,1.5-7.3,2.3c-4.8,1.5-9.4,3.2-13.5,5.4
			c-4.1,2.5-7.7,5.3-10.4,8.2c5.1,2.7,10.9,5.6,17,8.6c6.1,2.7,12.6,5.9,19.1,8.5c12.9,5.4,26.1,9.9,36.9,14.1
			c6.4,2.4,12.9,4.8,19.7,7c4.7,1.5,9.5,3,14.4,4.3c2.5,0.7,5.1,1.4,7.7,2c-4-0.4-8-0.8-12.1-1.3c-46.8-5.6-105.1-3.8-157.7,3.7
			c-0.4,0-0.8,0.1-1.2,0.1c-7.8,1.2-17,2.7-26.6,4.3c-4.8,0.8-9.8,1.8-14.8,3c-5,1.3-10,3-15,4.6c-9.9,3.1-19.6,6.8-28.2,11.1
			c-8.5,5.2-15.9,11.1-21.5,17.1c6.7,3.5,14.2,7.3,22,11.3c4.4,2.2,8.9,4.4,13.5,6.7c6.4,2.8,13,5.9,19.6,8.9
			c-18.7-0.3-37.5,0-56.7-0.3c-7.1-0.2-14.4,0-21.8,0.5c-29.2,1.8-60.1,7.8-87.8,13.7c-5.2,1.1-11.2,2.3-17.6,3.9
			c-3.2,0.8-6.5,1.6-9.8,2.4s-6.7,1.7-10,3c-1.6,0.6-3.3,1.2-4.9,1.9c-1.6,0.5-3.3,1.1-4.8,1.7c-3.2,1.2-6.3,2.4-9.2,3.7
			c-5.9,2.8-11.1,5.8-15.3,8.9c4.7,2.7,10,5.4,15.8,8c2.7,1.2,5.5,2.4,8.3,3.6c4.6,1.9,9.3,3.7,14,5.6c4.8,1.8,9.8,3.4,14.8,5
			c5.9,1.9,11.9,3.6,17.8,5.1c-25-2.8-49.8-4.6-75.3-8.1c-14.8-2.2-31-2.8-47.4-2.9c-2.5,0-5,0-7.5,0c-5.7,0-11.4,0.1-17,0.2
			c-8.2,0.4-16.2,0.8-24,1.1c-4.7,0.3-10,0.3-15.8,0.7c-5.8,0.4-11.8,0.9-17.9,1.3c-12,0.7-24.1,3.8-32.4,8.1
			c5.2,4.9,11.6,10,18.7,15C808.2,730.1,816.2,734.5,824.4,739.1z M1871.5,134.3c0.2-0.4,0.6-0.5,0.9-0.4s0.6,0.1,0.9,0.3
			c-0.2,0.1-0.6,0.2-0.8,0.2l0,0l0.1,0.1l0,0c-0.1,0-0.2,0-0.4-0.1c-0.1,0-0.3,0-0.5-0.1c-0.1,0-0.2,0-0.3-0.1
			C1871.4,134.3,1871.4,134.3,1871.5,134.3z"/>
		<path class="st4" d="M1204.9,742.4c-0.3,0.1-0.7,0.2-1,0.3C1202.2,744.2,1201.6,744.5,1204.9,742.4z"/>
		<path class="st4" d="M1005.5,817.2c-0.3,0-0.5,0.1-0.8,0.1C1003.2,818.3,1002.7,818.5,1005.5,817.2z"/>
		<path class="st4" d="M547.2,814.5c-0.7-0.6-1.4-1.2-2.1-1.9c-5.2-4.6-10.1-9.4-14.4-14.3c-4.8-5.6-8.9-11.3-12-16.3
			c7.8-2,18.2-2.8,27.9-1.4c4.9,0.7,9.9,1.2,14.6,1.6c4.6,0.5,8.9,1,12.7,1.5c5.5,0.5,11.2,1,16.9,1.5c7.3,0.7,14.7,1.4,21.9,2.3
			c12.9,1.5,25.5,3,37,5.3c26.2,5,51.2,5.5,77.3,7.9c7.2,0.9,14.4,1.7,22,3c0.9,0.1,1.8,0.2,2.8,0.4c-4.8-2.7-9.4-5.5-13.9-8.4
			c-4.6-3-9.7-6.5-14.9-10.3c-6.6-4.9-13.4-10.3-19.8-15.9c-5.6-5.3-11-10.4-15.5-15.9s-8.2-11.1-11.2-15.9
			c7.7-2.1,17.3-1.7,26.8-0.3c9.6,1.1,18.9,3.3,26.2,4.3c2.7,0.4,5.4,0.8,8.2,1.1c22,3.2,45.4,7.3,65.6,12.9
			c25.6,7.2,50.5,11.8,76.5,19.1c14.3,3.9,28.3,9.5,42.6,15.4c7.2,2.8,14.4,5.5,21.8,8.1c7.3,2.4,14.7,4.6,22.2,6.3
			c5,1,14.2,1.1,22.7,2c8.6,0.8,16.7,2.7,19.6,8c-1.3,1.3-2.7,2.4-3.7,3c-8.9,0.6-18,3.5-27.3,6.5c-9.5,3.3-19.2,6.9-28.3,9.1
			c-19.3,4.7-39.9,7.1-60.3,6.8c-16-0.2-32.7-1.7-49.2-4.6c-1.8,0.4-3.7,0.8-5.5,1.3c-9.3,2.7-17.9,7.3-25.9,10.9
			c-8.6,3.8-17.4,7.9-26.9,11.4c-9.5,3.4-19.7,6.6-30.6,9c-27.5,6.5-57.8,7-86.7,1.9c-28.9-4.9-56.4-15-79.5-28.8
			C572.9,834.1,559.2,825,547.2,814.5z"/>
		<path class="st4" d="M699.1,936.4c-0.2-0.1-0.5-0.3-0.7-0.4C696.5,936,696,935.9,699.1,936.4z"/>
		<path class="st4" d="M152.7,874c7.4-3,16.3-6,26.2-8.7c9.9-2.5,20.7-4.6,31.9-6.3c22.3-3.5,45.9-4.8,65.1-5.1
			c11.9-0.3,24,0,36.2,0.7c27.8,1.7,56.4,6,84.2,13c9.8,2.4,19.5,5.2,29,8.2c-7.2-6.9-15-15.1-22.1-24.1c-2-2.4-3.9-4.9-5.7-7.4
			c-4.7-6.5-9-13-12.5-19.5c-3.4-6.6-6.1-13-8-18.6c8-0.2,18.3,1.4,27.4,5c4.6,1.7,9.3,3.3,13.8,4.8c4.4,1.6,8.5,3.1,12.1,4.3
			c8.7,2.9,17.8,5.8,26.7,8.9c3.4,1.2,6.8,2.4,10.1,3.6c12.2,4.3,24.2,8.7,34.9,13.5c24.4,10.8,48.6,17,73.6,25.2
			c6.8,2.5,13.6,4.9,20.7,7.8c7.4,2.8,14.8,5.7,22.3,8.6c15.4,6.1,31.7,12.9,47.3,19.9c5.2,2.4,15.2,5,23.6,10
			c4.2,2.4,7.9,5.4,10.5,8.5c2.4,3.3,3.7,6.5,3.2,9.5c-1.9,0.3-3.6,0.3-4.9,0.3c-7.5-4.5-17.1-6-26.3-5.4c-9.6,0.6-19,3.1-27.7,4.8
			c-9.2,1.7-18.7,3.7-28.7,5c-10,1.2-20.6,2-31.9,1.9c-14.2,0.1-28.8-1.6-43.3-4.7c8.8,7.3,16.6,14.6,24.4,21.7
			c7.8,7.2,15.7,15.6,25.7,22.6c9.6,6.8,21.4,12.3,33.8,14c1.3,0.9,3.2,2.1,5,3.6c-2.3,2.6-6.6,4.2-12.3,5
			c-5.7,0.6-12.5,0.3-19.4-0.7c-13.9-2-27.2-6.9-35.1-8.6c-23.5-5.4-47.6-11.4-70.2-17.4c-10.9-3-21.7-5.8-32.4-8.7
			c-10.4-2.6-20-5.5-29.9-8.3c-34.8-10.9-67-22.8-103.6-31.4c-16.2-3.7-33.2-8.6-50.6-13.7c-17.4-4.9-35-10.6-51.8-15.8
			c-5.1-1.5-10.9-3.2-17.1-5c-6.3-1.9-12.9-4-19.5-5.8c-10.6-2.8-20.9-7.2-29-11.7C156.3,876.3,154.4,875.2,152.7,874z"/>
		<path class="st4" d="M624.2,995.9c0.4,0.1,0.7,0.1,1.1,0.2C621.6,994.4,622.2,994.6,624.2,995.9z"/>
	</g>
	<path class="st5" d="M1758.7,319.2c-12.6,16.2-37.7,29.6-56.1,38.1c-10,4.6-21.1,4.6-31.9,6.2c-20.2,3-39.7,7.3-59.6,12.3
		c-13.9,3.5-40.4-0.1-51.4,9.3c2.7,0,5.6-1,7.9-2.7c-10.3-0.1-20.8-7-28.9-13.2c36.8,10.9,76.1,0.2,111.4-11.8
		c22.9-7.8,45.2-17,67.9-25.1C1731.3,327.7,1748,327.3,1758.7,319.2z"/>
	<path class="st5" d="M1763.2,198.7c-9.9,8.8-25.7,14.9-37.1,22.6c-6.6,4.5-13,7-20.1,10.3c-8.2,3.9-14.3,10.6-21.4,16.2
		c-25.8,20.6-53,42.3-73.2,68.2c-8.7,11.2-15.8,12.3-27.4,18.2c13.5-12,19.3-22.6,19-41.3c12,3.8,27.3-13.1,35.2-19.6
		c17.9-14.6,33-33.8,51.4-47.4c19.5-14.4,42.9-22.7,62.2-37.5c12.7-9.7,24.4-22.5,33-35.9C1783.8,157.6,1773.6,203.4,1763.2,198.7z"
		/>
	<path class="st5" d="M1736.7,473.1c-34.2,3.5-70.7-14.9-105.6-19.4c-37.9-4.9-79.1-8.8-116.4-1.5c-19.2,3.8-32.5-7.3-48.6-19.5
		c38.1,10.9,74.6,2.1,114.4,2.9c55.8,1.1,109.6,22.2,164.9,19.8c19-0.8,37.5-3.5,55.8-5.7c-12.7,8.6-29.5,13.6-44.5,17.2
		C1747.3,469.3,1733.9,469.7,1736.7,473.1z"/>
	<path class="st5" d="M1535.9,557.6c1.4,0.7,2.7,1.8,4,2.6c-24.4-8.3-49.8-14.4-74.4-23c-23.3-8.2-42.8-26.4-67.8-30.3
		c-13.4-2.1-25-4.1-39.1-3.5c29.9,15.9,67.6,23.1,99.8,34.7C1484.3,547.5,1511.9,553.5,1535.9,557.6z"/>
	<path class="st5" d="M1524,563.9c-27.7,5.9-55.4,3.1-81.7-2.8c-12.8-2.9-26.6-7-40.6-9.9c-15.8-3.3-31.8-2.5-47.7-5.6
		c-13.8-2.7-28.5-7.5-41.9-7.3c13,9.7,32.3,11.6,46.5,18.1c12.7,5.8,24.4,12.1,38.2,14.3c16.5,2.6,33.2,2.2,49.7,6.1
		c13.5,3.1,25.7,5.9,39.4,3.3C1498.9,577.7,1517.5,575.3,1524,563.9z"/>
	<path class="st5" d="M1116.4,727.7c-35.7-18.1-76.4-14.6-114.1-24.2c-10.2-2.6-19.4-6.6-29.6-9.7c32.5,2.7,63-8.6,95.3-1.6
		c38.9,8.4,75.1,39,115.9,38.6C1167.7,734.2,1149.1,730.8,1116.4,727.7z"/>
	<path class="st5" d="M745.7,803.4c44.6,1.8,86.5,39.8,132,34.2c-5.3-7.4-24.7-9.8-34.2-14.4c-10.7-5.1-20-12.4-30.4-18.2
		c-19.3-10.7-39.7-7.5-60.3-13c-20.3-5.5-53-24.8-64.5-41.2C706.4,773,724.3,792.6,745.7,803.4z"/>
	<path class="st5" d="M423.1,874.4c23.9,11.5,50.1,15.4,73.5,30.5c11.1,7.2,23.3,14.3,32.8,22.7c11.1,9.9,17.2,11.8,32.5,13.4
		c13.2,1.4,26.3,0,38-6.3c-22.3-3.6-38.3-10.2-57.6-23.6c-11.8-8.2-19.8-19-30.8-27.8c-11.6-9.2-27.9-13.8-41.3-19.7
		c-22.3-9.8-46-15.5-64.3-31.5c-9.9-8.7-18.1-19.3-26.9-28.3C372.5,826.1,409.4,868.2,423.1,874.4z"/>
	<path class="st5" d="M1149,625.4c9.1,5.9,23,12.9,33.4,15.2c12,2.6,26.9,0.6,39.6,0.6c42.3,0,88.3,2.9,129.3,13.7
		c12.9,3.4,26.1,4.7,39.1,7.5c10.2,2.2,23.2,10.1,33.5,8.9c-9.7,8.8-22.1,15.8-33.2,22.7c-7.5,4.6-16.2,9.1-22.8,14.2
		c17.7,3.2,36.5,8.7,53.4,9.8c-18.8-14,12.2-33.1,15.6-47.8c-13.7-11.5-34.5-15.4-51.4-20c-33.7-9.1-68.6-10.2-102.9-17
		c-34.4-6.7-68.7-13.1-103.7-9.2c-9.7,1.1-18.8,0.6-28.1-1.7c-4.4-1.1-9-2.8-12.9-2.1C1143,624,1150.5,627.8,1149,625.4z"/>
	<path class="st0" d="M1331.6,606.4c0,0.1-0.6,0.2-1.6,0.4l-0.5-0.3C1330.9,606.5,1331.5,606.4,1331.6,606.4z"/>
	<path class="st0" d="M1216.4,645.7c-0.3-0.1-0.7-0.1-1-0.2C1219.4,644.7,1218.7,644.8,1216.4,645.7z"/>
	<path class="st0" d="M1127.2,668.2c-0.2,0.1-1,0.1-2.1,0.3c-0.3-0.2-0.7-0.3-1-0.4C1126,668.1,1127,668.1,1127.2,668.2z"/>
	<path class="st0" d="M1040.9,694.1c-0.2,0.1-1,0.1-2.1,0.2c-0.4-0.2-0.7-0.3-1.1-0.5C1039.6,694.1,1040.7,694.1,1040.9,694.1z"/>
	<path class="st0" d="M977.9,727c-0.2,0.1-1,0.1-2.1,0.2c-0.3-0.2-0.7-0.3-1-0.5C976.7,726.9,977.6,726.9,977.9,727z"/>
	<path class="st0" d="M859,738.7c-0.2,0.1-1.1,0.1-2.5,0.3c-0.4-0.1-0.9-0.3-1.3-0.4C857.6,738.6,858.7,738.6,859,738.7z"/>
	<path class="st0" d="M767.3,749.5c-0.3,0-1.3-0.1-2.7-0.1c-0.4-0.2-0.9-0.4-1.3-0.6C765.8,749.2,767,749.4,767.3,749.5z"/>
	<path class="st0" d="M656.9,745.8c-0.4-0.3-0.8-0.5-1.2-0.8C661.4,746.7,660.4,746.2,656.9,745.8z"/>
	<path class="st0" d="M547.2,781c-0.4,0-1.3-0.1-2.6-0.2c-0.4-0.2-0.9-0.5-1.3-0.7C545.7,780.6,546.9,780.8,547.2,781z"/>
	<path class="st0" d="M485.4,791.9c-0.3,0-1.3,0-2.7-0.1c-0.4-0.2-0.8-0.4-1.3-0.6C483.9,791.6,485.1,791.8,485.4,791.9z"/>
	<path class="st0" d="M426.1,835.3c-0.4-0.1-0.9-0.2-1.4-0.3c2.2-0.1,3.5-0.2,4-0.3C428.3,834.7,427.4,834.9,426.1,835.3z"/>
	<path class="st0" d="M304.8,848.4c-0.3,0-1.3-0.1-2.6-0.1c-0.4-0.2-0.8-0.4-1.3-0.6C303.3,848.2,304.5,848.3,304.8,848.4z"/>
	<path class="st0" d="M270.4,879.4c-0.4,0.1-1.2,0.1-2.2,0.1c-0.3-0.2-0.7-0.4-1-0.6C269,879.2,269.9,879.3,270.4,879.4z"/>
	<path class="st3" d="M1406.9,716.8c4.8,2.7,13.4,9,19.7,12.8c7.5,4.5,9.5,11.5,15.4,16.3c5.1,4.1,15.9,6.2,22.1,9
		c7.5,3.4,14.1,7.2,21.5,10c9.1,3.5,19.3,7.5,28.8,8.3c-15.5-10.6-34.6-16.4-50.3-27.6c-7.5-5.4-22.8-16-25.5-25
		c-9.1,0.1-22.6-1.9-31.3-4.5C1406.8,717.1,1406.8,718.1,1406.9,716.8z"/>
	<path class="st3" d="M1367.9,708.1c-24.2,7.5-50.7,11.7-76.3,16c6,5.6,10.1,15.3,15.7,21.5c8.3,9.2,17.7,16.7,27.3,25
		c17.1,14.7,36.2,27.7,53.1,42.7c13,11.5,28.6,19.9,43.9,28.3c-8.7-11.8-27.3-23.7-40.3-32.1c-15.2-9.9-30.1-21.3-44-32.9
		c-8.8-7.3-30.6-23.9-30.2-36.4c0.3-12.1,14.9-15.2,24.3-18.1C1352,718.9,1362.7,715.9,1367.9,708.1z"/>
	<path class="st3" d="M1274.6,727.5c0.3,0.1,2.2,0.1,3.5,2.5c-11.7,1.9-25.6,2-38.2,2.8c-16.1,1-24.7,0.5-30.1,16.5
		c-5.2,15.2,19.8,38,29.3,48.5c18.6,20.6,39.7,38.2,60.7,56.1c18.6,15.8,41.9,32.8,57.3,50.6c-15.2-2.8-30-21.4-40.7-31.6
		c-6.7-6.3-14.2-9.3-21.3-14.8c-10.9-8.5-19.8-19.4-30.5-28c-18.9-15.3-36.5-31-50.8-50.4c-6.4-8.7-13.4-17-19.9-25.7
		c-3.7-4.9-12-13.9-13.3-19.4c-2.2-9,4.4-8.7,13-9.7c12.6-1.4,25.4-2.7,37.9-3.6C1241.5,720.4,1263.1,717.6,1274.6,727.5z"/>
	<path class="st3" d="M1104.4,779.1c6.8,21.3,25.2,38,39.8,53.7c17.3,18.6,37.5,34.1,57.6,49.9c46.4,36.5,94.3,71.8,136.5,112.6
		c13.8,13.4,33.7,25,54.4,22.7c-17.9,1.9-41.4-25.1-51-37.6c-13.2-17.1-26.6-31.3-43-45.3c-17.3-14.8-37.5-25.2-56-38.5
		c-23.1-16.5-43-34.7-62.1-55.2c-10-10.7-29-22.4-32.5-37.3c-3.8-16.3,16.7-36,27-46.4c-8.4-0.4-23,11.2-32.1,14.4
		c-12.1,4.3-25.2,5.1-36.9,9.2C1108,781.9,1109.9,782.1,1104.4,779.1z"/>
	<path class="st3" d="M730.2,873.7c5,4.5,7.4,15.7,10.6,22c4,7.6,8.7,14.8,12.8,22.4c10.9,20.4,30.7,36.9,48.4,51.7
		c34.3,28.8,69.7,61.2,95,98.2c9,13.2,19.6,25.1,27.4,39c4.4,7.8,7.9,14.6,13.5,20.7c6.6,7.3,16,12.4,24.6,18
		c10.1,6.6,17.7,15.3,28.2,21.1c-5.2-5.1-12.4-11.5-18.5-16.9c-10.7-9.5-17.4-21-26-32.2c-24.4-31.9-44.3-67.1-72.7-96
		c-27.6-28.1-60.7-48.5-89.2-75.5c-18.8-17.8-33.5-34.2-20.9-60c4.7-9.7,10.4-15.8,19.9-20.8c5.9-3.1,12.7-5.2,16.8-10.5
		c-4.3-4.6-8.5,1.2-12.5,3.8c-5.5,3.6-10.8,5.5-17.2,7.9C761.4,870.1,732.7,869,730.2,873.7z"/>
	<path class="st3" d="M832.3,1128.7c1-12.3-15-33.1-22.6-43.9c-9.6-13.8-22.1-25.3-32.7-38.3c-25.6-31.4-54.5-61.4-85.6-86.9
		c-11.8-9.7-24.1-17.9-36.6-27c10.8-4.9,23.7-5.4,35.2-0.9c3.3,1.3,10.8,7.4,14.2,4.5c4.6-4.1-4.2-10.7-6.8-12.9
		c-12.5-10.3-28.5-12.6-42.9-18.9c-11.6-5.1-29.4-9.9-39.2-17.9c-8.5-6.9-18.2-22.9-18.3-33.9c6.6-4.9,21.9,3.9,29.3,5.7
		c11.2,2.7,22.6,5,33.9,7c10.2,1.8,21.1,0.3,31.1,2.4c9.3,2,13.1,8.7,19,16.2c-13.9,3.5-31.9-8.5-47.3-3.7c-13,4-3.4,11.4,4.6,15.8
		c18.7,10.2,34.9,17.1,49.5,33.2c4.7,5.2,15.3,14.6,11,23.2c-5.2,10.5-19.2-6.9-24.7,1.4c45.1,39.4,91.4,82.4,124.2,132.8
		c21.1,32.5,41.4,61.8,72.3,85.2c-9.2,2.8-30.6-16.7-38-22.5C856.2,1144.8,840.7,1128.4,832.3,1128.7z"/>
	<path class="st3" d="M576.2,941.9c5.1-0.5,13.7,10.4,18.4,14.8c10.7,9.9,19.2,20.4,27.9,32.1c11.4,15.4,22.1,31.1,32.9,46.8
		c12.7,18.4,27.4,34.1,43.3,49.8c9.9,9.8,18.9,21.2,27.9,31.6c-6.6-15.8-24.3-31.2-35.2-44.4c-15.8-19.3-28.4-40.6-43.5-60.4
		c-10.8-14.2-27.6-31.1-24.8-50.5c1.3-9,6.2-21,13.9-25.8c-7.8,6-20.5,4.1-30,4.6C600.9,941,579.6,939.3,576.2,941.9z"/>
	<path class="st3" d="M523.4,1004.2c6.3,1,11.9,11.1,16.5,16c6.2,6.5,13,12.4,18.7,19.6c13.1,16.4,25.5,32.2,36.9,49.8
		c9.8,15.2,20.9,30.2,28.9,46.5c5.6,11.3,10.7,23.5,17.6,34c7.6,11.4,22,19.2,29.2,30.7c-6.1-13.3-14.2-25.1-20.2-38.5
		c-9.3-20.9-17.1-39.9-30.6-58.8c-12.7-17.8-26.9-34.3-38.4-53c-6.2-9.9-13-20.5-8.9-32.5c3-8.7,9.7-9.2,17-13.1
		c-5.9-7.5-23.3-9.5-32.5-12.1c-11.4-3.3-30.3-12.3-41.5-11.1C520.1,989.3,521.3,998.4,523.4,1004.2z"/>
	<path class="st3" d="M372.6,945.9c5.4-0.9,26.3,36.8,31.2,43.1c16.4,21,32.7,42,49.2,62.8c12.4,15.7,26.2,28.6,35.3,46.5
		c6.6,12.8,14.3,21.3,23.9,31.8c12.9,14.1,25.5,28.3,37,43.3c-15.3-14.4-30.9-36.1-40.6-54.6c-14.4-27.3-31.5-51.3-48.9-76.9
		c-12.2-18-26.6-47.6,5.6-54.2c8.6-1.8,32.2,2,37.2-6.1c-6.3-5.3-20-5.5-28-7.9c-11.9-3.6-23.9-6.6-35.9-9.9
		c-11.6-3.2-23-7.5-34.6-11.1c-7.5-2.3-24.3-11.2-31-9.4c3.4,10.8,11.8,22,17.7,31.9c11.2,19.2,25.6,35.5,40.4,51.9
		c13.3,14.7,28.5,27.9,40.1,44.1c8.3,11.6,12.1,26,20.8,37.4L372.6,945.9z"/>
	<path class="st3" d="M358,936.4c-3.3,8.7-27.3,1.2-32.1,15.5c-4.9,14.4,9.4,33.1,15.8,44.7c11.8,21.6,19.2,45.3,33.3,65.7
		c19.7,28.3,32.8,60.8,52.4,89.2c13.9,20.2,26.9,41.3,40.1,61.4c-17.6-13.6-31.6-34.3-42.9-53c-12.2-20-27.5-38.5-39.8-59
		c-11-18.2-23.4-36.9-36.3-53.8c-13.5-17.7-16.8-35.5-23.1-56.1c-8.5-27.4-23.9-47.8-39.8-70.7c8.5-3.6,17.7,2.3,25.5,5.4
		C322.7,930.4,341.9,937.3,358,936.4z"/>
	<g class="st6">
		<path class="st7" d="M1535.6,893.7c-13.2-17.2-28.2-33.2-43.8-49.1c-15.6-15.8-32.1-31.1-49.2-45.5s-34.8-28-52.8-40.5
			s-36.5-23.7-54.3-34.2c17.2,12.9,35,25.5,52.2,38.9c17.3,13.3,34.3,27,51.1,41.1c16.8,14.1,33.2,28.6,49.4,43.5
			C1504.3,862.8,1520.3,877.8,1535.6,893.7z"/>
	</g>
	<g class="st6">
		<path class="st7" d="M1476.1,951c-12.4-24.3-31.4-46.4-52.6-65.6c-21.3-19.1-44.2-36.3-66.6-52.9c-11.2-8.4-22.3-16.6-33-25.1
			c-10.8-8.5-21.4-17.6-32.4-26.2s-22.4-16.7-34.1-23.2c-5.9-3.2-11.9-6-17.8-8.3c-3-1.2-6-2.2-8.9-3.1c-2.9-1-6-1.4-8.6-2.6
			c2.6,1.6,5.7,2.3,8.5,3.7c2.9,1.2,5.8,2.6,8.7,4.1c5.7,3,11.5,6.2,17,10c11.2,7.4,21.8,16.1,32.3,25.2c10.5,9,20.6,18.4,31.3,27.2
			c10.5,8.9,21.5,17.1,32.6,25.4c22.1,16.5,44.9,32.6,66.5,50.5C1440.4,907.8,1460.7,927.9,1476.1,951z"/>
	</g>
	<g class="st6">
		<path class="st7" d="M1390.3,1007.6c-18.3-21-39.2-40.4-59.5-60.8c-10.2-10.2-20.8-20-30.9-30.3c-10.6-9.8-21.3-19.4-32.1-28.8
			c-21.5-19-43.1-37.6-64.5-56.2c-10.7-9.3-21.5-18.5-32.7-26.7s-22.8-15.1-33.3-21.5c10.2,8,21.1,16.1,31.6,25.2s20.6,19,30.9,28.8
			c20.4,19.7,41.5,38.5,62.7,57.2l32,28c10.5,9.5,21.2,18.9,31.9,28.3C1347.7,969.7,1369.5,988.1,1390.3,1007.6z"/>
	</g>
	<g class="st6">
		<path class="st7" d="M1316.6,1002c-21.1-18.8-42.9-37.5-65.4-55.7c-22.4-18.2-45.5-36-68.8-53.3s-46.9-34.2-70.5-50.4
			c-11.8-8-23.7-16.3-36.1-22.6c-6.2-3.2-12.4-5.8-18.5-7.8c-3.1-1-6.2-1.8-9.2-2.4s-6.1-0.8-8.8-1.5c2.8,1.1,5.8,1.6,8.8,2.7
			c3,1,6,2.1,9,3.4c6,2.6,11.9,5.9,17.7,9.6c11.7,7.3,22.9,16.2,34.3,24.8c22.7,17.4,45.5,34.5,68.5,51.6c23,17,46,34,69.1,51
			C1269.9,968.3,1293.1,985.3,1316.6,1002z"/>
	</g>
	<g class="st6">
		<path class="st7" d="M1250.4,1058.4c-19.9-21.2-41.6-41.9-65.2-60.6c-11.7-9.4-23.9-18.4-36.3-27.1c-12.4-8.6-25.4-16.8-37.9-24.5
			c-12.5-7.8-24.7-15.4-36.1-23.9c-11.5-8.4-22.7-17.8-33.7-27.5s-21.9-19.6-33-28.9c-5.5-4.7-11-9.2-16.6-13.7l-8.3-6.6
			c-2.7-2.2-5.7-4.2-7.8-6.8c2,3,4.8,5.3,7.4,7.9l7.8,7.6c5.2,5.1,10.4,10.3,15.5,15.4c10.3,10.3,20.5,20.9,31,31.3
			c10.5,10.3,21.4,20.3,32.9,29.2c11.5,8.9,23.7,16.8,36.1,24.6c25,15.3,50.1,31.5,74.1,48.8
			C1204.5,1020.8,1227.7,1039.4,1250.4,1058.4z"/>
	</g>
	<g class="st6">
		<path class="st7" d="M1171.9,1196.7c-2.6-8.8-5.3-18.1-9.7-26.9c-4.3-8.7-9.5-17.4-15.5-25.4c-12-16.1-26.4-30.5-41.2-43.7
			c-14.9-13.1-30.1-24.9-44.3-37.1c-14.4-12.3-28.6-24.8-42.5-37.6c-27.7-25.9-53.9-53.5-79-82.1c-12.6-14.3-24.6-29-36.5-43.8
			c-5.8-7.5-11.7-15-17.3-22.6c-2.9-3.8-5.8-7.6-8.1-11.5c-2.4-4-5.3-7.8-6.5-12.1c0.8,4.8,3.4,9,5.4,13.4c1.9,4.4,4.7,8.5,7.2,12.7
			c4.9,8.4,10.3,16.5,15.5,24.6c10.9,16,22.3,31.6,34,46.7c12,15,24.3,29.6,37.1,43.7c12.9,14,26.2,27.6,40,40.6
			c13.8,13,28.2,25.4,42.8,37.4c14.6,12,30,23.2,45.3,35.3c15.1,12.1,30,24.9,43.1,39.6c6.5,7.3,12.4,15.2,17.5,23.3
			C1164.4,1179.2,1168.2,1188.1,1171.9,1196.7z"/>
	</g>
	<g class="st6">
		<path class="st7" d="M1039.1,1182c-13.6-30.5-29.6-60.9-47.9-90.3c-18.3-29.4-38.4-58-60.6-85.1c-11.1-13.5-22.6-26.7-34.4-39.4
			c-12-12.6-24.6-24.5-37.6-35.7c-13-11.1-26.3-21.5-40-31c-6.8-4.7-13.7-9.3-20.6-13.7l-10.3-6.4c-3.5-2-6.7-4.3-9.3-7
			c2.5,3.2,5.6,5.9,8.9,8.4l9.8,7.6c6.5,5.1,13,10.3,19.5,15.6c12.9,10.6,25.5,21.8,37.7,33.4c12.2,11.7,24.1,23.7,35.5,36.4
			c11.3,12.7,22.3,25.6,33.1,38.8c21.6,26.4,41.9,53.8,61.3,81.9C1003.6,1123.6,1021.9,1152.5,1039.1,1182z"/>
	</g>
	<g class="st6">
		<path class="st7" d="M940.6,1177.9c-14.9-26.7-31.5-53.7-50.2-79.4c-18.7-25.8-39.3-50.6-61.4-73.9
			c-22.1-23.3-45.8-44.9-70.6-64.2c-12.4-9.6-25-18.7-37.8-27.1c-6.4-4.2-12.8-8.2-19.2-12.2c-6.3-4-12.9-7.6-17.8-12.7
			c2.3,3,5.2,5.4,8,8l9.1,7c6.1,4.7,12.2,9.4,18.3,14c12.2,9.5,24.1,19.3,35.9,29.5c23.5,20.3,46.1,42,67.6,64.7
			c21.6,22.7,42.2,46.4,61.8,70.9C904,1126.9,922.5,1152.3,940.6,1177.9z"/>
	</g>
	<g class="st6">
		<path class="st7" d="M856.1,1204.2c-16.7-23-33.9-46.3-52.2-68.9c-18.2-22.7-37.3-44.9-56.8-66.7c-9.7-10.9-19.7-21.6-29.6-32.2
			c-10-10.6-20.1-21.2-30.7-31.1c-10.6-10-21.6-19.4-32.9-27.6c-5.7-4.1-11.5-7.9-17.2-11.5s-11.7-6.6-17-10
			c5.1,4.2,10.9,7.8,16.3,12.1c5.4,4.2,10.9,8.5,16.2,13.1c10.7,9.2,20.8,19.2,30.7,29.6c19.7,20.9,38.6,42.7,57.9,64
			c19.2,21.5,38.3,42.9,57.6,64.5C817.6,1160.9,836.5,1182.8,856.1,1204.2z"/>
	</g>
	<g class="st6">
		<path class="st7" d="M766.8,1289.9c-3.3-5.9-5.8-12.4-8.8-18.6c-2.9-6.3-6-12.5-9.1-18.8c-6.3-12.5-12.9-24.8-20-37
			c-14.1-24.3-29.3-48.3-46.3-71c-16.9-22.7-34.5-44.8-52.9-65.7c-9.2-10.5-18.5-20.6-27.9-30.5c-4.6-4.9-9.6-9.9-14-14.4
			c-2.2-2.2-4.4-3.9-6.3-4.9c-2-1-3.5-0.7-4.2-0.8c0.6,0.4,2,0.4,3.7,1.7c1.7,1.2,3.7,3.3,5.6,5.7c4.3,5.3,8.6,10.7,12.9,16
			c8.6,10.9,17.2,21.6,25.8,32.4c17.1,21.7,33.8,43.8,50.1,66.2c16.4,22.4,32,45.3,47.2,68.6c7.6,11.7,15.1,23.4,22.4,35.3
			C752.4,1266.1,759.1,1278.4,766.8,1289.9z"/>
	</g>
	<g class="st6">
		<path class="st7" d="M664.2,1288.6c-8-12.7-15.4-26.2-23.5-39.3c-4-6.6-8-13.2-12.1-19.7c-4.1-6.6-8.2-13.1-12.4-19.6
			c-16.7-26.2-34.8-51.5-53.4-76.5c-18.6-24.9-37.9-49.4-57.5-73c-9.8-11.8-19.8-23.4-29.6-34.8c-4.9-5.7-9.8-11.3-14.7-17
			c-4.8-5.7-9.3-11.4-13.8-17.1c4.1,6.4,8.1,12.8,12.5,19c4.5,6.2,8.9,12.4,13.4,18.6c4.5,6.2,9,12.4,13.5,18.5
			c4.6,6.2,9.1,12.3,13.7,18.4c18.4,24.7,36.6,49.2,54.9,73.7c18.2,24.6,36.5,49.2,54.5,74.1c9,12.4,18.1,24.9,27.1,37.4
			C645.8,1263.8,654.6,1276.5,664.2,1288.6z"/>
	</g>
	<g class="st6">
		<path class="st7" d="M515.6,1234.1c-13.5-25.5-27.7-51.3-43.2-76.4c-15.5-25.2-31.9-50.1-49.6-74c-17.1-24.2-35.4-47.8-53.2-70.6
			c-8.9-11.4-17.3-23.3-25-35.4c-4-5.9-8.1-11.6-12.6-16.1c-2.2-2.3-4.4-4.3-6.7-5.9c-2.3-1.6-4.7-2.6-6.6-4
			c8.2,5.3,16.2,16.1,23,28.9c6.9,12.9,14.8,25.6,23.1,37.5c17.1,23.9,34,47.5,50.9,71.2c17.1,23.7,33.9,47.7,50.4,71.8
			C482.8,1185.3,499,1209.9,515.6,1234.1z"/>
	</g>
	<g class="st6">
		<path class="st7" d="M395.9,1205.3c-6.5-29-21.6-57.3-37.6-83.4c-8-13.1-16.3-25.9-23.9-38.7c-7.8-12.8-15.3-25.9-22.9-39.1
			c-15.3-26.4-31.1-53.3-49.6-77.7c-9.2-12.1-19-23.9-29.6-33.9c-5.3-5-11-9.2-16.7-12.2c-2.8-1.5-5.7-2.7-8.4-3.5
			c-2.8-0.8-5.5-0.9-7.8-1.8c2.2,1.4,5,1.8,7.6,3c2.6,1.1,5.3,2.7,7.9,4.5c5.2,3.6,10.3,8.3,15.1,13.7c9.5,10.8,18.5,23.2,26.8,35.5
			c16.8,25,31.6,51.6,46.6,77.7c7.5,13,15.2,26,23.2,38.6s16.7,25,25.2,37.5C368.9,1150.5,385.8,1176.8,395.9,1205.3z"/>
	</g>
	<path class="st8" d="M1542.7,361c31.7,0.8,60.2-11.2,86.1-28.4c-0.5,0.6-1,1.3-1.4,2.1c-0.2,0.5,0,0.9,0.4,1
		c1.2,0.4,2.5,0.4,3.8,0.2c-0.7,0.4-1.4,0.9-2.1,1.4c-7.1,3.1-14.2,6.3-20.8,10.2c-1.2,0.7-0.8,3.2,0.8,2.9c6.3-1,12.4-3,18.3-5.5
		c13.8-4.6,27.4-11.1,40.5-19c18.8-9.7,37.2-22,52.9-36c7.6-3.2,15.1-6.5,22-10.9c1-0.6,1.1-2,0.5-2.9c1-0.5,1.9-1,2.9-1.5
		c10.7-3.6,21.2-7.6,29-15.3c1.8-1.8-0.1-4.5-2.3-3.9c-7.7,2-15.4,4.3-23,7.1c3.2-2.5,6.3-5,9.3-7.6c0.7-0.6,0.3-1.3-0.3-1.6
		c3.4-1.3,6.6-2.9,9.3-5.2c0.7-0.7,0.7-1.9,0.1-2.7c6-2.7,11.9-5.5,17.8-8.7c1.4-0.8,0.8-3.2-0.9-3.1c-13.5,1-26.8,6.4-39,13.1
		c2.9-2.3,6-4.5,8.9-6.8c2.6-1.2,5.2-2.5,7.9-3.7c16.6-7.8,34.2-15.8,46.3-30.1c0.8-1-0.2-2.4-1.4-1.7c-12.5,7.3-24.7,14.3-37.2,21
		c-0.2,0-0.4,0-0.7,0.1c-0.5,0.4-1.1,0.7-1.6,1.1c-8.5,4.6-17.2,9-26.1,13.3c41.7-29.5,86.3-55,121.1-93.3c3-3.3-1.9-8.2-4.9-4.7
		c-37,43.3-88.3,68.8-133.2,102.5c-0.1-0.8-0.4-1.6-0.8-2.3c4.2-3.6,8.4-7.4,12.8-10.7c9.5-7.2,21.3-11.1,30.2-18.6
		c0.8-0.7,0.7-2.3-0.6-2.2c-11.1,0.5-21.7,8.8-30.5,14.9c-3.1,2.1-6.2,4.2-9.2,6.5c-0.8-0.8-1.9-1.2-3.4-0.9
		c-42.8,9.5-70,52.7-99.2,81.9c-0.4,0.4,0,1.3,0.6,1.1c0.4-0.2,0.9-0.4,1.3-0.6c-4.8,2.9-9.5,5.9-14,9.3c-1.4,1.1-0.7,3.9,1.3,3.1
		c2.2-0.8,4.3-1.7,6.5-2.6c-2.8,2.2-5.6,4.5-8,7c-1.2,1.2-0.2,3.2,1.4,3c-23.1,10.9-46.9,16.5-71.8,25.1
		C1540.7,358.6,1541,361,1542.7,361z M1747.6,257.5c2.6-1.1,5.4-2,8.2-3c-0.9,0.5-1.8,0.9-2.7,1.4c-0.4-0.1-0.8,0-1.3,0.2
		c-10.9,5.4-21.5,11.4-31.9,17.9c3.3-3,6.6-5.9,10.2-8.4c0.6-0.4,1.2-0.8,1.9-1.2C1737.4,263.4,1743,259.4,1747.6,257.5z
		 M1712.6,242c-9.6,8.7-20.6,16.2-31.5,23.8C1690.5,256.1,1700.5,247.5,1712.6,242z M1705.7,277.2c1.6-1.2,3.2-2.4,4.9-3.6
		c-7.6,7.5-15,15.3-23.2,22.2c-0.1,0-0.1,0.1-0.2,0.1C1693.5,290,1699.6,283.6,1705.7,277.2z M1647.6,319.1c-0.1,0.4,0,0.8,0.2,1.2
		c-3.3,2.1-6.5,4.3-9.7,6.5c-0.7,0.3-1.5,0.7-2.2,1C1639.8,325,1643.7,322.1,1647.6,319.1z"/>
	<path class="st8" d="M1518,415.3c17.4,0,34.7-2.9,51.9-6.3c49.3-3.3,101.1,10.4,149.4,17.7c0.6,0.1,0.8-0.8,0.2-1
		c-31.7-5.8-63.3-12.1-95.1-17c-7.4-1.1-14.6-2.3-21.8-3.2c26.3-0.3,52.4,3.3,78.6,6c12.1,1.2,25.5,2.5,39.1,2.9
		c29.1,5.8,63,2.1,91.4-2.5c0.8-0.1,0.8-1.3,0-1.3c-15.1,0-30.2-0.1-45.3-0.3c10.7-2.7,20.7-6.8,29.4-13.1c0.7-0.5,0.9-1.3,0.8-2
		c32.4-7.4,63.3-20.5,88.5-41.8c2.1-1.7-0.5-4.7-2.7-3.5c-29.4,15.8-59,26.9-89.5,33.7c-13-0.2-26.2,0.1-39.3-0.4
		c5.4-0.7,10.8-1.6,16.1-2.6c8.6-1.2,17-2.8,25-4c1.4-0.2,1.5-2.2,0.1-2.4c3.8-1.2,7.6-2.5,11.3-3.9c1.8-0.7,1.6-3.5-0.5-3.5
		c-23.3-0.1-46.7,3.4-70,5.6c-6.4,0-12.7,0.3-18.9,1.3c-0.2,0-0.4,0.1-0.6,0.2c-5.6,0.4-11.2,0.8-16.8,1.2
		c-30.3-3.6-61.6-2.4-88,8.1c-0.7,0.3-1.2,0.9-1.3,1.6c-9,1-21.4,2.2-29,8.2c-21.7,2.8-43.1,7.5-64,14.9
		C1513.1,409.5,1513.8,415.3,1518,415.3z M1623.1,400.2c32.9-2.8,66.4,4.1,99.4,3.6c6.5-0.1,13.2-0.4,19.8-0.8
		c-4.6,0.4-9.2,0.7-13.9,0.9c-15,0.7-30.8-1.3-45.5,1.4c-0.6,0.1-1.1,0.4-1.5,0.8c-11.4-0.9-22.8-2-34.3-3
		c-12.9-1.1-25.7-1.5-38.4-1.3C1613.5,401.2,1618.3,400.6,1623.1,400.2z"/>
	<path class="st8" d="M1627.8,268.9c23.8-16.4,45.6-40,65.3-64.5c6.4-5.3,12.6-11,19.1-15.9c11.4-8.6,22-16.8,31.9-27.2
		c0.6-0.7-0.3-1.6-1-1c-7.6,7.3-16.3,13-25.2,18.6c9.9-10.4,19.5-21.2,29.6-31.2c12.9-12.9,22.3-26.2,27.3-43.9
		c0.4-1.4-1.5-1.8-2.2-0.8c-9,13.4-20.3,25.1-32,36.5c21.7-33,39.8-69.2,48.4-107.7c0.1-0.2-0.3-0.3-0.3-0.1
		c-10.2,27.3-22,53.1-36.1,77.7c-0.1-1.5-2.2-2.8-3.3-1.2c-7.4,10.2-14.8,20.4-22.4,30.4c-0.4-0.3-1.1-0.4-1.6,0.1
		c-27.7,24.4-57,51.7-74.2,85c-0.9,1.7,0.5,3.4,2,3.5c-5.1,6-10,12.2-14.7,18.5c-0.6,0.8-0.5,1.9,0,2.7c-4.7,5.5-9.1,11.1-13.3,17
		C1623.6,267.3,1625.3,270.6,1627.8,268.9z M1749.9,113.9c-9.8,16.8-20.7,33.2-33,49.1c-0.6,0.6-1.1,1.2-1.7,1.8
		C1727.4,147.8,1738.9,130.5,1749.9,113.9z M1719.9,147.6c-7.9,10.4-16,20.7-24.3,30.8c-7.5,9.2-15.6,18.1-23.6,27
		C1687.7,185.9,1702.7,165.9,1719.9,147.6z"/>
	<path class="st8" d="M1399.4,473.9c8.6-2.3,29,10.7,37.2,14.4c9.9,4.5,19.8,9.7,30.7,11.5c3.4,0.5,5.9-3.7,3.3-6.3
		c-2.2-2.2-4.7-4.1-7.3-5.8c3.9,1.8,7.7,3.6,11.3,5.4c19.8,10,38.5,22.4,60.9,25.1c2.4,0.3,5-3.1,2.6-4.9
		c-17.7-13-38.7-21.3-59.3-29.1c18.4,4.2,36.7,9.5,54.6,15c24.8,7.6,49.5,18.7,75.6,20.2c2.5,0.1,4.1-3.8,2-5.4
		c-22-16.8-50.2-25.2-79.4-30.6c1.1,0,2.1,0,3.2,0c8.2,2.3,16.7,3.6,25,5.7c13.4,3.4,26.6,7.6,39.5,12.4c3.2,1.2,6-3.6,2.7-5.1
		c-7.7-3.5-16.1-7.1-24.7-10.3c10.5,1.4,20.9,3,31.3,4.8c1.6,0.5,3.2,0.9,4.8,1.4c20.2,6.1,40,16.6,61.2,18c5.2,0.3,5.7-6.9,2.2-9.3
		c-26.4-17.5-67-24.7-101.6-28.2c-21.3-4.5-43-6.8-62.8-3.9c-7-0.2-14-0.5-21-0.6c6.1-0.9,12-1.8,17.8-2.5
		c33.9-4.3,66.4-4.3,100.1,2c57.1,10.8,116.2,37.5,175.1,25c1.8-0.4,1.2-3-0.4-3.1c-64.8-4.2-124.8-24.3-188.5-34.3
		c-27.7-4.3-54.6-4.1-82.3-0.1c-31.1,4.5-60.9,6.5-92.1,8.1c-1.9,0.1-2.7,1.8-2.5,3.3c-6.2-0.7-12.6-1.1-19-0.9
		c-1.9,0.1-1.8,2.8,0,3c-0.6,0.3-1.1,0.6-1.7,1C1395.7,471.3,1396.8,474.6,1399.4,473.9z"/>
	<path class="st8" d="M1219.4,600.1c5.7-0.3,11.4-0.6,17.1-0.8c0,0.7,0.2,1.5,1,1.8c14.2,6.3,30.7,8.5,47.2,9.5
		c-0.2,1,0.4,2.1,1.7,2.1c79.7-1,159.5,19.8,234.3,44.8c2.4,0.8,3.6-3,1.6-4.2c-34.6-21.1-76.5-28.9-116.1-34.9
		c-4.6-0.7-9.3-1.4-13.9-2c28.9,1.6,57.8,3.3,86.7,4.5c21.4,3.5,42.6,8.2,63.5,13.9c0.9,0.3,1.6-1.3,0.6-1.7
		c-11.3-4.8-22.9-9.1-34.7-12.8c16.5,0.4,33.1,0.6,49.3,2.9c32.8,4.6,64.6,13.7,96.5,22.1c3.5,0.9,5.6-4.6,2.3-6.2
		c-31.4-15.7-65.6-24.5-100.2-29.6c-2.9-0.4-6-0.9-9-1.3c4.1-0.2,8.2-0.4,12.4-0.5c3.1,0.3,6.2,0.6,9.3,0.9
		c34.2,4.2,68.3,16.8,102.4,18.6c2.6,0.1,3.5-4,1.2-5.2c-16.3-8.1-35.7-12.6-55.4-15.6c1.4,0,2.8,0,4.1,0
		c22.2,0.5,44.1,2.4,65.9,6.2c19.4,3.4,38.3,9.9,58.1,6.6c1.6-0.3,2.3-3,0.3-3.2c-22.2-2.2-42.1-13-63.8-17.9
		c-17.2-3.9-34.9-6-52.4-7.1c-43-2.8-86.3,0.2-129.3,2.2c-94.6,4.3-186.6-13.7-281.1,1.7C1216.2,595.4,1216,600.3,1219.4,600.1z
		 M1329.1,598.4c-3,0.1-6.1,0.2-9.1,0.4c-0.5,0-1,0.2-1.3,0.5c-3-0.4-6-0.8-9-1.2c-0.4-0.1-0.8-0.1-1.2-0.2
		C1315.3,598.1,1322.2,598.2,1329.1,598.4z"/>
	<path class="st8" d="M1445.5,708.1c31.7,9.9,72.8-0.3,104.5-6.7c34.7-7,68.4-17.3,100.5-32.5c3.3-1.6,2.3-7.2-1.6-5.9
		c-18.4,6.5-36.9,12.6-55.6,17.9c-0.1-0.1-0.3-0.2-0.6-0.2c-22,3.8-41.9,6.6-64.3,3.2c-19.6-3-38.3-10.6-58.2-11.9
		c-2.8-0.2-3.5,4.1-1.3,5.3c16.2,9,38.2,15.4,60.4,17.1c-4.4,0.5-8.8,0.8-13.3,1.1c-4.8-0.3-9.6-0.7-14.3-1.2
		c-14-1.7-27.6-6.8-41.6-7.4c-3.6-0.2-3.9,4.8-1.5,6.4c3.1,2.1,6.4,3.9,9.8,5.4c-7.8,1-15.5,2.3-22.9,4.5
		C1443,704,1443.3,707.4,1445.5,708.1z"/>
	<path class="st8" d="M1637.6,555.7c37.4-1.4,73.7-15.2,107.2-31.1c2.1-1,1.5-4.3-1-3.7c-35.8,8.4-69.1,24.3-106.3,25.9
		c-32.5,1.3-64.5-11.2-96.3-9.1c-2,0.1-2.9,3.2-1,4.1C1567.3,555.2,1607.5,556.8,1637.6,555.7z"/>
	<path class="st8" d="M1650,545c10.7,2.1,89.7-11.3,86.2-22.4c-0.3-0.8-1.2-0.6-1.5,0.1c-0.3,0.9-5.3,1.4-9.4,1.8
		c0.3-0.4,0.2-1-0.4-1c-11.3,0.2-22.2,1-33.4,2.5c-9.8,1.4-21.6,1-30.7,5.3c-1.6,0.8-2.3,2.9-1.4,4.2c-3.3,0.9-6.5,2-9.5,3.4
		C1647.5,540.1,1646.6,544.3,1650,545z"/>
	<path class="st8" d="M972.1,679.7c11.9-1.4,23.7-3.1,35.5-4.3c6.1-0.6,12.3-0.8,18.4-1.2c26.1,4.2,53.3,3.9,79.6,8.1
		c31.7,5.1,63.4,10.5,95.1,15.7c3.8,0.6,5.4-5.4,1.5-6.2c-34.4-6.8-68.7-14.4-103.3-20c-19.3-3.1-40.9-7.2-61.3-6.3
		c-0.6-0.1-1.2-0.2-1.7-0.4c4.1-0.5,8.2-0.9,12.3-1.1c18.4,1.9,37.6,0.6,55.9,1.4c25.2,1.2,50.3,3.1,75.5,5.3
		c48,4.2,95.8,9.2,143.8,13.2c2.3,0.2,3.4-3.4,0.9-3.8c-34.5-5.5-69.1-10.4-103.8-14.2c49.2,1.1,97.8,3.9,147.1,8.8
		c1.7,0.2,2.3-2.2,0.6-2.7c-58.4-20.1-126.3-13.2-187.2-14.1c-18.2-0.3-36.3-0.5-54.5-0.8c-22.5-2-45.4-3.3-67.1-1.5
		c-17.5-0.5-35.3,0.3-50.3,9.1c-0.3,0.1-0.4,0.4-0.6,0.6c-13.2,1.9-26.3,6-37,10.3C969.5,676.3,969.6,680,972.1,679.7z"/>
	<path class="st8" d="M862.6,752.6c25,10.2,51.4,15.9,78.2,18.7c54.8,5.8,114.2-1.5,166.8-18c2.4-0.8,1.8-4.3-0.6-4.4
		c-32.8-1.2-65,3.1-97.4,5.5c0.1-0.7-0.2-1.4-1.1-1.6c-16.7-4.9-34-8.7-51.6-11.8c29.1-2.3,57.9-5,84.4-2.2c2.6,0.3,3.7-3.5,1-4.3
		c-0.7-0.2-1.3-0.3-2-0.5c2.1,0.3,3.4-2.8,1.4-3.9c-32-17.3-73.1-17.2-108.7-17.4c-45.2-0.2-89.3,0.6-134.3-4.1
		c-1.1-0.1-1.8,0.7-2,1.5c-0.3-0.1-0.5-0.1-0.8-0.2c-1.9-0.4-2.8,1.9-1.7,3.2C810.1,732.7,840,743.4,862.6,752.6z M1000,755.1
		c-19.7,1.1-39.5,1.3-59.5-1.3c-18.8-2.4-37.5-6.5-55.9-11.3c11.3,1,22.9,1.1,34.5,0.8C946.1,748,973.2,752.3,1000,755.1z
		 M912.7,721c33.5-0.2,64.8,3.1,96.9,8.1c-22.9-1.6-45.8,0.6-69.3,0.9c-28.5,0.3-56.3-6-84.1-9.4C875.1,721.4,894.1,721.1,912.7,721
		z M833,718.7c-2.4-0.1-4.9-0.3-7.3-0.3c-1,0-1.7,0.4-2.3,1c-2.6-1.1-5.2-2.2-7.8-3.2C821.4,717.2,827.2,718,833,718.7z"/>
	<path class="st8" d="M710.4,758c2.5,0.5,5.1,1.1,7.6,1.6c7.5,2.3,15.1,4,22.8,5.7c0.1,0.6,0.4,1.2,0.9,1.6
		c35.5,28,86.9,40.2,132.7,43.3c12.1,2.9,24.4,4.9,36.4,6c0.5,0,1-0.8,0.4-1c-30.3-11.8-62-23.1-93.4-31.5c-0.9-0.2-1.6,0.1-2.1,0.7
		c-9.1-3.9-18.3-7.7-27.6-11.3c15.6,2.3,31.1,4.6,46.3,8.3c36.4,8.8,69.4,30.6,107.4,32.3c1,0,1.4-1.6,0.5-2.1
		c-35.7-16.6-70.6-36.1-109-45.8c-39-9.9-83-17.8-123.2-16.2c-4.1,0.2-4.3,5.8-0.8,7.1C709.4,757.3,709.8,757.8,710.4,758z"/>
	<path class="st8" d="M754.3,816.7c0.6,0,1.3,0,1.9,0c0.7-0.1,0.9-1.1,0.1-1.3c-0.6-0.2-1.2-0.4-1.9-0.4
		C753.3,814.7,753,816.7,754.3,816.7z"/>
	<path class="st8" d="M633.2,831.6c30.5,9.2,59.3,13.7,91,14.2c2.7,0,3.4-4.8,0.5-5c-30.1-2.7-60-12.1-88.7-21.2
		c-11.2-3.6-22.5-7.9-33.9-12.3c3.6,0.9,7.3,1.7,11,2.4c21.6,6.8,43.8,12,65.6,17.2c21.5,5.2,44.8,11.9,66.6,5.1
		c1.4-0.4,1-2.4-0.4-2.5c-26-1-51-7-75.9-13.7c6.4,0.6,12.7,1.1,18.9,1.9c30.1,3.7,60.1,7.9,90.4,9.8c3.3,0.2,3.5-4.9,0.6-5.8
		c-31.9-9.9-64.5-15.5-97.5-20.1c-29.7-4.2-61.2-10.8-91.1-6c-0.8,0.1-1.5,0.5-2.1,0.9c-14.3-3.9-28.9-6.6-43.4-9.6
		c-1.5-0.3-2.6,0.7-3,2c-0.3-0.1-0.6-0.1-1-0.2c-3.9-0.6-5.6,4.4-2.5,6.6C565.3,813.5,602.4,822.3,633.2,831.6z"/>
	<path class="st8" d="M530.3,875.5c26.5,25.1,61.2,39,96.3,47.3c2.4,0.6,4-3.4,1.6-4.3c-25.9-9.7-49.5-22.7-73.2-36
		c9,3.1,18,6.1,26.6,9.4c22.7,8.6,45.4,17.4,67.7,27c1.8,0.8,4-1.7,2.2-3.2c-19-15.8-42.8-23.2-65.3-32.5
		c-23.9-9.9-48-23.3-73.6-27.8c-2.5-0.5-4.2,1.5-4.3,3.6c-19.4-9.5-39.8-17.2-60.7-20.2c-2.1-0.3-3.6,2.8-1.5,3.9
		C473.4,855.4,502.4,864.2,530.3,875.5z"/>
	<path class="st8" d="M262.4,882.2c6.4,0.5,13,1,19.6,1.6c-0.7,1.2-0.1,3.1,1.7,3.2c105.9,6.5,190.7,83.9,294,102.6
		c1.7,0.3,2.9-0.7,3.2-2c1.4-0.1,2.5-1.9,1.2-2.9c-16.5-14.1-35.3-28.6-54.8-38c-2.2-1.1-4.5,2-2.7,3.8c7.7,7.1,16.5,13.6,25.6,19.6
		c-16-5.7-32.8-9.9-48.1-15.7c-26.9-10.3-52.6-23.2-79.1-34.5c-30.9-13.2-60.8-25.2-92.5-31.7c67.2,7.1,135.7,21.1,185.7,67
		c1.8,1.6,4-1,2.6-2.8c-29.4-36.2-75.5-49.6-119.2-60c-42.7-10.2-92.7-23.6-136.7-14.9C260.7,877.8,259.4,881.9,262.4,882.2z"/>
	<path class="st8" d="M320.7,915.9c35.8,11.3,71.7,23.8,108.5,31.3c1.8,0.4,3.1-2.5,1.2-3.3c-31.6-13.9-64.9-23.8-97.7-34.3
		c-35.3-11.4-71.7-26.1-108.4-31.8c-2.3-0.4-3.9,3.1-1.6,4.2C253.3,897.3,288.1,905.7,320.7,915.9z"/>
	<path class="st8" d="M181.3,879.8c37-4.4,74.2-5.7,111.3-2.1c34.8,3.3,67.7,12.8,101.8,19.6c2.2,0.4,3.7-3,1.5-4
		c-2.5-1.1-5-2.1-7.5-3.1c8.4,2.1,16.9,4.1,25.5,5.8c2.5,0.5,4.1-3.3,1.7-4.5c-46.4-23.9-108-29.3-161.5-22.9
		c-25,0.4-49.7,2.8-72.8,6.6C178.5,875.6,178.3,880.1,181.3,879.8z"/>
	<path class="st9" d="M1718.2,160.3c9.5-6.6,18-14.7,25.7-23.8c-1.2,2.5-2.4,5-3.4,7.6c-0.7,1.7,1.2,3.4,2.6,1.9
		c24.8-25.6,36.7-58.4,44.5-92.1c-0.9,15.3-6,28-11.7,42.3c-7.3,18-16.3,35.7-21.9,54.2c-0.6,2,2,3,3.3,1.7
		c14.6-14.7,19.3-38.3,26.3-57.3c2.4-6.5,4.3-12.7,5.7-18.8c-0.1,3.5-0.4,7.1-1,10.8c-2.2,13-8,24.8-12.2,37.2
		c-0.6,1.6,1.7,2.6,2.8,1.5c15.6-17.1,22.1-51.6,13.8-74.9c0.2-5.8,0-11.7-0.5-18.1c0.3-1.6,0.6-3.2,0.9-4.8c0-0.1-0.1-0.2-0.2-0.1
		c-0.1,0.1-0.2,0.2-0.3,0.3c-0.4-1.4-2.8-1.6-3.3,0.2c-0.5,1.9-1,3.8-1.5,5.7c-2.6,4.8-4.2,11.2-5.5,17.8
		c-5.5,16-12.4,31.3-20.9,46.1c-12.8,22.3-30.1,39.4-45.2,59.7C1714.9,159,1716.3,161.6,1718.2,160.3z"/>
	<path class="st9" d="M1756.5,246.3c3.8-1.4,7.8-3.1,11.8-5c-1.8,0.9-0.9,4.1,1.1,3.9c31.2-4.1,56.1-30.8,78.2-50.9
		c1.9-1.7-0.7-5.2-2.7-3.5c-18.8,15.6-37.2,28.9-57.7,40.5c30-17.7,60.5-44.3,75.1-70.4c0.2-0.3-0.2-0.7-0.5-0.5
		c-18.8,11.7-34.2,28.8-51.8,42.3c-17.9,13.7-37.9,24.6-55.6,38.5C1752.1,243,1753.2,247.5,1756.5,246.3z"/>
	<path class="st9" d="M1648.8,305.2c19.3-9.2,38.2-18.7,57.3-27.6c32.1-1.2,66.4-12.8,91.4-33.1c0.6-0.5,0.7-1.1,0.6-1.7
		c6.1-3.9,12-8.1,17.4-12.1c2.2-1.7,0.2-5.5-2.2-3.8c-7,4.9-14.3,9.5-21.9,13.5c-2.2,1.2-4.5,2.2-6.8,3.3c-0.5-0.4-1.1-0.6-1.8-0.4
		c-47.3,12.1-96.2,28.5-135.3,58.6C1646,303,1646.7,306.1,1648.8,305.2z M1769.3,255.3c-12,4.5-24.4,7.5-37,10.6
		c11.6-4.9,23.3-9.4,35.4-13.3C1767.1,253.7,1767.7,255.6,1769.3,255.3z"/>
	<path class="st9" d="M1806.2,392.2c24.5,3.6,50-6.3,70.4-19.2c1.6-1,1.2-3-0.1-3.7c12.4-6.7,24.1-14.4,34.6-22.3
		c1.9-1.4,0.9-5.4-1.8-4.2c-34.3,14.5-65.6,31-101.9,40.6c-2.5,0.7-2.3,3.8-0.4,4.8c-0.1,0-0.2,0-0.3,0.1
		C1804.6,388.5,1803.7,391.8,1806.2,392.2z"/>
	<path class="st9" d="M1754.4,394.2c13.2,4.6,27,6.6,40.8,6.5c20.6,2.7,41.3,1.2,60.7-8.5c1.8-0.9,0.5-4.1-1.4-3.2
		c-2.2,1-4.4,1.9-6.6,2.7c1.5-1.7,0.2-4.9-2.6-4.3c-30.2,6.9-59.5,5.3-90.1,3C1752.9,390.3,1752,393.4,1754.4,394.2z"/>
	<path class="st9" d="M1818.3,412.6c3.1-0.2,3.5-4.5,1.1-5.6c4-0.7,7.9-1.5,11.7-2.5c3.5-0.9,2.1-6.4-1.5-5.5
		c-19.2,4.5-37.2,2.3-56.6,0.7c-1.3-0.1-2.5,1-2.8,2.2c-11.2-2.3-22.4-5.1-34.1-7.8c-2.5-0.6-3.8,3.1-1.6,4.3
		C1759.4,412.6,1790.3,414.6,1818.3,412.6z"/>
	<path class="st9" d="M1695.5,488.7c30.9,10.7,68.8,12.2,100.6,5.5c2.6-0.6,2.1-5.2-0.7-4.8c-34,4.3-65.8-4.9-99.4-5.7
		C1693.1,483.6,1693.1,487.8,1695.5,488.7z"/>
	<path class="st9" d="M1789.8,500.1c1.8-0.5,1.5-3.8-0.5-3.4c-68.4,12.8-128.5-10-193.6-26.5c-2-0.5-3.3,2.8-1.4,3.6
		C1654.3,500.6,1725.1,519.8,1789.8,500.1z"/>
	<path class="st9" d="M1544.4,495.3c32.1,5.2,63,14.3,94.1,22.5c-1.2,0-2.1,1-2.4,2.1c-13.7-4.2-27.3-9.1-41.4-13.1
		c-2.4-0.7-3.7,3-1.6,4.2c28.7,15.7,61,25.8,94,24.3c2.8-0.1,3.6-3.1,2.5-5c10.5-0.6,21.1-2.2,31.9-4.3c1.1,0,2.2,0,3.2,0
		c3-0.1,3.1-4.4,0.4-5c-0.3-0.1-0.6-0.2-1-0.2c-0.2,0-0.4,0-0.7,0c-32.7-1.7-63.4-18.5-94.7-27.5c-29.3-8.4-61.7-17.1-92.3-15.5
		c-3.7,0.2-4.1,5.5-0.7,6.5c8.7,2.6,17.5,4.7,26.4,6.6c-5.5-0.8-10.9-1.6-16.3-2.3C1541.9,488.1,1540.2,494.6,1544.4,495.3z
		 M1691,522.4c-2.3,0-4.6,0.1-7,0c-3.5-1.7-7.1-3.3-10.7-4.8C1679.2,519.4,1685,521,1691,522.4z"/>
	<path class="st9" d="M1609.8,658.3c55.7-13.7,108.6-30.8,165.7-39.3c1.2-0.2,1.9-1.1,1.9-2.1c0.1-0.1,0.2-0.1,0.3-0.2
		c4.7,0.5,9.5,1.1,14.3,1.6c1.3,0.2,2.3-1.8,0.9-2.4c-44.8-19.2-101.1-21.4-147.9-8.8c-2.4,0.6-1.9,4.5,0.6,4.4
		c5.7-0.3,11.3-0.4,16.9-0.6c-5.3,1.6-10.5,3.6-15.5,5.9c-3.4,1.6-3.6,7.7,1.1,7.3c24.7-2,48.4-5.5,72.4-7.2
		c-39.9,4.5-80.1,15.6-113,35.6C1604.3,654.5,1606.4,659.2,1609.8,658.3z"/>
	<path class="st9" d="M1596.3,675.7c46.6-10.4,94.8-17.1,133.8-47c0.1-0.1,0.1-0.2-0.1-0.2c-18.8,3.6-35.5,12.4-53.5,18.6
		c-21,7.2-42.9,10.4-64.6,14.7c-43.7,8.8-79.6,17-123.6,5.8c-3-0.8-4.2,3.5-1.9,5C1518.8,693.7,1561.3,683.5,1596.3,675.7z"/>
	<path class="st9" d="M1621.7,661.9c1.9-0.4,1.5-3.6-0.5-3.4c-24.3,2.2-48.1,1.4-71.5-1.4c17.4,0.5,34.9-0.9,51.5-3.2
		c2.6-0.4,2.7-4.6-0.1-4.4c-35.3,3.6-68.4-1.8-103.3-5.8c-2-0.2-3,1.8-2.2,3.1c-9-2.2-18.1-4.7-27.2-7.4c-2.3-0.7-3.6,3-1.5,4.1
		C1514.3,669.4,1569.6,673.1,1621.7,661.9z"/>
	<path class="st9" d="M1211.2,666.4c20.6,1.1,41.1,0.3,61.7,0.9c-2.2,1.1-1.8,5,0.7,5.9c35.4,12.7,79.3,11.5,115.8,4.8
		c2.9-0.5,3.2-4.9-0.1-5c-9.4-0.1-18.8-0.6-28.2-1.1c-45-19.1-105-24.7-150.9-11.8C1206.7,661.1,1207.7,666.2,1211.2,666.4z"/>
	<path class="st9" d="M1282.4,694.2c28,4,55.8-0.3,83.1-7.2c2.6-0.7,2.1-5.4-0.7-4.8c-27.1,5-54.6,6-82,8.4
		C1280.8,690.7,1280.2,693.9,1282.4,694.2z"/>
	<path class="st9" d="M1374.8,689.6c1-0.5,0.7-2-0.5-1.7c-35.9,7.7-71.1,14.9-108,14.1c-36.7-0.8-71.6-9.4-107.2-17.4
		c-2.8-0.6-4.5,3.7-1.9,5C1220.7,721.9,1310.9,720.4,1374.8,689.6z"/>
	<path class="st9" d="M1193.2,683.3c39.7,12.5,85.2,9.6,126,5.2c3.4-0.4,3.5-5.9-0.1-5.6c-42.4,3.4-83.2-3-125.4-4.8
		C1190.7,678,1190.6,682.5,1193.2,683.3z"/>
	<path class="st9" d="M932.4,735.9c36.3-5.2,71.5-4,107.6,2.5c7.3,1.3,14.6,2.7,21.8,4c-10.5-0.2-20.9-0.2-31.2,0.2
		c-3.4,0.1-4.1,5.4-0.7,6.2c19.4,4.6,40.5,6.9,61.7,7.2c-31.1,2.4-62.3,5.5-92.8,8.4c-2.6,0.2-3.5,4.6-0.5,5
		c51.2,6.8,111.2,2.3,160.1-15.1c1.2-0.4,1.1-2.4-0.3-2.4c-2.4,0.1-4.9,0.2-7.4,0.3c1.3-0.2,2.6-0.3,3.8-0.5
		c1.2-0.2,1.8-2.3,0.3-2.5c-4.1-0.5-8.3-0.9-12.4-1.3c0.1-0.5-0.2-1.1-0.9-1.2c-65.7-9.9-145-44.7-209.9-16.4
		C929.1,731.6,929,736.4,932.4,735.9z"/>
	<path class="st9" d="M816.8,807c45,14.3,103.3,24.8,149.6,10.6c1.6-0.5,1.9-3.5-0.1-3.7c-9.5-0.9-19-1.4-28.5-1.8
		c-20.9-15.1-44.8-27.8-70.4-31.6c-2.1-0.3-3.8,2.5-2.5,4c-12.9-3.3-25.9-5.7-38.2-7c-2.2-0.2-4.2,3.3-1.6,4.3
		c26.3,9.9,53.7,20.2,81,28.7c-5.8-0.4-11.6-0.9-17.4-1.7c-23.8-3-47.2-6.7-71.2-7.9C813.8,800.6,813.6,806,816.8,807z"/>
	<path class="st9" d="M786.3,837.7c1-0.5,0.5-2-0.6-2c-13.9,0.4-27.6,2.5-41.3,4.4c0.2-1.5-0.6-3.3-2.7-3.3
		c-35.1-0.3-68.3-7.7-103-10.7c-2.7-0.2-5.1,4-2,5.2c5,2,10.2,3.6,15.4,5.1c-10.5-2-21-4.1-31.6-6.2c-2.7-0.5-4.5,3.6-1.8,4.9
		C664.4,857,740.7,862.8,786.3,837.7z"/>
	<path class="st9" d="M537.2,967.5c2.4,0.5,4-3.4,1.6-4.3C479.6,940,418.2,916.4,356.2,902c-3.3-0.8-5.4,4.4-2.2,5.9
		C411.1,935.7,475.3,953.6,537.2,967.5z"/>
	<path class="st9" d="M179.4,878.3c39.8-5.7,77.6,15.8,115.2,24.7c2.5,0.6,4-3.2,1.7-4.4c-9.1-4.8-18.8-8.6-28.7-11.9
		c2.5,0.3,5,0.7,7.5,0.9c2.9,0.3,5.3-4.1,2.1-5.6c-4-1.9-8.3-3.6-12.6-5.1c1.2,0.2,2.4,0.3,3.6,0.5c27.3,4.8,51.8,16.1,78,24.5
		c2.3,0.7,4.4-3,2.4-4.5c-18.4-13.4-42.2-22.8-67.4-28.1c17.2,0.7,34.5,2.2,52.4,5.2c25.1,4.2,50.2,9.6,73.8,19.6
		c12.8,5.5,28.1,20.4,41.7,21.2c0.9,0.1,1.5-1,1.6-1.7c0-0.4,0.1-0.8,0.1-1.2c0-0.5-0.4-0.8-0.7-0.9c-0.3-0.1-0.6-0.2-1-0.3
		c-0.3-0.1-0.7,0.3-0.6,0.6c-5.3-14.9-36.8-27.2-49.6-32.2c-23.1-9.2-47.7-14-72.2-17.9c-39-6.1-86.4-14.6-124,1.3
		c-1.6,0.7-2.3,2.3-2.2,3.7c-0.5,0.1-1,0.2-1.6,0.3c-8.6,0.3-17.1,1.2-25.2,2.7c-1,0.2-1.1,1.7,0,1.7c1.8,0,3.7,0,5.5,0
		c-0.1,0-0.3,0.1-0.4,0.1c-2,0.6-1.6,3.7,0.5,3.7c0.7,0,1.4,0,2.1-0.1c-0.7,0.3-1.5,0.5-2.2,0.8C178,876.5,178,878.6,179.4,878.3z"
		/>
	<path class="st1" d="M1727.2,200.1c69.6-16.9,71.6-131.7,66.5-186.4c-0.2-1.8-2.8-2.1-3.1-0.2c-5.3,30-2.9,60.8-8.9,90.8
		c-8,39.8-27.2,62.9-58.2,87.1C1719.3,194.7,1721.6,201.5,1727.2,200.1z"/>
	<path class="st1" d="M1685.3,322.6c32,4.4,69.7-20.2,92.2-41c32.3-30,52.8-74.7,73.4-112.9c0.4-0.7-0.4-1.6-1.1-1.1
		c-30.6,21.4-40.6,64.7-67,91.1c-15.1,15-33.2,27.7-52.5,36.7c-15.1,7-31.8,9.6-46.3,17.5C1680.2,315,1680.8,322,1685.3,322.6z"/>
	<path class="st1" d="M1798.7,422.8c44.9-16.5,89.3-50.8,119.3-87.7c1.3-1.6-0.3-4-2.2-2.8c-40.2,24.7-72.2,57.4-117.5,74.2
		c-21,7.8-42.4,11.8-64.8,10.8c-19.7-0.9-39-7.1-58.7-5.1c-4.3,0.4-6.2,6.6-2.1,8.8C1708.7,440.7,1761.4,436.5,1798.7,422.8z"/>
	<path class="st1" d="M1679.3,528.4c47.6-3.6,89.2-10.2,127.6-40.8c1.5-1.2,0.8-4.6-1.5-3.6c-17.6,7.8-34,18.4-52.5,24.1
		c-23.6,7.3-49.4,7-73.9,7.3c-22.4,0.3-44.8-0.4-67-3.9c-18.8-3-36.9-10.6-55.8-11.2c-5.1-0.2-7.7,7.4-4.1,10.6
		C1582.7,538.6,1641.5,531.3,1679.3,528.4z"/>
	<path class="st1" d="M1646.1,655.8c49.3-3.3,95.1-22.6,144.3-27.2c0.9-0.1,1.2-1.6,0.2-1.8c-45.9-8.4-87.3,13.8-132.4,18.2
		c-25.6,2.5-51.4,1.8-76.8-2.5c-21.8-3.7-44.3-13.4-66.3-12.3c-4.6,0.2-5.3,6-2,8.4C1545.5,661.2,1608,658.4,1646.1,655.8z"/>
	<path class="st1" d="M1120.6,684.8c38.5,11.8,88,5.8,127.8,5.2c45.9-0.7,90.4-4.5,135.6-11.9c0.9-0.2,1-1.6,0-1.6
		c-43.5,2.6-87.5,4.5-131.1,4.4c-24.6-0.1-49-1.1-73.5-3.3c-19.1-1.7-38.5-5.7-57.6-3.7C1115.7,674.5,1114.7,683,1120.6,684.8z"/>
	<path class="st1" d="M1048.7,771.3c37-4.5,73.7-16,109.1-27.2c2.1-0.7,1.8-4.2-0.6-4c-35.4,2.7-69.4,14.9-104.7,18.4
		c-19.5,1.9-38.9,1.1-58-3.1c-18.5-4-36.1-12.1-55.2-12.2c-5.7,0-6.5,7.6-2.5,10.3C966.5,773.2,1014.2,775.4,1048.7,771.3z"/>
	<path class="st1" d="M896.3,813.8c22.4,3.6,53.7,8.5,73.9-3.2c0.2-0.1,0.3-0.6,0-0.7c-11-4.1-21.1-2.7-33-3.8
		c-15.5-1.4-30.9-4.3-45.8-8.5c-25.2-7.2-52.9-25.9-79.8-21.1c-3.9,0.7-5.9,5.9-2,8.2C834.5,799.3,867.9,809.2,896.3,813.8z"/>
	<path class="st1" d="M709.2,848.8c33.3-0.5,68.3-5.4,101.2-10.5c2.6-0.4,2.7-4.3-0.1-4.4c-29.4-0.9-58.9,1.5-88.4,0.5
		c-28.6-0.9-58.8-15.5-86.8-11.5c-3.1,0.4-5.5,4.7-2.7,7.1C652.5,847.1,683.7,849.2,709.2,848.8z"/>
	<path class="st1" d="M590.5,912.2c25.8,5.6,52.4,9.6,78.5,3.8c2.3-0.5,1.6-4-0.6-4c-28.5-0.7-55.8-0.2-82.5-11.6
		c-18.7-8-35.1-22.4-54.8-27.6c-3.7-1-7,3.9-4.9,7C540,900.3,567.5,907.2,590.5,912.2z"/>
	<path class="st1" d="M440.6,919.2c17.7,10.2,34.9,21.3,52.1,32.3c29.1,18.6,62.4,41.6,97.9,44.2c2.3,0.2,4.1-3.1,1.6-4.3
		c-37.9-19.1-72.2-37.1-106.6-62.6c-23.6-17.5-51.9-43.9-82.6-43.7c-4.2,0-5.8,5.6-3.2,8.3C411.3,905.3,426.5,911.1,440.6,919.2z"/>
	<path class="st1" d="M1379.6,885.3c2,0.9,3.4-1.9,1.7-3.1c-30.9-22-62.6-41.1-90.2-67.6c-22.1-21.1-41.1-44.9-66.6-62.2
		c-2.5-1.7-4.8,2.7-2.3,4.3c30.7,20.3,52.6,50.7,80,75C1325.2,852.2,1351.3,872.9,1379.6,885.3z"/>
	<path class="st1" d="M1400.2,793.6c-21.2-16.2-41-33.2-59.2-52.7c-0.1-0.1-0.3,0.1-0.2,0.2c16.8,20.7,36.3,39.1,58.6,53.7
		C1400.1,795.1,1400.8,794.1,1400.2,793.6z"/>
	<path class="st1" d="M1528.6,761.4c1,0.3,1.6-1.3,0.7-1.8c-19.1-9.7-38.7-18.4-57.5-28.8c-0.2-0.1-0.3,0.2-0.2,0.3
		C1489,743.5,1508.3,754.9,1528.6,761.4z"/>
	<path class="st1" d="M1266.6,978.7c0.9,0.3,1.5-1.3,0.6-1.7c-74.9-34.1-140.6-73.1-197.2-134.1c-0.1-0.1-0.3,0.1-0.2,0.2
		C1122.3,901.6,1191.1,954.3,1266.6,978.7z"/>
	<path class="st1" d="M1114.7,937c-34.8-36.4-76.8-65.5-119.5-91.9c-0.8-0.5-1.4,0.8-0.7,1.3c42.7,27.1,80.3,59.5,118.8,92.2
		C1114.3,939.3,1115.6,937.9,1114.7,937z"/>
	<path class="st1" d="M1265.6,1073.4c0.7,0.4,1.6-0.8,0.9-1.3c-60.7-47.1-130.4-85.3-197.6-122.2c-0.1,0-0.1,0.1-0.1,0.1
		C1134.4,990.6,1198.3,1035.6,1265.6,1073.4z"/>
	<path class="st1" d="M1049.2,1038.8c-25.3-28.4-56.1-51.4-77.4-83.2c-17.6-26.3-30-54.1-52.7-76.8c-0.5-0.5-1.3,0.4-0.8,0.9
		c25.4,27,38,62.5,60.5,91.6c19.4,25.1,44.8,48.8,68.8,69.3C1048.7,1041.6,1050.2,1039.9,1049.2,1038.8z"/>
	<path class="st1" d="M1153.4,1177.4c-33.5-33-72.9-61-112-86.9c-0.3-0.2-0.7,0.4-0.4,0.6c38.1,28,73.7,58.8,110.9,87.9
		C1153,1179.8,1154.4,1178.4,1153.4,1177.4z"/>
	<path class="st1" d="M966.1,1106.9c-47.1-76.1-117.2-141.2-187.6-195.5c-1.9-1.4-4.4,1.4-2.6,2.8
		c72.9,56.7,129.9,123.5,188.8,193.9C965.4,1108.8,966.7,1107.7,966.1,1106.9z"/>
	<path class="st1" d="M864,1107.5c-30.1-45.9-67.6-85.5-110.1-120c-0.8-0.6-1.8,0.6-1.1,1.2c42.3,34.9,78.3,75,110.7,119.2
		C863.8,1108.2,864.3,1107.9,864,1107.5z"/>
	<path class="st1" d="M896.8,1144c0.2-0.3-0.3-0.5-0.4-0.2C896.1,1144.1,896.6,1144.3,896.8,1144z"/>
	<path class="st1" d="M810.5,1119c-38.8-59.6-86.5-117.2-146.5-156.1c-0.6-0.4-1.1,0.6-0.5,1c59.9,42.4,99.8,100.5,145.8,156.2
		C809.8,1120.7,810.9,1119.7,810.5,1119z"/>
	<path class="st1" d="M787.6,1147.2c-36.8-43.9-78-84.8-118.1-125.6c-0.6-0.6-1.4,0.4-0.9,1c37.5,43.1,75.8,87.1,117.7,126
		C787.2,1149.5,788.4,1148.1,787.6,1147.2z"/>
	<path class="st1" d="M694.2,1135.7c-23-36-50.2-69.5-76.2-103.3c-0.9-1.1-2.8,0.1-1.9,1.3c24.9,34.8,49.1,70.6,77,103.1
		C693.6,1137.4,694.7,1136.4,694.2,1135.7z"/>
	<path class="st1" d="M639.5,1203.2c-41.9-57.2-87-112.3-131.2-167.8c-0.1-0.2-0.4,0.1-0.3,0.2c43,56.3,85.6,113.5,130.9,168
		C639.2,1204,639.7,1203.5,639.5,1203.2z"/>
	<path class="st1" d="M597.5,1130.5c-18.4-40.7-47.5-77.1-77.5-109.8c-0.4-0.5-1,0.3-0.7,0.7c28.2,35.2,51.2,73.1,76.7,110
		C596.6,1132.5,597.9,1131.5,597.5,1130.5z"/>
	<path class="st1" d="M496.7,1155.2c-45.5-61.1-94.4-118.5-136.3-182.4c-1.4-2.2-4.8,0.1-3.4,2.2c41.2,62.6,85.1,128.2,138.2,181.5
		C496,1157.3,497.4,1156.1,496.7,1155.2z"/>
	<path class="st1" d="M354.8,1089.8c-10.6-34.5-31.2-66.5-53.4-94.6c-1.1-1.4-2.9,0.7-1.9,2.1c22.9,29.1,38,60,53.6,93.4
		C353.6,1091.7,355.1,1090.8,354.8,1089.8z"/>
	<path class="st1" d="M1450,549.2c-1.4,0-2.6,0-3.9-0.5c0.2-1,0.6-2,0.9-2.7C1448.1,547.1,1449.1,548.1,1450,549.2z"/>
	<path class="st1" d="M1331.6,606.4c-0.1,0.1-0.7,0.2-1.6,0.4l-0.5-0.3C1330.9,606.5,1331.6,606.4,1331.6,606.4z"/>
	<path class="st1" d="M1216.5,645.7c-0.3-0.1-0.7-0.1-1-0.2C1219.4,644.7,1218.8,644.8,1216.5,645.7z"/>
	<path class="st1" d="M1127.2,668.2c-0.2,0.1-1,0.1-2.1,0.3c-0.3-0.2-0.7-0.3-1-0.4C1126.1,668.1,1127,668.1,1127.2,668.2z"/>
	<path class="st1" d="M1040.9,694.1c-0.2,0.1-1,0.1-2.1,0.2c-0.4-0.2-0.7-0.3-1.1-0.5C1039.7,694.1,1040.7,694.1,1040.9,694.1z"/>
	<path class="st1" d="M977.9,727c-0.2,0.1-1,0.1-2.1,0.2c-0.3-0.2-0.7-0.3-1-0.5C976.7,726.9,977.7,726.9,977.9,727z"/>
	<path class="st1" d="M859,738.7c-0.2,0.1-1.1,0.1-2.5,0.3c-0.4-0.1-0.9-0.3-1.3-0.4C857.6,738.6,858.7,738.6,859,738.7z"/>
	<path class="st1" d="M767.2,749.5c-0.4,0-1.3-0.1-2.5-0.1c-0.4-0.2-0.9-0.4-1.3-0.6C765.5,749.1,766.7,749.3,767.2,749.5z"/>
	<path class="st1" d="M656.9,745.8c-0.4-0.3-0.8-0.5-1.2-0.8C661.4,746.7,660.4,746.2,656.9,745.8z"/>
	<path class="st1" d="M547.2,781c-0.4,0-1.3-0.1-2.6-0.2c-0.4-0.2-0.9-0.5-1.3-0.7C545.7,780.6,546.9,780.8,547.2,781z"/>
	<path class="st1" d="M485.4,791.9c-0.3,0-1.3,0-2.7-0.1c-0.4-0.2-0.8-0.4-1.3-0.6C483.9,791.6,485.1,791.8,485.4,791.9z"/>
	<path class="st1" d="M426.1,835.3c-0.4-0.1-0.9-0.2-1.4-0.3c2.2-0.1,3.5-0.3,4-0.3C428.4,834.7,427.4,834.9,426.1,835.3z"/>
	<path class="st1" d="M304.8,848.4c-0.3,0-1.3-0.1-2.6-0.1c-0.4-0.2-0.8-0.4-1.3-0.6C303.3,848.2,304.5,848.3,304.8,848.4z"/>
	<path class="st1" d="M270.4,879.4c-0.4,0.1-1.2,0.1-2.2,0.1c-0.3-0.2-0.7-0.4-1-0.6C269,879.2,270,879.4,270.4,879.4z"/>
	<path class="st1" d="M1759.4,175.8c-57.2,47-114.5,93.9-171.7,140.9c0.5-1.5,1-3,1.6-4.4c1.9-5.7,4.8-10.8,7.3-15.8s5-9.6,7.2-13.5
		c7-13.4,14.8-27.6,23.3-41.2c7.2-11.5,14.7-22.8,23-32.4c16.5-6.6,32.3-15.2,48.9-21.4C1711.7,183.1,1751.5,182.3,1759.4,175.8z"/>
	<path class="st1" d="M1694,461.5c-20.6-6.6-41.2-13.2-61.7-19.9C1653.4,445.8,1674.1,452.3,1694,461.5z"/>
	<path class="st1" d="M1632.3,441.6c-51.3-10.2-105.5-7.3-159.2,0.4c-3.9-2.6-7.6-5.2-11.2-8c-2.1-1.7-4.1-3.1-6-4.5
		c-1.9-1.6-3.7-2.8-5.5-4.1c1.2-1.2,2.4-2.3,3.7-3.5c0.6-0.6,1.3-1.3,2-1.7c0.7-0.9,1.4-1.4,2.1-2c2.9-3,5.8-4.4,9-6.1
		c3.2-1.6,6.4-3.1,9.8-4.5c1.7-1,3.4-1.9,5.1-2.7l5.2-1.8c13.9-4.6,28-7.8,38.5-10.6c12-3.2,24.5-6.5,37-9.7
		c-3.5-0.9-6.9-1.9-10.2-3.1c-8.9-3.2-16.6-7.6-22.7-11.1c11.2-13.9,29.4-23.6,43.6-31.5c65.6-9.8,131.2-19.5,196.9-29.3
		c4.3-0.6,8.7-1.3,13.1-1.9c-7,3.2-14,6.4-21.1,9.5c-79.2,35.2-160.8,65-244,89.5C1556.3,417.2,1594.3,429.4,1632.3,441.6z"/>
	<path class="st1" d="M1508,551.9c-14.5-4.3-28.4-10.2-41.5-17.5C1480.6,539.6,1494.4,545.4,1508,551.9z"/>
	<path class="st1" d="M1466.5,534.4c-33.2-12.4-67.6-21.4-102.5-27c16.6-1.4,33.6-1.7,48.8-0.6c-1.5-1-2.9-2-4.3-3.1
		c-4.2-3.2-8.4-6.3-12.2-9.6c-7.8-6.4-14.6-13.8-20.3-19.4c5-3.5,10.8-6.5,17.2-8.9C1411.5,494.3,1437,517.9,1466.5,534.4z"/>
	<path class="st1" d="M1311.1,537.5c-6.1-3-12-6-17-8.6c2.7-2.9,6.3-5.7,10.4-8.2c4.1-2.1,8.8-3.8,13.5-5.4c2.4-0.8,4.8-1.6,7.3-2.3
		c2.4-0.6,4.8-1,7.1-1.4c4.6-0.8,9.1-1.5,12.8-2.1c3-0.4,6.1-0.8,9.1-1.2c13.6,17.9,24.6,37.7,32.5,58.7c-6.8-2.1-13.3-4.5-19.7-7
		c-10.8-4.2-23.9-8.7-36.9-14.1C1323.7,543.4,1317.2,540.2,1311.1,537.5z"/>
	<path class="st1" d="M1153.7,627.4c-7.8-3.9-15.2-7.8-22-11.3c5.5-6.1,12.9-11.9,21.5-17.1c8.6-4.3,18.3-8,28.2-11.1
		c5-1.6,10-3.4,15-4.6s10-2.2,14.8-3c9.6-1.7,18.8-3.2,26.6-4.3c0.4,0,0.8-0.1,1.2-0.1c66.4,16.4,131.3,38.2,194.2,65
		C1340.7,627.3,1245.4,613.8,1153.7,627.4z"/>
	<path class="st1" d="M964.7,690.4c-5.8-2.6-11.2-5.3-15.8-8c4.2-3.1,9.4-6.1,15.3-8.9c2.9-1.3,6-2.5,9.2-3.7
		c1.5-0.6,3.2-1.2,4.8-1.7c1.6-0.7,3.2-1.3,4.9-1.9c3.3-1.3,6.7-2.3,10-3c3.3-0.8,6.6-1.6,9.8-2.4c6.4-1.6,12.4-2.8,17.6-3.9
		c27.6-5.9,58.6-11.9,87.8-13.7c12.1,13.5,24.2,26.9,36.3,40.4C1084.5,684.2,1024.6,686.4,964.7,690.4z"/>
	<path class="st1" d="M824.4,739.1c-8.1-4.6-16.1-9.1-23.3-14c-7.1-5-13.6-10.1-18.7-15c8.4-4.3,20.4-7.4,32.4-8.1
		c6.1-0.4,12.1-0.9,17.9-1.3c5.8-0.4,11.1-0.3,15.8-0.7c7.8-0.4,15.8-0.8,24-1.1c5.6-0.1,11.3-0.2,17-0.2
		c11.8,14.5,23.6,28.9,35.4,43.3c-28.1,3.6-56.5,5.3-84.9,5.1C834.7,744.7,829.5,742.1,824.4,739.1z"/>
	<path class="st1" d="M722.8,785.2c-6.6-4.9-13.4-10.3-19.8-15.9c-5.6-5.3-11-10.4-15.5-15.9s-8.2-11.1-11.2-15.9
		c7.7-2.1,17.3-1.7,26.8-0.3c9.6,1.1,18.9,3.3,26.2,4.3c2.7,0.4,5.4,0.8,8.2,1.1c5.6,12.1,11.2,24.1,16.8,36.2
		C743.9,781.4,733.4,783.6,722.8,785.2z"/>
	<path class="st1" d="M591.7,819.4c-15.4-3.2-31-5.6-46.6-6.9c-5.2-4.6-10.1-9.4-14.4-14.3c-4.8-5.6-8.9-11.3-12-16.3
		c7.8-2,18.2-2.8,27.9-1.4c4.9,0.7,9.9,1.2,14.6,1.6c4.6,0.5,8.9,1,12.7,1.5c5.5,0.5,11.2,1,16.9,1.5
		C590.9,796.6,591.3,808,591.7,819.4z"/>
	<path class="st1" d="M403.2,851.7c-2-2.4-3.9-4.9-5.7-7.4c-4.7-6.5-9-13-12.5-19.5c-3.4-6.6-6.1-13-8-18.6c8-0.2,18.3,1.4,27.4,5
		c4.6,1.7,9.3,3.3,13.8,4.8c4.4,1.6,8.5,3.1,12.1,4.3c8.7,2.9,17.8,5.8,26.7,8.9c0.7,10.1-6.5,22.8-17.3,25.8
		C427.8,858.3,415.5,855.1,403.2,851.7z"/>
	<path class="st1" d="M152.7,874c7.4-3,16.3-6,26.2-8.7c9.9-2.5,20.7-4.6,31.9-6.3c22.3-3.5,45.9-4.8,65.1-5.1
		c11.9-0.3,24,0,36.2,0.7c-2.8,0.6-5.7,1.3-8.5,1.9c-47.8,10.7-96.4,17.6-145.3,20.8C156.3,876.3,154.4,875.2,152.7,874z"/>
</g>
</svg>
