<?xml version="1.0" encoding="utf-8"?>
<!-- Generator: Adobe Illustrator 22.0.0, SVG Export Plug-In . SVG Version: 6.00 Build 0)  -->
<svg version="1.1" id="Calque_2_1_" xmlns="http://www.w3.org/2000/svg" xmlns:xlink="http://www.w3.org/1999/xlink" x="0px"
	 y="0px" viewBox="0 0 4000 682.9" style="enable-background:new 0 0 4000 682.9;" xml:space="preserve">
<style type="text/css">
	.st0{fill:#3F6E4D;}
	.st1{opacity:0.66;fill:#3F6E4D;enable-background:new    ;}
	.st2{fill:#86B77B;}
</style>
<g>
	<path class="st0" d="M1849.8,199.4c-9.4,13.6-18.7,27.1-28.1,40.6c1.1-1.7,2.3-3.4,3.4-5.1c5.7-8.4,11.6-17.1,17.8-25.7
		C1845.1,206,1847.4,202.7,1849.8,199.4z M1849.8,199.4c-9.4,13.6-18.7,27.1-28.1,40.6c1.1-1.7,2.3-3.4,3.4-5.1
		c5.7-8.4,11.6-17.1,17.8-25.7C1845.1,206,1847.4,202.7,1849.8,199.4z M1849.8,199.4c-9.4,13.6-18.7,27.1-28.1,40.6
		c1.1-1.7,2.3-3.4,3.4-5.1c5.7-8.4,11.6-17.1,17.8-25.7C1845.1,206,1847.4,202.7,1849.8,199.4z M1849.8,199.4
		c-9.4,13.6-18.7,27.1-28.1,40.6c1.1-1.7,2.3-3.4,3.4-5.1c5.7-8.4,11.6-17.1,17.8-25.7C1845.1,206,1847.4,202.7,1849.8,199.4z
		 M1849.8,199.4c-9.4,13.6-18.7,27.1-28.1,40.6c1.1-1.7,2.3-3.4,3.4-5.1c5.7-8.4,11.6-17.1,17.8-25.7
		C1845.1,206,1847.4,202.7,1849.8,199.4z M1849.8,199.4c-9.4,13.6-18.7,27.1-28.1,40.6c1.1-1.7,2.3-3.4,3.4-5.1
		c5.7-8.4,11.6-17.1,17.8-25.7C1845.1,206,1847.4,202.7,1849.8,199.4z M1849.8,199.4c-9.4,13.6-18.7,27.1-28.1,40.6
		c1.1-1.7,2.3-3.4,3.4-5.1c5.7-8.4,11.6-17.1,17.8-25.7C1845.1,206,1847.4,202.7,1849.8,199.4z M1849.8,199.4
		c-9.4,13.6-18.7,27.1-28.1,40.6c1.1-1.7,2.3-3.4,3.4-5.1c5.7-8.4,11.6-17.1,17.8-25.7C1845.1,206,1847.4,202.7,1849.8,199.4z
		 M2296.3-0.1l0.9,1.8c0,0-6.7,3.6-18.3,9.8c-5.9,3.1-12.9,7-20.9,11.5s-17.1,9.6-26.7,15.3c-4.8,2.9-9.9,5.9-15.1,9.1
		c-5.2,3.2-10.4,6.6-15.8,10.1c-5.3,3.6-10.8,7.3-16.2,11.3c-2.7,2-5.4,4-8.1,6.1c-2.7,2.1-5.4,4.3-8.1,6.4
		c-10.8,8.8-21.6,18-32.2,27.8c-2.7,2.4-5.2,4.9-7.8,7.3c-1.3,1.2-2.6,2.3-3.9,3.7l-4,3.9l-4,3.9l-1,1l-0.1,0.1l0,0l-0.2,0.2
		l-0.5,0.5l-1.9,2c-2.6,2.6-5.1,5.3-7.5,8c-9.9,10.8-19.7,22.1-29.8,33.1c-5.1,5.5-10.2,10.9-15.5,16.1c-5.3,5.1-11,10.2-16.5,14.7
		c-11.4,9.2-23,16.8-33.9,23.9c-10.9,7.1-21.1,13.5-30.3,19.9c-9.1,6.4-17,12.7-23.5,18.7c-0.3,0.2-0.5,0.5-0.8,0.8
		c-6.2,5.7-11.1,11.2-15.1,15.8c-1.7,2-3.3,3.9-4.6,5.6c-0.1,0.1-0.2,0.2-0.3,0.3c0.4,0,0.8-0.1,1.2-0.1l0,0c1.4-0.2,2.7-0.3,4-0.4
		c1.6-0.2,3.2-0.3,4.7-0.5c3.7-0.4,7.3-0.8,11-1.2c1.8-0.2,3.5-0.4,5.3-0.6c2.2-2.3,5.7-5.7,10.2-10.1c4.3-4.1,9.6-9,15.7-14.5
		c4.8-4.3,10.2-9,16-14c1.6-1.4,3.2-2.8,4.9-4.2c7.7-6.6,16-13.8,24.8-21.4c8.8-7.6,18.1-15.6,27.8-23.8s19.8-16.5,30.2-24.8
		c5.2-4.1,10.4-8.4,15.8-12.5c5.3-4.1,10.6-8.3,16.1-12.4c10.8-8.1,22-15.8,33.3-23c11.3-7.2,22.5-14.3,33.4-21.2
		s21.6-13.5,32.2-18.9c5.3-2.7,10.6-5.3,15.8-7.5c2.7-1.2,5-2.1,7.7-3.1c2.6-1,5.1-1.9,7.6-2.7c10-3.3,19.4-5.5,27.9-6.6
		c8.5-1.2,15.9-1.5,22.1-1.4c6.1,0.1,10.9,0.8,14.2,1.2c3.2,0.6,5,0.9,5,0.9l-0.3,1.9c0,0-1.7-0.2-4.9-0.4s-7.9-0.4-13.8,0
		c-5.9,0.3-13.1,1.2-21.1,3.1c-4,0.9-8.3,2.1-12.6,3.6c-4.3,1.4-8.8,3.2-13.3,5.2c-2.3,1-4.6,2.1-6.9,3.2c-2.2,1.1-4.8,2.5-7.1,3.7
		c-4.7,2.6-9.4,5.5-14.2,8.6c-9.6,6.3-19.2,13.5-28.8,21.5c-9.6,8.1-19.1,17.1-29,26s-20.2,17.7-30.8,26.1
		c-5.3,4.2-10.8,8.2-16.2,12.3s-10.8,8-16.1,12c-10.7,7.9-21.5,15.5-31.9,22.7c-10.5,7.3-20.7,14.1-30.3,20.7
		c-9.7,6.6-18.8,12.7-27.3,18.4c-8.4,5.7-16.2,10.9-23.1,15.5c-7,4.5-13.1,8.4-18.2,11.4c-2.5,1.5-4.8,2.9-6.7,4
		c6.6-0.5,13.2-1,19.9-1.5c3.3-0.3,6.6-0.4,9.9-0.5c3.6-6.3,8.2-12.1,13.2-17.4c6.2-6.5,13.1-12.2,20.2-17.5
		c7.1-5.4,14.5-10.2,21.7-15.1l10.9-7.2c1.8-1.2,3.8-2.4,5.7-3.6l3.5-2.1l2.3-1.4c15.6-8.9,32-16.3,48.1-23.2
		c8-3.5,16-6.9,23.7-10.5c7.8-3.5,15.4-7.2,22.8-11.2c7.4-4,14.6-8.2,21.6-12.8c3.5-2.3,6.9-4.6,10.3-7.1c1.7-1.2,3.4-2.5,5-3.7
		l2.7-2.1l2.7-1.9l5.2-3.8c1.9-1.3,3.9-2.6,5.8-3.8c2-1.3,3.9-2.5,5.9-3.6c1.9-1.2,3.9-2.3,5.9-3.4c8.1-4.2,16.4-8.1,25.1-11.1
		c8.5-3.2,17.3-5.6,26.1-7.8l6.6-1.5c1.1-0.3,2.2-0.5,3.3-0.7s2.2-0.4,3.3-0.7c4.4-0.9,8.9-1.5,13.4-2.1c8.9-1.1,17.9-1.9,26.8-2.2
		c6.8-0.3,13.6-0.2,20.4,0.1v-0.2l6.5,0.5v2c-8.8,0.7-17.6,1.5-26.2,3c-8.6,1.3-17.2,3.2-25.6,5.3c-4.2,1.2-8.4,2.2-12.4,3.7
		c-4.1,1.3-8.1,2.8-12.1,4.3c-2,0.7-3.9,1.6-5.9,2.5s-3.9,1.7-5.8,2.6c-3.8,1.9-7.6,3.7-11.3,5.8c-7.5,4-14.5,8.6-21.4,13.2
		c-3.3,2.5-6.9,4.7-10.1,7.2c-0.8,0.6-1.6,1.2-2.4,1.8l0,0c-0.8,0.6-1.6,1.2-2.4,1.8l-2.9,2.3c0.9-0.5,1.8-1,2.7-1.5
		c7.2-3.9,14.5-7.7,21.9-11.2c7.5-3.6,15.1-6.9,22.8-9.9c7.7-3.1,15.6-5.7,23.6-8.1c8-2.3,16.1-4.3,24.4-5.8
		c8.2-1.5,16.5-2.5,24.9-3c1.7-0.1,3.4-0.2,5.1-0.2c6.6-0.2,13.3,0.1,19.9,0.7l0,0l0,0v2l0,0c-8.1,1.1-16.1,2.6-24,4.3
		c-7.8,1.9-15.6,3.8-23.2,6.3c-7.6,2.5-15.1,5-22.5,8c-7.3,3-14.7,6.1-21.9,9.4c-7.2,3.4-14.4,6.8-21.3,10.5
		c-7.1,3.7-14.1,7.5-21.1,11.4s-13.9,8-20.8,12.1l-20.7,12.4l-20.9,12.4c-7,4.1-14.1,8.1-21.3,12.1c-3.5,2-7.2,3.9-10.9,5.8
		c-3.7,1.9-7.1,3.7-10.9,5.6c-7.4,3.6-14.7,7.1-22.1,10.6l-22.1,10.1c-5.6,2.6-11.2,5.1-16.7,7.8c-1.7,0.8-3.5,1.7-5.2,2.5
		c-7.2,3.5-14.3,7.3-21.4,10.9c-3.7,1.8-7.4,3.6-11.2,5.3c1.7,0,3.3,0,5,0c4.8-0.1,9.6-0.1,14.3-0.1c7,0.2,13.9,0.4,20.9,0.5
		c0-0.4-0.1-0.7,0-1.1l-0.4-0.6l1.2-0.8l0.3-0.2l4.4-2.8c3.3-4.2,7.2-7.9,11.4-11.2c6.3-5,13.2-9.1,20.2-12.8
		c6.9-3.7,13.8-7.2,20.7-10.7s13.9-7,20.8-10.3c7-3.4,13.9-6.8,20.9-10.1c7-3.4,14-6.6,21-9.9c7-3.3,14.1-6.4,21.1-9.7l21.2-9.4
		c7.1-3.2,14.2-6.2,21.3-9.3s14.3-6.1,21.4-9.1c7.2-3,14.3-5.9,21.6-8.7c7.2-2.9,14.6-5.6,22-8.2c3.7-1.3,7.4-2.6,11.1-3.8
		c3.7-1.3,7.5-2.5,11.2-3.6c7.5-2.3,15.1-4.5,22.8-6.3c15.3-3.8,31-6.6,46.9-7.7l0.5,1.9c-2.4,1.1-4.9,2.1-7.3,3.1
		c-1.2,0.5-2.3,1-3.5,1.5c-3.6,1.5-7.2,3-10.7,4.6c-7.1,3.1-14.2,6.2-21.2,9.3l-21,9.5l-20.9,9.7l-21,9.7l-21.1,9.5
		c-7.1,3.1-14.2,6.2-21.4,9.2c-7.1,3-14.3,6.1-21.4,9l-21.5,8.8c-7.2,2.9-14.4,5.8-21.6,8.6c-7.2,2.8-14.4,5.7-21.7,8.4
		c-7.3,2.8-14.5,5.5-21.8,8.2s-14.6,5.3-21.9,8l-22,7.7c-0.5,0.2-0.9,0.3-1.4,0.5c-6.7,2.4-13.3,5-19.5,8.1
		c-3.7,1.9-7.3,4.1-10.7,6.6c-2,1.4-3.8,2.9-5.6,4.6c6.1,0.2,12.3,0.5,18.4,0.9c3.6,0.2,7.3,0.5,10.9,0.7c0.1,0,0.3,0,0.4,0v-0.1
		c0,0,1.2,0.1,3.4,0.3c2.3,0.1,4.7,0.3,7.1,0.6c0.4,0,0.9,0.1,1.3,0.1c2.3,0.2,4.6,0.4,6.8,0.7c2.5-1.5,6.2-3.7,10.8-6.4
		c2.4-1.4,5.1-2.9,8-4.5s6.1-3.3,9.5-5.1s7.1-3.7,11-5.6c3.9-1.9,8-3.9,12.3-6c8.5-4.2,17.9-8.4,27.8-13c9.9-4.5,20.5-9.1,31.5-13.8
		c5.5-2.3,11.1-4.6,16.8-7c5.7-2.3,11.5-4.5,17.4-6.7c11.7-4.5,23.8-8.5,35.9-12.4c12.2-3.8,24.4-7.4,36.6-10.7
		c6.1-1.6,12.1-3.3,18.1-4.8s11.9-2.9,17.7-4.4c11.7-2.7,23-5.3,33.7-7.4c5.4-1.1,10.6-2.1,15.7-3.1c5.1-1.1,10-1.8,14.7-2.6
		s9.3-1.6,13.6-2.3c4.4-0.6,8.5-1.2,12.3-1.8c3.9-0.5,7.5-1,10.8-1.5c3.4-0.5,6.5-0.8,9.2-1.1c11.2-1.2,17.5-1.8,17.5-1.8l0.4,1.9
		c0,0-0.8,0.3-2.3,0.7c-2.7,0.8-7.6,2.4-14.5,4.4c-10.6,3.2-25.8,7.7-44,13.1c-9.1,2.7-18.9,5.7-29.3,8.9
		c-10.3,3.2-21.2,6.6-32.5,10.1c-11.3,3.6-22.9,7.2-34.7,11.1c-11.8,3.7-23.7,7.8-35.7,11.7c-11.9,4.1-23.9,7.8-35.7,11.7
		c-11.9,3.7-23.5,7.4-34.8,10.9c-5.6,1.8-11.1,3.6-16.5,5.4c-5.4,1.8-10.8,3.4-15.9,5.2c-10.3,3.5-20,6.8-28.9,10.1
		c-8.9,3.2-17.1,6.1-24.3,8.7c-7.3,2.5-13.7,4.8-18.9,6.6c-2.1,0.7-4,1.3-5.7,2c1.9,0.2,3.8,0.4,5.7,0.6l5.3,0.5l5.3,0.7
		c3.5,0.5,7,0.9,10.5,1.4c4.4,0.6,8.9,1.1,13.3,1.8c0.2-0.2,0.4-0.4,0.6-0.5c1.9-1.8,4.9-4.2,9.1-6.5c4.1-2.3,9.6-4.3,15.7-6.9
		c6.2-2.6,13.1-5.4,20.7-8.4c7.6-3.1,15.8-6.2,24.6-9.6c8.7-3.3,18-6.7,27.6-10.2c6.5-2.3,13.2-4.6,20-6.9c3.3-1.1,6.5-2.2,9.8-3.3
		c10.2-3.4,20.6-6.6,31-9.9c10.5-3.1,20.9-6.3,31.3-9.1c10.3-2.9,20.6-5.6,30.5-8.1c5-1.3,9.9-2.4,14.7-3.6
		c4.8-1.1,9.5-2.3,14.1-3.3c9.2-2,17.9-3.9,25.9-5.4c4.1-0.8,7.9-1.5,11.6-2.3c3.7-0.6,7.2-1.3,10.5-1.8c6.6-1.1,12.3-2.2,17-2.8
		c9.5-1.3,14.9-2.1,14.9-2.1l0.2,0.9l0.2,1c0,0-5.3,1.1-14.7,3c-4.7,0.9-10.3,2.3-16.8,3.7c-3.2,0.7-6.7,1.5-10.3,2.3
		c-3.6,0.9-7.4,1.8-11.4,2.8c-7.9,1.9-16.5,4.2-25.5,6.6c-9,2.4-18.5,5-28.3,7.8c-9.8,2.9-19.8,5.8-30.1,9
		c-10.2,3-20.5,6.5-30.9,9.8c-10.3,3.5-20.6,6.8-30.6,10.4c-10.1,3.4-19.9,7.1-29.5,10.5c-4.8,1.7-9.5,3.6-14,5.3
		c-4.6,1.7-9.1,3.4-13.4,5c-8.7,3.4-16.9,6.5-24.4,9.7c-7.5,3-14.4,5.8-20.4,8.4c-3,1.3-5.8,2.5-8.5,3.6c-2,0.8-3.9,1.7-5.7,2.3
		c1.1,0.2,2.4,0.5,3.8,0.7c3.7,0.7,8.1,1.7,13.1,3c1,0.2,2,0.5,3.1,0.8c2.7,0.5,5.4,1.1,8.2,1.6l-0.8-1.3c0,0,1.1-0.9,3.2-2.6
		c2.2-1.6,5.1-4.2,9.4-6.9c1.2-0.8,2.5-1.6,3.8-2.5c1-0.7,2.2-1.3,3.3-2c2.7-1.5,5.5-3.2,8.7-4.8c3.1-1.6,6.5-3.3,10.1-5
		c3.7-1.6,7.5-3.2,11.6-4.8c8.2-3.1,17.1-6.1,26.8-8.7c9.6-2.7,19.8-5.3,30.5-7.6c10.6-2.4,21.6-4.6,32.8-6.6s22.6-3.9,34-5.7
		c5.7-0.9,11.4-1.9,17-2.8c5.7-0.8,11.4-1.6,17-2.5c4.2-0.6,8.3-1.2,12.4-1.7c7-1,13.9-1.9,20.7-2.7c10.8-1.2,21.2-2.4,31.1-3.2
		c9.9-0.9,19.3-1.5,28-2c8.7-0.4,16.7-0.7,23.7-0.8c7.1-0.1,13.2-0.1,18.3,0c5,0,9,0.3,11.7,0.3c2.7,0.1,4.2,0.1,4.2,0.1l0.1,2
		c0,0-1.4,0.1-4.2,0.2c-2.7,0.2-6.7,0.3-11.7,0.8c-2.5,0.2-5.3,0.4-8.3,0.6c-3,0.3-6.3,0.6-9.8,0.9c-7,0.7-14.8,1.5-23.4,2.5
		c-8.6,1-17.8,2.3-27.6,3.6c-9.7,1.4-20,3-30.6,4.8c-10.6,1.7-21.5,3.6-32.7,5.6c-11.1,2.1-22.4,4.1-33.7,6.2
		c-11.3,2.1-22.6,4.2-33.6,6.5s-21.9,4.4-32.3,6.8c-10.4,2.4-20.4,4.9-29.7,7.6c-9.4,2.6-18.1,5.5-26.1,8c-4,1.3-7.9,2.5-11.6,3.7
		c-3.6,1.3-7.1,2.4-10.4,3.5c-6.5,2.3-12.2,4.2-16.9,5.8s-8.4,3.1-11,3.9c-1.6,0.6-2.6,0.9-3.3,1.1c1.1,0.2,2.1,0.4,3.2,0.6
		c5.2,1.1,10.3,2.2,15.4,3.3l0,0c0,0,1.2-0.5,3.5-1.5s5.7-2.4,10-4.1c4.3-1.8,9.6-3.7,15.7-6c3.1-1.1,6.3-2.3,9.8-3.5
		s7.1-2.3,10.9-3.5c3.8-1.2,7.8-2.5,11.9-3.8c4.2-1.1,8.5-2.4,12.9-3.6c8.8-2.6,18.4-4.7,28.1-7.1c9.8-2.2,20-4.4,30.4-6.3
		c5.2-1,10.4-1.9,15.7-2.8l0,0c5.3-0.9,10.6-1.7,15.9-2.6c10.7-1.4,21.3-3,31.9-4.1c10.5-1.3,20.9-2.1,31-3c5-0.3,10-0.6,14.9-0.9
		c4.8-0.4,9.6-0.6,14.2-0.7c4.6-0.2,9.2-0.3,13.5-0.5c4.3-0.1,8.6-0.2,12.6-0.2c4.1,0,7.9,0,11.6,0c3.7,0.1,7.2,0.1,10.5,0.2
		c3.3,0.1,6.4,0.1,9.2,0.2c2.8,0.1,5.4,0.2,7.8,0.3c9.4,0.5,14.8,0.7,14.8,0.7v2c0,0-5.4,0.1-14.8,0.4c-2.3,0-4.9,0-7.8,0.2
		c-2.8,0.1-5.9,0.2-9.1,0.3c-3.3,0.1-6.7,0.3-10.4,0.4c-3.7,0.2-7.5,0.5-11.5,0.7c-4,0.3-8.2,0.4-12.5,0.7s-8.8,0.7-13.4,1
		c-4.6,0.3-9.3,0.8-14.1,1.2c-1.7,0.2-3.4,0.3-5.1,0.5c-3.2,0.3-6.4,0.6-9.6,0.9c-9.9,1.2-20.2,2.2-30.6,3.7
		c-10.4,1.3-20.9,3-31.4,4.6c-10.5,1.8-21,3.5-31.2,5.6c-10.3,1.9-20.3,4.2-30.1,6.2c-4.9,1.1-9.6,2.2-14.3,3.3
		c-2.3,0.5-4.6,1-6.9,1.6c-2.3,0.6-4.5,1.1-6.7,1.6c-8.9,2.2-17.3,4.2-25,6.2c-3.9,1-7.6,1.9-11.1,2.8c-3.5,0.9-6.8,1.8-10,2.7
		c-3.1,0.8-6.1,1.6-8.8,2.3c-2.7,0.8-5.2,1.4-7.4,2.1c-4.5,1.2-8.1,2.2-10.5,2.8c-0.1,0-0.1,0-0.2,0.1c6.3,1.5,12.6,2.8,18.7,4.3
		c5.2,1.3,10.3,2.5,15.4,3.8l-0.2-0.4c0,0,0.9-1,2.9-2.6c0.9-0.8,2.2-1.7,3.7-2.7s3.3-2,5.4-3c4.1-2.1,9.5-3.7,15.7-5.4
		s13.2-3.3,21-4.8c7.7-1.5,16.1-2.8,25-4.1c8.9-1.2,18.2-2.5,27.9-3.7l0,0c9.7-1.2,19.7-2.3,29.8-3.4c10.2-1.1,20.5-2.2,30.9-3.1
		c20.7-1.8,41.5-3.3,61-4.5c9.7-0.6,19.2-1.1,28.1-1.5c9-0.3,17.4-0.6,25.2-0.8s15-0.3,21.3-0.5c0.2,0,0.4,0,0.5,0
		c6.1-0.1,11.5-0.1,15.9-0.2c9.1,0,14.3,0,14.3,0l0.1,1.9c0,0-5.2,0.3-14.3,0.8c-4.5,0.3-10.1,0.6-16.4,0.9
		c-6.3,0.4-13.4,0.8-21.2,1.3s-16.2,1.1-25.1,1.8c-8.9,0.7-18.2,1.5-27.9,2.2c-19.4,1.7-40,3.6-60.6,6c-10.3,1.2-20.5,2.4-30.7,3.6
		c-10.1,1.2-20.1,2.5-29.6,3.8c-9.6,1.3-19,2.6-27.7,3.9c-8.8,1.3-17,2.7-24.5,4.1c-7.5,1.5-14.3,3.1-20.3,4.8
		c-6,1.6-11,3.4-15.3,4.4c-4.4,1.1-7.7,1.7-10.3,2.1c-0.2,0-0.3,0-0.5,0.1c15.4,3.9,30.2,7.8,44.3,11.5c1.4-0.8,3.8-2.3,7.2-3.9
		c2.8-1.4,6.3-2.9,10.4-4.4c4.1-1.6,8.8-3.1,14-4.7c5.1-1.7,10.7-3.3,16.7-5.1c5.9-1.7,12.2-3.4,18.8-5.2c6.6-1.6,13.3-3.4,20.3-4.9
		c6.9-1.6,14-3,21.1-4.4c7.1-1.2,14.2-2.5,21.3-3.5c7-1.1,14-1.9,20.7-2.7c3.3-0.4,6.7-0.7,9.9-1c3.3-0.3,6.4-0.7,9.5-0.8
		c6.2-0.4,12.1-0.8,17.5-0.9c2.7-0.1,5.3-0.2,7.8-0.2s4.8,0,7,0c4.4,0,8.3,0,11.5,0.2c6.4,0.3,10,0.4,10,0.4v1.9c0,0-3.6,0-9.9,0.1
		c-3.2,0-7,0.2-11.3,0.3c-2.2,0.1-4.5,0.2-7,0.3c-2.4,0.2-5,0.4-7.7,0.6c-5.4,0.3-11.2,1-17.3,1.5c-3.1,0.3-6.2,0.7-9.4,1
		c-3.2,0.4-6.5,0.7-9.8,1.3c-6.7,1-13.5,1.9-20.5,3.2c-7,1.1-13.9,2.6-21,4c-7,1.5-14,2.9-20.8,4.6c-6.9,1.6-13.5,3.4-20,5
		c-6.5,1.7-12.7,3.5-18.6,5.2c-5.9,1.8-11.4,3.4-16.5,5.1c-2.5,0.8-5,1.6-7.3,2.4c-2.3,0.8-4.4,1.6-6.5,2.2
		c-4.1,1.3-7.8,2.3-10.9,3.1c-1.2,0.3-2.4,0.6-3.4,0.8h0.1c11.6,3.1,22.5,6.1,33,8.9c0.3-0.3,2.8-2.2,7.2-4.8c2.4-1.4,5.4-2.9,9-4.4
		c1.7-0.7,3.7-1.5,5.7-2.3c2-0.7,4.2-1.4,6.5-2.1c4.5-1.5,9.4-2.9,14.7-4.4c5.2-1.5,10.8-2.9,16.5-4.4c5.8-1.4,11.8-2.8,17.9-4
		c2.4-0.5,4.8-1,7.2-1.5c2.3-0.4,4.7-0.8,7-1.3c1.5-0.3,2.9-0.5,4.4-0.8c6.3-0.9,12.6-1.9,18.8-2.6c6.2-0.8,12.3-1.4,18.3-1.8
		c2.8-0.2,5.6-0.4,8.3-0.5c0.2,0,0.3,0,0.4,0c2.9-0.1,5.7-0.3,8.4-0.3c5.5-0.1,10.6-0.2,15.4-0.1c2.4,0,4.7,0.1,6.9,0.1
		c2.1,0.1,4.2,0.2,6.2,0.3c3.9,0.2,7.3,0.4,10,0.7c4.9,0.5,7.9,0.8,8.6,0.9h0.1l-0.1,2c0,0-3.2,0-8.7,0c-2.8-0.1-6.1,0-9.9,0.1
		c-1.9,0-4,0.1-6.1,0.1c-2.1,0.1-4.4,0.2-6.8,0.4c-4.7,0.2-9.8,0.6-15.2,1.1c-2.7,0.2-5.4,0.5-8.2,0.8s-5.7,0.6-8.6,1
		c-5.8,0.8-11.8,1.5-17.9,2.5c-6.1,0.9-12.2,2.1-18.4,3.2c-6.1,1.3-12.3,2.4-18.2,3.9c-6,1.3-11.8,2.9-17.5,4.3
		c-5.6,1.5-11.1,2.9-16.2,4.5c-5.1,1.5-10,2.9-14.4,4.4c-4.4,1.4-8.5,2.7-12.2,3.6c-3.7,1-6.9,1.6-9.7,2.2c-1.6,0.3-2.9,0.5-4.1,0.7
		c5.9,1.6,11.5,3.1,16.9,4.5l0.6-0.8c0,0,1,0.2,2.6,0.8v-0.1c0,0,0.7-0.3,2-0.9c1.3-0.5,3.3-1.2,5.7-2c4.9-1.6,12.1-3.6,20.9-5.1
		c4.4-0.8,9.2-1.4,14.2-2.2c3-0.4,6-0.8,9.2-1.3c2.2-0.3,4.5-0.6,6.7-0.9c5.5-0.7,11.2-1.4,17-2.1c5.8-0.7,11.7-1.2,17.6-1.8
		c5.9-0.5,11.9-1,17.7-1.4s11.6-0.7,17.2-0.9c5.6-0.2,11-0.3,16.1-0.4c5.1,0,10,0,14.4,0.2c2.3,0.1,4.4,0.1,6.4,0.2
		c2.1,0.1,4,0.2,5.8,0.3c3.6,0.2,6.8,0.4,9.4,0.6c5.2,0.4,8.2,0.7,8.2,0.7l-0.1,2c0,0-3,0-8.1,0.1c-2.5,0-5.7,0.1-9.3,0.2
		c0,0,0,0-0.1,0c-3.6,0.1-7.7,0.3-12.1,0.4c-4.4,0.1-9.2,0.5-14.2,0.8c-5.1,0.3-10.4,0.7-15.9,1.2s-11.2,1-17,1.6
		c-5.8,0.5-11.6,1.3-17.5,1.9c-5.9,0.7-11.7,1.4-17.5,2.2c-5.7,0.8-11.4,1.6-16.9,2.3c-5.5,0.8-10.7,1.6-15.8,2.3
		c-5,0.8-9.7,1.5-14.1,2.2c-4.4,0.6-8.4,1.1-12,1.4c-3.6,0.3-6.8,0.4-9.4,0.5c-1.5,0-2.8,0-4,0l0.1,0.1c15.5,4,29.2,7.4,40.6,10.1
		c0.6,0.2,1.2,0.3,1.8,0.4l-0.1-1c0,0,2.5-1.3,7-2.5c2.2-0.6,4.9-1.2,8.1-1.6c1.9-0.3,4-0.5,6.2-0.6c1.4-0.1,2.9-0.1,4.4-0.1
		c7.8-0.1,16.9-0.1,26.7,0.1c4.9,0.1,9.9,0.3,15.1,0.5c5.1,0.2,10.2,0.6,15.4,0.8c0.1,0,0.1,0,0.2,0c5.2,0.4,10.4,0.8,15.5,1.3
		s10.1,1,15,1.7c7.8,1,15.1,2.1,21.7,3.3c1.7,0.3,3.2,0.6,4.8,0.9c1.9,0.4,3.8,0.7,5.5,1.1c0.1,0,0.1,0,0.2,0.1
		c1.7,0.3,3.2,0.7,4.7,1c3.1,0.7,5.8,1.3,8.1,1.9c4.5,1.1,7,1.8,7,1.8l-0.4,1.9c0,0-2.6-0.3-7.1-0.9c-4.5-0.6-10.9-1.3-18.7-2
		c-3.8-0.4-8-0.7-12.4-1.1c-4.4-0.4-9.1-0.7-13.9-1c-4.8-0.2-9.8-0.6-14.9-0.8c-5.1-0.3-10.2-0.4-15.4-0.6
		c-5.2-0.1-10.3-0.3-15.4-0.4c-3.3,0-6.6-0.1-9.8-0.1c-1.2,0-2.3,0-3.5-0.1c0.5,0.2,1.1,0.3,1.7,0.4c3.9,1,8,2.3,12.4,3.6
		s9,2.8,13.8,4.4c4.7,1.6,9.7,3.2,14.6,5.1c5,1.8,9.9,3.7,14.9,5.6c9.9,3.9,19.7,8.2,28.8,12.3c4.5,2.2,8.9,4.2,13,6.3
		c4.1,2,8,4,11.5,5.9c3.5,1.8,6.8,3.6,9.6,5.2c2.8,1.6,5.3,3,7.3,4.2c4,2.4,6.3,3.8,6.3,3.8l-0.3,0.6l-0.6,1.2c0,0-9.9-3.8-24.7-9.6
		c-3.7-1.4-7.7-2.9-12-4.5c-4.2-1.6-8.7-3.2-13.4-4.9c-4.7-1.6-9.4-3.5-14.3-5.2c-4.9-1.7-9.9-3.4-14.9-5.1c-5-1.7-10-3.4-14.9-4.9
		c-4.9-1.6-9.8-3.1-14.5-4.6c-4.7-1.4-9.3-2.8-13.6-4.1s-8.5-2.5-12.2-3.6c-3.8-1.2-7.2-2.5-10.2-3.7c-1.8-0.8-3.4-1.5-4.9-2.3
		l-0.1,0.3c0,0-0.7-0.1-2.1-0.4c1.4,0.7,2.8,1.4,4.2,2.2c2.5,1.3,5,2.9,7.8,4.5c2.7,1.6,5.7,3.3,8.7,5l0.8,0.5
		c5.8,3.3,12,6.8,18.1,10.3c12.9,7.3,25.9,14.6,35.5,20.1c9.7,5.5,16.2,9.3,16.2,9.3l-0.7,1.4l-0.2,0.4c0,0-1.7-0.7-4.8-1.9
		c-1.5-0.6-3.3-1.4-5.4-2.3c-2.1-0.9-4.5-1.9-7.1-3c-5.1-2.2-11.1-5-17.4-7.9c-6.3-3-13-6.3-19.6-9.7c-6.6-3.5-13.2-6.9-19.3-10.4
		s-11.8-6.6-16.6-9.5c-4.7-3-8.4-6-10.8-8.2c-1.6-1.5-2.7-2.7-3.2-3.3c-2.2-0.4-4.5-0.9-7.1-1.4c-4.9-1.1-10.6-2.1-16.9-3.6
		c-8.5-1.8-18.1-4.1-28.9-6.6l0.2,0.1c2.6,1.6,5.3,3.5,8.2,5.4c2.9,2,6,3.9,9.2,6c1.9,1.2,3.9,2.4,5.9,3.6c1.4,0.8,2.7,1.6,4.1,2.5
		c3.4,2.1,6.9,4.1,10.4,6.2c3.5,2,7.1,4,10.6,5.9c3.5,2,7,3.8,10.4,5.6s6.7,3.5,9.8,5.1c3.2,1.6,6.1,3.1,8.9,4.5
		c11.1,5.5,18.5,9.1,18.5,9.1l-0.7,1.8c0,0-2-0.6-5.5-1.5c-1.6-0.4-3.4-1-5.6-1.7c-0.2-0.1-0.5-0.2-0.7-0.2c-2.4-0.8-5.1-1.7-8-2.7
		c-3-1-6.1-2.1-9.4-3.4c-3.3-1.3-6.8-2.7-10.4-4.1c-3.6-1.6-7.3-3.1-11-4.9c-3.7-1.7-7.5-3.5-11.2-5.4s-7.4-3.8-11-5.9
		c-3.6-1.9-7-4.1-10.4-6c-3.3-2.1-6.5-4.1-9.5-6c-3-2-5.9-3.8-8.3-5.8c-2.5-1.9-4.6-3.9-6.4-5.7c-1.8-1.8-3.3-3.5-4.4-5
		c-0.5-0.6-0.9-1.2-1.3-1.8c-6.2-1.5-12.7-3.1-19.4-4.8c-2.2-0.6-4.4-1.1-6.7-1.7c-3.6-0.9-7.2-1.8-10.9-2.8
		c-0.3-0.1-0.5-0.1-0.8-0.2c0.1,0.1,0.2,0.1,0.3,0.2c1,0.6,2,1.3,3,2.1c0.3,0.2,0.7,0.5,1,0.7c3.9,2.9,8.2,5.9,12.8,9.1
		c4.5,3.2,9.4,6.5,14.4,10c5.1,3.3,10.3,6.9,15.7,10.3c5.4,3.5,10.9,7,16.4,10.5c5.5,3.4,11,7,16.5,10.3c5.5,3.5,10.9,6.6,16.1,9.9
		c10.5,6.3,20.4,12.2,28.9,17.2c7.3,4.3,13.5,8,18.2,10.9c0.8,0.5,1.6,0.9,2.3,1.4c4.9,3,7.7,4.7,7.7,4.7l-0.8,1.8
		c0,0-3.1-1.1-8.6-3.1c-2.7-0.9-6-2.2-9.8-3.7c-1.9-0.7-3.9-1.5-6-2.3c-2.1-0.9-4.3-1.8-6.6-2.7c-4.6-1.9-9.6-3.9-14.8-6.2
		c-5.2-2.2-10.7-4.8-16.3-7.4c-11.2-5.3-23.1-11.3-34.7-17.7c-5.8-3.3-11.6-6.4-17.2-9.8c-5.7-3.3-11.1-6.7-16.4-10
		c-5.2-3.4-10.4-6.6-15-9.9c-4.7-3.3-9.2-6.3-13.2-9.2c-4.1-2.9-7.6-5.9-10.4-8.9c-2.8-2.9-5.1-5.8-6.7-8.3
		c-1.4-2.2-2.5-4.1-3.2-5.6c-0.2-0.3-0.3-0.6-0.4-0.9c-7.5-1.9-15.2-3.8-23-5.7h-0.1c-7.9-1.9-16-3.8-24.3-5.8c-4-0.9-8-1.8-12-2.7
		c-1.1-0.2-2.1-0.5-3.2-0.7c-2.2-0.5-4.3-0.9-6.5-1.4c0.3,0.1,0.5,0.2,0.8,0.3c0.8,0.3,1.6,0.7,2.4,1.1c2.8,1.2,5.5,2.4,8.3,3.7
		c7.2,3.5,14.7,7,22.1,11c7.5,3.8,14.9,8,22.4,12.2c7.3,4.3,14.7,8.6,21.7,13.2c7.1,4.4,13.9,9.1,20.5,13.7
		c6.5,4.7,12.8,9.1,18.5,13.7c5.8,4.5,11.2,8.7,16.1,12.8c2.4,2,4.8,4,7,5.9s4.2,3.7,6.2,5.5c3.9,3.5,7.2,6.5,9.8,9
		c5.3,5.1,8.3,8.1,8.3,8.1l-1.2,1.5c0,0-3.5-2.4-9.6-6.7c-0.6-0.4-1.3-0.9-1.9-1.4c-2.6-1.9-5.6-3.9-9-6.2c-2.1-1.5-4.3-3-6.7-4.7
		c-2.4-1.6-4.9-3.3-7.5-5s-5.3-3.6-8.2-5.5c-2.8-1.8-5.8-3.7-8.8-5.7s-6.2-3.9-9.4-5.9s-6.5-4-9.8-6.1c-6.8-4-13.7-8.3-20.9-12.3
		c-7.1-4.2-14.5-8.1-21.8-12.2c-7.4-3.8-14.8-7.9-22.2-11.5c-7.3-3.8-14.6-7.2-21.7-10.6c-14.2-6.7-27.4-12.9-38.8-18.2
		c-5.7-2.7-10.9-5.2-15.5-7.5c-2-1-3.9-1.9-5.6-2.8c-0.6-0.1-1.2-0.2-1.8-0.3c-0.1,0-0.1,0-0.2,0c-4.2-0.6-8.3-1.2-12.5-1.9
		c-0.9-0.2-1.8-0.3-2.8-0.4c-2.6-0.4-5.1-0.8-7.7-1.1c-0.1,0-0.2,0-0.3,0c-4.2-0.5-8.5-1-12.7-1.5c-0.5,0-1.1-0.1-1.6-0.2
		c4,1.6,8.1,3.3,12.4,5c7.1,2.8,14.4,6,22,9.3c7.5,3.4,15.4,6.8,23.2,10.7c7.9,3.7,15.8,7.6,23.7,11.6c7.8,4,15.7,8.1,23.2,12.3
		c7.6,4.1,15,8.4,22.2,12.5c7.1,4.3,14,8.3,20.4,12.3s12.5,7.9,18,11.5c2.8,1.9,5.4,3.6,7.9,5.2c2.5,1.7,4.8,3.3,7,4.9
		c4.4,3.1,8.2,5.7,11.3,8c6.2,4.6,9.7,7.1,9.7,7.1l-1.1,1.6c0,0-3.8-2.2-10.5-5.9l-0.9-0.5c-3.2-1.8-6.9-3.9-11.2-6.3
		c-4.7-2.6-9.9-5.5-15.7-8.7c-2.9-1.6-5.9-3.2-9-4.9s-6.3-3.4-9.7-5.2c-6.6-3.6-13.7-7.2-21-10.9s-14.8-7.6-22.6-11.3
		c-7.7-3.9-15.6-7.5-23.5-11.3c-7.9-3.6-15.8-7.4-23.7-10.8c-7.8-3.5-15.6-6.8-23.1-10.1c-3.8-1.5-7.5-3.1-11.1-4.6s-7.2-3-10.7-4.4
		c-7-2.8-13.6-5.4-19.6-7.8c-6-2.5-11.5-5-16.3-7.3c-4.4-2.2-8.2-4.1-11.4-5.9c-0.3,0-0.6,0-0.8,0c-1.9-0.2-3.8-0.3-5.7-0.4
		c-1.7-0.1-3.3-0.2-5-0.2c-3.6-0.2-7.2-0.3-10.8-0.5c-1.2-0.1-2.4-0.1-3.6-0.2c-5.3-0.3-10.6-0.4-15.9-0.5c-0.1,0-0.2,0-0.2,0l0,0
		c-2.8,0-5.6-0.1-8.4-0.1c-0.1,0-0.3,0-0.4,0c-2.4,0-4.9,0-7.4-0.1c-0.7,0-1.4,0-2.1,0c0.4,0.1,0.9,0.1,1.4,0.2l0,0
		c3.2,0.4,6.9,1,10.9,1.7c5.3,0.9,11.3,2.2,17.6,3.8c3.2,0.8,6.5,1.7,9.9,2.6c3.4,1.1,6.9,2.1,10.5,3.2c7.2,2.3,14.6,5.1,22.3,8
		c7.6,3.1,15.4,6.5,23.1,10.3c7.8,3.7,15.5,8,23.1,12.4c7.5,4.5,15,9.1,22.1,14c7.3,4.7,14.2,9.6,21,14.1
		c6.7,4.7,13.3,9.1,19.4,13.3c3.1,2.1,6.1,4.1,9,6.1s5.7,4,8.4,5.8c5.4,3.7,10.2,7.2,14.5,10.3s8,5.8,11.1,8
		c6.1,4.5,9.6,7.1,9.6,7.1l-0.6,0.9l-0.5,0.7c0,0-3.8-2.1-10.3-5.9c-3.3-1.9-7.3-4.1-11.9-6.6c-4.6-2.5-9.9-5.3-15.6-8.3
		c-5.7-3-12-6.2-18.6-9.5c-6.6-3.4-13.8-6.5-21.2-9.8c-7.4-3.2-15.2-6.4-23.1-9.5c-6.2-2.5-12.6-4.9-18.9-7.4
		c-1.7-0.7-3.3-1.3-4.9-2c-8-3.1-15.8-6.5-23.5-9.9c-7.6-3.5-15.2-6.8-22.4-10.3c-3.6-1.7-7.2-3.4-10.6-5.1
		c-3.5-1.8-6.8-3.4-10.1-5.1c-6.6-3.4-12.8-6.6-18.5-9.7c-2.8-1.6-5.6-3.1-8.2-4.6c-2.6-1.4-5-2.9-7.3-4.2c-0.9-0.6-1.8-1.1-2.7-1.6
		c-3.5-2.1-6.5-4-9.2-5.7c-3.3-2.1-5.8-3.8-7.5-5s-2.6-1.9-2.6-1.9l0.2-0.5c-4.4,0.1-8.8,0.2-13.2,0.3c-2.9,0.1-5.7,0.1-8.6,0.2
		c-0.8,0-1.6,0.1-2.4,0.1c-0.3,0-0.7,0-1.1,0.1l-8.1,0.5h-0.9c0.8,0.2,1.6,0.4,2.5,0.6c3.2,0.8,6.7,1.6,10.2,2.6s7.1,2,10.9,3.1
		c3.7,1.1,7.5,2.3,11.3,3.6c3.8,1.3,7.7,2.7,11.7,4.2c3.9,1.6,7.9,3.2,11.9,4.9c4,1.6,8,3.5,12,5.4c8.1,3.6,16.1,7.8,24.1,11.8
		c7.9,4.3,15.9,8.4,23.6,12.9c7.7,4.3,15.1,9,22.2,13.4c7.1,4.6,13.9,9,20.2,13.4c3.1,2.2,6.2,4.4,9.2,6.5c2.9,2.1,5.7,4.2,8.4,6.2
		s5.2,4,7.6,5.9c2.4,1.9,4.6,3.7,6.8,5.4c4.3,3.4,7.9,6.5,10.8,9c5.9,5.1,9.2,8.1,9.2,8.1l-1.1,1.6c0,0-2.7-1.3-7.6-3.8
		c-1-0.5-2.1-1.1-3.3-1.7c-1.7-0.9-3.6-1.9-5.7-3c-2.1-1.1-4.4-2.2-6.7-3.4c-2.4-1.2-5-2.6-7.6-3.9c-2.7-1.4-5.5-2.8-8.5-4.2
		c-5.9-3-12.3-6.1-19.2-9.4c-3.4-1.7-6.9-3.4-10.5-5c-3.6-1.7-7.2-3.4-11-5.2c-7.5-3.4-15.1-7-23.1-10.5
		c-7.8-3.5-15.9-6.9-23.9-10.3c-8.1-3.3-16.1-6.7-24.1-9.8c-4-1.6-7.9-3.2-11.8-4.7c-3.9-1.5-7.8-3.1-11.5-4.6
		c-0.3-0.1-0.6-0.2-0.9-0.4c-3.5-1.4-6.9-2.8-10.2-4.2c-3.6-1.5-7.2-3-10.6-4.5c-6.9-3-13.4-5.8-19.5-8.4c-3-1.3-5.9-2.6-8.7-3.8
		c-2.8-1.2-5.4-2.3-7.9-3.3c-4.9-2.2-9-4.6-12.4-6.8c-1.3-0.8-2.5-1.7-3.5-2.5s-1.8-1.5-2.6-2.1c-0.1,0-0.2,0-0.3,0
		c-0.7,0.1-1.4,0.1-2.1,0.2h-0.1c-0.8,0.1-1.7,0.1-2.5,0.2c-0.1,0-0.1,0-0.1,0c-1.2,0.1-2.5,0.2-3.7,0.4c-0.3,0-0.5,0.1-0.8,0.1
		c-0.7,0.1-1.4,0.2-2.1,0.2c0.2,0.1,0.3,0.1,0.5,0.1c4.8,1.3,10.2,3.1,15.9,5.2c5.7,2.1,11.8,4.7,18.1,7.6
		c6.4,2.9,12.8,6.4,19.4,10.1c6.6,3.8,13.2,7.9,19.7,12.5c4.4,3,8.8,6.4,13.1,9.8c2.1,1.6,4.1,3.2,6.1,4.8
		c6.2,5.2,12.5,10.3,18.5,15.4c6.1,5.1,12,10.1,17.8,14.9c5.7,4.9,11.2,9.7,16.4,14.2c5.1,4.6,9.9,9,14.3,13.2
		c4.3,4.1,8.3,7.9,11.8,11.4c3.4,3.4,6.4,6.5,8.8,9c4.8,5.1,7.5,8,7.5,8l-1.3,1.4c0,0-3.2-2.4-8.7-6.6c-2.8-2.1-6.2-4.6-10.1-7.5
		c-3.9-2.9-8.3-6-13.2-9.4c-4.9-3.5-10.2-7.1-15.8-10.9c-5.7-3.8-11.7-7.7-17.9-11.7c-6.3-4-12.7-8.1-19.5-12
		c-6.7-4-13.7-7.7-20.6-11.5c-7-3.7-13.9-7.5-20.7-11.2c-6.7-3.8-13.3-7.7-19.5-11.6c-6.2-3.9-12.3-7.7-17.8-11.5
		c-5.7-3.7-10.8-7.5-15.7-10.9c-2.4-1.8-4.7-3.4-6.9-5.1c-2.2-1.6-4.2-3.2-6.2-4.7c-3.8-3-7.1-5.9-9.9-8.1c-1.1-0.9-2-1.7-2.9-2.5
		c-1,0.1-2.1,0.3-3.1,0.4c-1,0.1-2,0.3-2.8,0.4c-1.3,0.2-2.6,0.3-3.9,0.5c-2.6,0.4-5.2,0.8-7.8,1.2c-0.4,0.1-0.8,0.1-1.2,0.2
		c-0.5,0.1-1,0.2-1.5,0.2c-0.1,0-0.3,0-0.5,0.1c-2.5,0.4-5,0.8-7.5,1.2c1.5,0.6,3,1.2,4.5,1.9c1.4,0.6,2.9,1.1,4.4,1.9
		c1.4,0.7,2.9,1.4,4.4,2.1c2.9,1.4,6,3,9.2,4.5c3,1.7,6.2,3.5,9.4,5.3c1.6,0.9,3.2,1.8,4.8,2.7c1.6,1,3.1,2,4.8,3
		c3.2,2,6.5,4.1,9.7,6.2c3.2,2.2,6.4,4.5,9.6,6.7c3.3,2.2,6.4,4.7,9.6,7.1c3.1,2.5,6.4,4.8,9.4,7.4c3.1,2.5,6.1,5.1,9.2,7.6
		s5.9,5.3,8.8,7.9c5.9,5.2,11.3,10.6,16.6,15.8c2.6,2.6,5.1,5.3,7.6,7.9c2.4,2.6,4.9,5.1,7.1,7.7c4.5,5.1,8.8,9.9,12.4,14.5
		c1.9,2.3,3.6,4.5,5.3,6.6c1.6,2.1,3.2,4.2,4.6,6.1c2.9,3.8,5.4,7.1,7.3,10c3.9,5.6,6,8.9,6,8.9l-0.2,0.2l-1.3,1
		c0,0-2.9-2.6-7.9-7.4c-2.5-2.4-5.6-5.2-9-8.4c-1.7-1.6-3.6-3.3-5.6-5.1s-4.1-3.6-6.3-5.5c-4.3-3.9-9.1-8-14.2-12.3
		c-5-4.4-10.5-8.7-16.1-13.3c-2.8-2.2-5.8-4.5-8.7-6.8c-2.9-2.4-5.9-4.6-8.9-6.8c-3-2.3-6-4.6-9.1-6.8s-6.2-4.5-9.4-6.7
		c-3.1-2.2-6.3-4.3-9.5-6.4c-3.2-2.1-6.3-4.3-9.5-6.2c-3.2-2-6.3-4-9.4-5.9c-3.2-1.9-6.3-3.6-9.4-5.4c-1.6-0.9-3.1-1.8-4.6-2.7
		c-1.6-0.8-3.1-1.6-4.6-2.4c-3-1.6-6-3.1-8.8-4.6c-2.9-1.4-5.8-2.7-8.5-4c-1.4-0.6-2.7-1.3-4-1.9c-1.3-0.6-2.7-1.1-4-1.6
		c-5.1-2-9.8-4.1-14.1-5.4c-2.1-0.7-4.1-1.6-5.8-2.6c-0.9-0.5-1.7-1.1-2.5-1.6s-1.5-1-2.2-1.6c-2-1.6-3.6-3.3-4.9-4.9
		c-1,0.2-2.1,0.4-3.1,0.6c-1.6,0.3-3.2,0.6-4.8,0.9c-0.7,0.2-1.4,0.4-2.1,0.5c-0.6,0.1-1,0.2-1.3,0.3c-0.6,0.1-1.2,0.3-1.8,0.4l0,0
		c-0.5,0.1-1.1,0.3-1.6,0.4c1.7,0.3,3.5,0.8,5.3,1.4c0.3,0.1,0.7,0.2,1,0.4c1.3,0.5,2.7,1.1,4.1,1.8c1.7,0.9,3.4,2,5.2,3.1
		c3.6,2.2,7.5,4.8,11.5,7.4c4.1,2.6,8.3,5.6,12.7,8.6c4.4,3,8.8,6.3,13.3,9.6s8.9,6.8,13.4,10.2c8.8,7.1,17.4,14.4,25.3,21.5
		c3.2,2.9,6.2,5.7,9.1,8.5c4.2,4.1,8.1,8,11.6,11.6c1.5,1.5,2.9,3,4.2,4.4c1.3,1.4,2.5,2.8,3.7,4c2.3,2.6,4.3,4.7,5.9,6.6
		c3.2,3.7,5,5.9,5,5.9l-1.3,1.4c0,0-2.4-1.5-6.5-4.3c-4-2.8-9.8-6.7-16.7-11.5c-6.9-4.7-14.9-10.2-23.5-16.1
		c-4.3-2.9-8.7-5.9-13.3-9l-13.7-9.2c-4.6-3-9.3-6.1-13.8-9.1s-9.1-5.8-13.4-8.7c-8.7-5.5-16.8-10.7-23.9-15.1
		c-3.6-2.1-6.7-4.3-9.2-6.6c-2.5-2.4-4.4-4.8-5.9-7c-1.8-2.7-2.9-5.2-3.5-6.7c-0.3,0.1-0.7,0.2-1,0.3c-0.9,0.2-1.8,0.4-2.7,0.6l0,0
		c-2,0.5-4,1-6,1.5c-6.6,1.8-13.1,3.6-19.5,5.3c-1.6,0.4-3.3,0.9-4.9,1.3c-0.1,0-0.1,0-0.1,0c-0.4,0.1-0.7,0.2-1,0.3s-0.7,0.2-1,0.3
		c0.1,0,0.2,0,0.3,0.1c2.7,0.4,5.5,1.1,8.6,2c3.3,0.9,6.8,2.1,10.4,3.7c3.6,1.5,7.3,3.4,11.1,5.4c3.8,2,7.7,4,11.6,6.3
		c3.9,2.2,7.8,4.5,11.8,6.8c3.9,2.3,7.7,4.8,11.5,7.2c3.8,2.5,7.4,4.9,10.9,7.3c3.5,2.4,6.9,4.8,10,7.2s6.1,4.6,8.8,6.7
		c5.4,4.3,9.7,8,12.7,10.7c1.5,1.4,2.7,2.4,3.4,3.2c0.8,0.8,1.2,1.2,1.2,1.2l-1,1.7c0,0-0.6-0.2-1.6-0.5s-2.5-0.9-4.4-1.5h-0.1
		c-3.8-1.4-9.1-3.4-15.4-5.9c-3.1-1.3-6.5-2.7-10.2-4.2c-3.5-1.6-7.3-3.1-11.2-4.9c-3.9-1.7-7.8-3.6-11.9-5.3
		c-4-1.9-8.1-3.7-12.1-5.7c-4.1-1.9-8.1-3.9-12.1-5.8c-3.9-1.9-7.8-3.9-11.6-5.8c-3.8-1.9-7.4-3.7-10.7-5.7c-3.3-2-6.4-4-9.1-6.1
		s-5.2-4.1-7.3-6c-2.1-2-3.9-3.8-5.3-5.4c-0.7-0.8-1.4-1.6-1.9-2.3c-2.1,0.7-4.1,1.3-6.2,2h-0.1c-2.1,0.7-4.2,1.3-6.3,2h-0.1
		c-1.3,0.4-2.5,0.8-3.7,1.2c0.7,0.1,1.4,0.3,2.2,0.5c0.2,0.1,0.3,0.1,0.5,0.1c2.5,0.6,5.1,1.5,7.7,2.6c2.8,1.1,5.6,2.7,8.5,4.3
		s5.9,3.2,8.9,5.1c3,1.7,6,3.7,8.9,5.6c5.9,3.9,11.6,8.1,16.8,12.2c2.6,2.1,5,4.2,7.3,6.1c2.2,2,4.4,4,6.3,5.9
		c3.8,3.7,6.9,7,8.9,9.3c1,1.2,1.8,2.2,2.3,2.8c0.5,0.7,0.8,1,0.8,1l-1.2,1.6c0,0-0.4-0.2-1.2-0.4c-0.8-0.3-1.9-0.7-3.4-1.3
		c-0.8-0.3-1.6-0.7-2.5-1c-0.8-0.3-1.7-0.7-2.7-1.1c-2-0.8-4.2-1.7-6.6-2.8s-5-2.2-7.7-3.5s-5.6-2.5-8.5-4c-2.9-1.4-5.9-2.9-8.9-4.3
		c-3-1.6-6.1-3-9.1-4.6c-3.1-1.5-6.1-3.1-9.1-4.6c-3-1.6-5.9-3-8.7-4.6c-2.8-1.5-5.6-2.9-8.1-4.4c-2.5-1.6-4.8-3.2-6.8-4.9
		s-3.8-3.4-5.4-4.9c-1.5-1.6-2.8-3.2-3.8-4.5c-0.2-0.3-0.4-0.6-0.6-0.8c-0.3,0.1-0.6,0.2-1,0.3c-0.2,0.1-0.4,0.1-0.6,0.2
		c-0.5,0.2-1,0.4-1.5,0.5c-0.3,0.1-0.5,0.2-0.8,0.3c-1.4,0.5-2.7,1-4.1,1.4c-3.7,1.3-7.3,2.7-10.9,4.1c-0.2,0.1-0.4,0.2-0.6,0.3
		c0.8,0.5,1.6,1,2.5,1.6c2,1.3,4.1,2.6,6.2,4.1s4.3,3,6.5,4.6s4.4,3.3,6.6,5s4.3,3.4,6.4,5.2c2.1,1.7,4.1,3.5,6,5.3
		c3.8,3.5,7.3,6.9,10.1,10c2.9,3,5.2,5.7,6.7,7.6c1.5,1.9,2.4,3.1,2.4,3.1l-0.6,0.8l-0.6,0.8c0,0-5.5-1.8-13.1-5
		c-2-0.8-4-1.7-6.1-2.7s-4.4-2-6.7-3.1c-2.3-1.1-4.7-2.2-7.1-3.4s-4.8-2.4-7.2-3.6c-4.8-2.5-9.6-5-14-7.4c-2.2-1.2-4.3-2.4-6.4-3.5
		c-2-1.1-3.9-2.2-5.7-3.2c-1.7-1-3.3-1.9-4.8-2.7c-1.4-0.9-2.1-2.4-2.4-4.2c-0.1-0.2-0.1-0.5-0.1-0.7c-0.9,0.3-1.7,0.7-2.5,1
		c-0.1,0-0.1,0-0.1,0.1c-3.2,1.3-6.3,2.6-9.5,4c-1.7,0.7-3.3,1.4-4.9,2.2c0.3,0.2,0.5,0.5,0.8,0.7c1.9,1.5,3.9,3.3,6.3,5.1
		c1.2,0.9,2.3,1.8,3.5,2.7c1.3,0.9,2.5,1.8,3.8,2.8c2.6,1.9,5.4,3.8,8.2,5.8c1.4,1,2.9,2,4.3,3c1.5,1,3,1.9,4.4,2.9
		c2.9,2.1,6,3.9,8.9,5.9c3,1.9,5.9,3.9,8.8,5.7c1.4,0.9,2.8,1.9,4.2,2.8c1.4,0.9,2.8,1.7,4.1,2.6c2.6,1.7,5.1,3.4,7.5,4.9
		c2.3,1.5,4.5,3,6.4,4.2c1.9,1.3,3.6,2.4,4.9,3.4c0.1,0,0.2,0.1,0.3,0.2c2.6,1.8,4,2.9,4,2.9l-0.7,1.8c0,0-1.9,0-5.3-0.3
		c-1.7-0.1-3.7-0.4-6-0.7s-4.9-0.7-7.7-1.2c-11.3-2-26-6-40.3-12.1c-3.6-1.4-7.1-3.1-10.5-4.8c-1.7-0.8-3.4-1.8-5.1-2.7
		s-3.3-1.8-4.9-2.7c-3.2-1.8-6.3-3.8-9.1-5.7c-2.9-1.9-5.5-4-7.9-5.8c-2.4-2-4.5-3.9-6.4-5.6c-1.2-1-2-2.3-2.4-3.6
		c-0.7,0.3-1.4,0.7-2.1,1.1c-0.7,0.3-1.4,0.7-2,1.1c0,0,0,0,0.1,0.1c1.4,1.3,3,2.8,4.7,4.5c3.4,3.3,7.3,7.1,11.5,11.4
		c2,2.1,4.2,4.2,6.3,6.4c2.1,2.3,4.4,4.4,6.5,6.7c8.7,9.1,17.3,18.1,23.9,24.9c1.6,1.7,3.1,3.3,4.5,4.8c1.4,1.4,2.5,2.7,3.5,3.7
		c2,2.1,3.1,3.4,3.1,3.4l-0.4,0.6l-0.6,1.1c0,0-1.7-0.4-4.4-1.1c-1.4-0.3-3.1-0.9-5.1-1.5c-2-0.7-4.1-1.4-6.5-2.4
		c-2.3-0.9-4.8-2.1-7.4-3.3s-5.3-2.6-8-4.1s-5.5-3.1-8.3-4.8s-5.5-3.6-8.2-5.4c-2.7-1.8-5.3-3.8-7.9-5.7s-5-3.9-7.4-5.8
		c-4.8-3.8-9-7.5-12.6-10.8c-1.8-1.6-3.4-3.1-4.9-4.4c-0.7-0.7-1.4-1.2-1.8-2s-0.5-1.8-0.4-2.9c0-0.7,0.2-1.5,0.4-2.3
		c0-0.1,0.1-0.2,0.1-0.3c-2.5,1.5-5,3-7.4,4.5c-0.2,0.1-0.3,0.2-0.4,0.3c2,2.1,4.4,4.5,7.1,7.2c2.2,2.3,4.7,4.8,7.3,7.4
		c2.6,2.6,5.3,5.3,8.1,8.1c2.8,2.8,5.8,5.7,8.8,8.6c3,2.9,6.1,5.8,9.2,8.8c3.2,2.9,6.2,5.9,9.3,8.6c3.1,2.8,6.2,5.6,9.2,8.2
		c3,2.6,5.9,5.2,8.7,7.5c2.8,2.3,5.5,4.6,8.1,6.6c1.3,1,2.5,2,3.6,2.9c1.2,0.9,2.3,1.7,3.3,2.5c2.1,1.6,3.9,3.1,5.5,4.2
		c3.1,2.3,4.9,3.7,4.9,3.7l-0.3,0.5l-0.6,1.2c0,0-2.2-0.5-5.9-1.6c-1.9-0.4-4.2-1.2-6.8-2.1c-2.6-0.9-5.5-2-8.6-3.3
		c-3.2-1.2-6.5-2.8-9.9-4.5c-1.8-0.8-3.5-1.8-5.3-2.7c-1.8-1-3.7-1.9-5.5-3c-3.6-2.1-7.4-4.3-11.1-6.7c-3.7-2.3-7.4-4.9-11.1-7.5
		c-3.6-2.6-7.2-5.3-10.7-8s-6.8-5.5-10-8.1c-3.2-2.7-6.3-5.3-9.1-7.9c-2.8-2.6-5.5-5-7.9-7.3c-4.2-4-7.7-7.5-10.3-10.1
		c-0.2,0.2-0.3,0.3-0.5,0.4c1,0.5,1.8,1.2,2.6,2.1c1,1.1,1.7,2.5,2.6,3.9c0.3,0.4,0.6,0.9,0.9,1.3c0.6,1,1.3,2.1,2,3.2
		c1.1,1.5,2.2,3.2,3.4,4.9c2.3,3.4,4.9,7.1,7.7,11c1.4,2,2.9,3.9,4.4,5.9s3,4.1,4.6,6.1c3.2,4.1,6.6,8.3,10.1,12.6
		s7.3,8.4,10.9,12.8c3.8,4.2,7.5,8.4,11.4,12.4c3.8,4.1,7.7,8,11.4,11.8c3.8,3.7,7.4,7.4,11,10.8c3.6,3.4,6.9,6.6,10.2,9.5
		c1.6,1.5,3.1,2.9,4.6,4.2s2.9,2.5,4.2,3.7c2.6,2.4,4.9,4.4,6.9,6.1c4,3.3,6.1,5.3,6.1,5.3l-0.8,1.4l-0.2,0.3c0,0-2.8-1-7.6-2.8
		c-2.5-0.9-5.3-2.2-8.7-3.7c-1.7-0.8-3.5-1.6-5.3-2.5c-1.8-1-3.7-1.9-5.7-3c-4-2-8.2-4.5-12.7-7.1c-2.2-1.3-4.4-2.7-6.7-4.2
		c-2.3-1.5-4.6-2.9-6.9-4.5c-4.6-3.2-9.4-6.6-14-10.3c-4.7-3.5-9.2-7.5-13.8-11.4c-4.4-4-8.9-8.1-13-12.3c-4.3-4.1-8.1-8.5-12-12.6
		c-3.7-4.2-7.3-8.4-10.5-12.5s-6.3-7.9-8.8-11.7c-1.3-1.8-2.6-3.6-3.8-5.3c-0.1-0.1-0.2-0.2-0.2-0.4c-0.4-0.6-0.7-1.1-1.1-1.7
		c1,2.8,2.3,5.9,3.8,9.6c1.6,4.1,3.6,8.7,5.7,13.7c2,5,4.5,10.4,7,16.2c2.5,5.7,5.3,11.7,8.1,17.9c3,6.2,5.9,12.6,9.2,18.9
		c3.2,6.4,6.6,12.9,9.9,19.3c3.6,6.3,6.9,12.8,10.5,19c1.9,3.1,3.6,6.2,5.3,9.2c1.8,3,3.7,6,5.4,8.9c1.7,3,3.6,5.7,5.4,8.5
		c1.8,2.7,3.5,5.5,5.3,8.1c3.7,5.1,6.9,10.2,10.2,14.5c1.6,2.2,3.2,4.3,4.7,6.4c1.5,2,3,3.8,4.4,5.6c1.2,1.4,2.3,2.8,3.3,4.1
		c1.5,1.8,2.8,3.5,4.1,4.9c4.3,4.9,6.7,7.8,6.7,7.8l-1.3,1.4c0,0-3.1-2.2-8.3-6.2c-2.7-1.9-5.7-4.6-9.2-7.6
		c-1.7-1.5-3.7-3.1-5.5-4.9c-1.8-1.8-3.8-3.7-5.9-5.7c-4.2-3.9-8.2-8.5-12.7-13.3c-2.3-2.4-4.3-5-6.6-7.6c-2.2-2.6-4.5-5.2-6.6-8.1
		c-2.2-2.8-4.4-5.7-6.6-8.5c-2.2-2.9-4.3-5.9-6.5-9c-2.2-3-4.3-6.1-6.4-9.2c-2.1-3.1-4.2-6.3-6.2-9.4c-4-6.4-8-12.8-11.7-19.3
		c-3.7-6.4-7.2-12.8-10.5-19c-1.7-3.1-3.2-6.2-4.7-9.3c-1.5-3-3.1-5.9-4.4-8.9c-2.7-5.8-5.4-11.3-7.7-16.5
		c-2.3-5.1-4.3-9.9-6.1-14.1c-1.1-2.8-2.2-5.3-3.1-7.5c-0.5,0.6-1.1,1.2-1.6,1.7c-0.3,0.4-0.6,0.7-0.9,1.1c1.1,3.6,2.5,7.8,3.6,12.7
		c0.1,0.6,0.3,1.2,0.4,1.8c0,0,0,0,0,0.1c0.4,1.9,0.8,3.9,1.1,6c0.6,2.8,1.1,5.8,1.5,8.8c0.7,6.2,2,12.8,3.3,19.9
		c0.5,3.5,1.5,7.1,2.3,10.8c0.9,3.7,1.5,7.5,2.6,11.2c1,3.8,2,7.7,3,11.6c0.9,3.9,2.3,7.8,3.4,11.8c2.3,7.9,5.2,15.8,7.8,23.8
		c3.1,7.9,5.8,15.9,9.2,23.5c1.6,3.8,3.1,7.7,4.9,11.4c1.7,3.7,3.4,7.4,5,11s3.5,7.1,5.2,10.5s3.3,6.8,5.1,10
		c3.6,6.4,6.7,12.6,10.2,18c1.7,2.8,3.3,5.4,4.8,7.9s3.1,4.8,4.5,7c2.8,4.4,5.3,8.2,7.6,11.3c0.8,1.1,1.5,2.1,2.2,3
		c3.1,4.3,4.7,6.7,4.7,6.7l-1.5,1.2c0,0-3.1-3.1-8.5-8.5c-2.8-2.6-5.8-6.2-9.3-10.2c-1.7-2-3.7-4.1-5.6-6.5
		c-1.8-2.4-3.8-4.8-5.8-7.4c-4.1-5.1-8.2-11-12.5-17.2c-2.2-3.1-4.2-6.4-6.3-9.7c-2-3.4-4.3-6.8-6.3-10.4c-2-3.6-4.1-7.2-6.1-10.9
		c-2.1-3.7-3.9-7.6-5.9-11.4c-4-7.7-7.4-15.8-10.9-23.7c-3.1-8.1-6.6-16.2-9.2-24.4c-1.3-4.1-2.8-8.1-4-12.2c-1.2-4-2.3-8-3.5-12
		c-1.2-3.9-2-7.9-2.9-11.7s-1.9-7.6-2.5-11.3c-1.4-7.4-2.8-14.3-3.6-20.9c-0.4-3.2-0.8-6.4-1-9.4c-0.1-3,0-5.8,0.1-8.5
		c0.2-4.5,0.6-8.4,1.4-11.9c-0.1-0.1-0.1-0.1-0.2-0.1c-0.3-0.2-0.6-0.4-0.9-0.7c-0.9-0.7-1.6-1.6-2.1-2.5c-1.8-3.1-1.5-7.1,1-9.9
		c0.3-0.4,0.7-0.8,1-1.2c2.4-2.5,5.5-5.8,9.1-9.4c1.8-1.7,3.8-3.6,5.9-5.6c1-0.9,2-1.8,3.1-2.7c0-0.6,0-1.3,0-2
		c0-1.3,0.1-2.7,0.3-4.1c0.7-5.3,2.6-10.9,5-16.2c1.2-2.7,2.4-5.4,3.4-8.1l0.4-1l0.3-0.7l0.2-0.6c0.3-0.7,0.6-1.4,0.9-2.2
		c0.8-1.7,1.6-3.3,2.3-4.7c3.2-5.9,6.7-11.3,10.2-16.2c1.7-2.5,3.5-4.8,5.1-7c0.6-0.8,1.2-1.6,1.8-2.4c1-1.3,2-2.6,3-3.8
		c1.5-1.9,2.9-3.6,4.1-5.1s2.3-2.8,3.2-3.9c1.4-1.7,2.3-2.8,2.7-3.2c0.1-0.1,0.1-0.2,0.1-0.2l0,0l0.4,0.2l1.3,0.7
		c0,0-0.5,1.6-1.5,4.2c-1,2.7-2.6,6.4-4.6,10.7c-0.1,0.3-0.2,0.5-0.4,0.8c-1.9,4.2-4.3,8.9-6.7,13.9c-1.3,2.6-2.7,5.4-4,8.2
		c-1.3,2.7-2.7,5.5-3.8,8.3c-0.6,1.4-1.1,2.7-1.6,3.9c-0.2,0.7-0.5,1.5-0.7,2.2l-0.7,2.2c-1,3.2-2.2,6.2-3.4,9
		c-0.6,1.4-1.2,2.8-1.8,4.1c3.1-2.3,6.3-4.7,9.7-7.1c1.2-0.9,2.5-1.8,3.8-2.7c1-5.1,2.2-10.6,3.9-16.4c0.6-2,1.1-4.1,1.9-6.1
		c0.7-2.1,1.4-4.1,2.1-6.2c1.6-4.1,3.1-8.3,5-12.4c1.7-4.2,3.8-8.2,5.7-12.2c1-2,2.1-3.9,3.2-5.8c1-1.9,2.1-3.8,3.3-5.6
		c1.2-1.8,2.3-3.5,3.4-5.2s2.3-3.3,3.5-4.8c2.3-3.2,4.7-5.9,6.9-8.5c2.2-2.6,4.5-4.7,6.4-6.7c1-0.9,1.9-1.9,2.8-2.6
		c0.7-0.6,1.3-1.1,1.9-1.6c2.4-5.6,4.7-11.3,7.3-16.7c2.5-5.6,5.4-11,8.2-16.2c0.3-0.5,0.6-1.1,0.9-1.6c1.1-2,2.3-4,3.4-5.9
		c1.5-2.4,2.8-4.8,4.3-7.1s2.9-4.5,4.3-6.6s2.9-4.1,4.3-6s2.7-3.8,4-5.5c1.4-1.6,2.7-3.2,3.9-4.7c1.2-1.5,2.3-2.9,3.4-4.1
		c1.1-1.2,2.2-2.3,3.1-3.3c3.7-4,6-6.2,6-6.2l1.6,1.2c0,0-1.6,2.7-4.5,7.2c-0.7,1.2-1.6,2.4-2.4,3.8c-0.8,1.4-1.7,2.9-2.7,4.5
		c-0.9,1.6-2,3.4-3,5.1c-1,1.8-2.1,3.8-3.2,5.8c-2.3,4-4.5,8.4-7,13.1c-1.3,2.3-2.4,4.7-3.6,7.2s-2.5,5-3.7,7.6
		c-2.4,5.2-4.8,10.6-7.2,16.1c-2.5,5.5-4.7,11.2-7,16.9c-2.2,5.7-4.5,11.4-6.6,17.1c-2.1,5.7-4.2,11.2-6.2,16.6
		c-3.1,8.5-6.1,16.6-8.7,23.8c-0.7,2-1.4,4-2.1,5.8c-0.7,1.9-1.4,3.7-2,5.5v0.1c0.1,0,0.2-0.1,0.3-0.1c3-1.6,6-3.2,9.2-4.7
		c0.2-0.5,0.3-1.1,0.5-1.6c0.8-2.5,1.8-5.3,2.9-8.3c1.2-3,2.5-6.2,4-9.6c1.5-3.3,3.1-6.9,4.9-10.4l0.1-0.2
		c3.5-7.1,7.5-14.5,11.8-21.7c2.1-3.7,4.4-7.2,6.6-10.8s4.5-7,6.7-10.3s4.5-6.4,6.8-9.3c2.3-2.8,4.6-5.5,6.9-7.8
		c0.3-0.3,0.6-0.6,0.9-0.9c1.9-1.9,3.9-3.6,5.6-5.1c2-1.8,4-3.1,5.6-4.2c1.4-1,2.7-1.6,3.6-2.1c0.9-1.7,1.8-3.3,2.7-5
		c1.9-3.4,3.7-6.8,5.6-10.2l10.7-17.8l11-17.6c3.8-5.8,7.6-11.5,11.5-17.2l11.9-17c4-5.6,8.1-11.2,12.2-16.8l12.5-16.6l12.8-16.3
		c4.3-5.4,8.6-10.8,13-16.1c7.8-9.6,15.9-19.1,24-28.6l-0.1-0.1l2.8-3.1l1.6,1.2c-3.8,5.7-7.5,11.6-11.4,17.3
		c-3.8,5.7-7.6,11.4-11.5,17.1l-0.8,1.2l-11.6,17.2c0.5-0.5,1.1-0.9,1.6-1.4c2-1.5,3.9-3,5.8-4.5c2-1.4,3.9-2.8,5.8-4.1
		c6.6-4.5,13-8.2,19.1-11.6c1-0.6,2.1-1.1,3.1-1.7c7-3.7,13.4-7,19.1-9.9s10.5-5.6,14.5-7.8c2.9-1.7,5.4-3.1,7.3-4.2
		c0.7-0.4,1.3-0.8,1.9-1.1c2.1-1.3,3.2-1.9,3.2-1.9l1.4,1.4c0,0-0.8,1-2.5,2.9c-1.6,1.9-4.2,4.5-7.7,7.6c-1.7,1.6-3.7,3.3-5.9,5
		c-1.1,0.9-2.3,1.8-3.4,2.7c-1.2,1-2.5,1.8-3.8,2.8c-5.2,3.8-11.3,7.8-17.9,12.1c-0.6,0.4-1.2,0.8-1.8,1.1
		c-6.1,3.9-12.6,8-19.1,12.5c-1.7,1.3-3.5,2.6-5.3,4c-1.7,1.4-3.4,2.8-5.2,4.2c-1.6,1.5-3.2,2.8-4.9,4.5c-0.9,0.9-1.7,1.7-2.6,2.6
		l-1.3,1.3l-1,1.2c-6.2,6.8-11.7,14.8-16.9,23.3c-5.1,8.6-10,17.7-15,26.9c-10.2,18.2-20.3,36.4-29.8,53.4
		c-4.8,8.5-9.4,16.8-13.8,24.6s-8.6,15.1-12.5,21.9c-2.6,4.5-5.1,8.8-7.5,12.8c-1.1,1.9-2.3,3.8-3.4,5.6c-3.3,5.4-6.2,10.1-8.7,14
		c-1.9,2.9-3.4,5.4-4.7,7.3l-0.5,0.7c0.9-0.4,1.8-0.7,2.8-1.1c3.4-1.3,6.9-2.6,10.3-3.9c1.7-0.7,3.6-1.3,5.3-2
		c0.4-2.5,1.2-5.8,2.8-9.8c1.5-4.1,4.4-8.6,7.5-13.7c3.1-5.2,6.7-11,10.5-17.3c7.7-12.7,16.6-27.5,26.4-43.3
		c4.8-7.9,9.9-16.1,15-24.4c5.1-8.3,10.3-16.7,15.5-25.1c5.3-8.4,10.4-16.8,15.8-25.1s11.2-16.2,17.7-23.3c3.3-3.5,6.7-6.8,10.3-9.8
		c0.9-0.8,1.7-1.5,2.8-2.2c0.9-0.7,1.8-1.3,2.7-2c1.8-1.3,3.8-2.5,5.7-3.8c0.9-0.5,1.8-1,2.7-1.5l0,0c6.7-3.8,13.4-6.7,19.8-9
		c1.5-0.5,2.9-1,4.3-1.5c2.3-0.7,4.5-1.4,6.7-2c0.4-0.1,0.9-0.2,1.3-0.4c2.8-3.4,5.5-6.6,8.2-9.8c6-7.1,11.7-13.7,17.1-19.8
		c5.3-6.1,10.3-11.6,14.8-16.5c4.4-4.9,8.3-9.1,11.6-12.5c6.5-6.8,10.2-10.8,10.2-10.8l1.5,1.3c0,0-3.3,4.2-9.2,11.6
		c-2.9,3.7-6.5,8.2-10.5,13.3c-4.1,5.1-8.6,11-13.5,17.4c-5,6.4-10.3,13.3-15.8,20.7c-0.4,0.6-0.9,1.2-1.3,1.7
		c0.2,0,0.4-0.1,0.5-0.1c0.5-0.1,1.1-0.3,1.6-0.3c3-0.7,5.7-1.3,8.2-1.7c8.7-1.7,13.7-2.5,13.7-2.5l0.4,1.6l0.1,0.3
		c0,0-0.2,0.1-0.6,0.2c-1.6,0.4-6,1.6-12.7,3.4c-4.1,1.1-9,2.5-14.5,4.2c-0.1,0-0.2,0.1-0.3,0.1c-0.1,0-0.3,0.1-0.4,0.1
		c-3.9,5.3-7.9,10.7-12.1,16.3c-5.9,8.1-12.1,16.5-18.2,25.1c-6.2,8.5-12.3,17.4-18.5,26.2c-6,8.9-12.2,17.7-18,26.5
		c-5.9,8.7-11.6,17.4-17.1,25.9c-5.4,8.5-10.7,16.6-15.6,24.4c-4.9,7.8-9.5,15.2-13.7,22.1c-4.2,6.8-8,13.2-11.3,18.8
		c-2.9,5-5.8,9.3-8.6,12.7c4.2-1.2,8.4-2.5,12.7-3.7c0.3-0.1,0.6-0.2,0.9-0.3l-0.2-0.1c0,0,0-0.2,0.1-0.5c0.1-0.5,0.3-1.5,0.7-2.8
		c0.5-2.1,1.4-5.3,2.6-9.1c1.2-3.9,3-8.5,5.3-13.7c0.5-1.2,1.1-2.4,1.6-3.7c0.7-1.5,1.4-3,2.1-4.5c1.5-2.8,3-5.7,4.7-8.8
		c1.6-3.1,3.4-6.2,5.3-9.4c2-3.2,4-6.5,6.2-9.8c2.2-3.3,4.5-6.7,7-10c0.9-1.2,1.7-2.4,2.6-3.6l0,0c1.6-2.2,3.3-4.4,5-6.6
		c5.4-6.8,10.9-13.9,16.8-20.8c5.7-7,11.9-13.9,18-20.9c6.3-6.7,12.5-13.6,18.9-20c6.3-6.6,12.9-12.7,19.1-18.7
		c3.2-2.9,6.3-5.8,9.4-8.6s6.1-5.5,9.1-8.1s5.9-5.1,8.7-7.5c2.8-2.5,5.7-4.7,8.3-6.9c1.8-1.5,3.6-2.9,5.4-4.3
		c0.8-0.7,1.6-1.3,2.4-1.9c2.5-1.9,4.9-3.7,7.1-5.4c4.5-3.4,8.3-6.4,11.6-8.7c6.6-4.7,10.3-7.3,10.3-7.3l1.3,1.5
		c0,0-3.4,3.1-9.4,8.4c-3,2.6-6.6,5.9-10.7,9.7c-2,1.9-4.2,3.9-6.5,6c-2.2,2.2-4.6,4.5-7,6.9c-2.4,2.4-5,4.9-7.6,7.5s-5.3,5.3-8,8.1
		c-2.8,2.7-5.6,5.7-8.3,8.7c-2.8,3-5.7,6-8.6,9.2c-5.7,6.4-11.6,12.9-17.3,19.7c-5.9,6.7-11.5,13.8-17.3,20.8
		c-5.5,7.2-11.2,14.2-16.4,21.4c-5.4,7.1-10.4,14.3-15.2,21.2c-4.8,7-9.4,13.8-13.7,20.2c-2.2,3.2-4.4,6.3-6.5,9.2
		c-2.2,3-4.2,5.9-6.2,8.6c-2,2.7-4,5.4-5.8,7.8c-1.8,2.5-3.6,4.8-5.3,7c-1.7,2.2-3.4,4.2-4.9,6.1c-1.6,1.8-2.9,3.6-4.3,5.2
		c-0.5,0.6-1,1.1-1.4,1.6c-2,2.3-3.7,4.1-5,5.4c-0.2,0.2-0.4,0.4-0.5,0.5c1.3-0.4,2.6-0.8,3.9-1.1c0.5-0.1,0.9-0.3,1.4-0.4
		c3.2-0.9,6.5-1.7,9.8-2.5c2.3-0.6,4.7-1.2,7-1.8l-0.3-0.2c0,0,0.6-1.3,1.8-3.7c1.2-2.4,3-5.8,5.6-9.9c2.6-4.2,5.8-9.1,9.8-14.5
		c4-5.5,8.9-11.3,14.2-17.7c6-7.3,12.6-15.2,19.6-23.7c5.3-6.4,10.9-13.1,16.6-20c13.3-15.9,27.6-32.9,41.8-49.9
		c7.1-8.4,14.3-16.9,21.4-25.2s13.8-16.6,21.3-24.3c3.7-3.8,7.5-7.4,11.5-10.8c1-0.8,2-1.6,3-2.4l1.5-1.2l1.5-1.1
		c2.1-1.5,4.2-2.9,6.2-4.2c4.4-2.8,8.7-5.2,12.9-7.5c3.7-2.1,7.3-4,10.7-6c7.2-4.1,13.6-8.2,19.1-12c5.4-3.9,9.9-7.6,13.5-10.8
		c3.6-3.3,6.1-6,7.8-8c1.6-2,2.5-3,2.5-3l1.6,1.2c0,0-0.8,1.1-2.3,3.3c-1.6,2.1-4,5.2-7.3,8.8c-3.3,3.6-7.7,7.7-13,12.1
		c-5.3,4.3-11.6,8.8-18.7,13.4c-7.1,4.6-14.9,9.2-22.6,14.5c-1.9,1.3-3.8,2.7-5.7,4.2l-1.4,1.1l-1.4,1.1c-0.9,0.8-1.8,1.6-2.7,2.4
		c-3.6,3.3-7.1,6.8-10.4,10.6c-6.7,7.6-13.2,16.1-20.1,24.6c-6.8,8.5-13.7,17.1-20.6,25.8c-13.9,17.2-27.8,34.4-40.9,50.6
		c-13.1,16-25.4,31.1-35.9,43.9c-5.2,6.5-10.1,12.3-14.7,17.3s-8.8,9.2-12.4,12.5s-6.6,5.8-8.7,7.4c-0.2,0.2-0.3,0.3-0.5,0.4
		c2.9-0.7,5.8-1.5,8.8-2.3c5.9-1.4,11.8-2.6,17.7-3.9l0,0c0.3-0.1,0.7-0.1,1-0.2c1-1.8,2.4-4.1,4.3-6.9c4.1-6.4,10.4-15.3,18.6-25.3
		c8.2-10.1,17.8-21.8,28.3-34.2c5.3-6.2,10.7-12.6,16.3-19c5.6-6.5,11.3-12.9,17.1-19.4c11.5-13,23.1-25.8,34.1-37.8
		c5.4-6.1,11-11.6,16.6-16.6s10.6-10,15.2-14.5c9.2-9.2,16.9-16.8,22.3-22.2s8.4-8.5,8.4-8.5l1.5,1.3c0,0-2.8,3.3-7.7,9.1
		c-2.2,2.5-4.7,5.5-7.5,9c0,0,0,0.1-0.1,0.1c-3.6,4.4-7.8,9.4-12.4,15.1c-4.1,5-8.6,10.5-13,16.5c-2.2,3-4.5,6.1-6.9,9.1
		s-5.1,6-7.8,9c-10.7,12.2-22.1,25.2-33.5,38.2c-5.7,6.5-11.3,13-16.9,19.4s-11.2,12.7-16.5,18.7c-10.8,12.1-20.8,23.4-29.4,33.1
		c-4.6,5.2-9,9.9-12.9,13.8c-3.3,3.4-6.4,6.3-9,8.7c-0.5,0.5-1.1,0.9-1.6,1.4c-0.1,0.1-0.2,0.1-0.3,0.2c1.6-0.3,3.3-0.7,4.9-1.1
		c3.5-0.6,7-1.3,10.5-1.9c5.4-1,10.8-2,16.3-3c0-0.1,0.1-0.3,0.2-0.4c0.4-0.9,0.8-1.8,1.2-2.9c0.9-2,1.8-4.2,3.1-6.7
		c1.2-2.5,2.5-5.4,4.3-8.3c0.8-1.5,1.9-2.9,3-4.3c1.1-1.5,2.2-2.9,3.4-4.5c1.2-1.5,2.3-3.1,3.6-4.7c1.3-1.6,2.6-3.2,4-4.9
		c1.4-1.6,2.8-3.4,4.2-5.1c1.5-1.7,3-3.4,4.6-5.2s3.2-3.6,4.8-5.4c1.7-1.8,3.4-3.6,5.2-5.5c1.7-1.9,3.5-3.7,5.3-5.6
		c1.8-1.9,3.7-3.8,5.6-5.7c7.6-7.7,15.8-15.5,24.4-23.6c8.5-8,17.3-16.3,26.2-24.7c8.9-8.4,17.7-17.1,26.3-25.9
		c4.3-4.4,8.6-8.8,12.6-13.4c4.1-4.5,8.1-9.1,11.9-13.8c7.8-9.3,15.1-19,23.1-27.8c4-4.4,8.2-8.5,12.4-12.4c2.2-1.9,4.3-3.8,6.5-5.6
		c2.2-1.7,4.3-3.4,6.5-5.1c8.9-6.6,17.5-12.3,25.7-17.1s16.1-8.7,23.1-11.8c3.7-1.7,7.3-3.1,10.6-4.4c2.9-1.1,5.6-2.1,8.1-2.9
		c2.6-0.9,5-1.7,7-2.3c2.1-0.6,3.8-1.2,5.3-1.5c2.9-0.8,4.4-1.2,4.4-1.2l0.6,1.9c0,0-1.5,0.4-4.4,1.2c-1.4,0.4-3.2,0.9-5.2,1.6
		c-2.1,0.6-4.3,1.4-6.9,2.4c-5.1,2-11.3,4.5-18.1,7.9c-6.8,3.5-14.2,7.8-21.9,13.1c-3.9,2.6-7.6,5.6-11.5,8.7
		c-3.7,3.3-7.6,6.8-11.2,10.6c-1.8,1.8-3.6,3.9-5.5,5.9c-1.7,1.9-3.5,4.1-5.3,6.2c-3.5,4.3-6.9,8.7-10.5,13.2
		c-7.1,9-14.5,18.5-22.3,28.1c-3.9,4.8-7.9,9.6-12.1,14.3c-4.1,4.8-8.5,9.4-12.8,14c-8.8,9-17.9,17.8-27,26.2
		c-9,8.4-18,16.5-26.8,24.3c-8.7,7.8-17,15.4-24.7,22.8c-1.9,1.8-3.8,3.6-5.7,5.4c-1.8,1.8-3.6,3.6-5.4,5.4
		c-1.8,1.8-3.5,3.5-5.2,5.2s-3.3,3.5-4.9,5.1c-1.6,1.7-3.1,3.3-4.7,4.9c-1.4,1.7-2.9,3.3-4.2,4.8c-1.4,1.6-2.7,3.1-4.1,4.6
		c-1.1,1.2-2.1,2.5-3.1,3.7c-0.2,0.3-0.4,0.5-0.6,0.7c-2.3,2.9-4.5,5.6-6.5,8.1s-4.2,4.5-6.1,6.5c-1.2,1.2-2.3,2.4-3.2,3.5
		c-0.4,0.5-0.9,1-1.3,1.5c6.7-1,13.4-2,20.1-2.9c1.7-0.3,3.4-0.5,5.1-0.8c0.6-1.4,1.3-2.9,2.1-4.5c0.9-1.9,2.1-4.1,3.4-6.3
		c3.5-5.7,8.4-12.4,14.8-19.2c6.4-6.9,14.1-14.1,22.9-21.4c8.8-7.3,18.8-14.7,29-22.5c10.3-7.8,20.8-16,30.8-25.2
		c5.1-4.7,9.8-9.5,14.6-14.7c4.8-5.1,9.5-10.5,14.2-16c9.5-11,18.9-22.7,29.2-34c2.5-2.8,5.1-5.7,7.8-8.4l2-2.1l0.5-0.5l0.6-0.6l1-1
		l8.1-7.8c1.3-1.3,2.9-2.5,4.3-3.8c2.9-2.5,5.8-5.2,8.8-7.5c11.8-9.5,24.3-17.8,36.6-25.3s24.5-14,36-20.2
		c11.6-6.1,22.5-11.8,32.8-16.8c20.5-10,37.8-17.6,49.9-23.1c7.3-3.3,12.7-5.7,15.8-7.1C2295.2,0.4,2296.3-0.1,2296.3-0.1z
		 M2455.4,357.4c1.7,0.4,3.3,0.7,4.8,1.1l0,0c0,0,0.5,0.1,1.5,0.4c1.3,0.3,2.6,0.5,3.7,0.8c2.1,0.4,3.7,0.8,5.2,1.1
		c-1.1-0.7-2-1.3-2.7-1.7c-1.1-0.8-1.6-1.2-1.6-1.2v-0.2c-0.8,0-1.6,0-2.3,0.1C2461,357.6,2458.1,357.5,2455.4,357.4z M1755.9,330.2
		c2.1-0.7,4.2-1.5,6.4-2.2c0.1,0,0.2-0.1,0.4-0.1c3.5-1.2,7.1-2.4,10.7-3.6c0.5-2.4,1.3-5.3,2.5-8.7c0.8-2.3,1.8-4.7,3.1-7.2
		c1.3-2.6,2.9-5.2,4.6-8c3.4-5.7,7.2-12,11.5-18.9c0.7-1.1,1.4-2.2,2-3.3c3.7-5.9,7.7-12.2,11.9-18.8c2.5-3.9,5.1-7.9,7.8-12
		c1.6-2.4,3.2-4.9,4.8-7.3c1.1-1.7,2.3-3.4,3.4-5.1c5.7-8.4,11.6-17.1,17.8-25.7c2.3-3.3,4.6-6.5,6.9-9.8c3.9-5.5,7.9-11,11.9-16.4
		c6.5-8.6,12.9-17.3,19.5-25.7c6.4-8.5,13-16.6,19.4-24.5c1.4-1.7,2.8-3.4,4.1-5.1c0.1-0.1,0.1-0.1,0.2-0.2c-1.3,0.5-2.6,1.1-4,1.6
		c-1.2,0.5-2.4,1-3.6,1.6c-5.7,2.6-11.5,5.8-17.2,9.7c-1.6,1.3-3.3,2.3-5,3.7c-0.8,0.7-1.7,1.3-2.6,2.1c-0.7,0.6-1.6,1.4-2.4,2.1
		c-3.2,2.9-6.2,6.1-9.1,9.5c-5.8,6.9-11,14.7-16,22.9s-9.9,16.9-14.8,25.4l-14.9,25.5c-5,8.4-9.8,16.7-14.5,24.7
		c-9.4,16-18.4,30.8-26,43.6c-3,5-5.8,9.7-8.4,14c-0.7,1.2-1.4,2.3-2,3.4C1761.3,322.4,1758.8,326.9,1755.9,330.2z M1730.9,307
		c-3,6.1-6.1,12.2-9.3,18.3c-2.9,6.2-5.9,12.3-9,18.4c-0.5,1.1-1,2.3-1.6,3.4c3.3-1.4,6.7-2.8,10.2-4.1l0.1-0.3
		c0.9-2.1,2.5-6,4.9-11.3c1.8-4.2,4.1-9.2,6.8-15c2.7-5.7,5.8-12.2,9.3-19.2s7.3-14.6,11.4-22.5s8.4-16.4,12.8-25
		c6.9-13.3,14.1-27.4,21.4-41.6c-2.1,3.3-4.2,6.7-6.4,10l-10.8,17.5l-10.4,17.6l-8.4,14.7l-1.7,3.1c-3.2,6-6.6,11.9-9.9,17.9
		l-4.7,9.1L1730.9,307z M1683.3,359.4c2.5-1.2,5.1-2.4,7.7-3.6c1.6-0.7,3.3-1.5,4.9-2.2c3-1.3,6-2.6,9-4c0.7-2.7,1.4-5.4,2.2-8
		c0.5-1.7,1.1-3.3,1.6-4.9l0,0c1.6-4.9,3.2-9.9,5-14.8c2-5.3,4-10.5,6.1-15.8c-3.1,4.6-6.3,9.3-9.6,14c-2.4,3.5-4.8,7-7.2,10.5
		l-11.6,16.9c-2.6,3.8-5,7.3-7.2,10.5C1684,358.4,1683.6,358.9,1683.3,359.4z M1644.1,380.5c0.3-0.2,0.6-0.4,0.9-0.6
		c3.7-2.2,7.6-4.5,11.6-6.8c0.2-0.8,0.3-1.6,0.5-2.5c0.6-2.9,1.3-6,2.1-9.4c0.5-2.3,1.1-4.6,1.7-7.1c0.6-2.4,1.3-5,2-7.5
		c1.3-5.2,2.9-10.6,4.6-16.2c1.7-5.6,3.5-11.3,5.6-17.2c0.1-0.4,0.3-0.7,0.4-1.1c-0.1,0.1-0.2,0.3-0.2,0.4c-1.3,2.2-2.8,4.6-4,7.1
		c-0.8,1.7-1.8,3.3-2.7,5c-0.9,1.7-1.7,3.5-2.6,5.3s-1.7,3.7-2.6,5.5c-0.8,1.9-1.7,3.8-2.6,5.8c-1.7,3.9-3.3,7.9-4.8,11.9
		c-1.6,4-3,8.1-4.5,12.1c-1.3,4-2.8,8-4.1,11.8c-0.2,0.5-0.3,0.9-0.5,1.3C1644.6,379.1,1644.4,379.8,1644.1,380.5z M2077.9,281.9
		c0.3-0.4,0.5-0.8,0.8-1.3l-0.6,0.6C2077.9,281.4,2077.9,281.6,2077.9,281.9z M2002.9,282.8l7.8-0.3l11-0.5l0,0c1.3-0.1,2.6,0,4-0.1
		c4.7-5.2,10.2-9.7,15.9-13.7c6.7-4.7,13.9-8.6,21-12.7c7.1-4,14.3-7.8,21.5-11.6l21.6-11.2c7.1-3.7,14.3-7.5,21.2-11.3
		c3.4-1.9,7-4,10.5-5.9l10.3-6.1c1.6-0.9,3.2-1.9,4.7-2.8c-6.7,2.7-13.5,5.3-20.3,7.7c-3.3,1.3-6.6,2.5-9.9,3.7
		c-4.9,1.8-9.7,3.6-14.5,5.5c-8,3.1-15.9,6.5-23.6,10.1l-5.8,2.7c-1.9,1-3.7,1.8-5.6,2.9l-11.6,6.2c-7.8,4-15.5,8-23,12.2
		c-7.5,4.2-14.8,8.6-21.7,13.6C2011.7,274.6,2007.1,278.4,2002.9,282.8z M1849.8,199.4c-9.4,13.6-18.7,27.1-28.1,40.6
		c1.1-1.7,2.3-3.4,3.4-5.1c5.7-8.4,11.6-17.1,17.8-25.7C1845.1,206,1847.4,202.7,1849.8,199.4z M1849.8,199.4
		c-9.4,13.6-18.7,27.1-28.1,40.6c1.1-1.7,2.3-3.4,3.4-5.1c5.7-8.4,11.6-17.1,17.8-25.7C1845.1,206,1847.4,202.7,1849.8,199.4z
		 M1849.8,199.4c-9.4,13.6-18.7,27.1-28.1,40.6c1.1-1.7,2.3-3.4,3.4-5.1c5.7-8.4,11.6-17.1,17.8-25.7
		C1845.1,206,1847.4,202.7,1849.8,199.4z M1849.8,199.4c-9.4,13.6-18.7,27.1-28.1,40.6c1.1-1.7,2.3-3.4,3.4-5.1
		c5.7-8.4,11.6-17.1,17.8-25.7C1845.1,206,1847.4,202.7,1849.8,199.4z M1849.8,199.4c-9.4,13.6-18.7,27.1-28.1,40.6
		c1.1-1.7,2.3-3.4,3.4-5.1c5.7-8.4,11.6-17.1,17.8-25.7C1845.1,206,1847.4,202.7,1849.8,199.4z M1849.8,199.4
		c-9.4,13.6-18.7,27.1-28.1,40.6c1.1-1.7,2.3-3.4,3.4-5.1c5.7-8.4,11.6-17.1,17.8-25.7C1845.1,206,1847.4,202.7,1849.8,199.4z
		 M1849.8,199.4c-9.4,13.6-18.7,27.1-28.1,40.6c1.1-1.7,2.3-3.4,3.4-5.1c5.7-8.4,11.6-17.1,17.8-25.7
		C1845.1,206,1847.4,202.7,1849.8,199.4z M1849.8,199.4c-9.4,13.6-18.7,27.1-28.1,40.6c1.1-1.7,2.3-3.4,3.4-5.1
		c5.7-8.4,11.6-17.1,17.8-25.7C1845.1,206,1847.4,202.7,1849.8,199.4z"/>
	<path class="st1" d="M1616.4,537.4c2.3,7.9,5.2,15.9,7.8,23.9c3.1,7.8,5.8,15.9,9.2,23.5c1.6,3.8,3.1,7.7,4.9,11.4
		c1.7,3.7,3.4,7.4,5.1,11c1.6,3.6,3.5,7.1,5.2,10.5s3.3,6.8,5.2,10c3.6,6.4,6.7,12.6,10.2,18c1.7,2.8,3.2,5.4,4.8,7.9
		c1.5,2.5,3.1,4.8,4.5,7c2.8,4.4,5.3,8.2,7.6,11.3c0.8,1.1,1.5,2.1,2.2,3c-3.8-4.3-7.3-9-10.5-13c-12.2-15.5-23.2-31.9-32.7-49
		c-19.2-34.3-32.9-71.3-40.5-109.5c-2.1-10.8-3.8-21.6-4.9-32.5c-0.6-5.4-1-10.7-1.3-16.1c-0.2-4.5,1-11.5-0.5-15.7
		c2.2,6.1,4.5,12.2,6.8,18.3c0,0,0,0,0,0.1c0.4,1.9,0.8,3.9,1.1,6c0.6,2.8,1.1,5.7,1.5,8.8c0.7,6.2,2,12.8,3.3,19.9
		c0.6,3.5,1.5,7.1,2.3,10.8s1.5,7.5,2.6,11.3c1,3.8,2,7.7,3,11.6C1613.9,529.5,1615.2,533.4,1616.4,537.4z"/>
	<path class="st1" d="M1635,469.2c2.6,5.7,5.3,11.7,8.1,17.9c3,6.1,5.9,12.5,9.2,18.9c3.2,6.4,6.6,12.9,9.9,19.3
		c3.6,6.3,6.9,12.9,10.5,19c1.8,3.1,3.5,6.2,5.3,9.2s3.7,6,5.4,8.9c1.7,3,3.6,5.7,5.4,8.5c1.8,2.7,3.5,5.5,5.3,8.1
		c3.6,5.1,6.9,10.2,10.2,14.5c1.6,2.2,3.2,4.4,4.7,6.4s3,3.8,4.4,5.6c1.2,1.4,2.3,2.8,3.3,4.1c-49.7-50.5-87.1-112.6-107.6-179.4
		c-1-3.3-0.8-8.4,2.7-8.4c2.1,0,3.6,2.1,4.6,4c1,1.8,2,3.6,3,5.4c-0.4-0.6-0.7-1.1-1.1-1.7c1.1,2.8,2.4,5.9,3.8,9.6
		c1.6,4.1,3.6,8.7,5.7,13.7C1630,458.1,1632.5,463.4,1635,469.2z"/>
	<path class="st1" d="M1643.3,416.9c1.1,1.6,2.2,3.2,3.4,4.9c2.3,3.4,4.9,7.1,7.7,11c1.4,2,2.9,3.9,4.4,5.9s3,4.1,4.6,6.1
		c3.2,4.1,6.6,8.3,10.2,12.6c3.4,4.3,7.3,8.4,10.9,12.7c3.8,4.2,7.5,8.4,11.4,12.4c3.8,4.1,7.6,8,11.4,11.8c3.8,3.7,7.4,7.4,11,10.8
		c3.6,3.4,7,6.6,10.2,9.5c1.6,1.5,3.1,2.9,4.6,4.2s2.9,2.5,4.2,3.7c2.6,2.4,4.9,4.4,6.9,6.1c3.9,3.3,6.1,5.3,6.1,5.3l-0.8,1.4
		c-42.3-30.1-80.6-65.7-113.3-105.7c-3-3.7-6.1-7.6-7.1-12.2c-1-4.6,0.7-10.1,5.1-11.9c2.4,2.7,4.8,5.5,7.2,8.2
		C1641.9,414.8,1642.6,415.8,1643.3,416.9z"/>
	<path class="st1" d="M1649.6,386.7c2.1,1.9,4.3,3.7,6.5,5.6c-0.1,0.1-0.3,0.2-0.4,0.3c2,2.1,4.4,4.5,7.1,7.2
		c2.2,2.3,4.7,4.8,7.3,7.4c2.6,2.6,5.3,5.3,8.2,8.2c2.8,2.8,5.8,5.7,8.8,8.6c3,2.9,6.1,5.9,9.2,8.8c3.2,2.9,6.2,5.9,9.3,8.6
		c3.1,2.8,6.2,5.6,9.2,8.2c3,2.6,6,5.2,8.8,7.5s5.5,4.6,8,6.6c1.3,1,2.5,2,3.6,2.9c1.2,0.9,2.3,1.7,3.3,2.5c2.1,1.6,3.9,3.1,5.5,4.2
		c3.1,2.3,4.9,3.7,4.9,3.7l-0.3,0.5c-30-19-58.4-40.6-84.5-64.4C1656.1,406.1,1647.8,396.9,1649.6,386.7z"/>
	<path class="st1" d="M1681.2,373.8c1.4,0.5,2.6,1.3,3.6,2.4c-0.7,0.3-1.4,0.7-2,1c0,0,0,0,0.1,0.1c1.4,1.3,3,2.8,4.7,4.5
		c3.4,3.3,7.4,7.1,11.5,11.3c2,2.1,4.2,4.2,6.4,6.4c2.1,2.3,4.3,4.4,6.5,6.7c8.7,9.1,17.3,18.1,23.8,25c1.7,1.7,3.2,3.3,4.5,4.7
		c1.4,1.5,2.5,2.7,3.5,3.8c2,2.1,3.1,3.4,3.1,3.4l-0.4,0.6c-26.2-17-49.8-38-69.4-62c-1.2-1.5-2.5-3.2-2.2-5
		C1675.3,374,1678.7,372.9,1681.2,373.8z"/>
	<path class="st1" d="M1717.7,360.7c-1.7,0.7-3.3,1.4-4.9,2.2c0.3,0.2,0.5,0.5,0.8,0.7c2,1.5,3.9,3.3,6.3,5c1.2,0.9,2.3,1.8,3.5,2.7
		c1.3,0.9,2.5,1.8,3.8,2.8c2.6,1.9,5.4,3.8,8.2,5.8c1.4,1,2.9,2,4.3,3c1.5,1,3,1.9,4.4,2.9c2.9,2,6,3.9,8.9,5.9
		c3,1.9,5.9,3.8,8.8,5.7c1.4,0.9,2.8,1.8,4.2,2.8c1.4,0.9,2.8,1.7,4.1,2.6c2.6,1.8,5.2,3.4,7.5,4.9s4.4,3,6.4,4.2
		c1.9,1.3,3.6,2.5,4.9,3.4c0.1,0.1,0.2,0.1,0.3,0.2c-9.4-3.2-18.7-6.4-27.9-10c-23-9.1-45.7-21.4-61-40.7
		C1705,360.9,1711.4,359.8,1717.7,360.7z"/>
	<path class="st1" d="M1751.8,346.9c-0.2,0.1-0.4,0.2-0.6,0.2c0.8,0.5,1.6,1,2.5,1.6c2,1.3,4.1,2.6,6.2,4.1s4.3,3,6.5,4.6
		s4.4,3.3,6.6,5s4.3,3.4,6.4,5.2c2.1,1.7,4.1,3.5,6,5.3c3.8,3.5,7.3,6.9,10.1,10c2.9,3,5.2,5.7,6.7,7.6c1.6,1.9,2.4,3.1,2.4,3.1
		l-0.6,0.8c-22.4-15.7-44.7-31.3-67.1-47C1741.8,345.9,1746.8,345.9,1751.8,346.9z"/>
	<path class="st1" d="M1813.6,347.4c3,1.7,6,3.7,8.9,5.6c5.9,3.9,11.6,8.1,16.8,12.2c2.6,2.1,5,4.2,7.3,6.2c2.2,2,4.4,4,6.3,5.8
		c3.8,3.7,6.9,7,8.9,9.4c1,1.2,1.8,2.1,2.3,2.8s0.8,1,0.8,1l-1.2,1.6c0,0-0.4-0.2-1.2-0.4c-0.8-0.3-1.9-0.7-3.4-1.3
		c-0.8-0.3-1.6-0.6-2.5-1c-23.7-20.2-49.5-38-76.7-53.2c2.9-0.6,5.8-0.8,8.6-0.6c2.5,0.6,5.1,1.5,7.7,2.6c2.8,1.1,5.6,2.7,8.5,4.3
		C1807.7,343.9,1810.7,345.5,1813.6,347.4z"/>
	<path class="st2" d="M1589.2,439.2c-1.7,32.8,6.1,67.3,15.9,98.7c9.5,30.5,22.9,60,40.1,87.2c9.4,14.9,19.8,30.5,32.4,43
		c0.4,0.4,1.2-0.3,0.8-0.7c-9.5-12.5-19.7-24.3-28.3-37.5c-8.9-13.5-17-27.5-23.7-42.1c-13.7-29.7-23.3-60.4-29-92.3
		c-3.3-18.7-4.4-37.4-5.3-56.2C1591.8,437.7,1589.3,437.6,1589.2,439.2z"/>
	<path class="st2" d="M1604.9,428.7c6,27,17.8,53.6,31,78c13.6,25.2,30,48.8,48.7,70.6c10.3,11.9,21.1,24.4,33.7,34.1
		c0.6,0.5,1.2-0.4,0.7-0.9c-9.9-10.6-20.6-20.3-30.1-31.2c-9.2-10.5-17.8-21.5-25.8-32.9c-16.2-23.2-29.6-48.2-40.4-74.1
		c-6-14.6-10.6-29.5-15.5-44.4C1606.7,426.2,1604.5,427.2,1604.9,428.7z"/>
	<path class="st2" d="M1624,409.5c3,12.9,12.5,24.2,20.6,34.6c8.7,11.3,18.6,21.9,28.7,32.1c10.3,10.3,21.1,20.1,32.5,29.2
		c11,8.8,22.8,18.2,35.3,24.7c0.8,0.4,1.7-0.9,0.9-1.4c-11.3-8.3-23.2-15.6-34.2-24.3c-10.9-8.7-21.4-18-31.2-28
		c-10.2-10.3-19.3-21.4-28.2-32.8c-8.2-10.6-18.1-22.1-22.6-34.8C1625.4,407.6,1623.7,408.4,1624,409.5z"/>
	<path class="st2" d="M1641.1,396.9c11.7,18.1,30.1,32.4,47,45.7c17.5,13.8,36.8,26.6,56.7,36.6c0.4,0.2,0.7-0.4,0.3-0.7
		c-38.5-21.6-74.7-48.3-102.2-82.9C1642,394.6,1640.4,395.8,1641.1,396.9z"/>
	<path class="st2" d="M1665.4,382.1c7.4,13.9,20.4,24.2,33.3,33c7,4.8,14.3,9.2,21.3,14c7.5,5.1,14.8,10.4,22.5,15.1
		c0.4,0.3,0.9-0.4,0.5-0.7c-13.8-10.2-28.6-19.1-42.3-29.4c-12.8-9.7-24.1-20.4-33.3-33.4C1666.5,379.4,1664.7,380.8,1665.4,382.1z"
		/>
	<path class="st2" d="M1733.4,399.4c-7.9-3.9-15.4-8.6-22.4-13.9c-7.2-5.4-12.8-11.9-19-18.3c-1-1-2.3,0.5-1.7,1.5
		c8.6,15.1,25.9,25.4,41.5,32.2c17.4,7.6,36.8,13.7,55.5,17.1c0.7,0.1,0.9-0.9,0.2-1.1C1769.2,411.3,1750.7,407.9,1733.4,399.4z"/>
	<path class="st2" d="M1750.4,357.5c-5.4-2.7-11.6-7.1-17.6-7.9c-0.5-0.1-0.8,0.6-0.4,0.9c4.1,4.1,10.8,6.5,16,9.2
		c5.8,3,11.6,5.9,17.4,8.9c12.1,6.2,23.1,13.9,32.7,23.4c0.6,0.6,1.4-0.4,0.8-0.9c-9.4-8.9-19.7-17.1-30.8-23.8
		C1762.6,363.6,1756.5,360.5,1750.4,357.5z"/>
	<path class="st2" d="M1775.8,334.8c-0.9-0.4-1.9,1-1,1.6c12.8,8.9,27.1,15.9,40.7,23.4c6.8,3.7,13.7,7.3,20,11.8
		c6.4,4.6,11.6,9.9,17,15.6c0.5,0.5,1.2-0.3,0.9-0.8c-8-11.6-21.9-19.5-33.8-26.7C1805.3,351.1,1791,341.7,1775.8,334.8z"/>
	<path class="st1" d="M1822.8,323.5c-2.4,0.7-4.7,1.3-7.1,2c2.7,0.5,5.7,1.1,8.9,2c3.3,0.9,6.8,2.2,10.5,3.7
		c3.6,1.5,7.3,3.4,11.1,5.4c3.8,2,7.7,4,11.5,6.3c3.9,2.1,7.8,4.5,11.8,6.8c3.9,2.3,7.8,4.8,11.5,7.1c3.8,2.5,7.4,4.9,10.9,7.3
		c3.5,2.4,6.9,4.8,10,7.2s6.1,4.6,8.8,6.7c5.4,4.3,9.7,8,12.7,10.7c1.5,1.4,2.6,2.4,3.4,3.2s1.2,1.2,1.2,1.2l-1,1.7
		c0,0-0.6-0.2-1.6-0.5s-2.5-0.8-4.4-1.5c0,0,0,0-0.1,0c-30.5-28.4-71-46.9-110-64c9.7-11.5,25.1-18.3,40.5-17.9
		c-0.4,1.7-0.6,3.5-0.5,5.3c-2.9,0.7-5.8,1.4-8.7,2.1C1835.8,320,1829.3,321.8,1822.8,323.5z"/>
	<path class="st1" d="M1932.1,355.1c8.8,7.1,17.4,14.4,25.3,21.5c3.1,2.9,6.2,5.7,9,8.5c-5.2-2.8-10.5-5.5-15.7-8.2
		c-31.7-16.6-61.5-37-88.4-60.5c3.2-1.3,6.4-1.9,9.6-2c1.3,0.5,2.7,1.1,4.1,1.8c1.7,0.9,3.4,2,5.2,3.1c3.6,2.2,7.5,4.7,11.5,7.4
		c4.1,2.6,8.3,5.6,12.7,8.6c4.4,3,8.8,6.3,13.3,9.6C1923.3,348.2,1927.7,351.7,1932.1,355.1z"/>
	<path class="st1" d="M1930,299.2c0.8,0.3,1.6,0.6,2.4,0.9c-2.6,0.4-5.2,0.8-7.7,1.2c-3.6,0.6-7.1,1.2-10.7,1.8
		c1.5,0.6,3,1.2,4.5,1.9c1.4,0.6,2.9,1.1,4.3,1.9c1.4,0.7,2.9,1.4,4.4,2.1c3,1.5,6,3,9.2,4.5c3,1.7,6.2,3.5,9.4,5.2
		c1.6,0.9,3.2,1.8,4.8,2.7c1.6,1,3.2,2,4.8,3c3.2,2,6.5,4.1,9.7,6.2c3.2,2.2,6.4,4.5,9.6,6.7c3.3,2.2,6.4,4.7,9.5,7.1
		c3.1,2.5,6.4,4.8,9.4,7.4c3.1,2.5,6.1,5.1,9.2,7.6s5.9,5.3,8.8,7.9c5.9,5.2,11.3,10.6,16.6,15.8c2.6,2.6,5.1,5.3,7.6,7.9
		c2.4,2.6,4.9,5.1,7.1,7.7c4.5,5.1,8.8,9.9,12.4,14.5c1.9,2.3,3.6,4.5,5.3,6.6c1.6,2.1,3.2,4.2,4.6,6.1c2.9,3.8,5.4,7.1,7.3,10
		c3.9,5.6,6,8.9,6,8.9l-0.2,0.2c-31.1-36.8-67.3-69.4-107.4-96.5c-23.4-15.8-48.1-29.8-72.7-43.7
		C1906,296.7,1919.2,295.7,1930,299.2z"/>
	<path class="st1" d="M1995.7,309.3c6.3,2.9,12.8,6.4,19.4,10.1c6.6,3.8,13.2,7.9,19.7,12.5c4.4,3.1,8.8,6.4,13.1,9.7
		c-34.5-4.5-67.6-21.8-90.7-47.7c3.6,0.4,7.1,1,10.6,1.7c-0.1,0-0.1,0-0.1,0c-2.2,0.2-4.4,0.4-6.6,0.7c0.2,0.1,0.3,0.1,0.5,0.1
		c4.8,1.3,10.2,3,15.9,5.2C1983.3,303.8,1989.4,306.4,1995.7,309.3z"/>
	<path class="st1" d="M1975.4,297.3c25.8,6.4,49.7,19,72.8,33.4c-3.5-1.4-6.9-2.8-10.2-4.2c-3.6-1.5-7.2-3-10.6-4.5
		c-6.9-3-13.4-5.8-19.4-8.4c-3-1.3-5.9-2.6-8.7-3.8c-2.8-1.2-5.4-2.3-7.9-3.3c-4.9-2.2-9.1-4.6-12.4-6.8
		C1977.7,299,1976.5,298.1,1975.4,297.3z"/>
	<path class="st1" d="M2130.5,341.2c7.7,4.3,15.1,9,22.2,13.4c7.1,4.6,13.9,9,20.2,13.4c3.1,2.2,6.2,4.4,9.2,6.5
		c2.9,2.1,5.7,4.3,8.4,6.2c2.7,2,5.2,4,7.6,5.9c2.4,1.9,4.7,3.7,6.8,5.4c4.3,3.4,7.9,6.5,10.8,9c5.8,5.1,9.1,8.1,9.1,8.1l-1.1,1.6
		c0,0-2.7-1.3-7.6-3.8c-65-46.4-135.6-84.9-209.8-114.6c6.1-1.4,12.3-1.5,18.4-0.9c-0.8,0-1.6,0.1-2.4,0.1l-10.1,0.6
		c0.8,0.2,1.6,0.4,2.5,0.6c3.3,0.8,6.7,1.6,10.2,2.5c3.5,1,7.1,2,10.9,3.1c3.7,1.1,7.5,2.3,11.3,3.6s7.8,2.7,11.7,4.2
		s7.9,3.2,11.9,4.9c4,1.6,8,3.5,12,5.4c8.1,3.6,16.1,7.8,24.1,11.8C2114.9,332.6,2122.8,336.7,2130.5,341.2z"/>
	<path class="st1" d="M2066,304.2c36.7,15.6,73.7,32,108,52.3c-1.7-0.7-3.3-1.3-4.9-2c-8-3.1-15.8-6.5-23.5-9.9
		c-7.7-3.5-15.2-6.8-22.4-10.3c-3.6-1.7-7.2-3.4-10.6-5.1c-3.5-1.7-6.8-3.4-10.1-5.1c-6.6-3.3-12.7-6.6-18.5-9.7
		c-2.8-1.6-5.6-3.1-8.1-4.6c-2.6-1.4-5-2.9-7.3-4.2c-0.9-0.5-1.8-1.1-2.7-1.6C2065.8,304.1,2065.9,304.2,2066,304.2z"/>
	<path class="st1" d="M2095.2,291.4c-10.7-0.5-21.5-0.5-32.4-0.6C2073.5,288.5,2084.4,289.1,2095.2,291.4z"/>
	<path class="st1" d="M2156.6,320.7c7.8,3.7,15.5,8,23.1,12.4c7.5,4.5,15,9.1,22.1,14c7.2,4.7,14.2,9.6,21,14.2
		c6.7,4.7,13.3,9.1,19.5,13.3c3.1,2.1,6.1,4.1,9,6.1s5.7,3.9,8.4,5.8c5.4,3.7,10.2,7.2,14.5,10.3s8,5.8,11.1,8
		c6.1,4.5,9.6,7.1,9.6,7.1l-0.6,0.9c-71.7-51.7-151.4-92.6-235.2-120.9c1.1-0.3,2.2-0.6,3.3-0.8l0,0c3.2,0.4,6.9,1,10.9,1.8
		c5.3,0.9,11.2,2.2,17.6,3.8c3.2,0.8,6.5,1.7,9.9,2.6c3.4,1,6.9,2.1,10.5,3.2c7.2,2.3,14.6,5,22.3,8
		C2141,313.5,2148.8,316.9,2156.6,320.7z"/>
	<path class="st1" d="M2265.6,345.4c7.6,4.1,15,8.4,22.2,12.5c7.1,4.3,14,8.3,20.4,12.3s12.4,7.9,17.9,11.5c2.7,1.8,5.4,3.6,7.9,5.2
		c2.5,1.7,4.8,3.3,7,4.9c4.4,3.1,8.3,5.7,11.3,8c6.2,4.6,9.7,7.2,9.7,7.2l-1.1,1.6c0,0-3.8-2.2-10.5-5.9l-0.9-0.5
		c-59.1-43.6-134.6-64.4-195.9-106.4c11-1.3,21.9,0.5,32.5,3.9c-0.9-0.2-11.9-1.7-12.8-1.8c-6.8-1.1-3.7-0.4-10.6-1.2
		c-0.5-0.1-1-0.1-1.6-0.2c4,1.6,8.1,3.3,12.4,5c7.1,2.8,14.4,6,22,9.3c7.5,3.4,15.4,6.8,23.2,10.7c7.9,3.7,15.8,7.7,23.7,11.6
		C2250.2,337.1,2258,341.2,2265.6,345.4z"/>
	<path class="st1" d="M2288.9,328.3c7.5,3.8,14.9,8,22.4,12.2c7.3,4.4,14.7,8.7,21.7,13.2c7.1,4.4,13.9,9.2,20.5,13.7
		c6.5,4.7,12.8,9.1,18.5,13.7c5.8,4.5,11.3,8.7,16.1,12.8c2.4,2.1,4.8,4,7,5.9s4.2,3.7,6.2,5.5c3.9,3.4,7.2,6.5,9.8,9
		c5.3,5.1,8.3,8.1,8.3,8.1l-1.3,1.5c0,0-3.5-2.4-9.6-6.7c-0.6-0.4-1.3-0.9-2-1.4c-46-44-106.2-73.5-164.4-101.6
		c5.4-0.9,10.9-1.1,16.3-0.7c2.8,1.2,5.5,2.5,8.3,3.7C2274,320.8,2281.5,324.4,2288.9,328.3z"/>
	<path class="st1" d="M2265,314.4c4,0.6,8.1,1.5,12,2.7C2273.1,316.2,2269.1,315.3,2265,314.4z"/>
	<path class="st1" d="M2349.7,337.2c1.6,0,3.2,0.1,4.8,0.3c0.3,0.2,0.7,0.5,1,0.7c3.9,2.9,8.2,5.9,12.8,9.1
		c4.6,3.2,9.4,6.5,14.5,9.9c5.1,3.3,10.3,6.9,15.7,10.3c5.4,3.5,10.9,7,16.4,10.5c5.5,3.4,11,7,16.5,10.3c5.4,3.4,10.9,6.6,16.1,9.9
		c10.5,6.3,20.4,12.2,28.9,17.2c7.3,4.3,13.5,8,18.2,10.9c-30.7-11.8-59.9-27.2-88.8-42.9C2384.1,371.8,2361.4,358.6,2349.7,337.2z"
		/>
	<path class="st1" d="M2484.4,393.9c11.1,5.5,18.5,9.1,18.5,9.1l-0.7,1.8c0,0-2-0.6-5.5-1.5c-1.6-0.4-3.4-1-5.6-1.7
		c-20-8.5-39.7-17.8-59-28c-3.3-1.7-7-5.5-4.7-8.2c0.7-0.8,1.7-1.2,2.8-1.2c1.4,0.8,2.7,1.7,4.1,2.5c3.4,2.1,6.9,4.1,10.4,6.2
		c3.6,2,7.1,4,10.6,5.9c3.5,2,7,3.8,10.4,5.6s6.6,3.5,9.8,5.1C2478.7,391,2481.7,392.5,2484.4,393.9z"/>
	<path class="st1" d="M2548.7,405.8c9.7,5.5,16.2,9.3,16.2,9.3l-0.7,1.4c-25.9-13.7-51.8-27.5-77.8-41.2c2.9-0.1,5.8,0,8.7,0.2
		c5.8,3.3,11.9,6.8,18.1,10.3C2526,393,2539,400.3,2548.7,405.8z"/>
	<path class="st1" d="M2612.4,406.1c2.8,1.6,5.3,3,7.3,4.2c4,2.4,6.3,3.8,6.3,3.8l-0.3,0.6c-51-24.3-104.4-43.4-159.2-57
		c9.4-2.6,19.3-1.9,29.1-0.3c-1.2,0-2.3,0-3.5,0c0.6,0.1,1.1,0.3,1.7,0.4c3.9,1,8,2.3,12.4,3.6s9,2.8,13.8,4.4
		c4.7,1.6,9.6,3.2,14.6,5.1c5,1.8,9.9,3.7,14.9,5.6c9.9,3.9,19.7,8.2,28.9,12.3c4.5,2.2,8.9,4.2,13,6.3c4.1,2,8,4,11.5,5.9
		C2606.4,402.7,2609.6,404.4,2612.4,406.1z"/>
	<path class="st1" d="M2573.3,355.4c-20.5-1.5-41.1-3.1-61.6-4.6c3.1-0.6,6.1-1.2,9.2-1.7c0.1,0,0.1,0,0.2,0
		c5.2,0.4,10.4,0.8,15.5,1.3s10.2,1,15,1.7C2559.4,353.1,2566.7,354.2,2573.3,355.4z"/>
	<path class="st1" d="M2551.6,352.1c7.8,1,15.1,2.1,21.7,3.3c1.6,0.3,3.2,0.6,4.7,0.9c1.9,0.4,3.8,0.7,5.5,1.1c0.1,0,0.1,0,0.2,0.1
		c-41.6-0.1-83.3-3.3-124.6-9.6c1.4-0.1,2.9-0.1,4.4-0.1c7.8-0.1,16.9-0.1,26.7,0.1c4.9,0.1,10,0.3,15.1,0.5s10.2,0.5,15.4,0.8
		c0.1,0,0.1,0,0.2,0c5.2,0.4,10.4,0.8,15.5,1.3C2541.7,350.9,2546.7,351.5,2551.6,352.1z"/>
	<path class="st1" d="M2535.1,321.9c5.1,0,9.9,0,14.4,0.1c2.2,0.1,4.4,0.1,6.4,0.2c2.1,0.1,4,0.2,5.8,0.3c3.6,0.2,6.8,0.4,9.4,0.6
		c5.2,0.4,8.2,0.7,8.2,0.7l-0.1,2c0,0-2.9,0-8.1,0.1c-2.6,0-5.7,0.1-9.3,0.2c0,0,0,0-0.1,0c-42.3-2.6-84.8-0.2-126.3,7.1
		c2.4-1.5,4.8-2.8,7.3-3.9c2.2-0.3,4.4-0.6,6.7-1c5.5-0.7,11.2-1.4,17-2.1c5.8-0.7,11.7-1.2,17.6-1.8c5.9-0.5,11.9-1,17.7-1.4
		c5.9-0.4,11.6-0.7,17.2-0.9C2524.5,322.1,2529.9,321.9,2535.1,321.9z"/>
	<path class="st1" d="M2554.3,300.9c4.9,0.5,7.9,0.8,8.6,0.9c-37.6,1.8-75.2,3.6-112.7,5.3c-2.4,0.1-4.8,0.2-7.1,0.3
		c4.7-0.5,9.4-1.1,14.1-1.6c16.6-1.9,33.2-3.8,49.8-5.7c0.2,0,0.3,0,0.4,0c2.9-0.1,5.7-0.3,8.4-0.4c5.5-0.1,10.7-0.2,15.4-0.1
		c2.4,0,4.7,0.1,6.9,0.1c2.1,0.1,4.2,0.2,6.2,0.4C2548.1,300.4,2551.5,300.6,2554.3,300.9z"/>
	<path class="st1" d="M2554.6,271.8c7.8-0.2,15-0.3,21.3-0.5c0.2,0,0.4,0,0.5,0c-65.6,4.6-131.2,9.2-196.9,13.8
		c9.7-1.2,19.7-2.3,29.8-3.4c10.2-1.1,20.5-2.2,30.9-3.1c20.7-1.8,41.5-3.3,61-4.5c9.7-0.6,19.2-1.1,28.1-1.5
		C2538.4,272.3,2546.8,272.1,2554.6,271.8z"/>
	<path class="st1" d="M2436.8,254c10.5-1.3,20.9-2.1,31-3c5.1-0.3,10-0.6,14.8-0.9c4.8-0.3,9.6-0.6,14.2-0.7
		c4.6-0.2,9.1-0.3,13.5-0.5c4.3-0.1,8.6-0.1,12.6-0.2c4,0,7.9,0,11.6,0c3.7,0.1,7.2,0.1,10.5,0.2c3.3,0.1,6.3,0.1,9.2,0.2
		c2.8,0.1,5.4,0.2,7.8,0.3c9.4,0.5,14.8,0.7,14.8,0.7v1.9c0,0-5.4,0.1-14.8,0.4c-2.3,0-4.9,0-7.8,0.2c-2.8,0.1-5.9,0.2-9.1,0.3
		c-3.3,0.1-6.7,0.3-10.4,0.4c-3.7,0.2-7.5,0.5-11.5,0.7c-4,0.3-8.2,0.4-12.5,0.7s-8.8,0.6-13.3,1c-4.6,0.3-9.3,0.8-14.1,1.2
		c-1.7,0.2-3.3,0.3-5.1,0.5c-30.5,1.4-61.1,2.7-91.6,4.1c0.8-0.3,1.6-0.5,2.4-0.8l0,0c5.3-0.9,10.6-1.7,15.9-2.6
		C2415.7,256.7,2426.3,255.1,2436.8,254z"/>
	<path class="st1" d="M2491.4,192.7c9.5-1.4,14.9-2.1,14.9-2.1l0.2,0.9L2295,242.3c3.2-1.1,6.5-2.2,9.8-3.3
		c10.2-3.4,20.6-6.6,31-9.9c10.5-3.1,20.9-6.3,31.3-9.1c10.3-3,20.6-5.6,30.5-8.1c5-1.3,9.9-2.4,14.7-3.6c4.8-1.1,9.5-2.3,14.1-3.3
		c9.2-2,17.9-3.9,25.9-5.4c4-0.8,7.9-1.5,11.6-2.3c3.7-0.6,7.2-1.3,10.5-1.8C2480.9,194.4,2486.6,193.3,2491.4,192.7z"/>
	<path class="st1" d="M2440.2,233.3c-68.6,15.5-137.1,31.3-204,52.2c1-0.7,2.1-1.3,3.3-2c2.7-1.5,5.5-3.2,8.6-4.9
		c3.1-1.6,6.5-3.3,10.1-5c3.6-1.6,7.5-3.2,11.5-4.8c8.2-3.1,17.2-6.1,26.8-8.7c9.6-2.7,19.8-5.3,30.5-7.6
		c10.6-2.4,21.6-4.6,32.8-6.6s22.6-3.9,34-5.7c5.7-0.9,11.4-1.8,17-2.8c5.7-0.8,11.4-1.7,17-2.5
		C2432,234.5,2436.1,233.9,2440.2,233.3z"/>
	<path class="st1" d="M2382.3,185.4c11.7-2.7,23-5.3,33.7-7.4c5.4-1.1,10.6-2.1,15.7-3.1c5.1-1.1,10-1.8,14.7-2.6
		c4.8-0.8,9.3-1.6,13.6-2.3c4.3-0.6,8.5-1.2,12.3-1.8c3.9-0.5,7.5-1,10.8-1.5c3.4-0.4,6.5-0.7,9.2-1.1c11.2-1.2,17.5-1.8,17.5-1.8
		l0.4,1.9c0,0-0.8,0.3-2.3,0.7c-118.2,21-234.7,52.5-340.6,106.4c-14.2,7.3-29.8,15.2-45.8,12.2c0.1,0,0.2-0.1,0.3-0.2
		c2.3,0.2,4.6,0.4,6.8,0.7c2.5-1.5,6.2-3.7,10.8-6.4c2.4-1.4,5.1-2.9,8-4.5c3-1.6,6.1-3.3,9.6-5.1c3.4-1.8,7.1-3.7,11-5.6
		c3.9-1.9,8-3.9,12.3-5.9c8.5-4.2,17.9-8.4,27.9-12.9c9.9-4.5,20.5-9.1,31.5-13.8c5.5-2.3,11.1-4.6,16.8-7
		c5.7-2.3,11.5-4.5,17.4-6.7c11.7-4.5,23.8-8.5,35.9-12.4c12.2-3.7,24.4-7.4,36.6-10.7c6.1-1.6,12.1-3.3,18.1-4.8
		C2370.6,188.3,2376.5,186.8,2382.3,185.4z"/>
	<path class="st1" d="M2325.2,157.2c3.7-1.3,7.4-2.6,11.1-3.8c3.7-1.3,7.5-2.5,11.2-3.6c7.5-2.3,15.1-4.5,22.8-6.3
		c15.3-3.8,31-6.6,46.9-7.7l0.5,1.9c-2.4,1.1-4.9,2.1-7.3,3.1c-103.8,26.2-203.2,67.5-294,122.3c-6.7,2.4-13.3,5-19.5,8.2
		c-3.7,1.9-7.3,4.1-10.7,6.6c-3,0.8-6.1,1.4-9.2,1.7l4.4-2.8c3.3-4.2,7.2-7.9,11.4-11.2c6.3-5,13.2-9.1,20.1-12.8
		c6.9-3.7,13.8-7.2,20.7-10.7c6.9-3.4,13.9-7,20.8-10.3c7-3.4,13.9-6.8,20.9-10.1c7-3.4,14-6.6,21-9.9c7-3.3,14.1-6.4,21.1-9.7
		l21.2-9.5c7.1-3.2,14.2-6.2,21.3-9.3s14.3-6.1,21.4-9.1c7.2-3,14.3-5.9,21.6-8.7C2310.5,162.6,2317.8,159.8,2325.2,157.2z"/>
	<path class="st1" d="M2286.9,112.6l6.6-1.5c1.1-0.2,2.2-0.5,3.3-0.7c-79.6,33.2-146.7,95.3-231.3,115.7c2.7-2.1,5.4-4.1,8.1-6.2
		l2.3-1.4c15.7-8.9,32-16.3,48.1-23.2c8-3.5,16-6.9,23.8-10.5c7.8-3.5,15.4-7.2,22.8-11.2c7.4-4,14.6-8.2,21.6-12.8
		c3.5-2.3,6.9-4.6,10.3-7.1c1.7-1.2,3.4-2.5,5-3.7l2.7-2.1l2.7-1.9l5.3-3.9c1.9-1.3,3.9-2.6,5.8-3.8c2-1.3,3.9-2.5,5.9-3.6
		c1.9-1.2,3.9-2.3,5.9-3.4c8.1-4.2,16.4-8.1,25.1-11C2269.3,117.2,2278.1,114.8,2286.9,112.6z"/>
	<path class="st1" d="M2021.8,282c1.3-0.1,2.6-0.1,4-0.1c4.7-5.2,10.2-9.7,15.9-13.7c6.7-4.7,13.9-8.6,21-12.7
		c7.1-4,14.3-7.8,21.5-11.6l21.5-11.2c7.2-3.7,14.3-7.5,21.2-11.3c3.4-1.9,7-4,10.5-5.9l10.3-6.1c1.6-0.9,3.2-1.9,4.7-2.8
		c-6.8,2.7-13.5,5.3-20.3,7.8c-3.3,1.2-6.6,2.5-9.9,3.7c32-17.4,63.9-34.8,95.8-52.2c5.2-2.9,10.5-5.7,15.8-8.5
		c-0.8,0.6-1.6,1.2-2.4,1.8l-2.9,2.3c0.9-0.5,1.8-1,2.7-1.5c7.2-3.9,14.5-7.7,21.9-11.2c7.5-3.6,15.1-6.8,22.8-9.8
		c7.7-3.1,15.6-5.7,23.6-8.1c8-2.3,16.1-4.3,24.4-5.8c8.2-1.5,16.5-2.5,24.9-3c1.7-0.1,3.4-0.2,5.1-0.2c-14.2,3.6-29,5.8-43.1,9.4
		c-72.6,18.9-126.9,78.1-197.4,103.3c-15.9,5.7-27.3,17.8-39.9,28.7c-1.7,0.8-3.4,1.6-5.1,2.5c-7.2,3.5-14.3,7.3-21.4,10.9
		c-3.7,1.8-7.4,3.6-11.2,5.3c1.7,0,3.3,0,5,0C2034.4,283.3,2028,283.6,2021.8,282z"/>
	<path class="st1" d="M2236.9,77.3c2.7-1.2,5.1-2.1,7.7-3.1c2.6-1,5.1-1.9,7.6-2.7c10-3.3,19.4-5.5,27.9-6.6
		c8.5-1.2,15.9-1.5,22.1-1.4c6.1,0.1,10.9,0.8,14.2,1.2c3.2,0.6,5,0.8,5,0.8l-0.3,1.9c0,0-1.7-0.2-4.9-0.4s-7.9-0.4-13.8,0
		c-5.9,0.3-13.1,1.2-21.1,3.1c-4,0.9-8.3,2.2-12.6,3.6c-19.2,4.2-37.8,11-55.3,19.6c-40.1,19.5-74.9,47.6-108.6,76.3
		c-33.7,28.7-66.9,58.4-104.7,81.7c0.8-1.4,1.7-2.9,2.7-4.2c1.6-1.4,3.2-2.8,4.9-4.2c7.7-6.6,16-13.8,24.8-21.4
		c8.8-7.6,18.1-15.6,27.8-23.8s19.8-16.5,30.2-24.8c5.2-4.2,10.4-8.4,15.8-12.5c5.3-4.1,10.7-8.3,16.1-12.4
		c10.8-8.1,22-15.8,33.3-23c11.3-7.2,22.6-14.3,33.4-21.2c10.9-6.9,21.6-13.5,32.2-19C2226.5,82,2231.7,79.4,2236.9,77.3z"/>
	<path class="st1" d="M1935.7,288.5c1.4-0.2,2.7-0.3,4-0.5C1938.4,288.4,1937.1,288.6,1935.7,288.5z"/>
	<path class="st1" d="M1948.2,259.4c6.4-6.9,14.1-14.1,22.9-21.4c8.8-7.3,18.7-14.7,29-22.5s20.8-16,30.8-25.2
		c5.1-4.7,9.8-9.5,14.6-14.7c4.8-5.1,9.5-10.5,14.2-16c9.5-11,18.9-22.7,29.2-34c2.5-2.8,5.1-5.7,7.8-8.4l2-2.1l0.5-0.5l0.6-0.6l1-1
		l8.1-7.8c1.3-1.3,2.9-2.5,4.3-3.8c2.9-2.5,5.8-5.2,8.8-7.5c11.8-9.5,24.3-17.8,36.6-25.2c12.3-7.5,24.5-14,36-20.2
		c11.6-6.1,22.5-11.8,32.8-16.7c20.5-10,37.8-17.7,49.9-23.1c7.3-3.3,12.7-5.7,15.8-7.1c-0.7,0.9-1.5,1.7-2.4,2.5
		c-4.3,3.8-9.8,6.2-15.1,8.5c-95.1,42.3-178.9,107.7-242.1,188.7c-21.1,27-61.5,37.5-79.1,65.9c-6.2,5.7-11.1,11.2-15.1,15.8
		c-1.7,2-3.3,3.9-4.6,5.6c-1.6-0.3-3-1.1-4-2.3c-0.3-0.4-0.5-0.7-0.7-1.1c0.9-2,2.1-4.1,3.4-6.3
		C1936.9,272.8,1941.8,266.2,1948.2,259.4z"/>
	<path class="st1" d="M1908.1,271.7c1.1-1.5,2.2-2.9,3.4-4.5c1.2-1.5,2.3-3.1,3.6-4.7c1.3-1.6,2.6-3.2,4-4.9
		c1.4-1.7,2.8-3.4,4.2-5.1c1.5-1.7,3-3.4,4.6-5.2s3.2-3.6,4.8-5.4c1.7-1.8,3.4-3.6,5.2-5.5c1.7-1.9,3.5-3.7,5.3-5.6
		c1.8-1.9,3.7-3.8,5.6-5.7c7.6-7.7,15.8-15.5,24.4-23.6c8.5-8,17.3-16.3,26.2-24.7c8.9-8.4,17.7-17.1,26.3-25.9
		c4.3-4.4,8.5-8.8,12.6-13.4c4.1-4.5,8.1-9.1,11.9-13.8c7.8-9.3,15.1-19,23.1-27.7c4-4.4,8.2-8.5,12.4-12.4c2.2-1.9,4.3-3.8,6.5-5.6
		c2.2-1.7,4.3-3.5,6.5-5.1c8.9-6.6,17.5-12.3,25.7-17.1s16.1-8.7,23.1-11.8c3.7-1.7,7.3-3.1,10.6-4.4c-27.3,15.5-53.5,32.8-75,55.2
		c-20.7,21.7-36.3,47.6-56.9,69.3c-33.4,35.1-79.7,58.9-104.7,100.3c0.2,2.9-0.2,5.8-1.1,8.7c-0.2,0.3-0.4,0.5-0.6,0.7
		c-2.3,2.9-4.5,5.6-6.5,8.1s-4.2,4.5-6.1,6.5c-1.2,1.2-2.3,2.3-3.2,3.5c-2.3,1-4.8,1.8-7.3,2.2c0.4-0.9,0.8-1.8,1.2-2.9
		c0.9-2,1.8-4.2,3.1-6.7c1.2-2.5,2.5-5.4,4.2-8.3C1906,274.5,1907.1,273.1,1908.1,271.7z"/>
	<path class="st1" d="M1942.2,196.9c11.5-13,23.2-25.8,34.1-37.8c5.4-6.1,11-11.6,16.6-16.6s10.6-10,15.2-14.5
		c9.2-9.2,16.9-16.8,22.3-22.1c5.4-5.4,8.4-8.5,8.4-8.5l1.5,1.3c0,0-2.8,3.3-7.7,9.1c-2.1,2.5-4.7,5.5-7.5,9l-0.1,0.1
		c-39.2,41.1-78.1,82.4-115,125.5c-10.4,12.2-20.7,24.6-28.9,38.4c-1.8,3.1-3.5,6.2-5.5,9.2c-1.9,2.9-4,5.5-6.7,7.7
		c-1.2,0.9-2.5,1.8-3.8,2.4c-2.6,1.3-5.5,2-8.4,2c0.3-0.1,0.7-0.2,1-0.2c1-1.8,2.4-4.1,4.3-6.9c4.1-6.4,10.4-15.3,18.6-25.3
		c8.2-10.1,17.8-21.8,28.3-34.2c5.3-6.2,10.7-12.6,16.3-19C1930.7,209.8,1936.5,203.4,1942.2,196.9z"/>
	<path class="st1" d="M1897,219.4c-6.1,7.3-12.4,14.9-20.4,20.1c5.3-6.4,10.9-13.1,16.6-20c13.3-15.9,27.6-32.9,41.8-49.9
		c7.1-8.4,14.3-16.9,21.4-25.2s13.8-16.6,21.3-24.2c3.7-3.8,7.5-7.4,11.5-10.8c1-0.8,2-1.6,3-2.4l1.5-1.2l1.5-1.1
		c2.1-1.5,4.2-2.9,6.2-4.2c4.4-2.8,8.7-5.2,12.9-7.5C1971.7,131.5,1933.7,175.2,1897,219.4z"/>
	<path class="st1" d="M1948.5,114c0,0-0.2,0.1-0.7,0.2c0.2-0.2,0.4-0.3,0.6-0.5L1948.5,114z"/>
	<path class="st1" d="M1838.5,240.1C1838.6,240.1,1838.6,240.1,1838.5,240.1c1.6-2.2,3.3-4.5,5-6.7c5.4-6.8,10.8-13.9,16.7-20.8
		c5.7-7,11.9-13.9,18-20.8c6.3-6.8,12.5-13.6,19-20c6.3-6.6,12.9-12.7,19.1-18.7c3.2-2.9,6.3-5.8,9.4-8.6s6.1-5.5,9.1-8.1
		s5.9-5.1,8.7-7.5c2.8-2.4,5.7-4.7,8.3-6.8c1.8-1.5,3.6-2.9,5.4-4.3c-3.9,4-7.8,7.9-11.7,11.9c-49.7,50.3-100,101.4-134.6,162.8
		c-1.7,3-3.4,6.2-3.7,9.6c-0.2,2.5,0.5,5.2,2.1,7.1c-2,2.3-3.7,4.1-5,5.4c-0.2,0.2-0.4,0.4-0.5,0.5c1.3-0.4,2.6-0.8,3.9-1.1
		c-2.3,1.1-4.9,1.6-7.5,1.5c0.1-0.5,0.3-1.5,0.6-2.8c0.5-2.1,1.4-5.3,2.6-9.1c1.2-3.9,3-8.5,5.3-13.7c0.5-1.2,1.1-2.4,1.6-3.7
		C1818.8,270.2,1828.3,255,1838.5,240.1z"/>
	<path class="st1" d="M1920.6,121.9c-0.3,0.3-0.7,0.7-1,1c0.2-0.3,0.5-0.6,0.7-0.9c1.4-1.7,2.8-3.5,4.1-5.3c0.5-0.1,1.1-0.2,1.6-0.3
		C1924.2,118.2,1922.4,120.1,1920.6,121.9z"/>
	<path class="st1" d="M1900.8,129.2c-1.2,0.5-2.4,1-3.6,1.6c1.9-2.7,3.8-5.5,5.7-8.2c2.3-0.8,4.5-1.4,6.7-2c-1.6,2.4-3.2,4.7-4.8,7
		C1903.5,128.1,1902.2,128.6,1900.8,129.2z"/>
	<path class="st1" d="M1821.7,240.1c9.4-13.6,18.7-27.1,28.1-40.6c3.9-5.5,7.9-10.9,11.9-16.4c6.5-8.6,12.9-17.3,19.5-25.7
		c6.4-8.5,13-16.6,19.4-24.5c1.4-1.7,2.8-3.4,4.1-5c-24.8,36.3-49.6,72.5-74.4,108.8c-10,14.6-20.2,29.5-33.1,41.7
		c3.7-5.9,7.7-12.2,11.9-18.8c2.5-3.9,5.1-7.9,7.8-12C1818.4,245,1820,242.5,1821.7,240.1z"/>
	<path class="st1" d="M1879,119.8c-0.6,0.4-1.2,0.8-1.8,1.2c12.4-10.7,25.5-20.7,36.6-32.7c0.7-0.4,1.3-0.8,1.8-1.1
		c2.1-1.3,3.3-1.9,3.3-1.9l1.4,1.5c0,0-0.8,1-2.5,2.9c-1.6,1.9-4.2,4.5-7.7,7.6c-1.7,1.6-3.7,3.3-5.9,5c-1.1,0.9-2.3,1.8-3.4,2.7
		c-1.2,0.9-2.5,1.8-3.8,2.8C1891.7,111.6,1885.6,115.5,1879,119.8z"/>
	<path class="st1" d="M1854.7,152.5c3.2-3.5,6.7-6.8,10.3-9.8c0.9-0.8,1.7-1.5,2.8-2.2c0.9-0.7,1.8-1.3,2.7-2
		c1.8-1.3,3.8-2.5,5.7-3.8c0.9-0.5,1.8-1,2.6-1.5c-36.8,37.5-63,83.9-88.6,129.6c-7.6,13.5-15.4,26.5-21.2,40.8
		c-1.3,3.3-2.6,6.8-2.6,10.4c-0.7,1.2-1.4,2.3-2,3.4c-3,5.1-5.6,9.5-8.4,12.8c2.1-0.7,4.2-1.4,6.4-2.1c0.1,0,0.2-0.1,0.3-0.1
		c-8.3,4.2-16.9,8-25.7,11.2c0.4-0.8,0.8-1.6,1.2-2.5c1.8-0.7,3.5-1.3,5.3-2c0.4-2.5,1.2-5.8,2.8-9.8c1.5-4.1,4.4-8.6,7.5-13.7
		c3.1-5.2,6.7-11,10.5-17.3c7.7-12.7,16.6-27.6,26.4-43.3c4.8-7.9,9.9-16.1,15-24.4c5.1-8.3,10.3-16.7,15.5-25.1
		c5.3-8.4,10.4-16.8,15.8-25.1C1842.4,167.5,1848.2,159.6,1854.7,152.5z"/>
	<path class="st1" d="M1849.2,116.3l-11.6,17.2c0.5-0.5,1.1-1,1.6-1.4c2-1.5,3.9-3,5.8-4.5c2-1.4,3.9-2.8,5.8-4.1
		c6.6-4.5,13-8.3,19.1-11.6c-28.8,27.3-55.1,56.8-72.8,91.9c-18.2,36.1-41.4,70.4-54.2,108.7c-0.2,0.5-0.3,1-0.5,1.5
		c-1.1,1.9-2.3,3.8-3.4,5.6c-3.3,5.4-6.2,10.1-8.7,14c-1.9,2.9-3.5,5.4-4.7,7.3c-1.3,0.8-2.7,1.4-4.1,1.8c0.9-2.1,2.5-6,4.9-11.3
		c1.8-4.2,4.2-9.2,6.8-15c2.7-5.7,5.8-12.2,9.2-19.2c3.5-7,7.3-14.5,11.4-22.5c4.1-7.9,8.4-16.4,12.8-25
		c6.9-13.4,14.1-27.4,21.4-41.6c-2.1,3.4-4.2,6.7-6.4,10l-10.7,17.5l-10.4,17.6l-8.4,14.7C1779.7,214.5,1812.1,163.7,1849.2,116.3z"
		/>
	<path class="st1" d="M1686.1,334.1c-0.1,1-0.2,2.1-0.1,3.1c0.3,3.9,2.4,7.8,5.5,10.2c-2.6,3.8-5,7.3-7.2,10.5
		c-0.3,0.5-0.7,1.1-1,1.6c2.5-1.2,5.1-2.4,7.7-3.6c-7.8,5.9-16.9,10.4-26.4,13c3-1.6,6-3.2,9.2-4.7c0.2-0.5,0.3-1.1,0.5-1.6
		c0.8-2.5,1.8-5.3,2.9-8.3c1.2-3,2.5-6.2,4-9.6c1.5-3.3,3.1-6.9,4.9-10.4C1686,334.2,1686.1,334.1,1686.1,334.1z"/>
	<path class="st1" d="M1725.8,273.3c1.9-1.9,3.9-3.6,5.6-5.1c2-1.7,4-3.1,5.6-4.2c1.4-1,2.7-1.7,3.7-2.2c0.9-1.7,1.8-3.3,2.7-5
		c2.1-1,4.5-1.4,6.8-1.1c-13,27.4-26.8,54.4-41.5,80.9c1.6-4.9,3.2-9.9,5-14.8c2-5.3,4-10.5,6.1-15.8c-3.1,4.6-6.3,9.3-9.5,14
		c-2.4,3.5-4.8,7-7.2,10.5c0.4-0.7,0.8-1.4,1.2-2.1c12.9-21.8,25.9-43.7,38.8-65.5C1736.7,265.5,1731,269.1,1725.8,273.3z"/>
	<path class="st1" d="M1666.4,363.4c-0.7,1.9-1.4,3.7-2,5.5c-0.4,0.1-0.9,0.3-1.4,0.4c1.9-3.9,3.7-7.8,5.5-11.7
		C1667.8,359.6,1667.1,361.6,1666.4,363.4z"/>
	<path class="st1" d="M1696.1,260.9c-0.5,2-1,3.9-1.5,5.9c-9.7,36.6-22.2,72.3-37.5,106.9c0-1,0.1-2,0.2-3.1
		c0.6-2.9,1.3-6.1,2.1-9.4c0.5-2.3,1.1-4.6,1.7-7.1c0.6-2.4,1.3-4.9,2-7.5c1.3-5.2,2.9-10.6,4.5-16.2c1.7-5.6,3.5-11.3,5.6-17.1
		c0.1-0.4,0.3-0.7,0.4-1.1c-0.1,0.1-0.2,0.3-0.2,0.4c2.5-5.8,5.1-11.6,7.8-17.4c-16.2,16-29,35.3-37.2,56.4c-3.4,8.7-5.5,20,1,26.8
		c0.3,0.3,0.7,0.7,1,1c-0.3,0.2-0.6,0.4-0.8,0.5c-6.4,4.1-12.7,8.3-19.1,12.4c1.2-0.9,2.5-1.8,3.8-2.7c1-5.1,2.2-10.6,3.9-16.4
		c0.6-2,1.2-4.1,1.9-6.1c0.7-2.1,1.4-4.1,2.1-6.2c1.6-4.1,3.1-8.3,5-12.4c1.7-4.2,3.8-8.2,5.7-12.2c1-2,2.1-3.9,3.2-5.8
		c1.1-1.9,2.1-3.8,3.3-5.6c1.2-1.8,2.3-3.5,3.4-5.2s2.4-3.3,3.5-4.8c2.3-3.2,4.7-5.9,6.9-8.5c2.2-2.6,4.5-4.7,6.4-6.7
		c1-0.9,1.9-1.9,2.8-2.6c0.7-0.6,1.3-1.1,1.9-1.6c2.4-5.6,4.7-11.3,7.3-16.7c2.5-5.6,5.4-11,8.1-16.2
		C1695.5,262,1695.8,261.5,1696.1,260.9z"/>
	<path class="st1" d="M1623.6,356.5c1.7-2.5,3.5-4.8,5.1-7c0.6-0.8,1.2-1.6,1.8-2.4c-8.5,13.7-13.2,30-15.3,46.2
		c-0.6,4.3-1,8.8-3.3,12.5s-7.1,6.3-11.3,4.7c-0.1,0-0.2-0.1-0.3-0.1c0-1.3,0.1-2.7,0.3-4.1c0.7-5.3,2.6-10.9,5-16.2
		c1.2-2.7,2.4-5.4,3.4-8.1l0.4-1l0.3-0.7l0.2-0.6c0.3-0.8,0.6-1.4,0.9-2.3c0.8-1.7,1.6-3.3,2.3-4.7
		C1616.5,366.8,1620.1,361.5,1623.6,356.5z"/>
	<path class="st2" d="M1863.4,358.4c-18.6-10.3-39.4-18-55.9-31.6c-1-0.8-2.4,0.6-1.4,1.5c15,13.1,36,19.8,53.4,29.2
		c19.2,10.4,38,21.6,56.5,33.1c0.6,0.4,1.1-0.6,0.5-1C1898.9,379.2,1881.4,368.3,1863.4,358.4z"/>
	<path class="st2" d="M1859.9,311.9c5.3,9.9,15.5,15.5,24.4,22c11.6,8.4,23.1,16.9,34.6,25.4c24,17.7,46.9,36.9,70.6,54.9
		c0.2,0.2,0.6-0.1,0.4-0.4c-19.3-19-42-35.1-63.7-51.3c-9.4-7.1-19-14-28.5-21c-12.5-9.2-27.2-17.9-36.4-30.5
		C1860.7,310.2,1859.4,311,1859.9,311.9z"/>
	<path class="st2" d="M1976.2,350.4c-14.4-9-29.7-16.4-44.7-24.3c-14.5-7.6-28.8-15.9-43.8-22.5c-0.8-0.3-1.4,0.7-0.6,1.2
		c27.4,16.6,57.5,28.5,85,44.9c28.8,17.2,51.7,41.3,74.2,65.5c0.5,0.5,1.2-0.3,0.7-0.7C2025.5,391,2003.5,367.4,1976.2,350.4z"/>
	<path class="st2" d="M2036,347.4c-28.9-13.1-56.8-26-80.5-47.5c-0.6-0.6-1.4,0.3-0.9,0.9c20.1,21.1,48,33.4,74.3,45.2
		c13.6,6.1,27.3,12.2,40.4,19.5c14.5,8.1,26.8,18,39.2,28.9c0.3,0.3,0.7-0.2,0.4-0.5C2090.9,371.6,2061.5,359,2036,347.4z"/>
	<path class="st2" d="M2135.7,360.6c-16.3-8.6-32.6-17.5-49.3-25.4c-32.4-15.3-67.3-24.3-98.6-41.9c-0.5-0.3-0.8,0.4-0.4,0.7
		c30.7,18.5,66,27.3,98.1,42.8c32.9,15.8,64,35.7,97.4,50.3c0.5,0.2,0.8-0.4,0.4-0.7C2168,376.9,2151.6,369,2135.7,360.6z"/>
	<path class="st2" d="M2148,335.4c-15.3-5.5-30.4-11.5-45-18.6c-14.9-7.3-28.7-17.1-43.7-24c-0.1,0-0.1,0.1-0.1,0.1
		c11.2,10,26.1,17,39.5,23.8c13.1,6.6,26.5,12.4,40.3,17.5c30.4,11.4,60.2,21.5,88.5,37.7c0.7,0.4,1.3-0.7,0.6-1.2
		C2204.6,353.4,2175.2,345.1,2148,335.4z"/>
	<path class="st2" d="M2160,305.1c-5.5-2.9-17.4-7.3-20.8-12.6c-0.1-0.2-0.4,0-0.3,0.1c1.7,5.5,10.7,8.6,15.2,11.2
		c9,5,18.3,9.5,27.9,13.2c0.6,0.2,1-0.7,0.4-1C2174.9,312.5,2167.3,309,2160,305.1z"/>
	<path class="st2" d="M2310.7,347.6c-27.2-13.9-55.5-25.4-82.6-39.5c-0.1-0.1-0.3,0.1-0.2,0.2c10.4,9.6,24.9,14.5,37.7,20.1
		c13.7,6.1,27.3,12.3,40.7,19c13.3,6.7,26.5,13.9,39.1,21.8c13.2,8.3,24.9,18.3,37.7,27.1c0.4,0.3,0.9-0.4,0.5-0.7
		C2364.1,375.1,2335.7,360.4,2310.7,347.6z"/>
	<path class="st2" d="M2405.3,383.6c-11.4-5.8-22.1-12.6-32.2-20.3c-11.1-8.5-20-19.2-30.7-28c-0.3-0.2-0.7,0.1-0.5,0.4
		c12.5,20.6,37.9,36.8,59.1,47.7c12.6,6.5,25.8,12.3,38.7,18.3c11.7,5.4,23.3,11.6,35.3,16.1c0.5,0.2,0.7-0.6,0.3-0.8
		C2452.9,404.3,2428.3,395.3,2405.3,383.6z"/>
	<path class="st2" d="M2402.4,349.6c-0.1-0.1-0.2,0-0.1,0.1c10.9,15.2,30.5,24.7,47.6,31.3c0.4,0.1,0.6-0.5,0.3-0.6
		C2432.5,371.2,2416.9,363.7,2402.4,349.6z"/>
	<path class="st2" d="M2481.2,362.1c-0.3-0.1-0.5,0.4-0.2,0.5c24.6,10.4,52,13.8,77.3,22.6c0.4,0.1,0.7-0.6,0.3-0.8
		C2534.7,373,2506.5,369.3,2481.2,362.1z"/>
	<path class="st2" d="M1630.8,352.9c-10.8,14-20.7,30.7-21,48.9c0,0.2,0.3,0.2,0.3,0c1.7-19.1,11.6-32.7,21.2-48.4
		C1631.6,352.9,1631.1,352.5,1630.8,352.9z"/>
	<path class="st2" d="M1662,320.7c-4.7,8.9-8.7,18.3-12.7,27.4c-3.4,7.7-7.2,15.1-8.2,23.6c0,0.1,0.1,0.1,0.1,0
		c2.9-17.7,14.6-34.4,21.4-50.8C1662.7,320.7,1662.2,320.4,1662,320.7z"/>
	<path class="st2" d="M1712.8,234.8c-11.9,20.9-20.2,44-29.5,66c-8.7,20.6-18.4,42.9-22.7,64.9c0,0.2,0.3,0.4,0.4,0.2
		c9-20.1,15.1-42.2,22.7-62.9c8.6-23.3,20.2-45,29.6-67.9C1713.4,234.7,1713,234.5,1712.8,234.8z"/>
	<path class="st2" d="M1732.6,269.6c-16.5,18.6-28.7,41.6-39.4,63.9c0,0.1,0.1,0.1,0.1,0.1c11.1-22.8,25.6-42.7,39.8-63.6
		C1733.3,269.7,1732.8,269.3,1732.6,269.6z"/>
	<path class="st2" d="M1829.5,130.6c-25,30.4-42.8,67.1-61.8,101.4c-9,16.2-17.6,32.5-25.8,49.2c-7.7,15.5-20.6,28.3-25.4,45.2
		c0,0.1,0.1,0.1,0.2,0c6.6-17.4,19.1-31.3,27.6-47.7c8.4-16,16.7-32,25.4-47.8c18.8-34.3,39.2-67,60.3-100
		C1830.1,130.7,1829.7,130.4,1829.5,130.6z"/>
	<path class="st2" d="M1776.9,320.8c-0.4,1.1,1.4,1.7,1.9,0.6c13.6-33.7,41.6-58.7,59.8-89.9c8.9-15.3,18.2-30.4,28.1-45.1
		c10.6-15.7,22.8-30.5,32.9-46.5c0.3-0.5-0.4-0.9-0.7-0.5c-12.9,13.8-23.5,30.2-34,45.8c-10.5,15.8-20.5,31.9-30.1,48.2
		c-9.3,15.9-20,30.3-31.5,44.7C1792.7,291.4,1782.4,304.7,1776.9,320.8z"/>
	<path class="st2" d="M1812.8,298.4c-0.1,0.2,0.3,0.4,0.4,0.2c14.2-20.5,25.3-42.7,40.7-62.6c15.3-19.8,33.5-36.8,49.9-55.6
		c0.2-0.3-0.2-0.6-0.5-0.4c-19.7,14.8-36.3,35.6-51.1,55C1837.6,254.2,1821.4,275.6,1812.8,298.4z"/>
	<path class="st2" d="M1831.7,308.4c15.6-25.5,38.5-45.7,55.8-70.2c18.2-25.8,37.9-49.1,60.5-71.3c0,0,0-0.1-0.1-0.1
		c-22.9,20.4-43.2,44-61.1,68.7c-10.1,14-20.7,26.8-32.5,39.4c-9.3,9.9-18.8,20.1-24.8,32.4C1828.9,308.5,1831.1,309.5,1831.7,308.4
		z"/>
	<path class="st2" d="M2021.1,213.4c11.5-4.8,18.9-16,26.6-25c10.9-12.8,22.2-25.2,33.9-37.3c10.9-11.3,22.2-22.2,33.7-32.8
		s24.2-20.2,35.3-31.2c0.3-0.3-0.1-0.6-0.4-0.4c-25.2,17-47.5,40.3-68.5,61.9c-9.7,10-19.2,20.2-28.4,30.7
		c-10.4,11.9-19.6,24.1-32.8,33.3C2019.8,212.8,2020.5,213.6,2021.1,213.4z"/>
	<path class="st2" d="M2054.9,217.9c14-8.4,26.4-20.3,39.2-30.4c14.4-11.4,29-22.6,43.6-33.7c14.1-10.7,28.4-21.3,42.8-31.6
		c14.4-10.3,30.1-19.7,43.8-30.9c0.1-0.1,0-0.2-0.1-0.1c-14.1,7.4-27.1,17.5-40.1,26.6c-15,10.6-29.8,21.5-44.5,32.5
		c-14.2,10.7-28.2,21.5-42.3,32.4c-14.2,11-30.7,21.4-43.1,34.3C2053.7,217.4,2054.3,218.3,2054.9,217.9z"/>
	<path class="st2" d="M2000.4,252.5c14-8.5,27.2-18.1,40.6-27.4c0.7-0.5-0.2-1.4-0.9-1c-13.5,9.1-27.3,17.9-40.2,27.8
		C1999.4,252.3,2000,252.8,2000.4,252.5z"/>
	<path class="st2" d="M2095.9,217.3c28-11,55.2-25.5,81.7-39.6c25.7-13.7,50.6-28.8,74.4-45.4c0.3-0.2-0.1-0.7-0.4-0.5
		c-25.1,16.8-51,32.4-77.9,46.5c-25.7,13.4-52.9,24.3-78.3,38.1C2094.7,216.7,2095.3,217.6,2095.9,217.3z"/>
	<path class="st2" d="M2168.8,237.8c29.2-7,56.6-24.3,83-37.6c29.9-15,60.2-26.4,92.5-35.9c0.8-0.2,0.5-1.4-0.3-1.2
		c-30.9,8-60.1,19.1-88.5,33.2c-14.4,7.1-28.5,14.6-43,21.6c-14.4,7-29.6,12.3-44.1,18.9C2167.8,237,2168.2,238,2168.8,237.8z"/>
	<g>
		<path class="st2" d="M2327.3,213.7c9.1-4.1,18.6-5.3,28.3-7.4c3.3-0.7,6.4-1.5,9.6-2.6c1.4-0.6,2.9-1.1,4.3-1.6
			c2.1-1.1,4.3-1.1,6.6,0.2c0,0,0.7,0,1,0c0.2,0,0.3-0.2,0.3-0.4s-0.1-0.4-0.1-0.6c0-0.2-0.3-0.3-0.4-0.3c-0.1,0-0.2,0-0.4,0.1
			c-0.4,0.1-0.3,0.7,0.2,0.6c-1.1,0.2-3.6-1.4-5.3-1.2c-5.2,0.5-10.7,3.9-15.9,5c-9.7,2.1-19.6,2.9-28.3,7.8
			C2326.9,213.5,2327.1,213.8,2327.3,213.7z"/>
		<path class="st2" d="M2377.1,202.3C2377.1,202.3,2377,202.3,2377.1,202.3C2377.4,202.3,2377.3,202.3,2377.1,202.3z"/>
	</g>
	<path class="st2" d="M2227.1,250.2c28.7-7.7,56.6-20.8,84.3-31.3c0.2-0.1,0-0.3-0.2-0.3c-27.9,10-57.8,18.1-84.4,30.9
		C2226.4,249.8,2226.7,250.4,2227.1,250.2z"/>
	<path class="st2" d="M2184.7,293.4c10.9-5.1,20.8-11.8,32.1-16.5c11.2-4.7,22.6-8.9,34.1-12.8c23.2-7.8,46.4-15,68.4-25.7
		c0.5-0.2,0.1-1-0.4-0.8c-22.7,10.2-46.9,17.2-70.5,25.1c-11.5,3.8-23.1,7.7-34.1,12.7c-10.3,4.6-21.9,9.3-30.4,16.8
		C2183.3,292.8,2184,293.7,2184.7,293.4z"/>
	<path class="st2" d="M2328,277.6c23.5-5.7,46.7-11.3,70.4-16l0,0c-23,4-49.6,5.4-70.7,15.4C2327.5,277.2,2327.7,277.7,2328,277.6z"
		/>
	<path class="st2" d="M2416.4,240.8c26.4-4.2,54.1-11.3,81.1-10.3c0.1,0,0.1-0.2,0-0.2c-27.3-0.7-54.4,5.8-81.1,10.2
		C2416.1,240.5,2416.2,240.8,2416.4,240.8z"/>
	<path class="st2" d="M2383.6,247.3c9.8-1.5,19.4-3.7,28.9-6.4c0.3-0.1,0.2-0.5-0.1-0.4c-9.5,2.7-19.1,4.8-28.9,6.5
		C2383.3,247,2383.4,247.3,2383.6,247.3z"/>
	<path class="st2" d="M2391.5,289c4.6,0,9.5-1.2,13.8-2.9c0.1,0,0-0.2-0.1-0.2c-4.5,0.8-9.3,1.5-13.7,2.7
		C2391.3,288.7,2391.3,289,2391.5,289z"/>
	<path class="st2" d="M2287.9,308.4c7.4-2,14-5.8,21.6-7.7c7-1.8,14.1-3,21.2-3.9c15.9-2.1,31.9-3.2,47.6-6.4c0.1,0,0.1-0.2,0-0.2
		c-16.9,2.7-34.2,3.2-51.2,5.6c-12.4,1.7-29.6,3.8-39.7,11.6C2287,307.8,2287.4,308.6,2287.9,308.4z"/>
	<path class="st2" d="M2341.3,320.2c18.2-4,35.9-10.5,53.9-15.1c18.1-4.6,36.4-8.5,54.7-12.3c0.6-0.1,0.3-0.9-0.2-0.8
		c-19.1,3.3-37.9,7.7-56.7,12.3c-17.4,4.2-35.7,8.2-52.2,14.9C2340.2,319.4,2340.6,320.3,2341.3,320.2z"/>
	<path class="st2" d="M2449.8,311c2.1-0.2,4.1-1,6.1-1.9c0.2-0.1,0-0.3-0.1-0.2c-2,0.8-4,1.2-6,1.9
		C2449.5,310.8,2449.6,311,2449.8,311z"/>
	<path class="st2" d="M2374.4,332.8c22.6-6.4,44.8-13.7,67.5-19.7c0.4-0.1,0.3-0.7-0.2-0.6c-22.6,4.7-46.4,10.7-67.7,19.3
		C2373.4,332,2373.8,333,2374.4,332.8z"/>
	<path class="st2" d="M2453.6,334.5c16.6-1.8,33.1-4.2,49.6-6.5c0.7-0.1,0.4-1-0.2-0.9c-16.5,2.2-33,4.3-49.4,7.1
		C2453.3,334.2,2453.4,334.6,2453.6,334.5z"/>
	<path class="st2" d="M2398,340.4c13.5-3.6,27.6-2.8,41-6.2c0.3-0.1,0.2-0.4-0.1-0.4c-13.3,3.1-28.9-0.1-41.2,5.9
		C2397.3,339.8,2397.5,340.5,2398,340.4z"/>
	<path class="st2" d="M2444.8,357.8c19.5-3.5,37.5-4.9,57.4-3.8c18.9,1,37.9,0,56.6,3c0.1,0,0.1-0.2,0-0.2
		c-20.8-2.7-41.2-3-62.1-4.5c-17-1.2-36.9-3.3-53,3C2442.4,355.9,2443.4,358.1,2444.8,357.8z"/>
	<path class="st2" d="M2152.5,295.2c0.1,0,0.2,0,0.4,0c0.6,0.2,1.3,0.5,1.9,0.7C2154,295.7,2153.2,295.4,2152.5,295.2z"/>
	<path class="st1" d="M2377.6,340.3c5.7,1.4,11.5,2.8,17.2,4.2c-0.5-0.1-1.1-0.1-1.6-0.1c-1.3,0-2.6,0.1-4,0c-1.7-0.1-3.3-0.5-4.9-1
		c-5.1-1.4-9.8-2.3-14.7-3.5c-2.1-0.5-4.2-1-6.4-1.6c-0.1,0-0.2-0.1-0.3-0.1c-3.2-0.9-7.2-2.7-10.6-2.8c-0.1,0-0.3,0-0.4,0
		c-0.2,0-0.3,0-0.5,0c-0.7,0-1.4,0-2.1-0.2c-1.2-0.2-2.3-0.8-3.3-1.4c-2.8-1.3-5.7-2.3-8.7-2.9c-3.6-0.6-7.2-0.7-10.8-1.3
		c-0.5-0.1-1-0.2-1.7-0.3c-6.3-1.4-18.4-5.3-23.5-6.6h-0.1c-30-7.8-34.1-7.8-47.1-11.5c-13.7-3.9-27.4-8.6-41.6-9.7
		c-4.6-0.4-9.1,0.5-13.7,0c-0.1,0-0.1,0-0.2,0c-7.4-0.8-15.4-2.1-23-3.4c-0.1,0-0.2,0-0.3,0c-8.1-1.3-16-2.6-22.6-3
		c-12.1-4.3-25.2-3.1-38.2-2.8c-3.4,0.1-6.7,0.1-10-0.1c-8.3-0.4-17-0.8-25.3-1.3c-0.1,0-0.2,0-0.2,0l0,0c-2-0.1-5.2-0.1-8.4-0.1
		c-0.1,0-0.3,0-0.4,0c-3.1,0-6.1,0.1-8,0.1l0,0c-3,0-4.3-1.3-7.3-1.3c-4.8,0-3.6,1.1-8.3,1.3c-8,0.3-16.2,0.3-24.2,0.6
		c-0.3,0-0.7,0-1.1,0.1c-2.6,0.2-5.6,0.6-8,0.5c0,0-0.1,0-0.2,0c-3.6-0.2-2.1,0.5-5.9,0.6c-3.1,0.1-10.9-4.2-13.7-3
		c-1.8,0.8-3.9,0.1-5.9,0.5c-1.8,0.4-6.3,1.1-8.1,1.5c-4.1,0.9-4.7,3-7.1,3.6c-0.6,0.2-1.2,0.2-2.1,0.2h-0.1c-2-0.1-4.5-0.2-6.2,0.6
		h-0.1c-0.2,0.1-0.5,0.1-0.8,0.1c-1.2,0-3-0.5-3.8-0.4c-1.3,0.2-2.6-0.6-3.9-1c-6-1.7-9.2,3.5-15.3,4.3c-0.3,0-0.7,0.1-1,0.1
		c-1,0.1-2,0.3-2.8,0.4c-4.5,0.6-7.1,1-12.8,2c-0.5,0.1-1,0.2-1.5,0.2c-0.1,0-0.3,0-0.5,0.1c-2.7,0.4-10.5,0.9-12.5,1.3
		c-1.8,0.3-3.6,0.2-5.4,0.1c-6.7-0.4-14-1-19.6,2.4c-1.5,0.9-2.9,2.1-4.6,2.9c-3.4,1.4,1.1,0.3-2.2,1.5h-0.1
		c-0.7,0.3-4.5,0.9-6.8,1.4c-0.6,0.1-1,0.2-1.3,0.3c-0.1,0-0.2,0-0.2,0.1c-0.6,0.2-1.1,0.3-1.6,0.4l0,0c-2,0.2-3.1-1-5.9-1.2
		c-5.2-0.4-8,4.2-13,5.7l0,0c-10.3,3.1-20.2,6-30.4,8.1c-0.1,0-0.1,0-0.1,0c-0.1-0.2-0.6,0-1,0.3c-0.2,0.1-0.5,0.3-0.7,0.3
		c-0.2,0.1-0.3,0-0.3-0.1c-4.2,3.9-3.5,0.6-9.4,0.7c-2.8,0.1-2.8,2.5-10.2,5.3h-0.1c-1.7,0.7-3.8,1.3-6.3,2h-0.1
		c-6.6,1.7-5.6-0.9-12.3,0.4c-2.7,0.5-5,5.5-7.6,6.5c-0.2,0.1-0.4,0.1-0.6,0.2c-0.8,0.3-1.6,0.5-2.3,0.8c-1.4,0.5-2.7,1-4.1,1.4
		c-6.7,2.2-12.8,3.7-21.5,3.6c-6.7,2-7.2,7.8-11.4,9.1c-0.6,0.2-1.5,0.6-2.5,1c-0.1,0-0.1,0-0.1,0.1c-3.1,1.4-7.3,3.6-9.5,4
		c-1.6,0.3-3.8,1.2-5.4,1.3c-4.6,0-8.6,2.1-14,4.2c-2.9,1.1-8.3,8.3-11.4,9c-8.4-0.3-12.2,0-18.9,4.8c-0.8,0.5-2.4,6.7-3.2,7.3
		c-0.2,0.2-0.8,0.5-1.6,1c-2.4,1.5-6.7,4.1-7.3,4.2c-9.4,1.9-16.6,5-20.4,13.7c-5.8,1.4-3.9-0.9-7.3,3.8c-0.6,0.9-1.2,1.8-2.1,2.4
		c-0.9,0.6-1.9,0.9-3,1.3c-2.6,1.1-4.9,3.1-6.1,5.7c-0.7,1.4-1.2,3-2.5,3.6c-1.2,0.6-2.8,0.3-4,0.9c-1.6,0.8-1.9,2.9-3.1,4.2
		c-1.1,1.2-2.8,1.7-4.2,2.5c-2.9,1.4-5.1,3.8-6.3,6.7c1.3,3.1-1,4.9-4.1,3.9c-1.3-1.3-3.5-1.4-5.1-0.7c-1.7,0.7-2.9,2-4.1,3.4
		c-0.1,0.2-0.3,0.3-0.4,0.5c-0.3-0.2-0.6-0.4-0.9-0.7c-0.9-0.7-1.6-1.6-2.1-2.5c8.9-8.6,19.5-15.4,28.1-24.2
		c3.9-4,7.5-8.4,11.8-12.1c3.9-3.3,8.3-5.9,12.7-8.6c13.9-8.3,27.2-18,41.9-24.9c18.7-8.8,37.4-17.6,56.1-26.5
		c4.3-2,8.7-4.1,13.2-5.7c5.4-2,11.1-3.4,16.8-4.8c12.5-3.1,26.1-4.7,38.2-8.9c17.1-6,34.5-11.1,52.1-15.2
		c18-4.2,36.2-7.4,54.4-10.7c5.5-1,11.3-3.5,16.9-4.2c5.1-0.7,10.2-1.4,15.3-2.1c19.6-2.7,39.2-5.3,58.9-6.1
		c8.7-0.3,18.1,2.6,26.8,1.9c14.7-1.1,29.4-2.2,44.2-2.1c26.3,0.2,53.2,1.5,79.4,4.5c20.5,2.3,40.9,5,61.3,8.1
		c18.1,2.7,35.6,7.8,53.4,11.9C2300.5,320.4,2339,330.9,2377.6,340.3z"/>
	<path class="st2" d="M2394.8,344.5c1.3,0.2,2.6,0.5,3.9,1C2397.4,345.1,2396.1,344.8,2394.8,344.5z"/>
	<path class="st2" d="M2445.3,356.7c-9.8-2.3-19.6-4.6-29.4-6.9c-3.2-0.7-6.6-1.7-9.8-1c-2.4-1.3-4.8-2.5-7.3-3.4
		C2414.2,349.2,2429.7,352.9,2445.3,356.7z"/>
</g>
</svg>
