<?xml version="1.0" encoding="utf-8"?>
<!-- Generator: Adobe Illustrator 22.0.0, SVG Export Plug-In . SVG Version: 6.00 Build 0)  -->
<svg version="1.1" xmlns="http://www.w3.org/2000/svg" xmlns:xlink="http://www.w3.org/1999/xlink" x="0px" y="0px"
	 viewBox="0 0 980 170.8" style="enable-background:new 0 0 980 170.8;" xml:space="preserve">
<style type="text/css">
	.st0{fill:#F0AAA8;}
</style>
<g id="Background">
</g>
<g id="Logo">
	<g>
		<path class="st0" d="M71.4,136.6c-2.6,1.6-6.2,2.4-10.9,2.4c-7.4,0-13-2.8-16.9-8.4c-3.8-5.6-5.8-12.9-5.8-22.1
			c0-9.1,1.9-16.5,5.8-22.1c3.8-5.6,9.7-8.4,17.6-8.4c6.8,0,12,2.7,15.5,8.1l41.1,0c-3.6-12.3-10.1-21.8-19.7-28.6
			c-10.3-7.3-22.8-11-37.6-11c-17.8,0-32.4,5.6-43.6,16.9C5.6,74.6,0,89.7,0,108.5c0,18.9,5.6,33.9,16.9,45.2
			c11.2,11.3,25.8,17,43.6,17c14.5,0,27-3.8,37.4-11.5c9.9-7.3,16.7-17,20.2-29.2l-40.7,0C75.6,133.2,73.6,135.3,71.4,136.6z"/>
		<path class="st0" d="M165.1,70.5l0-22.6l-37.2,0l0,121.4l37.2,0l0-55.5c0-10.2,2.1-17.3,6.4-21.3c4.3-4.1,10.7-6.1,19.2-6.1l9.1,0
			l0-39.8C185.4,46.5,173.8,54.5,165.1,70.5z"/>
		<path class="st0" d="M593.6,37.2c5.2,0,9.5-1.8,13.1-5.4c3.6-3.6,5.4-8,5.4-13.2c0-5.2-1.8-9.6-5.4-13.2
			c-3.6-3.6-7.9-5.4-13.1-5.4c-5.2,0-9.6,1.8-13.1,5.4c-3.6,3.6-5.4,8-5.4,13.2c0,5.2,1.8,9.6,5.4,13.2
			C584.1,35.4,588.5,37.2,593.6,37.2z"/>
		<path class="st0" d="M521.3,47.8l0-32.5l-37.2,0l0,32.5l-11.3,0l0,30.9l11.3,0l0,50.5c0,14.7,3.7,25,11.2,31c7.5,6,18,9,31.6,9
			l36.9,0l0-31.5l-31.2,0c-7.5,0-11.3-2.8-11.3-8.5l0-50.5l53.9,0l0,90.5l37.2,0l0-121.4L521.3,47.8z"/>
		<polygon class="st0" points="714.4,47.8 686.8,138.1 659.2,47.8 619.6,47.8 662.7,169.2 711,169.2 754,47.8 		"/>
		<path class="st0" d="M974.9,114.9c-3.4-4.7-6.8-7.9-12.7-10.1c-9.9-4.2-20.2-6.7-32.8-9.4c-11.8-2.5-17.8-5.7-17.8-11.1
			c0-5.9,4.9-9.6,14.6-9.6c4.9,0,8.6,1.3,11.1,3c2.4,1.6,3.9,4.4,4.4,8.6l38.1,0c-0.6-12.3-5.7-22-15.2-29.2
			c-9.6-7.1-22.2-10.7-37.7-10.7c-15.6,0-27.9,3.6-37.1,10.9c-9.1,7.3-13.7,16.2-13.7,27c0,7.8,2.4,14.2,7.1,19
			c4.7,4.9,10.4,8.3,17.2,10.2c6.7,2,13.4,3.6,20.1,4.9c8.3,1.6,24.1,3.4,24.1,12.4c0,3.2-1.4,5.8-4.2,7.8c-2.8,2-6.4,3-10.8,3
			c-10.2,0-14.6-4.3-15.7-11.7l-38.1,0c0,14.4,6.2,23.8,16.1,30.6c9.9,6.7,22.2,10.1,37,10.1c14.8,0,27-3.6,36.8-10.8
			c9.7-7.2,14.6-16.4,14.6-27.7C980,125.4,978.3,119.6,974.9,114.9z"/>
		<path class="st0" d="M308.4,63.1c-11.7-11-26.5-16.5-44.4-16.5c-17.8,0-32.4,5.6-43.6,16.8c-11.2,11.2-16.9,26.2-16.9,45
			c0,18.9,5.7,34,17,45.4c11.3,11.4,25.8,17.1,43.5,17.1c14.4,0,26.8-3.7,37.2-11.2c10.4-7.5,17.4-17.3,20.9-29.5l-38,0
			c-1.1,1.7-2.5,3.3-4.1,4.7c-4.1,3.6-9.2,5.4-15.2,5.4c-6,0-11.2-1.8-15.7-5.4c-4.4-3.6-6.9-8.3-7.5-14c0,0,0,0,0,0l83.5,0
			c0.6-3.6,0.9-7.5,0.9-11.8C326,89.4,320.2,74.1,308.4,63.1z M241.9,97.4c1-6.1,3.6-11.1,7.6-15c4.1-3.9,9.1-5.8,15.1-5.8
			c6,0,11.1,1.9,15.5,5.8c4.4,3.9,6.8,8.8,7.4,15L241.9,97.4z"/>
		<path class="st0" d="M851.8,63.1c-11.7-11-26.5-16.5-44.4-16.5c-17.8,0-32.4,5.6-43.6,16.8c-11.2,11.2-16.9,26.2-16.9,45
			c0,18.9,5.7,34,17,45.4c11.3,11.4,25.8,17.1,43.5,17.1c14.4,0,26.8-3.7,37.2-11.2c10.4-7.5,17.4-17.3,20.9-29.5l-38,0
			c-1.1,1.7-2.5,3.3-4.1,4.7c-4.1,3.6-9.2,5.4-15.2,5.4c-6,0-11.2-1.8-15.7-5.4c-4.4-3.6-6.9-8.3-7.5-14c0,0,0,0,0,0l83.5,0
			c0.6-3.6,0.9-7.5,0.9-11.8C869.4,89.4,863.5,74.1,851.8,63.1z M785.2,97.4c1-6.1,3.6-11.1,7.6-15c4.1-3.9,9.1-5.8,15.1-5.8
			c6,0,11.1,1.9,15.5,5.8c4.4,3.9,6.8,8.8,7.4,15L785.2,97.4z"/>
		<path class="st0" d="M425,47.8l0,13.7c-8.2-10-19.5-15-34-15c-15.5,0-28.6,5.8-39.4,17.5c-10.8,11.7-16.1,26.6-16.1,44.7
			c0,18.1,5.4,33,16.1,44.6c10.8,11.6,23.7,17.4,38.8,17.4c14.2,0,25.7-5.6,34.6-16.9l0,15.4l37.2,0l0-121.4L425,47.8z M396.8,138.3
			c-6.7,0-12.7-2.6-17.9-7.7c-5.2-5.1-7.8-12.5-7.8-22c0-9.5,2.6-16.9,7.8-22.1c5.2-5.2,11.2-7.8,17.9-7.8c6.7,0,25.7,0.7,25.7,29.7
			C422.5,137.4,403.5,138.3,396.8,138.3z"/>
	</g>
	<g>
	</g>
	<g>
	</g>
	<g>
	</g>
	<g>
	</g>
	<g>
	</g>
	<g>
	</g>
</g>
</svg>
