<?xml version="1.0" encoding="utf-8"?>
<!-- Generator: Adobe Illustrator 22.1.0, SVG Export Plug-In . SVG Version: 6.00 Build 0)  -->
<svg version="1.1" id="Perso" xmlns="http://www.w3.org/2000/svg" xmlns:xlink="http://www.w3.org/1999/xlink" x="0px" y="0px"
	 viewBox="0 0 1920 1200" style="enable-background:new 0 0 1920 1200;" xml:space="preserve">
<style type="text/css">
	.st0{fill:#FFCA5F;}
	.st1{fill:#FFECD0;}
	.st2{fill:#FDB649;}
	.st3{fill:#FBE4C7;}
	.st4{fill:#F7D9B6;}
	.st5{fill:#F8A636;}
	.st6{fill:#373332;}
	.st7{fill:#E3851E;}
	.st8{fill:#323031;}
</style>
<g>
	<path class="st0" d="M1154.7,653.3c0,0,0-0.1,0.1-0.1c0.2-0.4,0.3-0.8,0.5-1.2c0,0,0-0.1,0-0.1c0,0,0-0.1,0-0.1
		c0-0.2,0.1-0.3,0.1-0.5c0-0.1,0.1-0.2,0.1-0.4c0-0.1,0-0.3,0.1-0.4c0-0.1,0-0.3,0-0.4c0-0.1,0-0.2,0-0.4c0-0.2,0-0.3,0-0.5
		c0-0.1,0-0.2,0-0.3c0-0.2,0-0.3,0-0.5c0-0.1,0-0.2-0.1-0.3c0-0.2,0-0.3-0.1-0.4c0-0.1-0.1-0.3-0.1-0.4c0-0.1-0.1-0.3-0.1-0.4
		c0-0.1-0.1-0.3-0.2-0.4c0-0.1-0.1-0.2-0.1-0.3c-0.1-0.2-0.1-0.3-0.2-0.5c0-0.1-0.1-0.2-0.1-0.3c-0.1-0.1-0.2-0.3-0.3-0.4
		c-0.1-0.1-0.1-0.2-0.2-0.3c-0.1-0.1-0.2-0.2-0.3-0.3c-0.1-0.1-0.2-0.2-0.3-0.3c-0.1-0.1-0.2-0.2-0.2-0.3c-0.1-0.1-0.2-0.2-0.4-0.4
		c0,0-0.1-0.1-0.1-0.1c0,0-0.1-0.1-0.1-0.1c-0.1-0.1-0.3-0.2-0.4-0.3c-0.1-0.1-0.2-0.1-0.3-0.2c-0.1-0.1-0.3-0.2-0.4-0.3
		c-0.1-0.1-0.2-0.1-0.3-0.2c-0.1-0.1-0.2-0.1-0.4-0.2c-0.1-0.1-0.3-0.1-0.4-0.2c-0.1,0-0.2-0.1-0.3-0.1c-0.2-0.1-0.3-0.1-0.5-0.2
		c-0.1,0-0.1,0-0.2-0.1l-5.5-1.7c-4.5-1.4-9.2,1.2-10.6,5.7c-0.6,2-0.4,4.1,0.4,5.9l-8.8,9.5l-5.2-8.4h3.5v-4.5
		c0-7.4-5-13.8-11.8-15.8l-0.4-4.7c2.7-0.6,5.1-1.9,6.4-3.7c0.7-1.2,0.5-3.1,0.1-4.9c-0.3-1.5-0.7-3-0.7-4c0-0.8,0.2-1.3,0.9-1.5
		c-0.8-1.3-1.3-2.5-1.5-4c1.9-0.5,4.3-1.7,5.1-3.2c0.5-0.4,0.8-0.9,1-1.4c0.2-0.4,0.2-0.8,0.2-1.3c-0.2-2.3-3.6-3.4-4.6-6
		c0,0,0,0,0,0c0.3-2,0.2-4.3-0.2-6.4c-0.1-0.6-0.2-1.2-0.4-1.7c4.2-0.8,7.9-3,9.7-7.5c0.2-0.5,0.4-1.1,0.6-1.8c-3.1,1-6.6,2-9.9,1.8
		c1.8-1,3.1-2.8,3.8-4.8c-4.5,1.6-8.7,0.8-12.8,0c-3.4-0.7-6.9-1.4-10.4-0.9c-3.4-0.4-7.2-0.2-10.4,0.8c-1,0.4-2.3,0.9-3.5,1.4
		c-1.2,0.5-2.3,1.1-3.1,1.8c-1.7,1.5-1.5,2.7-1.9,4.9c-0.7,3.7-1.2,7.1-0.5,10.7c0.2,0.9,0.5,1.7,0.8,2.6c0.1,0.1,0.2,0.2,0.3,0.3
		c0.1,0.4,0.2,0.8,0.3,1.2c1.8,6.5,5.8,12.9,8.3,18.9l-0.3,0.1c0,0.8,0.5,1.8,0.5,2.8c1.7-0.2,3.1-1.1,4.3-2.4l1.3,15.3
		c-4.3,3-7.2,8-7.2,13.6v3.8c1.3,0.4,2.7,0.7,4.1,0.7h8.2l5.5,8.8l0.4,0.7l0,0l10.8,17.3c1.4,2.2,3.8,3.7,6.4,4c0.3,0,0.5,0,0.8,0
		c2.4,0,4.6-1,6.2-2.7l23.4-25.3c0.2-0.2,0.4-0.5,0.6-0.8c0-0.1,0.1-0.1,0.1-0.2C1154.3,653.9,1154.5,653.6,1154.7,653.3z"/>
	<g>
		<g>
			
				<rect x="1093.8" y="609.7" transform="matrix(0.9963 -8.642031e-02 8.642031e-02 0.9963 -49.8011 97.5921)" class="st1" width="17" height="28.6"/>
		</g>
		<g>
			<path class="st2" d="M1104,631.3h2.7c9.1,0,16.6,7.5,16.6,16.6v4.5h-31.8c-1.4,0-2.8-0.3-4.1-0.7v-3.8
				C1087.4,638.8,1094.9,631.3,1104,631.3z"/>
		</g>
		<g>
			<path class="st3" d="M1147.1,657.9c3.6,0,7-2.4,8.1-6c1.4-4.5-1.2-9.2-5.7-10.6l-5.5-1.7c-4.5-1.4-9.2,1.2-10.6,5.7
				s1.2,9.2,5.7,10.6l5.5,1.7C1145.5,657.8,1146.3,657.9,1147.1,657.9z"/>
		</g>
		<g>
			<path class="st1" d="M1123.7,683.2c2.4,0,4.6-1,6.2-2.7l23.4-25.3c3.2-3.4,3-8.8-0.5-12c-3.4-3.2-8.8-3-12,0.5l-15.9,17.1
				l-14-22.4c-2.5-4-7.7-5.2-11.7-2.7s-5.2,7.7-2.7,11.7l19.9,31.9c1.4,2.2,3.8,3.7,6.4,4C1123.2,683.2,1123.4,683.2,1123.7,683.2z"
				/>
		</g>
		<g>
			
				<rect x="1103.9" y="655.8" transform="matrix(0.8479 -0.5301 0.5301 0.8479 -178.9244 689.521)" class="st3" width="17" height="1.7"/>
		</g>
		<path class="st0" d="M1099.3,635.6c4-2.5,9.2-1.3,11.7,2.7l8.2,13.1l-14.4,9l-8.2-13.1C1094.1,643.3,1095.3,638.1,1099.3,635.6z"
			/>
		<g>
			<g>
				<path class="st4" d="M1105.3,588.7c0.8,0.8,1.5,2,2.6,2.8c-2.3,0.2-4.2-1-6-2.2c0.7,2.6,1.4,5.8,2.1,9.1
					c1.2,5.9,2.4,12.3,3.7,16.7c0.4-0.8,0.9-1.6,1.5-2.3c-1.8-2.7-2.9-7.5-3.1-10.4c-0.3-2-0.9-6,0.5-7.8c0.8-0.9,1.9-0.5,2.6-1.3
					c1.1-1,0.2-0.9,0-2.3c2.9,0.1,6.1,0.5,8.8-0.5c-0.1-0.6-0.2-1.2-0.4-1.7C1113.5,589.8,1109,589.4,1105.3,588.7z"/>
			</g>
			<g>
				<path class="st4" d="M1099.9,610.1c0-0.4,0-0.8,0-1.3c0-0.3,0-0.6-0.1-0.9c-0.7,0.1-1.4,0.1-2-0.1c-0.3,3.3-1.6,7.7-4.1,10.6
					c1.5,1.8,3,3.1,4.7,4.5c-0.3-0.7-0.6-1.4-0.8-2.1C1096.8,617,1099.9,613.7,1099.9,610.1z"/>
			</g>
			<g>
				<path class="st1" d="M1095.3,601.6c0.4-1.4,1.8-1.9,3.1-1.9c-0.2-1-0.3-1.9-0.4-2.8c-1.5-1.8-4.8,0.2-5.2,3.3
					c-0.1,0.5-0.1,1.1-0.1,1.6c0.2,3,2.3,5.5,5.1,6.1c0.7,0.1,1.3,0.2,2,0.1c-0.1-1.2-0.3-2.5-0.6-3.8
					C1097.3,604.2,1094.7,603.9,1095.3,601.6z"/>
			</g>
			<g>
				<path class="st0" d="M1114.6,585c-2.6,0.4-4.7,0.9-7.3,0.6c-2.3-0.3-4.5-1.4-6.6-1.7c0.5,1.1,1.8,2,2.5,3.2
					c-3.3,0-6.3,0-9.3-1.3l0,0.1c0.5,0.2,1,0.4,1.6,0.6c2.2,0.6,4.2,1.9,6.4,2.8l0,0c1.8,1.2,3.7,2.4,6,2.2c-1-0.8-1.8-2-2.6-2.8
					c3.8,0.7,8.2,1.1,12.2,0.4c-0.4-1.5-0.8-2.9-1.5-4.3C1115.5,584.9,1115,584.9,1114.6,585z"/>
			</g>
			<g>
				<path class="st5" d="M1085.4,599.7c2.2,1.9,4.6,2,7.3,2c0-0.5,0-1.1,0.1-1.6c0.4-3.1,3.7-5.1,5.2-3.3c0.1,0.9,0.3,1.9,0.4,2.8
					c0.1,0.3,0.1,0.5,0.2,0.8c0.6-0.4,1.2-0.9,1.6-1.5c-0.3,2.4,2.7,0,3.6-0.5l0.2,0c-0.7-3.3-1.4-6.5-2.1-9.1l0,0
					c-2.1-0.9-4.2-2.2-6.4-2.8c-0.5-0.2-1-0.4-1.6-0.6c-2.8-1.2-5.8-3.3-7.6-5.5l0,0c0,0,0,0,0,0c-0.6-0.8-1.2-1.6-1.8-2.4
					c-1.2,0.5-2.3,1.1-3.1,1.8c-1.7,1.5-1.5,2.7-1.9,4.9c-0.7,3.7-1.2,7.1-0.5,10.7c0.2,0.9,0.5,1.7,0.8,2.6
					c0.1,0.1,0.2,0.2,0.3,0.3c1.5,1.4,3.5,2.5,5.2,3.3C1085.3,600.9,1085.6,600.2,1085.4,599.7z"/>
			</g>
			<g>
				<path class="st2" d="M1092.7,601.8c-2.7,0-5.1-0.2-7.3-2c0.2,0.5-0.2,1.2-0.2,1.9c-1.8-0.8-3.7-1.9-5.2-3.3
					c0.1,0.4,0.2,0.8,0.3,1.2c1.8,6.5,5.8,12.9,8.3,18.9l-0.3,0.1c0,0.8,0.5,1.8,0.5,2.8c1.9-0.3,3.5-1.3,4.8-2.9
					c2.5-2.9,3.8-7.3,4.1-10.6C1095,607.3,1092.9,604.8,1092.7,601.8z"/>
			</g>
			<g>
				<path class="st2" d="M1116.2,608.9c-0.3,0-0.6,0-0.9,0.1c-0.3,0.1-0.6,0.1-0.9,0.2c-2.1,0.6-3.9,1.9-5.4,3.8
					c-0.5,0.7-1,1.4-1.5,2.3c-1.3-4.5-2.5-10.8-3.7-16.7l-0.2,0c-0.9,0.5-3.8,2.9-3.6,0.5c-0.4,0.5-0.9,1.1-1.6,1.5
					c0.2,1.2,0.5,2.4,0.7,3.6c0.3,1.3,0.5,2.6,0.6,3.8c0,0.3,0,0.6,0.1,0.9h0.1c1.2,4.1,1.2,8.4,2.4,12.6c0.6-0.2,1.1-0.5,1.4-1.3
					c2.5,2,3.9,3.3,7.3,2.4c2.5-0.6,4.9-1.8,6.5-3.9c-0.3-1.5-0.7-3-0.7-4c0-0.8,0.2-1.3,0.9-1.5c-0.8-1.3-1.3-2.5-1.5-4
					c0,0,0,0,0-0.1L1116.2,608.9z"/>
			</g>
			<g>
				<path class="st2" d="M1117.4,589c4.2-0.8,7.9-3,9.7-7.5c-2.9,2.2-7.5,2.8-11.1,3.3C1116.6,586.1,1117.1,587.6,1117.4,589z"/>
			</g>
			<g>
				<path class="st2" d="M1117.7,581.6c1.8-1,3.1-2.8,3.8-4.8c-4.5,1.6-8.7,0.8-12.8,0c-3.4-0.7-6.9-1.4-10.4-0.9
					c-3.4-0.4-7.2-0.2-10.4,0.8c-1,0.4-2.3,0.9-3.5,1.4c0.6,0.8,1.1,1.6,1.8,2.4c0,0,0,0,0,0l0,0c1.8,2.3,4.8,4.3,7.6,5.5l0-0.1
					c3.1,1.3,6,1.3,9.3,1.3c-0.8-1.1-2-2-2.5-3.2c2.2,0.2,4.3,1.4,6.6,1.7c2.5,0.3,4.7-0.3,7.3-0.6c0.4-0.1,0.9-0.1,1.4-0.2
					c3.6-0.5,8.3-1.1,11.1-3.3c0.2-0.5,0.4-1.1,0.6-1.8C1124.6,580.8,1121.1,581.8,1117.7,581.6z"/>
			</g>
			<g>
				<path class="st1" d="M1109,591.2c0.2,1.4,1.1,1.3,0,2.3c-0.6,0.8-1.8,0.4-2.6,1.3c-1.4,1.8-0.8,5.7-0.5,7.8
					c0.2,2.9,1.3,7.7,3.1,10.4c1.5-1.9,3.3-3.2,5.4-3.8c-0.6-0.5-1-1.2-1-2.1c2.1-0.3,6.2-0.1,8.2-1.7c0,0.2-0.1,0.4-0.3,0.6
					c0.5-0.4,0.8-0.9,1-1.4c0.2-0.4,0.2-0.8,0.2-1.3c-0.2-2.3-3.6-3.4-4.6-6c0,0,0,0,0,0c0.3-2,0.2-4.3-0.2-6.4
					C1115.1,591.7,1111.9,591.4,1109,591.2z"/>
			</g>
			<g>
				<path class="st4" d="M1113.4,607c0,0.9,0.4,1.6,1,2.1c0.3-0.1,0.6-0.2,0.9-0.2c0.3-0.1,0.6-0.1,0.9-0.1l0,0.2c0,0,0,0,0,0.1
					c1.9-0.5,4.3-1.7,5.1-3.2c0.1-0.2,0.2-0.4,0.3-0.6C1119.6,607,1115.5,606.8,1113.4,607z"/>
			</g>
			<g>
				<path class="st5" d="M1111.1,622.6c-3.3,0.9-4.7-0.4-7.3-2.4c-0.3,0.8-0.8,1-1.4,1.3c-1.3-4.2-1.3-8.5-2.4-12.6h-0.1
					c0,0.4,0,0.9,0,1.3c0,3.6-3.1,6.9-2.3,10.7c0.2,0.7,0.4,1.4,0.8,2.1c0.6,1.1,1.4,2.1,2.2,3l0,0c4.3,3.3,13.8,2,16.8-2.3
					c0.7-1.2,0.5-3.1,0.1-4.9C1116,620.8,1113.6,622,1111.1,622.6z"/>
			</g>
			<g>
				<path class="st4" d="M1095.3,601.6c-0.6,2.3,2,2.6,4,2.5c-0.2-1.2-0.5-2.4-0.7-3.6c-0.1-0.3-0.1-0.5-0.2-0.8
					C1097.2,599.7,1095.7,600.2,1095.3,601.6z"/>
			</g>
			<g>
				<path class="st6" d="M1115.6,597.5c0,0.9-0.7,1.6-1.6,1.6c-0.9,0-1.6-0.7-1.6-1.6c0-0.9,0.7-1.1,1.6-1.1
					C1114.9,596.4,1115.6,596.6,1115.6,597.5z"/>
			</g>
			<g>
				<path class="st4" d="M1108.8,602c0.7,0.6,1.5,1.1,2.3,1.8c1.7,1.4,3.6-1.1,1.8-2.3c-1-0.7-2.1-1-3.4-1.1
					C1108.7,600.3,1108.2,601.4,1108.8,602L1108.8,602z"/>
			</g>
			<g>
				<path class="st5" d="M1110.5,593.7c1.2-0.3,2.5-0.4,3.6-0.9c0.9-0.4,0.8-1.8-0.2-1.8c-1.3-0.1-3.5,1-3.5,2.5
					C1110.4,593.6,1110.4,593.7,1110.5,593.7L1110.5,593.7z"/>
			</g>
			<g>
				<path class="st7" d="M1111.7,613.8c1.5,0.4,3,0.5,4.5,0.2c0.6-0.2,0.4-1.1-0.3-1c-1.3,0.3-2.7,0.2-4-0.2
					C1111.3,612.7,1111,613.7,1111.7,613.8L1111.7,613.8z"/>
			</g>
		</g>
	</g>
	<path class="st8" d="M1094.3,618.8l1.3,15.3c0,0.4-0.1,0.7-0.4,0.9c-4.2,2.9-6.8,7.7-6.8,12.8v4.7c0,0.5-0.4,1-1,1s-1-0.4-1-1v-4.7
		c0-5.6,2.7-10.8,7.2-14.1l-1.1-12.8c-1.1,0.7-2.2,1.2-3.4,1.4c-0.3,0-0.6,0-0.8-0.2c-0.2-0.2-0.3-0.5-0.3-0.7
		c0-0.4-0.1-0.9-0.2-1.3c-0.1-0.5-0.3-1-0.3-1.5c0-0.1,0-0.3,0.1-0.4c-0.8-1.9-1.8-3.8-2.8-5.9c-2-4-4.1-8.2-5.3-12.5
		c-0.1-0.3-0.2-0.6-0.2-0.9l-0.1-0.1c-0.1-0.1-0.2-0.2-0.2-0.4c-0.3-0.9-0.6-1.8-0.8-2.7c-0.7-3.8-0.2-7.3,0.5-11.1
		c0-0.3,0.1-0.7,0.1-1c0.2-1.7,0.4-3,2-4.5c1-0.9,2.3-1.5,3.3-2c0.7-0.3,1.4-0.6,2.1-0.8c0.5-0.2,1-0.4,1.5-0.6
		c3.8-1.3,7.9-1.2,10.7-0.9c3.5-0.5,6.9,0.2,10.1,0.8l0.5,0.1c3.7,0.7,8,1.6,12.3,0c0.4-0.1,0.8,0,1,0.2c0.3,0.3,0.4,0.7,0.2,1
		c-0.5,1.3-1.2,2.5-2,3.5c2.3-0.2,4.6-0.9,6.9-1.7c0.3-0.1,0.7,0,1,0.2c0.3,0.2,0.4,0.6,0.3,1c-0.2,0.7-0.4,1.3-0.6,1.9
		c-1.6,4.1-4.8,6.8-9.4,7.9c0.1,0.3,0.1,0.5,0.1,0.8c0.4,2.2,0.4,4.5,0.2,6.5c0.4,0.9,1.3,1.7,2.1,2.4c1.1,1,2.3,2.1,2.5,3.6
		c0,0.6,0,1.2-0.2,1.7c-0.3,0.6-0.7,1.2-1.2,1.7c-0.9,1.5-2.9,2.7-4.8,3.3c0.2,1,0.6,1.9,1.2,2.8c0.2,0.3,0.2,0.6,0.1,0.9
		s-0.4,0.5-0.7,0.6c0,0,0,0,0,0c0,0-0.1,0.1-0.1,0.5c0,0.7,0.2,1.7,0.4,2.7c0.1,0.4,0.2,0.7,0.2,1.1c0.4,2.1,0.7,4.2-0.2,5.7
		c-1.3,1.8-3.4,3.2-6.2,3.9l0.3,3.2c7,2.4,11.8,9.2,11.8,16.6v4.5c0,0.5-0.4,1-1,1s-1-0.4-1-1v-4.5c0-6.8-4.6-12.9-11.1-14.9
		c-0.4-0.1-0.7-0.5-0.7-0.9l-0.4-4.7c0-0.5,0.3-0.9,0.8-1.1c2.6-0.6,4.8-1.8,5.8-3.3c0.5-0.8,0.3-2.6-0.1-4.2
		c-0.1-0.4-0.2-0.7-0.2-1.1c-0.2-1.2-0.5-2.3-0.5-3.2c0-0.9,0.2-1.4,0.5-1.8c-0.6-1.1-1-2.3-1.2-3.5c-0.1-0.5,0.2-1,0.7-1.1
		c1.7-0.4,3.8-1.5,4.5-2.7c0.1-0.1,0.1-0.2,0.2-0.2c0.4-0.3,0.6-0.7,0.8-1.1c0.1-0.2,0.1-0.5,0.1-0.8c-0.1-0.8-0.9-1.5-1.8-2.3
		c-1-0.9-2.2-1.9-2.7-3.4c0-0.1-0.1-0.2-0.1-0.4c0,0,0-0.1,0-0.1c0.2-1.9,0.2-4-0.2-6.2c-0.1-0.5-0.2-1.1-0.3-1.6
		c-0.1-0.3,0-0.5,0.1-0.8c0.1-0.2,0.4-0.4,0.6-0.4c4.4-0.8,7.4-3.1,8.9-6.8c-2.8,0.8-5.7,1.5-8.5,1.2c-0.4,0-0.8-0.3-0.9-0.8
		c-0.1-0.4,0.1-0.9,0.5-1.1c1.1-0.6,1.9-1.5,2.5-2.4c-4.1,0.8-8,0.1-11.2-0.6l-0.5-0.1c-3.3-0.7-6.4-1.3-9.6-0.8c-0.1,0-0.2,0-0.2,0
		c-2.7-0.3-6.5-0.4-9.9,0.8c-0.4,0.2-0.9,0.4-1.5,0.6c-0.7,0.3-1.3,0.5-2,0.8c-0.9,0.4-2,0.9-2.8,1.6c-1.1,1-1.2,1.8-1.4,3.3
		c0,0.3-0.1,0.7-0.1,1.1c-0.7,3.7-1.2,7-0.5,10.4c0.2,0.7,0.4,1.5,0.7,2.2l0.1,0.1c0.1,0.1,0.2,0.3,0.3,0.5c0.1,0.4,0.2,0.8,0.3,1.1
		c1.1,4.1,3.2,8.2,5.1,12.2c1.1,2.3,2.2,4.5,3.2,6.6c0.1,0.3,0.1,0.7-0.1,1c0,0.1,0.1,0.3,0.1,0.5c0.1,0.2,0.1,0.4,0.2,0.6
		c1-0.3,1.9-1,2.8-1.9c0.3-0.3,0.7-0.4,1-0.3C1094,618.1,1094.2,618.5,1094.3,618.8z M1156.6,648.8c0-0.2,0-0.4,0-0.5
		c0-0.1,0-0.2,0-0.3l0-0.1c0-0.2-0.1-0.3-0.1-0.4c0-0.1-0.1-0.2-0.1-0.4c0,0,0-0.1,0-0.1c0-0.1-0.1-0.3-0.1-0.4
		c-0.1-0.2-0.1-0.3-0.2-0.5c0-0.1-0.1-0.2-0.1-0.3c-0.1-0.2-0.2-0.3-0.3-0.6c0-0.1-0.1-0.2-0.1-0.2c-0.1-0.2-0.2-0.3-0.3-0.5
		c-0.1-0.1-0.1-0.2-0.2-0.3c-0.1-0.1-0.2-0.3-0.3-0.4c-0.1-0.1-0.2-0.3-0.3-0.4c-0.1-0.1-0.2-0.2-0.3-0.3c-0.1-0.1-0.3-0.3-0.4-0.4
		c0,0-0.1-0.1-0.1-0.1c0,0-0.1-0.1-0.1-0.1c-0.1-0.1-0.3-0.3-0.5-0.4c-0.1-0.1-0.2-0.2-0.3-0.2c-0.1-0.1-0.3-0.2-0.4-0.3
		c-0.1-0.1-0.3-0.2-0.4-0.2c-0.1-0.1-0.3-0.1-0.4-0.2c-0.2-0.1-0.3-0.2-0.5-0.2c-0.1-0.1-0.2-0.1-0.4-0.1c-0.2-0.1-0.4-0.1-0.6-0.2
		c0,0-0.1,0-0.2-0.1l-5.5-1.7c-5-1.5-10.3,1.3-11.8,6.3c-0.6,2-0.5,4.1,0.2,6l-7.5,8.1l-10.8-17.2c-0.3-0.5-0.9-0.6-1.4-0.3
		c-0.5,0.3-0.6,0.9-0.3,1.4l11.4,18.3c0.2,0.3,0.4,0.4,0.7,0.5c0,0,0.1,0,0.1,0c0.3,0,0.5-0.1,0.7-0.3l8.8-9.5c0,0,0,0,0,0l3.9-4.2
		c0.4-0.4,0.3-1-0.1-1.4c-0.4-0.4-1-0.3-1.4,0.1l-2.8,3c-0.3-1.2-0.2-2.5,0.1-3.7c1.2-4,5.4-6.2,9.4-5l5.5,1.7c0,0,0.1,0,0.1,0
		c0.1,0,0.3,0.1,0.4,0.2c0.1,0,0.2,0.1,0.3,0.1c0.1,0.1,0.3,0.1,0.4,0.2c0.1,0.1,0.2,0.1,0.3,0.2c0.1,0.1,0.2,0.1,0.3,0.2
		c0.1,0.1,0.2,0.2,0.3,0.2c0.1,0.1,0.2,0.1,0.2,0.2c0.1,0.1,0.2,0.2,0.4,0.3c0,0,0.1,0.1,0.1,0.1c0,0,0.1,0.1,0.1,0.1
		c0.1,0.1,0.2,0.2,0.3,0.3c0.1,0.1,0.1,0.2,0.2,0.2c0.1,0.1,0.2,0.2,0.2,0.3c0.1,0.1,0.2,0.2,0.2,0.3c0.1,0.1,0.1,0.2,0.2,0.3
		c0.1,0.1,0.2,0.2,0.2,0.4l0.1,0.3c0.1,0.1,0.1,0.3,0.2,0.4c0,0.1,0.1,0.1,0.1,0.3c0,0.1,0.1,0.3,0.1,0.4c0,0.1,0.1,0.2,0.1,0.3
		l1-0.3l-0.9,0.4c0,0.1,0,0.2,0.1,0.3c0,0.1,0,0.2,0.1,0.4l1-0.2l-1,0.3l0,0.2c0,0.1,0,0.3,0,0.5l0,0.2c0,0.1,0,0.3,0,0.5
		c0,0.1,0,0.2,0,0.3c0,0.1,0,0.2,0,0.4c0,0.1,0,0.3-0.1,0.4c0,0.1,0,0.2-0.1,0.3c0,0.1-0.1,0.3-0.1,0.5l0,0c0,0,0,0.1-0.1,0.2
		c-0.1,0.4-0.3,0.7-0.4,1.1c0,0,0,0.1,0,0.1c-0.1,0.3-0.3,0.6-0.5,0.8c0,0-0.1,0.1-0.1,0.1l-0.1,0.1c-0.2,0.2-0.3,0.5-0.5,0.7
		l-23.4,25.3c-1.6,1.7-3.9,2.6-6.2,2.4c-2.3-0.2-4.4-1.5-5.7-3.5l-18.4-29.4c-0.3-0.5-0.9-0.6-1.4-0.3c-0.5,0.3-0.6,0.9-0.3,1.4
		l18.4,29.4c1.6,2.5,4.2,4.1,7.2,4.4c0.3,0,0.6,0,0.9,0c2.6,0,5.2-1.1,7-3l23.4-25.3c0.2-0.3,0.5-0.6,0.7-0.9l0.2-0.2
		c0.2-0.3,0.5-0.7,0.6-1.1c0,0,0.1-0.1,0.1-0.1c0.2-0.4,0.4-0.8,0.5-1.3c0,0,0-0.1,0.1-0.2c0-0.1,0-0.1,0-0.2
		c0.1-0.2,0.1-0.4,0.1-0.6c0-0.1,0.1-0.3,0.1-0.4c0-0.2,0-0.3,0.1-0.5c0-0.2,0-0.3,0.1-0.5c0-0.1,0-0.2,0-0.4c0-0.2,0-0.4,0-0.5
		C1156.6,649.1,1156.6,649,1156.6,648.8z"/>
</g>
</svg>
