<?xml version="1.0" encoding="utf-8"?>
<!-- Generator: Adobe Illustrator 22.1.0, SVG Export Plug-In . SVG Version: 6.00 Build 0)  -->
<svg version="1.1" id="Calque_1" xmlns="http://www.w3.org/2000/svg" xmlns:xlink="http://www.w3.org/1999/xlink" x="0px" y="0px"
	 viewBox="0 0 200 200" style="enable-background:new 0 0 200 200;" xml:space="preserve">
<style type="text/css">
	.st0{fill:url(#SVGID_1_);}
</style>
<linearGradient id="SVGID_1_" gradientUnits="userSpaceOnUse" x1="0" y1="100" x2="200" y2="100">
	<stop  offset="0" style="stop-color:#FFBB8E;stop-opacity:0.3"/>
	<stop  offset="1" style="stop-color:#FFECD0;stop-opacity:0"/>
</linearGradient>
<path class="st0" d="M200,100c0,3.3-3.5,6.3-3.8,9.5c-0.3,3.2,2.5,6.9,1.9,10c-0.6,3.2-4.6,5.5-5.6,8.6c-0.9,3.1,1.1,7.2-0.1,10.2
	c-1.2,3-5.6,4.5-7.1,7.3c-1.5,2.8-0.3,7.3-2.1,10c-1.8,2.7-6.4,3.3-8.4,5.8c-2,2.5-1.8,7.1-4,9.4c-2.3,2.3-6.9,2-9.4,4
	c-2.5,2-3.1,6.6-5.8,8.4c-2.7,1.8-7.1,0.6-10,2.1c-2.8,1.5-4.3,5.9-7.3,7.1c-3,1.2-7.1-0.8-10.2,0.1c-3.1,0.9-5.4,4.9-8.6,5.6
	c-3.1,0.6-6.8-2.2-10-1.9c-3.2,0.3-6.2,3.8-9.5,3.8c-3.3,0-6.3-3.5-9.5-3.8c-3.2-0.3-6.9,2.5-10,1.9c-3.2-0.6-5.5-4.6-8.6-5.6
	c-3.1-0.9-7.2,1.1-10.2-0.1c-3-1.2-4.5-5.6-7.3-7.1c-2.8-1.5-7.3-0.3-10-2.1c-2.7-1.8-3.3-6.4-5.8-8.4c-2.5-2-7.1-1.8-9.4-4
	c-2.3-2.3-2-6.9-4-9.4c-2-2.5-6.6-3.1-8.4-5.8c-1.8-2.7-0.6-7.1-2.1-10c-1.5-2.8-5.9-4.3-7.1-7.3c-1.2-3,0.8-7.1-0.1-10.2
	c-0.9-3.1-4.9-5.4-5.6-8.6c-0.6-3.1,2.2-6.8,1.9-10C3.5,106.3,0,103.3,0,100c0-3.3,3.5-6.3,3.8-9.5c0.3-3.2-2.5-6.9-1.9-10
	c0.6-3.2,4.6-5.5,5.6-8.6c0.9-3.1-1.1-7.2,0.1-10.2c1.2-3,5.6-4.5,7.1-7.3c1.5-2.8,0.3-7.3,2.1-10c1.8-2.7,6.4-3.3,8.4-5.8
	c2-2.5,1.8-7.1,4-9.4c2.3-2.3,6.9-2,9.4-4c2.5-2,3.1-6.6,5.8-8.4c2.7-1.8,7.1-0.6,10-2.1c2.8-1.5,4.3-5.9,7.3-7.1
	c3-1.2,7.1,0.8,10.2-0.1c3.1-0.9,5.4-4.9,8.6-5.6c3.1-0.6,6.8,2.2,10,1.9C93.7,3.5,96.7,0,100,0c3.3,0,6.3,3.5,9.5,3.8
	c3.2,0.3,6.9-2.5,10-1.9c3.2,0.6,5.5,4.6,8.6,5.6c3.1,0.9,7.2-1.1,10.2,0.1c3,1.2,4.5,5.6,7.3,7.1c2.8,1.5,7.3,0.3,10,2.1
	c2.7,1.8,3.3,6.4,5.8,8.4c2.5,2,7.1,1.8,9.4,4c2.3,2.3,2,6.9,4,9.4c2,2.5,6.6,3.1,8.4,5.8c1.8,2.7,0.6,7.1,2.1,10
	c1.5,2.8,5.9,4.3,7.1,7.3c1.2,3-0.8,7.1,0.1,10.2c0.9,3.1,4.9,5.4,5.6,8.6c0.6,3.1-2.2,6.8-1.9,10C196.5,93.7,200,96.7,200,100z"/>
</svg>
