<?xml version="1.0" encoding="utf-8"?>
<!-- Generator: Adobe Illustrator 22.1.0, SVG Export Plug-In . SVG Version: 6.00 Build 0)  -->
<svg version="1.1" id="Van" xmlns="http://www.w3.org/2000/svg" xmlns:xlink="http://www.w3.org/1999/xlink" x="0px" y="0px"
	 viewBox="0 0 1920 1200" style="enable-background:new 0 0 1920 1200;" xml:space="preserve">
<style type="text/css">
	.st0{fill:#BF1F2C;}
	.st1{fill:#FA4150;}
	.st2{fill:#373332;}
</style>
<g>
	<path class="st0" d="M792.3,526.1c5,1.1,12.1,4.9,14.8,9.5c3.2,5.6,2.5,10.1,1.6,12.9c7.8-0.8,15.6-1.5,23.4-2.2
		c-1.3-2.2-9.1-15-20.1-22.5C794.9,512,784.9,524.4,792.3,526.1z"/>
	<path class="st1" d="M1125.6,553.1H772.2c-1.2,0-1.3-0.2-0.2-0.4c132.1-17.4,293.7-15.1,354.2-4
		C1128.7,549.2,1128.1,553.1,1125.6,553.1z"/>
	<path class="st2" d="M1126.4,547.7c-30.9-5.7-87.1-9-150.5-8.7c-48.6,0.2-97.7,2.3-143.2,6.2c-2.1-3.4-9.6-15.1-20.1-22.3
		c-9.4-6.4-17.1-6-21-3.4c-1.9,1.3-3,3-2.7,4.7c0.2,1.4,1.4,2.4,3.2,2.9h0c5.1,1.2,11.7,4.9,14.1,9c2.8,4.9,2.4,8.8,1.7,11.4
		c-12.4,1.3-24.5,2.7-36.1,4.2c-0.5,0.1-1.7,0.2-1.6,1.3c0.1,1.1,1.4,1.1,2,1.1h353.4c1.9,0,3-1.5,3.2-3.1
		C1128.9,549.4,1128,548,1126.4,547.7z M808,535.1c-2.8-4.8-10-8.7-15.4-10c-0.6-0.1-1.6-0.5-1.7-1.3c-0.1-0.7,0.4-1.7,1.8-2.6
		c3.3-2.1,10.2-2.5,18.8,3.4c9.4,6.4,16.4,16.7,19,20.8c-6.9,0.6-13.8,1.2-20.4,1.9C810.7,544.8,811.1,540.4,808,535.1z
		 M1126.8,550.9c0,0.4-0.3,1.3-1.2,1.3H784.7c57.6-7,125-10.9,191.2-11.1c63.2-0.2,119.3,3.1,150.1,8.7
		C1126.8,549.8,1126.8,550.6,1126.8,550.9z"/>
</g>
</svg>
