<?xml version="1.0" encoding="utf-8"?>
<!-- Generator: Adobe Illustrator 22.1.0, SVG Export Plug-In . SVG Version: 6.00 Build 0)  -->
<svg version="1.1" id="Van" xmlns="http://www.w3.org/2000/svg" xmlns:xlink="http://www.w3.org/1999/xlink" x="0px" y="0px"
	 viewBox="0 0 1920 1200" style="enable-background:new 0 0 1920 1200;" xml:space="preserve">
<style type="text/css">
	.st0{fill:#2C292A;}
	.st1{fill:#404041;}
	.st2{fill:#323031;}
	.st3{fill:#58595B;}
	.st4{fill:#BBBDBF;}
	.st5{fill:#FDFEFF;}
	.st6{fill:#E6E7E8;}
	.st7{fill:#FFFFFF;}
	.st8{fill:#EE2737;}
	.st9{fill:#FA4150;}
	.st10{fill:#BF1F2C;}
	.st11{fill:#373332;}
	.st12{fill:#B0D4E0;}
	.st13{fill:#D7EFF6;}
	.st14{fill:#FFECD0;}
</style>
<g>
	<g id="bottom_1_">
		
			<rect x="706.3" y="708.7" transform="matrix(-1 -4.489621e-11 4.489621e-11 -1 1890.3726 1499.1053)" class="st0" width="477.7" height="81.6"/>
	</g>
	<g id="wheel_4_">
		<g>
			<g>
				
					<ellipse transform="matrix(0.7589 -0.6512 0.6512 0.7589 -318.0168 701.3729)" class="st1" cx="788.2" cy="780.2" rx="44" ry="44"/>
			</g>
			<g>
				<path class="st2" d="M741.1,780.2c0-26,21.1-47.1,47.1-47.1c26,0,47.1,21.1,47.1,47.1c0,26-21.1,47.1-47.1,47.1
					C762.2,827.2,741.1,806.1,741.1,780.2z M747.2,780.2c0,22.6,18.4,41,41,41c22.6,0,41-18.4,41-41c0-22.6-18.4-41-41-41
					C765.6,739.2,747.2,757.6,747.2,780.2z"/>
			</g>
		</g>
		<g>
			<g>
				<path class="st3" d="M825.7,783.2c1.7,0,3.1-1.4,3.1-3.1c0-22.4-18.2-40.6-40.6-40.6c-1.7,0-3.1,1.4-3.1,3.1
					c0,1.7,1.4,3.1,3.1,3.1c19,0,34.5,15.5,34.5,34.5C822.6,781.9,824,783.2,825.7,783.2z"/>
			</g>
		</g>
		<g>
			<g>
				<circle class="st4" cx="788.2" cy="780.2" r="22.1"/>
			</g>
			<g>
				<path class="st2" d="M763.1,780.2c0-13.9,11.3-25.1,25.1-25.1c13.9,0,25.1,11.3,25.1,25.1c0,13.9-11.3,25.1-25.1,25.1
					C774.3,805.3,763.1,794,763.1,780.2z M769.2,780.2c0,10.5,8.5,19,19,19s19-8.5,19-19c0-10.5-8.5-19-19-19
					S769.2,769.7,769.2,780.2z"/>
			</g>
		</g>
		<g>
			<g>
				<path class="st5" d="M801.6,783.2c1.7,0,3.1-1.4,3.1-3.1c0-9.1-7.4-16.5-16.5-16.5c-1.7,0-3.1,1.4-3.1,3.1
					c0,1.7,1.4,3.1,3.1,3.1c5.7,0,10.3,4.6,10.3,10.4C798.5,781.9,799.9,783.2,801.6,783.2z"/>
			</g>
		</g>
	</g>
	<g id="wheel_3_">
		<g>
			<g>
				
					<ellipse transform="matrix(0.7071 -0.7071 0.7071 0.7071 -223.0843 1021.7561)" class="st1" cx="1121.8" cy="780.2" rx="44" ry="44"/>
			</g>
			<g>
				<path class="st2" d="M1074.8,780.2c0-26,21.1-47.1,47.1-47.1c26,0,47.1,21.1,47.1,47.1c0,26-21.1,47.1-47.1,47.1
					C1095.9,827.2,1074.8,806.1,1074.8,780.2z M1080.9,780.2c0,22.6,18.4,41,41,41s41-18.4,41-41c0-22.6-18.4-41-41-41
					S1080.9,757.6,1080.9,780.2z"/>
			</g>
		</g>
		<g>
			<g>
				<path class="st3" d="M1159.3,783.2c1.7,0,3.1-1.4,3.1-3.1c0-22.4-18.2-40.6-40.6-40.6c-1.7,0-3.1,1.4-3.1,3.1
					c0,1.7,1.4,3.1,3.1,3.1c19,0,34.5,15.5,34.5,34.5C1156.3,781.9,1157.7,783.2,1159.3,783.2z"/>
			</g>
		</g>
		<g>
			<g>
				<circle class="st4" cx="1121.8" cy="780.2" r="22.1"/>
			</g>
			<g>
				<path class="st2" d="M1096.7,780.2c0-13.9,11.3-25.1,25.1-25.1s25.1,11.3,25.1,25.1c0,13.9-11.3,25.1-25.1,25.1
					S1096.7,794,1096.7,780.2z M1102.8,780.2c0,10.5,8.5,19,19,19s19-8.5,19-19c0-10.5-8.5-19-19-19S1102.8,769.7,1102.8,780.2z"/>
			</g>
		</g>
		<g>
			<g>
				<path class="st5" d="M1135.2,783.2c1.7,0,3.1-1.4,3.1-3.1c0-9.1-7.4-16.5-16.5-16.5c-1.7,0-3.1,1.4-3.1,3.1
					c0,1.7,1.4,3.1,3.1,3.1c5.7,0,10.3,4.6,10.3,10.4C1132.2,781.9,1133.5,783.2,1135.2,783.2z"/>
			</g>
		</g>
	</g>
	<g id="body_1_">
		<g>
			<path class="st6" d="M687.3,596.1c0.1-0.2,0.1-0.3,0.2-0.5H1184l30.2,66.8H672.2C675.6,640,680.7,617.9,687.3,596.1z"/>
		</g>
		<path class="st2" d="M1215.9,663.5l-31.2-68.9h-498l-0.5,1.3c-6.6,22-11.7,44.3-15.1,66.4l-0.2,1.2H1215.9z M1212.6,661.3H673.4
			l0.4-2.3c3.3-20.3,8-40.8,14-60.9l0.4-1.4h495.1L1212.6,661.3z"/>
		<g>
			<path class="st6" d="M1184,595.6l30.2,66.8h25.6c-1.1-3-2.2-6-3.4-8.9h-11.1c-2.9,0-5.5-1.6-6.7-4.1l-23.9-50.1
				c-0.6-1.2-0.8-2.4-0.6-3.6H1184z"/>
		</g>
		<path class="st2" d="M1182.4,594.5l31.2,68.9h27.8l-0.5-1.4c-1.2-3.3-2.3-6.3-3.4-9l-0.3-0.7h-11.8c-2.5,0-4.7-1.4-5.8-3.5
			l-23.9-50.2c-0.5-1-0.6-2-0.5-3l0.1-1.2H1182.4z M1185.7,596.7h7.1l0.4,1.5c0.1,0.5,0.3,1,0.5,1.4l23.9,50.2
			c1.4,2.9,4.4,4.7,7.7,4.7h10.4l0.5,1.2c0.4,0.9,0.7,1.9,1.1,2.8l1,2.7h-23.4L1185.7,596.7z"/>
		<g>
			<path class="st6" d="M687.4,595.6h506.7c0.2-2.2,1.5-4.2,3.5-5.3c-6.3-7.2-15.1-11.9-24.8-13.1L1066.9,564H730.5
				C710.8,564,693.3,576.8,687.4,595.6z"/>
		</g>
		<path class="st2" d="M1198.1,591.3l1.1-0.7l-0.9-1c-6.5-7.5-15.5-12.2-25.4-13.5L1066.8,563H730.5c-20.3,0-38,13-44.1,32.3
			l-0.4,1.4h509.1l0.1-1C1195.3,593.9,1196.5,592.2,1198.1,591.3z M1195.9,590l-1.1,1.4c-0.5,0.6-0.9,1.2-1.2,1.9l-0.5,1.2H688.8
			l1.2-2.8c6.9-16.2,22.8-26.7,40.5-26.7h336.4l105.8,13.1c8.2,1,16,4.8,21.9,10.5L1195.9,590z"/>
		<g>
			<path class="st5" d="M697.4,592.2c1,0,2-0.5,2.6-1.5c6.5-10.7,17.8-17.1,30.4-17.1h335.9l105.3,13.1c4.7,0.6,9.3,2.3,13.2,5
				c1.4,1,3.3,0.6,4.2-0.8c1-1.4,0.6-3.3-0.8-4.2c-4.7-3.2-10.2-5.3-15.8-6l-105.8-13.1H730.5c-14.7,0-28.1,7.5-35.6,20.1
				c-0.9,1.4-0.4,3.3,1,4.2C696.3,592,696.9,592.2,697.4,592.2z"/>
		</g>
		<g>
			<path class="st6" d="M1227.8,779h19.5c2.4-4.1,3.9-8.9,3.9-14v-36.7c0-22.6-3.9-44.9-11.3-65.9h-25.6
				C1237.2,687.8,1234.7,738.4,1227.8,779z"/>
		</g>
		<path class="st2" d="M1211.9,661.3l1.6,1.8c22.9,25.4,19.9,77,13.3,115.7l-0.2,1.3h21.4l0.3-0.5c2.6-4.4,4-9.4,4-14.6v-36.7
			c0-22.6-3.8-44.9-11.4-66.2l-0.3-0.7H1211.9z M1216.8,663.5h22.3l0.5,1.3c7,20.5,10.5,41.8,10.5,63.4V765c0,4.1-1,8.2-2.8,11.9
			l-0.6,1.1h-17.6l0.4-2.3c5.6-34.9,8.4-82.2-10.5-109L1216.8,663.5z"/>
		<g>
			<path class="st7" d="M1244.6,768c1.7,0,3.1-1.4,3.1-3.1v-36.7c0-20.5-3.2-40.8-9.6-60.3c-0.5-1.6-2.3-2.5-3.9-2
				c-1.6,0.5-2.5,2.3-2,3.9c6.2,18.9,9.3,38.5,9.3,58.4V765C1241.6,766.6,1242.9,768,1244.6,768z"/>
		</g>
		<g>
			<path class="st8" d="M666.4,736.9V765c0,5.1,1.4,9.9,3.9,14h59.4l2.8-7.4c3.1-8.1,10.8-13.4,19.4-13.4h73.6
				c8.6,0,16.3,5.3,19.4,13.4l2.8,7.4h227.9l6.9-19.3c3-8.2,10.8-13.7,19.5-13.7h42.5c8.8,0,16.6,5.5,19.5,13.7l6.9,19.3h56.7
				c6.9-40.6,9.4-91.2-13.5-116.6H672.2C668.3,687,666.4,711.9,666.4,736.9z"/>
		</g>
		<path class="st2" d="M674.3,741.5v-19.9c0-0.6,0.5-1.1,1.1-1.1s1.1,0.5,1.1,1.1v19.9c0,0.6-0.5,1.1-1.1,1.1
			S674.3,742.1,674.3,741.5z"/>
		<path class="st2" d="M665.3,765c0,5.2,1.4,10.2,4,14.6l0.3,0.5h60.8l3.1-8.1c2.9-7.6,10.3-12.7,18.4-12.7h73.6
			c8.1,0,15.5,5.1,18.4,12.7l3.1,8.1h229.4l7.2-20c2.8-7.8,10.3-13,18.5-13h42.5c8.3,0,15.7,5.2,18.5,13l7.2,20h58.4l0.2-0.9
			c6.7-39.2,9.7-91.4-13.8-117.5l-0.3-0.4H671.2l-0.1,0.9c-3.8,24.6-5.8,49.7-5.8,74.6V765z M667.5,736.9c0-23.9,1.8-48,5.3-71.7
			l0.3-1.7h540.7l0.6,0.7c11.9,14,23.8,44.8,12.8,112.1l-0.3,1.7h-55.1l-6.7-18.6c-3.1-8.6-11.4-14.4-20.5-14.4h-42.5
			c-9.2,0-17.4,5.8-20.5,14.4l-6.7,18.6H848.5l-2.5-6.7c-3.2-8.4-11.4-14.1-20.4-14.1h-73.6c-9,0-17.2,5.7-20.4,14.1l-2.5,6.7h-58.1
			l-0.6-1.1c-1.9-3.6-2.8-7.7-2.8-11.9V736.9z"/>
		<g>
			<path class="st9" d="M678.9,672.2h530.3c1.7,0,3.1-1.4,3.1-3.1c0-1.7-1.4-3.1-3.1-3.1H678.9c-1.7,0-3.1,1.4-3.1,3.1
				C675.9,670.8,677.3,672.2,678.9,672.2z"/>
		</g>
		<g>
			<path class="st10" d="M1171.1,779l2.2,6.1c1.6,4.4,5.7,7.3,10.4,7.3h40.1c10,0,18.8-5.4,23.6-13.4H1171.1z"/>
		</g>
		<path class="st2" d="M1248.2,779.5l1-1.6h-79.6l2.7,7.5c1.7,4.8,6.3,8,11.4,8h40.1C1233.7,793.5,1243.1,788.1,1248.2,779.5z
			 M1245.8,780.1l-3.3,3.4c-4.9,5-11.8,7.9-18.8,7.9h-40.1c-4.2,0-8-2.6-9.4-6.6l-1.7-4.7H1245.8z"/>
		<g>
			<path class="st10" d="M847.7,779l2.4,6.3c1.7,4.3,5.7,7.1,10.3,7.1h202.6c4.7,0,8.8-2.9,10.4-7.3l2.2-6.1H847.7z"/>
		</g>
		<path class="st2" d="M1074.5,785.4l2.7-7.5h-231l2.9,7.7c1.8,4.8,6.3,7.8,11.3,7.8h202.6C1068.2,793.5,1072.8,790.2,1074.5,785.4z
			 M1074.1,780.1l-1.7,4.6c-1.4,3.9-5.2,6.6-9.4,6.6H860.5c-4.2,0-7.8-2.5-9.3-6.4l-1.8-4.8H1074.1z"/>
		<g>
			<path class="st10" d="M670.3,779c4.8,8,13.5,13.4,23.5,13.4H717c4.6,0,8.7-2.8,10.3-7.1l2.4-6.3H670.3z"/>
		</g>
		<path class="st2" d="M728.3,785.6l2.9-7.7h-62.9l1,1.6c5.1,8.6,14.5,13.9,24.5,13.9H717C722.1,793.5,726.6,790.4,728.3,785.6z
			 M728.2,780.1l-1.8,4.8c-1.5,3.9-5.1,6.4-9.3,6.4h-23.2c-7,0-13.8-2.9-18.8-7.9l-3.3-3.4H728.2z"/>
		<g>
			<g>
				<g>
					<path class="st11" d="M709.2,610.8h15.7c1.7,0,3.1-1.4,3.1-3.1c0-1.7-1.4-3.1-3.1-3.1h-15.7c-1.7,0-3.1,1.4-3.1,3.1
						C706.2,609.5,707.5,610.8,709.2,610.8z"/>
				</g>
			</g>
			<g>
				<g>
					<path class="st11" d="M706.1,619.4h16.5c1.7,0,3.1-1.4,3.1-3.1c0-1.7-1.4-3.1-3.1-3.1h-16.5c-1.7,0-3.1,1.4-3.1,3.1
						C703,618.1,704.4,619.4,706.1,619.4z"/>
				</g>
			</g>
			<g>
				<g>
					<path class="st11" d="M702.9,628h17.3c1.7,0,3.1-1.4,3.1-3.1c0-1.7-1.4-3.1-3.1-3.1h-17.3c-1.7,0-3.1,1.4-3.1,3.1
						C699.8,626.6,701.2,628,702.9,628z"/>
				</g>
			</g>
			<g>
				<g>
					<path class="st11" d="M699.7,636.6h18.1c1.7,0,3.1-1.4,3.1-3.1c0-1.7-1.4-3.1-3.1-3.1h-18.1c-1.7,0-3.1,1.4-3.1,3.1
						C696.7,635.2,698,636.6,699.7,636.6z"/>
				</g>
			</g>
			<g>
				<g>
					<path class="st11" d="M696.6,645.1h18.9c1.7,0,3.1-1.4,3.1-3.1c0-1.7-1.4-3.1-3.1-3.1h-18.9c-1.7,0-3.1,1.4-3.1,3.1
						C693.5,643.8,694.9,645.1,696.6,645.1z"/>
				</g>
			</g>
			<g>
				<g>
					<path class="st11" d="M693.4,653.7h19.7c1.7,0,3.1-1.4,3.1-3.1c0-1.7-1.4-3.1-3.1-3.1h-19.7c-1.7,0-3.1,1.4-3.1,3.1
						C690.4,652.3,691.7,653.7,693.4,653.7z"/>
				</g>
			</g>
		</g>
		<g>
			<path class="st6" d="M664.7,787.3h28.2c5.6,0,10.2-4.6,10.2-10.2l0,0c0-5.6-4.6-10.2-10.2-10.2h-28.2c-5.6,0-10.2,4.6-10.2,10.2
				l0,0C654.6,782.7,659.1,787.3,664.7,787.3z"/>
		</g>
		<path class="st2" d="M653.5,777.1c0,6.2,5,11.2,11.2,11.2h28.2c6.2,0,11.2-5,11.2-11.2s-5-11.2-11.2-11.2h-28.2
			C658.5,765.9,653.5,770.9,653.5,777.1z M655.6,777.1c0-5,4.1-9.1,9.1-9.1h28.2c5,0,9.1,4.1,9.1,9.1s-4.1,9.1-9.1,9.1h-28.2
			C659.7,786.2,655.6,782.1,655.6,777.1z"/>
		<g>
			<path class="st6" d="M1239.3,789.2h16c5.6,0,10.2-4.6,10.2-10.2l0,0c0-5.6-4.6-10.2-10.2-10.2h-16c-5.6,0-10.2,4.6-10.2,10.2l0,0
				C1229.1,784.6,1233.7,789.2,1239.3,789.2z"/>
		</g>
		<path class="st2" d="M1228.1,779c0,6.2,5,11.2,11.2,11.2h16c6.2,0,11.2-5,11.2-11.2s-5-11.2-11.2-11.2h-16
			C1233.1,767.8,1228.1,772.8,1228.1,779z M1230.2,779c0-5,4.1-9.1,9.1-9.1h16c5,0,9.1,4.1,9.1,9.1s-4.1,9.1-9.1,9.1h-16
			C1234.3,788.1,1230.2,784,1230.2,779z"/>
		<g>
			<path class="st7" d="M1238.6,779.2h17.9c1.7,0,3.1-1.4,3.1-3.1c0-1.7-1.4-3.1-3.1-3.1h-17.9c-1.7,0-3.1,1.4-3.1,3.1
				C1235.5,777.9,1236.9,779.2,1238.6,779.2z"/>
		</g>
		<g>
			<path class="st5" d="M663.7,777.2H694c1.7,0,3.1-1.4,3.1-3.1c0-1.7-1.4-3.1-3.1-3.1h-30.3c-1.7,0-3.1,1.4-3.1,3.1
				C660.6,775.8,662,777.2,663.7,777.2z"/>
		</g>
		<g>
			<path class="st2" d="M1244.1,744.6c1.7,0,3.1-1.4,3.1-3.1v-19.9c0-1.7-1.4-3.1-3.1-3.1c-1.7,0-3.1,1.4-3.1,3.1v19.9
				C1241,743.2,1242.4,744.6,1244.1,744.6z"/>
		</g>
		<g>
			<circle class="st10" cx="1091.9" cy="685.6" r="8.9"/>
		</g>
		<g>
			<path class="st2" d="M1081.9,688.6h19.9c1.7,0,3.1-1.4,3.1-3.1c0-1.7-1.4-3.1-3.1-3.1h-19.9c-1.7,0-3.1,1.4-3.1,3.1
				C1078.9,687.2,1080.2,688.6,1081.9,688.6z"/>
		</g>
		<g>
			<path class="st9" d="M681.7,745.3c1.7,0,3.1-1.4,3.1-3.1v-21.3c0-8.2-5.6-8.8-7.3-8.8h-4c-1.7,0-3.1,1.4-3.1,3.1
				c0,1.7,1.4,3.1,3.1,3.1h4c0.4,0,1.1,0,1.1,2.7v21.3C678.6,744,680,745.3,681.7,745.3z"/>
		</g>
		<g>
			<g>
				<path class="st6" d="M896.4,548.5c4.8,0,8.7,3.9,8.7,8.7v39c0,4.8-3.9,8.7-8.7,8.7c-4.8,0-8.7-3.9-8.7-8.7v-39
					C887.7,552.3,891.6,548.5,896.4,548.5z"/>
			</g>
		</g>
		<path class="st2" d="M886.6,557.1v39c0,5.4,4.4,9.7,9.7,9.7c5.4,0,9.7-4.4,9.7-9.7v-39c0-5.4-4.4-9.7-9.7-9.7
			C891,547.4,886.6,551.7,886.6,557.1z M888.8,557.1c0-4.2,3.4-7.6,7.6-7.6c4.2,0,7.6,3.4,7.6,7.6v39c0,4.2-3.4,7.6-7.6,7.6
			c-4.2,0-7.6-3.4-7.6-7.6V557.1z"/>
		<g>
			<g>
				<path class="st5" d="M898.3,593.8c1.7,0,3.1-1.4,3.1-3.1v-31.1c0-1.7-1.4-3.1-3.1-3.1s-3.1,1.4-3.1,3.1v31.1
					C895.2,592.4,896.6,593.8,898.3,593.8z"/>
			</g>
		</g>
		<g>
			<g>
				<path class="st6" d="M1054.4,548.5c4.8,0,8.7,3.9,8.7,8.7v39c0,4.8-3.9,8.7-8.7,8.7c-4.8,0-8.7-3.9-8.7-8.7v-39
					C1045.8,552.3,1049.7,548.5,1054.4,548.5z"/>
			</g>
		</g>
		<path class="st2" d="M1044.7,557.1v39c0,5.4,4.4,9.7,9.7,9.7c5.4,0,9.7-4.4,9.7-9.7v-39c0-5.4-4.4-9.7-9.7-9.7
			C1049.1,547.4,1044.7,551.7,1044.7,557.1z M1046.9,557.1c0-4.2,3.4-7.6,7.6-7.6c4.2,0,7.6,3.4,7.6,7.6v39c0,4.2-3.4,7.6-7.6,7.6
			c-4.2,0-7.6-3.4-7.6-7.6V557.1z"/>
		<g>
			<g>
				<path class="st5" d="M1056.3,593.8c1.7,0,3.1-1.4,3.1-3.1v-31.1c0-1.7-1.4-3.1-3.1-3.1c-1.7,0-3.1,1.4-3.1,3.1v31.1
					C1053.3,592.4,1054.6,593.8,1056.3,593.8z"/>
			</g>
		</g>
	</g>
	<path class="st2" d="M1144.6,734h-75.7V595.6h2.1v136.3h73.5c14.6,0,27.8,9.3,32.8,23l3.6,10h49.2v2.1h-50.8l-4.1-11.4
		C1170.7,742.7,1158.3,734,1144.6,734z"/>
	<g id="window_x5F_2_1_">
		<g>
			<g>
				<path class="st12" d="M1077.8,616.4v23.2c0,7.6,6.1,13.9,13.7,13.9h96.9c4.1,0,6.8-4.3,5.1-8.1l-15.7-34.7
					c-2.2-5-7.1-8.1-12.5-8.1h-73.9C1084,602.6,1077.8,608.8,1077.8,616.4z"/>
			</g>
		</g>
		<g>
			<g>
				<path class="st13" d="M1084.3,619.5c1.7,0,3.1-1.4,3.1-3.1c0-2.4,1.9-4.3,4.1-4.3h73.9c1.6,0,3.1,1,3.8,2.5
					c0.7,1.5,2.5,2.2,4,1.5c1.5-0.7,2.2-2.5,1.5-4c-1.7-3.7-5.3-6.1-9.3-6.1h-73.9c-5.7,0-10.3,4.7-10.3,10.4
					C1081.3,618.1,1082.6,619.5,1084.3,619.5z"/>
			</g>
		</g>
	</g>
	<path class="st2" d="M1188.4,654.5c2.3,0,4.4-1.2,5.6-3.1c1.3-2,1.4-4.4,0.5-6.5l-15.7-34.7c-2.4-5.3-7.7-8.7-13.5-8.7h-73.9
		c-8.1,0-14.8,6.7-14.8,14.9v23.2c0,8.2,6.6,14.9,14.8,14.9H1188.4z M1158.3,652.4h-66.8c-7,0-12.6-5.7-12.6-12.8v-23.2
		c0-7,5.7-12.8,12.6-12.8h66.8V652.4z M1188.4,652.4h-28v-48.7h5c4.9,0,9.4,2.9,11.5,7.5l15.7,34.7c0.7,1.5,0.5,3.1-0.3,4.5
		C1191.4,651.6,1190,652.4,1188.4,652.4z"/>
	<path class="st2" d="M1180.4,642.4c0.6,0,1.1,0.5,1.1,1.1v26c0,0.6-0.5,1.1-1.1,1.1s-1.1-0.5-1.1-1.1v-26
		C1179.4,642.9,1179.8,642.4,1180.4,642.4z"/>
	<g id="window_x5F_3_1_">
		<g>
			<g>
				<path class="st12" d="M904.6,616.8v22.4c0,7.9,6.4,14.2,14.2,14.2h113.8c7.9,0,14.2-6.4,14.2-14.2v-22.4
					c0-7.9-6.4-14.2-14.2-14.2H918.8C911,602.6,904.6,608.9,904.6,616.8z"/>
			</g>
		</g>
		<g>
			<g>
				<path class="st13" d="M911.1,619.9c1.7,0,3.1-1.4,3.1-3.1c0-2.6,2.1-4.7,4.6-4.7h113.8c2.6,0,4.7,2.1,4.7,4.7
					c0,1.7,1.4,3.1,3.1,3.1c1.7,0,3.1-1.4,3.1-3.1c0-5.9-4.8-10.8-10.8-10.8H918.8c-5.9,0-10.7,4.8-10.7,10.8
					C908.1,618.5,909.5,619.9,911.1,619.9z"/>
			</g>
		</g>
	</g>
	<path class="st2" d="M903.6,616.8v22.4c0,8.4,6.8,15.3,15.3,15.3h113.8c8.4,0,15.3-6.9,15.3-15.3v-22.4c0-8.4-6.9-15.3-15.3-15.3
		H918.8C910.4,601.5,903.6,608.4,903.6,616.8z M1023.4,603.7h9.2c7.2,0,13.1,5.9,13.1,13.1v22.4c0,7.2-5.9,13.1-13.1,13.1h-9.2
		V603.7z M905.7,616.8c0-7.2,5.9-13.1,13.1-13.1h102.4v48.7H918.8c-7.2,0-13.1-5.9-13.1-13.1V616.8z"/>
	<g id="window_x5F_4_1_">
		<g>
			<g>
				<path class="st12" d="M747.1,653.5h126.6c8,0,14.6-6.2,14.6-13.9v-23.2c0-7.6-6.5-13.9-14.6-13.9H754.1c-6.5,0-12.2,4.1-14,10
					l-7,23.2C730.5,644.7,737.4,653.5,747.1,653.5z"/>
			</g>
		</g>
		<g>
			<g>
				<path class="st13" d="M881.8,619.5c1.7,0,3.1-1.4,3.1-3.1c0-5.7-5-10.4-11.1-10.4H754.1c-5,0-9.4,3.1-10.7,7.6
					c-0.5,1.6,0.4,3.3,2.1,3.8c1.6,0.5,3.3-0.4,3.8-2.1c0.6-1.9,2.6-3.2,4.8-3.2h119.7c2.8,0,5,1.9,5,4.3
					C878.8,618.1,880.1,619.5,881.8,619.5z"/>
			</g>
		</g>
		<path class="st2" d="M734.4,648.2c3,4,7.6,6.3,12.8,6.3h126.6c8.6,0,15.6-6.7,15.6-14.9v-23.2c0-8.2-7-14.9-15.6-14.9H754.1
			c-6.9,0-13.1,4.4-15,10.8l-7,23.2C730.8,639.9,731.6,644.5,734.4,648.2z M866.5,603.7h7.3c7.4,0,13.5,5.7,13.5,12.8v23.2
			c0,7-6,12.8-13.5,12.8h-7.3V603.7z M734.1,636.1l7-23.2c1.6-5.5,7-9.3,13-9.3h110.2v48.7H747.1c-4.5,0-8.5-2-11-5.4
			C733.7,643.8,733,639.8,734.1,636.1z"/>
	</g>
	<g id="glass_x5F_1_1_">
		<g>
			<path class="st12" d="M1194.1,595.6c-0.1,1.2,0.1,2.4,0.6,3.6l23.9,50.1c1.2,2.5,3.8,4.1,6.7,4.1h11.1
				c-5.7-14.1-13.1-27.5-22.1-40.1l-12.7-17.8l-1.6-2.2c-0.8-1.1-1.6-2.1-2.5-3.1C1195.6,591.5,1194.3,593.4,1194.1,595.6z"/>
		</g>
	</g>
	<path class="st2" d="M1193.7,599.6l23.9,50.2c1.4,2.9,4.4,4.7,7.7,4.7h12.7l-0.6-1.5c-5.8-14.3-13.3-27.9-22.2-40.3l-14.3-20
		c-0.8-1.2-1.7-2.2-2.6-3.2l-0.6-0.6l-0.8,0.4c-2.3,1.3-3.8,3.6-4,6.1C1192.9,596.9,1193.1,598.3,1193.7,599.6z M1195.2,595.7
		c0.1-0.5,0.2-1,0.4-1.5l1.3-3.3l2.1,2.9l14.5,20.3c7.9,11,14.7,23,20.2,35.6l1.2,2.8h-9.5c-2.5,0-4.7-1.4-5.8-3.5l-23.9-50.2
		C1195.2,597.7,1195.1,596.7,1195.2,595.7z"/>
	<path class="st14" d="M883.9,726.3l7.7,0c-0.7,2.3-1.9,4.1-3.8,5.5c-2,1.4-4.3,2.2-7.1,2.2c-3.4,0-6.1-1.1-8.2-3.2
		c-2.1-2.1-3.2-5-3.2-8.5c0-3.6,1.1-6.4,3.2-8.5c2.1-2.1,4.9-3.2,8.2-3.2c2.8,0,5.2,0.7,7.1,2.1c1.8,1.3,3,3.1,3.7,5.4l-7.7,0
		c-0.7-1-1.6-1.5-2.9-1.5c-1.5,0-2.6,0.5-3.3,1.6c-0.7,1.1-1.1,2.4-1.1,4.2s0.4,3.1,1.1,4.2c0.7,1.1,1.8,1.6,3.2,1.6
		c0.9,0,1.6-0.1,2.1-0.5C883.2,727.3,883.6,726.9,883.9,726.3z M900.5,715.1l0-4.3l-7,0l0,22.9l7,0l0-10.5c0-1.9,0.4-3.3,1.2-4
		c0.8-0.8,2-1.1,3.6-1.1l1.7,0l0-7.5C904.3,710.6,902.1,712.1,900.5,715.1z M981.3,708.8c1,0,1.8-0.3,2.5-1c0.7-0.7,1-1.5,1-2.5
		c0-1-0.3-1.8-1-2.5c-0.7-0.7-1.5-1-2.5-1c-1,0-1.8,0.3-2.5,1c-0.7,0.7-1,1.5-1,2.5c0,1,0.3,1.8,1,2.5
		C979.5,708.5,980.3,708.8,981.3,708.8z M967.7,710.8l0-6.1l-7,0l0,6.1l-2.1,0l0,5.8l2.1,0l0,9.5c0,2.8,0.7,4.7,2.1,5.8
		c1.4,1.1,3.4,1.7,6,1.7l7,0l0-5.9l-5.9,0c-1.4,0-2.1-0.5-2.1-1.6l0-9.5l10.2,0l0,17.1l7,0l0-22.9L967.7,710.8z M1004.1,710.8
		l-5.2,17l-5.2-17l-7.5,0l8.1,22.9l9.1,0l8.1-22.9L1004.1,710.8z M1053.2,723.5c-0.6-0.9-1.3-1.5-2.4-1.9c-1.9-0.8-3.8-1.3-6.2-1.8
		c-2.2-0.5-3.4-1.1-3.4-2.1c0-1.1,0.9-1.8,2.7-1.8c0.9,0,1.6,0.2,2.1,0.6c0.5,0.3,0.7,0.8,0.8,1.6l7.2,0c-0.1-2.3-1.1-4.2-2.9-5.5
		c-1.8-1.3-4.2-2-7.1-2c-2.9,0-5.3,0.7-7,2.1c-1.7,1.4-2.6,3.1-2.6,5.1c0,1.5,0.4,2.7,1.3,3.6c0.9,0.9,2,1.6,3.2,1.9
		c1.3,0.4,2.5,0.7,3.8,0.9c1.6,0.3,4.6,0.6,4.6,2.3c0,0.6-0.3,1.1-0.8,1.5c-0.5,0.4-1.2,0.6-2,0.6c-1.9,0-2.8-0.8-3-2.2l-7.2,0
		c0,2.7,1.2,4.5,3,5.8c1.9,1.3,4.2,1.9,7,1.9c2.8,0,5.1-0.7,6.9-2c1.8-1.4,2.7-3.1,2.7-5.2C1054.2,725.5,1053.9,724.4,1053.2,723.5z
		 M930.8,722.4c0,0.8-0.1,1.5-0.2,2.2l-15.8,0c0,0,0,0,0,0c0.1,1.1,0.6,2,1.4,2.6c0.8,0.7,1.8,1,3,1c1.1,0,2.1-0.3,2.9-1
		c0.3-0.3,0.6-0.6,0.8-0.9l7.2,0c-0.7,2.3-2,4.2-3.9,5.6c-2,1.4-4.3,2.1-7,2.1c-3.3,0-6.1-1.1-8.2-3.2c-2.1-2.1-3.2-5-3.2-8.6
		c0-3.6,1.1-6.4,3.2-8.5c2.1-2.1,4.9-3.2,8.2-3.2c3.4,0,6.2,1,8.4,3.1S930.8,718.7,930.8,722.4z M923.6,720.2
		c-0.1-1.2-0.6-2.1-1.4-2.8c-0.8-0.7-1.8-1.1-2.9-1.1c-1.1,0-2.1,0.4-2.8,1.1c-0.8,0.7-1.2,1.7-1.4,2.8L923.6,720.2z M1033.3,722.4
		c0,0.8-0.1,1.5-0.2,2.2l-15.8,0c0,0,0,0,0,0c0.1,1.1,0.6,2,1.4,2.6c0.8,0.7,1.8,1,3,1c1.1,0,2.1-0.3,2.9-1c0.3-0.3,0.6-0.6,0.8-0.9
		l7.2,0c-0.7,2.3-2,4.2-3.9,5.6c-2,1.4-4.3,2.1-7,2.1c-3.3,0-6.1-1.1-8.2-3.2c-2.1-2.1-3.2-5-3.2-8.6c0-3.6,1.1-6.4,3.2-8.5
		c2.1-2.1,4.9-3.2,8.2-3.2c3.4,0,6.2,1,8.4,3.1C1032.2,715.8,1033.3,718.7,1033.3,722.4z M1026.1,720.2c-0.1-1.2-0.6-2.1-1.4-2.8
		c-0.8-0.7-1.8-1.1-2.9-1.1c-1.1,0-2.1,0.4-2.8,1.1c-0.8,0.7-1.2,1.7-1.4,2.8L1026.1,720.2z M956.5,710.8l0,22.9l-7,0l0-2.9
		c-1.7,2.1-3.8,3.2-6.5,3.2c-2.9,0-5.3-1.1-7.3-3.3c-2-2.2-3-5-3-8.4c0-3.4,1-6.2,3-8.4c2-2.2,4.5-3.3,7.4-3.3
		c2.7,0,4.9,0.9,6.4,2.8l0-2.6L956.5,710.8z M949,722.3c0-5.5-3.6-5.6-4.8-5.6c-1.3,0-2.4,0.5-3.4,1.5c-1,1-1.5,2.4-1.5,4.2
		c0,1.8,0.5,3.2,1.5,4.1c1,1,2.1,1.4,3.4,1.4C945.5,727.9,949,727.7,949,722.3z"/>
</g>
</svg>
